<?xml version="1.0" encoding="utf-8"?>
<!-- Generator: Adobe Illustrator 25.0.1, SVG Export Plug-In . SVG Version: 6.00 Build 0)  -->
<svg version="1.1" id="Calque_1" xmlns="http://www.w3.org/2000/svg" xmlns:xlink="http://www.w3.org/1999/xlink" x="0px" y="0px"
	 viewBox="0 0 50 50" style="enable-background:new 0 0 50 50;" xml:space="preserve">
<style type="text/css">
	.st0{fill:#FFFFFF;}
</style>
<g id="XMLID_1_">
	<g id="XMLID_2_">
		<g id="XMLID_3_">
			<path id="XMLID_8_" class="st0" d="M31.6,38.7h-11c-4.8,0-8.8-3.9-8.8-8.8v-11c0-4.8,3.9-8.8,8.8-8.8h11c4.8,0,8.8,3.9,8.8,8.8
				v11C40.3,34.8,36.4,38.7,31.6,38.7z M20.7,12.4c-3.6,0-6.6,3-6.6,6.6v11c0,3.6,3,6.6,6.6,6.6h11c3.6,0,6.6-3,6.6-6.6v-11
				c0-3.6-3-6.6-6.6-6.6L20.7,12.4L20.7,12.4z"/>
			<path id="XMLID_5_" class="st0" d="M26.1,31.8c-3.9,0-7.3-3.2-7.3-7.3c0-3.9,3.2-7.3,7.3-7.3c3.9,0,7.3,3.2,7.3,7.3
				S30.1,31.8,26.1,31.8z M26.1,19.5c-2.7,0-5,2.3-5,5s2.3,5,5,5s5-2.3,5-5S28.8,19.5,26.1,19.5z"/>
			<path id="XMLID_4_" class="st0" d="M35.9,16.5c0,1.1-0.9,1.8-1.8,1.8c-1.1,0-1.8-0.9-1.8-1.8c0-1.1,0.9-1.8,1.8-1.8
				C35.2,14.7,35.9,15.5,35.9,16.5z"/>
		</g>
	</g>
</g>
</svg>
