<?xml version="1.0" encoding="utf-8"?>
<!-- Generator: Adobe Illustrator 25.0.1, SVG Export Plug-In . SVG Version: 6.00 Build 0)  -->
<svg version="1.1" id="Layer_1" xmlns="http://www.w3.org/2000/svg" xmlns:xlink="http://www.w3.org/1999/xlink" x="0px" y="0px"
	 viewBox="0 0 278.5 308" style="enable-background:new 0 0 278.5 308;" xml:space="preserve">
<style type="text/css">
	.st0{fill:#FFFFFF;}
</style>
<g>
	<path class="st0" d="M134.8,110.3h1.9c4,0.1,8.3-0.6,12-1l2.4-0.2c5.1-0.6,7.4-2.8,8.3-4.5c1-1.6,1.7-4.2,0-8
		c-2.7-6.3-9.4-7.9-20.5-7.6c-3.9,0-3.9,0-9.3,0.1c-3.5-0.1-6.9,1-8.2,3.1c-1.1,1.9-1.4,5.7-1.4,5.7c0,0.6,0,1,0,1.6
		c0,1.9,0.1,4.2,1.2,6.2C123.9,110.3,130.1,110.3,134.8,110.3z M148.8,93.8c2.8,0.6,5.1,1.9,6.1,4.5c0.6,1.1,1,2.7,0.2,3.6
		c-0.6,1.1-2.3,1.8-4.6,2.2c0,0-0.5,0-0.8,0.1c-0.6-2.3-1-3.9-1-6.1l0.1-1.4C149,96,149,94.9,148.8,93.8z M128.6,94.5h0.6
		c0.8,1.8,1.4,3.9,1.9,6.3c0-0.1,0,0.8,0,0.8c0,1.1,0.1,2.5,0.6,3.9c-2.7-0.1-5.3-0.6-6.1-2.3c-0.6-1.1-0.7-2.4-0.7-3.9
		c0-0.6,0-1,0-1.6c0,0,0-1.9-0.1-3.1C125.2,94.5,126.4,94.3,128.6,94.5z"/>
	<path class="st0" d="M69.8,238c0,0,0.2-1.9,0.6-2.7c1-4.5,1.6-5.6,1.7-5.8c0.1-0.1,0.6-0.7,0.6-0.7s0.7-1,2.8-2.9
		c2.2-1.9,5.9-4.2,6.5-4.6s5.8-3.3,5.8-3.3s2.7-1.2,3.5-1.7c1-0.2,5.8-2.5,5.9-3.5c0.1-1-0.8-1.7-0.8-1.7s-1.6-1.4-4-2.3
		s-6.2,0.6-6.2,0.6s-2.4,0.8-2.5,1c-0.1,0.1-3.6,1.7-5,2.4s-12,2.4-13,2.8c-1.8,1-1.7,1.9-1.7,1.9s-0.2,1.4-0.5,4.1
		c-0.1,2.7-0.8,6.8-0.8,7c-0.2,0.8-2.8,13.2-2.8,13.9c-0.1,0.8-0.6,1-0.6,1l-1.2,0.6V244c0,0-0.1-0.6-0.6-0.7
		c-0.2-0.1-2.8-2.5-3.1-2.9c-0.5-0.5-3.5-1.9-4.6-2.4c-1.1-0.5-2.8-0.6-2.8-0.6l-1.2-0.1l-0.8-0.1l0.1-0.7c0,0,2.5-2.9,3.1-3.5
		c0.6-0.6,3.3-3.9,4.6-6.5c1.4-2.4,2.9-6.8,2.9-6.8s0.5-1.7,0.6-2.4c0.1-0.6-1.1-3.9-1.1-3.9s-1.1-1.2-2.8-2.4
		c-1.7-1-3.6-1.7-4.2-1.9c-0.7-0.1-3.9-0.6-4.6-0.6c-0.8,0-3.9,0.1-6.1,0.5c-2.4,0.6-5.3,1.4-5.3,1.4L30,211c0,0-1,0.2-2.5,1.2
		c-1.7,1-1.8,0.8-2.8,1c-0.8,0.1-2.9,3.9-2.4,5c0.6,1.2,1.2,1.8,1.2,1.8l0.2,3.3v5.8c0,2.7,0.1,12,0.1,12l-1.2,1.2
		c0,0-2.3,1.4-3.1,2.3c-0.8,0.8,2.9,4.6,3.9,5.3c0.9,0.7,0.7,2.4,0.7,2.4l-0.1,4c0,0-0.2,2.7-0.6,6.1c-0.1,3.5,0.5,3.9,1.4,5.8
		c1.1,1.7,3.4,2.7,3.4,2.7l7,1.1l5.9-2.8l2.8-2.4l2.7-2.4c0,0,4.2-4.5,6.1-6.8c1.7-2.4,4.2-7.4,4.8-8.8c0.1-0.2,0.1-0.6,0.1-1
		c0.2,0.2,0.2,0.6,0.2,0.6s-0.1,1,0.1,6.3c0.1,5.3,1.6,8.6,2.4,10.2c0.8,1.6,1.9,3.1,5.6,4.6c3.5,1.6,8.2-0.8,8.2-0.8s4-1.9,5.9-3.4
		c1.8-1.2,5-2.5,5-2.5s3.1-1,4.2-2.8c1.1-1.8,0-3.1,0-3.1s-1.2-0.7-2.8-1.2c-1.6-0.7-5.3-0.1-7.9,1c-2.7,1.2-7.6,3.9-9.1,4.6
		c-1.2,0.8-1.2-0.6-1.2-0.6c-0.6-1.1-0.6-1.9-0.8-3.4c-0.1-1.4,0-5.1,0-6.1c0-1,0.7-0.8,0.7-0.8s0.1,0,1.7-0.6
		c1.4-0.6,6.1-1.1,6.1-1.1s6.5-0.6,9.1-1c2.7-0.5,4.1-1.7,4.1-1.7s0.6-0.2,1-0.8c0.8-0.8,0.8-1.2,1-2.3c0.1-1-0.5-1.7-1.2-1.7
		s-18.9-0.1-19.7-0.1c-0.8,0-0.6-0.7-0.6-0.7L69.8,238z M32.3,220.2c0,0,1.2-1.1,2.4-1.6c1.1-0.6,3.1-1.4,3.9-1.7
		c0.7-0.2,2.4-0.8,3.5-0.8h3.9c0,0,0.1,1.7-1.6,5.1c-1.7,3.4-4.1,6.5-4.1,6.5l-3.1,3.9l-3.6,4c0,0-0.6,1.1-0.6-0.1
		c0-1.2-0.1-2.7-0.1-2.7l-0.5-8.6L32.3,220.2z M43.8,253.5c-1.1,1.8-4.2,5.1-4.2,5.1s-2.9,2.9-4.5,4.2c-1.6,1.2-2.5-1-2.5-1v-5.2
		V248c0-1.2,0.6-1.2,0.6-1.2s1.2-0.8,2.4-1.1c1.1-0.2,2.4-0.8,3.3-1c0.8-0.1,3.5-0.6,4.4-0.6c0.8,0,4.2,0.8,4.2,1.7
		C47.2,247.6,45.4,251.5,43.8,253.5z"/>
	<path class="st0" d="M235.8,284.4c-0.2-1.2-0.1-1.1-1-1.9c-1-1-2.4-1-2.4-1s-2.4,0.1-2.3,2.5c0.1,2.3,4.4,16.8,4.4,16.8
		s2.7,2.8,5,0.6c0.8-0.7-0.6-3.5-1.6-5.9C237.1,292.9,236.2,285.5,235.8,284.4z"/>
	<path class="st0" d="M228.2,292.5l-2.5-0.8l-5.3-1c0,0-2.4-0.1-3.9-1.6c-1.5-1.5-2.2-5.3,3.1-7.6c1.8-0.8,3.5,0.1,3.5,0.1
		s1,1,2.2-0.6c1.1-1.7-0.1-2.3-0.1-2.3s-2.4-2.3-4.2-2.3c-4.2,0.1-7.5,3.3-7.5,3.3s-8.5,6.2-0.7,11.3c3.1,1.9,9.3,3.1,10.4,3.5
		c1.9,0.8,0,1.6,0,1.6s-7.9,0.2-9.4,1c-1.4,0.7,0.1,2.3,1,3.1c0.8,0.8,3.4,0.5,3.4,0.5s2.3-0.1,3.5-0.6c1.2-0.5,6.8-1.2,8.6-1.9
		c1.7-0.6,2.8-2.4,1.7-3.5C230.8,293.4,228.2,292.5,228.2,292.5z"/>
	<path class="st0" d="M230.9,277c0,0,4.5,3.1,5.1,1.6c0.6-1,0.1-1.7-0.1-2.4c-0.5-0.6-2.7-1.9-3.9-2.2
		C227.2,273.7,230.9,277,230.9,277z"/>
	<path class="st0" d="M274.3,218c-0.8-2.4-2.8-3.9-3.9-4.2c-1.1-0.6-11-0.6-11-0.6s-13.6,1.4-23.5,2.8c-10.2,1.6-13.8,1.6-15.1,3.1
		c-1,1.1-5,19.4-6.3,25.7c-0.2-0.5-0.6-0.6-0.6-0.6s-1.9-2.4-5-3.9c-3.1-1.4-7.6-3.5-8.6-4.2c-1.1-0.6-4.2-2.8-5.8-5.3
		c-1.6-2.5-1.7-6.9,0-8.6s2.7-2.8,4.6-3.5c1.2-0.5,1.8,1.2,2.7,1.9c0,0,1.9,2.4,4.2,2.3c2.3,0,1.9-1.4,1.9-1.4s0.6-1.9,0.1-3.6
		c-0.5-1.7-5-6.2-6.1-6.3s-4.1-0.2-7.6,0.8c-3.5,1.1-6.1,3.5-7.6,5.2c0,0-0.6,0.6-0.8,1.7c-0.1-0.8-0.6-1.6-1-1.9
		c-1-1.2-6.8-2.4-7.3-1.7c-0.7,0.5-0.6,0.8-0.6,0.8s0.1,0.1,0.6,4.2c0.6,4,0,9.8,0,9.8s-0.7,6.9-3.9,14.5c-3.1,7.6-3.9,7.9-4.5,9.4
		c-0.6,1.4-2.4-1.2-2.4-1.2s-1.4-1.9-2.8-7c-1.4-5.1-1.4-10.5-1.4-10.8c0-0.2-0.5-5.6-0.5-6.9s-0.6-4.6-0.6-4.6s-0.5-1.9-0.6-3.1
		c-0.2-1-1-1.1-1-1.1s-1.7-0.6-2.8-1c-1.2-0.5-2.3-0.8-3.6-0.1c-1.4,0.7-1,1.9-1,1.9l0.6,2.8c0,0,0.2,5,0.6,9.2
		c0.1,4.2,1.1,10.8,1.1,10.8s1,8,4.8,13.4c3.7,5.3,7.3,6.9,7.3,6.9s3.5,1.4,5.2,0.7c1.7-0.7,4.4-1,7.4-8.3
		c3.1-7.4,4.2-12.1,5.3-18.5c0.6-3.1,1-5,1.1-6.3c0.1,0.6,0.6,1.1,1,1.7c1.7,2.3,3.1,4.4,7.5,7.4c4.2,2.9,7.6,5.1,10,5.8
		c0.5,0.1,1.8,1.1,0.6,2.8s-2.8,3.3-4.6,4.2c-1.8,1.1-7.6,1.9-8.6,2.9c-1,1-1.4,1.1-1.9,1.9c-0.6,1-0.6,1.1,0.1,1.8
		c0.7,0.7,3.5,2.8,3.5,2.8s0.6,0.8,2.8,0.1c2.2-0.6,4.6-1.1,10-4.2c5.3-3.1,6.7-5,6.7-5s0.6-0.5,1.2-1.2c1.2,9.4,3.9,11.6,3.9,11.6
		s2.4,3.4,6.8,5.1c4.2,1.7,5.9,0.6,5.9,0.6s4.2-1.2,7.5-3.9c3.3-2.5,4.2-4.6,4.8-5.8c0.5-1.2-2.7-5.1-3.6-5.7
		c-1.2-0.6-2.8,1.7-4.8,3.5c-1.9,1.8-2.4,2.3-5,3.1c-2.5,1-4.2-1-5.2-2.8c-1-1.7-1.1-6.1-1.1-7.5c0-1.4,2.7-1.7,4.8-2.3
		c2.3-0.5,6.9-0.6,10.4-0.6s5.3-0.6,5.3-0.6s2.5-1.1,2.8-2.4c0.2-1.2-1.7-3.1-2.3-3.9c-0.6-0.8-0.8-0.8-1.8-1.1
		c-1-0.2-5.9,0.1-5.9,0.1l-1.4,0.1c0,0-10.2,0.6-11.3,0.6c-1,0-0.8-0.6-0.8-0.6v-0.6c-0.1-1.7,1.2-9.4,1.7-10.5
		c0.2-0.8,0.5-0.6,1.1-1c13.2-5,27.8-6.1,30.7-6.5c2.9-0.5,8.2,0,8.2,0s3.5,0.2,5.6,0.1c2.3-0.1,3.1-1.8,3.1-1.8
		S274.8,219.6,274.3,218z"/>
	<path class="st0" d="M263.1,288.9c0,0-1-0.7-2.4,1c-1.4,1.7-3.5,4.2-6.1,5.9c-2.7,1.7-3.6,2.5-6.9,1.9c-3.3-0.7-4.6-7.9-3.3-10.5
		c1.4-2.8,2.5-5.1,5.2-5.1c1.7,0,4.5,1,4.6-1.2c0.1-1-1.9-3.1-7.6-2.9l-0.1,0.1c0,0-5.3,0.6-7.6,8.7c-0.6,1.8-0.6,4,0.2,7.3
		c1,3.3,5.6,13.4,16.8,7.3c4.1-2.3,7.4-7.6,8.7-10.4C265.5,289,263.1,288.9,263.1,288.9z"/>
	<path class="st0" d="M95.5,179.4c2.4,3.5,5.3,5.8,8.5,7c2.3,0.8,4.5,1,6.8,1l2.3,0.1l4.6,0.1h3.4l24.9-0.1h15.2
		c10.2,0,20.1-7.3,23-16.6c1.7-5.9,1.7-11.1,1.7-17.2c0-8.7-1-15.6-2.8-21.1c-2.7-7.9-11.6-9.3-18.5-9.2c0.6-0.8,1-1.7,1.4-2.8
		c0.7-1.7,1-3.5,1.2-5.3l0.2-1.9l0.6-3.6c2.8,0.1,6.9,0.5,9.4,0c3.1-0.6,3.9-1.4,4.5-4.2c0.6-2.7,1.4-19.7-0.8-22.3
		c-0.7-0.8-1.9-1.7-4-1.7c-2.5,0.1-5.7,0.8-8.3,1.9c-0.2-1.8-1-3.5-2.4-5.1c-3.6-4.1-9.8-5.8-15.8-6.5c5.3-12,24.7-51,24.7-51
		c1.9,0.1,3.9-0.7,5.3-3.1l0.6-0.6c1-1.6,2.2-3.1,1.7-5.1c-0.2-1.2-1.2-2.4-2.8-3.1L179.9,9c-1.9-1-2.9-0.7-4.6,0.2
		c-1.1,0.7-4.6,2.8-4.6,7.3l0.2,1.9c0.1,0.6,0.1,1.1,0.1,1.4c-0.1,0.7-21.9,44.2-25.3,51.8c-2.5-0.1-5-0.1-7-0.1H137h-2.8
		c-1.4,0-2.8,0-4.2,0c-1.2-5.1-1.4-10.3-1.7-15.8l-0.1-4.2c-0.1-5.8-1-11.7-1.7-17.5l-1.2-12h-0.7l0.1-0.1c1-1.1,4.6-8,2.3-11.6
		c-0.6-0.8-1.9-2.4-5.3-1.4c-2.7,0.6-5,5.9-5.3,7.3c-0.6,2.8,0.6,5.2,2.9,7l1.2,0.7l1.1,10.8c0.7,5.7,1.4,11.3,1.6,16.9l0.1,4.2
		c0.1,5.2,0.2,10.5,1.6,16c-4.5,0.5-8.8,1.4-12.5,4c-2.7,1.9-4,4.6-4.6,7.6c-0.7,0-1.6-0.1-2.4-0.1l-3.1-0.2c-1.6,0-3.1,0.1-4.2,1.2
		c-0.7,0.8-1,1.7-1,2.8c0,0.6,0.1,1.2,0.1,1.8v0.6l0.2,4.2c0,0,0.2,10.5,0.2,11.6c0,2.4,0.6,5.1,3.1,5.9l2.4,0.2l1,0.1l1.1,0.1
		l3.4,0.6c0.7,2.9,1.9,7.3,4.5,10.5c-1.9,0-4,0.1-6.1,0.5c-4.2,0.7-7.6,1.9-10.2,4.2c-4.2,3.5-5.3,8.3-5.8,12.1
		c-0.6,4.5-0.6,9.1-0.7,13.4l-0.1,7.3l-0.1,1.7c-0.1,3.1-0.5,6.2,0.6,9.6C92.4,173.9,93.6,176.7,95.5,179.4z M169.2,105
		c0.2-2.8,0.1-5.3,0.1-7.9v-5.9v-0.6c0-0.6,0.1-1.2,0.1-1.8c2.4-1.2,5.8-2.3,8.2-2.4c0,0,0.1,0,0.2,0.1c0.2,0.2,0.5,1.2,0.5,2.3
		c0,1.2-0.5,10.8-0.5,11.6c0,1.4-0.1,2.8-0.2,4.1l-0.6,0.6c-2.3,0.5-5.3,0.6-7.9,0.5L169.2,105z M106.5,106.7c0,0-3.5-1-3.5-1.2
		c0-0.8,0.1-1.7,0.1-2.4l0.1-2.4l-0.6-7.6l-0.2-4.2c0,0,2.9-0.2,5.2-0.6c0,2.3,0.2,4.6,0.6,6.7l0.5,4.2v3.1c0,1.6,0,3.1,0.1,4.6
		L106.5,106.7z M113.9,109.4c-0.6-2.3-0.6-4.6-0.6-7.3v-3.4l-0.5-4.5c-0.6-5.7-1.2-12,2.4-14.9c4.8-3.5,12.5-3.4,18.9-3.3h2.8h1.9
		c7.9,0,19.6-0.1,24.6,5.3c1.7,1.9,1.4,5.7,1.2,8.6v0.6v6.3c0.1,2.5,0.1,5-0.1,7.3l-1.4,8l-0.5,2.3c-0.1,1.6-0.5,2.9-1,4.2
		c-1,2.3-1.9,3.9-3.1,4.2c-1,0.6-2.2,0.6-3.5,0.8l-1,0.1c-2.4,0.2-4.6,0.1-7.3,0.1l-4-0.1l-2.8-0.2l-3.1-0.2l-5.9-0.5l-7.4-0.2
		C117.6,122.5,115.4,115.8,113.9,109.4z M95.8,162l0.1-1.8l0.1-7.5c0-4.2,0.1-8.6,0.6-12.8c0.6-4.5,1.8-7.3,4.2-9.1
		c1.7-1.4,4.5-2.5,7.9-3.1c3.5-0.6,7.3-0.5,9.8-0.1l5-0.1c0.1,0,0.1,0,0.2,0l6.9,0.2l6.2,0.6l2.5,0.2l3.5,0.2l3.9,0.1
		c2.5,0.1,5.3,0.1,8-0.1l1-0.1c1.2-0.1,2.8-0.2,4.2-1c10.9-0.6,17.1,1.7,18.6,6.5c1.7,4.8,2.4,11.3,2.4,19.5c0,5.9,0,10.4-1.6,15.8
		c-2.3,7.5-10.2,13.2-18.3,13.2h-15.2l-24.7,0.1l-3.6-0.1l-4.2-0.1c0,0-6.1-0.2-7.6-1c-2.3-0.8-4.4-2.5-6.2-5.2
		c-1.6-2.2-2.7-4.4-3.3-6.8C95.5,167.4,95.6,164.6,95.8,162z"/>
	<path class="st0" d="M158,275.1c-0.1-0.6-2.8-8-3.4-11.1c-0.6-3.1-2.3-10.8-2.5-13c-0.2-2.3-1.4-7.9-1.7-9.1
		c-0.1-1-2.4-14.3-2.5-14.5c-0.1-0.2-2.9-15-3.1-16c-0.1-1-1.2-6.8-1.4-6.9c-0.1-0.1-0.5-1.7-2.2-2.7s-7-1.9-7.5-1.2
		c-0.6,0.7-1,2.4-1,2.4s-1.2,4.5-1.7,5.8c-0.6,1.4-3.4,12.5-4,14.6c-0.6,2.2-1.7,7.5-2.5,11.9c-0.8,4.4-2.4,11.6-2.5,12
		c-0.1,0.2-1.2,4.8-1.9,6.9c-0.1-0.6-0.2-0.8-0.2-0.8c-0.1-1-0.8-0.6-0.8-0.6l-0.6,0.2l-1.9,1.4c0,0-3.1,2.4-4.6,4.2
		c-1.6,1.7-2.4,1.8-3.9,2.8c-1.4,1.1-3.1-1.7-4.2-3.1c-1-1.7-1.1-3.3-1.2-4.5c-0.1-1.1-0.6-4.5-0.6-5.1c-0.6-4,1-11.1,1.9-14.5
		c1.4-4.8,5-10.2,5.8-11.5c0.8-1.2,1.4-1,1.7-1s4.8,1.2,4.8,1.2s1-0.5,1.1-1.9c0.2-2.8-0.7-3.5-1.7-4.4c-1-1-5.3-2.8-5.9-2.8
		c-1.7,0.1-2.8,0.6-2.8,0.6c-3.6,1.7-5.3,3.9-5.3,3.9c-2.4,2.7-3.9,7.3-3.9,7.3c-0.7,1-1.9,6.5-1.9,6.5s-1.7,5-2.4,11.6
		c-0.8,7.7-0.2,9.8,1.6,14.9s7,8.3,7,8.3s4.5,3.5,7.5,3.1c2.9-0.5,3.5-0.8,3.5-0.8s0.6-0.2,2.3-1.7c1.4-1.1,2.9-3.5,3.6-5.3
		c1.2,1.1,4.6,3.9,6.5,3.4c2.3-0.7,2.4-1.4,2.8-2.8c0.6-1.2,0.6-3.3,0.6-3.3v-0.8l13.7-4.2l0.8-0.1c0,0,0.7-0.2,0.8,0.7
		s3.1,14.6,3.1,15.6c0.1,0.8,1,5.1,2.8,7.9c1.7,2.7,4.1,4,5.8,4.2c1.7,0.2,1.2,0.1,1.2,0.1s0.1,0.1,0.7-0.6c0.6-0.6,1.7-1.9,1.7-1.9
		s0.6-0.6-0.5-2.4C159,277.8,158.1,275.6,158,275.1z M141.8,246.7c0,0-9.1,1.7-10,1.8c-0.9,0.1-0.7-0.5-0.7-0.5l0.2-1.7l0.2-1.9
		l0.6-3.3c0,0,0.7-4.1,1.4-7.6c0.6-3.5,1.2-5.3,1.2-5.3s1.7-5.9,2.3-7.6c0.6-1.7,0.8-0.1,0.8-0.1l0.1,1l1.6,9.2c0,0,2.4,13.7,2.7,15
		C142.7,246.9,141.8,246.7,141.8,246.7z"/>
	<path class="st0" d="M116.1,176.4L116.1,176.4c4.4-3.5,11.3-3.6,16.1-3.5h4.8c4.2,0,8.2,0,12,0.6c3.6,0.6,6.7,1.2,9.1,2.4
		c0.1,0,1,0.5,1,0.5c2.8,1.1,5.3,2.3,7.6,1c2.3-1.1,3.1-3.9,3.5-5.7c1.4-6.1,1.6-12.8,1.2-20.1l0.1-0.1l-0.1-0.1
		c-0.1-1.8-0.1-3.6-0.2-5.3c-0.5-10-4.4-12.5-7.6-12.6c-2.4-0.1-4.6,0.6-6.8,1.2l-2.8,0.8c-3.1,0.6-6.2,1-9.1,1.1
		c-8.6,0.8-17.7,0-27.1-2.4c-3.3-0.8-6.1-0.2-8.3,1.4c-6.1,4.5-6.5,16.3-6.9,23.6l-0.1,1.9l-0.1,1.8c-0.5,3.9-1,8.6,2.5,12.1
		C108,178.7,112.5,178.4,116.1,176.4z M160.6,144.2l0.1-5.6c1-0.1,1.9-0.5,2.8-0.5c2.5,0.1,3.1,5.7,3.1,7.9c0.1,1.1,0.1,2.3,0.1,3.5
		c-1.8-0.1-4,0.1-6.3,0.2C160.4,148,160.4,146.2,160.6,144.2z M167,154.7c0.1,5.8-0.1,11.3-1.2,16.1c-0.6,2.2-1,2.4-1,2.4
		c-0.5,0.1-1.8-0.2-2.9-0.8c-1-5.6-1.2-11.3-1.2-17.2C162.5,154.7,165.3,154.3,167,154.7z M151.5,140.9c1.1-0.1,2.4-0.5,3.5-0.6
		c0,0,0.2-0.1,0.7-0.1l-0.1,4.1c0,2.3-0.1,4.4-0.1,6.7l-1.2,0.1c0,0-1.7,0.1-4,0.6c0.1-3.5,0.2-6.8,1.2-10.4V140.9z M150,158.3
		l0.1-1.9l4.6-0.6c0,0,0.2,0,0.8-0.1c0,5,0.2,9.8,1,14.5c-1.9-0.6-4.2-1.1-6.7-1.4C149.7,165.2,149.8,161.8,150,158.3z M141.1,141.6
		c1.4,0,2.8-0.1,4.2-0.2c0.2,0,0.7,0,1.1-0.1c-0.8,3.6-1,7.3-1,10.4c-1.7,0.1-3.5,0.5-4.8,0.6c0.1-3.5,0.2-7.3,0.8-10.5L141.1,141.6
		L141.1,141.6z M140.4,157.4l4.8-0.6c0,0.7,0,1.2,0,1.2c-0.1,3.4-0.5,6.8-0.2,10.2c-1.7-0.1-3.5-0.1-5.3-0.1
		C140.1,164.5,140.4,160.9,140.4,157.4z M131,141.5c1.9,0.1,3.9,0.2,5.7,0.2c-0.6,3.9-0.6,7.6-0.8,11.3l-6.2,0.7
		C129.8,150,130.2,146.2,131,141.5z M129.1,163.2l0.2-4.5c1.8-0.1,4.2-0.6,6.2-0.7c-0.1,3.5-0.5,6.8-1,10.2h-2.4c-1.1,0-2.3,0-3.5,0
		L129.1,163.2z M121.4,140.1c1.7,0.2,3.3,0.6,4.8,0.8c-0.8,5-1.2,9.3-1.4,13.4c-1,0.1-2.4,0.1-3.5,0.1v-0.8L121.4,140.1z
		 M121.4,159.3l3.1-0.1l-0.1,3.5l-0.2,5.8c-1,0.1-1.9,0.5-3.1,0.6C121.4,166,121.4,162.6,121.4,159.3z M112.4,139.6
		c0.7-0.6,1.9-1.1,4.2-0.6l-0.1,14.6v1c-2.9,0.1-5.9,0.5-8.7,1.1C108,150,108.9,142.1,112.4,139.6z M107.1,163.7l0.1-1.9
		c0,0,0-0.2,0-0.6c2.8-1,5.9-1.2,9.2-1.4c0.1,4,0,8.2-1,11.7c-0.1,0.1-0.2,0.1-0.5,0.1l-0.1-0.1c-1.8,1.7-5,2.4-6.8,0.5
		C106.4,170.1,106.8,166.8,107.1,163.7z"/>
	<path class="st0" d="M167.3,295.4L167.3,295.4C167.3,295.1,167.3,295.4,167.3,295.4z"/>
	<path class="st0" d="M204.5,278.6c-1.2,0.6-0.8,1-0.8,1s0.1,1.7,0,4.6c-0.1,2.9-0.1,10.2-1.9,11.3c-1.6,1.1-2.4,0.1-3.3-1.6
		c-1-1.7-1.2-5.3-1.2-5.3l0.1-3.5c0,0,0.2-1.2-0.1-3.6c-0.5-2.4-3.1-2.3-3.1-2.3c-2.8-0.1-2.4,1.7-2.4,1.7s-0.6,9.4,1,13.6
		c1.7,4.1,3.6,5.3,4.6,6.3c1,1,5,1.7,7.3-1c2.3-2.8,2.8-4.8,3.6-9.1c1-4.2,1.2-10.5,0.1-11.6C207.3,278.6,205.7,278,204.5,278.6z"/>
	<path class="st0" d="M190.1,293c-0.1-1-0.7-4.6-0.7-4.6l-1-6.8l-0.6-2.3l-0.8-3.5c0,0-0.7-1.9-3.3-1.4c-2.5,0.6-2.8,1.6-2.8,1.6
		s-0.1,1.1-0.7,2.8c-0.6,1.6-1.9,6.1-1.9,6.1s-1.1,2.5-1.7,3.9c-0.6,1.4-0.6,0.1-1-0.5c-0.2-0.6-3.5-11.6-3.5-11.6s-0.8-0.6-2.8,0
		c-1.9,0.6-1.2,10-1.2,10s-0.5,3.6-0.5,5.2c0,1.4-0.2,3.4-0.2,3.5c0,0.1-0.1,0.8-0.1,1.9c-0.1,3.1,1,4.2,1.1,4.6
		c0.1,0.2,1.7,1.7,3.4,1.2s1.2-1.4,1.4-2.4c0.1-1-0.1-2.5-0.1-3.5s0.6-1,0.6-1s0.7,0.6,1.7,1.4c1,1,2.8,1.2,2.8,1.2s2.8-3.9,3.1-5.3
		c0.6-1.6,1-2.8,1-2.8l1.7-3.5l0.1,1.1c0,0,0.7,4,1.1,7c0.5,3.1,3.5,5,3.9,5c2.8-0.1,2.3-2.8,2.3-2.8S190.3,294,190.1,293z"/>
</g>
</svg>
