
<svg width="10" height="10" xmlns="http://www.w3.org/2000/svg">

 <g>
  <title>background</title>
  <rect fill="none" id="canvas_background" height="10" width="10" y="-1" x="-1"/>
 </g>
 <g>
  <title>Layer 1</title>
  <style type="text/css">
	.st0{fill:#FFFFFF;}
</style>
<path class="st0" stroke="null" id="svg_1" d="m86.728361,22.201652c-10.770977,0 -19.533846,-8.467733 -19.533846,-18.875944c0,-1.604581 -1.346568,-2.905039 -3.006291,-2.905039l-16.10088,0c-1.660505,0 -3.006291,1.300458 -3.006291,2.905039l0,63.788301c0,6.118738 -5.151404,11.096643 -11.484187,11.096643c-6.332,0 -11.483404,-4.977904 -11.483404,-11.096643c0,-6.119496 5.151404,-11.0974 11.483404,-11.0974c1.660507,0 3.006291,-1.30046 3.006291,-2.905039l0,-15.558602c0,-1.603824 -1.345784,-2.905039 -3.006291,-2.905039c-18.525484,0 -33.596866,14.564533 -33.596866,32.46608c0,17.901545 15.071382,32.465323 33.596866,32.465323c18.525486,0 33.59765,-14.563778 33.59765,-32.465323l0,-28.235617c5.983615,3.082822 12.641297,4.69194 19.533846,4.69194c1.660505,0 3.006291,-1.300458 3.006291,-2.905039l0,-15.558602c0,-1.603824 -1.345786,-2.905039 -3.006291,-2.905039zm-3.006291,15.438316c-6.418118,-0.515947 -12.512904,-2.682621 -17.778611,-6.342668c-0.915195,-0.63699 -2.122409,-0.724747 -3.126855,-0.226957c-1.003662,0.496277 -1.634671,1.494885 -1.634671,2.585031l0,33.458635c0,14.69768 -12.375114,26.655245 -27.585068,26.655245c-15.209952,0 -27.584284,-11.957564 -27.584284,-26.655245c0,-13.716475 10.77724,-25.046884 24.577993,-26.498646l0,9.840819c-8.220326,1.381406 -14.489695,8.324751 -14.489695,16.657826c0,9.322603 7.848453,16.907478 17.495986,16.907478c9.648316,0 17.496769,-7.584875 17.496769,-16.907478l0,-60.883262l10.263665,0c1.377102,11.294851 10.676247,20.280803 22.36477,21.611522l0,9.797699zm0,0"/>
 </g>
</svg>