<svg xmlns="http://www.w3.org/2000/svg" viewBox="0 0 318.55 122.19"><defs><style>.cls-1{isolation:isolate;}.cls-2{fill:#5e277b;}.cls-3{fill:#3e0953;}.cls-4{fill:#501c69;}.cls-5{fill:#fff;}</style></defs><title>3rd eye</title><g id="Layer_2" data-name="Layer 2"><g id="Layer_1-2" data-name="Layer 1"><g class="cls-1"><polygon class="cls-2" points="318.55 5.32 318.36 87.66 12.19 122.19 12.38 39.85 318.55 5.32"/><polygon class="cls-3" points="12.19 122.19 0 116.87 0.19 34.53 12.38 39.85 12.19 122.19"/><polygon class="cls-4" points="12.38 39.85 0.19 34.53 306.36 0 318.55 5.32 12.38 39.85"/></g><path class="cls-5" d="M40.51,48.58c-.33.58-.76,1.35-.91,1.65L37,55.35l.1,2.36a15.66,15.66,0,0,0,.18,1.88l-2.67.28a18.46,18.46,0,0,0,0-1.9l-.1-2.36-3-4.53c-.24-.37-.53-.77-1-1.44l3.1-.33a5.78,5.78,0,0,0,.63,1.28L35.67,53l1.25-2.72a5.85,5.85,0,0,0,.51-1.41Z"/><path class="cls-5" d="M44,50.77a3.57,3.57,0,0,1,4.21,3.73,4.22,4.22,0,0,1-3.87,4.65c-2.46.26-4.1-1.21-4.2-3.78A4.14,4.14,0,0,1,44,50.77Zm.27,6.44c1.07-.11,1.64-1,1.58-2.42s-.72-2.21-1.75-2.1-1.68,1-1.62,2.43.73,2.21,1.8,2.09"/><path class="cls-5" d="M56.69,49.72a16.21,16.21,0,0,0,0,1.93l.16,3.94A13.84,13.84,0,0,0,57,57.51l-2.43.26,0-.55c0-.06,0-.26,0-.35a3.49,3.49,0,0,1-2.49,1.36,2.51,2.51,0,0,1-2-.5,2.68,2.68,0,0,1-.78-2.08l-.13-3.21A15.54,15.54,0,0,0,49,50.53l2.55-.27a14.78,14.78,0,0,0,0,1.93l.11,2.62a1.47,1.47,0,0,0,.23.94.89.89,0,0,0,.81.27,2.5,2.5,0,0,0,1.78-1.51l-.11-2.62A15.52,15.52,0,0,0,54.16,50Z"/><path class="cls-5" d="M62.85,48.92a4.81,4.81,0,0,1,1.22,0l-.49,2.36a3.74,3.74,0,0,0-1.25-.11A1.86,1.86,0,0,0,60.9,52a2,2,0,0,0-.32,1.18l.08,2a14,14,0,0,0,.18,1.91l-2.53.27a14.59,14.59,0,0,0,0-1.95l-.16-3.93A12.65,12.65,0,0,0,58,49.59l2.43-.26,0,1A2.94,2.94,0,0,1,62.85,48.92Z"/><path class="cls-5" d="M72.15,46.07a16.18,16.18,0,0,0,0,1.76v.27l.44,0a7.93,7.93,0,0,0,1.19-.19L73.86,50a7.26,7.26,0,0,0-1.13,0l-.51.05.14,3.27c0,.36.08.53.25.63a1,1,0,0,0,.56.08,1.78,1.78,0,0,0,.85-.32l.27,1.92a5.06,5.06,0,0,1-1.67.43,2.8,2.8,0,0,1-1.82-.25c-.48-.32-.67-.74-.7-1.6l-.16-3.92-.47,0a7.06,7.06,0,0,0-1.06.19l-.09-2.13a7,7,0,0,0,1.09,0l.44,0v-.27a14.59,14.59,0,0,0-.17-1.74Z"/><path class="cls-5" d="M77.14,44.73a13,13,0,0,0,0,1.94L77.18,48c0,.11,0,.31,0,.43a3.55,3.55,0,0,1,2.49-1.33,2.43,2.43,0,0,1,2,.51,2.65,2.65,0,0,1,.78,2.07l.13,3.21a17.31,17.31,0,0,0,.18,1.91l-2.55.27a14.85,14.85,0,0,0,0-1.95l-.11-2.62a1.52,1.52,0,0,0-.23-.93.87.87,0,0,0-.8-.26,2.48,2.48,0,0,0-1.79,1.52l.11,2.59a15.63,15.63,0,0,0,.18,1.93l-2.53.27a14.72,14.72,0,0,0,0-1.95l-.28-6.77A12.67,12.67,0,0,0,74.61,45Z"/><path class="cls-5" d="M86.23,48.56l.16,3.93a18.34,18.34,0,0,0,.18,1.93L84,54.68a14.61,14.61,0,0,0,0-1.95l-.16-3.93a13.82,13.82,0,0,0-.18-1.93l2.56-.27A13,13,0,0,0,86.23,48.56Z"/><polygon class="cls-5" points="86.1 43.79 86.18 45.71 83.7 45.97 83.62 44.05 86.1 43.79"/><path class="cls-5" d="M92.42,45.82a4.77,4.77,0,0,1,1.22,0l-.49,2.36a3.7,3.7,0,0,0-1.25-.11,1.86,1.86,0,0,0-1.43.84,1.94,1.94,0,0,0-.32,1.18l.08,2A14.16,14.16,0,0,0,90.41,54l-2.53.27a14.59,14.59,0,0,0,0-1.95l-.16-3.93a12.65,12.65,0,0,0-.18-1.93L90,46.22l0,1A2.91,2.91,0,0,1,92.42,45.82Z"/><path class="cls-5" d="M102.36,44.1l.27,6.62a16.87,16.87,0,0,0,.18,2l-2.4.25,0-.41c0-.08,0-.17,0-.28A3.58,3.58,0,0,1,98,53.45c-2.23.23-3.64-1.19-3.74-3.76a4.7,4.7,0,0,1,.93-3.23,3.6,3.6,0,0,1,2.44-1.26,3.4,3.4,0,0,1,2.54.68c0-.18,0-.3,0-.48l0-1.06a14.08,14.08,0,0,0-.18-2l2.51-.26A16.23,16.23,0,0,0,102.36,44.1Zm-3.94,7.34a2.17,2.17,0,0,0,1.8-2.41,1.81,1.81,0,0,0-2-1.93c-1.07.11-1.7,1-1.64,2.35a2.25,2.25,0,0,0,.63,1.63,1.56,1.56,0,0,0,1.2.36"/><path class="cls-5" d="M112.91,49.57a1.4,1.4,0,0,0,.35-.69l2.15.4a3.87,3.87,0,0,1-3.59,2.78,3.54,3.54,0,0,1-2.88-.78,4.23,4.23,0,0,1-1.25-3,4.13,4.13,0,0,1,3.72-4.61,3.3,3.3,0,0,1,3.79,2.6,9.6,9.6,0,0,1,.26,1.65c0,.05,0,.13,0,.26l-5.5.58a1.46,1.46,0,0,0,1.73,1.41A1.87,1.87,0,0,0,112.91,49.57Zm-1.42-4A1.62,1.62,0,0,0,109.93,47l3.15-.33a1.35,1.35,0,0,0-1.59-1.09"/><g class="cls-1"><path class="cls-5" d="M130,47.77a1.4,1.4,0,0,0,.34-.69l2.15.4a4,4,0,0,1-.75,1.4,4.17,4.17,0,0,1-2.84,1.38,3.55,3.55,0,0,1-2.88-.78,4.23,4.23,0,0,1-1.24-3,4.12,4.12,0,0,1,3.71-4.61,3.3,3.3,0,0,1,3.79,2.6,8.86,8.86,0,0,1,.26,1.65c0,.05,0,.13,0,.26l-5.5.58a1.47,1.47,0,0,0,1.73,1.41A1.89,1.89,0,0,0,130,47.77Zm-1.43-4A1.6,1.6,0,0,0,127,45.2l3.14-.33a1.34,1.34,0,0,0-1.59-1.09"/><path class="cls-5" d="M124.21,42.63c-.28.7-.28.7-.67,1.79L121,51.47a2.88,2.88,0,0,1-2.69,2,7.16,7.16,0,0,1-1.68,0l.19-2.06a1.79,1.79,0,0,0,1,.18,1.13,1.13,0,0,0,1-.71l.23-.58-2.51-5.16c-.58-1.22-.63-1.33-.81-1.64l2.66-.28a8.26,8.26,0,0,0,.54,1.6l1.25,2.84,1-3a7.69,7.69,0,0,0,.45-1.76Z"/></g><path class="cls-5" d="M140.16,37.89l1.73,1.05a9.13,9.13,0,0,0-1.25,2.68,9,9,0,0,0-.29,2.78,8,8,0,0,0,.49,2.54,7.79,7.79,0,0,0,1.48,2.44l-1.62,1.4a10.25,10.25,0,0,1-1.45-2.16,10,10,0,0,1-1.05-4.09,10.73,10.73,0,0,1,.37-3.25A12,12,0,0,1,140.16,37.89Z"/><path class="cls-5" d="M150.4,40.64a4,4,0,0,1,1.1,2.87,4.57,4.57,0,0,1-.94,3.21A3.65,3.65,0,0,1,148.08,48a4,4,0,0,1-1.66-.16,2.48,2.48,0,0,1-.87-.49c0,.11,0,.28,0,.46l0,.88a14.76,14.76,0,0,0,.17,1.84l-2.51.26a17.7,17.7,0,0,0,0-1.88l-.26-6.24a15.72,15.72,0,0,0-.18-2l2.41-.25,0,.44v.24a3.79,3.79,0,0,1,2.47-1.17A3.32,3.32,0,0,1,150.4,40.64Zm-1.75,4.87a2.49,2.49,0,0,0,.46-1.72c-.05-1.3-.74-2-1.89-1.86a2.14,2.14,0,0,0-1.76,2.29,1.83,1.83,0,0,0,2,1.9,1.79,1.79,0,0,0,1.18-.61"/><path class="cls-5" d="M154.85,41.35l.16,3.93a16.39,16.39,0,0,0,.18,1.93l-2.56.27a16.36,16.36,0,0,0,0-1.95l-.16-3.93a15.49,15.49,0,0,0-.17-1.93l2.56-.27A13,13,0,0,0,154.85,41.35Z"/><polygon class="cls-5" points="154.72 36.58 154.79 38.5 152.31 38.76 152.24 36.84 154.72 36.58"/><path class="cls-5" d="M161.1,38.56a2.49,2.49,0,0,1,2,.51,2.65,2.65,0,0,1,.78,2.07l.13,3.21a15.44,15.44,0,0,0,.18,1.91l-2.55.27a14.85,14.85,0,0,0,0-1.95L161.56,42a1.49,1.49,0,0,0-.23-.93.91.91,0,0,0-.83-.27c-.69.07-1.28.59-1.76,1.54l.11,2.57A15.67,15.67,0,0,0,159,46.8l-2.53.27a16.33,16.33,0,0,0,0-1.95l-.16-3.93a14.22,14.22,0,0,0-.17-1.93L158.6,39l0,.54v.36A3.53,3.53,0,0,1,161.1,38.56Z"/><path class="cls-5" d="M170.2,43.55a1.4,1.4,0,0,0,.35-.69l2.15.4A3.87,3.87,0,0,1,169.11,46a3.54,3.54,0,0,1-2.88-.78,4.23,4.23,0,0,1-1.25-3,4.13,4.13,0,0,1,3.72-4.61,3.3,3.3,0,0,1,3.79,2.6,9.65,9.65,0,0,1,.26,1.65c0,.05,0,.13,0,.26l-5.5.58A1.46,1.46,0,0,0,169,44.15,1.87,1.87,0,0,0,170.2,43.55Zm-1.42-4A1.62,1.62,0,0,0,167.22,41l3.15-.33a1.35,1.35,0,0,0-1.59-1.09"/><path class="cls-5" d="M181.15,44.48l-2.37.25,0-.59a3.68,3.68,0,0,1-2.34,1,2.78,2.78,0,0,1-2.14-.48,2.22,2.22,0,0,1-.75-1.67,2.33,2.33,0,0,1,.82-2,5.27,5.27,0,0,1,2.5-1.1c.48-.1.84-.15,1.72-.27v-.29c0-.61-.39-.86-1.2-.77a1.32,1.32,0,0,0-1.35,1l-2.34-.15a3,3,0,0,1,1-1.66,5.81,5.81,0,0,1,5-.8,2.17,2.17,0,0,1,1.22,2.18l.14,3.44A15.8,15.8,0,0,0,181.15,44.48Zm-2.9-1.77a1.41,1.41,0,0,0,.4-1l0-.36a7.16,7.16,0,0,0-2.11.48,1,1,0,0,0-.68.91c0,.46.4.7,1,.63a2.37,2.37,0,0,0,1.36-.63"/><path class="cls-5" d="M184.56,33.44a13.42,13.42,0,0,0,0,1.94l.28,6.77a15.42,15.42,0,0,0,.17,1.93l-2.56.27a13.14,13.14,0,0,0,0-1.95l-.28-6.77a12.16,12.16,0,0,0-.18-1.92Z"/><path class="cls-5" d="M195.4,35.14l2.39-.25a13.91,13.91,0,0,0,0,1.79l.19,4.48a3.9,3.9,0,0,1-1.14,3.34,5.36,5.36,0,0,1-2.88,1.06,4.12,4.12,0,0,1-3.68-1l1.71-1.4a2.07,2.07,0,0,0,1.9.67,2,2,0,0,0,1.47-.71,2.23,2.23,0,0,0,.33-1.41,3.15,3.15,0,0,1-2.19,1.08c-2.12.22-3.53-1.09-3.63-3.42a3.69,3.69,0,0,1,3.31-4.13,3.16,3.16,0,0,1,2.26.51v-.56Zm-1.54,5.71a1.93,1.93,0,0,0,1.65-2.13,1.67,1.67,0,0,0-1.8-1.77,1.84,1.84,0,0,0-1.53,2.14c0,1.17.71,1.86,1.68,1.76"/><path class="cls-5" d="M201.53,31.66a14.79,14.79,0,0,0,0,1.94l.28,6.77a17.24,17.24,0,0,0,.17,1.93l-2.56.27a13.14,13.14,0,0,0,0-1.95l-.28-6.77a12.15,12.15,0,0,0-.18-1.92Z"/><path class="cls-5" d="M210.54,41.39l-2.38.25,0-.59a3.67,3.67,0,0,1-2.34,1,2.79,2.79,0,0,1-2.14-.48,2.22,2.22,0,0,1-.74-1.67,2.34,2.34,0,0,1,.81-2,5.34,5.34,0,0,1,2.51-1.1c.47-.1.84-.15,1.71-.27V36.3c0-.61-.39-.86-1.2-.77a1.31,1.31,0,0,0-1.34,1L203,36.41a3.06,3.06,0,0,1,1-1.66,4.86,4.86,0,0,1,2.72-1A4.94,4.94,0,0,1,209,34a2.18,2.18,0,0,1,1.21,2.18l.14,3.44A13.86,13.86,0,0,0,210.54,41.39Zm-2.9-1.77a1.38,1.38,0,0,0,.4-1l0-.36a7.24,7.24,0,0,0-2.11.48,1,1,0,0,0-.67.91c0,.46.39.7,1,.63a2.37,2.37,0,0,0,1.36-.63"/><path class="cls-5" d="M216.44,32.75a2.49,2.49,0,0,1,2,.51,2.65,2.65,0,0,1,.78,2.07l.13,3.21a15.44,15.44,0,0,0,.18,1.91l-2.55.27a14.85,14.85,0,0,0,0-1.95l-.11-2.62a1.49,1.49,0,0,0-.23-.93.9.9,0,0,0-.83-.27c-.69.07-1.28.59-1.76,1.54l.11,2.57a15.63,15.63,0,0,0,.18,1.93l-2.53.27a16.33,16.33,0,0,0,0-1.95l-.16-3.93a14.22,14.22,0,0,0-.17-1.93l2.43-.26,0,.54v.36A3.53,3.53,0,0,1,216.44,32.75Z"/><path class="cls-5" d="M228.46,30.84l.27,6.62a15.11,15.11,0,0,0,.18,2l-2.41.25,0-.41a1.81,1.81,0,0,1,0-.28,3.6,3.6,0,0,1-2.43,1.18c-2.23.23-3.64-1.19-3.74-3.76a4.7,4.7,0,0,1,.93-3.23,3.58,3.58,0,0,1,2.44-1.26,3.41,3.41,0,0,1,2.54.68,4.54,4.54,0,0,1,0-.48l0-1.06a14.3,14.3,0,0,0-.18-2l2.51-.26A14.57,14.57,0,0,0,228.46,30.84Zm-3.93,7.34a2.17,2.17,0,0,0,1.8-2.41,1.81,1.81,0,0,0-2-1.93c-1.07.11-1.71,1-1.65,2.35a2.25,2.25,0,0,0,.64,1.63,1.56,1.56,0,0,0,1.2.36"/><path class="cls-5" d="M231.06,28.33a10.4,10.4,0,0,1,1.86,3,10,10,0,0,1,.63,3.14,10.7,10.7,0,0,1-.71,4.28,12.41,12.41,0,0,1-1.25,2.44l-1.73-1.05a9.42,9.42,0,0,0,1.28-2.73,8.91,8.91,0,0,0,.26-2.62,8.49,8.49,0,0,0-.52-2.69,7.82,7.82,0,0,0-1.46-2.4Z"/><path class="cls-5" d="M241.94,32.2l.16,3.93a16.35,16.35,0,0,0,.18,1.93l-2.56.27a16.3,16.3,0,0,0,0-1.95l-.16-3.93a15.43,15.43,0,0,0-.17-1.93l2.56-.27A13,13,0,0,0,241.94,32.2Z"/><polygon class="cls-5" points="241.8 27.42 241.88 29.34 239.4 29.6 239.32 27.68 241.8 27.42"/><path class="cls-5" d="M246.55,29.5a3.46,3.46,0,0,1,2.64.55,2.47,2.47,0,0,1,.86,1.37l-2.35.52c-.08-.52-.4-.72-1.06-.65s-1,.33-1,.67.28.44,1.5.6a7,7,0,0,1,2,.4,1.87,1.87,0,0,1,1.25,1.83,2.55,2.55,0,0,1-.55,1.76A4.19,4.19,0,0,1,247,37.79c-1.54.16-2.64-.16-3.27-.94a2.77,2.77,0,0,1-.54-1.22l2.41-.54c.15.65.57.9,1.39.81s1.14-.33,1.13-.73a.49.49,0,0,0-.29-.43,3.12,3.12,0,0,0-1-.19,13.61,13.61,0,0,1-1.82-.27,2.15,2.15,0,0,1-1.26-.78,2.4,2.4,0,0,1-.35-1.18C243.32,30.78,244.51,29.72,246.55,29.5Z"/><path class="cls-5" d="M257.68,25.75a13.16,13.16,0,0,0,0,1.94l.15,3.59,1.29-1.53a9.31,9.31,0,0,0,1-1.41l3.25-.34c-.46.49-.6.65-1.23,1.39l-1.69,2,2.17,2.91a18.58,18.58,0,0,0,1.2,1.52l-3.11.33a9,9,0,0,0-.88-1.63l-1-1.49-.88,1,0,.51a9.91,9.91,0,0,0,.17,1.86l-2.5.26a13.85,13.85,0,0,0,0-1.95l-.28-6.77A13.55,13.55,0,0,0,255.2,26Z"/><path class="cls-5" d="M269.19,27.2a2.49,2.49,0,0,1,2,.51,2.65,2.65,0,0,1,.78,2.07l.13,3.21a17.31,17.31,0,0,0,.18,1.91l-2.55.27a14.85,14.85,0,0,0,0-1.95l-.11-2.62a1.49,1.49,0,0,0-.23-.93.91.91,0,0,0-.83-.27,2.43,2.43,0,0,0-1.76,1.54l.11,2.57a15.63,15.63,0,0,0,.18,1.93l-2.53.27a16.33,16.33,0,0,0,0-1.95l-.16-3.93a14.22,14.22,0,0,0-.17-1.93l2.43-.26,0,.54v.36A3.53,3.53,0,0,1,269.19,27.2Z"/><path class="cls-5" d="M276.94,26.28A3.57,3.57,0,0,1,281.15,30a4.22,4.22,0,0,1-3.87,4.65c-2.46.26-4.1-1.21-4.2-3.78A4.14,4.14,0,0,1,276.94,26.28Zm.27,6.44c1.07-.11,1.64-1,1.58-2.42s-.72-2.21-1.75-2.1-1.68,1-1.62,2.43.73,2.21,1.8,2.09"/><path class="cls-5" d="M292.68,24.92c-.17.51-.33,1.11-.48,1.72L291,31.43a10.73,10.73,0,0,0-.3,1.53l-2.08.22a11.44,11.44,0,0,0-.44-1.45l-.85-2.48c-.07-.21-.13-.38-.16-.49-.07.31-.07.33-.12.52l-.64,2.63a15.19,15.19,0,0,0-.32,1.53l-2.08.22a14.19,14.19,0,0,0-.43-1.46L282,27.71c-.15-.43-.36-1-.62-1.6l2.63-.28a8.76,8.76,0,0,0,.29,1.49l.62,2.24q.12.44.15.6c.12-.51.12-.51.14-.63l.59-2.4c.28-1.24.28-1.24.32-1.52l1.79-.19a10.94,10.94,0,0,0,.43,1.44l.81,2.34c0,.09.11.36.17.51,0-.2,0-.2.09-.55l.42-2.31A11.76,11.76,0,0,0,290,25.2Z"/><path class="cls-5" d="M298.32,24.14a2.48,2.48,0,0,1,2,.51,2.65,2.65,0,0,1,.78,2.07l.13,3.21a17.31,17.31,0,0,0,.18,1.91l-2.55.27a14.85,14.85,0,0,0,0-1.95l-.11-2.62a1.49,1.49,0,0,0-.23-.93.9.9,0,0,0-.83-.27A2.43,2.43,0,0,0,296,27.88l.11,2.57a15.63,15.63,0,0,0,.18,1.93l-2.53.27a16.33,16.33,0,0,0,0-1.95l-.16-3.93a14.22,14.22,0,0,0-.17-1.93l2.43-.26,0,.54v.36A3.53,3.53,0,0,1,298.32,24.14Z"/><path class="cls-5" d="M55.16,73.11l-2.37.25,0-.59a3.64,3.64,0,0,1-2.34,1,2.78,2.78,0,0,1-2.14-.48,2.22,2.22,0,0,1-.75-1.67,2.33,2.33,0,0,1,.82-2,5.18,5.18,0,0,1,2.5-1.09c.47-.1.84-.16,1.72-.28V68c0-.61-.39-.86-1.2-.77a1.31,1.31,0,0,0-1.34,1l-2.35-.15a3,3,0,0,1,1-1.65,4.8,4.8,0,0,1,2.72-1,4.87,4.87,0,0,1,2.28.21,2.18,2.18,0,0,1,1.22,2.18L55,71.31A15.75,15.75,0,0,0,55.16,73.11Zm-2.9-1.77a1.41,1.41,0,0,0,.4-1l0-.36a7.16,7.16,0,0,0-2.11.48,1,1,0,0,0-.68.92c0,.45.39.69,1,.62a2.36,2.36,0,0,0,1.36-.63"/><path class="cls-5" d="M59.43,64.56a3.49,3.49,0,0,1,2.64.55,2.47,2.47,0,0,1,.86,1.38L60.57,67c-.08-.52-.4-.71-1.06-.64s-1,.32-1,.66.27.44,1.5.6a7,7,0,0,1,2,.4,1.87,1.87,0,0,1,1.25,1.83,2.55,2.55,0,0,1-.55,1.76,4.19,4.19,0,0,1-2.86,1.24c-1.54.16-2.64-.16-3.26-.94a2.81,2.81,0,0,1-.54-1.23l2.41-.54c.15.65.57.91,1.39.82S61,70.62,61,70.22a.5.5,0,0,0-.29-.43,3.12,3.12,0,0,0-1-.19,13.83,13.83,0,0,1-1.83-.27,2.18,2.18,0,0,1-1.27-.78,2.38,2.38,0,0,1-.35-1.18C56.19,65.84,57.39,64.78,59.43,64.56Z"/><path class="cls-5" d="M71.47,61.55a15.94,15.94,0,0,0,0,1.75v.27l.44,0a9.33,9.33,0,0,0,1.2-.19l.09,2.11a8.66,8.66,0,0,0-1.13,0l-.52.05.14,3.27c0,.35.09.52.25.62a1,1,0,0,0,.57.08,1.71,1.71,0,0,0,.85-.32l.27,1.93a5.34,5.34,0,0,1-1.68.43,2.72,2.72,0,0,1-1.81-.26c-.48-.32-.67-.74-.7-1.6l-.16-3.91-.47,0a8.42,8.42,0,0,0-1.06.18l-.09-2.13a6.81,6.81,0,0,0,1.1,0l.44,0v-.27A12.75,12.75,0,0,0,69,61.81Z"/><path class="cls-5" d="M76.47,60.2a13.17,13.17,0,0,0,0,1.94l.06,1.35c0,.11,0,.31,0,.43A3.52,3.52,0,0,1,79,62.59a2.49,2.49,0,0,1,2,.51,2.71,2.71,0,0,1,.78,2.08l.13,3.2a15.44,15.44,0,0,0,.18,1.91l-2.55.27a14.71,14.71,0,0,0,0-1.94L79.45,66a1.54,1.54,0,0,0-.23-.94.88.88,0,0,0-.8-.26,2.48,2.48,0,0,0-1.79,1.53l.11,2.59a15.48,15.48,0,0,0,.18,1.92l-2.53.27a16.27,16.27,0,0,0,0-1.94l-.28-6.78a14,14,0,0,0-.17-1.92Z"/><path class="cls-5" d="M88.09,67.57a1.36,1.36,0,0,0,.35-.69l2.15.4A3.89,3.89,0,0,1,87,70.08a3.54,3.54,0,0,1-2.88-.79,4.19,4.19,0,0,1-1.25-3,4.13,4.13,0,0,1,3.72-4.61,3.3,3.3,0,0,1,3.79,2.6,10.55,10.55,0,0,1,.26,1.65c0,.05,0,.13,0,.26l-5.5.58a1.46,1.46,0,0,0,1.72,1.42A1.85,1.85,0,0,0,88.09,67.57Zm-1.42-4A1.62,1.62,0,0,0,85.11,65l3.15-.33a1.35,1.35,0,0,0-1.59-1.09"/><path class="cls-5" d="M100.38,60.37a4.53,4.53,0,0,1,1.22,0l-.49,2.36a3.83,3.83,0,0,0-1.26-.12,1.87,1.87,0,0,0-1.43.84,2.06,2.06,0,0,0-.32,1.18l.08,2a13.89,13.89,0,0,0,.18,1.91l-2.53.27a16.17,16.17,0,0,0,0-1.94L95.68,63A13.9,13.9,0,0,0,95.51,61l2.43-.26,0,1A2.93,2.93,0,0,1,100.38,60.37Z"/><path class="cls-5" d="M106,59.65a3.56,3.56,0,0,1,4.2,3.72A4.21,4.21,0,0,1,106.36,68c-2.45.26-4.09-1.21-4.19-3.78A4.13,4.13,0,0,1,106,59.65Zm.27,6.44c1.06-.11,1.64-1,1.58-2.43s-.72-2.21-1.76-2.1-1.67,1-1.62,2.44.73,2.21,1.8,2.09"/><path class="cls-5" d="M114.77,58.73A3.56,3.56,0,0,1,119,62.45a4.22,4.22,0,0,1-3.87,4.65c-2.45.26-4.09-1.21-4.19-3.78A4.13,4.13,0,0,1,114.77,58.73Zm.27,6.44c1.07-.11,1.64-1,1.58-2.43s-.71-2.21-1.75-2.1-1.67,1-1.62,2.44.73,2.21,1.79,2.1"/><path class="cls-5" d="M123.08,56.12a16,16,0,0,0,0,1.75v.27l.44,0a9.19,9.19,0,0,0,1.19-.19l.09,2.11a8.66,8.66,0,0,0-1.13,0l-.51.05.14,3.27c0,.35.08.52.25.62a1,1,0,0,0,.56.08,1.69,1.69,0,0,0,.85-.32l.27,1.93a5.29,5.29,0,0,1-1.67.43,2.74,2.74,0,0,1-1.82-.26c-.48-.32-.67-.74-.7-1.6l-.16-3.91-.47,0a8.28,8.28,0,0,0-1.05.18l-.09-2.13a6.78,6.78,0,0,0,1.09,0l.44,0v-.27a14.34,14.34,0,0,0-.17-1.73Z"/><path class="cls-5" d="M133.44,56.77a3.56,3.56,0,0,1,4.21,3.72,4.21,4.21,0,0,1-3.87,4.65c-2.46.26-4.1-1.21-4.2-3.78A4.13,4.13,0,0,1,133.44,56.77Zm.27,6.44c1.07-.11,1.64-1,1.58-2.43s-.72-2.21-1.75-2.1-1.68,1-1.62,2.44.73,2.21,1.8,2.09"/><path class="cls-5" d="M142.4,53a6,6,0,0,1,1.87.08L144,55a2.18,2.18,0,0,0-1.22-.19c-.6.06-.82.34-.79,1v.32l.36,0c.51-.05,1.17-.17,1.62-.26L144,58a12,12,0,0,0-1.6.08l-.38,0,.16,3.9a15.21,15.21,0,0,0,.17,1.92l-2.54.27a14.37,14.37,0,0,0,0-1.94l-.16-3.9-.33,0a8.89,8.89,0,0,0-1.37.23l-.09-2.14a12,12,0,0,0,1.37-.06l.33,0,0-.6C139.53,54.12,140.41,53.24,142.4,53Z"/><path class="cls-5" d="M151.73,57.07,151.9,61a18.54,18.54,0,0,0,.17,1.92l-2.56.27a14.51,14.51,0,0,0,0-1.94l-.16-3.94a13.57,13.57,0,0,0-.18-1.92l2.56-.27A14.34,14.34,0,0,0,151.73,57.07Z"/><polygon class="cls-5" points="151.59 52.3 151.67 54.22 149.19 54.48 149.11 52.56 151.59 52.3"/><path class="cls-5" d="M158,54.29a2.52,2.52,0,0,1,2,.51,2.71,2.71,0,0,1,.78,2.08l.13,3.2a17.54,17.54,0,0,0,.17,1.91l-2.54.27a14.75,14.75,0,0,0,0-1.94l-.11-2.62a1.47,1.47,0,0,0-.23-.93.9.9,0,0,0-.83-.28c-.69.07-1.28.59-1.76,1.54l.11,2.58a17.4,17.4,0,0,0,.17,1.92l-2.53.27a14.58,14.58,0,0,0,0-1.94l-.16-3.94A12.62,12.62,0,0,0,153,55l2.44-.26,0,.54v.36A3.56,3.56,0,0,1,158,54.29Z"/><path class="cls-5" d="M165.3,51.69a15.94,15.94,0,0,0,0,1.75v.27l.44,0a9.33,9.33,0,0,0,1.2-.19l.09,2.11a8.66,8.66,0,0,0-1.13,0l-.52.05L165.5,59c0,.35.09.52.25.62a1,1,0,0,0,.57.08,1.71,1.71,0,0,0,.85-.32l.27,1.93a5.34,5.34,0,0,1-1.68.43,2.72,2.72,0,0,1-1.81-.26c-.48-.32-.67-.74-.7-1.6l-.16-3.91-.47,0a8.42,8.42,0,0,0-1.06.18L161.45,54a6.82,6.82,0,0,0,1.1,0l.44,0v-.27a12.75,12.75,0,0,0-.17-1.73Z"/><path class="cls-5" d="M175.56,52.63a16.11,16.11,0,0,0,0,1.93l.16,3.94a13.93,13.93,0,0,0,.17,1.91l-2.43.26,0-.56c0-.06,0-.25,0-.35a3.51,3.51,0,0,1-2.49,1.37,2.52,2.52,0,0,1-2-.51,2.68,2.68,0,0,1-.78-2.08l-.13-3.2a17.31,17.31,0,0,0-.18-1.91l2.55-.27a14.7,14.7,0,0,0,0,1.93l.11,2.62a1.46,1.46,0,0,0,.23.93.88.88,0,0,0,.81.27,2.52,2.52,0,0,0,1.78-1.5l-.11-2.62A15.43,15.43,0,0,0,173,52.9Z"/><path class="cls-5" d="M179.38,54.17l.16,3.94a18.43,18.43,0,0,0,.18,1.92l-2.56.27a14.67,14.67,0,0,0,0-1.94L177,54.42a13.79,13.79,0,0,0-.17-1.92l2.56-.27A12.89,12.89,0,0,0,179.38,54.17Z"/><polygon class="cls-5" points="179.24 49.39 179.32 51.31 176.84 51.57 176.76 49.66 179.24 49.39"/><path class="cls-5" d="M184,49.72a15.94,15.94,0,0,0,0,1.75v.27l.45,0a9.27,9.27,0,0,0,1.19-.19l.09,2.11a8.66,8.66,0,0,0-1.13,0l-.52.05.14,3.27c0,.35.09.52.25.62a1,1,0,0,0,.57.08,1.71,1.71,0,0,0,.85-.32l.27,1.93a5.34,5.34,0,0,1-1.68.43,2.72,2.72,0,0,1-1.81-.26c-.48-.32-.67-.74-.7-1.6L181.74,54l-.47,0a8.42,8.42,0,0,0-1.06.18l-.09-2.13a6.82,6.82,0,0,0,1.1,0l.44,0v-.27a12.75,12.75,0,0,0-.17-1.73Z"/><path class="cls-5" d="M189.09,53.15l.16,3.94a16.35,16.35,0,0,0,.18,1.92l-2.56.27a16.29,16.29,0,0,0,0-1.94l-.16-3.94a15.24,15.24,0,0,0-.17-1.92l2.56-.27A12.89,12.89,0,0,0,189.09,53.15Z"/><polygon class="cls-5" points="188.95 48.37 189.03 50.29 186.55 50.55 186.47 48.63 188.95 48.37"/><path class="cls-5" d="M194.11,50.39c2.47-.26,4.1,1.2,4.2,3.72a4.21,4.21,0,0,1-3.87,4.65c-2.45.26-4.09-1.21-4.19-3.78A4.13,4.13,0,0,1,194.11,50.39Zm.27,6.44c1.07-.11,1.64-1,1.58-2.43s-.72-2.21-1.76-2.1-1.67,1-1.62,2.44.73,2.21,1.8,2.09"/><path class="cls-5" d="M204.07,49.44a2.52,2.52,0,0,1,2,.51,2.71,2.71,0,0,1,.78,2.08l.13,3.2a17.54,17.54,0,0,0,.17,1.91l-2.54.27a14.71,14.71,0,0,0,0-1.94l-.11-2.62a1.41,1.41,0,0,0-.24-.93.87.87,0,0,0-.82-.28c-.69.07-1.28.59-1.76,1.54l.11,2.58a17.4,17.4,0,0,0,.17,1.92l-2.53.27a14.54,14.54,0,0,0,0-1.94l-.16-3.94a12.59,12.59,0,0,0-.18-1.92l2.44-.26,0,.54v.36A3.55,3.55,0,0,1,204.07,49.44Z"/><polygon class="cls-5" points="210.78 54.16 210.89 56.75 208.42 57.01 208.31 54.42 210.78 54.16"/><path class="cls-5" d="M224.39,44.56l.1,2.44a15.65,15.65,0,0,0-1.92.11l-1.38.14.27,6.44a14.45,14.45,0,0,0,.18,1.92l-2.71.28A14.37,14.37,0,0,0,219,54l-.27-6.44-1.44.15a15.6,15.6,0,0,0-1.85.28l-.1-2.44a15.74,15.74,0,0,0,1.83-.1l5.35-.56A16.42,16.42,0,0,0,224.39,44.56Z"/><path class="cls-5" d="M227.75,44.3a13.17,13.17,0,0,0,0,1.94l.06,1.35c0,.11,0,.31,0,.43a3.55,3.55,0,0,1,2.49-1.33,2.46,2.46,0,0,1,2,.51,2.68,2.68,0,0,1,.78,2.08l.13,3.2a17.31,17.31,0,0,0,.18,1.91l-2.55.27a14.71,14.71,0,0,0,0-1.94l-.11-2.62a1.54,1.54,0,0,0-.23-.94.87.87,0,0,0-.8-.26,2.48,2.48,0,0,0-1.79,1.53L228,53a15.48,15.48,0,0,0,.18,1.92l-2.53.27a14.69,14.69,0,0,0,0-1.94l-.28-6.78a12.77,12.77,0,0,0-.17-1.92Z"/><path class="cls-5" d="M239.38,51.67a1.42,1.42,0,0,0,.34-.69l2.15.4a3.89,3.89,0,0,1-3.59,2.79,3.55,3.55,0,0,1-2.88-.79,4.23,4.23,0,0,1-1.25-3,4.13,4.13,0,0,1,3.72-4.61,3.3,3.3,0,0,1,3.79,2.6,9.6,9.6,0,0,1,.26,1.65c0,.05,0,.13,0,.26l-5.5.58a1.47,1.47,0,0,0,1.73,1.42A1.86,1.86,0,0,0,239.38,51.67Zm-1.43-4a1.61,1.61,0,0,0-1.55,1.42l3.14-.33a1.35,1.35,0,0,0-1.59-1.09"/><path class="cls-5" d="M257.49,44c-.17.51-.33,1.1-.48,1.72l-1.18,4.78a10.7,10.7,0,0,0-.3,1.53l-2.08.22a11.36,11.36,0,0,0-.44-1.45l-.85-2.48c-.07-.21-.13-.37-.16-.48-.07.3-.07.33-.12.51L251.24,51c-.15.58-.28,1.22-.32,1.53l-2.08.22a14.12,14.12,0,0,0-.43-1.46l-1.56-4.49c-.15-.44-.36-1-.62-1.6l2.63-.28a8.75,8.75,0,0,0,.29,1.48l.62,2.24q.12.45.15.6c.12-.51.12-.51.14-.63l.59-2.4c.28-1.24.28-1.24.32-1.51l1.79-.19a10.89,10.89,0,0,0,.42,1.43l.81,2.34c0,.09.11.36.17.51,0-.19,0-.19.09-.54l.42-2.32a11.6,11.6,0,0,0,.19-1.64Z"/><path class="cls-5" d="M261.91,43.26A3.56,3.56,0,0,1,266.12,47a4.22,4.22,0,0,1-3.88,4.65c-2.45.26-4.09-1.21-4.19-3.78A4.13,4.13,0,0,1,261.91,43.26Zm.27,6.44c1.07-.11,1.64-1,1.58-2.43s-.72-2.21-1.76-2.1-1.67,1-1.62,2.44.73,2.21,1.8,2.09"/><path class="cls-5" d="M281.75,40.64l.27,6.62a15.07,15.07,0,0,0,.18,2l-2.41.25,0-.41a1.84,1.84,0,0,1,0-.28A3.6,3.6,0,0,1,277.36,50c-2.23.23-3.64-1.18-3.74-3.76a4.66,4.66,0,0,1,.92-3.22A3.58,3.58,0,0,1,277,41.74a3.38,3.38,0,0,1,2.54.68,4.85,4.85,0,0,1,0-.48l0-1.06a15.88,15.88,0,0,0-.18-2l2.51-.26A14.53,14.53,0,0,0,281.75,40.64ZM277.83,48a2.17,2.17,0,0,0,1.79-2.41,1.81,1.81,0,0,0-2-1.93c-1.06.11-1.7,1-1.65,2.35a2.2,2.2,0,0,0,.64,1.63,1.54,1.54,0,0,0,1.21.36"/><path class="cls-5" d="M271.82,42.36a4.53,4.53,0,0,1,1.22,0l-.49,2.36a3.83,3.83,0,0,0-1.26-.12,1.87,1.87,0,0,0-1.43.84,2.06,2.06,0,0,0-.32,1.18l.08,2a13.89,13.89,0,0,0,.18,1.91l-2.53.27a16.18,16.18,0,0,0,0-1.94l-.16-3.94A13.91,13.91,0,0,0,267,43l2.43-.26,0,1A2.94,2.94,0,0,1,271.82,42.36Z"/><path class="cls-5" d="M24.38,85.85l.16,3.94a18.6,18.6,0,0,0,.17,1.92L22.16,92a14.35,14.35,0,0,0,0-1.94L22,86.1a13.57,13.57,0,0,0-.18-1.92l2.56-.27A14.47,14.47,0,0,0,24.38,85.85Z"/><polygon class="cls-5" points="24.24 81.09 24.32 83 21.84 83.26 21.76 81.35 24.24 81.09"/><path class="cls-5" d="M30.63,83.07a2.46,2.46,0,0,1,2,.51,2.65,2.65,0,0,1,.79,2.07l.13,3.21a17.19,17.19,0,0,0,.17,1.9L31.18,91a14.81,14.81,0,0,0,0-1.94l-.11-2.62a1.42,1.42,0,0,0-.23-.93.87.87,0,0,0-.82-.27,2.4,2.4,0,0,0-1.76,1.53l.11,2.58a17.29,17.29,0,0,0,.17,1.92L26,91.57a14.45,14.45,0,0,0,0-1.94l-.16-3.94a12.66,12.66,0,0,0-.18-1.92l2.44-.26,0,.54c0,.08,0,.27,0,.36A3.56,3.56,0,0,1,30.63,83.07Z"/><path class="cls-5" d="M37.95,80.47a14.13,14.13,0,0,0,0,1.76v.27l.44,0a8,8,0,0,0,1.2-.19l.09,2.12a7.34,7.34,0,0,0-1.13,0l-.52.05.14,3.27c0,.35.08.53.25.63a1,1,0,0,0,.57.07,1.71,1.71,0,0,0,.85-.32l.26,1.93a5.29,5.29,0,0,1-1.67.43,2.72,2.72,0,0,1-1.81-.26c-.48-.32-.67-.74-.7-1.6l-.16-3.91-.47,0a7.06,7.06,0,0,0-1.06.19l-.09-2.13a8.12,8.12,0,0,0,1.09,0l.44,0v-.27a13,13,0,0,0-.17-1.74Z"/><path class="cls-5" d="M48.21,81.41a14.52,14.52,0,0,0,0,1.93l.16,3.94a12.49,12.49,0,0,0,.18,1.91l-2.43.26,0-.55c0-.06,0-.26,0-.35a3.53,3.53,0,0,1-2.49,1.36,2.48,2.48,0,0,1-2-.51,2.66,2.66,0,0,1-.78-2.07l-.13-3.21a17.31,17.31,0,0,0-.18-1.91L43,82a16.51,16.51,0,0,0,0,1.93l.11,2.62a1.46,1.46,0,0,0,.23.93.89.89,0,0,0,.81.28A2.52,2.52,0,0,0,46,86.2l-.11-2.62a15.43,15.43,0,0,0-.18-1.91Z"/><path class="cls-5" d="M52,82.95l.16,3.94a16.29,16.29,0,0,0,.18,1.92l-2.56.27a16.05,16.05,0,0,0,0-1.94l-.16-3.94a15.2,15.2,0,0,0-.17-1.92L52.05,81A12.92,12.92,0,0,0,52,82.95Z"/><polygon class="cls-5" points="51.89 78.18 51.97 80.09 49.49 80.35 49.41 78.44 51.89 78.18"/><path class="cls-5" d="M56.62,78.5a16,16,0,0,0,0,1.76v.27l.44,0a8,8,0,0,0,1.2-.19l.09,2.12a7.34,7.34,0,0,0-1.13,0l-.52.05.14,3.27c0,.35.08.53.25.63a1,1,0,0,0,.57.07,1.71,1.71,0,0,0,.85-.32l.26,1.93a5.29,5.29,0,0,1-1.67.43,2.72,2.72,0,0,1-1.81-.26c-.48-.32-.67-.74-.7-1.6l-.16-3.91-.47,0a7.06,7.06,0,0,0-1.06.19l-.09-2.13a8.12,8.12,0,0,0,1.09,0l.44,0v-.27a13,13,0,0,0-.17-1.74Z"/><path class="cls-5" d="M61.74,81.93l.16,3.94a18.53,18.53,0,0,0,.17,1.92L59.52,88a14.35,14.35,0,0,0,0-1.94l-.16-3.94a13.58,13.58,0,0,0-.18-1.92L61.75,80A14.42,14.42,0,0,0,61.74,81.93Z"/><polygon class="cls-5" points="61.6 77.16 61.68 79.07 59.2 79.33 59.12 77.42 61.6 77.16"/><path class="cls-5" d="M71,79c-.22.6-.31.86-.46,1.29L68.67,86a5.49,5.49,0,0,0-.29,1.1l-2.68.28a5,5,0,0,0-.37-1L63.06,81.1l-.57-1.18,2.72-.29a5.42,5.42,0,0,0,.27,1.07l1.3,3.86.06.14c0,.12,0,.14.12.34a2.08,2.08,0,0,0,0-.24l0-.13,0-.16,1-4.08a6.28,6.28,0,0,0,.19-1.12Z"/><path class="cls-5" d="M76.73,84.16a1.37,1.37,0,0,0,.35-.68l2.15.4a4,4,0,0,1-.75,1.4,4.16,4.16,0,0,1-2.84,1.39,3.51,3.51,0,0,1-2.88-.79,4.55,4.55,0,0,1,2.47-7.61A3.3,3.3,0,0,1,79,80.88a10.41,10.41,0,0,1,.26,1.65c0,.05,0,.12,0,.26l-5.5.58a1.46,1.46,0,0,0,1.72,1.41A1.85,1.85,0,0,0,76.73,84.16Zm-1.42-4a1.62,1.62,0,0,0-1.56,1.42l3.15-.33a1.35,1.35,0,0,0-1.59-1.09"/><path class="cls-5" d="M86.57,74.54a13,13,0,0,0,0,1.94l.06,1.35c0,.1,0,.3,0,.42a3.55,3.55,0,0,1,2.5-1.32,2.46,2.46,0,0,1,2,.51,2.68,2.68,0,0,1,.78,2.07L92,82.72a15.19,15.19,0,0,0,.18,1.9l-2.55.27a14.71,14.71,0,0,0,0-1.94l-.11-2.62a1.49,1.49,0,0,0-.23-.93.88.88,0,0,0-.8-.26,2.48,2.48,0,0,0-1.79,1.52l.11,2.59A15.39,15.39,0,0,0,87,85.16l-2.53.27a16.18,16.18,0,0,0,0-1.94l-.28-6.77A13.91,13.91,0,0,0,84,74.8Z"/><path class="cls-5" d="M100.72,83.72,98.35,84l0-.58a3.68,3.68,0,0,1-2.34,1,2.76,2.76,0,0,1-2.15-.49,2.2,2.2,0,0,1-.75-1.66,2.35,2.35,0,0,1,.82-2,5.3,5.3,0,0,1,2.5-1.1c.48-.1.84-.15,1.72-.27v-.29c0-.62-.39-.86-1.2-.77s-1.19.39-1.34,1l-2.35-.15a3,3,0,0,1,1-1.66,4.8,4.8,0,0,1,2.72-1,5,5,0,0,1,2.28.2,2.18,2.18,0,0,1,1.22,2.18l.14,3.45A15.75,15.75,0,0,0,100.72,83.72Zm-2.9-1.77a1.38,1.38,0,0,0,.4-1v-.35A7.16,7.16,0,0,0,96.1,81a1,1,0,0,0-.68.91c0,.46.4.69,1,.62a2.31,2.31,0,0,0,1.36-.63"/><path class="cls-5" d="M105,75.18a3.46,3.46,0,0,1,2.63.54,2.47,2.47,0,0,1,.86,1.38l-2.34.51c-.09-.51-.4-.71-1.06-.64s-1,.33-1,.66.27.45,1.5.61a6.78,6.78,0,0,1,2,.4,1.87,1.87,0,0,1,1.26,1.83,2.54,2.54,0,0,1-.56,1.76,4.2,4.2,0,0,1-2.86,1.23c-1.54.16-2.65-.16-3.27-.94a2.87,2.87,0,0,1-.54-1.22l2.41-.54c.15.65.58.9,1.39.81s1.14-.34,1.13-.73a.47.47,0,0,0-.29-.43,2.79,2.79,0,0,0-1-.2,14.25,14.25,0,0,1-1.83-.26,2.17,2.17,0,0,1-1.26-.78,2.4,2.4,0,0,1-.35-1.18C101.76,76.45,102.95,75.39,105,75.18Z"/><path class="cls-5" d="M117.81,71a4.16,4.16,0,0,1,3.18.76,2.4,2.4,0,0,1,.76,1.74,2.63,2.63,0,0,1-2,2.77,2.58,2.58,0,0,1,1.61.51,2.42,2.42,0,0,1,.88,1.81,3.06,3.06,0,0,1-.42,1.75,3.35,3.35,0,0,1-1.11,1.08,6.58,6.58,0,0,1-2.52.77,5.24,5.24,0,0,1-2.88-.42A3.14,3.14,0,0,1,114,80.22a3.82,3.82,0,0,1-.24-.65l2.57-.75a1.33,1.33,0,0,0,.38.79,1.76,1.76,0,0,0,1.43.4c.95-.1,1.53-.66,1.5-1.44a1,1,0,0,0-.71-1,3.46,3.46,0,0,0-1.14,0,14.72,14.72,0,0,0-1.5.23l-.09-2.19a10,10,0,0,0,1.3-.07c1.17-.12,1.72-.59,1.68-1.4s-.5-1-1.31-1a1.44,1.44,0,0,0-1.44,1.33l-2.66-.12a4,4,0,0,1,.75-1.7A4.55,4.55,0,0,1,117.81,71Z"/><path class="cls-5" d="M129.82,74.77l.16,3.94a18.6,18.6,0,0,0,.17,1.92l-2.55.27a16.05,16.05,0,0,0,0-1.94L127.45,75a15.2,15.2,0,0,0-.17-1.92l2.55-.27A14.46,14.46,0,0,0,129.82,74.77Z"/><polygon class="cls-5" points="129.68 70.01 129.76 71.92 127.28 72.18 127.2 70.27 129.68 70.01"/><path class="cls-5" d="M133.45,69.61l.11,2.56a2.21,2.21,0,0,1-.58,1.69,2.29,2.29,0,0,1-1.16.73l-.58-.92a1.79,1.79,0,0,0,.95-.49,1.18,1.18,0,0,0,.31-.89l-1.4.15L131,69.87Z"/><path class="cls-5" d="M138.14,71.69a3.48,3.48,0,0,1,2.63.54,2.47,2.47,0,0,1,.86,1.38l-2.35.51c-.08-.52-.4-.71-1.06-.64s-1,.33-1,.66.27.45,1.5.61a6.88,6.88,0,0,1,2,.4A1.87,1.87,0,0,1,142,77a2.54,2.54,0,0,1-.56,1.76A4.2,4.2,0,0,1,138.59,80c-1.54.16-2.65-.16-3.27-.94a2.77,2.77,0,0,1-.54-1.22l2.41-.54c.15.65.58.9,1.39.81s1.14-.34,1.13-.73a.47.47,0,0,0-.29-.43,2.79,2.79,0,0,0-1-.2,14.26,14.26,0,0,1-1.83-.26,2.17,2.17,0,0,1-1.26-.78,2.31,2.31,0,0,1-.36-1.18C134.89,73,136.09,71.91,138.14,71.69Z"/><polygon class="cls-5" points="145.49 76.43 145.6 79 143.13 79.26 143.02 76.69 145.49 76.43"/><path class="cls-5" d="M159.1,66.82l.1,2.44a15.56,15.56,0,0,0-1.92.11l-1.38.14.27,6.44a14.41,14.41,0,0,0,.18,1.92l-2.7.28a16.08,16.08,0,0,0,0-1.94l-.27-6.44-1.44.15a17.53,17.53,0,0,0-1.84.28l-.1-2.44a15.21,15.21,0,0,0,1.82-.09l5.35-.56A14.41,14.41,0,0,0,159.1,66.82Z"/><path class="cls-5" d="M162.46,66.56a13,13,0,0,0,0,1.94l.06,1.35c0,.1,0,.3,0,.42a3.58,3.58,0,0,1,2.5-1.32,2.43,2.43,0,0,1,2,.51,2.65,2.65,0,0,1,.78,2.07l.13,3.21a17,17,0,0,0,.18,1.9l-2.54.27a16.47,16.47,0,0,0,0-1.94l-.11-2.62a1.49,1.49,0,0,0-.23-.93.87.87,0,0,0-.79-.26,2.48,2.48,0,0,0-1.8,1.52l.11,2.59a15.43,15.43,0,0,0,.18,1.92l-2.53.27a14.45,14.45,0,0,0,0-1.94l-.28-6.77a12.44,12.44,0,0,0-.18-1.92Z"/><path class="cls-5" d="M171.56,70.38l.16,3.94a18.6,18.6,0,0,0,.17,1.92l-2.56.27a14.38,14.38,0,0,0,0-1.94l-.16-3.94a13.61,13.61,0,0,0-.18-1.92l2.56-.27A13.15,13.15,0,0,0,171.56,70.38Z"/><polygon class="cls-5" points="171.43 65.62 171.5 67.53 169.03 67.79 168.94 65.88 171.43 65.62"/><path class="cls-5" d="M176.18,67.7a3.48,3.48,0,0,1,2.63.54,2.47,2.47,0,0,1,.86,1.38l-2.35.51c-.08-.52-.4-.71-1.06-.64s-1,.33-1,.66.27.45,1.5.61a6.88,6.88,0,0,1,2,.4A1.87,1.87,0,0,1,180,73a2.54,2.54,0,0,1-.56,1.76A4.2,4.2,0,0,1,176.63,76c-1.54.16-2.65-.16-3.27-.94a2.77,2.77,0,0,1-.54-1.22l2.41-.54c.15.65.58.9,1.39.81s1.14-.34,1.13-.73a.47.47,0,0,0-.29-.43,2.79,2.79,0,0,0-1-.2,14.25,14.25,0,0,1-1.83-.26,2.17,2.17,0,0,1-1.26-.78,2.4,2.4,0,0,1-.36-1.18C172.94,69,174.13,67.91,176.18,67.7Z"/><path class="cls-5" d="M187.47,68.71l.16,3.94a18.42,18.42,0,0,0,.18,1.92l-2.56.27a14.51,14.51,0,0,0,0-1.94L185.11,69a13.78,13.78,0,0,0-.17-1.92l2.56-.27A12.93,12.93,0,0,0,187.47,68.71Z"/><polygon class="cls-5" points="187.34 63.95 187.41 65.86 184.94 66.12 184.86 64.21 187.34 63.95"/><path class="cls-5" d="M192.09,66a3.49,3.49,0,0,1,2.64.54,2.47,2.47,0,0,1,.86,1.38l-2.35.51c-.08-.52-.4-.71-1.06-.64s-1,.33-1,.66.28.45,1.5.61a7,7,0,0,1,2,.4A1.86,1.86,0,0,1,196,71.3a2.57,2.57,0,0,1-.55,1.76,4.22,4.22,0,0,1-2.86,1.23c-1.54.16-2.64-.16-3.27-.94a2.88,2.88,0,0,1-.54-1.22l2.41-.54c.15.65.57.9,1.39.81s1.14-.34,1.13-.73a.49.49,0,0,0-.29-.43,2.79,2.79,0,0,0-1-.2,13.86,13.86,0,0,1-1.83-.26,2.19,2.19,0,0,1-1.26-.78,2.4,2.4,0,0,1-.35-1.18C188.85,67.3,190,66.24,192.09,66Z"/><path class="cls-5" d="M211.55,64.24c-.16.51-.32,1.1-.48,1.72l-1.17,4.78a12.44,12.44,0,0,0-.31,1.53l-2.07.22a11.4,11.4,0,0,0-.44-1.45l-.85-2.48c-.07-.21-.13-.37-.16-.48-.07.3-.07.33-.12.51l-.64,2.63a14.13,14.13,0,0,0-.32,1.53L202.9,73a14.24,14.24,0,0,0-.43-1.46L200.91,67c-.15-.44-.36-1-.62-1.6l2.63-.28a8.74,8.74,0,0,0,.29,1.49l.62,2.23c.07.3.13.5.15.61.12-.52.12-.52.14-.64l.59-2.4c.28-1.23.28-1.23.32-1.51l1.78-.19a12.9,12.9,0,0,0,.43,1.43l.81,2.34c0,.1.11.36.17.52,0-.2,0-.2.09-.55l.42-2.32a11.44,11.44,0,0,0,.19-1.64Z"/><path class="cls-5" d="M214.69,61.07a13,13,0,0,0,0,1.94l.06,1.35c0,.1,0,.3,0,.42a3.55,3.55,0,0,1,2.5-1.32,2.46,2.46,0,0,1,2,.51A2.65,2.65,0,0,1,220,66l.13,3.21a17,17,0,0,0,.18,1.9l-2.55.27a14.71,14.71,0,0,0,0-1.94l-.11-2.62a1.49,1.49,0,0,0-.23-.93.88.88,0,0,0-.8-.26,2.48,2.48,0,0,0-1.79,1.52l.11,2.59a15.39,15.39,0,0,0,.18,1.92L212.6,72a16.18,16.18,0,0,0,0-1.94l-.28-6.77a13.91,13.91,0,0,0-.17-1.92Z"/><path class="cls-5" d="M229.2,62.39c-.28.7-.28.7-.66,1.79L226,71.23a2.88,2.88,0,0,1-2.69,2,6.76,6.76,0,0,1-1.68,0l.19-2.05a1.77,1.77,0,0,0,1,.17,1.12,1.12,0,0,0,1-.7l.23-.58-2.51-5.15c-.58-1.23-.63-1.34-.81-1.64l2.66-.28a8,8,0,0,0,.54,1.6l1.25,2.84,1-3a8.49,8.49,0,0,0,.45-1.75Z"/><path class="cls-5" d="M237.28,59.52a14.13,14.13,0,0,0,0,1.76v.27l.44,0a8,8,0,0,0,1.2-.19l.09,2.12a7.34,7.34,0,0,0-1.13,0l-.52.05.14,3.27c0,.35.08.53.25.63a1,1,0,0,0,.57.07,1.71,1.71,0,0,0,.85-.32l.26,1.93a5.29,5.29,0,0,1-1.67.43,2.72,2.72,0,0,1-1.81-.26c-.48-.32-.67-.74-.7-1.6L235,63.76l-.47,0a7,7,0,0,0-1.06.19l-.09-2.13a8.12,8.12,0,0,0,1.09,0l.44,0v-.27a13,13,0,0,0-.17-1.74Z"/><path class="cls-5" d="M242.26,58.17a14.53,14.53,0,0,0,0,1.94l.06,1.35c0,.1,0,.3,0,.42a3.58,3.58,0,0,1,2.5-1.32,2.43,2.43,0,0,1,2,.51,2.65,2.65,0,0,1,.79,2.07l.13,3.21a17.25,17.25,0,0,0,.17,1.9l-2.54.27a16.47,16.47,0,0,0,0-1.94L245.24,64A1.43,1.43,0,0,0,245,63a.87.87,0,0,0-.79-.26,2.46,2.46,0,0,0-1.79,1.52l.11,2.59a17.29,17.29,0,0,0,.17,1.92l-2.53.27a14.45,14.45,0,0,0,0-1.94l-.28-6.77a12.44,12.44,0,0,0-.18-1.92Z"/><path class="cls-5" d="M253.89,65.54a1.3,1.3,0,0,0,.34-.68l2.16.4a3.87,3.87,0,0,1-.76,1.4A4.14,4.14,0,0,1,252.79,68a3.53,3.53,0,0,1-2.88-.79,4.19,4.19,0,0,1-1.24-3,4.12,4.12,0,0,1,3.71-4.61,3.3,3.3,0,0,1,3.8,2.6,9.63,9.63,0,0,1,.25,1.65,1.74,1.74,0,0,0,0,.25l-5.5.58a1.46,1.46,0,0,0,1.72,1.41A1.85,1.85,0,0,0,253.89,65.54Zm-1.43-4A1.61,1.61,0,0,0,250.91,63l3.14-.33a1.34,1.34,0,0,0-1.59-1.09"/><path class="cls-5" d="M262.11,58.78a4.86,4.86,0,0,1,1.22,0l-.5,2.36a3.7,3.7,0,0,0-1.25-.11,1.86,1.86,0,0,0-1.43.84,2.05,2.05,0,0,0-.32,1.17l.08,2a15.47,15.47,0,0,0,.17,1.9l-2.53.27a14.45,14.45,0,0,0,0-1.94l-.16-3.94a12.51,12.51,0,0,0-.18-1.92l2.44-.26,0,1A2.94,2.94,0,0,1,262.11,58.78Z"/><path class="cls-5" d="M269.12,63.94a1.3,1.3,0,0,0,.34-.68l2.16.4a4,4,0,0,1-.76,1.4A4.14,4.14,0,0,1,268,66.45a3.53,3.53,0,0,1-2.88-.79,4.19,4.19,0,0,1-1.24-3,4.12,4.12,0,0,1,3.71-4.61,3.29,3.29,0,0,1,3.79,2.6,8.75,8.75,0,0,1,.26,1.65,1.78,1.78,0,0,0,0,.25l-5.5.58a1.46,1.46,0,0,0,1.72,1.41A1.86,1.86,0,0,0,269.12,63.94Zm-1.43-4a1.61,1.61,0,0,0-1.55,1.42l3.14-.33A1.34,1.34,0,0,0,267.69,60"/><path class="cls-5" d="M279.07,59.08l.16,3.94a18.42,18.42,0,0,0,.18,1.92l-2.56.27a14.38,14.38,0,0,0,0-1.94l-.16-3.94a13.6,13.6,0,0,0-.18-1.92l2.56-.27A13,13,0,0,0,279.07,59.08Z"/><polygon class="cls-5" points="278.94 54.32 279.02 56.23 276.53 56.49 276.45 54.58 278.94 54.32"/><path class="cls-5" d="M283.68,56.4a3.49,3.49,0,0,1,2.64.54,2.47,2.47,0,0,1,.86,1.38l-2.35.51c-.08-.52-.4-.71-1.06-.64s-1,.33-1,.66.27.45,1.5.61a7,7,0,0,1,2,.4,1.86,1.86,0,0,1,1.25,1.83,2.57,2.57,0,0,1-.55,1.76,4.22,4.22,0,0,1-2.86,1.23c-1.54.16-2.64-.16-3.26-.94a2.77,2.77,0,0,1-.54-1.22l2.41-.54c.15.65.57.9,1.39.81s1.14-.34,1.13-.73a.49.49,0,0,0-.29-.43,2.79,2.79,0,0,0-1-.2,14.26,14.26,0,0,1-1.83-.26,2.22,2.22,0,0,1-1.26-.78,2.4,2.4,0,0,1-.35-1.18C280.45,57.67,281.64,56.61,283.68,56.4Z"/><path class="cls-5" d="M297.38,55a2.49,2.49,0,0,1,2,.51,2.65,2.65,0,0,1,.78,2.07l.13,3.21a15.19,15.19,0,0,0,.18,1.9l-2.55.27a14.75,14.75,0,0,0,0-1.94l-.11-2.62a1.47,1.47,0,0,0-.23-.93.88.88,0,0,0-.83-.27A2.4,2.4,0,0,0,295,58.77l.11,2.58a15.39,15.39,0,0,0,.18,1.92l-2.53.27a16.17,16.17,0,0,0,0-1.94l-.16-3.94a14.16,14.16,0,0,0-.17-1.92l2.43-.26,0,.54c0,.08,0,.27,0,.35A3.55,3.55,0,0,1,297.38,55Z"/><path class="cls-5" d="M305.13,54.12a3.56,3.56,0,0,1,4.21,3.72,4.22,4.22,0,0,1-3.87,4.66c-2.46.26-4.1-1.21-4.2-3.79A4.13,4.13,0,0,1,305.13,54.12Zm.27,6.44c1.07-.11,1.64-1,1.58-2.42s-.72-2.21-1.76-2.1-1.67,1-1.62,2.43.73,2.21,1.8,2.09"/><path class="cls-5" d="M79.3,93.55c-.22.59-.31.85-.45,1.29L77,100.53a6.19,6.19,0,0,0-.29,1.11l-2.67.28a6.28,6.28,0,0,0-.37-1L71.4,95.62l-.57-1.18,2.72-.29a5.68,5.68,0,0,0,.27,1.07l1.31,3.85.06.14c0,.12,0,.14.11.34a1.09,1.09,0,0,0,0-.24l0-.13,0-.16,1-4.08a6.42,6.42,0,0,0,.18-1.12Z"/><path class="cls-5" d="M82.56,95.14l.16,3.94A18.73,18.73,0,0,0,82.9,101l-2.56.27a14.59,14.59,0,0,0,0-1.94l-.16-3.94A13.57,13.57,0,0,0,80,93.47l2.56-.27A13.11,13.11,0,0,0,82.56,95.14Z"/><polygon class="cls-5" points="82.42 90.37 82.5 92.29 80.01 92.55 79.93 90.63 82.42 90.37"/><path class="cls-5" d="M87.17,92.45a3.48,3.48,0,0,1,2.63.55,2.44,2.44,0,0,1,.86,1.37l-2.35.52c-.08-.52-.4-.72-1.06-.65s-1,.33-1,.66.27.44,1.5.6a6.88,6.88,0,0,1,2,.4A1.87,1.87,0,0,1,91,97.72a2.52,2.52,0,0,1-.56,1.76,4.2,4.2,0,0,1-2.86,1.24c-1.54.16-2.65-.16-3.27-.94a2.77,2.77,0,0,1-.54-1.22L86.22,98c.15.65.58.9,1.39.81s1.14-.33,1.13-.73a.48.48,0,0,0-.29-.43,2.87,2.87,0,0,0-1-.19,13.85,13.85,0,0,1-1.83-.27,2.13,2.13,0,0,1-1.26-.78A2.31,2.31,0,0,1,84,95.26C83.93,93.73,85.13,92.66,87.17,92.45Z"/><path class="cls-5" d="M94.4,93.9l.16,3.94a16.4,16.4,0,0,0,.18,1.92l-2.56.27a16.24,16.24,0,0,0,0-1.94L92,94.15a15.1,15.1,0,0,0-.17-1.92L94.42,92A12.85,12.85,0,0,0,94.4,93.9Z"/><polygon class="cls-5" points="94.26 89.13 94.34 91.04 91.86 91.3 91.78 89.39 94.26 89.13"/><path class="cls-5" d="M100.61,91.08c2.23-.23,3.58,1.11,3.69,3.64a5,5,0,0,1-.95,3.36,3.6,3.6,0,0,1-2.51,1.27,3,3,0,0,1-2.45-.66l0,.26,0,.42-2.4.25a17.13,17.13,0,0,0,0-2L95.77,91a15.87,15.87,0,0,0-.18-2l2.48-.26a18.28,18.28,0,0,0,0,2l0,1.07a4.52,4.52,0,0,1,0,.49A3.74,3.74,0,0,1,100.61,91.08Zm-.36,6.36c1.07-.11,1.74-1.1,1.68-2.45s-.74-2-1.81-1.91a2.11,2.11,0,0,0-1.82,2.33c.05,1.26.9,2.14,1.95,2"/><path class="cls-5" d="M107.56,87.73a13.24,13.24,0,0,0,0,1.94l.28,6.78a15.3,15.3,0,0,0,.18,1.92l-2.56.27a14.61,14.61,0,0,0,0-1.94l-.28-6.78A13.66,13.66,0,0,0,105,88Z"/><path class="cls-5" d="M114,95.65a1.4,1.4,0,0,0,.34-.69l2.15.4a4,4,0,0,1-.75,1.4,4.17,4.17,0,0,1-2.84,1.38,3.55,3.55,0,0,1-2.88-.78,4.23,4.23,0,0,1-1.24-3,4.12,4.12,0,0,1,3.71-4.61,3.3,3.3,0,0,1,3.79,2.6,8.8,8.8,0,0,1,.26,1.65c0,.05,0,.13,0,.26l-5.5.58a1.47,1.47,0,0,0,1.73,1.41A1.9,1.9,0,0,0,114,95.65Zm-1.43-4A1.6,1.6,0,0,0,111,93.07l3.14-.33a1.34,1.34,0,0,0-1.59-1.09"/><path class="cls-5" d="M124.71,86.74a16.31,16.31,0,0,0,0,1.76v.27l.44,0a7.81,7.81,0,0,0,1.19-.2l.09,2.12a7.26,7.26,0,0,0-1.13,0l-.51.05.14,3.27c0,.36.08.53.25.63a1,1,0,0,0,.56.08,1.69,1.69,0,0,0,.85-.32l.27,1.92a5.29,5.29,0,0,1-1.67.43,2.8,2.8,0,0,1-1.82-.25c-.48-.32-.67-.74-.7-1.61L122.48,91,122,91a7.06,7.06,0,0,0-1.06.19l-.09-2.13a6.81,6.81,0,0,0,1.09,0l.44,0v-.27a13,13,0,0,0-.17-1.74Z"/><path class="cls-5" d="M129.7,85.4a13.09,13.09,0,0,0,0,1.94l.06,1.35c0,.11,0,.31,0,.43a3.54,3.54,0,0,1,2.49-1.33,2.46,2.46,0,0,1,2,.51,2.66,2.66,0,0,1,.78,2.07l.13,3.21a17.31,17.31,0,0,0,.18,1.91l-2.55.27a14.8,14.8,0,0,0,0-1.94l-.11-2.63a1.52,1.52,0,0,0-.23-.93.87.87,0,0,0-.8-.26,2.48,2.48,0,0,0-1.79,1.52l.11,2.6a15.48,15.48,0,0,0,.18,1.92l-2.53.27a16.27,16.27,0,0,0,0-1.94l-.28-6.78a13.91,13.91,0,0,0-.17-1.92Z"/><path class="cls-5" d="M138.8,89.23l.16,3.94a18.49,18.49,0,0,0,.18,1.92l-2.56.27a14.55,14.55,0,0,0,0-1.94l-.16-3.94a13.53,13.53,0,0,0-.18-1.92l2.56-.27A12.85,12.85,0,0,0,138.8,89.23Z"/><polygon class="cls-5" points="138.67 84.46 138.75 86.38 136.26 86.64 136.18 84.72 138.67 84.46"/><path class="cls-5" d="M154.92,84.77l.27,6.62a15.23,15.23,0,0,0,.18,2l-2.4.25,0-.42c0-.07,0-.16,0-.28a3.58,3.58,0,0,1-2.43,1.18c-2.23.23-3.64-1.19-3.74-3.76a4.69,4.69,0,0,1,.93-3.23,3.57,3.57,0,0,1,2.44-1.25,3.36,3.36,0,0,1,2.54.68c0-.19,0-.31,0-.49l0-1.06a14,14,0,0,0-.18-2l2.51-.26A14.72,14.72,0,0,0,154.92,84.77ZM151,92.11a2.17,2.17,0,0,0,1.8-2.41,1.82,1.82,0,0,0-2-1.94c-1.07.11-1.7,1-1.64,2.36a2.25,2.25,0,0,0,.63,1.63,1.6,1.6,0,0,0,1.2.36"/><path class="cls-5" d="M145,86.49a4.49,4.49,0,0,1,1.22,0l-.49,2.36a3.56,3.56,0,0,0-1.25-.12,1.86,1.86,0,0,0-1.43.84,2,2,0,0,0-.32,1.18l.08,2a13.94,13.94,0,0,0,.18,1.91l-2.53.27a14.54,14.54,0,0,0,0-1.94l-.16-3.94a12.44,12.44,0,0,0-.18-1.92l2.43-.26,0,1A2.94,2.94,0,0,1,145,86.49Z"/><path class="cls-5" d="M164.69,83.75l1.39-.15.11,2.57-2.45.26-.11-2.57a2.3,2.3,0,0,1,.57-1.69,2.42,2.42,0,0,1,1.16-.73l.58.91a1.82,1.82,0,0,0-.94.5A1.12,1.12,0,0,0,164.69,83.75Z"/><path class="cls-5" d="M161.72,83.2a1.15,1.15,0,0,0-.3.89l1.4-.15.11,2.57-2.47.26-.11-2.57a2.27,2.27,0,0,1,.58-1.69,2.35,2.35,0,0,1,1.17-.73l.57.91A1.88,1.88,0,0,0,161.72,83.2Z"/><path class="cls-5" d="M169.92,86l.16,3.94a18.6,18.6,0,0,0,.17,1.92l-2.56.27a14.55,14.55,0,0,0,0-1.94l-.16-3.94a13.53,13.53,0,0,0-.18-1.92l2.56-.27A14.33,14.33,0,0,0,169.92,86Z"/><polygon class="cls-5" points="169.78 81.19 169.87 83.11 167.38 83.37 167.31 81.45 169.78 81.19"/><path class="cls-5" d="M174.37,80.7l2.45-.26.11,2.56a2.33,2.33,0,0,1-.57,1.69,2.42,2.42,0,0,1-1.16.73l-.58-.92a1.79,1.79,0,0,0,.95-.5,1.14,1.14,0,0,0,.29-.89l-1.39.15Z"/><path class="cls-5" d="M171.2,83.61,171.1,81l2.46-.26.11,2.56a2.3,2.3,0,0,1-.58,1.69,2.35,2.35,0,0,1-1.16.73l-.58-.92a1.81,1.81,0,0,0,.95-.5,1.18,1.18,0,0,0,.31-.89Z"/><path class="cls-5" d="M184.83,84.39l.16,3.94a18.73,18.73,0,0,0,.17,1.92l-2.56.27a14.55,14.55,0,0,0,0-1.94l-.16-3.94a13.53,13.53,0,0,0-.18-1.92l2.56-.27A14.38,14.38,0,0,0,184.83,84.39Z"/><polygon class="cls-5" points="184.69 79.62 184.77 81.54 182.29 81.8 182.21 79.88 184.69 79.62"/><path class="cls-5" d="M191.07,81.61a2.47,2.47,0,0,1,2,.51,2.66,2.66,0,0,1,.79,2.07l.13,3.21a17.54,17.54,0,0,0,.17,1.91l-2.54.27a16.57,16.57,0,0,0,0-1.94L191.53,85a1.39,1.39,0,0,0-.23-.92.87.87,0,0,0-.82-.28c-.69.07-1.28.59-1.76,1.54l.11,2.58a17.4,17.4,0,0,0,.17,1.92l-2.53.27a14.54,14.54,0,0,0,0-1.94l-.16-3.94a12.51,12.51,0,0,0-.18-1.92l2.44-.26,0,.53c0,.08,0,.28,0,.36A3.54,3.54,0,0,1,191.07,81.61Z"/><path class="cls-5" d="M202.89,80.26c2.46-.26,4.1,1.2,4.2,3.73a4.22,4.22,0,0,1-3.87,4.65c-2.45.26-4.09-1.21-4.19-3.78A4.14,4.14,0,0,1,202.89,80.26Zm.27,6.44c1.06-.11,1.63-1,1.57-2.42s-.71-2.21-1.75-2.1-1.67,1-1.62,2.43.73,2.21,1.8,2.09"/><path class="cls-5" d="M215.61,79.22a14.34,14.34,0,0,0,0,1.92l.16,4a12.4,12.4,0,0,0,.18,1.9l-2.44.26,0-.55a2.59,2.59,0,0,1,0-.35,3.52,3.52,0,0,1-2.5,1.36,2.48,2.48,0,0,1-2-.51,2.65,2.65,0,0,1-.79-2.07l-.13-3.21a17.24,17.24,0,0,0-.17-1.9l2.54-.27a16.41,16.41,0,0,0,0,1.92l.11,2.62a1.49,1.49,0,0,0,.23.94.88.88,0,0,0,.81.27A2.5,2.5,0,0,0,213.36,84l-.11-2.62a17.18,17.18,0,0,0-.17-1.9Z"/><path class="cls-5" d="M221.77,78.41a4.53,4.53,0,0,1,1.22,0l-.5,2.36a3.53,3.53,0,0,0-1.25-.12,1.86,1.86,0,0,0-1.43.84,2.06,2.06,0,0,0-.32,1.18l.08,2a15.62,15.62,0,0,0,.17,1.91l-2.53.27a14.54,14.54,0,0,0,0-1.94L217.07,81a12.44,12.44,0,0,0-.18-1.92l2.44-.26,0,1A2.93,2.93,0,0,1,221.77,78.41Z"/><path class="cls-5" d="M230.22,74.83a14.78,14.78,0,0,0,0,1.94l.28,6.78a17.18,17.18,0,0,0,.17,1.92l-2.56.27a13.09,13.09,0,0,0,0-1.94L227.85,77a12.23,12.23,0,0,0-.18-1.92Z"/><path class="cls-5" d="M235.33,76.85a3.57,3.57,0,0,1,4.21,3.73,4.22,4.22,0,0,1-3.87,4.65c-2.46.26-4.1-1.21-4.2-3.78A4.14,4.14,0,0,1,235.33,76.85Zm.27,6.44c1.07-.11,1.64-1,1.58-2.42s-.72-2.21-1.75-2.1-1.68,1-1.62,2.43.73,2.21,1.8,2.09"/><path class="cls-5" d="M245.74,76.05l2.4-.25a13.55,13.55,0,0,0,0,1.78l.19,4.48a3.87,3.87,0,0,1-1.14,3.33,5.29,5.29,0,0,1-2.88,1.07,4.12,4.12,0,0,1-3.68-1l1.71-1.4a2.07,2.07,0,0,0,1.9.67,2,2,0,0,0,1.47-.71,2.18,2.18,0,0,0,.33-1.41,3.15,3.15,0,0,1-2.19,1.08c-2.12.22-3.53-1.09-3.63-3.42a3.69,3.69,0,0,1,3.31-4.13,3.12,3.12,0,0,1,2.26.51v-.55Zm-1.54,5.7a1.91,1.91,0,0,0,1.65-2.12,1.66,1.66,0,0,0-1.8-1.77A1.84,1.84,0,0,0,242.52,80c0,1.18.71,1.86,1.68,1.76"/><path class="cls-5" d="M253.14,75c2.46-.26,4.1,1.2,4.2,3.73a4.22,4.22,0,0,1-3.87,4.65c-2.45.26-4.09-1.21-4.19-3.78A4.14,4.14,0,0,1,253.14,75Zm.27,6.44c1.06-.11,1.64-1,1.58-2.42s-.72-2.21-1.76-2.1-1.67,1-1.62,2.43.73,2.21,1.8,2.09"/><polygon class="cls-5" points="260.83 79.7 260.94 82.28 258.47 82.54 258.36 79.96 260.83 79.7"/></g></g></svg>