<svg xmlns="http://www.w3.org/2000/svg" viewBox="0 0 116.79 35.33"><defs><style>.cls-1{fill:#010101;stroke:#000;stroke-miterlimit:10;stroke-width:0.18px;}</style></defs><title>apparel_1</title><g id="Layer_2" data-name="Layer 2"><g id="Layer_1-2" data-name="Layer 1"><polygon class="cls-1" points="13.8 16.75 13.88 16.75 14.87 16.75 13.53 18.32 17.39 18.33 19.25 16.15 19.25 16.15 21.05 14.02 19.2 14.02 19.2 14.02 16.2 14.02 16.12 14.02 13.12 14.02 10.79 16.75 13.8 16.75"/><polygon class="cls-1" points="9.17 16.75 10.78 16.75 13.11 14.02 10.02 14.02 10.02 14.02 7.63 14.02 5.77 16.2 3.96 18.32 7.83 18.33 9.17 16.75"/><polygon class="cls-1" points="7.45 20.03 7.37 20.03 6.38 20.03 7.72 18.45 3.86 18.45 2 20.63 2 20.63 0.19 22.76 2.05 22.76 2.04 22.76 5.05 22.76 5.13 22.76 8.13 22.76 10.45 20.03 7.45 20.03"/><polygon class="cls-1" points="12.06 20.03 10.45 20.03 8.13 22.76 11.21 22.76 11.21 22.76 13.6 22.76 15.46 20.58 17.27 18.45 13.41 18.45 12.06 20.03"/><polygon class="cls-1" points="14.63 10.84 17.64 10.84 19.96 8.01 16.96 8.01 16.88 8.01 13.87 8.01 11.55 10.84 14.55 10.84 14.63 10.84"/><polygon class="cls-1" points="20.73 10.84 23.05 8.01 19.97 8.01 17.65 10.84 20.73 10.84"/><polygon class="cls-1" points="13.44 10.84 15.77 8.01 12.68 8.01 10.36 10.84 13.44 10.84"/><polygon class="cls-1" points="18.92 10.74 19 10.74 19.99 10.74 18.65 12.31 22.51 12.32 24.37 10.14 24.37 10.14 26.18 8.01 24.32 8.01 24.33 8.01 21.32 8.01 21.24 8.01 18.24 8.01 15.92 10.74 18.92 10.74"/><polygon class="cls-1" points="17.19 14.02 15.57 14.02 13.25 16.75 16.33 16.75 16.33 16.75 18.72 16.75 20.58 14.57 22.39 12.44 18.53 12.44 17.19 14.02"/><polygon class="cls-1" points="32.52 15.64 30.45 18.07 30.44 18.09 30.4 18.14 28.33 20.56 32.74 20.57 34.87 18.07 34.87 18.07 36.84 15.75 38.97 13.26 34.55 13.26 32.52 15.64"/><polygon class="cls-1" points="26.2 23.07 30.61 23.07 32.73 20.58 28.32 20.57 26.2 23.07"/><polygon class="cls-1" points="34.87 11.45 34.97 11.45 36.09 11.45 34.56 13.25 38.97 13.25 41.1 10.76 41.1 10.76 43.16 8.33 41.05 8.33 41.05 8.33 37.62 8.33 37.53 8.33 34.1 8.33 31.44 11.45 34.87 11.45"/><polygon class="cls-1" points="23.94 18.07 23.94 18.07 25.92 15.75 28.04 13.26 23.63 13.26 21.6 15.64 21.6 15.64 19.47 18.14 17.41 20.56 21.82 20.57 23.94 18.07"/><polygon class="cls-1" points="19.69 23.07 21.81 20.58 17.4 20.57 15.28 23.07 19.69 23.07"/><polygon class="cls-1" points="29.58 11.45 31.43 11.45 34.08 8.33 30.56 8.33 30.56 8.33 27.83 8.33 25.7 10.82 23.64 13.25 28.05 13.25 29.58 11.45"/><polygon class="cls-1" points="13.16 25.55 13.16 25.55 11.08 27.99 8.91 30.53 13.32 30.62 15.4 28.18 17.57 25.64 19.68 23.16 15.27 23.07 13.16 25.55"/><polygon class="cls-1" points="17.45 20.52 15.28 23.06 19.69 23.15 21.86 20.61 17.45 20.52"/><polygon class="cls-1" points="8.9 30.54 6.73 33.08 6.73 33.08 5.06 35.04 9.47 35.13 11.64 32.58 11.64 32.58 13.31 30.63 8.9 30.54"/><polygon class="cls-1" points="25.92 15.84 27.98 13.41 28 13.4 28.04 13.35 30.11 10.92 25.7 10.92 23.57 13.41 23.57 13.41 21.6 15.73 19.47 18.23 23.89 18.23 25.92 15.84"/><polygon class="cls-1" points="32.24 8.42 27.83 8.42 25.7 10.91 30.12 10.91 32.24 8.42"/><polygon class="cls-1" points="23.57 20.04 23.48 20.04 22.35 20.04 23.88 18.24 19.47 18.24 17.34 20.73 17.34 20.73 15.28 23.16 17.39 23.16 17.39 23.16 20.82 23.16 20.91 23.16 24.34 23.16 27 20.04 23.57 20.04"/><polygon class="cls-1" points="34.5 13.41 34.5 13.41 32.52 15.73 30.4 18.23 34.81 18.23 36.84 15.84 36.84 15.84 38.97 13.35 41.03 10.92 36.62 10.92 34.5 13.41"/><polygon class="cls-1" points="38.75 8.42 36.63 10.91 41.04 10.91 43.16 8.42 38.75 8.42"/><polygon class="cls-1" points="28.86 20.04 27.01 20.04 24.36 23.16 27.88 23.16 27.88 23.16 30.61 23.16 32.73 20.67 34.8 18.24 30.39 18.24 28.86 20.04"/><polygon class="cls-1" points="49.66 15.75 47.6 18.18 47.58 18.2 47.54 18.25 45.48 20.67 49.89 20.68 52.01 18.18 52.01 18.18 53.99 15.86 56.11 13.37 51.7 13.37 49.66 15.75"/><polygon class="cls-1" points="43.34 23.18 47.76 23.18 49.88 20.69 45.47 20.68 43.34 23.18"/><polygon class="cls-1" points="52.02 11.56 52.11 11.56 53.24 11.56 51.71 13.36 56.12 13.36 58.24 10.87 58.24 10.87 60.31 8.44 58.19 8.44 58.19 8.44 54.76 8.44 54.67 8.44 51.24 8.44 48.59 11.56 52.02 11.56"/><polygon class="cls-1" points="41.08 18.18 41.08 18.18 43.06 15.86 45.19 13.37 40.77 13.37 38.74 15.75 38.74 15.75 36.62 18.25 34.55 20.67 38.96 20.68 41.08 18.18"/><polygon class="cls-1" points="36.83 23.18 38.95 20.69 34.54 20.68 32.42 23.18 36.83 23.18"/><polygon class="cls-1" points="46.73 11.56 48.57 11.56 51.23 8.44 47.7 8.44 47.7 8.44 44.97 8.44 42.85 10.93 40.78 13.36 45.19 13.36 46.73 11.56"/><polygon class="cls-1" points="30.3 25.66 30.3 25.66 28.22 28.1 26.05 30.64 30.46 30.73 32.54 28.29 34.71 25.75 36.83 23.27 32.42 23.18 30.3 25.66"/><polygon class="cls-1" points="34.6 20.63 32.42 23.17 36.83 23.26 39.01 20.72 34.6 20.63"/><polygon class="cls-1" points="26.04 30.65 23.87 33.19 23.87 33.19 22.21 35.15 26.62 35.23 28.79 32.69 28.78 32.69 30.45 30.74 26.04 30.65"/><polygon class="cls-1" points="43.06 15.95 45.13 13.52 45.14 13.51 45.18 13.46 47.25 11.03 42.84 11.03 40.72 13.52 40.72 13.52 38.74 15.84 36.62 18.34 41.03 18.34 43.06 15.95"/><polygon class="cls-1" points="49.38 8.53 44.97 8.53 42.85 11.02 47.26 11.02 49.38 8.53"/><polygon class="cls-1" points="40.71 20.15 40.62 20.15 39.49 20.15 41.02 18.35 36.61 18.34 34.49 20.84 34.49 20.84 32.42 23.27 34.53 23.27 34.53 23.27 37.96 23.27 38.06 23.27 41.49 23.27 44.14 20.15 40.71 20.15"/><polygon class="cls-1" points="51.64 13.52 51.64 13.52 49.66 15.84 47.54 18.34 51.95 18.34 53.99 15.95 53.99 15.95 56.11 13.46 58.18 11.03 53.77 11.03 51.64 13.52"/><polygon class="cls-1" points="55.9 8.53 53.77 11.02 58.18 11.02 60.31 8.53 55.9 8.53"/><polygon class="cls-1" points="46 20.15 44.15 20.15 41.5 23.27 45.02 23.27 45.02 23.27 47.76 23.27 49.88 20.78 51.94 18.35 47.53 18.34 46 20.15"/><polygon class="cls-1" points="92.52 12 95.95 12 100.11 8.76 96.68 8.76 96.59 8.76 93.16 8.76 89 12 92.42 12 92.52 12"/><polygon class="cls-1" points="99.48 12 103.65 8.76 100.13 8.76 95.96 12 99.48 12"/><polygon class="cls-1" points="77.51 23.58 80.94 23.58 85.1 20.34 81.67 20.34 81.58 20.34 78.15 20.34 73.98 23.58 77.41 23.58 77.51 23.58"/><polygon class="cls-1" points="84.47 23.58 88.64 20.34 85.11 20.34 80.95 23.58 84.47 23.58"/><polygon class="cls-1" points="85.02 17.78 88.45 17.78 92.61 14.54 89.18 14.54 89.09 14.54 85.66 14.54 81.49 17.78 84.92 17.78 85.02 17.78"/><polygon class="cls-1" points="91.98 17.78 96.15 14.54 92.62 14.54 88.46 17.78 91.98 17.78"/><polygon class="cls-1" points="63.04 17.22 63.12 17.22 64.1 17.22 62.77 18.78 66.61 18.78 68.46 16.61 68.46 16.61 70.25 14.5 68.41 14.5 68.41 14.5 65.43 14.5 65.35 14.5 62.37 14.5 60.06 17.22 63.04 17.22"/><polygon class="cls-1" points="58.44 17.22 60.05 17.22 62.35 14.5 59.29 14.5 59.29 14.5 56.91 14.5 55.07 16.67 53.27 18.78 57.1 18.78 58.44 17.22"/><polygon class="cls-1" points="56.73 20.47 56.65 20.47 55.67 20.47 57 18.91 53.17 18.9 51.32 21.07 51.32 21.07 49.52 23.18 51.36 23.19 51.36 23.19 54.34 23.19 54.42 23.19 57.41 23.19 59.72 20.47 56.73 20.47"/><polygon class="cls-1" points="61.32 20.47 59.71 20.47 57.4 23.19 60.47 23.19 60.47 23.18 62.85 23.19 64.69 21.02 66.49 18.91 62.65 18.9 61.32 20.47"/><polygon class="cls-1" points="63.87 11.34 66.86 11.34 69.17 8.53 66.18 8.53 66.1 8.53 63.12 8.53 60.81 11.34 63.79 11.34 63.87 11.34"/><polygon class="cls-1" points="69.93 11.34 72.24 8.53 69.18 8.53 66.87 11.34 69.93 11.34"/><polygon class="cls-1" points="62.69 11.34 65 8.53 61.93 8.53 59.62 11.34 62.69 11.34"/><polygon class="cls-1" points="68.13 11.24 68.21 11.24 69.19 11.24 67.86 12.81 71.7 12.81 73.55 10.64 73.55 10.64 75.34 8.53 73.5 8.53 73.51 8.53 70.52 8.53 70.44 8.53 67.46 8.53 65.15 11.24 68.13 11.24"/><polygon class="cls-1" points="66.41 14.5 64.81 14.5 62.5 17.21 65.56 17.21 65.56 17.21 67.94 17.21 69.78 15.05 71.58 12.93 67.75 12.93 66.41 14.5"/><polygon class="cls-1" points="72.46 13.93 72.46 13.93 70.44 16.39 68.33 18.96 72.72 18.97 74.74 16.5 76.85 13.94 78.9 11.43 74.52 11.43 72.46 13.93"/><polygon class="cls-1" points="76.64 8.85 74.53 11.42 78.91 11.42 81.02 8.86 76.64 8.85"/><polygon class="cls-1" points="68.32 18.97 66.21 21.54 66.22 21.54 64.6 23.51 68.98 23.52 71.09 20.95 71.09 20.95 72.71 18.98 68.32 18.97"/><polygon class="cls-1" points="82 12.07 85.4 12.07 88.04 8.85 84.63 8.85 84.54 8.85 81.13 8.85 78.49 12.07 81.9 12.07 82 12.07"/><polygon class="cls-1" points="87.11 12.07 89.75 8.85 86.25 8.85 83.61 12.07 87.11 12.07"/><polygon class="cls-1" points="110.51 2.46 110.51 2.46 108.6 4.79 106.61 7.22 110.75 7.22 112.67 4.89 114.66 2.46 116.6 0.09 112.46 0.09 110.51 2.46"/><polygon class="cls-1" points="107.01 6.7 105.01 9.13 105.02 9.13 103.49 11 107.63 11 109.63 8.57 109.63 8.57 111.16 6.71 107.01 6.7"/><polygon class="cls-1" points="99.54 15.81 99.54 15.81 97.63 18.14 95.64 20.57 99.78 20.57 101.69 18.24 103.69 15.81 105.64 13.45 101.49 13.44 99.54 15.81"/><polygon class="cls-1" points="103.49 11 101.5 13.43 105.64 13.44 107.64 11.01 103.49 11"/><polygon class="cls-1" points="95.63 20.58 93.63 23.01 93.64 23.01 92.1 24.87 96.25 24.88 98.25 22.45 98.24 22.45 99.78 20.58 95.63 20.58"/></g></g></svg>