<svg xmlns="http://www.w3.org/2000/svg" viewBox="0 0 38.95 42.3"><defs><style>.cls-1{isolation:isolate;}.cls-2{fill:#6b670f;}.cls-3{fill:#a3a40f;}.cls-4{fill:#d0d90a;}</style></defs><title>Asset 24</title><g id="Layer_2" data-name="Layer 2"><g id="Layer_1-2" data-name="Layer 1"><g class="cls-1"><polygon class="cls-2" points="37.57 36.66 29.96 32.52 30.01 1.61 37.63 5.75 37.57 36.66"/><polygon class="cls-3" points="8.94 40.68 1.32 36.54 29.96 32.52 37.57 36.66 8.94 40.68"/><polygon class="cls-3" points="8.99 9.78 1.38 5.63 30.01 1.61 37.63 5.75 8.99 9.78"/><polygon class="cls-4" points="37.63 5.75 37.57 36.66 8.94 40.68 8.99 9.78 37.63 5.75"/><polygon class="cls-2" points="8.94 40.68 1.32 36.54 1.38 5.63 8.99 9.78 8.94 40.68"/><polygon class="cls-2" points="7.62 42.3 0 38.15 0.06 4.4 7.68 8.54 7.62 42.3"/><polygon class="cls-3" points="7.68 8.54 0.06 4.4 31.34 0 38.95 4.14 7.68 8.54"/><path class="cls-4" d="M7.68,8.54,39,4.14,38.89,37.9,7.61,42.3ZM37.57,36.66l.06-30.91L9,9.78,8.94,40.68l28.63-4"/></g></g></g></svg>