<svg xmlns="http://www.w3.org/2000/svg" xmlns:xlink="http://www.w3.org/1999/xlink" viewBox="0 0 72.86 83.57"><defs><style>.cls-1{fill:none;}.cls-2{isolation:isolate;}.cls-3{fill:#210130;}.cls-4{fill:#33004b;}.cls-5{fill:#470067;}.cls-6{fill:gray;}.cls-7{fill:#818181;}.cls-8{fill:#8d8d8d;}.cls-9{fill:#8e8e8e;}.cls-10{fill:#ececec;}.cls-11{fill:#8f8f8f;}.cls-12{clip-path:url(#clip-path);}.cls-13{fill:#858585;}.cls-14{fill:#828282;}.cls-15{clip-path:url(#clip-path-2);}.cls-16{fill:#848484;}.cls-17{clip-path:url(#clip-path-3);}.cls-18{fill:#8a8a8a;}.cls-19{clip-path:url(#clip-path-4);}.cls-20{clip-path:url(#clip-path-5);}.cls-21{clip-path:url(#clip-path-6);}.cls-22{clip-path:url(#clip-path-7);}.cls-23{clip-path:url(#clip-path-8);}.cls-24{clip-path:url(#clip-path-9);}</style><clipPath id="clip-path"><path class="cls-1" d="M54.42,27.52l-1.71-.06c0-.46-.08-.65-.25-.71l1.71.06C54.35,26.87,54.43,27.06,54.42,27.52Z"/></clipPath><clipPath id="clip-path-2"><path class="cls-1" d="M43.81,62.16,42.1,62.1a.69.69,0,0,1-.36-.61l1.71.06A.69.69,0,0,0,43.81,62.16Z"/></clipPath><clipPath id="clip-path-3"><path class="cls-1" d="M43.3,47.47l-1.71-.06a.72.72,0,0,1,.41-.75l1.71.06A.72.72,0,0,0,43.3,47.47Z"/></clipPath><clipPath id="clip-path-4"><path class="cls-1" d="M35.1,18.77l-1.71-.06.21,0,1.71.06Z"/></clipPath><clipPath id="clip-path-5"><path class="cls-1" d="M33.67,18.69l1.71.06h-.06l-1.71-.06Z"/></clipPath><clipPath id="clip-path-6"><path class="cls-1" d="M16.93,54l-1.71-.06a.4.4,0,0,1-.2-.34l1.71.06A.4.4,0,0,0,16.93,54Z"/></clipPath><clipPath id="clip-path-7"><path class="cls-1" d="M16.65,54.55l-1.71-.06a1,1,0,0,1-.52-.89l1.71.06A1,1,0,0,0,16.65,54.55Z"/></clipPath><clipPath id="clip-path-8"><path class="cls-1" d="M16.44,28.18l-1.71-.06c0-.46.06-.65.23-.71l1.71.06C16.5,27.53,16.41,27.72,16.44,28.18Z"/></clipPath><clipPath id="clip-path-9"><path class="cls-1" d="M15.87,28l-1.71-.06a1,1,0,0,1,.57-1.11l1.71.06A1,1,0,0,0,15.87,28Z"/></clipPath></defs><title>Asset 18</title><g id="Layer_2" data-name="Layer 2"><g id="Layer_1-2" data-name="Layer 1"><g class="cls-2"><polygon class="cls-3" points="71.41 73.18 63.79 69.03 63.92 1.61 71.53 5.75 71.41 73.18"/><polygon class="cls-4" points="8.94 81.96 1.32 77.81 63.79 69.03 71.41 73.18 8.94 81.96"/><polygon class="cls-4" points="9.06 14.53 1.45 10.39 63.92 1.61 71.53 5.75 9.06 14.53"/><polygon class="cls-5" points="71.53 5.75 71.41 73.18 8.94 81.96 9.06 14.53 71.53 5.75"/><polygon class="cls-3" points="8.94 81.96 1.32 77.81 1.45 10.39 9.06 14.53 8.94 81.96"/><polygon class="cls-3" points="7.62 83.57 0 79.43 0.13 9.15 7.75 13.29 7.62 83.57"/><polygon class="cls-4" points="7.75 13.29 0.13 9.15 65.24 0 72.86 4.14 7.75 13.29"/><path class="cls-5" d="M7.75,13.29,72.86,4.14l-.13,70.28L7.61,83.57ZM71.41,73.18l.13-67.42L9.06,14.53,8.94,82l62.47-8.78"/></g><g class="cls-2"><polygon class="cls-6" points="64.58 61.24 62.87 61.19 62.75 47.16 64.46 47.22 64.58 61.24"/><polygon class="cls-7" points="64.44 47.11 62.72 47.05 62.74 46.98 64.45 47.04 64.44 47.11"/><polygon class="cls-6" points="64.46 47.22 62.75 47.16 62.72 47.08 64.43 47.13 64.46 47.22"/><polygon class="cls-6" points="64.45 47.04 62.74 46.98 62.7 46.9 64.41 46.95 64.45 47.04"/><polygon class="cls-6" points="64.48 61.14 62.77 61.08 62.61 47.27 64.32 47.33 64.48 61.14"/><polygon class="cls-6" points="63.89 60.77 62.17 60.71 62.03 48.27 63.74 48.33 63.89 60.77"/><polygon class="cls-8" points="54.45 67.21 52.73 67.15 62.87 61.19 64.58 61.24 54.45 67.21"/><polygon class="cls-8" points="54.46 67.04 52.75 66.98 62.77 61.08 64.48 61.14 54.46 67.04"/><polygon class="cls-8" points="55.05 65.97 53.34 65.92 62.17 60.71 63.89 60.77 55.05 65.97"/><polygon class="cls-9" points="54.29 52.46 52.58 52.4 62.61 47.27 64.32 47.33 54.29 52.46"/><polygon class="cls-9" points="54.23 52.34 52.52 52.28 62.72 47.05 64.44 47.11 54.23 52.34"/><polygon class="cls-9" points="55.28 51.1 53.57 51.04 61.21 47.13 62.92 47.19 55.28 51.1"/><polygon class="cls-6" points="54.52 67.51 52.81 67.46 52.73 67.15 54.45 67.21 54.52 67.51"/><polygon class="cls-6" points="62.92 47.19 61.21 47.13 53.49 44.06 55.2 44.12 62.92 47.19"/><polygon class="cls-6" points="54.91 53.81 53.2 53.76 53.19 52.8 54.9 52.85 54.91 53.81"/><polygon class="cls-9" points="54.9 52.85 53.19 52.8 53.59 52.59 55.3 52.65 54.9 52.85"/><polygon class="cls-6" points="54.46 67.04 52.75 66.98 52.58 52.4 54.29 52.46 54.46 67.04"/><polygon class="cls-9" points="54.22 51.64 52.51 51.59 52.98 51.34 54.7 51.4 54.22 51.64"/><polygon class="cls-6" points="54.33 67.04 52.62 66.98 52.45 52.41 54.16 52.46 54.33 67.04"/><polygon class="cls-6" points="54.23 52.34 52.52 52.28 52.39 52.23 54.1 52.28 54.23 52.34"/><polygon class="cls-6" points="54.22 51.64 52.51 51.59 52.25 51.46 53.96 51.52 54.22 51.64"/><polygon class="cls-6" points="53.73 66 52.02 65.94 51.89 54.53 53.6 54.59 53.73 66"/><polygon class="cls-6" points="53.6 54.59 51.89 54.53 51.88 53.82 53.59 53.88 53.6 54.59"/><polygon class="cls-6" points="53.59 53.88 51.88 53.82 51.87 52.94 53.58 52.99 53.59 53.88"/><polygon class="cls-6" points="53.58 52.99 51.87 52.94 51.87 52.82 53.58 52.88 53.58 52.99"/><polygon class="cls-9" points="54.7 51.4 52.98 51.34 53.57 51.04 55.28 51.1 54.7 51.4"/><polygon class="cls-6" points="55.2 44.12 53.49 44.06 52.9 43.83 54.61 43.89 55.2 44.12"/><polygon class="cls-6" points="54.7 51.4 52.98 51.34 52.9 43.83 54.61 43.89 54.7 51.4"/><polygon class="cls-6" points="54.61 43.89 52.9 43.83 52.42 43.64 54.13 43.7 54.61 43.89"/><polygon class="cls-6" points="53.96 51.52 52.25 51.46 52.16 43.75 53.87 43.81 53.96 51.52"/><polygon class="cls-6" points="53.96 51.52 52.25 51.46 51.65 51.18 53.37 51.24 53.96 51.52"/><polygon class="cls-6" points="53.58 52.88 51.87 52.82 51.3 52.55 53.01 52.61 53.58 52.88"/><polygon class="cls-6" points="53.37 51.24 51.65 51.18 51.57 44.01 53.28 44.07 53.37 51.24"/><polygon class="cls-10" points="44.75 59.78 44.74 59.08 53.59 53.88 53.6 54.59 44.75 59.78"/><polygon class="cls-6" points="44.75 59.78 43.04 59.73 43.03 59.02 44.74 59.08 44.75 59.78"/><polygon class="cls-8" points="44.74 59.08 43.03 59.02 51.88 53.82 53.59 53.88 44.74 59.08"/><polygon class="cls-8" points="44.73 58.2 43.02 58.14 51.87 52.94 53.58 52.99 44.73 58.2"/><polygon class="cls-6" points="44.74 59.08 43.03 59.02 43.02 58.14 44.73 58.2 44.74 59.08"/><polygon class="cls-8" points="44.73 57.49 43.01 57.43 51.3 52.55 53.01 52.61 44.73 57.49"/><polygon class="cls-6" points="44.73 58.2 43.02 58.14 43.01 57.43 44.73 57.49 44.73 58.2"/><polygon class="cls-10" points="44.73 57.49 53.01 52.61 53.58 52.88 53.58 52.99 44.73 58.2 44.73 57.49"/><polygon class="cls-6" points="54.1 52.28 52.39 52.23 42.2 47.42 43.91 47.48 54.1 52.28"/><polygon class="cls-6" points="54.16 52.46 52.45 52.41 42.31 47.62 44.02 47.68 54.16 52.46"/><polygon class="cls-6" points="53.01 52.61 51.3 52.55 42.91 48.6 44.62 48.66 53.01 52.61"/><polygon class="cls-6" points="54.33 67.04 52.62 66.98 42.47 61.44 44.18 61.49 54.33 67.04"/><polygon class="cls-6" points="44.18 61.49 42.47 61.44 42.31 47.62 44.02 47.68 44.18 61.49"/><path class="cls-10" d="M44.18,61.49,44,47.68l10.14,4.78L54.33,67Zm.57-1.71,0,1.32,9,4.89-.13-11.4V52.88L53,52.61l-8.39-4,.1,8.83v2.3"/><path class="cls-10" d="M64.46,47.22l.13,14-10.14,6,.08.3-.16-.29L44.05,61.54l-.16-14,0-.07,10.2,4.81.13.05,10.2-5.23ZM54.33,67l-.17-14.58L44,47.68l.16,13.81L54.33,67m10.15-5.9-.16-13.81-10,5.13L54.46,67l10-5.9"/><path class="cls-10" d="M54.46,67l-.17-14.58,10-5.13.16,13.81Zm.45-13.22L55,66l8.84-5.2-.14-12.44L55.3,52.65l-.4.21v1"/><path class="cls-10" d="M54.91,53.81v-1l.4-.21V53A1.06,1.06,0,0,1,54.91,53.81Z"/><polygon class="cls-6" points="54.52 67.51 52.81 67.46 52.66 67.16 54.37 67.22 54.52 67.51"/><polygon class="cls-6" points="54.41 67.86 52.7 67.8 52.53 67.78 54.24 67.83 54.41 67.86"/><polygon class="cls-6" points="54.24 67.83 52.53 67.78 52.39 67.73 54.1 67.79 54.24 67.83"/><polygon class="cls-10" points="54.7 51.4 54.61 43.89 55.2 44.12 55.28 51.1 54.7 51.4"/><polygon class="cls-6" points="55.19 42.62 53.47 42.56 52.88 42.32 54.59 42.38 55.19 42.62"/><polygon class="cls-6" points="54.59 42.38 52.88 42.32 52.71 27.46 54.42 27.52 54.59 42.38"/><polygon class="cls-6" points="54.59 42.38 52.88 42.32 52.65 42.23 54.36 42.29 54.59 42.38"/><polygon class="cls-6" points="64.41 46.95 62.7 46.9 52.44 42.82 54.15 42.88 64.41 46.95"/><polygon class="cls-6" points="64.44 47.11 62.72 47.05 52.41 42.97 54.13 43.02 64.44 47.11"/><polygon class="cls-6" points="54.36 42.29 52.65 42.23 52.41 42.18 54.12 42.24 54.36 42.29"/><polygon class="cls-11" points="54.05 42.9 52.34 42.84 52.44 42.82 54.15 42.88 54.05 42.9"/><polygon class="cls-9" points="53.87 43.81 52.16 43.75 52.42 43.64 54.13 43.7 53.87 43.81"/><polygon class="cls-10" points="53.87 43.81 54.13 43.7 54.61 43.89 54.7 51.4 54.22 51.64 53.96 51.52 53.87 43.81"/><polygon class="cls-9" points="53.85 42.35 52.14 42.29 52.41 42.18 54.12 42.24 53.85 42.35"/><g class="cls-2"><g class="cls-12"><g class="cls-2"><path class="cls-13" d="M54.42,27.52l-1.71-.06c0-.46-.08-.65-.25-.71l1.71.06c.17.06.26.25.25.71"/></g></g></g><polygon class="cls-10" points="53.37 51.24 53.28 44.07 53.87 43.81 53.96 51.52 53.37 51.24"/><polygon class="cls-9" points="53.28 44.07 51.57 44.01 52.16 43.75 53.87 43.81 53.28 44.07"/><polygon class="cls-9" points="53.27 42.6 51.55 42.55 52.14 42.29 53.85 42.35 53.27 42.6"/><polygon class="cls-6" points="53.85 42.35 52.14 42.29 51.98 28.09 53.69 28.14 53.85 42.35"/><polygon class="cls-6" points="53.27 42.6 51.55 42.55 51.4 29.09 53.11 29.14 53.27 42.6"/><polygon class="cls-6" points="54.37 67.22 52.66 67.16 42.34 61.48 44.05 61.54 54.37 67.22"/><polygon class="cls-9" points="43.92 47.47 42.2 47.41 52.41 42.97 54.13 43.02 43.92 47.47"/><polygon class="cls-9" points="43.92 47.31 42.21 47.26 52.34 42.84 54.05 42.9 43.92 47.31"/><polygon class="cls-14" points="43.89 47.55 42.18 47.49 42.2 47.42 43.91 47.48 43.89 47.55"/><polygon class="cls-6" points="44.05 61.54 42.34 61.48 42.18 47.49 43.89 47.55 44.05 61.54"/><path class="cls-10" d="M65,47.08v.13l.16,14a.7.7,0,0,1-.34.62l-10.26,6-.2,0-.17,0-.14,0L43.81,62.16a.69.69,0,0,1-.36-.61V58.26l-.12-10.67v-.12a.72.72,0,0,1,.41-.75l9.56-4.12.59-.25.26-.11.14,0,.11,0,.23.09.59.24,9.44,3.74A.69.69,0,0,1,65,47.08Zm-.45,14.16-.13-14,0-.08-10.2,5.2-.13-.05-10.2-4.81,0,.07.16,14,10.32,5.68.16.29-.08-.3,10.14-6M62.92,47.19,55.2,44.12l-.59-.24-.48-.19-.26.11-.59.26-7.86,3.43,7.94,3.74.6.28.26.12.47-.24.59-.3,7.63-3.91m-19,.12,0,.08,0,.07L54.12,43l10.31,4.08V47l0-.08L54.15,42.88l-.1,0L43.92,47.31"/><polygon class="cls-10" points="44.74 59.08 44.73 58.2 53.58 52.99 53.59 53.88 44.74 59.08"/><polygon class="cls-6" points="54.1 67.79 52.39 67.73 42.1 62.1 43.81 62.16 54.1 67.79"/><g class="cls-2"><g class="cls-15"><g class="cls-2"><path class="cls-13" d="M43.81,62.16,42.1,62.1a.69.69,0,0,1-.36-.61l1.71.06a.69.69,0,0,0,.36.61"/></g></g></g><polygon class="cls-10" points="54.13 43.02 43.92 47.47 43.89 47.4 43.92 47.31 54.05 42.9 54.15 42.88 64.41 46.95 64.45 47.04 64.44 47.11 54.13 43.02"/><polygon class="cls-6" points="43.92 47.47 42.2 47.41 42.18 47.34 43.89 47.4 43.92 47.47"/><polygon class="cls-16" points="43.89 47.4 42.18 47.34 42.21 47.26 43.92 47.31 43.89 47.4"/><polygon class="cls-6" points="43.45 61.55 41.74 61.49 41.73 60.5 43.44 60.55 43.45 61.55"/><polygon class="cls-6" points="43.44 60.55 41.73 60.5 41.72 59.8 43.43 59.85 43.44 60.55"/><polygon class="cls-6" points="43.43 59.85 41.72 59.8 41.71 58.91 43.42 58.97 43.43 59.85"/><polygon class="cls-6" points="43.42 58.97 41.71 58.91 41.7 58.2 43.41 58.26 43.42 58.97"/><polygon class="cls-9" points="43.7 46.72 41.99 46.66 51.55 42.55 53.27 42.6 43.7 46.72"/><polygon class="cls-6" points="43.41 58.26 41.7 58.2 41.58 47.53 43.29 47.59 43.41 58.26"/><polygon class="cls-6" points="43.29 47.59 41.58 47.53 41.59 47.41 43.3 47.47 43.29 47.59"/><g class="cls-2"><g class="cls-17"><g class="cls-2"><path class="cls-13" d="M43.3,47.47l-1.71-.06a.74.74,0,0,1,.21-.61l1.71.06a.74.74,0,0,0-.21.61"/><path class="cls-18" d="M43.51,46.86,41.8,46.8a.65.65,0,0,1,.18-.13l1.71.06a.65.65,0,0,0-.18.13"/><path class="cls-11" d="M43.69,46.73,42,46.67h0l1.71.06h0"/></g></g></g><polygon class="cls-8" points="36.02 64.22 34.3 64.16 41.72 59.8 43.43 59.85 36.02 64.22"/><polygon class="cls-8" points="36.2 63.23 34.49 63.17 41.71 58.91 43.42 58.97 36.2 63.23"/><polygon class="cls-8" points="36.78 62.16 35.07 62.1 41.7 58.2 43.41 58.26 36.78 62.16"/><polygon class="cls-6" points="36.09 64.53 34.38 64.47 34.3 64.16 36.02 64.22 36.09 64.53"/><polygon class="cls-6" points="36.09 64.53 34.38 64.47 34.23 64.2 35.94 64.25 36.09 64.53"/><polygon class="cls-11" points="35.76 64.26 34.05 64.2 34.23 64.2 35.94 64.25 35.76 64.26"/><polygon class="cls-6" points="35.85 64.91 34.14 64.85 33.91 64.82 35.62 64.87 35.85 64.91"/><polygon class="cls-6" points="35.62 64.87 33.91 64.82 33.69 64.74 35.4 64.8 35.62 64.87"/><polygon class="cls-9" points="35.9 37.26 34.19 37.2 51.98 28.09 53.69 28.14 35.9 37.26"/><polygon class="cls-6" points="36.2 63.23 34.49 63.17 34.19 37.2 35.9 37.26 36.2 63.23"/><polygon class="cls-10" points="36.2 63.23 35.9 37.26 53.69 28.14 53.85 42.35 53.27 42.6 53.11 29.14 36.5 37.65 36.78 62.16 43.41 58.26 43.42 58.97 36.2 63.23"/><polygon class="cls-9" points="35.53 36.59 33.82 36.53 51.8 27.32 53.51 27.37 35.53 36.59"/><polygon class="cls-9" points="35.52 35.9 33.81 35.84 50.29 27.4 52 27.45 35.52 35.9"/><polygon class="cls-6" points="35.53 36.59 33.82 36.53 33.69 36.47 35.4 36.53 35.53 36.59"/><polygon class="cls-6" points="35.47 63.24 33.76 63.18 33.46 37.21 35.17 37.27 35.47 63.24"/><polygon class="cls-6" points="54.17 26.81 52.46 26.75 33.76 19.32 35.47 19.38 54.17 26.81"/><polygon class="cls-6" points="52 27.45 50.29 27.4 33.64 20.78 35.35 20.84 52 27.45"/><polygon class="cls-6" points="53.51 27.37 51.8 27.32 33.63 20.11 35.34 20.17 53.51 27.37"/><g class="cls-2"><g class="cls-19"><g class="cls-2"><path class="cls-11" d="M35.1,18.77l-1.71-.06.21,0,1.71.06-.21,0"/></g></g></g><g class="cls-2"><g class="cls-20"><g class="cls-2"><path class="cls-11" d="M35.32,18.74l-1.71-.06h.06l1.71.06h-.06"/></g></g></g><polygon class="cls-6" points="34.86 62.2 33.15 62.14 32.87 37.63 34.58 37.68 34.86 62.2"/><polygon class="cls-11" points="35.17 19.39 33.46 19.34 33.62 19.31 35.33 19.36 35.17 19.39"/><polygon class="cls-11" points="34.95 18.81 33.24 18.76 33.39 18.71 35.1 18.77 34.95 18.81"/><polygon class="cls-6" points="35.47 63.24 33.76 63.18 15.75 53.34 17.46 53.4 35.47 63.24"/><polygon class="cls-6" points="35.17 37.27 33.46 37.21 15.47 28.72 17.18 28.78 35.17 37.27"/><polygon class="cls-6" points="34.58 37.68 32.87 37.63 16.07 29.7 17.78 29.76 34.58 37.68"/><polygon class="cls-6" points="35.76 64.26 34.05 64.2 15.22 53.93 16.93 53.98 35.76 64.26"/><g class="cls-2"><g class="cls-21"><g class="cls-2"><path class="cls-13" d="M16.93,54l-1.71-.06a.4.4,0,0,1-.2-.34l1.71.06a.4.4,0,0,0,.2.34"/></g></g></g><polygon class="cls-6" points="35.4 64.8 33.69 64.74 14.94 54.49 16.65 54.55 35.4 64.8"/><polygon class="cls-6" points="35.4 36.53 33.69 36.47 15.63 27.95 17.34 28 35.4 36.53"/><polygon class="cls-9" points="17.34 28 15.63 27.95 33.63 20.11 35.34 20.17 17.34 28"/><polygon class="cls-6" points="17.46 53.4 15.75 53.34 15.47 28.72 17.18 28.78 17.46 53.4"/><path class="cls-10" d="M54.39,27.26l.2,15.12-.23-.09-.25,0-.26.11-.16-14.21L35.9,37.26l.3,26L43.42,59v.88L36,64.22l.08.31-.15-.27h-.18L16.93,54a.4.4,0,0,1-.2-.34l-.29-25.46c0-.46.06-.65.23-.71l18.51-8.07.16,0,18.84,7.45A.37.37,0,0,1,54.39,27.26Zm-18.92,36-.3-26-18-8.49.28,24.62,18,9.84m.06-26.65,18-9.21L35.34,20.17,17.34,28,35.4,36.53l.13.06"/><path class="cls-10" d="M35.53,36.59l-.13-.06L17.34,28l18-7.84,18.17,7.21Zm-.18-15.75L18.85,28l16.67,7.86L52,27.45,35.35,20.84"/><path class="cls-10" d="M17.46,53.4l-.28-24.62,18,8.49.3,26Zm.32-23.64L18,53,34.86,62.2l-.28-24.51L17.78,29.76"/><g class="cls-2"><g class="cls-22"><g class="cls-2"><path class="cls-13" d="M16.65,54.55l-1.71-.06a1,1,0,0,1-.52-.89l1.71.06a1,1,0,0,0,.52.89"/></g></g></g><polygon class="cls-9" points="16.66 27.47 14.95 27.41 33.46 19.34 35.17 19.39 16.66 27.47"/><polygon class="cls-6" points="16.73 53.65 15.02 53.59 14.72 28.12 16.44 28.18 16.73 53.65"/><g class="cls-2"><g class="cls-23"><g class="cls-2"><path class="cls-13" d="M16.44,28.18l-1.71-.06c0-.36,0-.55.13-.65l1.71.06c-.1.1-.15.29-.13.65"/><path class="cls-18" d="M16.57,27.53l-1.71-.06.08-.05,1.71.06-.08.05"/><path class="cls-11" d="M16.64,27.48l-1.71-.06h0l1.71.06h0"/></g></g></g><polygon class="cls-9" points="16.44 26.88 14.73 26.82 33.24 18.76 34.95 18.81 16.44 26.88"/><polygon class="cls-6" points="16.14 53.66 14.43 53.6 14.13 28.14 15.84 28.19 16.14 53.66"/><polygon class="cls-7" points="15.84 28.19 14.13 28.14 14.16 27.93 15.87 27.98 15.84 28.19"/><path class="cls-10" d="M55,27.3l0,.21.17,15.11-.59-.24-.17-14.86c0-.46-.08-.65-.25-.71L35.47,19.38h-.3L16.66,27.47a.38.38,0,0,0-.21.45l.27,25.73a.4.4,0,0,0,.2.34L35.76,64.26h.18l.15.27L36,64.22l7.42-4.36v.7L36.1,64.86a1.24,1.24,0,0,1-.24,0l-.24,0-.21-.08L16.65,54.55a1,1,0,0,1-.52-.89l-.29-25.46,0-.21a1,1,0,0,1,.57-1.11L35,18.81l.15,0,.21,0,.2,0,.16,0,18.71,7.42A1,1,0,0,1,55,27.3Z"/><g class="cls-2"><g class="cls-24"><g class="cls-2"><path class="cls-13" d="M15.87,28l-1.71-.06a1.06,1.06,0,0,1,.29-.92l1.71.06a1.06,1.06,0,0,0-.29.92"/><path class="cls-18" d="M16.16,27.07,14.45,27a1,1,0,0,1,.26-.19l1.71.06a1,1,0,0,0-.26.19"/><path class="cls-11" d="M16.42,26.88l-1.71-.06h0l1.71.06h0"/></g></g></g></g></g></g></svg>