<svg xmlns="http://www.w3.org/2000/svg" viewBox="0 0 41.37 45.23"><defs><style>.cls-1{isolation:isolate;}.cls-2{fill:#182d0d;}.cls-3{fill:#194516;}.cls-4{fill:#1d5e1d;}</style></defs><title>Asset 4</title><g id="Layer_2" data-name="Layer 2"><g id="Layer_1-2" data-name="Layer 1"><g class="cls-1"><polygon class="cls-2" points="39.98 39.26 32.37 35.12 32.43 1.61 40.05 5.75 39.98 39.26"/><polygon class="cls-3" points="8.94 43.62 1.33 39.48 32.37 35.12 39.98 39.26 8.94 43.62"/><polygon class="cls-3" points="9 10.12 1.39 5.97 32.43 1.61 40.05 5.75 9 10.12"/><polygon class="cls-4" points="40.05 5.75 39.98 39.26 8.94 43.62 9 10.12 40.05 5.75"/><polygon class="cls-2" points="8.94 43.62 1.33 39.48 1.39 5.97 9 10.12 8.94 43.62"/><polygon class="cls-2" points="7.62 45.23 0 41.09 0.07 4.73 7.68 8.88 7.62 45.23"/><polygon class="cls-3" points="7.68 8.88 0.07 4.73 33.75 0 41.37 4.14 7.68 8.88"/><path class="cls-4" d="M7.68,8.88,41.37,4.14,41.3,40.5,7.61,45.23ZM40,39.26,40,5.75,9,10.12,8.94,43.62l31-4.36"/></g></g></g></svg>