<svg xmlns="http://www.w3.org/2000/svg" xmlns:xlink="http://www.w3.org/1999/xlink" viewBox="0 0 70.27 80.42"><defs><style>.cls-1{fill:none;}.cls-2{isolation:isolate;}.cls-3{fill:#69630e;}.cls-4{fill:#9f9d0f;}.cls-5{fill:#cbcf0a;}.cls-6{clip-path:url(#clip-path);}.cls-7{fill:#8f8f8f;}.cls-8{fill:#8a8a8a;}.cls-9{fill:#858585;}.cls-10{fill:gray;}.cls-11{clip-path:url(#clip-path-2);}.cls-12{clip-path:url(#clip-path-3);}.cls-13{clip-path:url(#clip-path-4);}.cls-14{clip-path:url(#clip-path-5);}.cls-15{clip-path:url(#clip-path-6);}.cls-16{clip-path:url(#clip-path-7);}.cls-17{clip-path:url(#clip-path-8);}.cls-18{clip-path:url(#clip-path-9);}.cls-19{clip-path:url(#clip-path-10);}.cls-20{clip-path:url(#clip-path-11);}.cls-21{clip-path:url(#clip-path-12);}.cls-22{clip-path:url(#clip-path-13);}.cls-23{clip-path:url(#clip-path-14);}.cls-24{clip-path:url(#clip-path-15);}.cls-25{clip-path:url(#clip-path-16);}.cls-26{clip-path:url(#clip-path-17);}.cls-27{clip-path:url(#clip-path-18);}.cls-28{clip-path:url(#clip-path-19);}.cls-29{clip-path:url(#clip-path-20);}.cls-30{fill:#898989;}.cls-31{clip-path:url(#clip-path-21);}.cls-32{clip-path:url(#clip-path-22);}.cls-33{clip-path:url(#clip-path-24);}.cls-34{clip-path:url(#clip-path-25);}.cls-35{clip-path:url(#clip-path-26);}.cls-36{clip-path:url(#clip-path-27);}.cls-37{clip-path:url(#clip-path-28);}.cls-38{clip-path:url(#clip-path-29);}.cls-39{clip-path:url(#clip-path-30);}.cls-40{clip-path:url(#clip-path-31);}.cls-41{clip-path:url(#clip-path-32);}.cls-42{clip-path:url(#clip-path-33);}.cls-43{clip-path:url(#clip-path-34);}.cls-44{clip-path:url(#clip-path-35);}.cls-45{clip-path:url(#clip-path-36);}.cls-46{clip-path:url(#clip-path-37);}.cls-47{clip-path:url(#clip-path-38);}.cls-48{clip-path:url(#clip-path-39);}.cls-49{clip-path:url(#clip-path-40);}.cls-50{clip-path:url(#clip-path-41);}.cls-51{clip-path:url(#clip-path-42);}.cls-52{clip-path:url(#clip-path-43);}.cls-53{clip-path:url(#clip-path-44);}.cls-54{clip-path:url(#clip-path-45);}.cls-55{clip-path:url(#clip-path-46);}.cls-56{clip-path:url(#clip-path-47);}.cls-57{clip-path:url(#clip-path-48);}.cls-58{clip-path:url(#clip-path-49);}.cls-59{clip-path:url(#clip-path-50);}.cls-60{clip-path:url(#clip-path-51);}.cls-61{clip-path:url(#clip-path-52);}.cls-62{clip-path:url(#clip-path-53);}.cls-63{clip-path:url(#clip-path-54);}.cls-64{clip-path:url(#clip-path-55);}.cls-65{clip-path:url(#clip-path-56);}.cls-66{clip-path:url(#clip-path-57);}.cls-67{clip-path:url(#clip-path-58);}.cls-68{clip-path:url(#clip-path-59);}.cls-69{clip-path:url(#clip-path-60);}.cls-70{clip-path:url(#clip-path-61);}.cls-71{clip-path:url(#clip-path-62);}.cls-72{clip-path:url(#clip-path-63);}.cls-73{clip-path:url(#clip-path-64);}.cls-74{fill:#ececec;}.cls-75{clip-path:url(#clip-path-65);}.cls-76{clip-path:url(#clip-path-66);}.cls-77{clip-path:url(#clip-path-67);}.cls-78{clip-path:url(#clip-path-68);}.cls-79{clip-path:url(#clip-path-69);}.cls-80{clip-path:url(#clip-path-70);}.cls-81{clip-path:url(#clip-path-71);}.cls-82{clip-path:url(#clip-path-72);}.cls-83{clip-path:url(#clip-path-73);}.cls-84{clip-path:url(#clip-path-74);}.cls-85{clip-path:url(#clip-path-75);}</style><clipPath id="clip-path"><path class="cls-1" d="M62,61.44l-1.71-.06a.56.56,0,0,0,.53-.59l1.71.06A.56.56,0,0,1,62,61.44Z"/></clipPath><clipPath id="clip-path-2"><path class="cls-1" d="M59.86,23.71l1.71.06a.56.56,0,0,1,.52.57l-1.71-.06A.56.56,0,0,0,59.86,23.71Z"/></clipPath><clipPath id="clip-path-3"><path class="cls-1" d="M59.86,23.71l1.71.06h0l-1.71-.06Z"/></clipPath><clipPath id="clip-path-4"><path class="cls-1" d="M59.88,23.22l1.71.06h0l-1.71-.06Z"/></clipPath><clipPath id="clip-path-5"><path class="cls-1" d="M58.32,48,56.61,48a.59.59,0,0,0,.14-.43l1.71.06A.59.59,0,0,1,58.32,48Z"/></clipPath><clipPath id="clip-path-6"><path class="cls-1" d="M58.46,47.61l-1.71-.06a.53.53,0,0,0-.18-.39l1.71.06A.53.53,0,0,1,58.46,47.61Z"/></clipPath><clipPath id="clip-path-7"><path class="cls-1" d="M57.92,48.23l-1.71-.06a.56.56,0,0,0,.4-.2l1.71.06A.56.56,0,0,1,57.92,48.23Z"/></clipPath><clipPath id="clip-path-8"><path class="cls-1" d="M57.9,48.23l-1.71-.06h0l1.71.06Z"/></clipPath><clipPath id="clip-path-9"><path class="cls-1" d="M56.2,48.17a.56.56,0,0,1-.36-.15l1.71.06a.56.56,0,0,0,.36.15Z"/></clipPath><clipPath id="clip-path-10"><path class="cls-1" d="M57.88,48.73l-1.71-.06a1,1,0,0,1-.64-.27l1.71.06A1,1,0,0,0,57.88,48.73Z"/></clipPath><clipPath id="clip-path-11"><path class="cls-1" d="M46.75,38.05l1.71.06a.56.56,0,0,1,.36.14l-1.71-.06A.56.56,0,0,0,46.75,38.05Z"/></clipPath><clipPath id="clip-path-12"><path class="cls-1" d="M46.75,38.05l1.71.06h0l-1.71-.06Z"/></clipPath><clipPath id="clip-path-13"><path class="cls-1" d="M47.7,38,46,37.91a1,1,0,0,1,.7-.36l1.71.06A1,1,0,0,0,47.7,38Z"/></clipPath><clipPath id="clip-path-14"><path class="cls-1" d="M46.75,37.55l1.71.06H48.4l-1.71-.06Z"/></clipPath><clipPath id="clip-path-15"><path class="cls-1" d="M46.34,38.24a.52.52,0,0,1,.37-.19l1.51.05h.2a.52.52,0,0,0-.37.19Z"/></clipPath><clipPath id="clip-path-16"><path class="cls-1" d="M45.09,53.24l-1.71-.06a.56.56,0,0,0,.16-.41.57.57,0,0,0-.17-.41l1.71.06a.57.57,0,0,1,.17.41A.56.56,0,0,1,45.09,53.24Z"/></clipPath><clipPath id="clip-path-17"><path class="cls-1" d="M44.72,53.42,43,53.37a.51.51,0,0,0,.38-.18l1.71.06A.51.51,0,0,1,44.72,53.42Z"/></clipPath><clipPath id="clip-path-18"><path class="cls-1" d="M44.69,53.42,43,53.37h0l1.71.06Z"/></clipPath><clipPath id="clip-path-19"><path class="cls-1" d="M44.69,53.42,43,53.37a.55.55,0,0,1-.37-.17l1.71.06A.55.55,0,0,0,44.69,53.42Z"/></clipPath><clipPath id="clip-path-20"><path class="cls-1" d="M44.67,53.92,43,53.86a1,1,0,0,1-.67-.3l1.71.06A1,1,0,0,0,44.67,53.92Z"/></clipPath><clipPath id="clip-path-21"><path class="cls-1" d="M34.36,43.26l1.71.06a.54.54,0,0,1,.36.16l-1.71-.06A.54.54,0,0,0,34.36,43.26Z"/></clipPath><clipPath id="clip-path-22"><path class="cls-1" d="M34.34,43.26h0l1.71.06h0Z"/></clipPath><clipPath id="clip-path-24"><path class="cls-1" d="M35.38,43.1,33.67,43a1,1,0,0,1,.67-.28l1.71.06A1,1,0,0,0,35.38,43.1Z"/></clipPath><clipPath id="clip-path-25"><path class="cls-1" d="M34.38,42.76l1.71.06h0l-1.71-.06Z"/></clipPath><clipPath id="clip-path-26"><path class="cls-1" d="M34,43.41a.59.59,0,0,1,.36-.15l1.71.06a.59.59,0,0,0-.36.15Z"/></clipPath><clipPath id="clip-path-27"><path class="cls-1" d="M31,38.2a3.44,3.44,0,0,0,0-.48l1.71.06a3.44,3.44,0,0,1,0,.48Z"/></clipPath><clipPath id="clip-path-28"><path class="cls-1" d="M31.1,34.86l1.71.06a4.51,4.51,0,0,1,1,2.83,4.55,4.55,0,0,1-1,2.87l-1.71-.06a4.55,4.55,0,0,0,1-2.87A4.51,4.51,0,0,0,31.1,34.86Z"/></clipPath><clipPath id="clip-path-29"><path class="cls-1" d="M31,37.72a3.39,3.39,0,0,0-.15-1l1.71.06a3.39,3.39,0,0,1,.15,1Z"/></clipPath><clipPath id="clip-path-30"><path class="cls-1" d="M31.16,40.57l1.71.06a4.32,4.32,0,0,1-.42.46L30.74,41A4.32,4.32,0,0,0,31.16,40.57Z"/></clipPath><clipPath id="clip-path-31"><path class="cls-1" d="M30.76,36.39l1.71.06a3.3,3.3,0,0,1,.13.36l-1.71-.06A3.3,3.3,0,0,0,30.76,36.39Z"/></clipPath><clipPath id="clip-path-32"><path class="cls-1" d="M30.67,34.41l1.71.06a4.24,4.24,0,0,1,.43.45l-1.71-.06A4.24,4.24,0,0,0,30.67,34.41Z"/></clipPath><clipPath id="clip-path-33"><path class="cls-1" d="M30.79,39.05l1.71.06a3.26,3.26,0,0,1-.57.92L30.21,40A3.26,3.26,0,0,0,30.79,39.05Z"/></clipPath><clipPath id="clip-path-34"><path class="cls-1" d="M30.76,36.39a3.2,3.2,0,0,0-.65-1l1.71.06a3.2,3.2,0,0,1,.65,1Z"/></clipPath><clipPath id="clip-path-35"><path class="cls-1" d="M29.44,40.6a3.08,3.08,0,0,0,.78-.63l1.71.06a3.08,3.08,0,0,1-.78.63Z"/></clipPath><clipPath id="clip-path-36"><path class="cls-1" d="M29.31,40.67l.13-.07,1.71.06-.13.07Z"/></clipPath><clipPath id="clip-path-37"><path class="cls-1" d="M30.74,41l1.71.06A4.06,4.06,0,0,1,31,42l-1.71-.06A4.06,4.06,0,0,0,30.74,41Z"/></clipPath><clipPath id="clip-path-38"><path class="cls-1" d="M30.1,35.43a3,3,0,0,0-.64-.49l1.71.06a3,3,0,0,1,.64.49H30.3A.61.61,0,0,1,30.1,35.43Z"/></clipPath><clipPath id="clip-path-39"><path class="cls-1" d="M29.15,42l.1,0L31,42l-.1,0Z"/></clipPath><clipPath id="clip-path-40"><path class="cls-1" d="M29.24,34.82l1.71.06.22.12-1.71-.06Z"/></clipPath><clipPath id="clip-path-41"><path class="cls-1" d="M28.07,42.14A3.87,3.87,0,0,0,29.15,42l1.71.06a3.87,3.87,0,0,1-1.08.17Z"/></clipPath><clipPath id="clip-path-42"><path class="cls-1" d="M29.31,40.67h.46l1.25,0a2.86,2.86,0,0,1-1.25.31L28.06,41A2.86,2.86,0,0,0,29.31,40.67Z"/></clipPath><clipPath id="clip-path-43"><path class="cls-1" d="M30.67,34.41a3.93,3.93,0,0,0-2.5-1l1.71.06a3.93,3.93,0,0,1,2.5,1l-.77,0-.47,0h-.36A.36.36,0,0,1,30.67,34.41Z"/></clipPath><clipPath id="clip-path-44"><path class="cls-1" d="M29.24,34.82a2.84,2.84,0,0,0-1.11-.27l1.71.06a2.84,2.84,0,0,1,1.11.27l-.77,0h-.71A1.11,1.11,0,0,1,29.24,34.82Z"/></clipPath><clipPath id="clip-path-45"><path class="cls-1" d="M28.12,35.06l1.71.06a2.62,2.62,0,0,1,2.45,2.66,2.65,2.65,0,0,1-2.51,2.75l-1.71-.06a2.65,2.65,0,0,0,2.51-2.75A2.62,2.62,0,0,0,28.12,35.06Z"/></clipPath><clipPath id="clip-path-46"><path class="cls-1" d="M29.64,40.53l-1.71-.06h.12l1.71.06Z"/></clipPath><clipPath id="clip-path-47"><path class="cls-1" d="M27.91,41h.15l1.71.06h-.15Z"/></clipPath><clipPath id="clip-path-48"><path class="cls-1" d="M27.87,42.14h.2l1.71.06h-.2Z"/></clipPath><clipPath id="clip-path-49"><path class="cls-1" d="M29.62,41,27.91,41A3.11,3.11,0,0,1,25,37.82a3.14,3.14,0,0,1,3-3.27l1.71.06a3.14,3.14,0,0,0-3,3.27A3.11,3.11,0,0,0,29.62,41Z"/></clipPath><clipPath id="clip-path-50"><path class="cls-1" d="M28.13,34.56l1.71.06H29.7L28,34.56Z"/></clipPath><clipPath id="clip-path-51"><path class="cls-1" d="M25.3,34.51A4,4,0,0,1,28,33.39l1.71.06A4,4,0,0,0,27,34.57Z"/></clipPath><clipPath id="clip-path-52"><path class="cls-1" d="M28,33.39h.2l1.71.06h-.2Z"/></clipPath><clipPath id="clip-path-53"><path class="cls-1" d="M25.37,41.12l1.71.06.21.17-1.71-.06Z"/></clipPath><clipPath id="clip-path-54"><path class="cls-1" d="M25.37,41.12l-.22-.21,1.71.06.22.21-.94,0h-.64A.38.38,0,0,1,25.37,41.12Z"/></clipPath><clipPath id="clip-path-55"><path class="cls-1" d="M25,40.68l1.71.06.2.23-1.71-.06Z"/></clipPath><clipPath id="clip-path-56"><path class="cls-1" d="M25.3,34.51l1.71.06-.2.2-1.71-.06Z"/></clipPath><clipPath id="clip-path-57"><path class="cls-1" d="M25,40.68l-.14-.18,1.71.06.14.18Z"/></clipPath><clipPath id="clip-path-58"><path class="cls-1" d="M24.89,35l.21-.25,1.71.06L26.6,35Z"/></clipPath><clipPath id="clip-path-59"><path class="cls-1" d="M24.89,35,26.6,35l-.09.11-1.71-.06Z"/></clipPath><clipPath id="clip-path-60"><path class="cls-1" d="M24.81,40.5a4.44,4.44,0,0,1-.71-1.42l1.71.06a4.44,4.44,0,0,0,.71,1.42Z"/></clipPath><clipPath id="clip-path-61"><path class="cls-1" d="M23.91,37.84a4.55,4.55,0,0,1,.89-2.77l1.71.06a4.55,4.55,0,0,0-.89,2.77Z"/></clipPath><clipPath id="clip-path-62"><path class="cls-1" d="M29.57,42.69l-1.71-.06a4.72,4.72,0,0,1-4.41-4.79A4.77,4.77,0,0,1,28,32.9l1.71.06a4.77,4.77,0,0,0-4.52,4.95A4.72,4.72,0,0,0,29.57,42.69Z"/></clipPath><clipPath id="clip-path-63"><path class="cls-1" d="M28.19,32.9,29.9,33h-.22L28,32.9Z"/></clipPath><clipPath id="clip-path-64"><path class="cls-1" d="M27.87,42.14a3.92,3.92,0,0,1-2.29-.85l1.71.06a3.92,3.92,0,0,0,2.29.85Z"/></clipPath><clipPath id="clip-path-65"><path class="cls-1" d="M22.93,57.13l-1.71-.06a.55.55,0,0,0,.37-.15L23.3,57A.55.55,0,0,1,22.93,57.13Z"/></clipPath><clipPath id="clip-path-66"><path class="cls-1" d="M22.9,57.13l-1.71-.06h0l1.71.06Z"/></clipPath><clipPath id="clip-path-67"><path class="cls-1" d="M22.9,57.13l-1.71-.06a.5.5,0,0,1-.37-.18l1.71.06A.5.5,0,0,0,22.9,57.13Z"/></clipPath><clipPath id="clip-path-68"><path class="cls-1" d="M22.39,56.53l-1.71-.06a.57.57,0,0,1,.17-.4l1.71.06A.57.57,0,0,0,22.39,56.53Z"/></clipPath><clipPath id="clip-path-69"><path class="cls-1" d="M22.53,57l-1.71-.06a.55.55,0,0,1-.14-.42l1.71.06A.55.55,0,0,0,22.53,57Z"/></clipPath><clipPath id="clip-path-70"><path class="cls-1" d="M22.89,57.64l-1.71-.06a1,1,0,0,1-.72-.36,1.12,1.12,0,0,1,.08-1.52l1.71.06a1.12,1.12,0,0,0-.08,1.52A1,1,0,0,0,22.89,57.64Z"/></clipPath><clipPath id="clip-path-71"><path class="cls-1" d="M18.29,62.2l-1.71-.06a.56.56,0,0,1-.53-.58l1.71.06A.56.56,0,0,0,18.29,62.2Z"/></clipPath><clipPath id="clip-path-72"><path class="cls-1" d="M18.29,62.2l-1.71-.06h0l1.71.06Z"/></clipPath><clipPath id="clip-path-73"><path class="cls-1" d="M18.27,62.69l-1.71-.06a1,1,0,0,1-1-1.06l1.71.06A1,1,0,0,0,18.27,62.69Z"/></clipPath><clipPath id="clip-path-74"><path class="cls-1" d="M17.34,25.12l-1.71-.06a.57.57,0,0,1,.54-.59l1.71.06A.57.57,0,0,0,17.34,25.12Z"/></clipPath><clipPath id="clip-path-75"><path class="cls-1" d="M16.88,25.13l-1.71-.06a1.05,1.05,0,0,1,1-1.09l1.71.06A1.05,1.05,0,0,0,16.88,25.13Z"/></clipPath></defs><title>Asset 16</title><g id="Layer_2" data-name="Layer 2"><g id="Layer_1-2" data-name="Layer 1"><g class="cls-2"><polygon class="cls-3" points="68.82 70.39 61.21 66.25 61.33 1.61 68.94 5.75 68.82 70.39"/><polygon class="cls-4" points="8.94 78.8 1.33 74.66 61.21 66.25 68.82 70.39 8.94 78.8"/><polygon class="cls-4" points="9.06 14.17 1.45 10.03 61.33 1.61 68.94 5.75 9.06 14.17"/><polygon class="cls-3" points="8.94 78.8 1.33 74.66 1.45 10.03 9.06 14.17 8.94 78.8"/><path class="cls-5" d="M7.74,12.93,70.27,4.14l-.13,67.49L7.61,80.42ZM68.82,70.39l.12-64.64L9.06,14.17,8.94,78.8l59.88-8.42"/><polygon class="cls-5" points="68.94 5.75 68.82 70.39 8.94 78.8 9.06 14.17 68.94 5.75"/><polygon class="cls-3" points="7.62 80.42 0 76.27 0.13 8.79 7.74 12.93 7.62 80.42"/><polygon class="cls-4" points="7.74 12.93 0.13 8.79 62.65 0 70.27 4.14 7.74 12.93"/></g><g class="cls-2"><g class="cls-2"><g class="cls-6"><g class="cls-2"><path class="cls-7" d="M62,61.44l-1.71-.06a.51.51,0,0,0,.21,0l1.71.06a.51.51,0,0,1-.21,0"/><path class="cls-8" d="M62.19,61.39l-1.71-.06a.53.53,0,0,0,.15-.1l1.71.06a.53.53,0,0,1-.15.1"/><path class="cls-9" d="M62.33,61.28l-1.71-.06a.61.61,0,0,0,.18-.44l1.71.06a.61.61,0,0,1-.18.44"/></g></g></g><polygon class="cls-10" points="62.51 60.84 60.8 60.78 60.38 24.28 62.09 24.34 62.51 60.84"/><g class="cls-2"><g class="cls-11"><g class="cls-2"><path class="cls-9" d="M62.09,24.34l-1.71-.06a.56.56,0,0,0-.52-.57l1.71.06a.56.56,0,0,1,.52.57"/></g></g></g><g class="cls-2"><g class="cls-12"><g class="cls-2"><path class="cls-7" d="M61.54,23.77l-1.71-.06h0l1.71.06h0"/></g></g></g><g class="cls-2"><g class="cls-13"><g class="cls-2"><path class="cls-7" d="M61.54,23.28l-1.71-.06h0l1.71.06h0"/></g></g></g><polygon class="cls-10" points="61.42 60.28 59.71 60.23 59.3 24.88 61.02 24.94 61.42 60.28"/><polygon class="cls-10" points="60.94 59.79 59.23 59.73 58.84 25.39 60.55 25.44 60.94 59.79"/><g class="cls-2"><g class="cls-14"><g class="cls-2"><path class="cls-9" d="M58.32,48,56.61,48a.59.59,0,0,0,.14-.43l1.71.06a.59.59,0,0,1-.14.43"/></g></g></g><g class="cls-2"><g class="cls-15"><g class="cls-2"><path class="cls-9" d="M58.46,47.61l-1.71-.06a.53.53,0,0,0-.18-.39l1.71.06a.53.53,0,0,1,.18.39"/></g></g></g><g class="cls-2"><g class="cls-16"><g class="cls-2"><path class="cls-7" d="M57.92,48.23l-1.71-.06a.61.61,0,0,0,.22-.06l1.71.06a.61.61,0,0,1-.22.06"/><path class="cls-8" d="M58.14,48.18l-1.71-.06a.54.54,0,0,0,.15-.1l1.71.06a.54.54,0,0,1-.15.1"/><path class="cls-9" d="M58.28,48.08,56.57,48l0,0,1.71.06,0,0"/></g></g></g><g class="cls-2"><g class="cls-17"><g class="cls-2"><path class="cls-7" d="M57.9,48.23l-1.71-.06h0l1.71.06h0"/></g></g></g><g class="cls-2"><g class="cls-18"><g class="cls-2"><path class="cls-9" d="M57.91,48.23l-1.71-.06a.56.56,0,0,1-.36-.15l1.71.06a.56.56,0,0,0,.36.15"/></g></g></g><g class="cls-2"><g class="cls-19"><g class="cls-2"><path class="cls-9" d="M57.88,48.73l-1.71-.06a1,1,0,0,1-.64-.27l1.71.06a1,1,0,0,0,.64.27"/></g></g></g><polygon class="cls-10" points="58.28 47.22 56.57 47.16 47.11 38.19 48.82 38.25 58.28 47.22"/><polygon class="cls-10" points="57.55 48.09 55.84 48.03 46.79 39.45 48.51 39.51 57.55 48.09"/><polygon class="cls-10" points="57.24 48.46 55.53 48.4 46.83 40.16 48.54 40.22 57.24 48.46"/><g class="cls-2"><g class="cls-20"><g class="cls-2"><path class="cls-9" d="M48.82,38.25l-1.71-.06a.56.56,0,0,0-.36-.14l1.71.06a.56.56,0,0,1,.36.14"/></g></g></g><g class="cls-2"><g class="cls-21"><g class="cls-2"><path class="cls-7" d="M48.42,38.11l-1.71-.06h0l1.71.06h0"/></g></g></g><g class="cls-2"><g class="cls-22"><g class="cls-2"><path class="cls-9" d="M47.7,38,46,37.91l.07-.08,1.71.06L47.7,38"/><path class="cls-8" d="M47.78,37.89l-1.71-.06a1,1,0,0,1,.28-.19l1.71.06a1,1,0,0,0-.28.19"/><path class="cls-7" d="M48.05,37.69l-1.71-.06a.92.92,0,0,1,.35-.09l1.71.06a.92.92,0,0,0-.35.09"/></g></g></g><g class="cls-2"><g class="cls-23"><g class="cls-2"><path class="cls-7" d="M48.4,37.61l-1.71-.06h.06l1.71.06H48.4"/></g></g></g><g class="cls-2"><g class="cls-24"><g class="cls-2"><path class="cls-9" d="M48.05,38.3l-1.71-.06,0,0,1.71.06,0,0"/><path class="cls-8" d="M48.08,38.27l-1.71-.06a.59.59,0,0,1,.16-.11l1.71.06a.59.59,0,0,0-.16.11"/><path class="cls-7" d="M48.24,38.15l-1.71-.06a.44.44,0,0,1,.18,0l1.71.06a.44.44,0,0,0-.18,0"/></g></g></g><g class="cls-2"><g class="cls-25"><g class="cls-2"><path class="cls-9" d="M45.09,53.24l-1.71-.06a.56.56,0,0,0,.16-.41.57.57,0,0,0-.17-.41l1.71.06a.57.57,0,0,1,.17.41.56.56,0,0,1-.16.41"/></g></g></g><g class="cls-2"><g class="cls-26"><g class="cls-2"><path class="cls-7" d="M44.72,53.42,43,53.37a.5.5,0,0,0,.2,0l1.71.06a.5.5,0,0,1-.2,0"/><path class="cls-8" d="M44.92,53.38l-1.71-.06a.52.52,0,0,0,.14-.1l1.71.06a.52.52,0,0,1-.14.1"/><path class="cls-9" d="M45.06,53.27l-1.71-.06,0,0,1.71.06,0,0"/></g></g></g><g class="cls-2"><g class="cls-27"><g class="cls-2"><path class="cls-7" d="M44.69,53.42,43,53.37h0l1.71.06h0"/></g></g></g><g class="cls-2"><g class="cls-28"><g class="cls-2"><path class="cls-9" d="M44.69,53.42,43,53.37a.55.55,0,0,1-.37-.17l1.71.06a.55.55,0,0,0,.37.17"/></g></g></g><g class="cls-2"><g class="cls-29"><g class="cls-2"><path class="cls-9" d="M44.67,53.92,43,53.86a1,1,0,0,1-.67-.3l1.71.06a1,1,0,0,0,.67.3"/></g></g></g><polygon class="cls-30" points="41.14 48.34 39.43 48.28 46.79 39.45 48.51 39.51 41.14 48.34"/><polygon class="cls-10" points="45.08 52.42 43.37 52.37 39.43 48.28 41.14 48.34 45.08 52.42"/><polygon class="cls-30" points="40.35 47.53 38.64 47.47 46.34 38.24 48.05 38.3 40.35 47.53"/><polygon class="cls-30" points="40.33 46.81 38.62 46.75 45.99 37.91 47.7 37.97 40.33 46.81"/><polygon class="cls-10" points="40.35 47.53 38.64 47.47 34.72 43.42 36.43 43.48 40.35 47.53"/><polygon class="cls-10" points="44.32 53.26 42.61 53.2 34.33 44.63 36.04 44.69 44.32 53.26"/><polygon class="cls-10" points="44 53.62 42.29 53.57 34.32 45.32 36.03 45.38 44 53.62"/><g class="cls-2"><g class="cls-31"><g class="cls-2"><path class="cls-9" d="M36.43,43.48l-1.71-.06a.54.54,0,0,0-.36-.16l1.71.06a.54.54,0,0,1,.36.16"/></g></g></g><g class="cls-2"><g class="cls-32"><g class="cls-2"><path class="cls-7" d="M35.84,43.36l-1.71-.06a.51.51,0,0,1,.21-.05l1.71.06a.51.51,0,0,0-.21.05"/></g></g></g><g class="cls-2"><g class="cls-32"><g class="cls-2"><path class="cls-7" d="M36,43.31l-1.71-.06h0l1.71.06h0"/></g></g></g><g class="cls-2"><g class="cls-33"><g class="cls-2"><path class="cls-8" d="M35.38,43.1,33.67,43a1,1,0,0,1,.27-.19l1.71.06a1,1,0,0,0-.27.19"/><path class="cls-7" d="M35.65,42.91l-1.71-.06a1,1,0,0,1,.39-.09l1.71.06a1,1,0,0,0-.39.09"/></g></g></g><g class="cls-2"><g class="cls-34"><g class="cls-2"><path class="cls-7" d="M36,42.82l-1.71-.06h0l1.71.06h0"/></g></g></g><g class="cls-2"><g class="cls-35"><g class="cls-2"><path class="cls-8" d="M35.69,43.46,34,43.41l.15-.1,1.71.06-.15.1"/><path class="cls-7" d="M35.84,43.36l-1.71-.06a.51.51,0,0,1,.21-.05l1.71.06a.51.51,0,0,0-.21.05"/></g></g></g><g class="cls-2"><g class="cls-36"><g class="cls-2"><path class="cls-9" d="M31.78,40.18l-1.71-.06a3.32,3.32,0,0,0,1-2.41,3.11,3.11,0,0,0-2.91-3.16l1.71.06a3.11,3.11,0,0,1,2.91,3.16,3.32,3.32,0,0,1-1,2.41"/></g></g></g><g class="cls-2"><g class="cls-37"><g class="cls-2"><path class="cls-9" d="M32.51,41,30.8,41a4.52,4.52,0,0,0,1.33-3.28,4.23,4.23,0,0,0-4-4.3l1.71.06a4.23,4.23,0,0,1,4,4.3A4.52,4.52,0,0,1,32.51,41"/></g></g></g><g class="cls-2"><g class="cls-38"><g class="cls-2"><path class="cls-9" d="M31.78,40.18l-1.71-.06a3.32,3.32,0,0,0,1-2.41,3.11,3.11,0,0,0-2.91-3.16l1.71.06a3.11,3.11,0,0,1,2.91,3.16,3.32,3.32,0,0,1-1,2.41"/></g></g></g><g class="cls-2"><g class="cls-39"><g class="cls-2"><path class="cls-8" d="M31.38,41.82l-1.71-.06A4.12,4.12,0,0,0,30.8,41l1.71.06a4.12,4.12,0,0,1-1.13.79"/><path class="cls-9" d="M32.51,41,30.8,41a4.52,4.52,0,0,0,1.33-3.28,4.23,4.23,0,0,0-4-4.3l1.71.06a4.23,4.23,0,0,1,4,4.3A4.52,4.52,0,0,1,32.51,41"/></g></g></g><g class="cls-2"><g class="cls-40"><g class="cls-2"><path class="cls-9" d="M31.78,40.18l-1.71-.06a3.32,3.32,0,0,0,1-2.41,3.11,3.11,0,0,0-2.91-3.16l1.71.06a3.11,3.11,0,0,1,2.91,3.16,3.32,3.32,0,0,1-1,2.41"/></g></g></g><g class="cls-2"><g class="cls-41"><g class="cls-2"><path class="cls-9" d="M32.51,41,30.8,41a4.52,4.52,0,0,0,1.33-3.28,4.23,4.23,0,0,0-4-4.3l1.71.06a4.23,4.23,0,0,1,4,4.3A4.52,4.52,0,0,1,32.51,41"/></g></g></g><g class="cls-2"><g class="cls-42"><g class="cls-2"><path class="cls-9" d="M31.78,40.18l-1.71-.06a3.32,3.32,0,0,0,1-2.41,3.11,3.11,0,0,0-2.91-3.16l1.71.06a3.11,3.11,0,0,1,2.91,3.16,3.32,3.32,0,0,1-1,2.41"/></g></g></g><g class="cls-2"><g class="cls-43"><g class="cls-2"><path class="cls-9" d="M31.78,40.18l-1.71-.06a3.32,3.32,0,0,0,1-2.41,3.11,3.11,0,0,0-2.91-3.16l1.71.06a3.11,3.11,0,0,1,2.91,3.16,3.32,3.32,0,0,1-1,2.41"/></g></g></g><g class="cls-2"><g class="cls-44"><g class="cls-2"><path class="cls-8" d="M30.95,40.76l-1.71-.06a3,3,0,0,0,.83-.58l1.71.06a3,3,0,0,1-.83.58"/><path class="cls-9" d="M31.78,40.18l-1.71-.06a3.32,3.32,0,0,0,1-2.41,3.11,3.11,0,0,0-2.91-3.16l1.71.06a3.11,3.11,0,0,1,2.91,3.16,3.32,3.32,0,0,1-1,2.41"/></g></g></g><g class="cls-2"><g class="cls-45"><g class="cls-2"><path class="cls-8" d="M30.95,40.76l-1.71-.06a3,3,0,0,0,.83-.58l1.71.06a3,3,0,0,1-.83.58"/></g></g></g><g class="cls-2"><g class="cls-46"><g class="cls-2"><path class="cls-7" d="M29.78,42.2l-1.71-.06a3.88,3.88,0,0,0,1.6-.37l1.71.06a3.88,3.88,0,0,1-1.6.37"/><path class="cls-8" d="M31.38,41.82l-1.71-.06A4.12,4.12,0,0,0,30.8,41l1.71.06a4.12,4.12,0,0,1-1.13.79"/></g></g></g><g class="cls-2"><g class="cls-47"><g class="cls-2"><path class="cls-9" d="M31.78,40.18l-1.71-.06a3.32,3.32,0,0,0,1-2.41,3.11,3.11,0,0,0-2.91-3.16l1.71.06a3.11,3.11,0,0,1,2.91,3.16,3.32,3.32,0,0,1-1,2.41"/></g></g></g><g class="cls-2"><g class="cls-48"><g class="cls-2"><path class="cls-7" d="M29.78,42.2l-1.71-.06a3.88,3.88,0,0,0,1.6-.37l1.71.06a3.88,3.88,0,0,1-1.6.37"/></g></g></g><g class="cls-2"><g class="cls-49"><g class="cls-2"><path class="cls-9" d="M31.78,40.18l-1.71-.06a3.32,3.32,0,0,0,1-2.41,3.11,3.11,0,0,0-2.91-3.16l1.71.06a3.11,3.11,0,0,1,2.91,3.16,3.32,3.32,0,0,1-1,2.41"/></g></g></g><g class="cls-2"><g class="cls-50"><g class="cls-2"><path class="cls-7" d="M29.78,42.2l-1.71-.06a3.88,3.88,0,0,0,1.6-.37l1.71.06a3.88,3.88,0,0,1-1.6.37"/></g></g></g><g class="cls-2"><g class="cls-51"><g class="cls-2"><path class="cls-7" d="M29.77,41,28.06,41a2.86,2.86,0,0,0,1.18-.28l1.71.06a2.86,2.86,0,0,1-1.18.28"/><path class="cls-8" d="M30.95,40.76l-1.71-.06a3,3,0,0,0,.83-.58l1.71.06a3,3,0,0,1-.83.58"/></g></g></g><g class="cls-2"><g class="cls-52"><g class="cls-2"><path class="cls-9" d="M32.51,41,30.8,41a4.52,4.52,0,0,0,1.33-3.28,4.23,4.23,0,0,0-4-4.3l1.71.06a4.23,4.23,0,0,1,4,4.3A4.52,4.52,0,0,1,32.51,41"/></g></g></g><g class="cls-2"><g class="cls-53"><g class="cls-2"><path class="cls-9" d="M31.78,40.18l-1.71-.06a3.32,3.32,0,0,0,1-2.41,3.11,3.11,0,0,0-2.91-3.16l1.71.06a3.11,3.11,0,0,1,2.91,3.16,3.32,3.32,0,0,1-1,2.41"/></g></g></g><g class="cls-2"><g class="cls-54"><g class="cls-2"><path class="cls-7" d="M29.77,40.53l-1.71-.06a2.41,2.41,0,0,0,1-.23l1.71.06a2.41,2.41,0,0,1-1,.23"/><path class="cls-8" d="M30.76,40.3,29,40.24a2.56,2.56,0,0,0,.7-.49l1.71.06a2.56,2.56,0,0,1-.7.49"/><path class="cls-9" d="M31.46,39.81l-1.71-.06a2.8,2.8,0,0,0,.82-2,2.62,2.62,0,0,0-2.45-2.66l1.71.06a2.62,2.62,0,0,1,2.45,2.66,2.8,2.8,0,0,1-.82,2"/></g></g></g><g class="cls-2"><g class="cls-55"><g class="cls-2"><path class="cls-7" d="M29.64,40.53l-1.71-.06h.12l1.71.06h-.12"/></g></g></g><g class="cls-2"><g class="cls-56"><g class="cls-2"><path class="cls-7" d="M29.62,41,27.91,41h.15l1.71.06h-.15"/></g></g></g><g class="cls-2"><g class="cls-57"><g class="cls-2"><path class="cls-7" d="M29.59,42.2l-1.71-.06h.2l1.71.06h-.2"/></g></g></g><g class="cls-2"><g class="cls-58"><g class="cls-2"><path class="cls-9" d="M29.62,41,27.91,41A3.11,3.11,0,0,1,25,37.82a3.32,3.32,0,0,1,1-2.41l1.71.06a3.32,3.32,0,0,0-1,2.41A3.11,3.11,0,0,0,29.62,41"/><path class="cls-8" d="M27.69,35.47,26,35.41a3,3,0,0,1,.83-.58l1.71.06a3,3,0,0,0-.83.58"/><path class="cls-7" d="M28.52,34.89l-1.71-.06A2.86,2.86,0,0,1,28,34.56l1.71.06a2.86,2.86,0,0,0-1.18.28"/></g></g></g><g class="cls-2"><g class="cls-59"><g class="cls-2"><path class="cls-7" d="M29.7,34.61,28,34.56h.15l1.71.06H29.7"/></g></g></g><g class="cls-2"><g class="cls-60"><g class="cls-2"><path class="cls-8" d="M27,34.62l-1.71-.06a4.13,4.13,0,0,1,1.13-.79l1.71.06a4.13,4.13,0,0,0-1.13.79"/><path class="cls-7" d="M28.08,33.83l-1.71-.06a3.89,3.89,0,0,1,1.6-.38l1.71.06a3.89,3.89,0,0,0-1.6.38"/></g></g></g><g class="cls-2"><g class="cls-61"><g class="cls-2"><path class="cls-7" d="M29.68,33.45,28,33.39h.2l1.71.06h-.2"/></g></g></g><g class="cls-2"><g class="cls-62"><g class="cls-2"><path class="cls-9" d="M29.59,42.2l-1.71-.06a4.24,4.24,0,0,1-4-4.3,4.52,4.52,0,0,1,1.33-3.28l1.71.06a4.52,4.52,0,0,0-1.33,3.28,4.24,4.24,0,0,0,4,4.3"/></g></g></g><g class="cls-2"><g class="cls-63"><g class="cls-2"><path class="cls-9" d="M29.59,42.2l-1.71-.06a4.24,4.24,0,0,1-4-4.3,4.52,4.52,0,0,1,1.33-3.28l1.71.06a4.52,4.52,0,0,0-1.33,3.28,4.24,4.24,0,0,0,4,4.3"/></g></g></g><g class="cls-2"><g class="cls-64"><g class="cls-2"><path class="cls-9" d="M29.59,42.2l-1.71-.06a4.24,4.24,0,0,1-4-4.3,4.52,4.52,0,0,1,1.33-3.28l1.71.06a4.52,4.52,0,0,0-1.33,3.28,4.24,4.24,0,0,0,4,4.3"/></g></g></g><g class="cls-2"><g class="cls-65"><g class="cls-2"><path class="cls-9" d="M29.59,42.2l-1.71-.06a4.24,4.24,0,0,1-4-4.3,4.52,4.52,0,0,1,1.33-3.28l1.71.06a4.52,4.52,0,0,0-1.33,3.28,4.24,4.24,0,0,0,4,4.3"/><path class="cls-8" d="M27,34.62l-1.71-.06a4.13,4.13,0,0,1,1.13-.79l1.71.06a4.13,4.13,0,0,0-1.13.79"/></g></g></g><g class="cls-2"><g class="cls-66"><g class="cls-2"><path class="cls-9" d="M29.59,42.2l-1.71-.06a4.24,4.24,0,0,1-4-4.3,4.52,4.52,0,0,1,1.33-3.28l1.71.06a4.52,4.52,0,0,0-1.33,3.28,4.24,4.24,0,0,0,4,4.3"/></g></g></g><g class="cls-2"><g class="cls-67"><g class="cls-2"><path class="cls-9" d="M29.59,42.2l-1.71-.06a4.24,4.24,0,0,1-4-4.3,4.52,4.52,0,0,1,1.33-3.28l1.71.06a4.52,4.52,0,0,0-1.33,3.28,4.24,4.24,0,0,0,4,4.3"/></g></g></g><g class="cls-2"><g class="cls-68"><g class="cls-2"><path class="cls-9" d="M29.59,42.2l-1.71-.06a4.24,4.24,0,0,1-4-4.3,4.52,4.52,0,0,1,1.33-3.28l1.71.06a4.52,4.52,0,0,0-1.33,3.28,4.24,4.24,0,0,0,4,4.3"/></g></g></g><g class="cls-2"><g class="cls-69"><g class="cls-2"><path class="cls-9" d="M29.59,42.2l-1.71-.06a4.24,4.24,0,0,1-4-4.3,4.52,4.52,0,0,1,1.33-3.28l1.71.06a4.52,4.52,0,0,0-1.33,3.28,4.24,4.24,0,0,0,4,4.3"/></g></g></g><g class="cls-2"><g class="cls-70"><g class="cls-2"><path class="cls-9" d="M29.59,42.2l-1.71-.06a4.24,4.24,0,0,1-4-4.3,4.52,4.52,0,0,1,1.33-3.28l1.71.06a4.52,4.52,0,0,0-1.33,3.28,4.24,4.24,0,0,0,4,4.3"/></g></g></g><g class="cls-2"><g class="cls-71"><g class="cls-2"><path class="cls-9" d="M29.57,42.69l-1.71-.06a4.72,4.72,0,0,1-4.41-4.79,5,5,0,0,1,1.48-3.65l1.71.06a5,5,0,0,0-1.48,3.65,4.72,4.72,0,0,0,4.41,4.79"/><path class="cls-8" d="M26.64,34.26l-1.71-.06a4.59,4.59,0,0,1,1.26-.88l1.71.06a4.59,4.59,0,0,0-1.26.88"/><path class="cls-7" d="M27.9,33.38l-1.71-.06A4.34,4.34,0,0,1,28,32.9l1.71.06a4.34,4.34,0,0,0-1.78.42"/></g></g></g><g class="cls-2"><g class="cls-72"><g class="cls-2"><path class="cls-7" d="M29.68,33,28,32.9h.22L29.9,33h-.22"/></g></g></g><g class="cls-2"><g class="cls-73"><g class="cls-2"><path class="cls-9" d="M29.59,42.2l-1.71-.06a4.24,4.24,0,0,1-4-4.3,4.52,4.52,0,0,1,1.33-3.28l1.71.06a4.52,4.52,0,0,0-1.33,3.28,4.24,4.24,0,0,0,4,4.3"/></g></g></g><path class="cls-74" d="M29.68,33.45a4.22,4.22,0,0,1,4.15,4.3,4.28,4.28,0,0,1-4.05,4.44,4.22,4.22,0,0,1-4.16-4.3A4.28,4.28,0,0,1,29.68,33.45ZM29.77,41a3.14,3.14,0,0,0,3-3.27,3.1,3.1,0,0,0-3.06-3.16,3.14,3.14,0,0,0-3,3.27A3.1,3.1,0,0,0,29.77,41"/><path class="cls-74" d="M29.68,33a4.7,4.7,0,0,1,4.63,4.79,4.77,4.77,0,0,1-4.52,4.95,4.7,4.7,0,0,1-4.63-4.79A4.77,4.77,0,0,1,29.68,33Zm.11,9.24a4.28,4.28,0,0,0,4.05-4.44,4.22,4.22,0,0,0-4.15-4.3,4.28,4.28,0,0,0-4.06,4.44,4.22,4.22,0,0,0,4.16,4.3"/><polygon class="cls-8" points="23.3 56.98 21.59 56.92 34.33 44.63 36.04 44.69 23.3 56.98"/><g class="cls-2"><g class="cls-75"><g class="cls-2"><path class="cls-7" d="M22.93,57.13l-1.71-.06a.55.55,0,0,0,.23-.05l1.71.06a.55.55,0,0,1-.23.05"/><path class="cls-8" d="M23.16,57.08,21.44,57a.56.56,0,0,0,.14-.1L23.3,57a.56.56,0,0,1-.14.1"/></g></g></g><g class="cls-2"><g class="cls-76"><g class="cls-2"><path class="cls-7" d="M22.9,57.13l-1.71-.06h0l1.71.06h0"/></g></g></g><polygon class="cls-8" points="22.56 56.13 20.85 56.07 33.98 43.41 35.69 43.46 22.56 56.13"/><g class="cls-2"><g class="cls-77"><g class="cls-2"><path class="cls-9" d="M22.9,57.13l-1.71-.06a.5.5,0,0,1-.37-.18l1.71.06a.5.5,0,0,0,.37.18"/></g></g></g><g class="cls-2"><g class="cls-78"><g class="cls-2"><path class="cls-9" d="M22.39,56.53l-1.71-.06a.58.58,0,0,1,.16-.39l1.71.06a.58.58,0,0,0-.16.39"/><polyline class="cls-8" points="22.55 56.14 20.84 56.08 20.85 56.07 22.56 56.13 22.55 56.14"/></g></g></g><g class="cls-2"><g class="cls-79"><g class="cls-2"><path class="cls-9" d="M22.53,57l-1.71-.06a.55.55,0,0,1-.14-.42l1.71.06a.55.55,0,0,0,.14.42"/></g></g></g><polygon class="cls-8" points="22.25 55.76 20.54 55.7 33.67 43.04 35.38 43.1 22.25 55.76"/><g class="cls-2"><g class="cls-80"><g class="cls-2"><path class="cls-9" d="M22.89,57.64l-1.71-.06a1,1,0,0,1-.72-.36,1.12,1.12,0,0,1,.07-1.51l1.71.06a1.12,1.12,0,0,0-.07,1.51,1,1,0,0,0,.72.36"/><polyline class="cls-8" points="22.24 55.77 20.53 55.71 20.54 55.7 22.25 55.76 22.24 55.77"/></g></g></g><polygon class="cls-7" points="19.31 60.52 17.6 60.46 59.23 59.73 60.94 59.79 19.31 60.52"/><polygon class="cls-7" points="18.85 61.03 17.14 60.97 59.71 60.23 61.42 60.28 18.85 61.03"/><polygon class="cls-7" points="18.32 62.2 16.61 62.14 60.27 61.38 61.98 61.44 18.32 62.2"/><g class="cls-2"><g class="cls-81"><g class="cls-2"><path class="cls-9" d="M18.29,62.2l-1.71-.06a.56.56,0,0,1-.53-.58l1.71.06a.56.56,0,0,0,.53.58"/></g></g></g><polygon class="cls-10" points="18.85 61.03 17.14 60.97 16.73 25.63 18.44 25.68 18.85 61.03"/><polygon class="cls-7" points="18.44 25.68 16.73 25.63 59.3 24.88 61.02 24.94 18.44 25.68"/><path class="cls-74" d="M61.54,23.77a.55.55,0,0,1,.55.57l.42,36.51a.56.56,0,0,1-.53.59l-43.66.76a.56.56,0,0,1-.56-.58l-.42-36.51a.57.57,0,0,1,.54-.59Zm-.12,36.52L61,24.94l-42.58.74L18.85,61l42.58-.74"/><path class="cls-74" d="M18.85,61l-.41-35.34L61,24.94l.41,35.34Zm.07-34.86.39,34.35,41.63-.73-.39-34.35-41.63.73"/><path class="cls-74" d="M29.7,34.61a3.1,3.1,0,0,1,3.06,3.16,3.14,3.14,0,0,1-3,3.27,3.1,3.1,0,0,1-3.06-3.16A3.14,3.14,0,0,1,29.7,34.61Zm.07,5.92a2.65,2.65,0,0,0,2.51-2.75,2.61,2.61,0,0,0-2.58-2.66,2.65,2.65,0,0,0-2.51,2.75,2.61,2.61,0,0,0,2.58,2.66"/><g class="cls-2"><g class="cls-82"><g class="cls-2"><path class="cls-7" d="M18.29,62.2l-1.71-.06h0l1.71.06h0"/></g></g></g><g class="cls-2"><g class="cls-83"><g class="cls-2"><path class="cls-9" d="M18.27,62.69l-1.71-.06a1,1,0,0,1-1-1.06l1.71.06a1,1,0,0,0,1,1.06"/></g></g></g><polygon class="cls-7" points="17.89 24.53 16.17 24.48 59.83 23.71 61.54 23.77 17.89 24.53"/><g class="cls-2"><g class="cls-84"><g class="cls-2"><path class="cls-9" d="M17.34,25.12l-1.71-.06a.59.59,0,0,1,.18-.43l1.71.06a.59.59,0,0,0-.18.43"/><path class="cls-8" d="M17.52,24.69l-1.71-.06a.55.55,0,0,1,.15-.11l1.71.06a.55.55,0,0,0-.15.11"/><path class="cls-7" d="M17.67,24.58,16,24.53a.53.53,0,0,1,.22-.05l1.71.06a.53.53,0,0,0-.22.05"/></g></g></g><path class="cls-74" d="M61.54,23.28a1,1,0,0,1,1,1.05L63,60.83a1.05,1.05,0,0,1-1,1.1l-43.66.76a1,1,0,0,1-1-1.06l-.42-36.51a1.05,1.05,0,0,1,1-1.09Zm1,37.57-.42-36.51a.55.55,0,0,0-.55-.57l-43.66.76a.57.57,0,0,0-.54.59l.42,36.51a.56.56,0,0,0,.56.58L62,61.44a.56.56,0,0,0,.53-.59"/><path class="cls-74" d="M58.59,46.84a1.12,1.12,0,0,1,.08,1.52,1,1,0,0,1-1.43.1l-8.7-8.25-6.76,8.1,3.64,3.75a1.14,1.14,0,0,1,.3.76,1.15,1.15,0,0,1-.29.77,1,1,0,0,1-.72.32,1,1,0,0,1-.72-.3l-8-8.25-12.42,12a1,1,0,0,1-.66.28,1,1,0,0,1-.77-.36,1.12,1.12,0,0,1,.08-1.52L35.38,43.1a1,1,0,0,1,1.39,0l3.57,3.69L47.7,38a1,1,0,0,1,.7-.36,1,1,0,0,1,.73.27ZM58.32,48a.59.59,0,0,0,.14-.43.53.53,0,0,0-.18-.39l-9.46-9a.57.57,0,0,0-.4-.14.52.52,0,0,0-.37.19l-7.7,9.23-3.92-4.05a.53.53,0,0,0-.38-.16.59.59,0,0,0-.36.15L22.56,56.13a.57.57,0,0,0-.17.4.55.55,0,0,0,.14.42.5.5,0,0,0,.4.18A.55.55,0,0,0,23.3,57L36,44.69l8.29,8.57a.55.55,0,0,0,.39.17.51.51,0,0,0,.38-.18.56.56,0,0,0,.16-.41.57.57,0,0,0-.17-.41l-3.95-4.09L48.5,39.5l9,8.58a.55.55,0,0,0,.37.15.56.56,0,0,0,.4-.2"/><path class="cls-74" d="M48.42,38.11a.57.57,0,0,1,.4.14l9.46,9a.53.53,0,0,1,.18.39.59.59,0,0,1-.14.43.55.55,0,0,1-.37.2.56.56,0,0,1-.4-.15l-9-8.58-7.37,8.83,3.95,4.09a.57.57,0,0,1,.17.41.56.56,0,0,1-.16.41.51.51,0,0,1-.38.18.55.55,0,0,1-.39-.17L36,44.69,23.3,57a.55.55,0,0,1-.37.15.5.5,0,0,1-.4-.18.55.55,0,0,1-.14-.42.57.57,0,0,1,.17-.4L35.69,43.46a.59.59,0,0,1,.36-.15.53.53,0,0,1,.38.16l3.92,4.05,7.7-9.23A.52.52,0,0,1,48.42,38.11Z"/><polygon class="cls-7" points="17.88 24.04 16.17 23.98 59.83 23.22 61.54 23.27 17.88 24.04"/><polygon class="cls-10" points="17.76 61.62 16.05 61.57 15.63 25.06 17.34 25.12 17.76 61.62"/><polygon class="cls-10" points="17.3 61.63 15.59 61.57 15.17 25.07 16.88 25.13 17.3 61.63"/><g class="cls-2"><g class="cls-85"><g class="cls-2"><path class="cls-9" d="M16.88,25.13l-1.71-.06a1.1,1.1,0,0,1,.32-.8l1.71.06a1.1,1.1,0,0,0-.32.8"/><path class="cls-8" d="M17.2,24.33l-1.71-.06a1,1,0,0,1,.28-.2l1.71.06a1,1,0,0,0-.28.2"/><path class="cls-7" d="M17.48,24.13l-1.71-.06a1,1,0,0,1,.4-.09l1.71.06a1,1,0,0,0-.4.09"/></g></g></g></g></g></g></svg>