<svg xmlns="http://www.w3.org/2000/svg" viewBox="0 0 113.24 132.73"><defs><style>.cls-1{isolation:isolate;}.cls-2{fill:#6b670f;}.cls-3{fill:#a3a40f;}.cls-4{fill:#d0d90a;}.cls-5{fill:#070606;}</style></defs><title>Asset 9</title><g id="Layer_2" data-name="Layer 2"><g id="Layer_1-2" data-name="Layer 1"><g class="cls-1"><polygon class="cls-2" points="111.71 116.68 104.09 112.53 104.3 1.61 111.91 5.75 111.71 116.68"/><polygon class="cls-3" points="8.94 131.12 1.33 126.98 104.09 112.53 111.71 116.68 8.94 131.12"/><polygon class="cls-3" points="9.15 20.2 1.53 16.05 104.3 1.61 111.91 5.75 9.15 20.2"/><polygon class="cls-4" points="111.91 5.75 111.71 116.68 8.94 131.12 9.15 20.2 111.91 5.75"/><polygon class="cls-2" points="8.94 131.12 1.33 126.98 1.53 16.05 9.15 20.2 8.94 131.12"/><polygon class="cls-2" points="7.62 132.73 0 128.59 0.21 14.81 7.83 18.96 7.62 132.73"/><polygon class="cls-3" points="7.83 18.96 0.21 14.81 105.63 0 113.24 4.14 7.83 18.96"/><path class="cls-4" d="M7.83,19,113.24,4.14,113,117.92,7.61,132.73Zm103.88,97.72.21-110.92L9.15,20.2,8.94,131.12l102.77-14.44"/></g><g class="cls-1"><polygon class="cls-5" points="26.73 59.45 31.29 59.39 30.69 60.21 29.16 62.33 24.6 62.39 26.73 59.45"/><polygon points="26.68 59.22 31.46 59.15 31.29 59.39 26.73 59.45 24.6 62.39 29.16 62.33 30.69 60.21 28.99 62.57 24.44 62.63 24.17 62.64 26.64 59.22 26.68 59.22"/></g><polygon class="cls-5" points="14.8 76.78 18.56 76.74 15.72 80.67 11.96 80.72 14.8 76.78"/><polygon class="cls-5" points="103.54 58.6 108.9 58.52 106.39 61.88 101.03 61.96 103.54 58.6"/><polygon class="cls-5" points="65.71 90.71 71.08 90.73 66.42 96.98 61.05 96.96 65.71 90.71"/><path d="M98.8,72.42l-5.46,7.31-8,.14h-.25l3.52-4.73,2.26,0H91l1.77-2.37.16-.22ZM93.25,79.5l5.1-6.85L93,72.75l-1.93,2.59-2.35,0-3.18,4.26,7.72-.13"/><g class="cls-1"><path d="M109.24,58.28h.1l-2.69,3.6-.16.22-5.9.1.17-.23,2.6-3.49.08-.11Zm-2.85,3.6,2.51-3.36-5.36.08L101,62l5.36-.08"/><polygon class="cls-5" points="103.36 58.48 100.76 61.97 100.18 62.74 94.41 62.84 97.59 58.58 103.36 58.48"/><polygon class="cls-5" points="100.84 62.21 106.21 62.12 98.53 72.41 93.17 72.5 100.84 62.21"/><path d="M106.65,61.88,98.8,72.42l-5.9.09-.16.22,5.34-7.17,2.11-2.83.57-.77-.17.23,5.9-.1ZM98.53,72.41l7.67-10.29-5.36.08L93.17,72.5l5.36-.09"/><polygon points="106.63 58.19 109.34 58.15 109.25 58.28 103.44 58.37 103.36 58.48 97.59 58.58 94.41 62.84 100.18 62.74 98.08 65.57 97.98 65.57 98.14 65.35 99.91 62.98 93.97 63.08 94.22 63.08 97.74 58.34 106.63 58.19"/><polygon class="cls-5" points="97.3 58.59 94.13 62.85 92.14 62.88 92.71 62.12 95.31 58.62 97.3 58.59"/><polygon class="cls-5" points="89.58 58.85 94.95 58.76 92.44 62.12 87.08 62.2 89.58 58.85"/><path d="M89.49,58.62l5.9-.09-.07.1-2.61,3.5-.16.22-5.9.1.17-.23Zm3,3.5,2.51-3.36-5.36.08L87.08,62.2l5.36-.08"/><polygon class="cls-5" points="98.35 72.65 93.25 79.5 85.53 79.64 88.7 75.38 91.06 75.34 92.99 72.75 98.35 72.65"/><polygon class="cls-5" points="86.89 62.45 92.26 62.37 84.58 72.65 79.22 72.75 86.89 62.45"/><path d="M92.7,62.12l-.56.76-.18.24-7.12,9.55-5.9.09-.16.22,5.34-7.17,2.68-3.59-.17.23,5.9-.1ZM84.58,72.65l7.67-10.29-5.36.08L79.22,72.74l5.36-.09"/><polygon points="97.74 58.34 94.22 63.08 93.97 63.08 91.97 63.12 92.14 62.88 94.13 62.85 97.3 58.59 95.31 58.62 95.39 58.52 89.48 58.62 86.8 62.22 84.12 65.81 84.03 65.81 84.19 65.59 89.48 58.49 97.74 58.34"/><polygon class="cls-5" points="86.8 58.95 84.32 62.27 79.01 62.36 81.49 59.04 86.8 58.95"/><path d="M87.14,58.72h.1l-2.66,3.57-.16.22-5.84.09,2.74-3.67.08-.11Zm-2.82,3.55L86.79,59,81.49,59,79,62.36l5.31-.09"/><polygon points="84.19 65.59 84.03 65.81 84.12 65.81 78.78 72.98 76.49 76.05 76.45 76.05 76.41 76.04 76.34 76.13 84.19 65.59"/><polygon class="cls-5" points="84.4 72.9 82.47 75.49 88.41 75.38 85.24 79.64 76.69 79.79 73.94 79.84 79.04 72.99 84.4 72.9"/><polygon points="76.41 76.04 76.45 76.05 76.49 76.05 73.58 79.94 73.5 79.94 76.34 76.13 76.41 76.04"/><path d="M82.92,75.25l5.69-.1-3.52,4.73-5.7.1h-.26l-3,.05-2.47,0h-.18l.1-.13,2.9-3.89L78.78,73l.16-.22,5.9-.09Zm-6.22,4.55,8.55-.15,3.17-4.26-5.94.1L84.4,72.9,79,73l-5.1,6.85,2.76,0"/><polygon points="76.33 76.13 73.5 79.94 73.5 79.95 73.48 79.95 76.33 76.13"/><polygon class="cls-5" points="81.31 58.92 78.56 62.59 78.17 63.13 72.45 63.23 75.6 59.02 81.31 58.92"/><polygon class="cls-5" points="84.14 62.52 76.53 72.71 71.23 72.79 76.2 66.12 76.13 66.05 76.2 66.12 78.82 62.61 84.14 62.52"/><polygon points="76.08 65.93 70.96 72.81 69.04 75.38 68.94 75.38 75.99 65.93 76.08 65.93"/><path d="M84.57,62.28,76.8,72.72,71,72.81l5.12-6.88,2.09-2.8.4-.54,5.84-.09Zm-8,10.43,7.6-10.19-5.31.09L76.2,66.12l-5,6.67,5.31-.08"/><polygon points="84.53 58.63 87.24 58.59 87.14 58.72 81.39 58.81 81.31 58.92 75.6 59.02 72.45 63.23 78.17 63.13 76.08 65.93 75.99 65.93 77.89 63.37 72.01 63.48 72.26 63.47 75.75 58.78 84.53 58.63"/><path d="M67.58,59.05,73.42,59l-.07.1-2.59,3.47-.16.22-5.84.09Zm2.93,3.46L73,59.19l-5.31.09L65.19,62.6l5.31-.09"/><polygon class="cls-5" points="75.31 59.02 72.17 63.24 70.21 63.27 70.76 62.52 73.35 59.06 75.31 59.02"/><polygon class="cls-5" points="73.66 80.07 76.13 80.03 79.12 79.98 71.27 90.49 65.89 90.46 73.66 80.07"/><polygon points="73.5 79.95 73.58 79.94 73.48 80.07 73.66 80.07 65.89 90.46 71.27 90.49 79.12 79.98 79.39 79.98 71.36 90.72 71.52 90.5 65.67 90.48 65.62 90.48 65.46 90.69 70.96 83.33 71.04 83.41 70.96 83.33 73.5 79.95"/><polygon class="cls-5" points="72.98 59.19 70.5 62.51 65.19 62.6 67.67 59.28 72.98 59.19"/><polygon class="cls-5" points="71.05 73.04 76.35 72.96 71.3 79.73 63.65 79.86 66.8 75.64 69.13 75.6 71.05 73.04"/><path d="M76.8,72.72,71.4,80l-7.93.14h-.26l3.49-4.69,2.24,0H69l1.91-2.57Zm-5.5,7L76.35,73,71,73,69.13,75.6l-2.33,0-3.15,4.22,7.64-.13"/><polygon points="75.75 58.78 72.26 63.47 72.01 63.48 70.03 63.51 70.21 63.27 72.17 63.24 75.31 59.02 73.35 59.06 73.42 58.96 67.58 59.05 64.75 62.84 62.27 66.17 62.17 66.17 62.33 65.96 67.57 58.93 75.75 58.78"/><path d="M65.67,90.48l5.85,0-.16.22-4.84,6.49h0l-5.85,0,4.85-6.49.16-.21Zm.75,6.5,4.66-6.25-5.37,0L61,97l5.37,0"/><polygon class="cls-5" points="70.31 62.76 62.72 72.95 57.41 73.03 65.01 62.85 70.31 62.76"/><polygon class="cls-5" points="57.23 73.28 62.54 73.2 60.63 75.75 66.51 75.65 63.37 79.87 54.88 80.02 52.18 80.07 57.23 73.28"/><path d="M61.07,75.52l5.63-.1-3.49,4.69-8.83.15-2.65,0,.1-.13,2.82-3.78L57.13,73,63,73ZM54.88,80l8.49-.15,3.14-4.22-5.88.1,1.91-2.55-5.31.08-5.05,6.78,2.7,0"/><polygon points="62.33 65.96 62.17 66.17 62.27 66.17 57.14 73.05 54.64 76.39 54.55 76.39 62.33 65.96"/><polygon points="54.55 76.39 54.64 76.39 51.82 80.17 51.73 80.17 54.55 76.39"/><path d="M62.87,59l2.66,0-5.32,7.26-5.77.1.16-.22,1.72-2.35-5.54.1,3.43-4.69Zm-2.75,7,5-6.8-2.61,0-8.42.15L51,63.63l5.79-.1-1.88,2.56L60.11,66"/><polygon class="cls-5" points="65.09 59.2 60.11 66 54.89 66.09 56.76 63.52 50.97 63.63 54.06 59.4 62.48 59.25 65.09 59.2"/><path d="M54.45,66.33l5.77-.1L52.55,76.68l.16-.22-5.76.1-.16.22L54.6,66.11Zm-2,10.13,7.48-10.21-5.22.08L47.22,76.54l5.22-.08"/><polygon class="cls-5" points="54.7 66.33 59.93 66.25 52.45 76.46 47.22 76.54 54.7 66.33"/><polygon class="cls-5" points="53.75 56.23 51.33 59.65 46.1 59.78 48.52 56.36 53.75 56.23"/><polygon points="54.22 59.16 50.79 63.85 50.53 63.86 48.48 63.89 46.6 66.47 40.84 66.57 46.16 59.3 45.67 60.02 45.9 60.01 41.28 66.32 46.5 66.24 48.38 63.67 50.69 63.63 53.78 59.4 51.74 59.44 51.91 59.2 54.22 59.16"/><path d="M54.18,56,51.91,59.2l-.17.24-.31.44h0L45.9,60h-.23l.51-.72,2.24-3.16Zm-2.85,3.66,2.42-3.42-5.22.13L46.1,59.78l5.23-.13"/><polygon class="cls-5" points="47.04 76.79 52.27 76.71 49.83 80.03 44.61 80.12 47.04 76.79"/><path d="M46.95,76.57l5.76-.1-.16.22-2.62,3.58-5.77.09,2.63-3.57ZM49.83,80l2.43-3.33L47,76.79l-2.43,3.33L49.83,80"/><polygon class="cls-5" points="53.78 59.4 50.69 63.63 48.38 63.67 46.5 66.24 41.28 66.32 45.9 60.01 51.38 59.88 51.43 59.87 51.74 59.44 53.78 59.4"/><polygon class="cls-5" points="39.43 59.23 42.99 59.18 40.3 62.91 36.74 62.97 39.43 59.23"/><polygon class="cls-5" points="31.57 59.37 39.15 59.25 36.46 62.98 28.88 63.1 31.57 59.37"/><path d="M39.32,59l4.11-.07-3,4.2-3.83.05H36.3l.16-.22,2.69-3.73Zm1,3.9L43,59.18l-3.57,0L36.74,63l3.57-.05"/><path d="M40.84,66.57l5.76-.1L38.94,76.92l.16-.22-5.77.1Zm-2,10.13,7.48-10.21-5.22.08L33.62,76.78l5.22-.08"/><polygon class="cls-5" points="41.1 66.57 46.33 66.49 38.84 76.7 33.62 76.78 41.1 66.57"/><polygon points="33.77 67.46 33.6 67.69 33.41 67.7 33.58 67.46 33.77 67.46"/><polygon class="cls-5" points="33.44 77.03 38.66 76.94 36.22 80.27 30.99 80.36 33.44 77.03"/><polygon class="cls-5" points="33.87 67.69 37.63 67.63 34.79 71.56 31.03 71.61 33.87 67.69"/><path d="M33.34,76.8l5.77-.1-.16.22L36.32,80.5l-5.76.09Zm2.88,3.47,2.44-3.33L33.44,77,31,80.35l5.22-.08"/><path d="M33.77,67.46l4.3-.06-3.18,4.39h-.24l-4.06.06,3-4.16Zm1,4.1,2.84-3.93-3.76.06L31,71.61l3.76-.06"/><polygon points="31.46 59.15 39.32 59.01 39.15 59.25 31.57 59.37 28.88 63.1 36.46 62.98 36.3 63.2 36.57 63.19 28.8 63.33 28.54 63.33 28.44 63.34 28.99 62.57 30.69 60.21 31.29 59.39 31.46 59.15"/><polygon class="cls-5" points="33.41 67.7 33.6 67.69 30.59 71.86 34.65 71.79 30.79 77.14 26.36 77.21 26.95 76.38 26.61 76.39 29.88 71.86 30.4 71.85 33.41 67.7"/><polygon points="38.06 67.41 38.1 67.41 31.04 77.16 26.34 77.22 30.79 77.14 34.65 71.79 34.89 71.79 38.06 67.41"/><polygon points="29.88 71.86 26.61 76.39 26.34 76.39 29.61 71.86 29.88 71.86"/><polygon points="28.54 63.33 28.8 63.33 25.74 67.57 25.47 67.57 28.54 63.33"/><polygon class="cls-5" points="26.18 77.45 30.61 77.39 28.38 80.48 23.95 80.54 26.18 77.45"/><polygon points="26.34 77.22 31.04 77.16 28.47 80.71 28.43 80.71 23.17 80.79 23.78 80.78 23.95 80.54 28.38 80.48 30.61 77.39 26.18 77.45 26.34 77.22"/><polygon class="cls-5" points="25.46 67.81 33.14 67.69 30.3 71.63 22.63 71.73 25.46 67.81"/><path d="M25.74,67.57l7.84-.11-.17.24-3,4.15h-.79L22.19,72h.25l3.17-4.39h.13Zm4.56,4.06,2.84-3.94-7.68.12-2.83,3.93,7.68-.11"/><path d="M25.35,67.58h.26L22.44,72h-.33l-4,.05.17-.23,3-4.16Zm-3,4.16,2.83-3.93-3.76.06L18.58,71.8l3.76-.06"/><polygon class="cls-5" points="21.41 67.87 25.18 67.81 22.34 71.74 18.58 71.8 21.41 67.87"/><polygon class="cls-5" points="24.44 62.63 28.99 62.57 28.44 63.34 28.54 63.33 25.47 67.57 25.36 67.57 21.32 67.64 18.32 71.79 17.81 71.8 24.44 62.63"/><polygon points="24.17 62.64 24.44 62.63 17.81 71.8 18.32 71.79 18.15 72.03 22.11 71.98 17.37 72.04 24.17 62.64"/><polygon class="cls-5" points="18.84 76.73 26.52 76.62 23.68 80.55 16 80.66 18.84 76.73"/></g><path d="M26.61,76.39H27l-.59.82-.18.25L24,80.54l-.17.24h-.61l-7.6.11h.25L19,76.5l7.35-.1Zm-2.92,4.16,2.83-3.93-7.68.12L16,80.66l7.68-.12"/><path d="M14.7,76.56,19,76.5l-3.18,4.39h-.25l-4,.06Zm1,4.1,2.84-3.93-3.76,0L12,80.72l3.76-.06"/><g class="cls-1"><path d="M60.63,39l5.71-.14L61.61,45.5h0l-5.71.14.15-.22L60.58,39Zm.88,6.31,4.4-6.21-5.22.13L58.27,42.6l-.14.19L56.29,45.4l5.22-.13"/><polygon class="cls-5" points="61.34 45.52 56.41 52.48 56.49 52.55 56.41 52.48 53.92 55.99 48.7 56.11 56.11 45.65 61.34 45.52"/><path d="M61.56,45.5h0L54.18,56l-5.76.15L56,45.42l-.15.22Zm-5.15,7,4.92-7-5.22.14L48.7,56.11,53.92,56l2.49-3.51"/></g><polygon class="cls-5" points="65.91 39.06 61.51 45.27 56.29 45.4 58.13 42.79 58.27 42.6 60.68 39.18 65.91 39.06"/><path d="M70.76,62.52l-.55.75-.18.24L63,73,57.14,73l5.12-6.88,2.49-3.34,5.84-.09ZM62.72,73l7.59-10.19L65,62.85,57.41,73,62.72,73"/><polygon points="98.14 65.35 97.98 65.57 98.08 65.57 92.73 72.73 90.97 75.11 90.87 75.11 98.14 65.35"/><g class="cls-1"><polygon class="cls-5" points="26.73 59.45 31.29 59.39 30.69 60.21 29.16 62.33 24.6 62.39 26.73 59.45"/><polygon points="26.68 59.22 31.46 59.15 31.29 59.39 26.73 59.45 24.6 62.39 29.16 62.33 30.69 60.21 28.99 62.57 24.44 62.63 24.17 62.64 26.64 59.22 26.68 59.22"/></g><polygon class="cls-5" points="14.8 76.78 18.56 76.74 15.72 80.67 11.96 80.72 14.8 76.78"/><polygon class="cls-5" points="103.54 58.6 108.9 58.52 106.39 61.88 101.03 61.96 103.54 58.6"/><polygon class="cls-5" points="65.71 90.71 71.08 90.73 66.42 96.98 61.05 96.96 65.71 90.71"/><path d="M98.8,72.42l-5.46,7.31-8,.14h-.25l3.52-4.73,2.26,0H91l1.77-2.37.16-.22ZM93.25,79.5l5.1-6.85L93,72.75l-1.93,2.59-2.35,0-3.18,4.26,7.72-.13"/><g class="cls-1"><path d="M109.24,58.28h.1l-2.69,3.6-.16.22-5.9.1.17-.23,2.6-3.49.08-.11Zm-2.85,3.6,2.51-3.36-5.36.08L101,62l5.36-.08"/><polygon class="cls-5" points="103.36 58.48 100.76 61.97 100.18 62.74 94.41 62.84 97.59 58.58 103.36 58.48"/><polygon class="cls-5" points="100.84 62.21 106.21 62.12 98.53 72.41 93.17 72.5 100.84 62.21"/><path d="M106.65,61.88,98.8,72.42l-5.9.09-.16.22,5.34-7.17,2.11-2.83.57-.77-.17.23,5.9-.1ZM98.53,72.41l7.67-10.29-5.36.08L93.17,72.5l5.36-.09"/><polygon points="106.63 58.19 109.34 58.15 109.25 58.28 103.44 58.37 103.36 58.48 97.59 58.58 94.41 62.84 100.18 62.74 98.08 65.57 97.98 65.57 98.14 65.35 99.91 62.98 93.97 63.08 94.22 63.08 97.74 58.34 106.63 58.19"/><polygon class="cls-5" points="97.3 58.59 94.13 62.85 92.14 62.88 92.71 62.12 95.31 58.62 97.3 58.59"/><polygon class="cls-5" points="89.58 58.85 94.95 58.76 92.44 62.12 87.08 62.2 89.58 58.85"/><path d="M89.49,58.62l5.9-.09-.07.1-2.61,3.5-.16.22-5.9.1.17-.23Zm3,3.5,2.51-3.36-5.36.08L87.08,62.2l5.36-.08"/><polygon class="cls-5" points="98.35 72.65 93.25 79.5 85.53 79.64 88.7 75.38 91.06 75.34 92.99 72.75 98.35 72.65"/><polygon class="cls-5" points="86.89 62.45 92.26 62.37 84.58 72.65 79.22 72.75 86.89 62.45"/><path d="M92.7,62.12l-.56.76-.18.24-7.12,9.55-5.9.09-.16.22,5.34-7.17,2.68-3.59-.17.23,5.9-.1ZM84.58,72.65l7.67-10.29-5.36.08L79.22,72.74l5.36-.09"/><polygon points="97.74 58.34 94.22 63.08 93.97 63.08 91.97 63.12 92.14 62.88 94.13 62.85 97.3 58.59 95.31 58.62 95.39 58.52 89.48 58.62 86.8 62.22 84.12 65.81 84.03 65.81 84.19 65.59 89.48 58.49 97.74 58.34"/><polygon class="cls-5" points="86.8 58.95 84.32 62.27 79.01 62.36 81.49 59.04 86.8 58.95"/><path d="M87.14,58.72h.1l-2.66,3.57-.16.22-5.84.09,2.74-3.67.08-.11Zm-2.82,3.55L86.79,59,81.49,59,79,62.36l5.31-.09"/><polygon points="84.19 65.59 84.03 65.81 84.12 65.81 78.78 72.98 76.49 76.05 76.45 76.05 76.41 76.04 76.34 76.13 84.19 65.59"/><polygon class="cls-5" points="84.4 72.9 82.47 75.49 88.41 75.38 85.24 79.64 76.69 79.79 73.94 79.84 79.04 72.99 84.4 72.9"/><polygon points="76.41 76.04 76.45 76.05 76.49 76.05 73.58 79.94 73.5 79.94 76.34 76.13 76.41 76.04"/><path d="M82.92,75.25l5.69-.1-3.52,4.73-5.7.1h-.26l-3,.05-2.47,0h-.18l.1-.13,2.9-3.89L78.78,73l.16-.22,5.9-.09Zm-6.22,4.55,8.55-.15,3.17-4.26-5.94.1L84.4,72.9,79,73l-5.1,6.85,2.76,0"/><polygon points="76.33 76.13 73.5 79.94 73.5 79.95 73.48 79.95 76.33 76.13"/><polygon class="cls-5" points="81.31 58.92 78.56 62.59 78.17 63.13 72.45 63.23 75.6 59.02 81.31 58.92"/><polygon class="cls-5" points="84.14 62.52 76.53 72.71 71.23 72.79 76.2 66.12 76.13 66.05 76.2 66.12 78.82 62.61 84.14 62.52"/><polygon points="76.08 65.93 70.96 72.81 69.04 75.38 68.94 75.38 75.99 65.93 76.08 65.93"/><path d="M84.57,62.28,76.8,72.72,71,72.81l5.12-6.88,2.09-2.8.4-.54,5.84-.09Zm-8,10.43,7.6-10.19-5.31.09L76.2,66.12l-5,6.67,5.31-.08"/><polygon points="84.53 58.63 87.24 58.59 87.14 58.72 81.39 58.81 81.31 58.92 75.6 59.02 72.45 63.23 78.17 63.13 76.08 65.93 75.99 65.93 77.89 63.37 72.01 63.48 72.26 63.47 75.75 58.78 84.53 58.63"/><path d="M67.58,59.05,73.42,59l-.07.1-2.59,3.47-.16.22-5.84.09Zm2.93,3.46L73,59.19l-5.31.09L65.19,62.6l5.31-.09"/><polygon class="cls-5" points="75.31 59.02 72.17 63.24 70.21 63.27 70.76 62.52 73.35 59.06 75.31 59.02"/><polygon class="cls-5" points="73.66 80.07 76.13 80.03 79.12 79.98 71.27 90.49 65.89 90.46 73.66 80.07"/><polygon points="73.5 79.95 73.58 79.94 73.48 80.07 73.66 80.07 65.89 90.46 71.27 90.49 79.12 79.98 79.39 79.98 71.36 90.72 71.52 90.5 65.67 90.48 65.62 90.48 65.46 90.69 70.96 83.33 71.04 83.41 70.96 83.33 73.5 79.95"/><polygon class="cls-5" points="72.98 59.19 70.5 62.51 65.19 62.6 67.67 59.28 72.98 59.19"/><polygon class="cls-5" points="71.05 73.04 76.35 72.96 71.3 79.73 63.65 79.86 66.8 75.64 69.13 75.6 71.05 73.04"/><path d="M76.8,72.72,71.4,80l-7.93.14h-.26l3.49-4.69,2.24,0H69l1.91-2.57Zm-5.5,7L76.35,73,71,73,69.13,75.6l-2.33,0-3.15,4.22,7.64-.13"/><polygon points="75.75 58.78 72.26 63.47 72.01 63.48 70.03 63.51 70.21 63.27 72.17 63.24 75.31 59.02 73.35 59.06 73.42 58.96 67.58 59.05 64.75 62.84 62.27 66.17 62.17 66.17 62.33 65.96 67.57 58.93 75.75 58.78"/><path d="M65.67,90.48l5.85,0-.16.22-4.84,6.49h0l-5.85,0,4.85-6.49.16-.21Zm.75,6.5,4.66-6.25-5.37,0L61,97l5.37,0"/><polygon class="cls-5" points="70.31 62.76 62.72 72.95 57.41 73.03 65.01 62.85 70.31 62.76"/><polygon class="cls-5" points="57.23 73.28 62.54 73.2 60.63 75.75 66.51 75.65 63.37 79.87 54.88 80.02 52.18 80.07 57.23 73.28"/><path d="M61.07,75.52l5.63-.1-3.49,4.69-8.83.15-2.65,0,.1-.13,2.82-3.78L57.13,73,63,73ZM54.88,80l8.49-.15,3.14-4.22-5.88.1,1.91-2.55-5.31.08-5.05,6.78,2.7,0"/><polygon points="62.33 65.96 62.17 66.17 62.27 66.17 57.14 73.05 54.64 76.39 54.55 76.39 62.33 65.96"/><polygon points="54.55 76.39 54.64 76.39 51.82 80.17 51.73 80.17 54.55 76.39"/><path d="M62.87,59l2.66,0-5.32,7.26-5.77.1.16-.22,1.72-2.35-5.54.1,3.43-4.69Zm-2.75,7,5-6.8-2.61,0-8.42.15L51,63.63l5.79-.1-1.88,2.56L60.11,66"/><polygon class="cls-5" points="65.09 59.2 60.11 66 54.89 66.09 56.76 63.52 50.97 63.63 54.06 59.4 62.48 59.25 65.09 59.2"/><path d="M54.45,66.33l5.77-.1L52.55,76.68l.16-.22-5.76.1-.16.22L54.6,66.11Zm-2,10.13,7.48-10.21-5.22.08L47.22,76.54l5.22-.08"/><polygon class="cls-5" points="54.7 66.33 59.93 66.25 52.45 76.46 47.22 76.54 54.7 66.33"/><polygon class="cls-5" points="53.75 56.23 51.33 59.65 46.1 59.78 48.52 56.36 53.75 56.23"/><polygon points="54.22 59.16 50.79 63.85 50.53 63.86 48.48 63.89 46.6 66.47 40.84 66.57 46.16 59.3 45.67 60.02 45.9 60.01 41.28 66.32 46.5 66.24 48.38 63.67 50.69 63.63 53.78 59.4 51.74 59.44 51.91 59.2 54.22 59.16"/><path d="M54.18,56,51.91,59.2l-.17.24-.31.44h0L45.9,60h-.23l.51-.72,2.24-3.16Zm-2.85,3.66,2.42-3.42-5.22.13L46.1,59.78l5.23-.13"/><polygon class="cls-5" points="47.04 76.79 52.27 76.71 49.83 80.03 44.61 80.12 47.04 76.79"/><path d="M46.95,76.57l5.76-.1-.16.22-2.62,3.58-5.77.09,2.63-3.57ZM49.83,80l2.43-3.33L47,76.79l-2.43,3.33L49.83,80"/><polygon class="cls-5" points="53.78 59.4 50.69 63.63 48.38 63.67 46.5 66.24 41.28 66.32 45.9 60.01 51.38 59.88 51.43 59.87 51.74 59.44 53.78 59.4"/><polygon class="cls-5" points="39.43 59.23 42.99 59.18 40.3 62.91 36.74 62.97 39.43 59.23"/><polygon class="cls-5" points="31.57 59.37 39.15 59.25 36.46 62.98 28.88 63.1 31.57 59.37"/><path d="M39.32,59l4.11-.07-3,4.2-3.83.05H36.3l.16-.22,2.69-3.73Zm1,3.9L43,59.18l-3.57,0L36.74,63l3.57-.05"/><path d="M40.84,66.57l5.76-.1L38.94,76.92l.16-.22-5.77.1Zm-2,10.13,7.48-10.21-5.22.08L33.62,76.78l5.22-.08"/><polygon class="cls-5" points="41.1 66.57 46.33 66.49 38.84 76.7 33.62 76.78 41.1 66.57"/><polygon points="33.77 67.46 33.6 67.69 33.41 67.7 33.58 67.46 33.77 67.46"/><polygon class="cls-5" points="33.44 77.03 38.66 76.94 36.22 80.27 30.99 80.36 33.44 77.03"/><polygon class="cls-5" points="33.87 67.69 37.63 67.63 34.79 71.56 31.03 71.61 33.87 67.69"/><path d="M33.34,76.8l5.77-.1-.16.22L36.32,80.5l-5.76.09Zm2.88,3.47,2.44-3.33L33.44,77,31,80.35l5.22-.08"/><path d="M33.77,67.46l4.3-.06-3.18,4.39h-.24l-4.06.06,3-4.16Zm1,4.1,2.84-3.93-3.76.06L31,71.61l3.76-.06"/><polygon points="31.46 59.15 39.32 59.01 39.15 59.25 31.57 59.37 28.88 63.1 36.46 62.98 36.3 63.2 36.57 63.19 28.8 63.33 28.54 63.33 28.44 63.34 28.99 62.57 30.69 60.21 31.29 59.39 31.46 59.15"/><polygon class="cls-5" points="33.41 67.7 33.6 67.69 30.59 71.86 34.65 71.79 30.79 77.14 26.36 77.21 26.95 76.38 26.61 76.39 29.88 71.86 30.4 71.85 33.41 67.7"/><polygon points="38.06 67.41 38.1 67.41 31.04 77.16 26.34 77.22 30.79 77.14 34.65 71.79 34.89 71.79 38.06 67.41"/><polygon points="29.88 71.86 26.61 76.39 26.34 76.39 29.61 71.86 29.88 71.86"/><polygon points="28.54 63.33 28.8 63.33 25.74 67.57 25.47 67.57 28.54 63.33"/><polygon class="cls-5" points="26.18 77.45 30.61 77.39 28.38 80.48 23.95 80.54 26.18 77.45"/><polygon points="26.34 77.22 31.04 77.16 28.47 80.71 28.43 80.71 23.17 80.79 23.78 80.78 23.95 80.54 28.38 80.48 30.61 77.39 26.18 77.45 26.34 77.22"/><polygon class="cls-5" points="25.46 67.81 33.14 67.69 30.3 71.63 22.63 71.73 25.46 67.81"/><path d="M25.74,67.57l7.84-.11-.17.24-3,4.15h-.79L22.19,72h.25l3.17-4.39h.13Zm4.56,4.06,2.84-3.94-7.68.12-2.83,3.93,7.68-.11"/><path d="M25.35,67.58h.26L22.44,72h-.33l-4,.05.17-.23,3-4.16Zm-3,4.16,2.83-3.93-3.76.06L18.58,71.8l3.76-.06"/><polygon class="cls-5" points="21.41 67.87 25.18 67.81 22.34 71.74 18.58 71.8 21.41 67.87"/><polygon class="cls-5" points="24.44 62.63 28.99 62.57 28.44 63.34 28.54 63.33 25.47 67.57 25.36 67.57 21.32 67.64 18.32 71.79 17.81 71.8 24.44 62.63"/><polygon points="24.17 62.64 24.44 62.63 17.81 71.8 18.32 71.79 18.15 72.03 22.11 71.98 17.37 72.04 24.17 62.64"/><polygon class="cls-5" points="18.84 76.73 26.52 76.62 23.68 80.55 16 80.66 18.84 76.73"/></g><path d="M26.61,76.39H27l-.59.82-.18.25L24,80.54l-.17.24h-.61l-7.6.11h.25L19,76.5l7.35-.1Zm-2.92,4.16,2.83-3.93-7.68.12L16,80.66l7.68-.12"/><path d="M14.7,76.56,19,76.5l-3.18,4.39h-.25l-4,.06Zm1,4.1,2.84-3.93-3.76,0L12,80.72l3.76-.06"/><g class="cls-1"><path d="M60.63,39l5.71-.14L61.61,45.5h0l-5.71.14.15-.22L60.58,39Zm.88,6.31,4.4-6.21-5.22.13L58.27,42.6l-.14.19L56.29,45.4l5.22-.13"/><polygon class="cls-5" points="61.34 45.52 56.41 52.48 56.49 52.55 56.41 52.48 53.92 55.99 48.7 56.11 56.11 45.65 61.34 45.52"/><path d="M61.56,45.5h0L54.18,56l-5.76.15L56,45.42l-.15.22Zm-5.15,7,4.92-7-5.22.14L48.7,56.11,53.92,56l2.49-3.51"/></g><polygon class="cls-5" points="65.91 39.06 61.51 45.27 56.29 45.4 58.13 42.79 58.27 42.6 60.68 39.18 65.91 39.06"/><path d="M70.76,62.52l-.55.75-.18.24L63,73,57.14,73l5.12-6.88,2.49-3.34,5.84-.09ZM62.72,73l7.59-10.19L65,62.85,57.41,73,62.72,73"/><polygon points="98.14 65.35 97.98 65.57 98.08 65.57 92.73 72.73 90.97 75.11 90.87 75.11 98.14 65.35"/></g></g></svg>