<svg xmlns="http://www.w3.org/2000/svg" xmlns:xlink="http://www.w3.org/1999/xlink" viewBox="0 0 72.86 83.57"><defs><style>.cls-1{fill:none;}.cls-2{isolation:isolate;}.cls-3{fill:#080434;}.cls-4{fill:#0c054d;}.cls-5{fill:#100668;}.cls-6{clip-path:url(#clip-path);}.cls-7{fill:#858585;}.cls-8{clip-path:url(#clip-path-2);}.cls-9{fill:#8f8f8f;}.cls-10{fill:#8a8a8a;}.cls-11{fill:#8e8e8e;}.cls-12{clip-path:url(#clip-path-3);}.cls-13{clip-path:url(#clip-path-4);}.cls-14{clip-path:url(#clip-path-5);}.cls-15{clip-path:url(#clip-path-6);}.cls-16{clip-path:url(#clip-path-7);}.cls-17{clip-path:url(#clip-path-8);}.cls-18{clip-path:url(#clip-path-9);}.cls-19{fill:gray;}.cls-20{clip-path:url(#clip-path-10);}.cls-21{clip-path:url(#clip-path-11);}.cls-22{clip-path:url(#clip-path-12);}.cls-23{clip-path:url(#clip-path-13);}.cls-24{clip-path:url(#clip-path-14);}.cls-25{clip-path:url(#clip-path-15);}.cls-26{clip-path:url(#clip-path-16);}.cls-27{clip-path:url(#clip-path-17);}.cls-28{clip-path:url(#clip-path-18);}.cls-29{clip-path:url(#clip-path-19);}.cls-30{clip-path:url(#clip-path-20);}.cls-31{clip-path:url(#clip-path-21);}.cls-32{clip-path:url(#clip-path-22);}.cls-33{clip-path:url(#clip-path-23);}.cls-34{clip-path:url(#clip-path-24);}.cls-35{clip-path:url(#clip-path-25);}.cls-36{clip-path:url(#clip-path-26);}.cls-37{clip-path:url(#clip-path-27);}.cls-38{clip-path:url(#clip-path-28);}.cls-39{clip-path:url(#clip-path-29);}.cls-40{clip-path:url(#clip-path-30);}.cls-41{clip-path:url(#clip-path-31);}.cls-42{clip-path:url(#clip-path-32);}.cls-43{clip-path:url(#clip-path-33);}.cls-44{clip-path:url(#clip-path-34);}.cls-45{clip-path:url(#clip-path-35);}.cls-46{clip-path:url(#clip-path-36);}.cls-47{clip-path:url(#clip-path-37);}.cls-48{clip-path:url(#clip-path-38);}.cls-49{clip-path:url(#clip-path-39);}.cls-50{clip-path:url(#clip-path-40);}.cls-51{clip-path:url(#clip-path-41);}.cls-52{clip-path:url(#clip-path-42);}.cls-53{fill:#828282;}.cls-54{fill:#ececec;}.cls-55{clip-path:url(#clip-path-43);}</style><clipPath id="clip-path"><path class="cls-1" d="M60.39,61.4l-1.71-.06a8.63,8.63,0,0,0,.68-1.62c.09-.25.19-.52.29-.77l1.71.06c-.1.25-.2.52-.29.77A8.63,8.63,0,0,1,60.39,61.4Z"/></clipPath><clipPath id="clip-path-2"><path class="cls-1" d="M59.06,63,57.35,63c.3-.13.51-.44.83-.94.16-.24.32-.48.49-.7l1.71.06c-.18.22-.33.46-.49.7C59.57,62.6,59.37,62.91,59.06,63Z"/></clipPath><clipPath id="clip-path-3"><path class="cls-1" d="M55.18,64.57l-1.71-.06h.31a4.78,4.78,0,0,0,3.31-1.34l1.71.06a4.78,4.78,0,0,1-3.31,1.34Z"/></clipPath><clipPath id="clip-path-4"><path class="cls-1" d="M61.36,59l-1.71-.06c.36-1.36-.17-1.68-.37-1.8-2.61-1.6-5.1-3.34-7-4.68l1.71.06c1.87,1.34,4.35,3.07,7,4.68C61.19,57.33,61.73,57.65,61.36,59Z"/></clipPath><clipPath id="clip-path-5"><path class="cls-1" d="M54,52.53l-1.71-.06a7.05,7.05,0,0,1-.58-.44l1.71.06A7.05,7.05,0,0,0,54,52.53Z"/></clipPath><clipPath id="clip-path-6"><path class="cls-1" d="M50.1,51.35l1.71.06a2.73,2.73,0,0,1,1.64.69L51.74,52A2.73,2.73,0,0,0,50.1,51.35Z"/></clipPath><clipPath id="clip-path-7"><path class="cls-1" d="M55.1,66.68l-1.71-.06a7.6,7.6,0,0,1-.78-.07,18.94,18.94,0,0,1-4.47-1l1.71.06a18.94,18.94,0,0,0,4.47,1A7.6,7.6,0,0,0,55.1,66.68Z"/></clipPath><clipPath id="clip-path-8"><path class="cls-1" d="M49.85,65.65l-1.71-.06a1.93,1.93,0,0,1-.94-.32l1.71.06A1.93,1.93,0,0,0,49.85,65.65Z"/></clipPath><clipPath id="clip-path-9"><path class="cls-1" d="M48.91,65.34l-1.71-.06A8.51,8.51,0,0,1,45,64.41l1.71.06A8.51,8.51,0,0,0,48.91,65.34Z"/></clipPath><clipPath id="clip-path-10"><path class="cls-1" d="M46.28,64.25l-1.71-.06c-.39-.17-.79-.37-1.19-.58l1.71.06C45.49,63.87,45.89,64.07,46.28,64.25Z"/></clipPath><clipPath id="clip-path-11"><path class="cls-1" d="M45.18,52,43.46,52h.1a2.49,2.49,0,0,0,1.21-.38c.87-.5,1.71-1,2.55-1.53A5.2,5.2,0,0,1,50,49.23h.21l1.71.06h-.21a5.2,5.2,0,0,0-2.63.84c-.85.53-1.69,1-2.55,1.53a2.49,2.49,0,0,1-1.21.38Z"/></clipPath><clipPath id="clip-path-12"><path class="cls-1" d="M45.11,54.16,43.4,54.1a4.51,4.51,0,0,1-2.6-1,35.69,35.69,0,0,1-4.2-3.76l1.71.06a35.69,35.69,0,0,0,4.2,3.76A4.51,4.51,0,0,0,45.11,54.16Z"/></clipPath><clipPath id="clip-path-13"><path class="cls-1" d="M38,49.09,36.29,49a8.5,8.5,0,0,1-1.63-1.62c-.24-.29-.48-.59-.75-.86l1.71.06c.27.27.51.57.75.86A8.5,8.5,0,0,0,38,49.09Z"/></clipPath><clipPath id="clip-path-14"><path class="cls-1" d="M35.63,46.61l-1.71-.06a10.86,10.86,0,0,1-1.09-1.2l1.71.06A10.86,10.86,0,0,0,35.63,46.61Z"/></clipPath><clipPath id="clip-path-15"><path class="cls-1" d="M33.87,32.74l-1.71-.06a3.5,3.5,0,0,0-.28-1l1.71.06A3.5,3.5,0,0,1,33.87,32.74Z"/></clipPath><clipPath id="clip-path-16"><path class="cls-1" d="M32.85,35.82l-1.71-.06a7.4,7.4,0,0,1,.54-1.07,3.62,3.62,0,0,0,.48-2l1.71.06a3.62,3.62,0,0,1-.48,2A7.4,7.4,0,0,0,32.85,35.82Z"/></clipPath><clipPath id="clip-path-17"><path class="cls-1" d="M34.54,45.42l-1.71-.06c-.15-.19-.29-.36-.45-.54a16.83,16.83,0,0,1-1-1.36c-.22-.3-.44-.6-.67-.9l1.71.06c.23.29.45.6.67.9a16.83,16.83,0,0,0,1,1.36C34.25,45.05,34.39,45.23,34.54,45.42Z"/></clipPath><clipPath id="clip-path-18"><path class="cls-1" d="M32.51,36.5l-1.71-.06q.19-.34.35-.68l1.71.06Q32.69,36.16,32.51,36.5Z"/></clipPath><clipPath id="clip-path-19"><path class="cls-1" d="M32.37,42.62l-1.71-.06a2.22,2.22,0,0,1-.34-.53l1.71.06A2.22,2.22,0,0,0,32.37,42.62Z"/></clipPath><clipPath id="clip-path-20"><path class="cls-1" d="M44.53,63.38l-1.71-.06a61.72,61.72,0,0,1-7.07-4.79,51.82,51.82,0,0,1-6-5.54L31.5,53a51.82,51.82,0,0,0,6,5.54A61.72,61.72,0,0,0,44.53,63.38Z"/></clipPath><clipPath id="clip-path-21"><path class="cls-1" d="M31.58,38.69l-1.71-.06a3.26,3.26,0,0,1,.13-.45,13.92,13.92,0,0,1,.8-1.74l1.71.06a13.92,13.92,0,0,0-.8,1.74A3.26,3.26,0,0,0,31.58,38.69Z"/></clipPath><clipPath id="clip-path-22"><path class="cls-1" d="M31.33,52.88l-1.71-.06-.27-.28,1.71.06Z"/></clipPath><clipPath id="clip-path-23"><path class="cls-1" d="M32,42.09,30.33,42c-.06-.12-.11-.24-.16-.37a4.49,4.49,0,0,1-.3-3l1.71.06a4.49,4.49,0,0,0,.3,3C31.93,41.84,32,42,32,42.09Z"/></clipPath><clipPath id="clip-path-24"><path class="cls-1" d="M33.59,31.72l-1.71-.06-1-1.38c-.43-.6-.85-1.2-1.26-1.82l1.71.06c.4.62.83,1.22,1.26,1.82Z"/></clipPath><clipPath id="clip-path-25"><path class="cls-1" d="M31.22,28.29l-1.71-.06c-.46-.69-.93-1.41-1.34-2.18l1.71.06C30.29,26.88,30.76,27.6,31.22,28.29Z"/></clipPath><clipPath id="clip-path-26"><path class="cls-1" d="M30.75,52.3,29,52.24c-.31-.37-.63-.74-.94-1.1-.47-.55-1-1.09-1.4-1.67l1.71.06c.45.58.93,1.12,1.4,1.67C30.13,51.56,30.44,51.92,30.75,52.3Z"/></clipPath><clipPath id="clip-path-27"><path class="cls-1" d="M29.88,26.1,28.16,26c-.17-.29-.36-.6-.55-.91-.32-.51-.65-1-.93-1.59l1.71.06c.29.56.61,1.09.93,1.59C29.51,25.51,29.7,25.81,29.88,26.1Z"/></clipPath><clipPath id="clip-path-28"><path class="cls-1" d="M28.25,23.39l-1.71-.06a1.85,1.85,0,0,0-.33-.43l1.71.06A1.85,1.85,0,0,1,28.25,23.39Z"/></clipPath><clipPath id="clip-path-29"><path class="cls-1" d="M26.27,20.79l1.71.06h-.07l-1.71-.06Z"/></clipPath><clipPath id="clip-path-30"><path class="cls-1" d="M25.58,22.83l1.71.06a.74.74,0,0,1,.21,0l-1.71-.06A.74.74,0,0,0,25.58,22.83Z"/></clipPath><clipPath id="clip-path-31"><path class="cls-1" d="M25.7,21.14,24,21.08a4.47,4.47,0,0,1,1.53-.37l1.71.06A4.47,4.47,0,0,0,25.7,21.14Z"/></clipPath><clipPath id="clip-path-32"><path class="cls-1" d="M25.65,20.71l1.71.06h-.14l-1.71-.06Z"/></clipPath><clipPath id="clip-path-33"><path class="cls-1" d="M28.41,49.53l-1.71-.06-1.52-2.08-1.48-2,1.71.06,1.48,2Z"/></clipPath><clipPath id="clip-path-34"><path class="cls-1" d="M25.21,21.31l-1.71-.06.49-.17,1.71.06Z"/></clipPath><clipPath id="clip-path-35"><path class="cls-1" d="M25.31,45.26l-1.71-.06a17.85,17.85,0,0,0-.95-1.63c-.26-.41-.53-.83-.76-1.26l1.71.06c.23.43.5.85.76,1.26A17.85,17.85,0,0,1,25.31,45.26Z"/></clipPath><clipPath id="clip-path-36"><path class="cls-1" d="M23.6,42.38l-1.71-.06c-.23-.5-.46-.9-.7-1.33L22.9,41C23.14,41.48,23.37,41.88,23.6,42.38Z"/></clipPath><clipPath id="clip-path-37"><path class="cls-1" d="M22.9,41,21.19,41a13.78,13.78,0,0,1-.72-1.33l1.71.06A13.78,13.78,0,0,0,22.9,41Z"/></clipPath><clipPath id="clip-path-38"><path class="cls-1" d="M22.73,22.68,21,22.62a4.17,4.17,0,0,1,2.48-1.38l1.71.06A4.17,4.17,0,0,0,22.73,22.68Z"/></clipPath><clipPath id="clip-path-39"><path class="cls-1" d="M22.18,39.72l-1.71-.06a7.44,7.44,0,0,0-.5-1.14l1.71.06A7.44,7.44,0,0,1,22.18,39.72Z"/></clipPath><clipPath id="clip-path-40"><path class="cls-1" d="M20.48,25.11,18.77,25A13.27,13.27,0,0,1,21,22.62l1.71.06A13.27,13.27,0,0,0,20.48,25.11Z"/></clipPath><clipPath id="clip-path-41"><path class="cls-1" d="M21.69,38.58,20,38.52c-.13-.27-.27-.54-.38-.81a34.71,34.71,0,0,1-1.71-5c0-.13-.05-.28-.08-.43a1.86,1.86,0,0,0-.06-.31l1.71.06a1.86,1.86,0,0,1,.06.31c0,.15.05.31.08.43a34.71,34.71,0,0,0,1.71,5C21.42,38,21.56,38.31,21.69,38.58Z"/></clipPath><clipPath id="clip-path-42"><path class="cls-1" d="M19.42,27.2l-1.71-.06A3.84,3.84,0,0,1,18.77,25l1.71.06A3.84,3.84,0,0,0,19.42,27.2Z"/></clipPath><clipPath id="clip-path-43"><path class="cls-1" d="M19.34,31.18l-1.71-.06a10.12,10.12,0,0,1,0-3.8l1.71.06A10.12,10.12,0,0,0,19.34,31.18Z"/></clipPath></defs><title>Asset 11</title><g id="Layer_2" data-name="Layer 2"><g id="Layer_1-2" data-name="Layer 1"><g class="cls-2"><polygon class="cls-3" points="71.41 73.18 63.79 69.04 63.92 1.61 71.53 5.76 71.41 73.18"/><polygon class="cls-4" points="8.94 81.96 1.32 77.82 63.79 69.04 71.41 73.18 8.94 81.96"/><polygon class="cls-4" points="9.06 14.54 1.45 10.39 63.92 1.61 71.53 5.76 9.06 14.54"/><polygon class="cls-3" points="8.94 81.96 1.32 77.82 1.45 10.39 9.06 14.54 8.94 81.96"/><path class="cls-5" d="M7.75,13.29,72.86,4.14l-.13,70.28L7.61,83.57ZM71.41,73.18l.13-67.42L9.06,14.54,8.94,82l62.47-8.78"/><polygon class="cls-5" points="71.53 5.76 71.41 73.18 8.94 81.96 9.06 14.54 71.53 5.76"/><polygon class="cls-3" points="7.62 83.57 0 79.43 0.13 9.15 7.75 13.29 7.62 83.57"/><polygon class="cls-4" points="7.75 13.29 0.13 9.15 65.24 0 72.86 4.14 7.75 13.29"/></g><g class="cls-2"><g class="cls-2"><g class="cls-6"><g class="cls-2"><path class="cls-7" d="M60.39,61.4l-1.71-.06a8.63,8.63,0,0,0,.68-1.62c.09-.25.19-.52.29-.77l1.71.06c-.1.25-.2.52-.29.77a8.63,8.63,0,0,1-.68,1.62"/></g></g></g><g class="cls-2"><g class="cls-8"><g class="cls-2"><path class="cls-9" d="M59.06,63,57.35,63h0l1.71.06h0"/><path class="cls-10" d="M59.09,63,57.38,63a1,1,0,0,0,.27-.19l1.71.06a1,1,0,0,1-.27.19"/><path class="cls-7" d="M59.36,62.84l-1.71-.06a4.52,4.52,0,0,0,.54-.74c.16-.24.32-.48.49-.7l1.71.06c-.18.22-.33.46-.49.7a4.52,4.52,0,0,1-.54.74"/></g></g></g><polygon class="cls-11" points="58.91 63.12 57.2 63.06 57.35 62.99 59.06 63.04 58.91 63.12"/><polygon class="cls-10" points="58.8 63.23 57.08 63.17 57.2 63.06 58.91 63.12 58.8 63.23"/><g class="cls-2"><g class="cls-12"><g class="cls-2"><path class="cls-9" d="M55.18,64.57l-1.71-.06h.31a4.86,4.86,0,0,0,2-.45l1.71.06a4.86,4.86,0,0,1-2,.45h-.31"/><path class="cls-10" d="M57.51,64.12l-1.71-.06a5,5,0,0,0,1.29-.89l1.71.06a5,5,0,0,1-1.29.89"/></g></g></g><g class="cls-2"><g class="cls-13"><g class="cls-2"><path class="cls-7" d="M61.36,59l-1.71-.06c.36-1.36-.17-1.68-.37-1.8-2.61-1.6-5.1-3.34-7-4.68l1.71.06c1.87,1.34,4.35,3.07,7,4.68.2.12.73.45.37,1.8"/></g></g></g><g class="cls-2"><g class="cls-14"><g class="cls-2"><path class="cls-7" d="M54,52.53l-1.71-.06a7.05,7.05,0,0,1-.58-.44l1.71.06a7.05,7.05,0,0,0,.58.44"/></g></g></g><g class="cls-2"><g class="cls-15"><g class="cls-2"><path class="cls-7" d="M53.45,52.09,51.74,52a2.73,2.73,0,0,0-1.64-.69l1.71.06a2.73,2.73,0,0,1,1.64.69"/></g></g></g><g class="cls-2"><g class="cls-16"><g class="cls-2"><path class="cls-7" d="M55.1,66.68l-1.71-.06a7.6,7.6,0,0,1-.78-.07,18.94,18.94,0,0,1-4.47-1l1.71.06a18.94,18.94,0,0,0,4.47,1,7.6,7.6,0,0,0,.78.07"/></g></g></g><g class="cls-2"><g class="cls-17"><g class="cls-2"><path class="cls-7" d="M49.85,65.65l-1.71-.06a1.93,1.93,0,0,1-.94-.32l1.71.06a1.93,1.93,0,0,0,.94.32"/></g></g></g><g class="cls-2"><g class="cls-18"><g class="cls-2"><path class="cls-7" d="M48.91,65.34l-1.71-.06A8.51,8.51,0,0,1,45,64.41l1.71.06a8.51,8.51,0,0,0,2.21.87"/></g></g></g><polygon class="cls-19" points="46.7 64.47 44.99 64.41 44.57 64.19 46.28 64.25 46.7 64.47"/><g class="cls-2"><g class="cls-20"><g class="cls-2"><path class="cls-7" d="M46.28,64.25l-1.71-.06c-.39-.17-.79-.37-1.19-.58l1.71.06c.4.21.8.41,1.19.58"/></g></g></g><g class="cls-2"><g class="cls-21"><g class="cls-2"><path class="cls-9" d="M45.18,52,43.46,52h.1a2.29,2.29,0,0,0,.94-.24l1.71.06a2.29,2.29,0,0,1-.94.24h-.1"/><path class="cls-10" d="M46.22,51.8l-1.71-.06.27-.14c.87-.5,1.71-1,2.55-1.53a6.64,6.64,0,0,1,.64-.35l1.71.06a6.64,6.64,0,0,0-.64.35c-.85.53-1.69,1-2.55,1.53l-.27.14"/><path class="cls-9" d="M49.68,49.78,48,49.73a4.85,4.85,0,0,1,2-.49h.21l1.71.06h-.21a4.85,4.85,0,0,0-2,.49"/></g></g></g><polygon class="cls-19" points="45.09 63.66 43.38 63.61 42.82 63.32 44.53 63.38 45.09 63.66"/><g class="cls-2"><g class="cls-22"><g class="cls-2"><path class="cls-7" d="M45.11,54.16,43.4,54.1a4.51,4.51,0,0,1-2.6-1,35.69,35.69,0,0,1-4.2-3.76l1.71.06a35.69,35.69,0,0,0,4.2,3.76,4.51,4.51,0,0,0,2.6,1"/></g></g></g><polygon class="cls-19" points="38.3 49.38 36.59 49.32 36.41 49.15 38.13 49.21 38.3 49.38"/><polygon class="cls-19" points="38.13 49.21 36.41 49.15 36.29 49.03 38.01 49.09 38.13 49.21"/><g class="cls-2"><g class="cls-23"><g class="cls-2"><path class="cls-7" d="M38,49.09,36.29,49a8.5,8.5,0,0,1-1.63-1.62c-.24-.29-.48-.59-.75-.86l1.71.06c.27.27.51.57.75.86A8.5,8.5,0,0,0,38,49.09"/></g></g></g><g class="cls-2"><g class="cls-24"><g class="cls-2"><path class="cls-7" d="M35.63,46.61l-1.71-.06a10.86,10.86,0,0,1-1.09-1.2l1.71.06a10.86,10.86,0,0,0,1.09,1.2"/></g></g></g><g class="cls-2"><g class="cls-25"><g class="cls-2"><path class="cls-7" d="M33.87,32.74l-1.71-.06a3.5,3.5,0,0,0-.28-1l1.71.06a3.5,3.5,0,0,1,.28,1"/></g></g></g><g class="cls-2"><g class="cls-26"><g class="cls-2"><path class="cls-7" d="M32.85,35.82l-1.71-.06a7.4,7.4,0,0,1,.54-1.07,3.62,3.62,0,0,0,.48-2l1.71.06a3.62,3.62,0,0,1-.48,2,7.4,7.4,0,0,0-.54,1.07"/></g></g></g><g class="cls-2"><g class="cls-27"><g class="cls-2"><path class="cls-7" d="M34.54,45.42l-1.71-.06c-.15-.19-.29-.36-.45-.54a16.83,16.83,0,0,1-1-1.36c-.22-.3-.44-.6-.67-.9l1.71.06c.23.29.45.6.67.9a16.83,16.83,0,0,0,1,1.36c.15.18.3.35.45.54"/></g></g></g><g class="cls-2"><g class="cls-28"><g class="cls-2"><path class="cls-7" d="M32.51,36.5l-1.71-.06q.19-.34.35-.68l1.71.06q-.16.34-.35.68"/></g></g></g><g class="cls-2"><g class="cls-29"><g class="cls-2"><path class="cls-7" d="M32.37,42.62l-1.71-.06a2.22,2.22,0,0,1-.34-.53l1.71.06a2.22,2.22,0,0,0,.34.53"/></g></g></g><g class="cls-2"><g class="cls-30"><g class="cls-2"><path class="cls-7" d="M44.53,63.38l-1.71-.06a61.72,61.72,0,0,1-7.07-4.79,51.82,51.82,0,0,1-6-5.54L31.5,53a51.82,51.82,0,0,0,6,5.54,61.72,61.72,0,0,0,7.07,4.79"/></g></g></g><polygon class="cls-19" points="31.5 53.05 29.79 52.99 29.62 52.82 31.33 52.88 31.5 53.05"/><g class="cls-2"><g class="cls-31"><g class="cls-2"><path class="cls-7" d="M31.58,38.69l-1.71-.06a3.26,3.26,0,0,1,.13-.45,13.92,13.92,0,0,1,.8-1.74l1.71.06a13.92,13.92,0,0,0-.8,1.74,3.26,3.26,0,0,0-.13.45"/></g></g></g><g class="cls-2"><g class="cls-32"><g class="cls-2"><path class="cls-7" d="M31.33,52.88l-1.71-.06-.27-.28,1.71.06.27.28"/></g></g></g><polygon class="cls-19" points="31.06 52.6 29.35 52.54 29.18 52.37 30.89 52.43 31.06 52.6"/><g class="cls-2"><g class="cls-33"><g class="cls-2"><path class="cls-7" d="M32,42.09,30.33,42c-.06-.12-.11-.24-.16-.37a4.49,4.49,0,0,1-.3-3l1.71.06a4.49,4.49,0,0,0,.3,3c.05.13.1.25.16.37"/></g></g></g><polygon class="cls-19" points="30.89 52.43 29.18 52.37 29.04 52.24 30.75 52.3 30.89 52.43"/><g class="cls-2"><g class="cls-34"><g class="cls-2"><path class="cls-7" d="M33.59,31.72l-1.71-.06-1-1.38c-.43-.6-.85-1.2-1.26-1.82l1.71.06c.4.62.83,1.22,1.26,1.82l1,1.38"/></g></g></g><polygon class="cls-19" points="31.38 28.52 29.66 28.46 29.51 28.23 31.22 28.29 31.38 28.52"/><g class="cls-2"><g class="cls-35"><g class="cls-2"><path class="cls-7" d="M31.22,28.29l-1.71-.06c-.46-.69-.93-1.41-1.34-2.18l1.71.06c.41.78.89,1.5,1.34,2.18"/></g></g></g><g class="cls-2"><g class="cls-36"><g class="cls-2"><path class="cls-7" d="M30.75,52.3,29,52.24c-.31-.37-.63-.74-.94-1.1-.47-.55-1-1.09-1.4-1.67l1.71.06c.45.58.93,1.12,1.4,1.67.32.36.63.73.94,1.1"/></g></g></g><g class="cls-2"><g class="cls-37"><g class="cls-2"><path class="cls-7" d="M29.88,26.1,28.16,26c-.17-.29-.36-.6-.55-.91-.32-.51-.65-1-.93-1.59l1.71.06c.29.56.61,1.09.93,1.59.19.31.38.61.55.91"/></g></g></g><polygon class="cls-19" points="28.39 23.6 26.68 23.54 26.54 23.33 28.25 23.39 28.39 23.6"/><g class="cls-2"><g class="cls-38"><g class="cls-2"><path class="cls-7" d="M28.25,23.39l-1.71-.06a1.85,1.85,0,0,0-.33-.43l1.71.06a1.85,1.85,0,0,1,.33.43"/></g></g></g><g class="cls-2"><g class="cls-39"><g class="cls-2"><path class="cls-9" d="M27.91,20.85l-1.71-.06h.07l1.71.06h-.07"/></g></g></g><polygon class="cls-19" points="27.73 22.98 26.02 22.93 25.79 22.87 27.5 22.92 27.73 22.98"/><g class="cls-2"><g class="cls-40"><g class="cls-2"><path class="cls-7" d="M27.5,22.92l-1.71-.06a.74.74,0,0,0-.21,0l1.71.06a.74.74,0,0,1,.21,0"/></g></g></g><g class="cls-2"><g class="cls-41"><g class="cls-2"><path class="cls-9" d="M25.7,21.14,24,21.08a4.47,4.47,0,0,1,1.53-.37l1.71.06a4.47,4.47,0,0,0-1.53.37"/></g></g></g><g class="cls-2"><g class="cls-42"><g class="cls-2"><path class="cls-9" d="M27.22,20.77l-1.71-.06h.14l1.71.06h-.14"/></g></g></g><g class="cls-2"><g class="cls-43"><g class="cls-2"><path class="cls-7" d="M28.41,49.53l-1.71-.06-1.52-2.08-1.48-2,1.71.06,1.48,2,1.52,2.08"/></g></g></g><polygon class="cls-19" points="25.41 45.42 23.7 45.37 23.6 45.21 25.31 45.26 25.41 45.42"/><g class="cls-2"><g class="cls-44"><g class="cls-2"><path class="cls-9" d="M25.21,21.31l-1.71-.06.49-.17,1.71.06-.49.17"/></g></g></g><g class="cls-2"><g class="cls-45"><g class="cls-2"><path class="cls-7" d="M25.31,45.26l-1.71-.06a17.85,17.85,0,0,0-.95-1.63c-.26-.41-.53-.83-.76-1.26l1.71.06c.23.43.5.85.76,1.26a17.85,17.85,0,0,1,.95,1.63"/></g></g></g><g class="cls-2"><g class="cls-46"><g class="cls-2"><path class="cls-7" d="M23.6,42.38l-1.71-.06c-.23-.5-.46-.9-.7-1.33L22.9,41c.24.43.47.83.7,1.33"/></g></g></g><g class="cls-2"><g class="cls-47"><g class="cls-2"><path class="cls-7" d="M22.9,41,21.19,41a13.78,13.78,0,0,1-.72-1.33l1.71.06A13.78,13.78,0,0,0,22.9,41"/></g></g></g><g class="cls-2"><g class="cls-48"><g class="cls-2"><path class="cls-10" d="M22.73,22.68,21,22.62a5.46,5.46,0,0,1,1.45-1.09l1.71.06a5.46,5.46,0,0,0-1.45,1.09"/><path class="cls-9" d="M24.18,21.6l-1.71-.06a3.08,3.08,0,0,1,1-.29l1.71.06a3.08,3.08,0,0,0-1,.29"/></g></g></g><g class="cls-2"><g class="cls-49"><g class="cls-2"><path class="cls-7" d="M22.18,39.72l-1.71-.06a7.44,7.44,0,0,0-.5-1.14l1.71.06a7.44,7.44,0,0,1,.5,1.14"/></g></g></g><g class="cls-2"><g class="cls-50"><g class="cls-2"><path class="cls-7" d="M20.48,25.11,18.77,25a11.67,11.67,0,0,1,1.42-1.66l1.71.06a11.67,11.67,0,0,0-1.42,1.66"/><path class="cls-10" d="M21.9,23.45l-1.71-.06c.25-.25.53-.5.83-.76l1.71.06c-.3.26-.58.52-.83.76"/></g></g></g><g class="cls-2"><g class="cls-51"><g class="cls-2"><path class="cls-7" d="M21.69,38.58,20,38.52c-.13-.27-.27-.54-.38-.81a34.71,34.71,0,0,1-1.71-5c0-.13-.05-.28-.08-.43a1.86,1.86,0,0,0-.06-.31l1.71.06a1.86,1.86,0,0,1,.06.31c0,.15.05.31.08.43a34.71,34.71,0,0,0,1.71,5c.11.28.25.54.38.81"/></g></g></g><polygon class="cls-19" points="19.45 31.97 17.74 31.92 17.7 31.69 19.41 31.75 19.45 31.97"/><polygon class="cls-19" points="19.41 31.75 17.7 31.69 17.63 31.13 19.34 31.18 19.41 31.75"/><g class="cls-2"><g class="cls-52"><g class="cls-2"><path class="cls-7" d="M19.42,27.2l-1.71-.06a4,4,0,0,1,1-2l1.71.06a4,4,0,0,0-1,2"/><path class="cls-10" d="M20.38,25.2l-1.71-.06.1-.1,1.71.06-.1.1"/></g></g></g><polygon class="cls-53" points="19.37 27.39 17.66 27.33 17.71 27.14 19.42 27.2 19.37 27.39"/><path class="cls-54" d="M62,55.37c1.35.81,1.81,2.37,1.27,4.29-.13.34-.22.6-.3.85A9.92,9.92,0,0,1,62,62.62c-.22.28-.34.48-.47.67A4.3,4.3,0,0,1,60,64.92a6.73,6.73,0,0,1-4.5,1.77,7.72,7.72,0,0,1-1.18-.07,18.94,18.94,0,0,1-4.47-1,1.93,1.93,0,0,1-.94-.32,8.51,8.51,0,0,1-2.21-.87l-.42-.22c-.39-.17-.79-.37-1.19-.58l-.56-.29a61.72,61.72,0,0,1-7.07-4.79,51.82,51.82,0,0,1-6-5.54l-.16-.17-.27-.28-.17-.17-.14-.13c-.31-.37-.63-.74-.94-1.1-.47-.55-1-1.09-1.4-1.67l-1.52-2.08-1.48-2-.1-.16a17.85,17.85,0,0,0-.95-1.63c-.26-.41-.53-.83-.76-1.26s-.46-.9-.7-1.33a13.78,13.78,0,0,1-.72-1.33,7.44,7.44,0,0,0-.5-1.14c-.13-.27-.27-.54-.38-.81a34.71,34.71,0,0,1-1.71-5c0-.13-.05-.28-.08-.43a1.86,1.86,0,0,0-.06-.31l0-.22-.07-.57a10.12,10.12,0,0,1,0-3.8l0-.19a3.84,3.84,0,0,1,1.07-2.09,13.27,13.27,0,0,1,2.25-2.42,4.17,4.17,0,0,1,2.48-1.38l.49-.17a4.47,4.47,0,0,1,1.53-.37,2.62,2.62,0,0,1,.69.08,2.38,2.38,0,0,1,2,1.32l.23.36c.25.5.55,1,.86,1.49.21.33.41.66.61,1,.38.72.81,1.36,1.26,2l.15.23c.4.6.81,1.18,1.22,1.77s.68,1,1,1.46a5.67,5.67,0,0,1,.61,2A6,6,0,0,1,35,35.93a6.37,6.37,0,0,0-.35.71c-.18.39-.31.64-.44.88A12.53,12.53,0,0,0,33.57,39c0,.08,0,.16-.07.27a2.2,2.2,0,0,0,.17,1.55l.11.28.84,1.16a14.85,14.85,0,0,0,.93,1.2c.17.2.33.4.5.6a11.32,11.32,0,0,0,.9,1,11,11,0,0,1,.93,1,6.73,6.73,0,0,0,1.21,1.24l.25.19a5.08,5.08,0,0,1,.38.36,33.74,33.74,0,0,0,4,3.56,2.55,2.55,0,0,0,1.59.62,2.49,2.49,0,0,0,1.21-.38c.87-.5,1.71-1,2.55-1.53a5.2,5.2,0,0,1,2.63-.84,4.56,4.56,0,0,1,3,1.12,4,4,0,0,0,.45.33C57,52.09,59.42,53.8,62,55.37ZM61.36,59c.36-1.36-.17-1.68-.37-1.8-2.61-1.6-5.1-3.34-7-4.68a7.05,7.05,0,0,1-.58-.44,2.67,2.67,0,0,0-1.75-.69A3.29,3.29,0,0,0,50,52c-.86.53-1.72,1-2.6,1.55a4.35,4.35,0,0,1-2.13.64,4.43,4.43,0,0,1-2.79-1,35.69,35.69,0,0,1-4.2-3.76l-.18-.17L38,49.09a8.5,8.5,0,0,1-1.63-1.62c-.24-.29-.48-.59-.75-.86a10.86,10.86,0,0,1-1.09-1.2c-.15-.19-.29-.36-.45-.54a16.83,16.83,0,0,1-1-1.36c-.22-.3-.44-.6-.67-.9a2.22,2.22,0,0,1-.34-.53c-.06-.12-.11-.24-.16-.37a4.49,4.49,0,0,1-.3-3,3.26,3.26,0,0,1,.13-.45,13.92,13.92,0,0,1,.8-1.74q.19-.34.35-.68a7.4,7.4,0,0,1,.54-1.07,3.62,3.62,0,0,0,.48-2,3.5,3.5,0,0,0-.28-1l-1-1.38c-.43-.6-.85-1.2-1.26-1.82l-.15-.23c-.46-.69-.93-1.41-1.34-2.18-.17-.29-.36-.6-.55-.91-.32-.51-.65-1-.93-1.59l-.14-.21a1.85,1.85,0,0,0-.33-.43l-.19,0-.23-.06a.76.76,0,0,0-.26,0,2.84,2.84,0,0,0-.89.25c-.25.09-.51.18-.76.25l-.18,0c-.49,0-.88.38-1.39.87a11.4,11.4,0,0,0-2,2.18l-.09.14-.13.1c-.23.17-.31.49-.44,1l-.06.2a8.33,8.33,0,0,0,0,3l.06.48a4.7,4.7,0,0,1,.11.52l.05.28a32.05,32.05,0,0,0,1.6,4.72c.09.21.2.45.31.67A9.78,9.78,0,0,1,24,38.83c.17.37.37.73.6,1.11s.51.9.73,1.39.45.75.68,1.11c.34.55.7,1.12,1,1.74l1.44,2,1.5,2c.41.52.87,1,1.31,1.55l.93,1.08.21.21.33.34.15.17a50.93,50.93,0,0,0,5.74,5.34,61.89,61.89,0,0,0,6.79,4.61l.54.27c.37.19.74.38,1.12.56l.47.23a6,6,0,0,0,1.93.73l.42.06.14.2a2.11,2.11,0,0,1,.51.13,17.24,17.24,0,0,0,4,.85,6.53,6.53,0,0,0,.93.05,4.78,4.78,0,0,0,3.31-1.34l.12-.11.15-.07c.3-.13.51-.44.83-.94.16-.24.32-.48.49-.7a8.63,8.63,0,0,0,.68-1.62c.09-.25.19-.52.29-.77"/><g class="cls-2"><g class="cls-55"><g class="cls-2"><path class="cls-7" d="M19.34,31.18l-1.71-.06a10.12,10.12,0,0,1,0-3.8l1.71.06a10.12,10.12,0,0,0,0,3.8"/></g></g></g></g></g></g></svg>