<svg xmlns="http://www.w3.org/2000/svg" viewBox="0 0 70.27 80.42"><defs><style>.cls-1{isolation:isolate;}.cls-2{fill:#69630e;}.cls-3{fill:#9f9d0f;}.cls-4{fill:#cbcf0a;}</style></defs><title>Asset 15</title><g id="Layer_2" data-name="Layer 2"><g id="Layer_1-2" data-name="Layer 1"><g class="cls-1"><polygon class="cls-2" points="68.82 70.39 61.21 66.25 61.33 1.61 68.94 5.75 68.82 70.39"/><polygon class="cls-3" points="8.94 78.8 1.33 74.66 61.21 66.25 68.82 70.39 8.94 78.8"/><polygon class="cls-3" points="9.06 14.17 1.45 10.03 61.33 1.61 68.94 5.75 9.06 14.17"/><polygon class="cls-2" points="8.94 78.8 1.33 74.66 1.45 10.03 9.06 14.17 8.94 78.8"/><path class="cls-4" d="M7.74,12.93,70.27,4.14l-.13,67.49L7.61,80.42ZM68.82,70.39l.12-64.64L9.06,14.17,8.94,78.8l59.88-8.42"/><polygon class="cls-4" points="68.94 5.75 68.82 70.39 8.94 78.8 9.06 14.17 68.94 5.75"/><polygon class="cls-2" points="7.62 80.42 0 76.27 0.13 8.79 7.74 12.93 7.62 80.42"/><polygon class="cls-3" points="7.74 12.93 0.13 8.79 62.65 0 70.27 4.14 7.74 12.93"/></g></g></g></svg>