<svg xmlns="http://www.w3.org/2000/svg" xmlns:xlink="http://www.w3.org/1999/xlink" viewBox="0 0 79.98 92.25"><defs><style>.cls-1{fill:none;}.cls-2{isolation:isolate;}.cls-3{fill:#182d0d;}.cls-4{fill:#194516;}.cls-5{fill:#1d5e1d;}.cls-6{clip-path:url(#clip-path);}.cls-7{fill:#858585;}.cls-8{fill:gray;}.cls-9{fill:#878787;}.cls-10{clip-path:url(#clip-path-2);}.cls-11{fill:#8f8f8f;}.cls-12{fill:#8a8a8a;}.cls-13{fill:#888;}.cls-14{clip-path:url(#clip-path-3);}.cls-15{clip-path:url(#clip-path-4);}.cls-16{clip-path:url(#clip-path-5);}.cls-17{clip-path:url(#clip-path-6);}.cls-18{clip-path:url(#clip-path-7);}.cls-19{fill:#ececec;}.cls-20{clip-path:url(#clip-path-8);}.cls-21{clip-path:url(#clip-path-9);}.cls-22{clip-path:url(#clip-path-10);}.cls-23{clip-path:url(#clip-path-11);}</style><clipPath id="clip-path"><path class="cls-1" d="M67.64,65,65.93,65a38.21,38.21,0,0,0,2.86-3.18l1.71.06A38.21,38.21,0,0,1,67.64,65Z"/></clipPath><clipPath id="clip-path-2"><path class="cls-1" d="M46.14,74.13l-1.71-.06h1.09c1.06,0,1.89-.11,2.44-.17a26.71,26.71,0,0,0,6.7-1.7,28.67,28.67,0,0,0,6.18-3A31.15,31.15,0,0,0,65.93,65l1.71.06a31.15,31.15,0,0,1-5.09,4.21,28.67,28.67,0,0,1-6.18,3,26.71,26.71,0,0,1-6.7,1.7c-.55.06-1.39.15-2.44.17Z"/></clipPath><clipPath id="clip-path-3"><path class="cls-1" d="M43.42,33.4l1.71.06a14.88,14.88,0,0,1,5,1A16,16,0,0,1,54,36.66a18.75,18.75,0,0,1,3.31,3.16,24.2,24.2,0,0,1,2.57,3.92C60.47,44.79,61,45.88,61.5,47l-1.71-.06c-.49-1.11-1-2.2-1.62-3.25a24.2,24.2,0,0,0-2.57-3.92A18.75,18.75,0,0,0,52.3,36.6a16,16,0,0,0-3.9-2.21A14.88,14.88,0,0,0,43.42,33.4Z"/></clipPath><clipPath id="clip-path-4"><path class="cls-1" d="M43.54,31.49l1.71.06H44l-1.71-.06h1.23Z"/></clipPath><clipPath id="clip-path-5"><path class="cls-1" d="M42.45,64.22l-1.71-.06h.59a18.94,18.94,0,0,0,5.52-1,23.3,23.3,0,0,0,4.48-2,26.08,26.08,0,0,0,5.85-4.75,31.4,31.4,0,0,0,3.63-4.55l1.71.06a31.4,31.4,0,0,1-3.63,4.55A26.08,26.08,0,0,1,53,61.26a23.3,23.3,0,0,1-4.48,2,18.94,18.94,0,0,1-5.52,1Z"/></clipPath><clipPath id="clip-path-6"><path class="cls-1" d="M41.92,64.21l-1.71-.06h.53l1.71.06Z"/></clipPath><clipPath id="clip-path-7"><path class="cls-1" d="M39.2,23.48l1.71.06a20.73,20.73,0,0,1,3.17.35,21.16,21.16,0,0,1,6.43,2.32,21.14,21.14,0,0,1,8.34,8.5,23.61,23.61,0,0,1,2.39,7.69l-1.71-.06a23.61,23.61,0,0,0-2.39-7.69,21.14,21.14,0,0,0-8.34-8.5,21.16,21.16,0,0,0-6.43-2.32A20.73,20.73,0,0,0,39.2,23.48Z"/></clipPath><clipPath id="clip-path-8"><path class="cls-1" d="M41.8,66.13l-1.71-.06A16.31,16.31,0,0,1,34.64,65a17.87,17.87,0,0,1-4.32-2.44,20.44,20.44,0,0,1-3.63-3.46,24.27,24.27,0,0,1-2.56-3.86l1.71.06a24.27,24.27,0,0,0,2.56,3.86A20.44,20.44,0,0,0,32,62.59,17.87,17.87,0,0,0,36.35,65,16.31,16.31,0,0,0,41.8,66.13Z"/></clipPath><clipPath id="clip-path-9"><path class="cls-1" d="M46.12,76.06,44.41,76A23.06,23.06,0,0,1,34,73.11a23.76,23.76,0,0,1-5.23-4A23.34,23.34,0,0,1,25,63.85a24.55,24.55,0,0,1-2.14-5.79A25.69,25.69,0,0,1,22.16,51l1.71.06a25.69,25.69,0,0,0,.66,7.06,24.55,24.55,0,0,0,2.14,5.79,23.34,23.34,0,0,0,3.83,5.26,23.76,23.76,0,0,0,5.23,4,23.06,23.06,0,0,0,10.4,2.89Z"/></clipPath><clipPath id="clip-path-10"><path class="cls-1" d="M23.72,43.68,22,43.62a33.74,33.74,0,0,1,3.2-3.89,27.65,27.65,0,0,1,6.25-5.05,24.7,24.7,0,0,1,4.83-2.17,20.44,20.44,0,0,1,6-1l1.71.06a20.44,20.44,0,0,0-6,1,24.7,24.7,0,0,0-4.83,2.17,27.65,27.65,0,0,0-6.25,5.05A33.74,33.74,0,0,0,23.72,43.68Z"/></clipPath><clipPath id="clip-path-11"><path class="cls-1" d="M39.29,21.57l1.71.06c-.41,0-.79,0-1.16,0-1.13,0-2,.12-2.61.18a28.91,28.91,0,0,0-7.11,1.79,30.85,30.85,0,0,0-6.53,3.2,32,32,0,0,0-5.38,4.45,39.9,39.9,0,0,0-3.54,4L13,35.19a39.9,39.9,0,0,1,3.54-4,32,32,0,0,1,5.38-4.45,30.85,30.85,0,0,1,6.53-3.2,28.91,28.91,0,0,1,7.11-1.79c.59-.07,1.48-.17,2.61-.18C38.49,21.55,38.88,21.55,39.29,21.57Z"/></clipPath></defs><title>Asset 7</title><g id="Layer_2" data-name="Layer 2"><g id="Layer_1-2" data-name="Layer 1"><g class="cls-2"><polygon class="cls-3" points="78.52 80.85 70.9 76.71 71.04 1.61 78.66 5.75 78.52 80.85"/><polygon class="cls-4" points="8.94 90.63 1.32 86.49 70.9 76.71 78.52 80.85 8.94 90.63"/><polygon class="cls-4" points="9.08 15.53 1.46 11.39 71.04 1.61 78.66 5.75 9.08 15.53"/><polygon class="cls-3" points="8.94 90.63 1.32 86.49 1.46 11.39 9.08 15.53 8.94 90.63"/><path class="cls-5" d="M7.76,14.29,80,4.14l-.14,78L7.61,92.25ZM78.52,80.85l.14-75.1L9.08,15.53l-.14,75.1,69.58-9.78"/><polygon class="cls-5" points="78.66 5.75 78.52 80.85 8.94 90.63 9.08 15.53 78.66 5.75"/><polygon class="cls-3" points="7.62 92.25 0 88.1 0.14 10.15 7.76 14.29 7.62 92.25"/><polygon class="cls-4" points="7.76 14.29 0.14 10.15 72.37 0 79.98 4.14 7.76 14.29"/></g><g class="cls-2"><g class="cls-2"><g class="cls-6"><g class="cls-2"><path class="cls-7" d="M67.64,65,65.93,65a38.21,38.21,0,0,0,2.86-3.18l1.71.06A38.21,38.21,0,0,1,67.64,65"/></g></g></g><polygon class="cls-8" points="70.49 61.86 68.78 61.8 61.65 53.94 63.36 53.99 70.49 61.86"/><polygon class="cls-9" points="62.52 51.96 60.81 51.9 61.44 50.94 63.15 51 62.52 51.96"/><polygon class="cls-8" points="63.05 50.53 61.34 50.47 59.79 46.93 61.5 46.99 63.05 50.53"/><g class="cls-2"><g class="cls-10"><g class="cls-2"><path class="cls-11" d="M46.14,74.13l-1.71-.06h1.09c1.06,0,1.89-.11,2.44-.17a26.71,26.71,0,0,0,6.7-1.7c.74-.27,1.77-.65,3-1.22l1.71.06c-1.21.57-2.23.95-3,1.22a26.71,26.71,0,0,1-6.7,1.7c-.55.06-1.39.15-2.44.17H46.14"/><path class="cls-12" d="M59.34,71.05,57.63,71a26.72,26.72,0,0,0,3.21-1.8,30.29,30.29,0,0,0,4.76-3.89l1.71.06a30.29,30.29,0,0,1-4.76,3.89,26.72,26.72,0,0,1-3.21,1.8"/><path class="cls-7" d="M67.31,65.37l-1.71-.06.33-.32,1.71.06-.33.32"/></g></g></g><polygon class="cls-13" points="44.54 56.83 42.83 56.78 49.76 48.24 51.47 48.3 44.54 56.83"/><g class="cls-2"><g class="cls-14"><g class="cls-2"><path class="cls-7" d="M61.5,47l-1.71-.06c-.49-1.11-1-2.2-1.62-3.25a24.2,24.2,0,0,0-2.57-3.92A18.75,18.75,0,0,0,52.3,36.6a16,16,0,0,0-3.9-2.21,14.88,14.88,0,0,0-5-1l1.71.06a14.88,14.88,0,0,1,5,1A16,16,0,0,1,54,36.66a18.75,18.75,0,0,1,3.31,3.16,24.2,24.2,0,0,1,2.57,3.92C60.47,44.79,61,45.88,61.5,47"/></g></g></g><g class="cls-2"><g class="cls-15"><g class="cls-2"><path class="cls-11" d="M44,31.53l-1.71-.06h1.23l1.71.06H44"/></g></g></g><polygon class="cls-8" points="51.47 48.3 49.76 48.24 41.92 40.75 43.63 40.81 51.47 48.3"/><g class="cls-2"><g class="cls-16"><g class="cls-2"><path class="cls-11" d="M42.45,64.22l-1.71-.06h.59a18.94,18.94,0,0,0,5.52-1,21.34,21.34,0,0,0,2.66-1.06l1.71.06a21.34,21.34,0,0,1-2.66,1.06,18.94,18.94,0,0,1-5.52,1h-.59"/><path class="cls-12" d="M51.22,62.21l-1.71-.06c.62-.29,1.23-.61,1.82-1a24.81,24.81,0,0,0,4.91-3.79l1.71.06A24.81,24.81,0,0,1,53,61.26c-.59.34-1.2.66-1.82,1"/><path class="cls-7" d="M58,57.47l-1.71-.06c.37-.37.69-.69.94-1a31.4,31.4,0,0,0,3.63-4.55l1.71.06a31.4,31.4,0,0,1-3.63,4.55c-.26.27-.57.59-.94,1"/></g></g></g><g class="cls-2"><g class="cls-17"><g class="cls-2"><path class="cls-11" d="M41.92,64.21l-1.71-.06h.53l1.71.06h-.53"/></g></g></g><g class="cls-2"><g class="cls-18"><g class="cls-2"><path class="cls-7" d="M61.24,42.4l-1.71-.06a23.61,23.61,0,0,0-2.39-7.69,21.14,21.14,0,0,0-8.34-8.5,21.16,21.16,0,0,0-6.43-2.32,20.73,20.73,0,0,0-3.17-.35l1.71.06a20.73,20.73,0,0,1,3.17.35,21.16,21.16,0,0,1,6.43,2.32,21.14,21.14,0,0,1,8.34,8.5,23.61,23.61,0,0,1,2.39,7.69"/></g></g></g><path class="cls-19" d="M43.48,38.07,54,48.12,44.7,59.57l-10.51-10Zm1.06,18.76,6.93-8.54-7.83-7.49L36.7,49.35l7.83,7.49"/><polygon class="cls-13" points="34.19 49.52 32.48 49.46 41.77 38.01 43.48 38.07 34.19 49.52"/><polygon class="cls-8" points="44.7 59.57 42.98 59.51 32.48 49.46 34.19 49.52 44.7 59.57"/><g class="cls-2"><g class="cls-20"><g class="cls-2"><path class="cls-7" d="M41.8,66.13l-1.71-.06A16.31,16.31,0,0,1,34.64,65a17.87,17.87,0,0,1-4.32-2.44,20.44,20.44,0,0,1-3.63-3.46,24.27,24.27,0,0,1-2.56-3.86l1.71.06a24.27,24.27,0,0,0,2.56,3.86A20.44,20.44,0,0,0,32,62.59,17.87,17.87,0,0,0,36.35,65a16.31,16.31,0,0,0,5.45,1.1"/></g></g></g><polygon class="cls-8" points="23.87 51.06 22.16 51 22.32 47.08 24.04 47.14 23.87 51.06"/><g class="cls-2"><g class="cls-21"><g class="cls-2"><path class="cls-7" d="M46.12,76.06,44.41,76A23.06,23.06,0,0,1,34,73.11a23.76,23.76,0,0,1-5.23-4A23.34,23.34,0,0,1,25,63.85a24.55,24.55,0,0,1-2.14-5.79A25.69,25.69,0,0,1,22.16,51l1.71.06a25.69,25.69,0,0,0,.66,7.06,24.55,24.55,0,0,0,2.14,5.79,23.34,23.34,0,0,0,3.83,5.26,23.76,23.76,0,0,0,5.23,4,23.06,23.06,0,0,0,10.4,2.89"/></g></g></g><path class="cls-19" d="M63.15,51l9.76,10.76-.51.67a42.1,42.1,0,0,1-3.53,4,32.8,32.8,0,0,1-5.38,4.45A31,31,0,0,1,57,74.09a28.85,28.85,0,0,1-7.1,1.8c-.59.06-1.48.16-2.61.18a22.7,22.7,0,0,1-4.56-.39,23,23,0,0,1-7-2.51,23.76,23.76,0,0,1-5.23-4,23.34,23.34,0,0,1-3.83-5.26,24.55,24.55,0,0,1-2.14-5.79,25.69,25.69,0,0,1-.66-7.06L24,47.14l1.55,3.55c.49,1.1,1,2.2,1.62,3.26a24.15,24.15,0,0,0,2.57,3.92A18.7,18.7,0,0,0,33.07,61,16,16,0,0,0,37,63.23a15.22,15.22,0,0,0,5.48,1H43a18.94,18.94,0,0,0,5.52-1,23.3,23.3,0,0,0,4.48-2,26.08,26.08,0,0,0,5.85-4.75A31.4,31.4,0,0,0,62.52,52Zm4.48,14a38.21,38.21,0,0,0,2.86-3.18L63.36,54a33,33,0,0,1-3.2,3.89,27.41,27.41,0,0,1-6.25,5.05,24.31,24.31,0,0,1-4.83,2.17,20.44,20.44,0,0,1-6,1h-.65A16.66,16.66,0,0,1,36.35,65,17.87,17.87,0,0,1,32,62.59a20.44,20.44,0,0,1-3.63-3.46,24.27,24.27,0,0,1-2.56-3.86A23.46,23.46,0,0,0,28.23,63a21.64,21.64,0,0,0,3.52,4.83,21.12,21.12,0,0,0,11.24,6,21.06,21.06,0,0,0,4.23.35c1.06,0,1.89-.11,2.44-.17a26.71,26.71,0,0,0,6.7-1.7,28.67,28.67,0,0,0,6.18-3A31.15,31.15,0,0,0,67.64,65"/><g class="cls-2"><g class="cls-22"><g class="cls-2"><path class="cls-7" d="M23.72,43.68,22,43.62a33.74,33.74,0,0,1,3.2-3.89c.27-.28.59-.61,1-1l1.71.06c-.39.38-.71.72-1,1a33.74,33.74,0,0,0-3.2,3.89"/><path class="cls-12" d="M27.9,38.8l-1.71-.06a26.31,26.31,0,0,1,5.28-4.06c.63-.37,1.29-.72,2-1l1.71.06c-.66.31-1.32.66-2,1A26.31,26.31,0,0,0,27.9,38.8"/><path class="cls-11" d="M35.13,33.71l-1.71-.06a23.35,23.35,0,0,1,2.87-1.14,20.44,20.44,0,0,1,6-1l1.71.06a20.44,20.44,0,0,0-6,1,23.35,23.35,0,0,0-2.87,1.14"/></g></g></g><g class="cls-2"><g class="cls-23"><g class="cls-2"><path class="cls-7" d="M14.68,35.25,13,35.19a39.9,39.9,0,0,1,3.54-4l.44-.43,1.71.06-.44.43a39.9,39.9,0,0,0-3.54,4"/><path class="cls-12" d="M18.66,30.8l-1.71-.06a31,31,0,0,1,4.94-4,29.05,29.05,0,0,1,3.46-1.94l1.71.06a29.05,29.05,0,0,0-3.46,1.94,31,31,0,0,0-4.94,4"/><path class="cls-11" d="M27.06,24.85l-1.71-.06c1.25-.59,2.3-1,3.06-1.26a28.91,28.91,0,0,1,7.11-1.79c.59-.07,1.48-.17,2.61-.18.36,0,.75,0,1.16,0l1.71.06c-.41,0-.79,0-1.16,0-1.13,0-2,.12-2.61.18a28.91,28.91,0,0,0-7.11,1.79c-.76.28-1.81.67-3.06,1.26"/></g></g></g><polygon class="cls-8" points="23.93 46.68 22.22 46.62 12.46 35.86 14.17 35.92 23.93 46.68"/><path class="cls-19" d="M62.56,39.55a26.12,26.12,0,0,1,.66,7.07l-.17,3.9L61.5,47c-.49-1.11-1-2.2-1.62-3.25a24.2,24.2,0,0,0-2.57-3.92A18.75,18.75,0,0,0,54,36.66a16,16,0,0,0-3.9-2.21,15.23,15.23,0,0,0-5.48-1H44a18.47,18.47,0,0,0-5.52,1,22.31,22.31,0,0,0-4.48,2,25.85,25.85,0,0,0-5.85,4.74,32.5,32.5,0,0,0-3.63,4.55l-.63,1L14.17,35.92l.51-.67a39.9,39.9,0,0,1,3.54-4,32,32,0,0,1,5.38-4.45,30.85,30.85,0,0,1,6.53-3.2,28.91,28.91,0,0,1,7.11-1.79c.59-.07,1.48-.17,2.61-.18A22.5,22.5,0,0,1,44.4,22a22.86,22.86,0,0,1,7,2.52,23.1,23.1,0,0,1,5.23,4,23.33,23.33,0,0,1,3.84,5.25A25.59,25.59,0,0,1,62.56,39.55Zm-3.89-1a24.67,24.67,0,0,1,2.56,3.86,23.61,23.61,0,0,0-2.39-7.69,21.14,21.14,0,0,0-8.34-8.5,21.16,21.16,0,0,0-6.43-2.32,20.8,20.8,0,0,0-4.25-.36c-1,0-1.88.11-2.43.17a26.7,26.7,0,0,0-6.7,1.7,28.85,28.85,0,0,0-6.18,3,30.63,30.63,0,0,0-5.09,4.22,38.06,38.06,0,0,0-2.86,3.17l7.14,7.87a33.74,33.74,0,0,1,3.2-3.89,27.65,27.65,0,0,1,6.25-5.05A24.7,24.7,0,0,1,38,32.57a20.44,20.44,0,0,1,6-1h.65a16.86,16.86,0,0,1,6.06,1.11A17.87,17.87,0,0,1,55,35.09a21.09,21.09,0,0,1,3.63,3.46"/><polygon class="cls-13" points="14.17 35.92 12.46 35.86 12.97 35.19 14.68 35.25 14.17 35.92"/></g></g></g></svg>