<svg xmlns="http://www.w3.org/2000/svg" xmlns:xlink="http://www.w3.org/1999/xlink" viewBox="0 0 89.27 103.55"><defs><style>.cls-1{fill:none;}.cls-2{isolation:isolate;}.cls-3{fill:#4c0404;}.cls-4{fill:#7a0001;}.cls-5{fill:#a20000;}.cls-6{clip-path:url(#clip-path);}.cls-7{fill:#8f8f8f;}.cls-8{fill:gray;}.cls-9{clip-path:url(#clip-path-2);}.cls-10{fill:#858585;}.cls-11{fill:#8a8a8a;}.cls-12{fill:#878787;}.cls-13{clip-path:url(#clip-path-3);}.cls-14{clip-path:url(#clip-path-4);}.cls-15{clip-path:url(#clip-path-5);}.cls-16{clip-path:url(#clip-path-6);}.cls-17{clip-path:url(#clip-path-7);}.cls-18{fill:#898989;}.cls-19{clip-path:url(#clip-path-8);}.cls-20{clip-path:url(#clip-path-9);}.cls-21{clip-path:url(#clip-path-10);}.cls-22{clip-path:url(#clip-path-11);}.cls-23{clip-path:url(#clip-path-12);}.cls-24{clip-path:url(#clip-path-13);}.cls-25{clip-path:url(#clip-path-14);}.cls-26{clip-path:url(#clip-path-15);}.cls-27{clip-path:url(#clip-path-16);}.cls-28{clip-path:url(#clip-path-17);}.cls-29{fill:#ececec;}.cls-30{clip-path:url(#clip-path-18);}.cls-31{clip-path:url(#clip-path-19);}.cls-32{clip-path:url(#clip-path-20);}.cls-33{fill:#868686;}.cls-34{clip-path:url(#clip-path-21);}.cls-35{clip-path:url(#clip-path-22);}.cls-36{clip-path:url(#clip-path-23);}.cls-37{clip-path:url(#clip-path-24);}.cls-38{clip-path:url(#clip-path-25);}.cls-39{clip-path:url(#clip-path-26);}.cls-40{clip-path:url(#clip-path-27);}.cls-41{clip-path:url(#clip-path-28);}.cls-42{clip-path:url(#clip-path-29);}.cls-43{clip-path:url(#clip-path-30);}.cls-44{clip-path:url(#clip-path-31);}.cls-45{clip-path:url(#clip-path-32);}.cls-46{clip-path:url(#clip-path-33);}.cls-47{clip-path:url(#clip-path-34);}.cls-48{clip-path:url(#clip-path-35);}.cls-49{clip-path:url(#clip-path-36);}.cls-50{clip-path:url(#clip-path-37);}.cls-51{clip-path:url(#clip-path-38);}.cls-52{clip-path:url(#clip-path-39);}.cls-53{clip-path:url(#clip-path-40);}.cls-54{clip-path:url(#clip-path-41);}.cls-55{clip-path:url(#clip-path-42);}</style><clipPath id="clip-path"><path class="cls-1" d="M67.3,25.21l1.71.06h0l-.15,0-1.71-.06.15,0Z"/></clipPath><clipPath id="clip-path-2"><path class="cls-1" d="M68.29,25.64l-1.71-.06a.82.82,0,0,1,.53-.36l1.71.06A.82.82,0,0,0,68.29,25.64Z"/></clipPath><clipPath id="clip-path-3"><path class="cls-1" d="M63.52,51.4l-1.71-.06a7.1,7.1,0,0,0,1.45-2.46l1.71.06A7.1,7.1,0,0,1,63.52,51.4Z"/></clipPath><clipPath id="clip-path-4"><path class="cls-1" d="M62,56.18l-1.71-.06v-.44l1.71.06Z"/></clipPath><clipPath id="clip-path-5"><path class="cls-1" d="M61.65,37.89l-1.71-.06a.79.79,0,0,1-.47-.15l1.71.06A.79.79,0,0,0,61.65,37.89Z"/></clipPath><clipPath id="clip-path-6"><path class="cls-1" d="M61.18,37.74l-1.71-.06a.94.94,0,0,1-.19-1.25l1.71.06A.94.94,0,0,0,61.18,37.74Z"/></clipPath><clipPath id="clip-path-7"><path class="cls-1" d="M59,65.48l-1.71-.06a15.17,15.17,0,0,0,3-9.3l1.71.06A15.17,15.17,0,0,1,59,65.48Z"/></clipPath><clipPath id="clip-path-8"><path class="cls-1" d="M58.94,48.61l-1.71-.06h0a2.35,2.35,0,0,0,2.21-2.44l1.71.06A2.35,2.35,0,0,1,59,48.61Z"/></clipPath><clipPath id="clip-path-9"><path class="cls-1" d="M57.45,39.89l1.71.06a6.14,6.14,0,0,1,4.16,1.84,7.1,7.1,0,0,1,2,4.45A7,7,0,0,1,65,48.95l-1.71-.06a7,7,0,0,0,.35-2.71,7.1,7.1,0,0,0-2-4.45A6.14,6.14,0,0,0,57.45,39.89Z"/></clipPath><clipPath id="clip-path-10"><path class="cls-1" d="M58.83,48.61l-1.71-.06h.11l1.71.06Z"/></clipPath><clipPath id="clip-path-11"><path class="cls-1" d="M57.27,43.74,59,43.8a2.33,2.33,0,0,1,2.18,2.34l-1.71-.06A2.33,2.33,0,0,0,57.27,43.74Z"/></clipPath><clipPath id="clip-path-12"><path class="cls-1" d="M59,58.7l-1.71-.06a.81.81,0,0,1-.57-.26l1.71.06A.81.81,0,0,0,59,58.7Z"/></clipPath><clipPath id="clip-path-13"><path class="cls-1" d="M58.76,50.39,57,50.33a4.06,4.06,0,0,1-3.79-4.14A4.1,4.1,0,0,1,57.17,42l1.71.06A4.1,4.1,0,0,0,55,46.25,4.06,4.06,0,0,0,58.76,50.39Z"/></clipPath><clipPath id="clip-path-14"><path class="cls-1" d="M57.34,42l1.71.06h-.18L57.17,42Z"/></clipPath><clipPath id="clip-path-15"><path class="cls-1" d="M57.89,66.81l-1.71-.06A14.46,14.46,0,0,0,54,64.94l1.71.06A14.46,14.46,0,0,1,57.89,66.81Z"/></clipPath><clipPath id="clip-path-16"><path class="cls-1" d="M55.52,55.43l-1.71-.06v-.15l1.71.06Z"/></clipPath><clipPath id="clip-path-17"><path class="cls-1" d="M54.79,62.46l-1.71-.06a21.56,21.56,0,0,0,.75-5.25l1.71.06A21.56,21.56,0,0,1,54.79,62.46Z"/></clipPath><clipPath id="clip-path-18"><path class="cls-1" d="M57.51,38.1l1.71.06h-.39a7.83,7.83,0,0,0-5.6,2.53l-1.71-.06a7.83,7.83,0,0,1,5.6-2.53Z"/></clipPath><clipPath id="clip-path-19"><path class="cls-1" d="M52,70.56l-1.71-.06a14.22,14.22,0,0,0,5.89-3.75l1.71.06A14.22,14.22,0,0,1,52,70.56Z"/></clipPath><clipPath id="clip-path-20"><path class="cls-1" d="M53.26,52.82l-1.71-.06a10.61,10.61,0,0,1-1.18-1.59l1.71.06A10.61,10.61,0,0,0,53.26,52.82Z"/></clipPath><clipPath id="clip-path-21"><path class="cls-1" d="M52.07,42.28l-1.71-.06L50,42.09l1.71.06Z"/></clipPath><clipPath id="clip-path-22"><path class="cls-1" d="M51.34,49.6l-1.71-.06a8.5,8.5,0,0,1-.46-3.22,9.69,9.69,0,0,1,.39-2.2l1.71.06a9.7,9.7,0,0,0-.39,2.2A8.5,8.5,0,0,0,51.34,49.6Z"/></clipPath><clipPath id="clip-path-23"><path class="cls-1" d="M48.56,82.82l-1.71-.06q.64,0,1.29,0C63,82.51,74.91,69.48,74.73,53.66a29.83,29.83,0,0,0-2.2-11A.91.91,0,0,1,73,41.5a.79.79,0,0,1,.33-.08h0l1.71.06h0a.79.79,0,0,0-.33.08.91.91,0,0,0-.43,1.16,29.83,29.83,0,0,1,2.2,11c.18,15.82-11.72,28.85-26.59,29.11Q49.21,82.84,48.56,82.82Z"/></clipPath><clipPath id="clip-path-24"><path class="cls-1" d="M48.7,25.9l1.71.06a25.73,25.73,0,0,1,14.32,5L63,30.88A25.73,25.73,0,0,0,48.7,25.9Z"/></clipPath><clipPath id="clip-path-25"><path class="cls-1" d="M48.84,70.86l-1.71-.06a13.83,13.83,0,0,0,5.39-6.72l1.71.06A13.83,13.83,0,0,1,48.84,70.86Z"/></clipPath><clipPath id="clip-path-26"><path class="cls-1" d="M54.24,64.14l-1.71-.06A13.7,13.7,0,0,0,47,62.66l1.71.06A13.7,13.7,0,0,1,54.24,64.14Z"/></clipPath><clipPath id="clip-path-27"><path class="cls-1" d="M48.6,50.1,46.89,50a14.22,14.22,0,0,0,2.73-.5l1.71.06A14.22,14.22,0,0,1,48.6,50.1Z"/></clipPath><clipPath id="clip-path-28"><path class="cls-1" d="M51.27,44.17l-1.71-.06a13.28,13.28,0,0,0-2.76-2.2l1.71.06A13.28,13.28,0,0,1,51.27,44.17Z"/></clipPath><clipPath id="clip-path-29"><path class="cls-1" d="M41,62.69l-1.71-.06a15.64,15.64,0,0,1,6.07-1.73l1.71.06A15.64,15.64,0,0,0,41,62.69Z"/></clipPath><clipPath id="clip-path-30"><path class="cls-1" d="M46.95,51.92l-1.71-.06a15.31,15.31,0,0,1-6.11-1.48l1.71.06A15.31,15.31,0,0,0,46.95,51.92Z"/></clipPath><clipPath id="clip-path-31"><path class="cls-1" d="M43.92,70.7l-1.71-.06a15.92,15.92,0,0,1-3.82-5.47l1.71.06A15.92,15.92,0,0,0,43.92,70.7Z"/></clipPath><clipPath id="clip-path-32"><path class="cls-1" d="M39.91,47.89l-1.71-.06a16.15,16.15,0,0,1,3.69-5.59l1.71.06A16.15,16.15,0,0,0,39.91,47.89Z"/></clipPath><clipPath id="clip-path-33"><path class="cls-1" d="M39.47,63.57l-1.71-.06a22.67,22.67,0,0,1-1.08-6.06l1.71.06A22.67,22.67,0,0,0,39.47,63.57Z"/></clipPath><clipPath id="clip-path-34"><path class="cls-1" d="M38.37,55.73l-1.71-.06a22.93,22.93,0,0,1,.94-6.11l1.71.06A22.93,22.93,0,0,0,38.37,55.73Z"/></clipPath><clipPath id="clip-path-35"><path class="cls-1" d="M35.61,70.82l1.71.06h-.13l-1.71-.06Z"/></clipPath><clipPath id="clip-path-36"><path class="cls-1" d="M36.77,65.84l-1.71-.06a15.81,15.81,0,0,1,2.7-2.27l1.71.06A15.81,15.81,0,0,0,36.77,65.84Z"/></clipPath><clipPath id="clip-path-37"><path class="cls-1" d="M39.31,49.62l-1.71-.06a16,16,0,0,1-2.75-2.18l1.71.06A16,16,0,0,0,39.31,49.62Z"/></clipPath><clipPath id="clip-path-38"><path class="cls-1" d="M48.48,84.6l-1.71-.06a27.22,27.22,0,0,1-15.21-5.31l1.71.06A27.22,27.22,0,0,0,48.48,84.6Z"/></clipPath><clipPath id="clip-path-39"><path class="cls-1" d="M47.21,73,45.5,73c-8.41-.28-15.2-7.43-15.3-16.31-.11-9.15,6.94-16.72,15.71-16.87h.79l1.71.06h-.79C38.84,40,31.8,47.55,31.91,56.71,32,65.58,38.8,72.73,47.21,73Z"/></clipPath><clipPath id="clip-path-40"><path class="cls-1" d="M30,83.5l-1.71-.06a.84.84,0,0,1-.79-.72l1.71.06A.84.84,0,0,0,30,83.5Z"/></clipPath><clipPath id="clip-path-41"><path class="cls-1" d="M27.53,73.32l-1.71-.06a.9.9,0,0,1,.71-1l1.71.06A.9.9,0,0,0,27.53,73.32Z"/></clipPath><clipPath id="clip-path-42"><path class="cls-1" d="M23.94,67.29l-1.71-.06a.83.83,0,0,1-.74-.54,32.18,32.18,0,0,1,2.73-29.37A28.26,28.26,0,0,1,47.42,24.1q.69,0,1.37,0l1.71.06q-.69,0-1.37,0a28.26,28.26,0,0,0-23.2,13.23A32.18,32.18,0,0,0,23.2,66.76.83.83,0,0,0,23.94,67.29Z"/></clipPath></defs><title>Asset 20</title><g id="Layer_2" data-name="Layer 2"><g id="Layer_1-2" data-name="Layer 1"><g class="cls-2"><polygon class="cls-3" points="87.79 90.85 80.17 86.71 80.33 1.61 87.94 5.75 87.79 90.85"/><polygon class="cls-4" points="8.94 101.94 1.33 97.79 80.17 86.71 87.79 90.85 8.94 101.94"/><polygon class="cls-4" points="9.1 16.83 1.48 12.69 80.33 1.61 87.94 5.75 9.1 16.83"/><polygon class="cls-5" points="87.94 5.75 87.79 90.85 8.94 101.94 9.1 16.83 87.94 5.75"/><polygon class="cls-3" points="8.94 101.94 1.33 97.79 1.48 12.69 9.1 16.83 8.94 101.94"/><polygon class="cls-3" points="7.62 103.55 0 99.41 0.16 11.45 7.78 15.6 7.62 103.55"/><polygon class="cls-4" points="7.78 15.6 0.16 11.45 81.66 0 89.27 4.14 7.78 15.6"/><path class="cls-5" d="M7.78,15.6,89.27,4.14l-.16,88L7.61,103.55Zm80,75.26.16-85.1L9.1,16.83l-.16,85.1L87.79,90.85"/></g><g class="cls-2"><g class="cls-2"><g class="cls-6"><g class="cls-2"><path class="cls-7" d="M68.82,25.28l-1.71-.06.15,0h0l1.71.06h0l-.15,0"/></g></g></g><polygon class="cls-8" points="69.64 34.86 67.93 34.8 66.8 28.32 68.51 28.37 69.64 34.86"/><g class="cls-2"><g class="cls-9"><g class="cls-2"><path class="cls-10" d="M68.29,25.64l-1.71-.06a.85.85,0,0,1,.12-.14l1.71.06a.85.85,0,0,0-.12.14"/><path class="cls-11" d="M68.41,25.5l-1.71-.06a.82.82,0,0,1,.22-.16l1.71.06a.82.82,0,0,0-.22.16"/><path class="cls-7" d="M68.63,25.34l-1.71-.06.19-.06,1.71.06-.19.06"/></g></g></g><polygon class="cls-12" points="65.71 29.48 64 29.42 66.58 25.58 68.29 25.64 65.71 29.48"/><g class="cls-2"><g class="cls-13"><g class="cls-2"><path class="cls-10" d="M63.52,51.4l-1.71-.06a7.1,7.1,0,0,0,1.45-2.46l1.71.06a7.1,7.1,0,0,1-1.45,2.46"/></g></g></g><polygon class="cls-7" points="63.5 35.82 61.79 35.77 67.93 34.8 69.64 34.86 63.5 35.82"/><g class="cls-2"><g class="cls-14"><g class="cls-2"><path class="cls-10" d="M62,56.18l-1.71-.06v-.44l1.71.06v.44"/></g></g></g><polygon class="cls-8" points="61.17 46.17 59.46 46.11 59.46 46.09 61.17 46.14 61.17 46.17"/><g class="cls-2"><g class="cls-15"><g class="cls-2"><path class="cls-10" d="M61.65,37.89l-1.71-.06a.79.79,0,0,1-.47-.15l1.71.06a.79.79,0,0,0,.47.15"/></g></g></g><polygon class="cls-12" points="60.99 36.49 59.28 36.43 63.02 30.88 64.73 30.93 60.99 36.49"/><g class="cls-2"><g class="cls-16"><g class="cls-2"><path class="cls-10" d="M61.18,37.74l-1.71-.06a.94.94,0,0,1-.19-1.25l1.71.06a.94.94,0,0,0,.19,1.25"/></g></g></g><g class="cls-2"><g class="cls-17"><g class="cls-2"><path class="cls-10" d="M59,65.48l-1.71-.06a15.17,15.17,0,0,0,3-9.3l1.71.06a15.17,15.17,0,0,1-3,9.3"/></g></g></g><polygon class="cls-18" points="59.05 56.52 57.33 56.46 61.81 51.34 63.52 51.4 59.05 56.52"/><g class="cls-2"><g class="cls-19"><g class="cls-2"><path class="cls-7" d="M58.94,48.61l-1.71-.06h0a2.14,2.14,0,0,0,.86-.21l1.71.06a2.14,2.14,0,0,1-.86.21h0"/><path class="cls-11" d="M59.82,48.41l-1.71-.06a2.26,2.26,0,0,0,.62-.43l1.71.06a2.26,2.26,0,0,1-.62.43"/><path class="cls-10" d="M60.44,48l-1.71-.06a2.49,2.49,0,0,0,.73-1.8l1.71.06a2.49,2.49,0,0,1-.73,1.8"/></g></g></g><g class="cls-2"><g class="cls-20"><g class="cls-2"><path class="cls-10" d="M65,48.95l-1.71-.06a7,7,0,0,0,.35-2.71,7.1,7.1,0,0,0-2-4.45,6.14,6.14,0,0,0-4.16-1.84l1.71.06a6.14,6.14,0,0,1,4.16,1.84,7.1,7.1,0,0,1,2,4.45A7,7,0,0,1,65,48.95"/></g></g></g><g class="cls-2"><g class="cls-21"><g class="cls-2"><path class="cls-7" d="M58.83,48.61l-1.71-.06h.11l1.71.06h-.11"/></g></g></g><g class="cls-2"><g class="cls-22"><g class="cls-2"><path class="cls-10" d="M61.17,46.14l-1.71-.06a2.33,2.33,0,0,0-2.18-2.34L59,43.8a2.33,2.33,0,0,1,2.18,2.34"/></g></g></g><g class="cls-2"><g class="cls-23"><g class="cls-2"><path class="cls-10" d="M59,58.7l-1.71-.06a.81.81,0,0,1-.57-.26l1.71.06a.81.81,0,0,0,.57.26"/></g></g></g><g class="cls-2"><g class="cls-24"><g class="cls-2"><path class="cls-10" d="M58.76,50.39,57,50.33a4.06,4.06,0,0,1-3.79-4.14,4.34,4.34,0,0,1,1.27-3.12l1.71.06A4.34,4.34,0,0,0,55,46.25a4.06,4.06,0,0,0,3.79,4.14"/><path class="cls-11" d="M56.24,43.13l-1.71-.06a4,4,0,0,1,1.08-.76l1.71.06a4,4,0,0,0-1.08.76"/><path class="cls-7" d="M57.32,42.38l-1.71-.06A3.74,3.74,0,0,1,57.17,42l1.71.06a3.74,3.74,0,0,0-1.55.36"/></g></g></g><g class="cls-2"><g class="cls-25"><g class="cls-2"><path class="cls-7" d="M58.88,42,57.17,42h.18l1.71.06h-.18"/></g></g></g><polygon class="cls-8" points="58.46 58.44 56.75 58.38 55.51 57.04 57.23 57.1 58.46 58.44"/><g class="cls-2"><g class="cls-26"><g class="cls-2"><path class="cls-10" d="M57.89,66.81l-1.71-.06A14.46,14.46,0,0,0,54,64.94l1.71.06a14.46,14.46,0,0,1,2.2,1.82"/></g></g></g><g class="cls-2"><g class="cls-27"><g class="cls-2"><path class="cls-10" d="M55.52,55.43l-1.71-.06v-.15l1.71.06v.15"/></g></g></g><g class="cls-2"><g class="cls-28"><g class="cls-2"><path class="cls-10" d="M54.79,62.46l-1.71-.06a21.56,21.56,0,0,0,.75-5.25l1.71.06a21.56,21.56,0,0,1-.75,5.25"/></g></g></g><path class="cls-29" d="M58.88,42a4,4,0,0,1,4,4.12,4.1,4.1,0,0,1-3.91,4.25,4,4,0,0,1-4-4.14A4.1,4.1,0,0,1,58.88,42Zm2.29,4.15v0a2.32,2.32,0,0,0-2.29-2.34h0a2.35,2.35,0,0,0-2.2,2.47,2.32,2.32,0,0,0,2.29,2.35h0a2.35,2.35,0,0,0,2.21-2.44"/><polygon class="cls-8" points="55.52 55.28 53.81 55.22 51.55 52.77 53.26 52.82 55.52 55.28"/><g class="cls-2"><g class="cls-30"><g class="cls-2"><path class="cls-10" d="M53.24,40.69l-1.71-.06.25-.25,1.71.06-.25.25"/><path class="cls-11" d="M53.48,40.44l-1.71-.06A8,8,0,0,1,54,38.84l1.71.06a8,8,0,0,0-2.2,1.55"/><path class="cls-7" d="M55.69,38.9,54,38.84a7.67,7.67,0,0,1,3.15-.74h.39l1.71.06h-.39a7.67,7.67,0,0,0-3.15.74"/></g></g></g><polygon class="cls-18" points="53.16 40.77 51.45 40.72 51.53 40.63 53.24 40.69 53.16 40.77"/><g class="cls-2"><g class="cls-31"><g class="cls-2"><path class="cls-7" d="M52,70.56l-1.71-.06a13.73,13.73,0,0,0,1.61-.64l1.71.06a13.73,13.73,0,0,1-1.61.64"/><path class="cls-11" d="M53.61,69.92l-1.71-.06a14.35,14.35,0,0,0,3.92-2.75l1.71.06a14.35,14.35,0,0,1-3.92,2.75"/><path class="cls-10" d="M57.54,67.16l-1.71-.06.35-.35,1.71.06-.35.35"/></g></g></g><g class="cls-2"><g class="cls-32"><g class="cls-2"><path class="cls-10" d="M53.26,52.82l-1.71-.06a10.61,10.61,0,0,1-1.18-1.59l1.71.06a10.61,10.61,0,0,0,1.18,1.59"/></g></g></g><polygon class="cls-33" points="51.97 42.44 50.26 42.38 50.36 42.22 52.07 42.28 51.97 42.44"/><g class="cls-2"><g class="cls-34"><g class="cls-2"><path class="cls-10" d="M52.07,42.28l-1.71-.06L50,42.09l1.71.06.41.13"/></g></g></g><g class="cls-2"><g class="cls-35"><g class="cls-2"><path class="cls-10" d="M51.34,49.6l-1.71-.06a8.5,8.5,0,0,1-.46-3.22,9.69,9.69,0,0,1,.39-2.2l1.71.06a9.69,9.69,0,0,0-.39,2.2,8.5,8.5,0,0,0,.46,3.22"/></g></g></g><g class="cls-2"><g class="cls-36"><g class="cls-2"><path class="cls-7" d="M48.56,82.82l-1.71-.06q.64,0,1.29,0a25.54,25.54,0,0,0,10.51-2.46l1.71.06a25.54,25.54,0,0,1-10.51,2.46q-.65,0-1.29,0"/><path class="cls-11" d="M60.37,80.37l-1.71-.06A27,27,0,0,0,66,75.12l1.71.06a27,27,0,0,1-7.39,5.19"/><path class="cls-10" d="M67.76,75.18,66,75.12a30.12,30.12,0,0,0,6.49-32.46.93.93,0,0,1,.2-1l1.71.06a.93.93,0,0,0-.2,1,30.12,30.12,0,0,1-6.49,32.46"/><path class="cls-11" d="M74.45,41.72l-1.71-.06A.83.83,0,0,1,73,41.5l1.71.06a.83.83,0,0,0-.23.16"/><path class="cls-7" d="M74.68,41.56,73,41.5h0a.79.79,0,0,1,.33-.08h0l1.71.06h0a.79.79,0,0,0-.33.08h0"/></g></g></g><g class="cls-2"><g class="cls-37"><g class="cls-2"><path class="cls-10" d="M64.73,30.93,63,30.88a25.73,25.73,0,0,0-14.32-5l1.71.06a25.73,25.73,0,0,1,14.32,5"/></g></g></g><g class="cls-2"><g class="cls-38"><g class="cls-2"><path class="cls-11" d="M48.84,70.86l-1.71-.06a12.48,12.48,0,0,0,2.11-1.67l1.71.06a12.48,12.48,0,0,1-2.11,1.67"/><path class="cls-10" d="M51,69.18l-1.71-.06a14.61,14.61,0,0,0,3.29-5l1.71.06a14.61,14.61,0,0,1-3.29,5"/></g></g></g><g class="cls-2"><g class="cls-39"><g class="cls-2"><path class="cls-10" d="M54.24,64.14l-1.71-.06A13.7,13.7,0,0,0,47,62.66l1.71.06a13.7,13.7,0,0,1,5.49,1.42"/></g></g></g><polygon class="cls-7" points="48.66 55.55 46.95 55.49 53.81 55.37 55.52 55.43 48.66 55.55"/><g class="cls-2"><g class="cls-40"><g class="cls-2"><path class="cls-7" d="M48.6,50.1,46.89,50a14.22,14.22,0,0,0,2.73-.5l1.71.06a14.22,14.22,0,0,1-2.73.5"/></g></g></g><g class="cls-2"><g class="cls-41"><g class="cls-2"><path class="cls-10" d="M51.27,44.17l-1.71-.06a13.28,13.28,0,0,0-2.76-2.2l1.71.06a13.28,13.28,0,0,1,2.76,2.2"/></g></g></g><polygon class="cls-8" points="47.17 70.89 45.45 70.83 45.36 62.69 47.07 62.75 47.17 70.89"/><polygon class="cls-8" points="47.05 60.96 45.34 60.9 45.3 57.3 47.01 57.36 47.05 60.96"/><polygon class="cls-8" points="46.99 55.58 45.28 55.52 45.24 51.86 46.95 51.92 46.99 55.58"/><polygon class="cls-8" points="46.93 50.13 45.22 50.08 45.12 41.94 46.84 42 46.93 50.13"/><g class="cls-2"><g class="cls-42"><g class="cls-2"><path class="cls-11" d="M41,62.69l-1.71-.06.53-.26,1.71.06-.53.26"/><path class="cls-7" d="M41.51,62.42l-1.71-.06a15.62,15.62,0,0,1,5.54-1.46l1.71.06a15.62,15.62,0,0,0-5.54,1.46"/></g></g></g><g class="cls-2"><g class="cls-43"><g class="cls-2"><path class="cls-10" d="M46.95,51.92l-1.71-.06a15.31,15.31,0,0,1-6.11-1.48l1.71.06a15.31,15.31,0,0,0,6.11,1.48"/></g></g></g><g class="cls-2"><g class="cls-44"><g class="cls-2"><path class="cls-10" d="M43.92,70.7l-1.71-.06a15.92,15.92,0,0,1-3.82-5.47l1.71.06a15.92,15.92,0,0,0,3.82,5.47"/></g></g></g><polygon class="cls-7" points="40.06 55.7 38.34 55.64 45.28 55.52 46.99 55.58 40.06 55.7"/><g class="cls-2"><g class="cls-45"><g class="cls-2"><path class="cls-10" d="M39.91,47.89l-1.71-.06a16.15,16.15,0,0,1,3.67-5.57l1.71.06a16.15,16.15,0,0,0-3.67,5.57"/><path class="cls-11" d="M43.58,42.32l-1.71-.06,0,0,1.71.06,0,0"/></g></g></g><g class="cls-2"><g class="cls-46"><g class="cls-2"><path class="cls-10" d="M39.47,63.57l-1.71-.06a22.67,22.67,0,0,1-1.08-6.06l1.71.06a22.67,22.67,0,0,0,1.08,6.06"/></g></g></g><g class="cls-2"><g class="cls-47"><g class="cls-2"><path class="cls-10" d="M38.37,55.73l-1.71-.06a22.93,22.93,0,0,1,.94-6.11l1.71.06a22.93,22.93,0,0,0-.94,6.11"/></g></g></g><g class="cls-2"><g class="cls-48"><g class="cls-2"><path class="cls-7" d="M37.19,70.88l-1.71-.06h.13l1.71.06h-.13"/></g></g></g><g class="cls-2"><g class="cls-49"><g class="cls-2"><path class="cls-10" d="M36.77,65.84l-1.71-.06.38-.38,1.71.06-.38.38"/><path class="cls-11" d="M37.15,65.46l-1.71-.06a15.73,15.73,0,0,1,2.32-1.89l1.71.06a15.73,15.73,0,0,0-2.32,1.89"/></g></g></g><g class="cls-2"><g class="cls-50"><g class="cls-2"><path class="cls-10" d="M39.31,49.62l-1.71-.06a16,16,0,0,1-2.75-2.18l1.71.06a16,16,0,0,0,2.75,2.18"/></g></g></g><g class="cls-2"><g class="cls-51"><g class="cls-2"><path class="cls-10" d="M48.48,84.6l-1.71-.06a27.22,27.22,0,0,1-15.21-5.31l1.71.06A27.22,27.22,0,0,0,48.48,84.6"/></g></g></g><polygon class="cls-7" points="33.6 55.81 31.89 55.76 36.66 55.67 38.37 55.73 33.6 55.81"/><polygon class="cls-12" points="32.41 77.52 30.7 77.47 33.77 72.89 35.48 72.94 32.41 77.52"/><polygon class="cls-18" points="32.39 77.54 30.68 77.48 30.7 77.47 32.41 77.52 32.39 77.54"/><g class="cls-2"><g class="cls-52"><g class="cls-2"><path class="cls-10" d="M47.21,73,45.5,73c-8.41-.28-15.2-7.43-15.3-16.31a17,17,0,0,1,5-12.32l1.71.06a17,17,0,0,0-5,12.32c.1,8.88,6.89,16,15.3,16.31"/><path class="cls-11" d="M36.93,44.38l-1.71-.06a16,16,0,0,1,4.39-3.07l1.71.06a16,16,0,0,0-4.39,3.07"/><path class="cls-7" d="M41.32,41.31l-1.71-.06a15.31,15.31,0,0,1,6.29-1.47h.79l1.71.06h-.79a15.31,15.31,0,0,0-6.29,1.47"/></g></g></g><path class="cls-29" d="M67,46.09a8.8,8.8,0,0,1-.44,3.45,9.29,9.29,0,0,1-1.8,3.07l-1.14,1.31c.05.77.08,1.81.08,2.23.1,9-6.68,16.43-15.21,16.85H48c-8.77.15-16-7.16-16.09-16.32S38.84,40,47.61,39.84a15.27,15.27,0,0,1,5.55.94l.08-.08a7.83,7.83,0,0,1,5.6-2.53,7.74,7.74,0,0,1,5.65,2.34A8.93,8.93,0,0,1,67,46.09Zm-2,2.85a7,7,0,0,0,.35-2.71,7.1,7.1,0,0,0-2-4.45,6.13,6.13,0,0,0-4.47-1.85,6.2,6.2,0,0,0-4.43,2,7.19,7.19,0,0,0-1.89,4.52,7,7,0,0,0,.41,2.69,7.12,7.12,0,0,0,1.51,2.4l4.59,5,4.47-5.12A7.1,7.1,0,0,0,65,48.95m-3,7.23v-.44l-2.34,2.68,0,0a.84.84,0,0,1-.58.25.81.81,0,0,1-.61-.26L57.22,57.1a22.86,22.86,0,0,1-.94,6.19A15.83,15.83,0,0,1,59,65.48a15.17,15.17,0,0,0,3-9.3M36.56,47.44a15.09,15.09,0,0,0-3,8.38l4.78-.08a22.93,22.93,0,0,1,.94-6.11,16,16,0,0,1-2.75-2.18M33.62,57.59a15.21,15.21,0,0,0,3.16,8.24,15.81,15.81,0,0,1,2.7-2.27,22.67,22.67,0,0,1-1.08-6.06l-4.78.08M47.17,70.88l-.09-8.13a14,14,0,0,0-5.46,1.59,13,13,0,0,0,5.56,6.55m-.24-20.75L46.83,42a13.19,13.19,0,0,0-5.4,6.74,13.9,13.9,0,0,0,5.5,1.4m1.91,20.72a13.83,13.83,0,0,0,5.39-6.72,13.7,13.7,0,0,0-5.49-1.42l.09,8.13M47,55.58l0-3.66a15.31,15.31,0,0,1-6.11-1.48,20.81,20.81,0,0,0-.79,5.26L47,55.58M47.05,61l0-3.6-6.93.12a21.68,21.68,0,0,0,.91,5.2A15.64,15.64,0,0,1,47.05,61m1.63-3.63,0,3.61a15.63,15.63,0,0,1,6.06,1.52,21.56,21.56,0,0,0,.75-5.25l-6.86.12M37.92,67.11a14,14,0,0,0,6,3.59,15.92,15.92,0,0,1-3.82-5.47,14.43,14.43,0,0,0-2.19,1.88M43.6,42.3a14.22,14.22,0,0,0-5.92,3.78,13.7,13.7,0,0,0,2.23,1.81A16.15,16.15,0,0,1,43.6,42.3M52,70.56a14.22,14.22,0,0,0,5.89-3.75A14.46,14.46,0,0,0,55.68,65,16.34,16.34,0,0,1,52,70.56M48.62,51.89l0,3.66,6.86-.12v-.15l-2.26-2.45a10.61,10.61,0,0,1-1.18-1.59,15.19,15.19,0,0,1-3.46.65M48.51,42l.09,8.13a14.22,14.22,0,0,0,2.73-.5,8.5,8.5,0,0,1-.46-3.22,9.69,9.69,0,0,1,.39-2.2A13.28,13.28,0,0,0,48.51,42m3.56.31-.41-.13.31.29.1-.16"/><polygon class="cls-12" points="30.48 80.39 28.77 80.33 30.68 77.48 32.39 77.54 30.48 80.39"/><g class="cls-2"><g class="cls-53"><g class="cls-2"><path class="cls-10" d="M30,83.5l-1.71-.06a.84.84,0,0,1-.79-.72l1.71.06a.84.84,0,0,0,.79.72"/></g></g></g><polygon class="cls-7" points="28.24 72.28 26.53 72.22 35.48 70.82 37.2 70.88 28.24 72.28"/><polygon class="cls-8" points="29.19 82.78 27.48 82.72 25.82 73.27 27.53 73.32 29.19 82.78"/><path class="cls-29" d="M75.79,42a32.18,32.18,0,0,1-2.73,29.37,28.26,28.26,0,0,1-23.2,13.23,27.16,27.16,0,0,1-16.58-5.32L30.7,83.13a.86.86,0,0,1-.53.35l-.15,0a.84.84,0,0,1-.83-.72l-1.66-9.46a.9.9,0,0,1,.71-1l9-1.4a.89.89,0,0,1,.61.15A.94.94,0,0,1,38,72.28l-3.74,5.56a25.63,25.63,0,0,0,15.6,5c14.87-.26,26.77-13.29,26.59-29.11a29.83,29.83,0,0,0-2.2-11,.91.91,0,0,1,.43-1.16.79.79,0,0,1,.33-.08A.83.83,0,0,1,75.79,42ZM32.41,77.52l3.08-4.58-6.14,1,1.13,6.49,1.91-2.85,0,0"/><g class="cls-2"><g class="cls-54"><g class="cls-2"><path class="cls-10" d="M27.53,73.32l-1.71-.06a1,1,0,0,1,.26-.82l1.71.06a1,1,0,0,0-.26.82"/><path class="cls-11" d="M27.8,72.5l-1.71-.06a.81.81,0,0,1,.22-.16l1.71.06a.81.81,0,0,0-.22.16"/><path class="cls-7" d="M28,72.34l-1.71-.06a.8.8,0,0,1,.22-.07l1.71.06a.8.8,0,0,0-.22.07"/></g></g></g><g class="cls-2"><g class="cls-55"><g class="cls-2"><path class="cls-10" d="M23.94,67.29l-1.71-.06a.83.83,0,0,1-.74-.54,32.18,32.18,0,0,1,2.73-29.37,30.25,30.25,0,0,1,4.17-5.13l1.71.06a30.25,30.25,0,0,0-4.17,5.13A32.18,32.18,0,0,0,23.2,66.76a.83.83,0,0,0,.74.54"/><path class="cls-11" d="M30.11,32.26l-1.71-.06a28.49,28.49,0,0,1,7.81-5.47l1.71.06a28.49,28.49,0,0,0-7.81,5.47"/><path class="cls-7" d="M37.91,26.79l-1.71-.06A27.37,27.37,0,0,1,47.42,24.1q.69,0,1.37,0l1.71.06q-.69,0-1.37,0a27.37,27.37,0,0,0-11.22,2.64"/></g></g></g><path class="cls-29" d="M71.45,35.44a.9.9,0,0,1-.71,1.06l-8.95,1.39a.86.86,0,0,1-.61-.15A.94.94,0,0,1,61,36.49l3.74-5.56a25.51,25.51,0,0,0-25.94-2.6C25.14,34.66,18.85,51.54,24.74,66a.94.94,0,0,1,.06.34.87.87,0,0,1-.83.91.82.82,0,0,1-.78-.54,32.18,32.18,0,0,1,2.73-29.37,28.26,28.26,0,0,1,23.2-13.23,27.16,27.16,0,0,1,16.58,5.32l2.58-3.83a.82.82,0,0,1,.53-.36l.15,0a.86.86,0,0,1,.83.73Zm-7.95.38,6.14-1-1.13-6.49-1.92,2.85-3.08,4.6"/></g></g></g></svg>