<svg xmlns="http://www.w3.org/2000/svg" viewBox="0 0 37.28 40.48"><defs><style>.cls-1{isolation:isolate;}.cls-2{fill:#7e7d32;}.cls-3{fill:#afad35;}.cls-4{fill:#d9d324;}.cls-5{fill:#fff;}</style></defs><title>back</title><g id="Layer_2" data-name="Layer 2"><g id="Layer_1-2" data-name="Layer 1"><g class="cls-1"><polygon class="cls-2" points="35.95 35.08 28.67 31.12 28.72 1.54 36.01 5.51 35.95 35.08"/><polygon class="cls-3" points="8.55 38.93 1.27 34.97 28.67 31.12 35.95 35.08 8.55 38.93"/><polygon class="cls-3" points="8.61 9.36 1.32 5.39 28.72 1.54 36.01 5.51 8.61 9.36"/><polygon class="cls-4" points="36.01 5.51 35.95 35.08 8.55 38.93 8.61 9.36 36.01 5.51"/><polygon class="cls-2" points="8.55 38.93 1.27 34.97 1.32 5.39 8.61 9.36 8.55 38.93"/><polygon class="cls-2" points="7.29 40.48 0 36.51 0.06 4.21 7.35 8.17 7.29 40.48"/><polygon class="cls-3" points="7.35 8.17 0.06 4.21 29.99 0 37.28 3.96 7.35 8.17"/><path class="cls-4" d="M7.35,8.17,37.28,4l-.06,32.31L7.29,40.48ZM36,35.08,36,5.51,8.61,9.36,8.55,38.93,36,35.08"/></g><path class="cls-5" d="M17.18,15c0,1.43,0,2.7,0,4,0,.7.21.79.83.79,5,0,10.08,0,15.12,0,.6,0,.81.11.78.76-.06,1.11-.05,2.24,0,3.35,0,.56-.14.69-.69.69-5.09,0-10.18,0-15.27,0-.64,0-.78.18-.76.78,0,1.26,0,2.53,0,3.79-.28.07-.36-.16-.49-.28-2.08-2.07-4.14-4.14-6.22-6.21-.31-.31-.44-.49,0-.87,2.16-2.12,4.29-4.27,6.44-6.41Z"/></g></g></svg>