<svg xmlns="http://www.w3.org/2000/svg" viewBox="0 0 38.83 42.46"><defs><style>.cls-1{isolation:isolate;}.cls-2{fill:#224922;}.cls-3{fill:#1c6432;}.cls-4{fill:#177b3e;}.cls-5{fill:#fff;}</style></defs><title>shop_1</title><g id="Layer_2" data-name="Layer 2"><g id="Layer_1-2" data-name="Layer 1"><g class="cls-1"><polygon class="cls-2" points="1.3 36.85 8.45 32.96 8.39 1.51 1.24 5.4 1.3 36.85"/><polygon class="cls-3" points="30.44 40.94 37.59 37.06 8.45 32.96 1.3 36.85 30.44 40.94"/><polygon class="cls-3" points="30.38 9.49 37.53 5.61 8.39 1.51 1.24 5.4 30.38 9.49"/><polygon class="cls-4" points="1.24 5.4 1.3 36.85 30.44 40.94 30.38 9.49 1.24 5.4"/><polygon class="cls-2" points="30.44 40.94 37.59 37.06 37.53 5.61 30.38 9.49 30.44 40.94"/><polygon class="cls-2" points="31.68 42.46 38.83 38.57 38.77 4.44 31.62 8.33 31.68 42.46"/><polygon class="cls-3" points="31.62 8.33 38.77 4.44 7.15 0 0 3.89 31.62 8.33"/><path class="cls-4" d="M31.68,42.46.06,38,0,3.89,31.62,8.33ZM1.3,36.85l29.14,4.1L30.38,9.49,1.24,5.4,1.3,36.85"/></g><path class="cls-5" d="M19.68,17.79a5.42,5.42,0,0,0-1.36-3.23,1.92,1.92,0,0,0-3,0A5.36,5.36,0,0,0,14,17.79Zm1.61-.63c.07.57.29.69.81.68,1.31,0,1.32,0,1.41,1.32.13,2.11.25,4.23.38,6.34h0c.13,2.32.24,4.65.4,7,0,.41-.1.48-.46.48-4.64,0-9.28,0-13.92,0-.49,0-.51-.17-.49-.59.24-3.91.44-7.82.66-11.73,0-.79.11-1.58.13-2.37,0-.36.14-.44.47-.45.52,0,1.18.23,1.52-.11s.22-.95.36-1.43a6.91,6.91,0,0,1,1.18-2.44,3.74,3.74,0,0,1,6.24,0A6.43,6.43,0,0,1,21.29,17.16Z"/></g></g></svg>