<svg xmlns="http://www.w3.org/2000/svg" viewBox="0 0 315.21 121.4"><defs><style>.cls-1{isolation:isolate;}.cls-2{fill:#d9d117;}.cls-3{fill:#8e8b0a;}.cls-4{fill:#b6b114;}.cls-5{fill:#fff;}</style></defs><title>community</title><g id="Layer_2" data-name="Layer 2"><g id="Layer_1-2" data-name="Layer 1"><g class="cls-1"><polygon class="cls-2" points="315.21 4.07 315.07 78.17 7.48 121.4 7.62 47.3 315.21 4.07"/><polygon class="cls-3" points="7.48 121.4 0 117.33 0.14 43.23 7.62 47.3 7.48 121.4"/><polygon class="cls-4" points="7.62 47.3 0.14 43.23 307.73 0 315.21 4.07 7.62 47.3"/></g><path class="cls-5" d="M74.91,52.44c-.17.55-.38,1.51-.58,2.52L71.92,67.07a20.19,20.19,0,0,0-.37,2.2l-3.6.49a19,19,0,0,0-.46-2l-1.6-5.56c-.21-.74-.39-1.62-.62-2.89-.08.82-.24,2.08-.43,3l-1.1,5.95a15.41,15.41,0,0,0-.31,2.13l-3.59.49c-.11-.56-.22-1-.53-2.05L55.95,57.45c-.29-1-.58-1.83-.78-2.34l4.11-.56a13.12,13.12,0,0,0,.34,2.12L61,62.48c.07.28.23,1.19.51,2.7.2-1.68.3-2.41.39-2.82l1.2-6.26a20.44,20.44,0,0,0,.32-2.1l3.2-.43a16.92,16.92,0,0,0,.5,1.92l1.7,5.83c.16.61.32,1.23.62,2.79,0-.37,0-.37.1-1.22,0-.43.12-1.39.18-1.72l.9-6A12,12,0,0,0,70.82,53Z"/><path class="cls-5" d="M83.65,64.45a2.16,2.16,0,0,0,.5-1.08l3.18.53a6.33,6.33,0,0,1-1.11,2.18A6.19,6.19,0,0,1,82,68.32a5,5,0,0,1-4.25-1.1,6.4,6.4,0,0,1-1.83-4.55c-.15-3.87,2-6.75,5.48-7.21A4.73,4.73,0,0,1,87,59.31a14.86,14.86,0,0,1,.38,2.53c0,.08,0,.19,0,.39l-8.11,1.1c.24,1.56,1.13,2.29,2.55,2.1A2.82,2.82,0,0,0,83.65,64.45Zm-2.11-6.07a2.49,2.49,0,0,0-2.28,2.24L83.89,60a1.92,1.92,0,0,0-2.35-1.61"/><path class="cls-5" d="M105.78,64.64l-3.5.47,0-.9a5.51,5.51,0,0,1-3.45,1.64,3.93,3.93,0,0,1-3.17-.65,3.37,3.37,0,0,1-1.1-2.53,3.74,3.74,0,0,1,1.2-3,7.89,7.89,0,0,1,3.7-1.79c.69-.17,1.24-.27,2.53-.48l0-.45c0-.94-.58-1.3-1.77-1.14a2,2,0,0,0-2,1.65l-3.47-.14a4.71,4.71,0,0,1,1.42-2.57,7.07,7.07,0,0,1,4-1.67,7,7,0,0,1,3.36.24c1.18.53,1.72,1.54,1.8,3.3l.21,5.28A24.35,24.35,0,0,0,105.78,64.64ZM101.51,62a2.27,2.27,0,0,0,.59-1.59l0-.55A10.61,10.61,0,0,0,99,60.7a1.6,1.6,0,0,0-1,1.43c0,.71.59,1,1.53.92a3.52,3.52,0,0,0,2-1"/><path class="cls-5" d="M114.39,51.23a6.73,6.73,0,0,1,1.79,0l-.72,3.64a5.29,5.29,0,0,0-1.86-.12,2.83,2.83,0,0,0-2.11,1.35A3.25,3.25,0,0,0,111,57.9l.12,3a23.53,23.53,0,0,0,.26,2.92l-3.73.51a23,23,0,0,0,0-3l-.24-6a19.65,19.65,0,0,0-.26-2.94L110.8,52l.06,1.55A4.44,4.44,0,0,1,114.39,51.23Z"/><path class="cls-5" d="M124.74,58.88a2.17,2.17,0,0,0,.5-1.08l3.18.53a6.47,6.47,0,0,1-1.11,2.18,6.21,6.21,0,0,1-4.18,2.24,5,5,0,0,1-4.25-1.1A6.4,6.4,0,0,1,117,57.11c-.15-3.87,2-6.75,5.47-7.21,2.81-.38,4.84,1,5.59,3.85a14.86,14.86,0,0,1,.38,2.53c0,.08,0,.19,0,.39l-8.12,1.1c.25,1.56,1.13,2.29,2.55,2.1A2.8,2.8,0,0,0,124.74,58.88Zm-2.11-6.07a2.5,2.5,0,0,0-2.28,2.24l4.63-.63a1.92,1.92,0,0,0-2.35-1.61"/><path class="cls-5" d="M146.87,59.07l-3.5.47,0-.9a5.51,5.51,0,0,1-3.46,1.65,3.91,3.91,0,0,1-3.16-.65,3.37,3.37,0,0,1-1.1-2.53,3.72,3.72,0,0,1,1.2-3,7.86,7.86,0,0,1,3.7-1.78c.7-.17,1.24-.27,2.54-.48l0-.45c0-.94-.58-1.3-1.77-1.14a2,2,0,0,0-2,1.65l-3.46-.14a4.75,4.75,0,0,1,1.41-2.57,7.09,7.09,0,0,1,4-1.67,7,7,0,0,1,3.37.23c1.18.53,1.72,1.54,1.79,3.3l.21,5.28A24.34,24.34,0,0,0,146.87,59.07Zm-4.28-2.61a2.25,2.25,0,0,0,.6-1.59l0-.55a10.61,10.61,0,0,0-3.11.82,1.6,1.6,0,0,0-1,1.43c0,.71.59,1,1.52.92a3.52,3.52,0,0,0,2-1"/><path class="cls-5" d="M159.61,44.87c2.77-.38,4.76.85,5.46,3.37l-3.22,1.16a2.62,2.62,0,0,0-.55-1.09,1.7,1.7,0,0,0-1.54-.48c-1.46.2-2.28,1.57-2.19,3.72s1.06,3.36,2.5,3.17a2.3,2.3,0,0,0,1.69-1.1,2.22,2.22,0,0,0,.29-.94l3.34.11a6.65,6.65,0,0,1-.69,2,5.79,5.79,0,0,1-4.54,2.88,5.11,5.11,0,0,1-4.27-1.11,6.38,6.38,0,0,1-1.81-4.54C153.92,48.16,156.09,45.35,159.61,44.87Z"/><path class="cls-5" d="M171.91,43.22c3.64-.49,6.05,1.68,6.21,5.55s-2.13,6.8-5.71,7.29-6-1.71-6.18-5.63S168.27,43.72,171.91,43.22Zm.39,9.86c1.57-.21,2.42-1.6,2.34-3.78s-1.06-3.36-2.59-3.16-2.48,1.64-2.39,3.79,1.08,3.36,2.65,3.15"/><path class="cls-5" d="M193.15,40.46c2.58-.35,4,1,4.07,4l.19,4.85a23.64,23.64,0,0,0,.26,2.92l-3.75.51a23.42,23.42,0,0,0,0-3l-.16-4c-.06-1.46-.48-2-1.51-1.84s-1.71,1-2.11,2.39l.16,4a22.64,22.64,0,0,0,.26,2.92l-3.76.51a22.32,22.32,0,0,0,0-3l-.16-4a2.28,2.28,0,0,0-.37-1.48,1,1,0,0,0-1-.36c-1,.13-1.77,1-2.22,2.41l.16,4a24.25,24.25,0,0,0,.26,2.94l-3.71.5a24.32,24.32,0,0,0,0-3l-.24-6a20,20,0,0,0-.26-2.94l3.57-.48,0,.82a1.63,1.63,0,0,1,0,.28v.2a4.72,4.72,0,0,1,3.38-2.08,3.4,3.4,0,0,1,2.33.39,2.12,2.12,0,0,1,.78.88A5.31,5.31,0,0,1,193.15,40.46Z"/><path class="cls-5" d="M212.89,37.79c2.57-.35,4,1,4.07,4l.19,4.85a22.14,22.14,0,0,0,.26,2.92l-3.76.51a22,22,0,0,0,0-3l-.16-4c-.06-1.46-.48-2-1.51-1.84s-1.71,1-2.11,2.39l.16,4a24.21,24.21,0,0,0,.26,2.92l-3.75.51a24,24,0,0,0,0-3l-.16-4a2.29,2.29,0,0,0-.36-1.48,1,1,0,0,0-1-.36c-1,.13-1.77,1-2.22,2.41l.16,4a22.58,22.58,0,0,0,.26,2.94l-3.71.5a24.16,24.16,0,0,0,0-3l-.24-6a19.75,19.75,0,0,0-.26-2.94l3.57-.48,0,.82a2.41,2.41,0,0,1,0,.28v.2a4.71,4.71,0,0,1,3.37-2.08,3.44,3.44,0,0,1,2.34.39,2.11,2.11,0,0,1,.78.88A5.32,5.32,0,0,1,212.89,37.79Z"/><path class="cls-5" d="M230.14,35.79a24.37,24.37,0,0,0,0,3l.24,6a20.91,20.91,0,0,0,.26,2.92L227,48.2l0-.85c0-.1,0-.39,0-.53A5.29,5.29,0,0,1,223.32,49a3.53,3.53,0,0,1-2.91-.7,4.09,4.09,0,0,1-1.15-3.16l-.2-4.91a26.74,26.74,0,0,0-.26-2.91l3.75-.51a24.87,24.87,0,0,0,0,3l.16,4a2.23,2.23,0,0,0,.35,1.43,1.24,1.24,0,0,0,1.19.39,3.89,3.89,0,0,0,2.63-2.38l-.16-4a25.93,25.93,0,0,0-.26-2.91Z"/><path class="cls-5" d="M239.31,34.26a3.51,3.51,0,0,1,2.95.7,4.09,4.09,0,0,1,1.16,3.15l.2,4.91a27.27,27.27,0,0,0,.26,2.92l-3.75.51a25,25,0,0,0,0-3l-.16-4a2.24,2.24,0,0,0-.35-1.41,1.24,1.24,0,0,0-1.21-.39c-1,.14-1.89.95-2.61,2.42l.16,4a26.09,26.09,0,0,0,.26,2.94l-3.73.51a23.08,23.08,0,0,0,0-3l-.24-6a19.9,19.9,0,0,0-.26-2.94l3.58-.49,0,.82c0,.12,0,.42,0,.55A5.35,5.35,0,0,1,239.31,34.26Z"/><path class="cls-5" d="M249,36.21l.24,6a28.85,28.85,0,0,0,.26,2.94l-3.77.51a23,23,0,0,0,0-3l-.24-6a21.39,21.39,0,0,0-.26-2.94l3.77-.51A20.51,20.51,0,0,0,249,36.21Z"/><polygon class="cls-5" points="248.8 28.89 248.92 31.83 245.26 32.33 245.15 29.38 248.8 28.89"/><path class="cls-5" d="M255.77,29.21a25.29,25.29,0,0,0,0,2.7l0,.41.65-.09a11.7,11.7,0,0,0,1.76-.34l.13,3.25a10.67,10.67,0,0,0-1.67.1l-.75.1.2,5c0,.55.12.81.36,1a1.43,1.43,0,0,0,.84.1,2.56,2.56,0,0,0,1.25-.52l.39,2.94a7.71,7.71,0,0,1-2.47.73,3.92,3.92,0,0,1-2.68-.33c-.7-.48-1-1.11-1-2.44l-.24-6-.69.09a10.3,10.3,0,0,0-1.56.34L250.11,33a9.91,9.91,0,0,0,1.61-.1l.65-.09,0-.41a21.68,21.68,0,0,0-.25-2.66Z"/><g class="cls-1"><polygon class="cls-5" points="275.21 37.72 275.37 41.67 271.73 42.16 271.57 38.21 275.21 37.72"/><path class="cls-5" d="M271.31,30.21c-.41,1.08-.41,1.08-1,2.77L266.61,43.9a4.43,4.43,0,0,1-4,3.23,9.8,9.8,0,0,1-2.49,0l.27-3.16a2.45,2.45,0,0,0,1.43.24,1.72,1.72,0,0,0,1.42-1.12l.34-.89-3.69-7.8c-.86-1.85-.94-2-1.19-2.48l3.92-.53a13.13,13.13,0,0,0,.8,2.43l1.84,4.29,1.43-4.66a13.27,13.27,0,0,0,.67-2.71Z"/></g><path class="cls-5" d="M84.81,77.66a22.52,22.52,0,0,0,0,3l.41,10.4a24,24,0,0,0,.26,2.9l-3.95.53a18.68,18.68,0,0,0-1.45-2.31l-3.55-5a20.53,20.53,0,0,1-1.39-2.23c.12.87.2,1.94.24,2.9l.17,4.39a23.4,23.4,0,0,0,.27,3L72,95.78a22.63,22.63,0,0,0,0-3.09l-.41-10.29a24,24,0,0,0-.26-2.9L75.22,79a11.69,11.69,0,0,0,1.38,2.27l3.64,5.1a21.37,21.37,0,0,1,1.39,2.15c-.11-.89-.18-1.78-.22-2.88l-.18-4.46a21.88,21.88,0,0,0-.26-3Z"/><path class="cls-5" d="M92.53,80.54c3.64-.49,6,1.68,6.2,5.55s-2.12,6.8-5.71,7.29-6-1.71-6.18-5.63S88.89,81,92.53,80.54Zm.39,9.86c1.57-.21,2.42-1.6,2.33-3.78s-1.06-3.36-2.59-3.16-2.47,1.64-2.39,3.78,1.07,3.36,2.65,3.15"/><path class="cls-5" d="M104.79,76.22a25.17,25.17,0,0,0,0,2.7l0,.41.65-.09a11.7,11.7,0,0,0,1.76-.34l.13,3.25a10.56,10.56,0,0,0-1.66.1l-.76.1.2,5c0,.55.12.81.36,1a1.44,1.44,0,0,0,.84.1,2.54,2.54,0,0,0,1.25-.52l.39,2.94a7.66,7.66,0,0,1-2.47.73,3.9,3.9,0,0,1-2.68-.33c-.7-.48-1-1.11-1-2.44l-.24-6-.68.09a10.48,10.48,0,0,0-1.57.34L99.12,80a10.05,10.05,0,0,0,1.61-.1l.65-.09,0-.41a21.72,21.72,0,0,0-.24-2.66Z"/><path class="cls-5" d="M125.79,88.49l-3.5.47,0-.9a5.51,5.51,0,0,1-3.46,1.65,3.91,3.91,0,0,1-3.16-.65,3.37,3.37,0,0,1-1.1-2.53,3.72,3.72,0,0,1,1.2-3,7.86,7.86,0,0,1,3.7-1.78c.7-.17,1.25-.27,2.54-.48l0-.45c0-.94-.58-1.3-1.77-1.14a2,2,0,0,0-2,1.65l-3.46-.14a4.75,4.75,0,0,1,1.41-2.57,7.09,7.09,0,0,1,4-1.67,7,7,0,0,1,3.37.23c1.18.53,1.72,1.54,1.79,3.3l.21,5.28A24.4,24.4,0,0,0,125.79,88.49Zm-4.28-2.61a2.25,2.25,0,0,0,.6-1.59l0-.55a10.61,10.61,0,0,0-3.11.82A1.6,1.6,0,0,0,118,86c0,.71.59,1,1.52.92a3.5,3.5,0,0,0,2-1"/><path class="cls-5" d="M138.53,74.29c2.77-.38,4.76.85,5.46,3.37l-3.22,1.16a2.62,2.62,0,0,0-.55-1.09,1.7,1.7,0,0,0-1.54-.48c-1.46.2-2.28,1.57-2.19,3.72s1.06,3.36,2.51,3.17A2.3,2.3,0,0,0,140.67,83a2.22,2.22,0,0,0,.29-.94l3.34.11a6.65,6.65,0,0,1-.69,2,5.79,5.79,0,0,1-4.54,2.88A5.11,5.11,0,0,1,134.8,86,6.38,6.38,0,0,1,133,81.49C132.84,77.57,135,74.77,138.53,74.29Z"/><path class="cls-5" d="M150.83,72.64c3.64-.49,6.05,1.68,6.21,5.55s-2.12,6.8-5.71,7.29-6-1.71-6.18-5.63S147.19,73.13,150.83,72.64Zm.39,9.86c1.57-.21,2.42-1.6,2.34-3.78s-1.06-3.36-2.59-3.16-2.47,1.64-2.39,3.78,1.07,3.36,2.64,3.15"/><path class="cls-5" d="M165.44,70.87a6.69,6.69,0,0,1,1.79,0l-.72,3.64a5.25,5.25,0,0,0-1.86-.12,2.81,2.81,0,0,0-2.1,1.35,3.19,3.19,0,0,0-.47,1.82l.12,3a21.89,21.89,0,0,0,.26,2.92l-3.73.51a24.68,24.68,0,0,0,0-3l-.24-6a21.13,21.13,0,0,0-.26-2.94l3.58-.49.06,1.55A4.44,4.44,0,0,1,165.44,70.87Z"/><path class="cls-5" d="M179.41,70.38A6,6,0,0,1,181,74.75a7.43,7.43,0,0,1-1.38,4.95,5.55,5.55,0,0,1-3.65,2,5.9,5.9,0,0,1-2.45-.17,3.74,3.74,0,0,1-1.29-.74c0,.18,0,.43,0,.7l.05,1.36a22.21,22.21,0,0,0,.26,2.82l-3.69.5a27.84,27.84,0,0,0,0-2.87l-.38-9.55a26.17,26.17,0,0,0-.26-3.05l3.54-.48,0,.67c0,.11,0,.28,0,.37a5.67,5.67,0,0,1,3.64-1.89A4.66,4.66,0,0,1,179.41,70.38Zm-2.58,7.53a4,4,0,0,0,.69-2.65c-.08-2-1.1-3-2.79-2.78a3.37,3.37,0,0,0-2.6,3.57c.07,1.84,1.34,3.07,3,2.85a2.67,2.67,0,0,0,1.74-1"/><path class="cls-5" d="M187.71,67.65c3.64-.49,6.05,1.68,6.21,5.55s-2.13,6.8-5.71,7.29-6-1.71-6.18-5.63S184.07,68.14,187.71,67.65Zm.39,9.86c1.57-.21,2.42-1.6,2.34-3.78s-1.06-3.36-2.6-3.15-2.47,1.64-2.39,3.78,1.08,3.36,2.65,3.15"/><path class="cls-5" d="M202.31,65.88a6.73,6.73,0,0,1,1.79,0l-.73,3.64a5.21,5.21,0,0,0-1.85-.12,2.83,2.83,0,0,0-2.11,1.35,3.19,3.19,0,0,0-.47,1.82l.12,3a23.53,23.53,0,0,0,.26,2.92l-3.73.51a23,23,0,0,0,0-3l-.24-6a19.68,19.68,0,0,0-.26-2.94l3.59-.49.06,1.55A4.43,4.43,0,0,1,202.31,65.88Z"/><path class="cls-5" d="M216.39,76.22l-3.5.47,0-.9a5.51,5.51,0,0,1-3.46,1.65,3.91,3.91,0,0,1-3.16-.65,3.37,3.37,0,0,1-1.1-2.53,3.72,3.72,0,0,1,1.2-3,7.86,7.86,0,0,1,3.7-1.78c.7-.18,1.25-.27,2.54-.48l0-.45c0-.94-.58-1.3-1.77-1.14a2,2,0,0,0-2,1.65l-3.46-.14a4.75,4.75,0,0,1,1.41-2.57,7.09,7.09,0,0,1,4-1.67,7,7,0,0,1,3.37.23c1.18.53,1.72,1.54,1.79,3.3l.21,5.28A24.34,24.34,0,0,0,216.39,76.22Zm-4.28-2.61a2.25,2.25,0,0,0,.6-1.59l0-.55a10.61,10.61,0,0,0-3.11.82,1.6,1.6,0,0,0-1,1.43c0,.71.59,1,1.52.92a3.5,3.5,0,0,0,2-1"/><path class="cls-5" d="M222.65,60.26a25.23,25.23,0,0,0,0,2.7l0,.41.65-.09a11.7,11.7,0,0,0,1.76-.34l.13,3.25a10.48,10.48,0,0,0-1.66.1l-.76.1.2,5c0,.55.13.81.36,1a1.45,1.45,0,0,0,.84.1,2.51,2.51,0,0,0,1.24-.52l.39,2.94a7.7,7.7,0,0,1-2.47.73,3.9,3.9,0,0,1-2.68-.33c-.7-.48-1-1.11-1-2.44l-.24-6-.69.09a10.29,10.29,0,0,0-1.56.34L217,64a9.91,9.91,0,0,0,1.61-.1l.65-.09,0-.41a21.68,21.68,0,0,0-.25-2.66Z"/><path class="cls-5" d="M230.2,65.32l.24,6a28.91,28.91,0,0,0,.26,2.94l-3.77.51a23,23,0,0,0,0-3l-.24-6a21.4,21.4,0,0,0-.26-2.94l3.77-.51A21.78,21.78,0,0,0,230.2,65.32Z"/><polygon class="cls-5" points="229.99 58 230.11 60.94 226.45 61.43 226.34 58.49 229.99 58"/><path class="cls-5" d="M237.59,60.89c3.64-.49,6.05,1.68,6.21,5.55s-2.13,6.8-5.71,7.29-6-1.71-6.19-5.63S234,61.38,237.59,60.89Zm.39,9.86c1.57-.21,2.42-1.6,2.34-3.78s-1.06-3.36-2.6-3.15-2.47,1.64-2.39,3.78S236.42,71,238,70.75"/><path class="cls-5" d="M252.29,59.06a3.51,3.51,0,0,1,2.95.7,4.09,4.09,0,0,1,1.16,3.15l.2,4.91a25.09,25.09,0,0,0,.26,2.92l-3.76.51a23.42,23.42,0,0,0,0-3l-.16-4a2.24,2.24,0,0,0-.35-1.41,1.23,1.23,0,0,0-1.21-.39c-1,.14-1.89.95-2.6,2.42l.16,4a26.16,26.16,0,0,0,.26,2.94l-3.73.51a23.08,23.08,0,0,0,0-3l-.24-6a19.9,19.9,0,0,0-.26-2.94l3.59-.49,0,.82c0,.12,0,.42,0,.55A5.35,5.35,0,0,1,252.29,59.06Z"/><polygon class="cls-5" points="262.17 66.04 262.33 70 258.69 70.49 258.53 66.54 262.17 66.04"/></g></g></svg>