<svg xmlns="http://www.w3.org/2000/svg" viewBox="0 0 159.51 28.64"><defs><style>.cls-1,.cls-2,.cls-3,.cls-4,.cls-5{fill:#010101;stroke-miterlimit:10;}.cls-1,.cls-2,.cls-3,.cls-4{stroke:#000;}.cls-1{stroke-width:0.64px;}.cls-2{stroke-width:0.65px;}.cls-3{stroke-width:0.33px;}.cls-4{stroke-width:0.34px;}.cls-5{stroke:#010101;stroke-width:0.19px;}</style></defs><title>contactt</title><g id="Layer_2" data-name="Layer 2"><g id="Layer_1-2" data-name="Layer 1"><polygon class="cls-1" points="9.53 24.88 9.43 24.88 8.22 24.88 9.85 22.96 5.16 22.96 2.9 25.61 2.9 25.61 0.7 28.2 2.95 28.2 2.95 28.2 6.6 28.2 6.7 28.2 10.35 28.2 13.18 24.88 9.53 24.88"/><polygon class="cls-1" points="10.59 22.12 12.79 19.54 12.81 19.52 12.85 19.47 15.05 16.89 10.35 16.88 8.09 19.54 8.09 19.54 5.99 22.01 3.73 24.66 8.42 24.66 10.59 22.12"/><polygon class="cls-1" points="11.18 28.2 7.79 28.2 7.76 28.2 7.69 28.2 4.3 28.2 7.34 24.62 10.82 24.62 10.82 24.62 14.07 24.62 17.56 24.61 14.52 28.19 11.18 28.2"/><polygon class="cls-1" points="13.98 18.11 16.18 15.53 16.19 15.51 16.24 15.46 18.44 12.87 13.74 12.87 11.48 15.52 11.48 15.52 9.38 17.99 7.12 20.65 11.81 20.65 13.98 18.11"/><polygon class="cls-1" points="20.91 16.45 17.52 16.45 17.49 16.45 17.43 16.45 14.03 16.46 17.07 12.88 20.56 12.87 20.56 12.87 23.8 12.87 27.29 12.87 24.25 16.45 20.91 16.45"/><polygon class="cls-2" points="34.55 20.47 32.44 23 32.43 23.02 32.38 23.07 30.27 25.6 34.87 25.6 37.04 23 37.04 23 39.06 20.58 41.23 17.98 36.63 17.98 34.55 20.47"/><polygon class="cls-2" points="28.1 28.21 32.7 28.21 34.86 25.61 30.27 25.61 28.1 28.21"/><polygon class="cls-2" points="36.93 16.1 37.02 16.1 38.2 16.1 36.64 17.97 41.23 17.97 43.4 15.38 43.4 15.38 45.51 12.85 43.31 12.84 43.31 12.84 39.73 12.84 39.64 12.84 36.06 12.84 33.35 16.1 36.93 16.1"/><polygon class="cls-2" points="25.65 23 25.65 23 27.67 20.58 29.84 17.98 25.24 17.98 23.16 20.47 23.16 20.47 21 23.07 18.89 25.6 23.48 25.6 25.65 23"/><polygon class="cls-2" points="21.31 28.21 23.48 25.61 18.88 25.61 16.71 28.21 21.31 28.21"/><polygon class="cls-2" points="31.41 16.1 33.34 16.1 36.05 12.84 32.38 12.84 32.37 12.84 29.53 12.84 27.36 15.44 25.25 17.97 29.85 17.97 31.41 16.1"/><polygon class="cls-2" points="27.67 20.68 29.78 18.15 29.8 18.13 29.84 18.08 31.95 15.55 27.35 15.54 25.18 18.14 25.18 18.14 23.16 20.56 21 23.16 25.59 23.17 27.67 20.68"/><polygon class="cls-2" points="34.13 12.94 29.53 12.94 27.36 15.53 31.96 15.54 34.13 12.94"/><polygon class="cls-2" points="25.3 25.05 25.2 25.05 24.02 25.05 25.59 23.18 20.99 23.17 18.82 25.77 18.82 25.77 16.71 28.3 18.92 28.3 18.91 28.31 22.49 28.31 22.59 28.31 26.16 28.31 28.87 25.05 25.3 25.05"/><polygon class="cls-2" points="36.57 18.14 36.57 18.14 34.55 20.56 32.38 23.16 36.98 23.17 39.06 20.68 39.06 20.68 41.23 18.08 43.34 15.55 38.74 15.54 36.57 18.14"/><polygon class="cls-2" points="40.92 12.94 38.75 15.53 43.35 15.54 45.52 12.94 40.92 12.94"/><polygon class="cls-2" points="30.81 25.05 28.89 25.05 26.18 28.31 29.85 28.31 29.85 28.3 32.7 28.31 34.87 25.71 36.98 23.18 32.38 23.17 30.81 25.05"/><polygon class="cls-3" points="52.41 20.52 50.25 23.11 50.23 23.13 50.19 23.18 48.02 25.77 52.65 25.77 54.88 23.11 54.88 23.11 56.95 20.63 59.18 17.97 54.55 17.96 52.41 20.52"/><polygon class="cls-3" points="45.78 28.44 50.41 28.45 52.64 25.79 48.01 25.78 45.78 28.44"/><polygon class="cls-3" points="54.88 16.04 54.98 16.04 56.16 16.04 54.56 17.95 59.19 17.96 61.41 15.3 61.41 15.3 63.58 12.7 61.36 12.7 61.37 12.7 57.77 12.7 57.67 12.7 54.07 12.7 51.28 16.04 54.88 16.04"/><polygon class="cls-3" points="43.41 23.11 43.41 23.11 45.49 20.63 47.71 17.97 43.08 17.96 40.95 20.52 40.95 20.52 38.72 23.18 36.55 25.77 41.18 25.77 43.41 23.11"/><polygon class="cls-3" points="38.95 28.45 41.17 25.79 36.54 25.78 34.32 28.44 38.95 28.45"/><polygon class="cls-3" points="49.33 16.04 51.27 16.04 54.05 12.7 50.36 12.7 50.35 12.7 47.49 12.7 45.26 15.36 43.09 17.95 47.72 17.96 49.33 16.04"/><polygon class="cls-4" points="65.89 16.16 69.55 16.16 72.43 12.71 68.78 12.71 68.68 12.71 65.03 12.71 62.14 16.16 65.79 16.16 65.89 16.16"/><polygon class="cls-4" points="84.88 16.16 84.97 16.16 88.63 16.16 91.51 12.71 87.86 12.71 87.76 12.71 87.33 12.71 84.11 12.71 83.58 12.71 80.7 16.16 81.22 16.16 84.45 16.16 84.88 16.16"/><polygon class="cls-4" points="88.64 16.16 92.39 16.16 95.28 12.71 91.53 12.71 88.64 16.16"/><polygon class="cls-4" points="72.75 18.19 70.6 20.76 68.29 23.51 72.99 23.51 75.2 20.88 77.44 18.2 77.44 18.2 79.75 15.44 75.06 15.44 72.75 18.19"/><polygon class="cls-4" points="68.28 23.52 65.97 26.27 65.97 26.27 64.15 28.44 68.85 28.45 71.16 25.7 71.16 25.7 72.98 23.52 68.28 23.52"/><polygon class="cls-4" points="83.06 5.9 80.91 8.46 78.6 11.21 83.3 11.22 85.51 8.58 87.76 5.9 87.76 5.9 90.07 3.15 85.37 3.14 83.06 5.9"/><polygon class="cls-4" points="87.65 0.41 85.34 3.17 90.04 3.17 92.35 0.42 87.65 0.41"/><polygon class="cls-4" points="78.59 11.22 76.28 13.98 76.28 13.98 74.46 16.15 79.16 16.15 81.47 13.4 81.47 13.4 83.29 11.23 78.59 11.22"/><polygon class="cls-4" points="73.59 16.16 73.69 16.16 77.34 16.16 80.23 12.71 76.58 12.71 76.48 12.71 76.05 12.71 72.83 12.71 72.3 12.71 69.41 16.16 69.94 16.16 73.17 16.16 73.59 16.16"/><polygon class="cls-4" points="78.29 16.16 78.39 16.16 82.04 16.16 84.92 12.71 81.27 12.71 81.17 12.71 80.75 12.71 77.52 12.71 77 12.71 74.11 16.16 74.64 16.16 77.86 16.16 78.29 16.16"/><polygon class="cls-5" points="98.14 22.04 98.22 22.04 99.28 22.04 97.85 23.72 101.98 23.72 103.97 21.39 103.97 21.39 105.91 19.11 103.93 19.11 103.93 19.11 100.71 19.11 100.63 19.11 97.41 19.11 94.92 22.04 98.14 22.04"/><polygon class="cls-5" points="93.18 22.04 94.91 22.04 97.4 19.11 94.09 19.11 94.09 19.11 91.53 19.11 89.54 21.44 87.6 23.72 91.74 23.72 93.18 22.04"/><polygon class="cls-5" points="91.34 25.54 91.25 25.54 90.19 25.54 91.63 23.86 87.49 23.86 85.5 26.19 85.5 26.19 83.56 28.47 85.55 28.47 85.55 28.47 88.76 28.47 88.85 28.47 92.07 28.47 94.56 25.54 91.34 25.54"/><polygon class="cls-5" points="96.28 25.54 94.55 25.54 92.06 28.47 95.36 28.47 95.37 28.47 97.93 28.47 99.92 26.14 101.86 23.86 97.72 23.86 96.28 25.54"/><polygon class="cls-5" points="99.03 15.71 102.25 15.71 104.74 12.67 101.52 12.67 101.44 12.67 98.22 12.67 95.73 15.71 98.95 15.71 99.03 15.71"/><polygon class="cls-5" points="105.57 15.71 108.06 12.67 104.75 12.67 102.26 15.71 105.57 15.71"/><polygon class="cls-5" points="97.76 15.71 100.25 12.67 96.94 12.67 94.45 15.71 97.76 15.71"/><polygon class="cls-5" points="103.63 15.6 103.71 15.6 104.77 15.6 103.34 17.28 107.47 17.29 109.46 14.95 109.46 14.95 111.4 12.67 109.42 12.67 109.42 12.67 106.2 12.67 106.12 12.67 102.9 12.67 100.41 15.6 103.63 15.6"/><polygon class="cls-5" points="101.77 19.11 100.04 19.11 97.55 22.03 100.85 22.03 100.86 22.03 103.42 22.03 105.41 19.7 107.35 17.42 103.21 17.42 101.77 19.11"/><polygon class="cls-1" points="108.77 25 108.67 25 107.47 25 109.1 23.08 104.4 23.08 102.14 25.73 102.14 25.73 99.94 28.32 102.19 28.32 102.19 28.32 105.84 28.32 105.94 28.32 109.6 28.32 112.42 25 108.77 25"/><polygon class="cls-1" points="109.83 22.24 112.03 19.66 112.05 19.64 112.09 19.59 114.3 17 109.6 17 107.34 19.65 107.34 19.65 105.23 22.12 102.97 24.78 107.67 24.78 109.83 22.24"/><polygon class="cls-1" points="110.42 28.31 107.03 28.32 107.01 28.32 106.94 28.32 103.55 28.32 106.58 24.74 110.07 24.74 110.07 24.74 113.32 24.73 116.8 24.73 113.76 28.31 110.42 28.31"/><polygon class="cls-1" points="113.22 18.23 115.42 15.64 115.44 15.62 115.48 15.57 117.68 12.99 112.99 12.98 110.73 15.64 110.73 15.64 108.62 18.11 106.36 20.77 111.06 20.77 113.22 18.23"/><polygon class="cls-1" points="120.16 16.57 116.76 16.57 116.74 16.57 116.67 16.57 113.28 16.57 116.32 12.99 119.8 12.99 119.8 12.99 123.05 12.99 126.53 12.98 123.5 16.57 120.16 16.57"/><polygon class="cls-4" points="129.76 15.91 133.42 15.91 136.3 12.46 132.65 12.46 132.55 12.46 128.9 12.46 126.01 15.91 129.67 15.91 129.76 15.91"/><polygon class="cls-4" points="148.75 15.91 148.84 15.91 152.5 15.91 155.38 12.46 151.73 12.46 151.63 12.46 151.21 12.46 147.98 12.46 147.45 12.46 144.57 15.91 145.09 15.91 148.32 15.91 148.75 15.91"/><polygon class="cls-4" points="152.51 15.91 156.26 15.91 159.15 12.46 155.4 12.46 152.51 15.91"/><polygon class="cls-4" points="136.62 17.95 134.47 20.51 132.16 23.27 136.86 23.27 139.07 20.63 141.32 17.95 141.32 17.95 143.63 15.2 138.93 15.19 136.62 17.95"/><polygon class="cls-4" points="132.15 23.27 129.84 26.03 129.84 26.03 128.02 28.2 132.72 28.2 135.03 25.45 135.03 25.45 136.85 23.28 132.15 23.27"/><polygon class="cls-4" points="146.93 5.65 144.78 8.22 142.47 10.97 147.17 10.97 149.38 8.34 151.63 5.66 151.63 5.66 153.94 2.9 149.24 2.9 146.93 5.65"/><polygon class="cls-4" points="151.53 0.17 149.22 2.92 153.91 2.93 156.22 0.17 151.53 0.17"/><polygon class="cls-4" points="142.46 10.98 140.16 13.73 140.16 13.73 138.34 15.9 143.03 15.91 145.34 13.15 145.34 13.15 147.16 10.98 142.46 10.98"/><polygon class="cls-4" points="137.46 15.91 137.56 15.91 141.22 15.91 144.1 12.46 140.45 12.46 140.35 12.46 139.92 12.46 136.7 12.46 136.17 12.46 133.28 15.91 133.81 15.91 137.04 15.91 137.46 15.91"/><polygon class="cls-4" points="142.16 15.91 142.26 15.91 145.91 15.91 148.8 12.46 145.14 12.46 145.05 12.46 144.62 12.46 141.39 12.46 140.87 12.46 137.98 15.91 138.51 15.91 141.73 15.91 142.16 15.91"/></g></g></svg>