<svg xmlns="http://www.w3.org/2000/svg" viewBox="0 0 316.37 121.32"><defs><style>.cls-1{isolation:isolate;}.cls-2{fill:#2a2a7a;}.cls-3{fill:#160e53;}.cls-4{fill:#221f68;}.cls-5{fill:#fff;}</style></defs><title>develop</title><g id="Layer_2" data-name="Layer 2"><g id="Layer_1-2" data-name="Layer 1"><g class="cls-1"><polygon class="cls-2" points="0 5.51 0.16 83.24 304.98 121.32 304.81 43.6 0 5.51"/><polygon class="cls-3" points="304.98 121.32 316.37 115.81 316.21 38.09 304.81 43.6 304.98 121.32"/><polygon class="cls-4" points="304.81 43.6 316.21 38.09 11.4 0 0 5.51 304.81 43.6"/></g><path class="cls-5" d="M32.33,26.6a6.56,6.56,0,0,1,1.22,4.77,6.38,6.38,0,0,1-2,4.56,5.32,5.32,0,0,1-4.16,1l-3-.37c-1.11-.14-1.51-.18-2.12-.21a14.54,14.54,0,0,0,.28-2.15l.63-8a12.8,12.8,0,0,0,0-2.18c.58.1.93.16,2.13.31l3,.37A6,6,0,0,1,32.33,26.6Zm-2.86,7.17a3.89,3.89,0,0,0,1.13-2.72A4,4,0,0,0,30,28.21a3,3,0,0,0-2.18-1L25.92,27l-.55,7.11,1.93.24a2.65,2.65,0,0,0,2.17-.52"/><path class="cls-5" d="M39.48,29a4.71,4.71,0,0,1,4.38,5.37,4.35,4.35,0,0,1-5.14,4.3,4.74,4.74,0,0,1-4.36-5.43A4.27,4.27,0,0,1,39.48,29Zm-.58,7.44c1.25.15,2.05-.72,2.18-2.36s-.53-2.71-1.76-2.86-2.09.73-2.21,2.35.54,2.72,1.79,2.87"/><path class="cls-5" d="M51.2,30.52a3.31,3.31,0,0,1,2.25,1.11,3.36,3.36,0,0,1,.63,2.58l-.29,3.71a20.31,20.31,0,0,0-.06,2.23l-3-.37A17.17,17.17,0,0,0,51,37.56l.24-3a1.76,1.76,0,0,0-.15-1.12,1.16,1.16,0,0,0-.92-.53,2.5,2.5,0,0,0-2.26,1.29l-.23,3a18.64,18.64,0,0,0-.05,2.25l-3-.37A16.81,16.81,0,0,0,45,36.82l.35-4.54A15,15,0,0,0,45.36,30l2.87.35,0,.62c0,.09,0,.31,0,.41A3.8,3.8,0,0,1,51.2,30.52Z"/><path class="cls-5" d="M59.06,28.4l-.23,3a2.31,2.31,0,0,1-.91,1.78,2.47,2.47,0,0,1-1.45.52l-.54-1.2a1.92,1.92,0,0,0,1.17-.31,1.19,1.19,0,0,0,.48-.94L55.93,31l.23-3Z"/><path class="cls-5" d="M64.43,30a18,18,0,0,0-.27,2l0,.31.52.06a10.62,10.62,0,0,0,1.41.1l-.19,2.44a10.15,10.15,0,0,0-1.31-.25l-.6-.07-.29,3.78c0,.42,0,.63.2.78a1.24,1.24,0,0,0,.64.24,1.88,1.88,0,0,0,1-.14l0,2.27a6.09,6.09,0,0,1-2,0,3.55,3.55,0,0,1-2.08-.77,2.22,2.22,0,0,1-.6-2l.35-4.51-.54-.07a9.4,9.4,0,0,0-1.26-.06l.19-2.46a8.23,8.23,0,0,0,1.27.24l.52.06,0-.31a15.47,15.47,0,0,0,0-2Z"/><path class="cls-5" d="M79.84,43.34,77,43l.05-.68a4,4,0,0,1-2.86.54,3.6,3.6,0,0,1-2.42-1.12,2.81,2.81,0,0,1-.64-2.1,2.4,2.4,0,0,1,1.22-2A5.68,5.68,0,0,1,75.46,37c.57,0,1,.05,2,.14l0-.34c.06-.71-.33-1.09-1.28-1.2s-1.43.14-1.7.84l-2.71-.8A3,3,0,0,1,73.17,34a5.28,5.28,0,0,1,3.3-.44,6.36,6.36,0,0,1,2.63.84,2.83,2.83,0,0,1,1.11,2.82l-.31,4A16.47,16.47,0,0,0,79.84,43.34Zm-3.13-2.8a1.44,1.44,0,0,0,.61-1.08l0-.41a8.12,8.12,0,0,0-2.51,0,1,1,0,0,0-.91.87c0,.53.37.89,1.12,1a2.56,2.56,0,0,0,1.67-.36"/><path class="cls-5" d="M85.33,31.61A15.13,15.13,0,0,0,85,33.83l-.61,7.82a18.29,18.29,0,0,0-.05,2.25l-3-.37a15,15,0,0,0,.29-2.22l.61-7.82a14.43,14.43,0,0,0,.05-2.25Z"/><path class="cls-5" d="M89.85,32.17a15.35,15.35,0,0,0-.29,2.22L89,42.2a18.35,18.35,0,0,0-.06,2.24l-3-.37a15.27,15.27,0,0,0,.29-2.22L86.78,34a14.67,14.67,0,0,0,.06-2.24Z"/><path class="cls-5" d="M114,38.43c-.26.53-.53,1.17-.8,1.84l-2,5.16a11.93,11.93,0,0,0-.57,1.67l-2.44-.3a13.36,13.36,0,0,0-.31-1.78L107.19,42c-.06-.26-.1-.46-.12-.6a4.71,4.71,0,0,1-.22.55l-1.1,2.85a14.76,14.76,0,0,0-.58,1.67l-2.44-.3c-.06-.54-.13-1-.3-1.78l-1.2-5.55c-.11-.54-.28-1.21-.5-2l3.09.38A11.67,11.67,0,0,0,104,39l.42,2.71c0,.36.08.61.08.73.22-.55.22-.55.26-.68l1-2.58c.5-1.34.5-1.34.58-1.64l2.1.26a15.25,15.25,0,0,0,.3,1.75l.62,2.89c0,.1.08.44.13.62.06-.22.06-.22.18-.6l.81-2.54a13,13,0,0,0,.45-1.82Z"/><path class="cls-5" d="M95.51,35.83a4.71,4.71,0,0,1,4.38,5.37,4.35,4.35,0,0,1-5.15,4.3,4.73,4.73,0,0,1-4.35-5.43C90.61,37.11,92.6,35.47,95.51,35.83Zm-.58,7.44c1.25.15,2-.72,2.17-2.36s-.53-2.71-1.76-2.86-2.09.73-2.21,2.35.55,2.72,1.8,2.87"/><path class="cls-5" d="M123.55,39.28a4.54,4.54,0,0,1,3,1.32,3.19,3.19,0,0,1,.8,1.8l-2.8,0c0-.62-.36-.93-1.14-1s-1.23.11-1.26.49.26.59,1.66,1.08a9.05,9.05,0,0,1,2.3,1,2.46,2.46,0,0,1,1.21,2.43,2.63,2.63,0,0,1-.89,1.88,5.83,5.83,0,0,1-7.16-1.28,3.63,3.63,0,0,1-.46-1.55l2.87,0c.09.78.54,1.18,1.51,1.3s1.38-.09,1.41-.54a.65.65,0,0,0-.28-.57,3.76,3.76,0,0,0-1.16-.49,16.44,16.44,0,0,1-2.08-.79,3,3,0,0,1-1.36-1.22,2.92,2.92,0,0,1-.25-1.44C119.61,39.89,121.15,39,123.55,39.28Z"/><path class="cls-5" d="M133.44,40.47a4.71,4.71,0,0,1,4.38,5.37,4.35,4.35,0,0,1-5.15,4.3,4.73,4.73,0,0,1-4.35-5.43C128.54,41.75,130.53,40.11,133.44,40.47Zm-.58,7.44c1.25.15,2-.72,2.17-2.36s-.53-2.71-1.75-2.86-2.1.73-2.22,2.35.55,2.72,1.8,2.87"/><path class="cls-5" d="M150.38,42.63c2.06.25,3,1.53,2.85,3.75L152.94,50a16.78,16.78,0,0,0-.05,2.23l-3-.37a16.13,16.13,0,0,0,.29-2.22l.24-3c.09-1.11-.19-1.58-1-1.68a2,2,0,0,0-1.88,1.37l-.23,3a17.14,17.14,0,0,0-.05,2.23l-3-.37a16.29,16.29,0,0,0,.29-2.22l.24-3a1.78,1.78,0,0,0-.15-1.18,1,1,0,0,0-.77-.47,2,2,0,0,0-2,1.35l-.23,3a17.28,17.28,0,0,0-.06,2.24l-3-.36a16.62,16.62,0,0,0,.29-2.22l.35-4.54a14.23,14.23,0,0,0,.06-2.24l2.85.35,0,.62a1.2,1.2,0,0,1,0,.2v.15a3.34,3.34,0,0,1,2.85-.88,3.15,3.15,0,0,1,1.8.76,1.9,1.9,0,0,1,.53.82A3.76,3.76,0,0,1,150.38,42.63Z"/><path class="cls-5" d="M160.25,50.76a1.39,1.39,0,0,0,.49-.7l2.45,1a4,4,0,0,1-1.07,1.41,4.47,4.47,0,0,1-3.49.84,4.69,4.69,0,0,1-3.24-1.67,5.33,5.33,0,0,1-1-3.76c.23-2.92,2.2-4.63,5-4.29a4.42,4.42,0,0,1,4,4,11.43,11.43,0,0,1,.07,2c0,.06,0,.15,0,.3l-6.48-.79a1.94,1.94,0,0,0,1.82,2.06A2,2,0,0,0,160.25,50.76Zm-1.1-5a1.68,1.68,0,0,0-2,1.22l3.7.45a1.8,1.8,0,0,0-1.7-1.67"/><path class="cls-5" d="M169.12,42.82a18,18,0,0,0-.27,2l0,.31.52.06a10.62,10.62,0,0,0,1.41.1l-.19,2.44a10.15,10.15,0,0,0-1.31-.25l-.6-.07-.29,3.78c0,.42,0,.63.2.78a1.24,1.24,0,0,0,.64.24,1.88,1.88,0,0,0,1-.14l0,2.27a6.09,6.09,0,0,1-2,0,3.55,3.55,0,0,1-2.08-.77,2.22,2.22,0,0,1-.6-2l.35-4.51L165.4,47a9.4,9.4,0,0,0-1.26-.06l.19-2.46a8.23,8.23,0,0,0,1.27.24l.52.06,0-.31a15.47,15.47,0,0,0,0-2Z"/><path class="cls-5" d="M175.11,42.6a15.2,15.2,0,0,0-.29,2.22l-.12,1.56c0,.12,0,.35-.06.48a3.82,3.82,0,0,1,3.09-.85,3.27,3.27,0,0,1,2.22,1.1,3.39,3.39,0,0,1,.63,2.58l-.29,3.71a20.32,20.32,0,0,0-.06,2.23l-3-.37a17,17,0,0,0,.29-2.22l.24-3a1.84,1.84,0,0,0-.15-1.13,1.15,1.15,0,0,0-.89-.51,2.54,2.54,0,0,0-2.29,1.28l-.23,3a18.63,18.63,0,0,0-.06,2.24l-3-.36a17,17,0,0,0,.29-2.22l.61-7.82a15.14,15.14,0,0,0,.06-2.24Z"/><path class="cls-5" d="M185.16,49.39l-.35,4.54a19.36,19.36,0,0,0-.05,2.25l-3-.37a16.75,16.75,0,0,0,.29-2.22l.35-4.54a16.21,16.21,0,0,0,.05-2.25l3,.37A14.73,14.73,0,0,0,185.16,49.39Z"/><polygon class="cls-5" points="185.66 43.89 185.49 46.1 182.56 45.74 182.74 43.53 185.66 43.89"/><path class="cls-5" d="M192.81,47.85A3.31,3.31,0,0,1,195.06,49a3.36,3.36,0,0,1,.63,2.58l-.29,3.71a20.32,20.32,0,0,0-.06,2.23l-3-.37a17.13,17.13,0,0,0,.29-2.22l.24-3a1.76,1.76,0,0,0-.15-1.12,1.16,1.16,0,0,0-.92-.53,2.5,2.5,0,0,0-2.26,1.29l-.23,3a18.63,18.63,0,0,0-.06,2.24l-3-.36a16.82,16.82,0,0,0,.29-2.22l.35-4.54a15,15,0,0,0,.05-2.25l2.87.35,0,.62c0,.09,0,.31,0,.41A3.8,3.8,0,0,1,192.81,47.85Z"/><path class="cls-5" d="M203.87,49.42l2.82.35a14.12,14.12,0,0,0-.28,2L206,57c-.14,1.77-.71,2.91-1.78,3.5a5.8,5.8,0,0,1-3.5.46,5.48,5.48,0,0,1-4.13-2.16l2.18-1.15a2.73,2.73,0,0,0,2.11,1.28,2.11,2.11,0,0,0,1.81-.44,2.28,2.28,0,0,0,.58-1.52,3.42,3.42,0,0,1-2.69.65c-2.5-.31-4-2.18-3.75-4.86s2-4.16,4.43-3.85a4.09,4.09,0,0,1,2.55,1.18l0-.33Zm-2.59,6.12a2,2,0,0,0,2.2-2,2.19,2.19,0,0,0-1.84-2.5c-1.15-.14-2,.66-2.08,2a2.06,2.06,0,0,0,1.71,2.46"/><path class="cls-5" d="M217.41,50.74a4.71,4.71,0,0,1,4.38,5.37,4.35,4.35,0,0,1-5.15,4.3A4.73,4.73,0,0,1,212.28,55C212.51,52,214.5,50.38,217.41,50.74Zm-.58,7.44c1.25.15,2-.72,2.17-2.36s-.53-2.71-1.75-2.86-2.1.73-2.22,2.35.55,2.72,1.8,2.87"/><path class="cls-5" d="M232.35,52.91a16.71,16.71,0,0,0-.28,2.2l-.35,4.56a15,15,0,0,0-.06,2.23l-2.86-.35,0-.64c0-.07,0-.29,0-.4a3.74,3.74,0,0,1-3.09.91,3.27,3.27,0,0,1-2.22-1.11,3.33,3.33,0,0,1-.63-2.58l.29-3.7a18.09,18.09,0,0,0,.05-2.23l3,.37a17,17,0,0,0-.28,2.2l-.24,3a1.78,1.78,0,0,0,.14,1.13,1.18,1.18,0,0,0,.91.52,2.6,2.6,0,0,0,2.28-1.25l.24-3a18.49,18.49,0,0,0,.05-2.23Z"/><path class="cls-5" d="M238,51.25a16.08,16.08,0,0,0-.28,2l0,.31.52.06a10.68,10.68,0,0,0,1.42.1l-.19,2.44a10.29,10.29,0,0,0-1.32-.25l-.6-.07-.29,3.78c0,.42,0,.63.2.78a1.27,1.27,0,0,0,.65.24,1.91,1.91,0,0,0,1-.14l0,2.27a6.09,6.09,0,0,1-2,0,3.54,3.54,0,0,1-2.08-.77,2.2,2.2,0,0,1-.6-2l.35-4.51-.54-.07a9.3,9.3,0,0,0-1.26-.06l.19-2.46a8.24,8.24,0,0,0,1.27.24l.52.06,0-.31a15.47,15.47,0,0,0,0-2Z"/><path class="cls-5" d="M244.67,54.1a4.52,4.52,0,0,1,3,1.32,3.25,3.25,0,0,1,.81,1.8l-2.8,0c0-.62-.36-.93-1.14-1s-1.23.11-1.26.49.26.59,1.66,1.08a9.05,9.05,0,0,1,2.3,1,2.44,2.44,0,0,1,1.21,2.43,2.63,2.63,0,0,1-.89,1.88,5.83,5.83,0,0,1-7.16-1.28,3.75,3.75,0,0,1-.46-1.55l2.87,0c.09.78.55,1.18,1.51,1.3s1.38-.09,1.41-.54a.63.63,0,0,0-.28-.57,3.76,3.76,0,0,0-1.15-.49,16.3,16.3,0,0,1-2.09-.79,3,3,0,0,1-1.36-1.22,3,3,0,0,1-.25-1.44C240.74,54.71,242.27,53.81,244.67,54.1Z"/><path class="cls-5" d="M252.89,57.67l-.35,4.54a21.71,21.71,0,0,0-.06,2.24l-3-.37a16.89,16.89,0,0,0,.29-2.22l.35-4.54a16.38,16.38,0,0,0,.06-2.24l3,.37A15,15,0,0,0,252.89,57.67Z"/><polygon class="cls-5" points="253.38 52.17 253.21 54.39 250.29 54.03 250.47 51.82 253.38 52.17"/><path class="cls-5" d="M264.21,55.84l-.59,7.64a18.11,18.11,0,0,0-.07,2.33l-2.83-.35,0-.48a2.21,2.21,0,0,1,0-.32,3.89,3.89,0,0,1-3,.71c-2.62-.32-4.06-2.32-3.83-5.29a4.83,4.83,0,0,1,1.52-3.45,3.82,3.82,0,0,1,3-.79,4.47,4.47,0,0,1,2.87,1.45c0-.22,0-.36,0-.56l.1-1.22a17,17,0,0,0,.07-2.33l2.94.36A16.88,16.88,0,0,0,264.21,55.84Zm-5.59,7.36A2.24,2.24,0,0,0,261,60.91a2.4,2.4,0,0,0-2-2.73c-1.25-.15-2.11.71-2.23,2.26a2.79,2.79,0,0,0,.5,2,2.08,2.08,0,0,0,1.35.74"/><path class="cls-5" d="M270.94,64.3a1.45,1.45,0,0,0,.49-.7l2.45,1A4.24,4.24,0,0,1,272.81,66a4.49,4.49,0,0,1-3.5.84,4.67,4.67,0,0,1-3.24-1.66,5.29,5.29,0,0,1-1-3.76c.23-2.92,2.21-4.63,5-4.29a4.42,4.42,0,0,1,4,4,11.38,11.38,0,0,1,.07,2,2.38,2.38,0,0,0,0,.3l-6.48-.79a1.93,1.93,0,0,0,1.81,2.06A2,2,0,0,0,270.94,64.3Zm-1.11-5a1.67,1.67,0,0,0-2,1.22l3.7.45a1.79,1.79,0,0,0-1.7-1.67"/><path class="cls-5" d="M284.86,59a4.71,4.71,0,0,1,4.38,5.37,4.35,4.35,0,0,1-5.15,4.3,4.73,4.73,0,0,1-4.35-5.43C280,60.28,282,58.64,284.86,59Zm-.58,7.44c1.25.15,2-.72,2.17-2.36s-.53-2.71-1.76-2.86-2.09.73-2.21,2.35.55,2.72,1.8,2.87"/><path class="cls-5" d="M295.8,57.1a7.59,7.59,0,0,1,2.16.58l-.61,2.11a2.91,2.91,0,0,0-1.4-.55c-.71-.09-1,.18-1.07.94l0,.37.42.05a18.48,18.48,0,0,0,1.92.13L297,63.21a14.85,14.85,0,0,0-1.87-.33l-.45-.05-.35,4.5a16.28,16.28,0,0,0-.05,2.25l-3-.37a16.79,16.79,0,0,0,.29-2.22l.35-4.5-.39,0a10.49,10.49,0,0,0-1.61-.1l.19-2.48a12.28,12.28,0,0,0,1.6.3l.39,0,.05-.69C292.3,57.58,293.45,56.81,295.8,57.1Z"/><path class="cls-5" d="M27.19,45.34a4.71,4.71,0,0,1,4.38,5.37A4.35,4.35,0,0,1,26.42,55a4.73,4.73,0,0,1-4.35-5.43C22.3,46.63,24.28,45,27.19,45.34Zm-.58,7.44c1.25.15,2-.72,2.17-2.36S28.25,47.7,27,47.55s-2.1.73-2.22,2.35.55,2.72,1.8,2.87"/><path class="cls-5" d="M21.94,45c-.42.73-.42.73-1,1.87L17,54.31a3,3,0,0,1-3.4,1.62,8.7,8.7,0,0,1-2-.49l.5-2.31a2.3,2.3,0,0,0,1.1.46A1.16,1.16,0,0,0,14.48,53l.35-.59-2.21-6.56c-.5-1.54-.55-1.68-.71-2.08l3.13.38a10.88,10.88,0,0,0,.41,2l1.06,3.57,1.55-3.19a8.93,8.93,0,0,0,.77-1.89Z"/><path class="cls-5" d="M42.13,47.51a16.67,16.67,0,0,0-.28,2.2l-.35,4.56a15,15,0,0,0-.06,2.23l-2.86-.35,0-.64c0-.07,0-.29,0-.4a3.74,3.74,0,0,1-3.09.91,3.27,3.27,0,0,1-2.22-1.11,3.33,3.33,0,0,1-.63-2.58l.29-3.7a18.08,18.08,0,0,0,.05-2.23l3,.37a17.05,17.05,0,0,0-.28,2.2l-.24,3a1.71,1.71,0,0,0,.15,1.13,1.16,1.16,0,0,0,.9.52,2.6,2.6,0,0,0,2.28-1.25l.24-3a18.54,18.54,0,0,0,.05-2.23Z"/><path class="cls-5" d="M55.6,48.84a4.54,4.54,0,0,1,3,1.32,3.19,3.19,0,0,1,.8,1.8l-2.8,0c0-.62-.36-.93-1.14-1s-1.23.11-1.26.49.26.59,1.66,1.08a9.05,9.05,0,0,1,2.3,1,2.46,2.46,0,0,1,1.21,2.43,2.63,2.63,0,0,1-.89,1.88,4.57,4.57,0,0,1-3.49.66,4.6,4.6,0,0,1-3.67-1.94,3.63,3.63,0,0,1-.46-1.55l2.87,0c.09.78.54,1.18,1.51,1.3s1.38-.09,1.41-.54a.65.65,0,0,0-.28-.57,3.76,3.76,0,0,0-1.16-.49,16.45,16.45,0,0,1-2.08-.79,3,3,0,0,1-1.36-1.22,2.92,2.92,0,0,1-.25-1.44C51.65,49.45,53.2,48.55,55.6,48.84Z"/><path class="cls-5" d="M49.4,48.22a5.65,5.65,0,0,1,1.41.35l-.9,2.57a4.77,4.77,0,0,0-1.45-.46,2,2,0,0,0-1.77.59,2.09,2.09,0,0,0-.53,1.27L46,54.83a16.74,16.74,0,0,0-.06,2.23l-3-.36a16.85,16.85,0,0,0,.29-2.22l.35-4.54a14.92,14.92,0,0,0,.05-2.25l2.87.35-.09,1.17A3.11,3.11,0,0,1,49.4,48.22Z"/><path class="cls-5" d="M66.26,57.13a1.45,1.45,0,0,0,.49-.7l2.45,1a4.24,4.24,0,0,1-1.07,1.41,4.49,4.49,0,0,1-3.5.84A4.67,4.67,0,0,1,61.39,58a5.3,5.3,0,0,1-1-3.76c.23-2.92,2.21-4.63,5-4.29a4.42,4.42,0,0,1,4,4,11.4,11.4,0,0,1,.07,2,2.38,2.38,0,0,0,0,.3l-6.48-.79a1.93,1.93,0,0,0,1.81,2.06A2,2,0,0,0,66.26,57.13Zm-1.11-5a1.67,1.67,0,0,0-2,1.22l3.7.45a1.79,1.79,0,0,0-1.7-1.67"/><path class="cls-5" d="M74.25,48.13A15.35,15.35,0,0,0,74,50.35l-.61,7.82a18.35,18.35,0,0,0-.06,2.24l-3-.37a15.27,15.27,0,0,0,.29-2.22L71.18,50a14.67,14.67,0,0,0,.06-2.24Z"/><path class="cls-5" d="M80.56,48.63a7.63,7.63,0,0,1,2.16.58l-.62,2.11a2.86,2.86,0,0,0-1.4-.55c-.7-.09-1,.18-1.06.94l0,.37.41.05a18.79,18.79,0,0,0,1.92.13l-.19,2.48a14.84,14.84,0,0,0-1.87-.33l-.45-.05-.35,4.5A16.48,16.48,0,0,0,79,61.11l-3-.37a16.78,16.78,0,0,0,.29-2.22l.35-4.5-.39,0a10.68,10.68,0,0,0-1.62-.1l.19-2.48a12.54,12.54,0,0,0,1.61.3l.39,0,.05-.69C77.06,49.12,78.21,48.35,80.56,48.63Z"/><path class="cls-5" d="M99.42,54.18a4.71,4.71,0,0,1,4.38,5.37,4.35,4.35,0,0,1-5.15,4.3,4.73,4.73,0,0,1-4.35-5.43C94.53,55.46,96.51,53.82,99.42,54.18Zm-.58,7.44c1.25.15,2-.72,2.17-2.36s-.53-2.71-1.75-2.86-2.1.73-2.22,2.35.55,2.72,1.8,2.87"/><path class="cls-5" d="M92.26,51.29a18,18,0,0,0-.27,2l0,.31.52.06a10.54,10.54,0,0,0,1.41.1l-.19,2.44A10.15,10.15,0,0,0,92.4,56l-.6-.07-.29,3.78c0,.42,0,.63.2.78a1.25,1.25,0,0,0,.65.24,1.85,1.85,0,0,0,1-.14l0,2.27a6.09,6.09,0,0,1-2,0,3.57,3.57,0,0,1-2.08-.77,2.21,2.21,0,0,1-.59-2l.35-4.51-.55-.07a9.52,9.52,0,0,0-1.26-.06L87.47,53a8.35,8.35,0,0,0,1.28.25l.52.06,0-.31a15.45,15.45,0,0,0,0-2Z"/><path class="cls-5" d="M119.61,56,119,63.66A18,18,0,0,0,119,66l-2.84-.35,0-.48a2.24,2.24,0,0,1,0-.32,3.89,3.89,0,0,1-3,.71c-2.62-.32-4.06-2.32-3.82-5.29a4.87,4.87,0,0,1,1.51-3.45,3.84,3.84,0,0,1,3-.79,4.47,4.47,0,0,1,2.87,1.45c0-.22,0-.36,0-.56l.1-1.22a16.94,16.94,0,0,0,.07-2.33l3,.36A16.69,16.69,0,0,0,119.61,56ZM114,63.38a2.23,2.23,0,0,0,2.42-2.29,2.4,2.4,0,0,0-2-2.73c-1.25-.15-2.12.71-2.24,2.25a2.79,2.79,0,0,0,.51,2,2.08,2.08,0,0,0,1.35.74"/><path class="cls-5" d="M140.37,59.53c-.34.63-.48.9-.7,1.36l-2.91,6a5.49,5.49,0,0,0-.49,1.19l-3.15-.39a7.11,7.11,0,0,0-.29-1.29l-1.92-6.62c-.07-.22-.24-.72-.49-1.51l3.19.39a6,6,0,0,0,.17,1.3l1,4.76,0,.17c0,.16,0,.16.08.43.05-.13.08-.21.1-.26L135,65l.07-.17,1.69-4.41a6,6,0,0,0,.37-1.23Z"/><path class="cls-5" d="M126.34,64.48a1.39,1.39,0,0,0,.49-.7l2.45,1a4,4,0,0,1-1.07,1.41,4.47,4.47,0,0,1-3.49.84,4.67,4.67,0,0,1-3.24-1.67,5.33,5.33,0,0,1-1-3.76c.23-2.92,2.21-4.63,5-4.29a4.42,4.42,0,0,1,4,4,10.58,10.58,0,0,1,.07,2,2.38,2.38,0,0,0,0,.3L123,62.78a1.94,1.94,0,0,0,1.82,2.06A2,2,0,0,0,126.34,64.48Zm-1.11-5a1.67,1.67,0,0,0-2,1.22l3.7.45a1.79,1.79,0,0,0-1.7-1.67"/><path class="cls-5" d="M146.39,66.94a1.45,1.45,0,0,0,.49-.7l2.45,1a4.24,4.24,0,0,1-1.07,1.41,4.49,4.49,0,0,1-3.5.84,4.67,4.67,0,0,1-3.24-1.66,5.3,5.3,0,0,1-1-3.76c.23-2.92,2.21-4.63,5-4.29a4.42,4.42,0,0,1,4,4,11.4,11.4,0,0,1,.07,2,2.38,2.38,0,0,0,0,.3l-6.48-.79a1.93,1.93,0,0,0,1.81,2.06A2,2,0,0,0,146.39,66.94Zm-1.11-5a1.67,1.67,0,0,0-2,1.22l3.7.45a1.79,1.79,0,0,0-1.7-1.67"/><path class="cls-5" d="M154.38,57.93a15.34,15.34,0,0,0-.29,2.22L153.48,68a18.34,18.34,0,0,0-.06,2.24l-3-.37a15.27,15.27,0,0,0,.29-2.22l.61-7.82a14.67,14.67,0,0,0,.06-2.24Z"/><path class="cls-5" d="M160,61.59A4.71,4.71,0,0,1,164.41,67a4.35,4.35,0,0,1-5.15,4.3,4.73,4.73,0,0,1-4.35-5.43C155.14,62.88,157.12,61.24,160,61.59ZM159.46,69c1.25.15,2-.72,2.17-2.36s-.53-2.71-1.75-2.86-2.1.73-2.22,2.35.55,2.72,1.8,2.87"/><path class="cls-5" d="M174.68,64.6a5,5,0,0,1,.88,3.58A4.77,4.77,0,0,1,174,71.6a4,4,0,0,1-3.05.81,5.17,5.17,0,0,1-1.91-.63,3.4,3.4,0,0,1-.94-.79c0,.13,0,.32,0,.53l-.08,1a15.76,15.76,0,0,0,0,2.15l-3-.36a20,20,0,0,0,.28-2.14l.56-7.2a18.72,18.72,0,0,0,.07-2.33l2.83.35,0,.5,0,.27a4.08,4.08,0,0,1,3-.68A4.38,4.38,0,0,1,174.68,64.6ZM172,69.71a2.61,2.61,0,0,0,.78-1.84,2.18,2.18,0,1,0-4.3-.48,2.42,2.42,0,0,0,2.06,2.71,1.94,1.94,0,0,0,1.46-.38"/><path class="cls-5" d="M191.21,65.75c-.41.73-.41.73-1,1.87l-3.9,7.4a3,3,0,0,1-3.41,1.62,8.63,8.63,0,0,1-1.95-.49l.49-2.31a2.3,2.3,0,0,0,1.1.46,1.16,1.16,0,0,0,1.22-.56l.35-.59-2.2-6.56c-.51-1.55-.56-1.69-.71-2.08l3.12.38a10.88,10.88,0,0,0,.41,2l1.06,3.57,1.54-3.19a8.59,8.59,0,0,0,.77-1.89Z"/><path class="cls-5" d="M196.46,66a4.71,4.71,0,0,1,4.38,5.37,4.35,4.35,0,0,1-5.14,4.3,4.74,4.74,0,0,1-4.36-5.43A4.27,4.27,0,0,1,196.46,66Zm-.58,7.44c1.25.15,2.05-.72,2.18-2.36s-.53-2.71-1.76-2.86-2.09.73-2.21,2.35.54,2.72,1.79,2.87"/><path class="cls-5" d="M211.4,68.22a16.57,16.57,0,0,0-.29,2.2L210.75,75a14.82,14.82,0,0,0-.05,2.23l-2.87-.35,0-.64a3.37,3.37,0,0,1,0-.4,3.74,3.74,0,0,1-3.1.91,3.27,3.27,0,0,1-2.22-1.11A3.33,3.33,0,0,1,202,73l.29-3.7a20.19,20.19,0,0,0,.06-2.23l3,.37a17.05,17.05,0,0,0-.28,2.2l-.24,3a1.77,1.77,0,0,0,.15,1.13,1.17,1.17,0,0,0,.9.52,2.59,2.59,0,0,0,2.28-1.25l.24-3a18.52,18.52,0,0,0,.06-2.23Z"/><path class="cls-5" d="M218.67,68.93a5.74,5.74,0,0,1,1.41.35l-.9,2.57a4.85,4.85,0,0,0-1.45-.46A2,2,0,0,0,216,72a2.15,2.15,0,0,0-.53,1.27l-.18,2.3a16.6,16.6,0,0,0-.05,2.23l-3-.36a17,17,0,0,0,.29-2.22l.35-4.54a15.14,15.14,0,0,0,.06-2.24l2.86.35-.09,1.17A3.12,3.12,0,0,1,218.67,68.93Z"/><path class="cls-5" d="M242,78.63a1.45,1.45,0,0,0,.49-.7l2.45,1a4.25,4.25,0,0,1-1.07,1.41,4.5,4.5,0,0,1-3.5.84,4.67,4.67,0,0,1-3.23-1.66,5.29,5.29,0,0,1-1-3.76c.23-2.92,2.21-4.63,5-4.29a4.42,4.42,0,0,1,4,4,11.35,11.35,0,0,1,.07,2,2.38,2.38,0,0,0,0,.3l-6.48-.79A1.93,1.93,0,0,0,240.47,79,2,2,0,0,0,242,78.63Zm-1.11-5a1.67,1.67,0,0,0-2,1.22l3.7.45a1.79,1.79,0,0,0-1.7-1.67"/><path class="cls-5" d="M231.52,70.41c2.62.32,4,2.22,3.78,5.14a5.18,5.18,0,0,1-1.57,3.6,3.86,3.86,0,0,1-3.09.78,4,4,0,0,1-2.75-1.4l0,.31,0,.48L225,79a17.74,17.74,0,0,0,.29-2.31l.59-7.64A17.14,17.14,0,0,0,226,66.7l2.92.36a20.53,20.53,0,0,0-.28,2.31l-.1,1.24c0,.22,0,.35-.05.56A4,4,0,0,1,231.52,70.41Zm-1.3,7.19c1.25.15,2.17-.8,2.29-2.36s-.58-2.52-1.84-2.67a2.17,2.17,0,0,0-2.44,2.2,2.49,2.49,0,0,0,2,2.83"/><path class="cls-5" d="M250,69.63a15.38,15.38,0,0,0-.29,2.22l-.61,7.82a18.39,18.39,0,0,0-.06,2.24l-3-.37a15.31,15.31,0,0,0,.29-2.22l.61-7.82a14.7,14.7,0,0,0,.06-2.24Z"/><path class="cls-5" d="M253.93,75.67l-.35,4.54a19.41,19.41,0,0,0-.05,2.25l-3-.37a16.71,16.71,0,0,0,.29-2.22l.35-4.54a16.17,16.17,0,0,0,.05-2.25l3,.37A14.76,14.76,0,0,0,253.93,75.67Z"/><polygon class="cls-5" points="254.44 70.18 254.27 72.39 251.34 72.03 251.51 69.82 254.44 70.18"/><path class="cls-5" d="M260.92,81a1.45,1.45,0,0,0,.49-.7l2.45,1a4.24,4.24,0,0,1-1.07,1.41,4.49,4.49,0,0,1-3.5.84,4.67,4.67,0,0,1-3.24-1.66,5.29,5.29,0,0,1-1-3.76c.23-2.92,2.21-4.63,5-4.29a4.42,4.42,0,0,1,4,4,11.38,11.38,0,0,1,.07,2,2.38,2.38,0,0,0,0,.3l-6.48-.79a1.93,1.93,0,0,0,1.81,2.06A2,2,0,0,0,260.92,81Zm-1.11-5a1.67,1.67,0,0,0-2,1.22l3.7.45a1.79,1.79,0,0,0-1.7-1.67"/><path class="cls-5" d="M270.7,71.9a7.65,7.65,0,0,1,2.17.58l-.62,2.11a2.91,2.91,0,0,0-1.4-.55c-.71-.09-1,.18-1.06.94l0,.37.41.05a18.79,18.79,0,0,0,1.92.13L271.92,78a14.9,14.9,0,0,0-1.88-.33l-.44-.05-.35,4.5a16.48,16.48,0,0,0-.06,2.24l-3-.37a16.68,16.68,0,0,0,.29-2.22l.35-4.5-.39,0a10.61,10.61,0,0,0-1.62-.1l.19-2.48a12.43,12.43,0,0,0,1.61.3l.39,0,.05-.69C267.21,72.38,268.36,71.61,270.7,71.9Z"/><path class="cls-5" d="M277.4,76a4.52,4.52,0,0,1,3,1.32,3.25,3.25,0,0,1,.81,1.8l-2.8,0c0-.62-.36-.93-1.14-1s-1.23.11-1.26.49.26.59,1.66,1.08a9.05,9.05,0,0,1,2.3,1A2.44,2.44,0,0,1,281.17,83a2.63,2.63,0,0,1-.89,1.88,5.83,5.83,0,0,1-7.16-1.28,3.75,3.75,0,0,1-.46-1.55l2.87,0c.09.78.55,1.18,1.51,1.3s1.38-.09,1.41-.54a.63.63,0,0,0-.28-.57,3.76,3.76,0,0,0-1.15-.49,16.29,16.29,0,0,1-2.09-.79,3,3,0,0,1-1.36-1.22,3,3,0,0,1-.25-1.44C273.47,76.59,275,75.69,277.4,76Z"/><path class="cls-5" d="M292.08,77.75a4.71,4.71,0,0,1,4.38,5.37,4.35,4.35,0,0,1-5.14,4.3A4.74,4.74,0,0,1,287,82,4.27,4.27,0,0,1,292.08,77.75Zm-.58,7.44c1.25.15,2.05-.72,2.18-2.36s-.53-2.71-1.76-2.86-2.09.73-2.21,2.35.54,2.72,1.79,2.87"/><path class="cls-5" d="M303.73,79.33a5.65,5.65,0,0,1,1.41.35l-.9,2.57a4.77,4.77,0,0,0-1.45-.46,2,2,0,0,0-1.77.59,2.09,2.09,0,0,0-.53,1.27l-.18,2.3a16.74,16.74,0,0,0-.06,2.23l-3-.36a16.81,16.81,0,0,0,.29-2.22l.35-4.54a14.89,14.89,0,0,0,.05-2.25l2.87.35-.09,1.17A3.11,3.11,0,0,1,303.73,79.33Z"/><path class="cls-5" d="M68.14,68.31c2.06.25,3,1.53,2.85,3.75l-.29,3.66A16.78,16.78,0,0,0,70.65,78l-3-.37a16.17,16.17,0,0,0,.29-2.22l.24-3c.09-1.11-.19-1.58-1-1.68A2,2,0,0,0,65.28,72L65,75A17.14,17.14,0,0,0,65,77.26l-3-.37a16.29,16.29,0,0,0,.29-2.22l.24-3a1.79,1.79,0,0,0-.15-1.18A1,1,0,0,0,61.6,70a2,2,0,0,0-2,1.35l-.23,3a17.27,17.27,0,0,0-.06,2.24l-3-.36A16.62,16.62,0,0,0,56.67,74L57,69.45a14.23,14.23,0,0,0,.06-2.24l2.85.35,0,.62a1.21,1.21,0,0,1,0,.2v.15a3.34,3.34,0,0,1,2.85-.88,3.15,3.15,0,0,1,1.8.76,1.9,1.9,0,0,1,.53.82A3.76,3.76,0,0,1,68.14,68.31Z"/><path class="cls-5" d="M80.71,79.19l-2.8-.34.05-.68a4,4,0,0,1-2.86.54,3.6,3.6,0,0,1-2.42-1.12,2.81,2.81,0,0,1-.64-2.1,2.4,2.4,0,0,1,1.22-2,5.68,5.68,0,0,1,3.06-.59c.57,0,1,.05,2,.14l0-.34c.06-.71-.33-1.09-1.28-1.2s-1.43.14-1.7.84l-2.72-.8A3,3,0,0,1,74,69.88a5.28,5.28,0,0,1,3.3-.44,6.36,6.36,0,0,1,2.63.84,2.83,2.83,0,0,1,1.11,2.82l-.31,4A16.47,16.47,0,0,0,80.71,79.19Zm-3.13-2.8a1.44,1.44,0,0,0,.61-1.08l0-.41a8.12,8.12,0,0,0-2.51,0,1,1,0,0,0-.91.87c0,.53.37.89,1.12,1a2.56,2.56,0,0,0,1.67-.36"/><path class="cls-5" d="M98.64,79a1.45,1.45,0,0,0,.49-.7l2.45,1a4.24,4.24,0,0,1-1.07,1.41,4.49,4.49,0,0,1-3.5.84,4.67,4.67,0,0,1-3.24-1.66,5.29,5.29,0,0,1-1-3.76c.23-2.92,2.21-4.63,5-4.29a4.42,4.42,0,0,1,4,4,11.43,11.43,0,0,1,.07,2,2.41,2.41,0,0,0,0,.3l-6.48-.79a1.93,1.93,0,0,0,1.81,2.06A2,2,0,0,0,98.64,79Zm-1.11-5a1.67,1.67,0,0,0-2,1.22l3.7.45A1.79,1.79,0,0,0,97.53,74"/><path class="cls-5" d="M86.11,67.45a15.17,15.17,0,0,0-.29,2.22l-.32,4.14,1.71-1.42a8.8,8.8,0,0,0,1.37-1.33l3.83.47c-.6.44-.79.57-1.62,1.26L88.53,74.6l2.13,3.89a22.1,22.1,0,0,0,1.19,2.06l-3.67-.45a12.06,12.06,0,0,0-.8-2.1l-1-2L85.27,77l0,.58a11.84,11.84,0,0,0-.06,2.17l-2.94-.36a15.87,15.87,0,0,0,.29-2.22l.61-7.82a16,16,0,0,0,.05-2.25Z"/><path class="cls-5" d="M117.67,73.66l-.59,7.64a18,18,0,0,0-.06,2.33l-2.84-.35,0-.48a2.24,2.24,0,0,1,0-.32,3.89,3.89,0,0,1-3,.71c-2.62-.32-4.06-2.32-3.82-5.29A4.87,4.87,0,0,1,109,74.45a3.84,3.84,0,0,1,3-.79,4.47,4.47,0,0,1,2.87,1.45c0-.22,0-.36,0-.56l.1-1.22A17,17,0,0,0,115,71l3,.36A16.69,16.69,0,0,0,117.67,73.66ZM112.09,81a2.23,2.23,0,0,0,2.42-2.29,2.4,2.4,0,0,0-2-2.73c-1.25-.15-2.12.71-2.24,2.25a2.79,2.79,0,0,0,.51,2,2.08,2.08,0,0,0,1.35.74"/><path class="cls-5" d="M124.4,82.12a1.39,1.39,0,0,0,.49-.7l2.45,1a4,4,0,0,1-1.07,1.41,4.47,4.47,0,0,1-3.49.84A4.67,4.67,0,0,1,119.53,83a5.33,5.33,0,0,1-1-3.76c.23-2.92,2.21-4.63,5-4.29a4.42,4.42,0,0,1,4,4,10.54,10.54,0,0,1,.07,2,2.38,2.38,0,0,0,0,.3l-6.48-.79a1.94,1.94,0,0,0,1.82,2.06A2,2,0,0,0,124.4,82.12Zm-1.11-5a1.67,1.67,0,0,0-2,1.22l3.7.45a1.79,1.79,0,0,0-1.7-1.67"/><path class="cls-5" d="M133.4,76.19a4.23,4.23,0,0,1,4,3.6l-2.63.23a2.16,2.16,0,0,0-.34-.92,1.57,1.57,0,0,0-1.17-.67c-1.17-.14-1.93.72-2.06,2.34s.53,2.72,1.69,2.86a1.59,1.59,0,0,0,1.41-.48,1.48,1.48,0,0,0,.31-.65l2.62.75a4.5,4.5,0,0,1-.72,1.39,4.06,4.06,0,0,1-3.84,1.25,4.79,4.79,0,0,1-3.25-1.68,5.27,5.27,0,0,1-1-3.74C128.64,77.51,130.6,75.85,133.4,76.19Z"/><path class="cls-5" d="M141.55,79.8l-.35,4.54a21.78,21.78,0,0,0-.06,2.24l-3-.37a16.89,16.89,0,0,0,.29-2.22l.35-4.54a16.38,16.38,0,0,0,.06-2.24l3,.37A15,15,0,0,0,141.55,79.8Z"/><polygon class="cls-5" points="142.05 74.3 141.88 76.51 138.96 76.15 139.13 73.94 142.05 74.3"/><path class="cls-5" d="M147.28,77.93a4.52,4.52,0,0,1,3,1.32,3.25,3.25,0,0,1,.81,1.8l-2.8,0c0-.62-.36-.93-1.14-1s-1.23.11-1.26.49.26.59,1.66,1.08a9.06,9.06,0,0,1,2.3,1A2.44,2.44,0,0,1,151,85a2.63,2.63,0,0,1-.89,1.88A5.83,5.83,0,0,1,143,85.58a3.74,3.74,0,0,1-.46-1.55l2.87,0c.09.78.55,1.18,1.51,1.3s1.38-.09,1.41-.54a.63.63,0,0,0-.28-.57,3.76,3.76,0,0,0-1.15-.49,16.3,16.3,0,0,1-2.09-.79,3,3,0,0,1-1.36-1.22,3,3,0,0,1-.25-1.44C143.35,78.54,144.88,77.64,147.28,77.93Z"/><path class="cls-5" d="M155.49,81.5,155.14,86a21.65,21.65,0,0,0-.06,2.24l-3-.37a16.86,16.86,0,0,0,.29-2.22l.35-4.54a16.34,16.34,0,0,0,.06-2.24l3,.37A15,15,0,0,0,155.49,81.5Z"/><polygon class="cls-5" points="155.99 76 155.82 78.22 152.9 77.86 153.07 75.65 155.99 76"/><path class="cls-5" d="M161.7,79.67A4.71,4.71,0,0,1,166.08,85a4.35,4.35,0,0,1-5.14,4.3,4.74,4.74,0,0,1-4.36-5.43A4.27,4.27,0,0,1,161.7,79.67Zm-.58,7.44c1.25.15,2.05-.72,2.18-2.36s-.53-2.71-1.76-2.86-2.09.73-2.21,2.35.54,2.72,1.79,2.87"/><path class="cls-5" d="M173.43,81.22a3.31,3.31,0,0,1,2.25,1.11,3.36,3.36,0,0,1,.63,2.58L176,88.61a20.32,20.32,0,0,0-.06,2.23l-3-.37a17.13,17.13,0,0,0,.29-2.22l.24-3a1.76,1.76,0,0,0-.15-1.12,1.16,1.16,0,0,0-.92-.53,2.5,2.5,0,0,0-2.26,1.29l-.23,3a18.63,18.63,0,0,0-.06,2.24l-3-.36a16.86,16.86,0,0,0,.29-2.22l.35-4.54a15.08,15.08,0,0,0,.05-2.25l2.87.35,0,.62c0,.09,0,.31,0,.41A3.8,3.8,0,0,1,173.43,81.22Z"/><path class="cls-5" d="M182.08,82.19a4.52,4.52,0,0,1,3,1.32,3.25,3.25,0,0,1,.81,1.8l-2.8,0c0-.62-.36-.93-1.14-1s-1.23.11-1.26.49.26.59,1.66,1.08a9.05,9.05,0,0,1,2.3,1,2.44,2.44,0,0,1,1.21,2.43,2.63,2.63,0,0,1-.89,1.88,5.83,5.83,0,0,1-7.16-1.28,3.74,3.74,0,0,1-.46-1.55l2.87,0c.09.78.54,1.18,1.51,1.3s1.38-.09,1.41-.54a.65.65,0,0,0-.28-.57A3.76,3.76,0,0,0,181.7,88a16.3,16.3,0,0,1-2.09-.79A3,3,0,0,1,178.25,86a3,3,0,0,1-.25-1.44C178.14,82.8,179.68,81.9,182.08,82.19Z"/><path class="cls-5" d="M197.42,80.8a7.59,7.59,0,0,1,2.16.58L199,83.5a2.91,2.91,0,0,0-1.4-.55c-.71-.09-1,.18-1.07.94l0,.37.42.05a18.49,18.49,0,0,0,1.92.13l-.19,2.48a14.84,14.84,0,0,0-1.87-.33l-.45-.05-.35,4.5a16.27,16.27,0,0,0-.05,2.25l-3-.37a16.79,16.79,0,0,0,.29-2.22l.35-4.5-.39,0a10.48,10.48,0,0,0-1.61-.1l.19-2.48a12.3,12.3,0,0,0,1.6.3l.39,0,.05-.69C193.92,81.29,195.07,80.52,197.42,80.8Z"/><path class="cls-5" d="M204.59,84.92A4.71,4.71,0,0,1,209,90.29a4.35,4.35,0,0,1-5.15,4.3,4.73,4.73,0,0,1-4.35-5.43C199.7,86.2,201.68,84.56,204.59,84.92ZM204,92.35c1.25.15,2-.72,2.17-2.36s-.53-2.71-1.76-2.86-2.09.73-2.21,2.35.55,2.72,1.8,2.87"/><path class="cls-5" d="M216.24,86.5a5.74,5.74,0,0,1,1.41.35l-.9,2.57A4.85,4.85,0,0,0,215.3,89a2,2,0,0,0-1.77.59,2,2,0,0,0-.53,1.27l-.18,2.3a16.77,16.77,0,0,0-.06,2.23l-3-.36a17,17,0,0,0,.29-2.22l.35-4.54a15.1,15.1,0,0,0,.06-2.24l2.87.35-.09,1.17A3.09,3.09,0,0,1,216.24,86.5Z"/><path class="cls-5" d="M232.67,88.69c-.42.73-.42.73-1,1.87L227.75,98a3,3,0,0,1-3.4,1.62,8.7,8.7,0,0,1-2-.49l.5-2.31a2.3,2.3,0,0,0,1.1.46,1.17,1.17,0,0,0,1.22-.56l.35-.59-2.21-6.56c-.5-1.54-.55-1.68-.71-2.08l3.13.38a10.16,10.16,0,0,0,.41,2l1.06,3.57,1.55-3.19a8.93,8.93,0,0,0,.77-1.89Z"/><path class="cls-5" d="M237.92,89a4.71,4.71,0,0,1,4.38,5.37,4.35,4.35,0,0,1-5.15,4.3,4.73,4.73,0,0,1-4.35-5.43C233,90.28,235,88.64,237.92,89Zm-.58,7.44c1.25.15,2-.72,2.17-2.36s-.53-2.71-1.75-2.86-2.1.73-2.22,2.35.55,2.72,1.8,2.87"/><path class="cls-5" d="M252.86,91.16a16.67,16.67,0,0,0-.28,2.2l-.35,4.56a15,15,0,0,0-.06,2.23l-2.86-.35,0-.64c0-.07,0-.29,0-.4a3.74,3.74,0,0,1-3.09.91,3.27,3.27,0,0,1-2.22-1.11,3.33,3.33,0,0,1-.63-2.58l.29-3.7a18.13,18.13,0,0,0,.05-2.23l3,.37a17.05,17.05,0,0,0-.28,2.2l-.24,3a1.78,1.78,0,0,0,.14,1.13,1.18,1.18,0,0,0,.91.52,2.6,2.6,0,0,0,2.28-1.25l.24-3a18.54,18.54,0,0,0,.05-2.23Z"/><polygon class="cls-5" points="256.79 97.72 256.55 100.7 253.64 100.34 253.88 97.36 256.79 97.72"/></g></g></svg>