<svg xmlns="http://www.w3.org/2000/svg" viewBox="0 0 318.43 122.61"><defs><style>.cls-1{isolation:isolate;}.cls-2{fill:#a01a1e;}.cls-3{fill:#76090a;}.cls-4{fill:#8c1416;}.cls-5{fill:#fff;}</style></defs><title>family</title><g id="Layer_2" data-name="Layer 2"><g id="Layer_1-2" data-name="Layer 1"><g class="cls-1"><polygon class="cls-2" points="318.43 5.1 318.24 87.57 11.54 122.61 11.72 40.15 318.43 5.1"/><polygon class="cls-3" points="11.54 122.61 0 117.51 0.19 35.04 11.72 40.15 11.54 122.61"/><polygon class="cls-4" points="11.72 40.15 0.19 35.04 306.89 0 318.43 5.1 11.72 40.15"/></g><path class="cls-5" d="M35.14,41.06l.08,2.43a15.26,15.26,0,0,0-1.89.12L32,43.76l.22,6.42a14.63,14.63,0,0,0,.16,1.91l-2.67.29a14.56,14.56,0,0,0,0-1.93L29.48,44l-1.42.16a15.28,15.28,0,0,0-1.82.29l-.08-2.43a15.43,15.43,0,0,0,1.8-.11l5.31-.58A16,16,0,0,0,35.14,41.06Z"/><path class="cls-5" d="M38.47,40.78a14.76,14.76,0,0,0,0,1.93l0,1.35c0,.11,0,.31,0,.42A3.56,3.56,0,0,1,41,43.15a2.37,2.37,0,0,1,1.94.5,2.65,2.65,0,0,1,.77,2.07l.11,3.19a17.55,17.55,0,0,0,.16,1.9l-2.51.28a16.54,16.54,0,0,0,0-1.93l-.09-2.61a1.47,1.47,0,0,0-.23-.94.84.84,0,0,0-.78-.26,2.48,2.48,0,0,0-1.78,1.52l.09,2.59a17.41,17.41,0,0,0,.16,1.91l-2.51.28a14.6,14.6,0,0,0,0-1.93L36.13,43A12.45,12.45,0,0,0,36,41.06Z"/><path class="cls-5" d="M49.92,48.08a1.31,1.31,0,0,0,.34-.69l2.13.39a4.09,4.09,0,0,1-.76,1.4,4.14,4.14,0,0,1-2.82,1.39A3.48,3.48,0,0,1,46,49.81a4.18,4.18,0,0,1-1.2-3,4.16,4.16,0,0,1,3.7-4.61,3.23,3.23,0,0,1,3.74,2.58,9.77,9.77,0,0,1,.23,1.65,1.7,1.7,0,0,0,0,.25l-5.45.6a1.43,1.43,0,0,0,1.7,1.4A1.84,1.84,0,0,0,49.92,48.08Zm-1.39-4A1.62,1.62,0,0,0,47,45.53l3.11-.34a1.31,1.31,0,0,0-1.57-1.08"/><path class="cls-5" d="M66.58,40.3c1.73-.19,2.65.71,2.71,2.63l.11,3.16a14,14,0,0,0,.17,1.9L67,48.27a13.86,13.86,0,0,0,0-1.93L67,43.71c0-1-.31-1.29-1-1.22s-1.16.64-1.43,1.52l.09,2.6a16.12,16.12,0,0,0,.16,1.9l-2.51.28a15.77,15.77,0,0,0,0-1.93l-.09-2.63a1.53,1.53,0,0,0-.23-1,.72.72,0,0,0-.68-.24c-.65.07-1.19.64-1.5,1.54l.09,2.57A14.34,14.34,0,0,0,60.07,49l-2.5.28a14.39,14.39,0,0,0,0-1.93l-.13-3.92a11.77,11.77,0,0,0-.17-1.91l2.4-.26,0,.53c0,.05,0,.05,0,.19v.12A3.13,3.13,0,0,1,62,40.82a2.36,2.36,0,0,1,1.57.29,1.36,1.36,0,0,1,.52.58A3.53,3.53,0,0,1,66.58,40.3Z"/><path class="cls-5" d="M75.54,45.26a1.38,1.38,0,0,0,.35-.69L78,45a4.23,4.23,0,0,1-.75,1.4,4.15,4.15,0,0,1-2.82,1.39A3.45,3.45,0,0,1,71.59,47a4.18,4.18,0,0,1-1.21-3,4.17,4.17,0,0,1,3.71-4.61A3.22,3.22,0,0,1,77.82,42a9.59,9.59,0,0,1,.24,1.65c0,.05,0,.13,0,.25l-5.45.6a1.44,1.44,0,0,0,1.7,1.4A1.83,1.83,0,0,0,75.54,45.26Zm-1.38-4a1.63,1.63,0,0,0-1.55,1.43l3.12-.34a1.31,1.31,0,0,0-1.57-1.08"/><path class="cls-5" d="M86.8,37.46,87,44.05a15.12,15.12,0,0,0,.17,2l-2.39.26V45.9a1.84,1.84,0,0,1,0-.28,3.6,3.6,0,0,1-2.42,1.19c-2.2.24-3.59-1.16-3.68-3.74a4.79,4.79,0,0,1,.93-3.23,3.61,3.61,0,0,1,2.43-1.26,3.29,3.29,0,0,1,2.51.67c0-.19,0-.31,0-.48l0-1.06a15.85,15.85,0,0,0-.16-2l2.48-.27A14.64,14.64,0,0,0,86.8,37.46ZM82.86,44.8a2.19,2.19,0,0,0,1.79-2.41,1.77,1.77,0,0,0-1.95-1.92c-1,.12-1.69,1-1.65,2.35a2.21,2.21,0,0,0,.62,1.62,1.51,1.51,0,0,0,1.19.36"/><path class="cls-5" d="M90.7,39.79l.13,3.92A18.55,18.55,0,0,0,91,45.63l-2.52.28a16.32,16.32,0,0,0,0-1.93L88.36,40a15.2,15.2,0,0,0-.16-1.91l2.52-.28A14.4,14.4,0,0,0,90.7,39.79Z"/><polygon class="cls-5" points="90.6 35.03 90.67 36.95 88.21 37.22 88.14 35.3 90.6 35.03"/><path class="cls-5" d="M99.48,44.69l-2.35.26,0-.59a3.64,3.64,0,0,1-2.33,1,2.71,2.71,0,0,1-2.11-.47,2.19,2.19,0,0,1-.73-1.66,2.36,2.36,0,0,1,.83-2,5.26,5.26,0,0,1,2.49-1.11c.47-.1.84-.15,1.71-.28v-.29c0-.61-.38-.85-1.19-.76a1.32,1.32,0,0,0-1.34,1l-2.33-.14a3,3,0,0,1,1-1.65,5.71,5.71,0,0,1,5-.83,2.15,2.15,0,0,1,1.19,2.17l.12,3.44A15.66,15.66,0,0,0,99.48,44.69Zm-2.85-1.76a1.43,1.43,0,0,0,.4-1v-.36a7.09,7.09,0,0,0-2.09.49,1,1,0,0,0-.68.92c0,.46.39.69,1,.62a2.37,2.37,0,0,0,1.36-.64"/><path class="cls-5" d="M107.79,34a16.39,16.39,0,0,0,0,1.76V36l.44,0a9.08,9.08,0,0,0,1.18-.19l.07,2.11a7.22,7.22,0,0,0-1.12.05l-.5.06.11,3.25c0,.36.08.53.24.63a1,1,0,0,0,.56.08,1.68,1.68,0,0,0,.84-.32l.25,1.92a5.25,5.25,0,0,1-1.66.43,2.68,2.68,0,0,1-1.8-.24c-.47-.32-.66-.73-.69-1.6l-.13-3.9-.46.05a6.82,6.82,0,0,0-1,.19L104,36.32a6.59,6.59,0,0,0,1.08,0l.44,0V36a14.6,14.6,0,0,0-.15-1.74Z"/><path class="cls-5" d="M115.3,40.88a1.38,1.38,0,0,0,.35-.69l2.12.39A4.22,4.22,0,0,1,117,42a4.15,4.15,0,0,1-2.82,1.39,3.45,3.45,0,0,1-2.84-.77,4.18,4.18,0,0,1-1.21-3A4.17,4.17,0,0,1,113.86,35a3.22,3.22,0,0,1,3.73,2.58,9.61,9.61,0,0,1,.24,1.65c0,.05,0,.13,0,.25l-5.45.6a1.44,1.44,0,0,0,1.7,1.4A1.83,1.83,0,0,0,115.3,40.88Zm-1.38-4a1.63,1.63,0,0,0-1.55,1.43l3.12-.34a1.31,1.31,0,0,0-1.57-1.08"/><path class="cls-5" d="M121.1,31.67a13.3,13.3,0,0,0,0,1.93l.23,6.75a15.31,15.31,0,0,0,.17,1.91l-2.53.28a14.67,14.67,0,0,0,0-1.93l-.23-6.75a13.67,13.67,0,0,0-.16-1.91Z"/><path class="cls-5" d="M124.89,31.25a14.86,14.86,0,0,0,0,1.93l.23,6.75a17.2,17.2,0,0,0,.16,1.91l-2.53.28a13.15,13.15,0,0,0,0-1.93l-.23-6.75a12.23,12.23,0,0,0-.17-1.91Z"/><path class="cls-5" d="M129.53,33.31a3.41,3.41,0,0,1,2.61.54A2.43,2.43,0,0,1,133,35.2l-2.33.53c-.08-.51-.39-.71-1-.64s-1,.32-1,.66.28.44,1.48.59a6.81,6.81,0,0,1,2,.39,1.83,1.83,0,0,1,1.22,1.82,2.58,2.58,0,0,1-.55,1.76,4.18,4.18,0,0,1-2.84,1.25c-1.53.17-2.61-.15-3.23-.93a2.84,2.84,0,0,1-.52-1.22l2.39-.55c.14.65.56.89,1.37.8s1.13-.34,1.12-.73a.5.5,0,0,0-.28-.43,3,3,0,0,0-1-.18,13.15,13.15,0,0,1-1.81-.26,2.09,2.09,0,0,1-1.25-.77,2.38,2.38,0,0,1-.34-1.17C126.32,34.6,127.51,33.53,129.53,33.31Z"/><path class="cls-5" d="M145.83,31.79a14.52,14.52,0,0,0,0,1.91l.13,3.94a12.56,12.56,0,0,0,.16,1.89l-2.41.27,0-.55c0-.06,0-.26,0-.34a3.5,3.5,0,0,1-2.48,1.37,2.45,2.45,0,0,1-2-.49,2.65,2.65,0,0,1-.76-2.07l-.11-3.2a17.15,17.15,0,0,0-.17-1.89l2.52-.28a14.67,14.67,0,0,0,0,1.92l.09,2.61a1.46,1.46,0,0,0,.23.94.86.86,0,0,0,.8.27,2.54,2.54,0,0,0,1.77-1.51L143.49,34a15.3,15.3,0,0,0-.17-1.89Z"/><path class="cls-5" d="M150.37,31a3.42,3.42,0,0,1,2.61.54,2.43,2.43,0,0,1,.84,1.36l-2.33.53c-.08-.51-.39-.71-1-.64s-1,.32-1,.66.28.44,1.48.59a6.81,6.81,0,0,1,2,.39,1.84,1.84,0,0,1,1.22,1.82A2.58,2.58,0,0,1,153.6,38a4.18,4.18,0,0,1-2.84,1.25c-1.53.17-2.61-.15-3.23-.93a2.84,2.84,0,0,1-.53-1.22l2.4-.55c.14.65.56.89,1.37.8s1.13-.34,1.12-.73a.5.5,0,0,0-.28-.43,3,3,0,0,0-1-.18,13.31,13.31,0,0,1-1.8-.26,2.09,2.09,0,0,1-1.25-.77,2.38,2.38,0,0,1-.34-1.17C147.16,32.3,148.35,31.23,150.37,31Z"/><path class="cls-5" d="M169.64,29.16c-.16.5-.32,1.1-.49,1.72L168,35.65a12.48,12.48,0,0,0-.32,1.53l-2.05.23a13,13,0,0,0-.43-1.45l-.82-2.47c-.07-.21-.12-.37-.15-.48-.07.3-.07.33-.13.51l-.66,2.63a12.9,12.9,0,0,0-.32,1.53l-2.06.23a14.08,14.08,0,0,0-.41-1.45L159.09,32c-.15-.43-.35-1-.6-1.6l2.6-.29a8.83,8.83,0,0,0,.29,1.47l.6,2.23c.07.29.13.49.15.59.13-.51.13-.51.15-.63l.6-2.39a12.82,12.82,0,0,0,.32-1.5l1.77-.19a12.81,12.81,0,0,0,.42,1.42l.78,2.33c0,.09.11.36.17.5,0-.2,0-.2.09-.55l.43-2.3a10.78,10.78,0,0,0,.21-1.63Z"/><path class="cls-5" d="M172.76,26a14.76,14.76,0,0,0,0,1.93l0,1.35c0,.11,0,.31,0,.42a3.56,3.56,0,0,1,2.49-1.34,2.4,2.4,0,0,1,2,.5,2.68,2.68,0,0,1,.76,2.07l.11,3.19a17.49,17.49,0,0,0,.16,1.9l-2.51.28a14.78,14.78,0,0,0,0-1.93l-.09-2.61a1.53,1.53,0,0,0-.23-.94.86.86,0,0,0-.79-.26,2.5,2.5,0,0,0-1.78,1.52l.09,2.59a17.41,17.41,0,0,0,.16,1.91l-2.5.28a16.34,16.34,0,0,0,0-1.93l-.23-6.75a13.91,13.91,0,0,0-.16-1.91Z"/><path class="cls-5" d="M186.7,35.07l-2.35.26,0-.59a3.63,3.63,0,0,1-2.32,1,2.73,2.73,0,0,1-2.12-.47,2.19,2.19,0,0,1-.73-1.66,2.38,2.38,0,0,1,.83-2,5.29,5.29,0,0,1,2.49-1.11c.48-.1.84-.15,1.71-.28V30c0-.61-.38-.85-1.18-.76a1.31,1.31,0,0,0-1.34,1l-2.33-.14a3,3,0,0,1,1-1.65,5.71,5.71,0,0,1,5-.83,2.14,2.14,0,0,1,1.19,2.17l.12,3.44A15.77,15.77,0,0,0,186.7,35.07Zm-2.85-1.76a1.43,1.43,0,0,0,.4-1v-.36a7.09,7.09,0,0,0-2.09.49,1,1,0,0,0-.68.92c0,.46.39.69,1,.62a2.36,2.36,0,0,0,1.35-.64"/><path class="cls-5" d="M191,24.78a14.4,14.4,0,0,0,0,1.76v.27l.44,0a9.21,9.21,0,0,0,1.19-.19l.07,2.11a7.29,7.29,0,0,0-1.12.05l-.51.06.11,3.25c0,.36.08.53.24.63a1,1,0,0,0,.56.08,1.73,1.73,0,0,0,.85-.32l.24,1.92a5.25,5.25,0,0,1-1.66.43,2.71,2.71,0,0,1-1.8-.24,1.72,1.72,0,0,1-.69-1.6l-.13-3.9-.46.05a6.89,6.89,0,0,0-1,.19l-.07-2.12a6.67,6.67,0,0,0,1.08,0l.44,0v-.27a13,13,0,0,0-.15-1.74Z"/><path class="cls-5" d="M200.81,23.7a16.38,16.38,0,0,0,0,1.76v.27l.44,0a9.08,9.08,0,0,0,1.18-.19l.07,2.11a7.22,7.22,0,0,0-1.12.05l-.5.06L201,31c0,.36.08.53.24.63a1,1,0,0,0,.56.08,1.68,1.68,0,0,0,.84-.32l.25,1.92a5.24,5.24,0,0,1-1.66.43,2.7,2.7,0,0,1-1.8-.24,1.72,1.72,0,0,1-.69-1.6l-.13-3.9-.46.05a6.89,6.89,0,0,0-1,.19L197,26.06a6.66,6.66,0,0,0,1.08,0l.44,0V25.7a14.6,14.6,0,0,0-.15-1.74Z"/><path class="cls-5" d="M207,24.74c2.45-.27,4.05,1.18,4.14,3.7a4.26,4.26,0,0,1-3.86,4.66c-2.44.27-4-1.19-4.13-3.75A4.17,4.17,0,0,1,207,24.74Zm.22,6.42c1.06-.12,1.63-1,1.58-2.42s-.7-2.2-1.72-2.08-1.67,1-1.63,2.43.71,2.2,1.76,2.08"/><path class="cls-5" d="M219.3,21.66a16.32,16.32,0,0,0,0,1.76v.27l.44,0a9.22,9.22,0,0,0,1.19-.19l.07,2.11a7.22,7.22,0,0,0-1.12.05l-.51.06.11,3.25c0,.36.09.53.24.63a1,1,0,0,0,.57.08,1.7,1.7,0,0,0,.84-.32l.25,1.92a5.3,5.3,0,0,1-1.67.43,2.67,2.67,0,0,1-1.79-.24c-.47-.32-.66-.73-.69-1.6l-.13-3.9-.46.05a7,7,0,0,0-1.05.19L215.48,24a6.7,6.7,0,0,0,1.08,0l.44,0v-.27a13,13,0,0,0-.16-1.73Z"/><path class="cls-5" d="M224.25,20.3a13.23,13.23,0,0,0,0,1.93l0,1.35c0,.11,0,.31,0,.42a3.53,3.53,0,0,1,2.48-1.33,2.4,2.4,0,0,1,2,.5,2.65,2.65,0,0,1,.76,2.07l.11,3.19a15.45,15.45,0,0,0,.17,1.9l-2.52.28a14.78,14.78,0,0,0,0-1.93l-.09-2.61a1.53,1.53,0,0,0-.23-.94.86.86,0,0,0-.79-.26,2.5,2.5,0,0,0-1.78,1.52l.09,2.59a15.49,15.49,0,0,0,.17,1.91l-2.51.28a16.35,16.35,0,0,0,0-1.93l-.23-6.75a13.92,13.92,0,0,0-.16-1.91Z"/><path class="cls-5" d="M233.22,24.08l.13,3.92a16.4,16.4,0,0,0,.17,1.91l-2.53.28a16.42,16.42,0,0,0,0-1.93l-.13-3.92a15.3,15.3,0,0,0-.16-1.91l2.53-.28A13,13,0,0,0,233.22,24.08Z"/><polygon class="cls-5" points="233.12 19.32 233.18 21.23 230.73 21.5 230.66 19.59 233.12 19.32"/><path class="cls-5" d="M239.42,21.27a2.42,2.42,0,0,1,2,.5,2.65,2.65,0,0,1,.76,2.07l.11,3.19a17.33,17.33,0,0,0,.17,1.9l-2.52.28a14.78,14.78,0,0,0,0-1.93l-.09-2.61a1.45,1.45,0,0,0-.22-.92.87.87,0,0,0-.82-.27A2.44,2.44,0,0,0,237.06,25l.09,2.57a15.49,15.49,0,0,0,.17,1.91l-2.51.28a16.35,16.35,0,0,0,0-1.93l-.13-3.92a14.09,14.09,0,0,0-.16-1.91l2.41-.27,0,.53c0,.08,0,.27,0,.36A3.54,3.54,0,0,1,239.42,21.27Z"/><path class="cls-5" d="M245.78,17.93a14.76,14.76,0,0,0,0,1.93l.12,3.58,1.29-1.53a8.75,8.75,0,0,0,1-1.4l3.22-.35c-.45.48-.59.64-1.22,1.38l-1.7,2,2.13,2.89a18.3,18.3,0,0,0,1.18,1.51l-3.08.34a9.22,9.22,0,0,0-.86-1.62l-1-1.48-.87,1,0,.51a9.73,9.73,0,0,0,.16,1.85l-2.47.27a13.89,13.89,0,0,0,0-1.93l-.23-6.75a15,15,0,0,0-.17-1.91Z"/><path class="cls-5" d="M258.82,21.26l.13,3.92a18.62,18.62,0,0,0,.16,1.91l-2.53.28a14.58,14.58,0,0,0,0-1.93l-.13-3.92a13.58,13.58,0,0,0-.17-1.91l2.53-.28A14.45,14.45,0,0,0,258.82,21.26Z"/><polygon class="cls-5" points="258.71 16.5 258.78 18.41 256.32 18.68 256.26 16.77 258.71 16.5"/><path class="cls-5" d="M263.4,18.55a3.38,3.38,0,0,1,2.6.54,2.43,2.43,0,0,1,.84,1.36l-2.32.53c-.08-.51-.39-.71-1-.64s-1,.32-1,.66.27.44,1.48.59a6.62,6.62,0,0,1,2,.39,1.83,1.83,0,0,1,1.23,1.82,2.55,2.55,0,0,1-.56,1.76,4.16,4.16,0,0,1-2.83,1.25c-1.53.17-2.62-.14-3.23-.93a2.73,2.73,0,0,1-.53-1.22l2.39-.55c.14.65.57.89,1.37.8s1.13-.34,1.12-.73a.48.48,0,0,0-.28-.43,3,3,0,0,0-1-.18,13.54,13.54,0,0,1-1.81-.26,2.07,2.07,0,0,1-1.24-.77,2.38,2.38,0,0,1-.34-1.17C260.19,19.84,261.38,18.77,263.4,18.55Z"/><path class="cls-5" d="M275.64,17.16a3.09,3.09,0,0,1,3.65,2.27l-2.16.71a1.68,1.68,0,0,0-.37-.71,1.17,1.17,0,0,0-1-.33c-1,.11-1.53,1-1.48,2.38s.69,2.2,1.66,2.09a1.5,1.5,0,0,0,1.13-.69,1.37,1.37,0,0,0,.2-.61l2.24.12a4.19,4.19,0,0,1-.47,1.32,3.83,3.83,0,0,1-3.06,1.81,3.54,3.54,0,0,1-2.86-.78,4.18,4.18,0,0,1-1.19-3A4.14,4.14,0,0,1,275.64,17.16Z"/><path class="cls-5" d="M283.91,16.26c2.44-.27,4,1.18,4.13,3.7a4.25,4.25,0,0,1-3.86,4.66c-2.43.27-4-1.19-4.12-3.75A4.17,4.17,0,0,1,283.91,16.26Zm.22,6.42c1-.12,1.62-1,1.58-2.42s-.69-2.2-1.72-2.08-1.66,1-1.62,2.43.71,2.2,1.76,2.08"/><path class="cls-5" d="M292.56,15.31c2.45-.27,4.05,1.18,4.14,3.7a4.26,4.26,0,0,1-3.86,4.66c-2.43.27-4-1.19-4.12-3.75A4.17,4.17,0,0,1,292.56,15.31Zm.22,6.42c1.06-.12,1.63-1,1.58-2.42s-.69-2.2-1.72-2.08-1.66,1-1.62,2.43.71,2.2,1.75,2.08"/><path class="cls-5" d="M300,11.95a13.3,13.3,0,0,0,0,1.93l.23,6.75a15.31,15.31,0,0,0,.17,1.91l-2.53.28a13.15,13.15,0,0,0,0-1.93l-.23-6.75a12.23,12.23,0,0,0-.17-1.91Z"/><path class="cls-5" d="M303.94,19.56l.09,2.56a2.26,2.26,0,0,1-.55,1.66,2.44,2.44,0,0,1-1.19.76l-.57-.91a1.92,1.92,0,0,0,.94-.48,1.23,1.23,0,0,0,.31-.91l-1.39.15-.09-2.56Z"/><path class="cls-5" d="M36.17,58.92c2.45-.27,4.05,1.17,4.14,3.69a4.25,4.25,0,0,1-3.86,4.66c-2.43.27-4-1.19-4.12-3.75A4.16,4.16,0,0,1,36.17,58.92Zm.22,6.42c1.06-.12,1.63-1,1.58-2.42s-.69-2.21-1.72-2.09-1.66,1-1.62,2.43.71,2.2,1.75,2.08"/><path class="cls-5" d="M48.78,57.82a14.59,14.59,0,0,0,0,1.92l.13,3.93a12.5,12.5,0,0,0,.17,1.9l-2.41.27,0-.55a2.53,2.53,0,0,1,0-.35,3.55,3.55,0,0,1-2.49,1.37,2.42,2.42,0,0,1-1.94-.5,2.65,2.65,0,0,1-.77-2.07l-.11-3.19a17.55,17.55,0,0,0-.16-1.9l2.51-.28a14.86,14.86,0,0,0,0,1.92l.09,2.61c0,.52.07.74.23.93a.86.86,0,0,0,.79.28,2.54,2.54,0,0,0,1.77-1.51L46.43,60a17.36,17.36,0,0,0-.16-1.9Z"/><path class="cls-5" d="M54.88,57a4.77,4.77,0,0,1,1.2,0l-.51,2.36a3.67,3.67,0,0,0-1.24-.11,1.88,1.88,0,0,0-1.42.86,2,2,0,0,0-.32,1.17l.07,2a15.54,15.54,0,0,0,.16,1.9l-2.51.28a14.52,14.52,0,0,0,0-1.93l-.13-3.92A12.53,12.53,0,0,0,50,57.68l2.41-.27,0,1A2.94,2.94,0,0,1,54.88,57Z"/><path class="cls-5" d="M64.75,53a5.83,5.83,0,0,1,1.84.07L66.29,55a2.15,2.15,0,0,0-1.21-.19c-.59.07-.82.35-.8,1v.32l.35,0a15.74,15.74,0,0,0,1.61-.27l.07,2.13a11.7,11.7,0,0,0-1.59.09l-.38,0L64.49,62a13.6,13.6,0,0,0,.17,1.91l-2.52.28a14.44,14.44,0,0,0,0-1.93L62,58.32l-.33,0a8.78,8.78,0,0,0-1.35.24l-.07-2.13a10.18,10.18,0,0,0,1.36-.06l.33,0,0-.6C61.9,54.08,62.77,53.21,64.75,53Z"/><path class="cls-5" d="M72.24,55.08a4.72,4.72,0,0,1,1.2,0l-.5,2.36a3.67,3.67,0,0,0-1.24-.11,1.88,1.88,0,0,0-1.42.86A1.94,1.94,0,0,0,70,59.37l.07,2a14.06,14.06,0,0,0,.16,1.9l-2.51.28a14.52,14.52,0,0,0,0-1.93l-.13-3.92a12.53,12.53,0,0,0-.17-1.91l2.41-.27,0,1A2.93,2.93,0,0,1,72.24,55.08Z"/><path class="cls-5" d="M76.67,56.67l.13,3.92A18.44,18.44,0,0,0,77,62.51l-2.53.28a14.62,14.62,0,0,0,0-1.93l-.13-3.92A13.62,13.62,0,0,0,74.18,55l2.53-.28A12.91,12.91,0,0,0,76.67,56.67Z"/><polygon class="cls-5" points="76.58 51.91 76.64 53.83 74.18 54.1 74.11 52.19 76.58 51.91"/><path class="cls-5" d="M83,59.77a1.44,1.44,0,0,0,.34-.69l2.12.39a3.92,3.92,0,0,1-3.57,2.8A3.47,3.47,0,0,1,79,61.5a4.58,4.58,0,0,1,2.5-7.6,3.22,3.22,0,0,1,3.73,2.58,9.69,9.69,0,0,1,.24,1.65s0,.12,0,.25l-5.45.6a1.44,1.44,0,0,0,1.71,1.4A1.88,1.88,0,0,0,83,59.77Zm-1.39-4A1.61,1.61,0,0,0,80,57.22l3.11-.34a1.31,1.31,0,0,0-1.57-1.07"/><path class="cls-5" d="M91.2,52.95a2.46,2.46,0,0,1,2,.5,2.65,2.65,0,0,1,.76,2.07L94,58.7a17.26,17.26,0,0,0,.17,1.9l-2.52.28a14.78,14.78,0,0,0,0-1.93l-.09-2.61a1.46,1.46,0,0,0-.22-.92.86.86,0,0,0-.82-.26,2.43,2.43,0,0,0-1.76,1.53l.09,2.57a15.49,15.49,0,0,0,.17,1.91l-2.51.28a16.25,16.25,0,0,0,0-1.93l-.13-3.92a14.08,14.08,0,0,0-.16-1.91l2.41-.27,0,.54c0,.07,0,.27,0,.35A3.54,3.54,0,0,1,91.2,52.95Z"/><path class="cls-5" d="M103.12,51l.22,6.59a15.28,15.28,0,0,0,.16,2l-2.38.26v-.41c0-.08,0-.17,0-.28a3.58,3.58,0,0,1-2.42,1.19c-2.2.24-3.59-1.16-3.68-3.74A4.71,4.71,0,0,1,96,53.39a3.55,3.55,0,0,1,2.42-1.27,3.28,3.28,0,0,1,2.51.67c0-.19,0-.31,0-.48l0-1.06a14.18,14.18,0,0,0-.17-2l2.48-.27A14.83,14.83,0,0,0,103.12,51Zm-3.95,7.34A2.19,2.19,0,0,0,101,55.92,1.78,1.78,0,0,0,99,54c-1.06.12-1.69,1-1.64,2.36A2.2,2.2,0,0,0,98,58a1.53,1.53,0,0,0,1.19.36"/><path class="cls-5" d="M107.78,51a3.42,3.42,0,0,1,2.61.53,2.43,2.43,0,0,1,.84,1.37l-2.33.52c-.08-.51-.39-.71-1-.64s-1,.32-1,.66.28.44,1.48.59a7,7,0,0,1,2,.4,1.83,1.83,0,0,1,1.22,1.82,2.62,2.62,0,0,1-.55,1.76,4.22,4.22,0,0,1-2.84,1.24c-1.53.17-2.61-.15-3.23-.92a2.88,2.88,0,0,1-.53-1.22l2.39-.55c.15.66.57.9,1.38.81s1.13-.35,1.12-.74a.5.5,0,0,0-.28-.43,3,3,0,0,0-1-.18,12,12,0,0,1-1.8-.26A2.12,2.12,0,0,1,105,55a2.42,2.42,0,0,1-.34-1.18C104.57,52.33,105.76,51.27,107.78,51Z"/><path class="cls-5" d="M123.26,46.54a5.83,5.83,0,0,1,1.84.07l-.31,1.91a2.16,2.16,0,0,0-1.22-.18c-.59.06-.81.35-.79,1v.32l.35,0a15.74,15.74,0,0,0,1.61-.27l.07,2.13a11.7,11.7,0,0,0-1.59.09l-.38,0L123,55.5a13.59,13.59,0,0,0,.17,1.91l-2.52.28a14.47,14.47,0,0,0,0-1.93l-.13-3.89-.33,0a8.79,8.79,0,0,0-1.35.24L118.79,50a10.19,10.19,0,0,0,1.36-.06l.33,0,0-.6C120.4,47.63,121.28,46.75,123.26,46.54Z"/><polygon class="cls-5" points="118.4 47.3 114.48 60.2 112.31 60.44 116.25 47.54 118.4 47.3"/><path class="cls-5" d="M133.39,56.29l-2.35.26,0-.58a3.67,3.67,0,0,1-2.32,1,2.73,2.73,0,0,1-2.12-.47,2.19,2.19,0,0,1-.72-1.66,2.34,2.34,0,0,1,.82-1.95,5.24,5.24,0,0,1,2.49-1.11c.47-.1.83-.16,1.7-.28v-.3c0-.61-.38-.85-1.18-.76a1.32,1.32,0,0,0-1.34,1L126,51.36a3,3,0,0,1,1-1.65,4.78,4.78,0,0,1,2.7-1,4.89,4.89,0,0,1,2.25.2A2.14,2.14,0,0,1,133.13,51l.12,3.44A15.71,15.71,0,0,0,133.39,56.29Zm-2.85-1.76a1.43,1.43,0,0,0,.4-1v-.36a7.19,7.19,0,0,0-2.09.49,1,1,0,0,0-.67.92c0,.46.38.68,1,.61a2.36,2.36,0,0,0,1.35-.64"/><path class="cls-5" d="M143.69,47.13c1.73-.19,2.66.71,2.72,2.63l.11,3.16a14.18,14.18,0,0,0,.16,1.9l-2.51.28a15.49,15.49,0,0,0,0-1.93l-.09-2.63c0-1-.31-1.29-1-1.22s-1.16.64-1.43,1.53l.09,2.59a16.12,16.12,0,0,0,.16,1.9l-2.51.28a14.24,14.24,0,0,0,0-1.93l-.09-2.63a1.45,1.45,0,0,0-.23-1,.72.72,0,0,0-.68-.24c-.65.07-1.19.63-1.5,1.53L137,54a14.51,14.51,0,0,0,.16,1.91l-2.49.27a16,16,0,0,0,0-1.93l-.13-3.92a13.11,13.11,0,0,0-.16-1.91l2.4-.26,0,.54a1.09,1.09,0,0,1,0,.18V49a3.13,3.13,0,0,1,2.28-1.3,2.36,2.36,0,0,1,1.57.29,1.41,1.41,0,0,1,.52.58A3.54,3.54,0,0,1,143.69,47.13Z"/><path class="cls-5" d="M150.16,48.57l.13,3.92a18.43,18.43,0,0,0,.17,1.91l-2.53.28a14.63,14.63,0,0,0,0-1.93l-.13-3.92a13.62,13.62,0,0,0-.17-1.91l2.53-.28A12.91,12.91,0,0,0,150.16,48.57Z"/><polygon class="cls-5" points="150.07 43.81 150.14 45.72 147.67 45.99 147.61 44.08 150.07 43.81"/><path class="cls-5" d="M153.92,43.39a13.3,13.3,0,0,0,0,1.93l.23,6.75a15.12,15.12,0,0,0,.17,1.91l-2.53.28a13.15,13.15,0,0,0,0-1.93l-.23-6.75a12.24,12.24,0,0,0-.17-1.91Z"/><path class="cls-5" d="M163.17,45.21c-.28.69-.28.69-.67,1.79L160,54a2.91,2.91,0,0,1-2.68,2,7.08,7.08,0,0,1-1.67,0l.2-2.06a1.67,1.67,0,0,0,1,.18,1.12,1.12,0,0,0,1-.71l.23-.57-2.45-5.12c-.56-1.22-.62-1.33-.79-1.63l2.63-.29a8.31,8.31,0,0,0,.52,1.59l1.21,2.82,1-3a8.76,8.76,0,0,0,.46-1.75Z"/><path class="cls-5" d="M171.17,42.31a16.14,16.14,0,0,0,0,1.76v.26l.44,0a7.78,7.78,0,0,0,1.18-.19l.07,2.11a8.48,8.48,0,0,0-1.11.05l-.51.06.11,3.26c0,.35.08.52.24.62a1,1,0,0,0,.56.08,1.68,1.68,0,0,0,.84-.32l.25,1.92a5.25,5.25,0,0,1-1.66.44,2.71,2.71,0,0,1-1.8-.25,1.72,1.72,0,0,1-.69-1.6l-.13-3.9-.46.05a8.19,8.19,0,0,0-1,.19l-.07-2.12a6.67,6.67,0,0,0,1.08,0l.44,0v-.26a14.5,14.5,0,0,0-.15-1.74Z"/><path class="cls-5" d="M178.69,49.22a1.44,1.44,0,0,0,.34-.69l2.12.39a3.92,3.92,0,0,1-3.57,2.8,3.47,3.47,0,0,1-2.84-.77,4.16,4.16,0,0,1-1.21-3,4.17,4.17,0,0,1,3.71-4.62A3.22,3.22,0,0,1,181,45.93a9.73,9.73,0,0,1,.24,1.65s0,.12,0,.25l-5.45.6a1.44,1.44,0,0,0,1.7,1.4A1.88,1.88,0,0,0,178.69,49.22Zm-1.39-4a1.61,1.61,0,0,0-1.54,1.42l3.11-.34a1.31,1.31,0,0,0-1.57-1.07"/><path class="cls-5" d="M184.47,40a13.3,13.3,0,0,0,0,1.93l.23,6.75a15.13,15.13,0,0,0,.17,1.91l-2.53.28a14.68,14.68,0,0,0,0-1.93l-.23-6.75a13.67,13.67,0,0,0-.16-1.91Z"/><path class="cls-5" d="M188.27,39.6a14.86,14.86,0,0,0,0,1.93l.23,6.75a17,17,0,0,0,.16,1.91l-2.53.28a13.15,13.15,0,0,0,0-1.93l-.23-6.75a12.23,12.23,0,0,0-.17-1.91Z"/><path class="cls-5" d="M201.28,41a16.29,16.29,0,0,0,0,1.92l.13,3.93a13.94,13.94,0,0,0,.16,1.9l-2.41.27,0-.55c0-.07,0-.26,0-.34a3.52,3.52,0,0,1-2.48,1.37,2.46,2.46,0,0,1-2-.5,2.68,2.68,0,0,1-.76-2.07l-.11-3.19a15.5,15.5,0,0,0-.17-1.9l2.52-.28a14.72,14.72,0,0,0,0,1.92l.09,2.61a1.45,1.45,0,0,0,.23.93.87.87,0,0,0,.8.27A2.54,2.54,0,0,0,199,45.79l-.09-2.61a15.44,15.44,0,0,0-.17-1.9Z"/><path class="cls-5" d="M205.83,40.24a3.4,3.4,0,0,1,2.6.53,2.43,2.43,0,0,1,.84,1.37l-2.33.52c-.08-.51-.39-.71-1-.64s-1,.32-1,.66.27.44,1.48.59a6.92,6.92,0,0,1,2,.4,1.83,1.83,0,0,1,1.23,1.82,2.58,2.58,0,0,1-.56,1.76,4.2,4.2,0,0,1-2.83,1.24c-1.53.17-2.62-.14-3.23-.92a2.77,2.77,0,0,1-.53-1.22l2.39-.55c.14.66.56.9,1.37.81s1.13-.35,1.12-.74a.5.5,0,0,0-.28-.43,3,3,0,0,0-1-.18,12.19,12.19,0,0,1-1.81-.26,2.16,2.16,0,0,1-1.25-.77,2.42,2.42,0,0,1-.34-1.18C202.61,41.52,203.8,40.46,205.83,40.24Z"/><path class="cls-5" d="M225.1,38.38c-.17.51-.33,1.1-.49,1.72l-1.2,4.77a10.84,10.84,0,0,0-.31,1.53l-2.06.23a11.3,11.3,0,0,0-.43-1.45l-.82-2.47c-.07-.21-.12-.37-.15-.48-.07.3-.07.33-.13.51l-.65,2.63c-.15.58-.29,1.22-.33,1.53l-2.06.23a14.09,14.09,0,0,0-.41-1.45l-1.51-4.47c-.15-.43-.34-1-.6-1.6l2.61-.29a8.5,8.5,0,0,0,.28,1.47l.6,2.23q.12.45.15.59c.13-.51.13-.51.15-.63l.6-2.39c.29-1.23.29-1.23.33-1.5l1.77-.19a10.81,10.81,0,0,0,.41,1.42l.79,2.33c0,.09.1.36.16.5,0-.19,0-.19.09-.54l.43-2.31a11.76,11.76,0,0,0,.2-1.63Z"/><path class="cls-5" d="M228.22,35.19a13.23,13.23,0,0,0,0,1.93l0,1.36c0,.1,0,.3,0,.42a3.54,3.54,0,0,1,2.48-1.34,2.41,2.41,0,0,1,2,.5,2.65,2.65,0,0,1,.76,2.07l.11,3.19a17.33,17.33,0,0,0,.17,1.9l-2.52.28a14.78,14.78,0,0,0,0-1.93L231.13,41a1.48,1.48,0,0,0-.23-.93.83.83,0,0,0-.79-.26,2.48,2.48,0,0,0-1.78,1.52l.09,2.58a15.49,15.49,0,0,0,.17,1.91l-2.51.28a16.25,16.25,0,0,0,0-1.93l-.23-6.75a14.09,14.09,0,0,0-.16-1.91Z"/><path class="cls-5" d="M242.17,44.29l-2.36.26,0-.58a3.65,3.65,0,0,1-2.32,1,2.73,2.73,0,0,1-2.12-.47,2.19,2.19,0,0,1-.72-1.66,2.34,2.34,0,0,1,.82-1.95,5.24,5.24,0,0,1,2.49-1.11c.47-.1.83-.16,1.7-.28v-.3c0-.61-.38-.85-1.18-.76a1.33,1.33,0,0,0-1.34,1l-2.33-.14a3,3,0,0,1,1-1.65,4.78,4.78,0,0,1,2.7-1,5,5,0,0,1,2.26.2,2.15,2.15,0,0,1,1.18,2.17L242,42.5A13.86,13.86,0,0,0,242.17,44.29Zm-2.86-1.75a1.4,1.4,0,0,0,.4-1v-.36a7.18,7.18,0,0,0-2.09.49,1,1,0,0,0-.67.92c0,.46.38.68,1,.61a2.36,2.36,0,0,0,1.35-.64"/><path class="cls-5" d="M246.45,34a16.05,16.05,0,0,0,0,1.76V36l.44,0a7.9,7.9,0,0,0,1.19-.19l.07,2.11a8.51,8.51,0,0,0-1.12.05l-.51.06.11,3.26c0,.35.09.52.24.62a1,1,0,0,0,.57.08,1.7,1.7,0,0,0,.84-.32l.25,1.92a5.3,5.3,0,0,1-1.67.44,2.66,2.66,0,0,1-1.79-.25c-.47-.32-.66-.73-.69-1.6l-.13-3.9-.46.05a8.32,8.32,0,0,0-1.05.19l-.07-2.12a6.7,6.7,0,0,0,1.08,0l.44,0V36a12.89,12.89,0,0,0-.16-1.73Z"/><path class="cls-5" d="M263.6,34.13c-.16.5-.32,1.1-.49,1.72l-1.19,4.77a12.57,12.57,0,0,0-.32,1.53l-2.05.23a11.3,11.3,0,0,0-.43-1.45l-.82-2.47c-.07-.21-.12-.37-.15-.48-.07.3-.07.33-.13.51l-.66,2.63a15.47,15.47,0,0,0-.32,1.53l-2.06.23a14.09,14.09,0,0,0-.41-1.45L253.06,37c-.15-.43-.35-1-.6-1.6l2.61-.29a7.77,7.77,0,0,0,.28,1.47l.6,2.23c.07.3.13.5.15.59.13-.51.13-.51.15-.63l.6-2.39a12.7,12.7,0,0,0,.32-1.5l1.77-.19a12.86,12.86,0,0,0,.42,1.42l.79,2.33c0,.09.1.36.16.5,0-.19,0-.19.09-.54l.43-2.31a10.81,10.81,0,0,0,.21-1.63Z"/><path class="cls-5" d="M269.3,39.23a1.31,1.31,0,0,0,.34-.69l2.13.39a4,4,0,0,1-.76,1.4,4.12,4.12,0,0,1-2.81,1.4,3.49,3.49,0,0,1-2.85-.77,4.16,4.16,0,0,1-1.2-3,4.16,4.16,0,0,1,3.7-4.62,3.23,3.23,0,0,1,3.74,2.58,9.89,9.89,0,0,1,.23,1.66,1.68,1.68,0,0,0,0,.25l-5.45.6a1.43,1.43,0,0,0,1.7,1.41A1.85,1.85,0,0,0,269.3,39.23Zm-1.39-4a1.62,1.62,0,0,0-1.54,1.42l3.11-.34a1.31,1.31,0,0,0-1.57-1.07"/><path class="cls-5" d="M284.15,39.66l-2.35.26,0-.58a3.68,3.68,0,0,1-2.33,1,2.74,2.74,0,0,1-2.12-.47,2.19,2.19,0,0,1-.72-1.66,2.33,2.33,0,0,1,.83-1.95,5.18,5.18,0,0,1,2.49-1.11c.47-.1.84-.16,1.71-.28v-.3c0-.61-.38-.85-1.19-.76a1.33,1.33,0,0,0-1.34,1l-2.33-.14a3,3,0,0,1,1-1.65,4.77,4.77,0,0,1,2.7-1,4.92,4.92,0,0,1,2.25.2,2.16,2.16,0,0,1,1.19,2.17l.12,3.44A15.71,15.71,0,0,0,284.15,39.66Zm-2.85-1.76a1.43,1.43,0,0,0,.4-1v-.36a7.1,7.1,0,0,0-2.09.49,1,1,0,0,0-.68.92c0,.46.38.68,1,.61a2.37,2.37,0,0,0,1.36-.64"/><path class="cls-5" d="M290,31.07a4.72,4.72,0,0,1,1.2,0l-.5,2.36a3.71,3.71,0,0,0-1.24-.11,1.88,1.88,0,0,0-1.42.86,2,2,0,0,0-.33,1.17l.07,2a13.86,13.86,0,0,0,.17,1.9l-2.51.28a14.56,14.56,0,0,0,0-1.93l-.13-3.92a12.56,12.56,0,0,0-.17-1.91l2.41-.27,0,1A3,3,0,0,1,290,31.07Z"/><path class="cls-5" d="M296.9,36.19a1.44,1.44,0,0,0,.34-.69l2.12.39a3.92,3.92,0,0,1-3.57,2.8,3.46,3.46,0,0,1-2.84-.77,4.16,4.16,0,0,1-1.21-3,4.17,4.17,0,0,1,3.71-4.62,3.22,3.22,0,0,1,3.73,2.58,9.76,9.76,0,0,1,.24,1.65s0,.12,0,.25l-5.45.6a1.44,1.44,0,0,0,1.7,1.4A1.88,1.88,0,0,0,296.9,36.19Zm-1.39-4A1.61,1.61,0,0,0,294,33.64l3.11-.34a1.31,1.31,0,0,0-1.57-1.07"/><path class="cls-5" d="M30,74.92a3.07,3.07,0,0,1,3.64,2.27l-2.16.71a1.69,1.69,0,0,0-.36-.71,1.17,1.17,0,0,0-1-.34c-1,.11-1.54,1-1.49,2.39s.7,2.2,1.66,2.09a1.5,1.5,0,0,0,1.14-.69,1.41,1.41,0,0,0,.2-.61l2.23.13a4.19,4.19,0,0,1-.46,1.32,3.84,3.84,0,0,1-3.06,1.81,3.56,3.56,0,0,1-2.86-.78A4.57,4.57,0,0,1,30,74.92Z"/><path class="cls-5" d="M42,81.7,39.69,82l0-.59a3.66,3.66,0,0,1-2.32,1,2.69,2.69,0,0,1-2.12-.47,2.17,2.17,0,0,1-.72-1.65,2.37,2.37,0,0,1,.82-2,5.33,5.33,0,0,1,2.49-1.11c.47-.1.83-.15,1.7-.28v-.29c0-.62-.38-.85-1.18-.76a1.32,1.32,0,0,0-1.34,1l-2.33-.14a3.06,3.06,0,0,1,1-1.65,4.78,4.78,0,0,1,2.7-1,5,5,0,0,1,2.26.19,2.15,2.15,0,0,1,1.18,2.17l.12,3.44A15.92,15.92,0,0,0,42,81.7Zm-2.85-1.76a1.37,1.37,0,0,0,.4-1v-.35a7.17,7.17,0,0,0-2.09.49,1,1,0,0,0-.67.91c0,.46.38.68,1,.61a2.31,2.31,0,0,0,1.35-.64"/><path class="cls-5" d="M50.51,73.72a3.87,3.87,0,0,1,1.07,2.85,4.69,4.69,0,0,1-1,3.2,3.71,3.71,0,0,1-2.46,1.28,4.11,4.11,0,0,1-1.65-.15,2.53,2.53,0,0,1-.85-.49c0,.11,0,.28,0,.46l0,.88a13.33,13.33,0,0,0,.16,1.83l-2.48.27a17.85,17.85,0,0,0,0-1.87l-.21-6.21a17.5,17.5,0,0,0-.16-2l2.38-.26v.68A3.77,3.77,0,0,1,47.91,73,3.22,3.22,0,0,1,50.51,73.72Zm-1.77,4.86a2.49,2.49,0,0,0,.48-1.72c0-1.3-.72-2-1.86-1.85A2.16,2.16,0,0,0,45.6,77.3a1.8,1.8,0,0,0,2,1.9,1.76,1.76,0,0,0,1.17-.62"/><path class="cls-5" d="M59.89,79.73,57.53,80l0-.59a3.66,3.66,0,0,1-2.32,1A2.7,2.7,0,0,1,53.07,80a2.17,2.17,0,0,1-.72-1.65,2.37,2.37,0,0,1,.82-2,5.33,5.33,0,0,1,2.49-1.11c.47-.1.83-.15,1.7-.28v-.29c0-.62-.37-.85-1.18-.76a1.32,1.32,0,0,0-1.34,1l-2.33-.14a3.06,3.06,0,0,1,1-1.65,4.78,4.78,0,0,1,2.7-1,5,5,0,0,1,2.26.19,2.16,2.16,0,0,1,1.19,2.17l.12,3.44A14.14,14.14,0,0,0,59.89,79.73ZM57,78a1.37,1.37,0,0,0,.4-1v-.35a7.07,7.07,0,0,0-2.08.49,1,1,0,0,0-.68.92c0,.46.39.68,1,.61A2.31,2.31,0,0,0,57,78"/><path class="cls-5" d="M65.75,71.05c2.2-.24,3.54,1.1,3.62,3.62a5,5,0,0,1-1,3.35,3.56,3.56,0,0,1-2.48,1.26,3,3,0,0,1-2.42-.64l0,.26v.41l-2.37.26a17.16,17.16,0,0,0,0-2L61,71a15.85,15.85,0,0,0-.16-2l2.46-.27a18.43,18.43,0,0,0,0,2l0,1.07a4.48,4.48,0,0,1,0,.49A3.75,3.75,0,0,1,65.75,71.05Zm-.41,6.34C66.4,77.28,67.08,76.3,67,75s-.72-2-1.78-1.9a2.13,2.13,0,0,0-1.81,2.33c0,1.26.87,2.12,1.91,2"/><path class="cls-5" d="M72.65,67.69a14.77,14.77,0,0,0,0,1.93l.23,6.74A17.26,17.26,0,0,0,73,78.28l-2.52.28a14.83,14.83,0,0,0,0-1.94l-.23-6.74A13.59,13.59,0,0,0,70.12,68Z"/><path class="cls-5" d="M79,75.55a1.45,1.45,0,0,0,.34-.68l2.12.39a4.08,4.08,0,0,1-.75,1.39A4.14,4.14,0,0,1,77.89,78,3.44,3.44,0,0,1,75,77.27a4.58,4.58,0,0,1,2.5-7.59,3.21,3.21,0,0,1,3.73,2.58,8.81,8.81,0,0,1,.24,1.65c0,.05,0,.12,0,.25l-5.45.6a1.44,1.44,0,0,0,1.7,1.4A1.86,1.86,0,0,0,79,75.55Zm-1.39-4A1.61,1.61,0,0,0,76.07,73l3.11-.34a1.31,1.31,0,0,0-1.57-1.08"/><path class="cls-5" d="M90,68.31c2.45-.27,4.05,1.18,4.14,3.7a4.26,4.26,0,0,1-3.86,4.66c-2.44.27-4-1.19-4.13-3.76A4.17,4.17,0,0,1,90,68.31Zm.22,6.42c1.06-.12,1.63-1,1.58-2.42s-.7-2.2-1.72-2.08-1.67,1-1.63,2.43.71,2.2,1.76,2.08"/><path class="cls-5" d="M98.95,64.56a5.92,5.92,0,0,1,1.85.06l-.31,1.91a2.21,2.21,0,0,0-1.21-.19c-.6.07-.81.35-.79,1v.32l.35,0a16,16,0,0,0,1.61-.27l.07,2.14a11.87,11.87,0,0,0-1.59.09l-.38,0,.13,3.88a15.38,15.38,0,0,0,.16,1.92l-2.51.28a14.7,14.7,0,0,0,0-1.94l-.13-3.88-.33,0a8.75,8.75,0,0,0-1.35.24L94.49,68A10,10,0,0,0,95.84,68l.33,0,0-.6C96.09,65.65,97,64.78,98.95,64.56Z"/><path class="cls-5" d="M103.61,72.33l.09,2.56a2.29,2.29,0,0,1-.55,1.66,2.5,2.5,0,0,1-1.19.75l-.57-.9a2,2,0,0,0,.94-.49,1.2,1.2,0,0,0,.31-.9l-1.4.15-.09-2.56Z"/><path class="cls-5" d="M116.18,73.53l-2.35.26,0-.59a3.68,3.68,0,0,1-2.32,1,2.7,2.7,0,0,1-2.12-.47,2.17,2.17,0,0,1-.72-1.65,2.37,2.37,0,0,1,.82-2A5.33,5.33,0,0,1,112,69c.47-.1.83-.15,1.7-.28v-.29c0-.62-.38-.85-1.18-.76a1.32,1.32,0,0,0-1.34,1l-2.33-.14a3,3,0,0,1,1-1.65,4.78,4.78,0,0,1,2.7-1,4.91,4.91,0,0,1,2.25.19,2.15,2.15,0,0,1,1.19,2.17l.12,3.44A15.88,15.88,0,0,0,116.18,73.53Zm-2.85-1.76a1.4,1.4,0,0,0,.4-1v-.35a7.18,7.18,0,0,0-2.09.49,1,1,0,0,0-.67.91c0,.46.38.68,1,.61a2.31,2.31,0,0,0,1.35-.64"/><path class="cls-5" d="M122.08,64.88a2.43,2.43,0,0,1,2,.5,2.62,2.62,0,0,1,.76,2.06l.11,3.2a15.45,15.45,0,0,0,.17,1.9l-2.52.28a15,15,0,0,0,0-1.94l-.09-2.61a1.48,1.48,0,0,0-.22-.92.86.86,0,0,0-.82-.26c-.68.07-1.27.58-1.76,1.54l.09,2.57a15.64,15.64,0,0,0,.17,1.92l-2.51.28a16.46,16.46,0,0,0,0-1.94l-.13-3.92a14.21,14.21,0,0,0-.16-1.91l2.41-.27,0,.54c0,.08,0,.27,0,.35A3.56,3.56,0,0,1,122.08,64.88Z"/><path class="cls-5" d="M134,62.93l.22,6.59a15.12,15.12,0,0,0,.17,2l-2.39.26v-.41a1.8,1.8,0,0,1,0-.28,3.59,3.59,0,0,1-2.42,1.18c-2.2.24-3.59-1.16-3.68-3.74a4.75,4.75,0,0,1,.93-3.22A3.58,3.58,0,0,1,129.26,64a3.33,3.33,0,0,1,2.51.67,4.69,4.69,0,0,1,0-.48l0-1a15.67,15.67,0,0,0-.16-2l2.48-.27A14.56,14.56,0,0,0,134,62.93Zm-3.94,7.33a2.18,2.18,0,0,0,1.79-2.4,1.78,1.78,0,0,0-1.94-1.93c-1.06.12-1.7,1-1.65,2.36a2.22,2.22,0,0,0,.62,1.62,1.56,1.56,0,0,0,1.19.35"/><path class="cls-5" d="M142.7,62.53a3.38,3.38,0,0,1,2.61.54,2.47,2.47,0,0,1,.84,1.36l-2.33.53c-.08-.52-.39-.72-1-.65s-1,.33-1,.66.27.45,1.48.6a6.63,6.63,0,0,1,2,.39,1.84,1.84,0,0,1,1.23,1.82,2.57,2.57,0,0,1-.56,1.76,4.18,4.18,0,0,1-2.83,1.24c-1.53.17-2.62-.14-3.23-.92a2.84,2.84,0,0,1-.53-1.22l2.39-.55c.15.65.57.89,1.38.8s1.12-.34,1.11-.73a.47.47,0,0,0-.28-.43,2.68,2.68,0,0,0-1-.18,14.47,14.47,0,0,1-1.8-.26,2.1,2.1,0,0,1-1.25-.77,2.38,2.38,0,0,1-.34-1.17C139.49,63.82,140.68,62.75,142.7,62.53Z"/><path class="cls-5" d="M151,61.59c2.45-.27,4.05,1.18,4.14,3.7a4.26,4.26,0,0,1-3.86,4.66c-2.43.27-4-1.19-4.12-3.76A4.17,4.17,0,0,1,151,61.59Zm.22,6.42c1.06-.12,1.63-1,1.58-2.42s-.69-2.2-1.72-2.08-1.66,1-1.62,2.43.71,2.2,1.75,2.08"/><path class="cls-5" d="M159.56,60.64a3.08,3.08,0,0,1,3.65,2.27l-2.16.71a1.68,1.68,0,0,0-.37-.71,1.17,1.17,0,0,0-1-.34c-1,.11-1.53,1-1.48,2.39s.69,2.2,1.66,2.09a1.5,1.5,0,0,0,1.13-.69,1.41,1.41,0,0,0,.2-.61l2.24.12a4.2,4.2,0,0,1-.47,1.32A3.83,3.83,0,0,1,159.87,69a3.54,3.54,0,0,1-2.85-.78,4.56,4.56,0,0,1,2.54-7.58Z"/><path class="cls-5" d="M166.66,62.08l.13,3.92a18.92,18.92,0,0,0,.16,1.92l-2.52.28a16.48,16.48,0,0,0,0-1.94l-.13-3.92a15.39,15.39,0,0,0-.16-1.91l2.52-.28A14.52,14.52,0,0,0,166.66,62.08Z"/><polygon class="cls-5" points="166.56 57.34 166.62 59.24 164.16 59.51 164.1 57.61 166.56 57.34"/><path class="cls-5" d="M172.95,65.19a1.32,1.32,0,0,0,.34-.68l2.13.39a4,4,0,0,1-.76,1.39,4.14,4.14,0,0,1-2.82,1.4,3.45,3.45,0,0,1-2.84-.77,4.58,4.58,0,0,1,2.5-7.59,3.22,3.22,0,0,1,3.74,2.58,9.77,9.77,0,0,1,.23,1.65,1.79,1.79,0,0,0,0,.25l-5.45.6a1.43,1.43,0,0,0,1.7,1.4A1.85,1.85,0,0,0,172.95,65.19Zm-1.39-4A1.62,1.62,0,0,0,170,62.64l3.11-.34a1.31,1.31,0,0,0-1.57-1.08"/><path class="cls-5" d="M190,57.58c-.29.7-.29.7-.67,1.79l-2.55,7a2.89,2.89,0,0,1-2.67,2,6.54,6.54,0,0,1-1.67,0l.19-2a1.77,1.77,0,0,0,1,.18,1.13,1.13,0,0,0,1-.71l.23-.57-2.45-5.13c-.56-1.21-.62-1.33-.78-1.63l2.62-.29a8.19,8.19,0,0,0,.53,1.6l1.21,2.81,1-3a8.81,8.81,0,0,0,.46-1.76Z"/><path class="cls-5" d="M179.57,56.72a14.34,14.34,0,0,0,0,1.76v.26l.44,0a7.89,7.89,0,0,0,1.19-.19l.07,2.12a7.22,7.22,0,0,0-1.12,0l-.51.06.11,3.26c0,.35.08.53.24.63a1,1,0,0,0,.56.08,1.83,1.83,0,0,0,.85-.32l.24,1.91a5.25,5.25,0,0,1-1.66.44,2.77,2.77,0,0,1-1.8-.24,1.74,1.74,0,0,1-.69-1.61l-.13-3.9-.46.05a6.88,6.88,0,0,0-1,.19l-.07-2.12a8,8,0,0,0,1.08,0l.44,0v-.26a13.05,13.05,0,0,0-.15-1.74Z"/><path class="cls-5" d="M198,54.68a16.12,16.12,0,0,0,0,1.76v.26l.44,0a7.89,7.89,0,0,0,1.19-.19l.07,2.12a7.14,7.14,0,0,0-1.12,0l-.51.06.11,3.26c0,.35.09.53.24.63a1,1,0,0,0,.57.08,1.8,1.8,0,0,0,.84-.32l.25,1.91a5.3,5.3,0,0,1-1.67.44,2.72,2.72,0,0,1-1.79-.24c-.47-.32-.66-.74-.69-1.61l-.13-3.9-.46.05a7,7,0,0,0-1.05.2l-.07-2.12a8,8,0,0,0,1.08,0l.44,0v-.26a13,13,0,0,0-.16-1.73Z"/><path class="cls-5" d="M205.5,61.6a1.32,1.32,0,0,0,.34-.68l2.13.39a4,4,0,0,1-.76,1.39,4.14,4.14,0,0,1-2.82,1.4,3.45,3.45,0,0,1-2.84-.77,4.58,4.58,0,0,1,2.5-7.59,3.22,3.22,0,0,1,3.74,2.58A9.75,9.75,0,0,1,208,60a1.76,1.76,0,0,0,0,.25l-5.45.6a1.43,1.43,0,0,0,1.7,1.4A1.85,1.85,0,0,0,205.5,61.6Zm-1.39-4a1.62,1.62,0,0,0-1.54,1.43l3.11-.34a1.31,1.31,0,0,0-1.57-1.08"/><path class="cls-5" d="M211.29,52.4a13.45,13.45,0,0,0,0,1.93l.23,6.74a15.48,15.48,0,0,0,.16,1.92l-2.53.28a13.28,13.28,0,0,0,0-1.94l-.23-6.74a12.16,12.16,0,0,0-.17-1.91Z"/><path class="cls-5" d="M215.09,52a13.22,13.22,0,0,0,0,1.93l.23,6.74a15.36,15.36,0,0,0,.17,1.92l-2.53.28a14.83,14.83,0,0,0,0-1.94l-.23-6.74a13.59,13.59,0,0,0-.16-1.91Z"/><path class="cls-5" d="M219.73,54a3.35,3.35,0,0,1,2.6.54,2.37,2.37,0,0,1,.84,1.36l-2.32.53c-.09-.52-.39-.72-1-.65s-1,.33-1,.66.27.45,1.48.6a6.62,6.62,0,0,1,2,.39,1.84,1.84,0,0,1,1.23,1.82A2.57,2.57,0,0,1,223,61a4.2,4.2,0,0,1-2.83,1.24c-1.53.17-2.62-.14-3.23-.92a2.83,2.83,0,0,1-.53-1.22l2.39-.55c.15.65.57.89,1.37.8s1.13-.34,1.12-.73a.46.46,0,0,0-.28-.43,2.61,2.61,0,0,0-1-.18,15.2,15.2,0,0,1-1.81-.26,2.11,2.11,0,0,1-1.24-.77,2.38,2.38,0,0,1-.34-1.17C216.52,55.32,217.71,54.26,219.73,54Z"/><path class="cls-5" d="M236,52.51a14.59,14.59,0,0,0,0,1.92l.13,3.93a12.5,12.5,0,0,0,.17,1.9l-2.41.27,0-.55a2.6,2.6,0,0,1,0-.35A3.52,3.52,0,0,1,231.37,61a2.42,2.42,0,0,1-2-.5,2.66,2.66,0,0,1-.76-2.06l-.11-3.2a17.55,17.55,0,0,0-.16-1.9l2.51-.28a14.85,14.85,0,0,0,0,1.92l.09,2.61a1.38,1.38,0,0,0,.23.93.86.86,0,0,0,.79.28,2.52,2.52,0,0,0,1.77-1.51l-.09-2.61a17.36,17.36,0,0,0-.16-1.9Z"/><path class="cls-5" d="M240.56,51.74a3.36,3.36,0,0,1,2.6.54,2.37,2.37,0,0,1,.84,1.36l-2.33.53c-.08-.52-.39-.72-1-.65s-1,.33-1,.66.27.45,1.48.6a6.72,6.72,0,0,1,2,.39A1.84,1.84,0,0,1,244.35,57a2.57,2.57,0,0,1-.56,1.76A4.2,4.2,0,0,1,241,60c-1.53.17-2.62-.14-3.23-.92a2.83,2.83,0,0,1-.53-1.22l2.39-.55c.14.65.57.89,1.37.8s1.13-.34,1.12-.73a.46.46,0,0,0-.28-.43,2.61,2.61,0,0,0-1-.18,15.2,15.2,0,0,1-1.81-.26,2.11,2.11,0,0,1-1.24-.77,2.38,2.38,0,0,1-.34-1.17C237.35,53,238.54,52,240.56,51.74Z"/><path class="cls-5" d="M259.83,49.88c-.17.51-.32,1.1-.49,1.72l-1.2,4.77a10.58,10.58,0,0,0-.31,1.54l-2.06.23a11.31,11.31,0,0,0-.43-1.46l-.82-2.46c-.07-.21-.12-.38-.15-.49-.07.31-.07.33-.13.52l-.65,2.62c-.15.58-.29,1.23-.33,1.54l-2.05.23c-.11-.46-.2-.78-.42-1.46l-1.51-4.47c-.14-.43-.34-1-.6-1.6l2.61-.29a9.62,9.62,0,0,0,.28,1.48l.61,2.22c.07.3.13.5.14.6.13-.52.13-.52.15-.64l.6-2.39c.29-1.23.29-1.23.33-1.5l1.77-.19a12,12,0,0,0,.41,1.42l.79,2.33c0,.09.1.36.16.51,0-.2,0-.2.09-.55L257,51.8a11.5,11.5,0,0,0,.2-1.63Z"/><path class="cls-5" d="M263,46.71a13.07,13.07,0,0,0,0,1.93L263,50c0,.11,0,.31,0,.42a3.55,3.55,0,0,1,2.48-1.34,2.38,2.38,0,0,1,2,.5,2.62,2.62,0,0,1,.76,2.06l.11,3.2a17.32,17.32,0,0,0,.17,1.9l-2.52.28a15,15,0,0,0,0-1.94l-.09-2.61a1.5,1.5,0,0,0-.23-.93.84.84,0,0,0-.78-.26,2.5,2.5,0,0,0-1.79,1.52l.09,2.58a15.64,15.64,0,0,0,.17,1.92l-2.51.28a14.7,14.7,0,0,0,0-1.94l-.23-6.74a12.48,12.48,0,0,0-.17-1.91Z"/><path class="cls-5" d="M276.9,55.81l-2.35.26,0-.59a3.66,3.66,0,0,1-2.32,1,2.69,2.69,0,0,1-2.12-.47,2.17,2.17,0,0,1-.72-1.65,2.37,2.37,0,0,1,.82-2,5.33,5.33,0,0,1,2.49-1.11c.47-.1.83-.15,1.7-.28v-.29c0-.62-.37-.85-1.18-.76a1.32,1.32,0,0,0-1.34,1l-2.33-.14a3.07,3.07,0,0,1,1-1.65,4.78,4.78,0,0,1,2.7-1,5,5,0,0,1,2.26.19,2.16,2.16,0,0,1,1.19,2.17l.12,3.44A14.18,14.18,0,0,0,276.9,55.81ZM274,54a1.37,1.37,0,0,0,.4-1v-.35a7.07,7.07,0,0,0-2.08.49,1,1,0,0,0-.68.92c0,.46.38.68,1,.61A2.31,2.31,0,0,0,274,54"/><path class="cls-5" d="M281.18,45.51a16.18,16.18,0,0,0,0,1.76v.26l.44,0a7.89,7.89,0,0,0,1.19-.19l.07,2.12a7.14,7.14,0,0,0-1.12,0l-.51.06.11,3.26c0,.35.09.53.24.63a1,1,0,0,0,.57.08,1.79,1.79,0,0,0,.84-.32l.25,1.91a5.3,5.3,0,0,1-1.67.44,2.72,2.72,0,0,1-1.79-.24c-.47-.32-.66-.74-.69-1.61l-.13-3.9-.46.05a7,7,0,0,0-1.05.2l-.07-2.12a8,8,0,0,0,1.08,0l.44,0v-.26a13,13,0,0,0-.16-1.73Z"/><path class="cls-5" d="M298.34,45.64c-.17.51-.33,1.1-.49,1.72l-1.2,4.77a12.24,12.24,0,0,0-.32,1.54l-2.05.23a11.31,11.31,0,0,0-.43-1.46L293,50c-.07-.21-.12-.38-.15-.49-.07.31-.07.33-.13.52l-.65,2.62a13.83,13.83,0,0,0-.33,1.54l-2.06.23a14.09,14.09,0,0,0-.41-1.46l-1.51-4.47c-.15-.43-.34-1-.6-1.6l2.61-.29a8.69,8.69,0,0,0,.28,1.48l.6,2.22c.07.3.13.5.15.6.13-.52.13-.52.15-.64l.6-2.39c.29-1.23.29-1.23.33-1.5l1.77-.19a10.49,10.49,0,0,0,.41,1.42l.79,2.33c0,.09.1.36.16.51,0-.2,0-.2.09-.55l.43-2.31a11.53,11.53,0,0,0,.2-1.63Z"/><path class="cls-5" d="M304,50.74a1.39,1.39,0,0,0,.35-.68l2.12.39a4.08,4.08,0,0,1-.75,1.39,4.16,4.16,0,0,1-2.82,1.4,3.43,3.43,0,0,1-2.84-.77,4.11,4.11,0,0,1-1.21-3,4.17,4.17,0,0,1,3.71-4.61,3.22,3.22,0,0,1,3.73,2.58,9.75,9.75,0,0,1,.23,1.65,1.76,1.76,0,0,0,0,.25l-5.45.6a1.43,1.43,0,0,0,1.7,1.4A1.85,1.85,0,0,0,304,50.74Zm-1.38-4a1.63,1.63,0,0,0-1.55,1.43l3.11-.34a1.3,1.3,0,0,0-1.56-1.08"/><path class="cls-5" d="M39.54,89.24a3.4,3.4,0,0,1,2.6.54A2.43,2.43,0,0,1,43,91.13l-2.32.53c-.08-.51-.39-.71-1-.64s-1,.32-1,.66.27.44,1.48.59a6.71,6.71,0,0,1,2,.39,1.84,1.84,0,0,1,1.23,1.82,2.55,2.55,0,0,1-.56,1.76,4.16,4.16,0,0,1-2.83,1.25c-1.53.17-2.62-.14-3.23-.93a2.73,2.73,0,0,1-.53-1.22l2.39-.55c.14.65.57.89,1.37.8s1.13-.34,1.12-.73a.47.47,0,0,0-.28-.43,3,3,0,0,0-1-.18A13.54,13.54,0,0,1,38,94a2.07,2.07,0,0,1-1.24-.77,2.38,2.38,0,0,1-.34-1.17C36.33,90.53,37.52,89.46,39.54,89.24Z"/><path class="cls-5" d="M46.6,85.89a13.15,13.15,0,0,0,0,1.93l0,1.35c0,.11,0,.31,0,.42a3.56,3.56,0,0,1,2.48-1.33,2.38,2.38,0,0,1,2,.5,2.64,2.64,0,0,1,.76,2.07L51.91,94a17.33,17.33,0,0,0,.17,1.9l-2.52.28a14.78,14.78,0,0,0,0-1.93l-.09-2.61a1.53,1.53,0,0,0-.23-.94.85.85,0,0,0-.79-.26A2.5,2.5,0,0,0,46.7,92l.09,2.59A15.49,15.49,0,0,0,47,96.49l-2.51.28a14.72,14.72,0,0,0,0-1.93l-.23-6.75a12.68,12.68,0,0,0-.16-1.91Z"/><path class="cls-5" d="M56.74,87.32c2.45-.27,4.05,1.18,4.14,3.7A4.26,4.26,0,0,1,57,95.67c-2.44.27-4-1.19-4.12-3.75A4.17,4.17,0,0,1,56.74,87.32ZM57,93.73c1.06-.12,1.63-1,1.58-2.42s-.7-2.2-1.72-2.08-1.67,1-1.63,2.43.71,2.2,1.76,2.08"/><path class="cls-5" d="M69.34,86.23a16.13,16.13,0,0,0,0,1.91l.13,3.94A13.79,13.79,0,0,0,69.6,94l-2.41.27,0-.55c0-.06,0-.26,0-.34a3.49,3.49,0,0,1-2.48,1.37,2.45,2.45,0,0,1-2-.49A2.68,2.68,0,0,1,62,92.16L61.88,89a15.3,15.3,0,0,0-.17-1.89l2.52-.28a14.67,14.67,0,0,0,0,1.92l.09,2.61a1.46,1.46,0,0,0,.23.94.87.87,0,0,0,.8.27A2.52,2.52,0,0,0,67.09,91L67,88.4a15.29,15.29,0,0,0-.17-1.89Z"/><path class="cls-5" d="M73,83a13.3,13.3,0,0,0,0,1.93l.23,6.75a15.31,15.31,0,0,0,.17,1.91l-2.53.28a13.15,13.15,0,0,0,0-1.93l-.23-6.75a12.23,12.23,0,0,0-.17-1.91Z"/><path class="cls-5" d="M82.33,84l.22,6.59a15.12,15.12,0,0,0,.17,2l-2.39.26v-.41a1.84,1.84,0,0,1,0-.28,3.6,3.6,0,0,1-2.42,1.19c-2.2.24-3.59-1.16-3.68-3.74a4.75,4.75,0,0,1,.93-3.23,3.61,3.61,0,0,1,2.43-1.26,3.29,3.29,0,0,1,2.51.67c0-.19,0-.31,0-.48l0-1.06a15.76,15.76,0,0,0-.16-2L82.36,82A14.64,14.64,0,0,0,82.33,84ZM78.39,91.3a2.19,2.19,0,0,0,1.79-2.41A1.77,1.77,0,0,0,78.22,87c-1,.12-1.69,1-1.64,2.35a2.18,2.18,0,0,0,.62,1.62,1.5,1.5,0,0,0,1.19.36"/><path class="cls-5" d="M95.67,82.49l.22,6.59a15.16,15.16,0,0,0,.17,2l-2.39.26v-.41a1.82,1.82,0,0,1,0-.28,3.6,3.6,0,0,1-2.42,1.19c-2.2.24-3.59-1.16-3.68-3.74a4.75,4.75,0,0,1,.93-3.23,3.61,3.61,0,0,1,2.42-1.26,3.31,3.31,0,0,1,2.52.67,4.8,4.8,0,0,1,0-.48l0-1.06a14.13,14.13,0,0,0-.17-2l2.49-.27A14.68,14.68,0,0,0,95.67,82.49Zm-3.94,7.34a2.19,2.19,0,0,0,1.79-2.41,1.77,1.77,0,0,0-1.95-1.92c-1,.12-1.69,1-1.64,2.35a2.18,2.18,0,0,0,.62,1.62,1.5,1.5,0,0,0,1.19.36"/><path class="cls-5" d="M100.73,82.47c2.45-.27,4.05,1.18,4.14,3.7A4.26,4.26,0,0,1,101,90.82c-2.43.27-4-1.19-4.12-3.75A4.17,4.17,0,0,1,100.73,82.47Zm.22,6.42c1.06-.12,1.63-1,1.58-2.42s-.69-2.2-1.72-2.08-1.66,1-1.62,2.43S99.9,89,101,88.88"/><polygon class="cls-5" points="108.32 87.14 108.41 89.72 105.96 89.98 105.87 87.41 108.32 87.14"/><path class="cls-5" d="M126,77.14c-.11.36-.26,1-.4,1.63l-1.68,7.84c-.13.62-.22,1.11-.25,1.43l-2.42.27A11.16,11.16,0,0,0,121,87l-1-3.64c-.13-.49-.25-1.06-.4-1.89-.06.54-.17,1.36-.3,2l-.76,3.85a9.63,9.63,0,0,0-.22,1.38l-2.41.27a13.86,13.86,0,0,0-.35-1.34l-2.2-7.43c-.19-.63-.38-1.2-.51-1.53l2.76-.3a8.77,8.77,0,0,0,.22,1.38l.9,3.78c0,.19.15.78.33,1.77.15-1.1.22-1.56.27-1.84l.84-4.06a13.4,13.4,0,0,0,.22-1.35l2.15-.24a10.59,10.59,0,0,0,.32,1.26l1.11,3.81c.11.39.21.81.41,1.82a7.73,7.73,0,0,1,.07-.79c0-.29.1-.91.13-1.12l.63-3.87a7,7,0,0,0,.14-1.42Z"/><path class="cls-5" d="M131.84,85.06a1.44,1.44,0,0,0,.34-.69l2.12.39a4.22,4.22,0,0,1-.75,1.4,4.15,4.15,0,0,1-2.82,1.39,3.45,3.45,0,0,1-2.84-.77,4.58,4.58,0,0,1,2.5-7.6,3.22,3.22,0,0,1,3.73,2.58,9.61,9.61,0,0,1,.24,1.65c0,.05,0,.13,0,.25l-5.45.6a1.44,1.44,0,0,0,1.7,1.4A1.87,1.87,0,0,0,131.84,85.06Zm-1.39-4a1.61,1.61,0,0,0-1.54,1.43l3.11-.34a1.31,1.31,0,0,0-1.57-1.08"/><path class="cls-5" d="M142.78,77.82a3.1,3.1,0,0,1,3.65,2.27l-2.16.71a1.68,1.68,0,0,0-.37-.71,1.17,1.17,0,0,0-1-.33c-1,.11-1.54,1-1.49,2.39s.7,2.2,1.67,2.09a1.5,1.5,0,0,0,1.13-.69,1.36,1.36,0,0,0,.2-.61l2.24.12a4.19,4.19,0,0,1-.47,1.32,3.84,3.84,0,0,1-3.06,1.81,3.54,3.54,0,0,1-2.86-.78,4.57,4.57,0,0,1,2.55-7.58Z"/><path class="cls-5" d="M154.85,84.6l-2.35.26,0-.59a3.68,3.68,0,0,1-2.33,1,2.73,2.73,0,0,1-2.12-.47,2.19,2.19,0,0,1-.72-1.66,2.37,2.37,0,0,1,.82-2,5.33,5.33,0,0,1,2.49-1.11c.47-.1.83-.15,1.71-.28v-.29c0-.61-.38-.85-1.19-.76a1.32,1.32,0,0,0-1.34,1l-2.33-.14a3.1,3.1,0,0,1,1-1.65,5.76,5.76,0,0,1,5-.82,2.15,2.15,0,0,1,1.19,2.17l.12,3.44A15.77,15.77,0,0,0,154.85,84.6ZM152,82.84a1.43,1.43,0,0,0,.4-1v-.36a7.1,7.1,0,0,0-2.09.49,1,1,0,0,0-.68.92c0,.46.39.69,1,.62a2.37,2.37,0,0,0,1.36-.64"/><path class="cls-5" d="M160.74,76a2.42,2.42,0,0,1,2,.5,2.64,2.64,0,0,1,.76,2.07l.11,3.19a17.32,17.32,0,0,0,.17,1.9l-2.52.28a14.78,14.78,0,0,0,0-1.93l-.09-2.61a1.45,1.45,0,0,0-.22-.92.86.86,0,0,0-.81-.27,2.44,2.44,0,0,0-1.76,1.54l.09,2.57a15.49,15.49,0,0,0,.17,1.91l-2.51.28a14.76,14.76,0,0,0,0-1.93L156,78.6a12.78,12.78,0,0,0-.16-1.91l2.41-.27,0,.53c0,.08,0,.27,0,.36A3.54,3.54,0,0,1,160.74,76Z"/><path class="cls-5" d="M173.67,74.53a2.41,2.41,0,0,1,2,.5,2.64,2.64,0,0,1,.77,2.07l.11,3.19a17.56,17.56,0,0,0,.16,1.9l-2.51.28a16.54,16.54,0,0,0,0-1.93l-.09-2.61a1.4,1.4,0,0,0-.22-.92.86.86,0,0,0-.81-.27c-.68.07-1.27.59-1.76,1.54l.09,2.57a15.59,15.59,0,0,0,.16,1.91L169,83a14.61,14.61,0,0,0,0-1.93l-.13-3.92a12.53,12.53,0,0,0-.17-1.91l2.41-.27,0,.53c0,.08,0,.28,0,.36A3.54,3.54,0,0,1,173.67,74.53Z"/><path class="cls-5" d="M181.34,73.58c2.44-.27,4,1.18,4.13,3.7a4.26,4.26,0,0,1-3.86,4.66c-2.43.27-4-1.19-4.12-3.75A4.17,4.17,0,0,1,181.34,73.58Zm.22,6.42c1-.12,1.62-1,1.57-2.42s-.69-2.2-1.72-2.08-1.66,1-1.62,2.43.71,2.2,1.76,2.08"/><path class="cls-5" d="M189.58,70.95a16.39,16.39,0,0,0,0,1.76V73l.44,0a7.66,7.66,0,0,0,1.18-.2l.07,2.12a7.22,7.22,0,0,0-1.12.05l-.5.06.11,3.25c0,.36.08.53.24.63a1,1,0,0,0,.56.08,1.68,1.68,0,0,0,.84-.32l.25,1.91a5,5,0,0,1-1.66.44,2.7,2.7,0,0,1-1.8-.24c-.47-.32-.66-.73-.69-1.6l-.13-3.9-.46.05a6.89,6.89,0,0,0-1,.19l-.07-2.12a6.67,6.67,0,0,0,1.08,0l.44,0V73a14.6,14.6,0,0,0-.15-1.74Z"/><path class="cls-5" d="M203.62,79.22l-2.35.26,0-.59a3.68,3.68,0,0,1-2.32,1,2.73,2.73,0,0,1-2.12-.47,2.19,2.19,0,0,1-.72-1.66,2.37,2.37,0,0,1,.82-2,5.33,5.33,0,0,1,2.49-1.11c.47-.1.83-.15,1.7-.28v-.29c0-.61-.38-.85-1.18-.76a1.32,1.32,0,0,0-1.34,1l-2.33-.14a3.05,3.05,0,0,1,1-1.65,4.85,4.85,0,0,1,2.7-1,4.77,4.77,0,0,1,2.25.2A2.14,2.14,0,0,1,203.35,74l.12,3.44A15.76,15.76,0,0,0,203.62,79.22Zm-2.85-1.76a1.43,1.43,0,0,0,.4-1v-.36a7.18,7.18,0,0,0-2.09.49,1,1,0,0,0-.67.91c0,.46.39.69,1,.62a2.36,2.36,0,0,0,1.35-.64"/><path class="cls-5" d="M207.07,68.2a14.86,14.86,0,0,0,0,1.93l.23,6.75a17.2,17.2,0,0,0,.16,1.91l-2.52.28a14.67,14.67,0,0,0,0-1.93l-.23-6.75a13.67,13.67,0,0,0-.16-1.91Z"/><path class="cls-5" d="M210.87,67.78a13.34,13.34,0,0,0,0,1.93l.23,6.75a15.35,15.35,0,0,0,.17,1.91l-2.53.28a13.15,13.15,0,0,0,0-1.93L208.51,70a12.23,12.23,0,0,0-.17-1.91Z"/><path class="cls-5" d="M215.91,69.77c2.45-.27,4.05,1.18,4.14,3.7a4.26,4.26,0,0,1-3.87,4.66c-2.43.27-4-1.19-4.12-3.75A4.17,4.17,0,0,1,215.91,69.77Zm.22,6.42c1-.12,1.63-1,1.58-2.42s-.7-2.2-1.73-2.08-1.66,1-1.62,2.43.71,2.2,1.76,2.08"/><path class="cls-5" d="M231.49,68.35c-.16.5-.32,1.1-.49,1.71l-1.19,4.78a12.57,12.57,0,0,0-.32,1.53l-2.05.23a13,13,0,0,0-.43-1.45l-.82-2.47c-.07-.21-.12-.37-.15-.48-.07.3-.07.33-.13.51l-.66,2.63a13,13,0,0,0-.32,1.53l-2.06.23a14.09,14.09,0,0,0-.41-1.45l-1.51-4.48c-.15-.43-.35-1-.6-1.59l2.61-.29a8,8,0,0,0,.28,1.47l.6,2.23c.07.29.13.49.15.59.13-.51.13-.51.15-.63l.6-2.39a12.7,12.7,0,0,0,.32-1.5l1.77-.19a12.83,12.83,0,0,0,.42,1.42l.79,2.33c0,.09.1.36.16.5,0-.2,0-.2.09-.55l.43-2.3a10.81,10.81,0,0,0,.21-1.63Z"/><path class="cls-5" d="M243.7,74.8l-2.35.26,0-.59a3.69,3.69,0,0,1-2.33,1A2.71,2.71,0,0,1,236.9,75a2.19,2.19,0,0,1-.73-1.66,2.36,2.36,0,0,1,.82-2,5.27,5.27,0,0,1,2.49-1.11c.47-.1.84-.15,1.71-.28v-.29c0-.61-.38-.85-1.18-.76a1.33,1.33,0,0,0-1.34,1l-2.33-.14a3.06,3.06,0,0,1,1-1.66,4.85,4.85,0,0,1,2.7-1,4.77,4.77,0,0,1,2.25.2,2.15,2.15,0,0,1,1.19,2.17l.12,3.44A15.71,15.71,0,0,0,243.7,74.8ZM240.85,73a1.43,1.43,0,0,0,.4-1v-.36a7.1,7.1,0,0,0-2.09.49,1,1,0,0,0-.68.92c0,.46.39.69,1,.62a2.37,2.37,0,0,0,1.36-.64"/><path class="cls-5" d="M249.61,66.16a2.41,2.41,0,0,1,2,.5,2.64,2.64,0,0,1,.77,2.07l.11,3.19a17.55,17.55,0,0,0,.16,1.9l-2.51.28a16.55,16.55,0,0,0,0-1.93L250,69.55a1.45,1.45,0,0,0-.22-.92.86.86,0,0,0-.81-.27c-.68.07-1.27.59-1.76,1.54l.09,2.57a15.55,15.55,0,0,0,.16,1.91l-2.51.28a14.65,14.65,0,0,0,0-1.93l-.13-3.92a12.56,12.56,0,0,0-.17-1.91l2.41-.27,0,.53c0,.08,0,.28,0,.36A3.54,3.54,0,0,1,249.61,66.16Z"/><g class="cls-1"><path class="cls-5" d="M265.46,62.58a16.32,16.32,0,0,0,0,1.76v.27l.44,0a7.77,7.77,0,0,0,1.19-.2l.07,2.12a7.22,7.22,0,0,0-1.12.05l-.51.06.11,3.25c0,.36.09.53.25.63a.94.94,0,0,0,.56.08,1.7,1.7,0,0,0,.84-.32l.25,1.91a5.07,5.07,0,0,1-1.67.44,2.67,2.67,0,0,1-1.79-.24c-.47-.32-.66-.73-.68-1.6l-.13-3.9-.46.05a7,7,0,0,0-1.05.19l-.07-2.12a6.7,6.7,0,0,0,1.08,0l.44,0v-.27a13,13,0,0,0-.16-1.73Z"/><path class="cls-5" d="M261.49,65c-.28.69-.28.69-.67,1.78l-2.55,7a2.89,2.89,0,0,1-2.67,2,6.92,6.92,0,0,1-1.67,0l.2-2.06a1.65,1.65,0,0,0,.95.18,1.12,1.12,0,0,0,1-.71l.24-.58-2.45-5.13c-.57-1.21-.62-1.32-.79-1.62l2.62-.29a8.45,8.45,0,0,0,.53,1.59l1.21,2.82,1-3a7.88,7.88,0,0,0,.46-1.75Z"/></g><path class="cls-5" d="M270.41,61.22a13.15,13.15,0,0,0,0,1.93l0,1.35c0,.11,0,.31,0,.42a3.53,3.53,0,0,1,2.48-1.33,2.4,2.4,0,0,1,2,.5,2.64,2.64,0,0,1,.76,2.07l.11,3.19a15.45,15.45,0,0,0,.17,1.9l-2.52.28a14.78,14.78,0,0,0,0-1.93L273.32,67a1.53,1.53,0,0,0-.23-.94.85.85,0,0,0-.79-.26,2.5,2.5,0,0,0-1.78,1.52l.09,2.59a15.49,15.49,0,0,0,.17,1.91l-2.51.28a16.35,16.35,0,0,0,0-1.93l-.23-6.75a13.92,13.92,0,0,0-.16-1.91Z"/><path class="cls-5" d="M279.38,65l.13,3.92a18.37,18.37,0,0,0,.17,1.91l-2.53.28a16.32,16.32,0,0,0,0-1.93L277,65.26a15.21,15.21,0,0,0-.16-1.91l2.53-.28A12.91,12.91,0,0,0,279.38,65Z"/><polygon class="cls-5" points="279.28 60.24 279.35 62.16 276.89 62.42 276.82 60.51 279.28 60.24"/><path class="cls-5" d="M285.58,62.19a2.42,2.42,0,0,1,2,.5,2.64,2.64,0,0,1,.76,2.07l.11,3.19a17.33,17.33,0,0,0,.17,1.9l-2.52.28a14.78,14.78,0,0,0,0-1.93L286,65.59a1.45,1.45,0,0,0-.22-.92.87.87,0,0,0-.82-.27,2.44,2.44,0,0,0-1.76,1.54l.09,2.57a15.49,15.49,0,0,0,.17,1.91l-2.51.28a16.35,16.35,0,0,0,0-1.93l-.13-3.92a14,14,0,0,0-.16-1.91l2.41-.27,0,.53c0,.08,0,.27,0,.36A3.54,3.54,0,0,1,285.58,62.19Z"/><path class="cls-5" d="M294.91,61.36l2.37-.26a12.3,12.3,0,0,0,0,1.78l.15,4.46a4,4,0,0,1-1.15,3.33,5.32,5.32,0,0,1-2.86,1.07,4,4,0,0,1-3.63-1l1.7-1.4a2,2,0,0,0,1.87.67,2,2,0,0,0,1.46-.73,2.2,2.2,0,0,0,.35-1.41A3.18,3.18,0,0,1,293,68.94c-2.11.23-3.49-1.07-3.57-3.39a3.73,3.73,0,0,1,3.32-4.13,3.09,3.09,0,0,1,2.23.5v-.55Zm-1.57,5.69A1.93,1.93,0,0,0,295,64.93a1.63,1.63,0,0,0-1.76-1.76,1.86,1.86,0,0,0-1.53,2.14c0,1.16.69,1.85,1.65,1.75"/><path class="cls-5" d="M44.46,106c2.45-.27,4,1.17,4.13,3.69a4.25,4.25,0,0,1-3.86,4.66c-2.43.27-4-1.19-4.12-3.76A4.17,4.17,0,0,1,44.46,106Zm.22,6.42c1-.12,1.63-1,1.58-2.42s-.7-2.2-1.73-2.08-1.66,1-1.62,2.43.71,2.2,1.76,2.08"/><path class="cls-5" d="M57.06,104.88a14.59,14.59,0,0,0,0,1.92l.13,3.93a12.5,12.5,0,0,0,.17,1.9l-2.41.27,0-.55c0-.07,0-.26,0-.34a3.54,3.54,0,0,1-2.48,1.37,2.46,2.46,0,0,1-2-.5,2.64,2.64,0,0,1-.76-2.07l-.11-3.19a17.32,17.32,0,0,0-.17-1.9l2.51-.28a16.59,16.59,0,0,0,0,1.92L52,110a1.45,1.45,0,0,0,.23.93.86.86,0,0,0,.8.27,2.56,2.56,0,0,0,1.77-1.51l-.09-2.61a15.44,15.44,0,0,0-.17-1.9Z"/><path class="cls-5" d="M61.59,102.36a16.05,16.05,0,0,0,0,1.76v.26l.44,0a7.9,7.9,0,0,0,1.19-.19l.07,2.12a7.14,7.14,0,0,0-1.12,0l-.51.06.11,3.26c0,.35.09.53.24.62a.92.92,0,0,0,.57.08,1.7,1.7,0,0,0,.84-.32l.25,1.92a5.3,5.3,0,0,1-1.67.44,2.66,2.66,0,0,1-1.79-.25c-.47-.32-.66-.73-.69-1.6l-.13-3.9-.46.05a7,7,0,0,0-1.05.2l-.07-2.13a6.7,6.7,0,0,0,1.08,0l.44,0v-.26a13,13,0,0,0-.16-1.73Z"/><path class="cls-5" d="M67.4,103.47A3.42,3.42,0,0,1,70,104a2.47,2.47,0,0,1,.83,1.37l-2.32.52c-.08-.51-.39-.71-1-.64s-1,.33-1,.66.27.45,1.48.59a6.82,6.82,0,0,1,2,.4,1.84,1.84,0,0,1,1.23,1.82,2.57,2.57,0,0,1-.56,1.76,4.2,4.2,0,0,1-2.83,1.24c-1.53.17-2.62-.14-3.23-.92a2.88,2.88,0,0,1-.53-1.22l2.39-.54c.15.65.57.89,1.38.8s1.12-.35,1.11-.73a.47.47,0,0,0-.28-.43,2.79,2.79,0,0,0-1-.19,12.18,12.18,0,0,1-1.81-.26,2.1,2.1,0,0,1-1.24-.77,2.38,2.38,0,0,1-.34-1.17C64.19,104.76,65.38,103.7,67.4,103.47Z"/><path class="cls-5" d="M74.54,104.88l.13,3.92a18.38,18.38,0,0,0,.17,1.91l-2.53.28a14.5,14.5,0,0,0,0-1.93l-.13-3.92a13.57,13.57,0,0,0-.17-1.91l2.53-.28A12.91,12.91,0,0,0,74.54,104.88Z"/><polygon class="cls-5" points="74.45 100.13 74.51 102.03 72.05 102.31 71.98 100.4 74.45 100.13"/><path class="cls-5" d="M83.78,101.1l.22,6.6a16.83,16.83,0,0,0,.16,2l-2.38.26v-.41c0-.08,0-.17,0-.28a3.58,3.58,0,0,1-2.42,1.19c-2.2.24-3.58-1.16-3.67-3.74a4.71,4.71,0,0,1,.93-3.22A3.56,3.56,0,0,1,79,102.23a3.31,3.31,0,0,1,2.51.67c0-.19,0-.31,0-.48l0-1.06a14,14,0,0,0-.17-2l2.48-.27A16.14,16.14,0,0,0,83.78,101.1Zm-3.95,7.34A2.19,2.19,0,0,0,81.62,106a1.78,1.78,0,0,0-1.95-1.92c-1.06.12-1.69,1-1.64,2.36a2.19,2.19,0,0,0,.61,1.61,1.53,1.53,0,0,0,1.19.36"/><path class="cls-5" d="M90.14,107a1.39,1.39,0,0,0,.35-.68l2.12.38a4,4,0,0,1-.75,1.4,4.16,4.16,0,0,1-2.82,1.4,3.46,3.46,0,0,1-2.84-.77,4.57,4.57,0,0,1,2.5-7.59,3.21,3.21,0,0,1,3.73,2.58,9.48,9.48,0,0,1,.24,1.65c0,.05,0,.12,0,.25l-5.45.6a1.43,1.43,0,0,0,1.7,1.4A1.84,1.84,0,0,0,90.14,107Zm-1.38-4a1.63,1.63,0,0,0-1.55,1.42l3.12-.34A1.32,1.32,0,0,0,88.76,103"/><path class="cls-5" d="M101.2,99.72c2.45-.27,4.05,1.17,4.14,3.69a4.26,4.26,0,0,1-3.87,4.66c-2.43.27-4-1.19-4.12-3.76A4.17,4.17,0,0,1,101.2,99.72Zm.22,6.42c1.06-.12,1.63-1,1.58-2.42s-.7-2.2-1.73-2.08-1.66,1-1.62,2.43.71,2.2,1.76,2.08"/><path class="cls-5" d="M110.1,96A5.92,5.92,0,0,1,112,96l-.31,1.91a2.21,2.21,0,0,0-1.21-.19c-.6.07-.81.35-.79,1v.32l.35,0a16,16,0,0,0,1.61-.27l.07,2.14a11.92,11.92,0,0,0-1.6.09l-.37,0,.13,3.88a15.23,15.23,0,0,0,.16,1.91l-2.51.28a16.15,16.15,0,0,0,0-1.93l-.13-3.88-.33,0a8.67,8.67,0,0,0-1.35.24l-.07-2.14a10,10,0,0,0,1.35-.06l.33,0,0-.6C107.24,97.06,108.13,96.18,110.1,96Z"/><path class="cls-5" d="M120.47,97.6c2.45-.27,4.05,1.17,4.14,3.69a4.26,4.26,0,0,1-3.86,4.66c-2.43.27-4-1.19-4.12-3.76A4.16,4.16,0,0,1,120.47,97.6Zm.22,6.42c1.06-.12,1.63-1,1.58-2.42s-.69-2.2-1.72-2.08-1.66,1-1.62,2.43.71,2.2,1.75,2.08"/><path class="cls-5" d="M133.08,96.5a14.55,14.55,0,0,0,0,1.92l.13,3.93a12.47,12.47,0,0,0,.17,1.9l-2.41.27,0-.55a2.5,2.5,0,0,1,0-.35,3.55,3.55,0,0,1-2.49,1.37,2.42,2.42,0,0,1-1.94-.5,2.64,2.64,0,0,1-.77-2.07l-.11-3.19a17.56,17.56,0,0,0-.16-1.9l2.51-.28a14.9,14.9,0,0,0,0,1.92l.09,2.61c0,.52.07.74.23.93a.86.86,0,0,0,.8.27,2.54,2.54,0,0,0,1.77-1.51l-.09-2.61a17.42,17.42,0,0,0-.16-1.9Z"/><path class="cls-5" d="M139.17,95.68a4.77,4.77,0,0,1,1.2,0l-.51,2.36a3.63,3.63,0,0,0-1.24-.1,1.87,1.87,0,0,0-1.42.85,2.05,2.05,0,0,0-.32,1.17l.07,2a15.48,15.48,0,0,0,.16,1.89l-2.51.28a14.52,14.52,0,0,0,0-1.93l-.13-3.92a12.52,12.52,0,0,0-.17-1.91l2.41-.27,0,1A3,3,0,0,1,139.17,95.68Z"/><path class="cls-5" d="M144.37,95a3.38,3.38,0,0,1,2.6.53,2.43,2.43,0,0,1,.84,1.37l-2.32.52c-.08-.51-.39-.71-1-.64s-1,.33-1,.66.27.45,1.48.59a6.82,6.82,0,0,1,2,.4,1.84,1.84,0,0,1,1.23,1.82,2.57,2.57,0,0,1-.56,1.76,4.2,4.2,0,0,1-2.83,1.24c-1.53.17-2.62-.14-3.23-.92a2.88,2.88,0,0,1-.53-1.22l2.39-.54c.14.65.57.89,1.37.8s1.13-.35,1.12-.73a.46.46,0,0,0-.28-.43,2.72,2.72,0,0,0-1-.19,12.18,12.18,0,0,1-1.81-.26,2.1,2.1,0,0,1-1.24-.77,2.38,2.38,0,0,1-.34-1.17C141.16,96.27,142.35,95.21,144.37,95Z"/><path class="cls-5" d="M154,99.92a1.45,1.45,0,0,0,.34-.68l2.12.38a4,4,0,0,1-.75,1.4,4.16,4.16,0,0,1-2.82,1.4,3.46,3.46,0,0,1-2.84-.77,4.57,4.57,0,0,1,2.5-7.59,3.21,3.21,0,0,1,3.73,2.58,9.5,9.5,0,0,1,.24,1.65c0,.05,0,.12,0,.25l-5.45.6a1.44,1.44,0,0,0,1.7,1.4A1.88,1.88,0,0,0,154,99.92Zm-1.39-4a1.61,1.61,0,0,0-1.54,1.42l3.11-.34a1.31,1.31,0,0,0-1.57-1.07"/><path class="cls-5" d="M159.78,90.72a13.15,13.15,0,0,0,0,1.93L160,99.4a15.12,15.12,0,0,0,.17,1.91l-2.53.28a14.67,14.67,0,0,0,0-1.93l-.23-6.74a13.5,13.5,0,0,0-.16-1.91Z"/><path class="cls-5" d="M169,92.54c-.22.6-.31.86-.45,1.29l-1.84,5.69a5.56,5.56,0,0,0-.29,1.1l-2.66.29a4.9,4.9,0,0,0-.36-1l-2.21-5.24-.55-1.18,2.69-.3a4.82,4.82,0,0,0,.26,1.07l1.26,3.84.06.14c0,.12,0,.13.11.34,0-.12,0-.18.05-.24l0-.13,0-.16,1-4.07a6.33,6.33,0,0,0,.2-1.12Z"/><path class="cls-5" d="M174.65,97.64A1.39,1.39,0,0,0,175,97l2.12.38a4,4,0,0,1-.75,1.4,4.16,4.16,0,0,1-2.82,1.4,3.46,3.46,0,0,1-2.84-.77,4.11,4.11,0,0,1-1.21-3,4.16,4.16,0,0,1,3.7-4.61,3.22,3.22,0,0,1,3.74,2.58,9.66,9.66,0,0,1,.23,1.65,1.79,1.79,0,0,0,0,.25l-5.45.6a1.43,1.43,0,0,0,1.7,1.4A1.85,1.85,0,0,0,174.65,97.64Zm-1.39-4a1.62,1.62,0,0,0-1.54,1.42l3.11-.34a1.31,1.31,0,0,0-1.57-1.07"/><path class="cls-5" d="M181.28,90.92a3.42,3.42,0,0,1,2.61.53,2.47,2.47,0,0,1,.83,1.37l-2.32.52c-.08-.51-.39-.71-1-.64s-1,.33-1,.66.27.45,1.48.59a6.82,6.82,0,0,1,2,.4,1.84,1.84,0,0,1,1.23,1.82,2.57,2.57,0,0,1-.56,1.76,4.18,4.18,0,0,1-2.83,1.24c-1.53.17-2.62-.14-3.23-.92a2.88,2.88,0,0,1-.53-1.22l2.39-.54c.15.65.57.89,1.38.8s1.12-.35,1.11-.73a.47.47,0,0,0-.28-.43,2.79,2.79,0,0,0-1-.19,12.19,12.19,0,0,1-1.81-.26,2.1,2.1,0,0,1-1.24-.77,2.38,2.38,0,0,1-.34-1.17C178.07,92.2,179.26,91.14,181.28,90.92Z"/><path class="cls-5" d="M193.22,87.85a16.14,16.14,0,0,0,0,1.76v.26l.44,0a7.78,7.78,0,0,0,1.18-.19l.07,2.12a7.14,7.14,0,0,0-1.12,0l-.5.06.11,3.26c0,.35.08.53.24.62a.91.91,0,0,0,.56.08,1.68,1.68,0,0,0,.84-.32l.25,1.92a5.25,5.25,0,0,1-1.66.44,2.69,2.69,0,0,1-1.8-.25,1.72,1.72,0,0,1-.69-1.6L191,92.1l-.46.05a6.88,6.88,0,0,0-1,.19l-.07-2.13a6.67,6.67,0,0,0,1.08,0l.44,0v-.26a14.6,14.6,0,0,0-.15-1.74Z"/><path class="cls-5" d="M199.43,88.89c2.45-.27,4.05,1.17,4.14,3.69a4.26,4.26,0,0,1-3.86,4.66c-2.44.27-4-1.19-4.13-3.76A4.17,4.17,0,0,1,199.43,88.89Zm.22,6.42c1.06-.12,1.63-1,1.58-2.42s-.7-2.2-1.72-2.08-1.67,1-1.63,2.43.71,2.2,1.76,2.08"/><path class="cls-5" d="M211.71,85.81a16.05,16.05,0,0,0,0,1.76v.26l.44,0a7.9,7.9,0,0,0,1.19-.19l.07,2.12a7.14,7.14,0,0,0-1.12,0l-.51.06.11,3.26c0,.35.09.53.24.62a.92.92,0,0,0,.57.08,1.7,1.7,0,0,0,.84-.32l.25,1.92a5.3,5.3,0,0,1-1.67.44,2.66,2.66,0,0,1-1.79-.25c-.47-.32-.66-.73-.69-1.6l-.13-3.9-.46.05a7,7,0,0,0-1.05.2l-.07-2.13a6.7,6.7,0,0,0,1.08,0l.44,0v-.26a13,13,0,0,0-.16-1.73Z"/><path class="cls-5" d="M216.66,84.45a13.07,13.07,0,0,0,0,1.93l0,1.35c0,.1,0,.3,0,.42a3.56,3.56,0,0,1,2.48-1.33,2.43,2.43,0,0,1,2,.5,2.65,2.65,0,0,1,.76,2.07l.11,3.2a15.3,15.3,0,0,0,.17,1.89l-2.52.28a14.78,14.78,0,0,0,0-1.93l-.09-2.61a1.48,1.48,0,0,0-.23-.93.86.86,0,0,0-.79-.26,2.5,2.5,0,0,0-1.78,1.52l.09,2.58A15.4,15.4,0,0,0,217,95l-2.51.28a16.25,16.25,0,0,0,0-1.93l-.23-6.74a13.92,13.92,0,0,0-.16-1.91Z"/><path class="cls-5" d="M225.63,88.22l.13,3.92a16.36,16.36,0,0,0,.17,1.91l-2.53.28a16.32,16.32,0,0,0,0-1.93l-.13-3.92a15.29,15.29,0,0,0-.16-1.91l2.53-.28A12.94,12.94,0,0,0,225.63,88.22Z"/><polygon class="cls-5" points="225.52 83.47 225.59 85.38 223.13 85.65 223.07 83.75 225.52 83.47"/><path class="cls-5" d="M231.82,85.42a2.45,2.45,0,0,1,2,.5,2.65,2.65,0,0,1,.76,2.07l.11,3.2a17.15,17.15,0,0,0,.17,1.89l-2.52.28a14.78,14.78,0,0,0,0-1.93l-.09-2.61a1.46,1.46,0,0,0-.22-.92.86.86,0,0,0-.82-.26,2.43,2.43,0,0,0-1.76,1.53l.09,2.57a15.4,15.4,0,0,0,.17,1.91l-2.51.28a16.25,16.25,0,0,0,0-1.93l-.13-3.92a14.17,14.17,0,0,0-.16-1.91l2.41-.27,0,.54c0,.08,0,.27,0,.35A3.57,3.57,0,0,1,231.82,85.42Z"/><path class="cls-5" d="M238.19,82.08a14.76,14.76,0,0,0,0,1.93l.12,3.58L239.57,86a8.35,8.35,0,0,0,1-1.4l3.22-.35c-.45.48-.59.64-1.22,1.39l-1.7,2L243,90.54A16.79,16.79,0,0,0,244.18,92l-3.08.34a9.16,9.16,0,0,0-.86-1.61l-1-1.48-.87,1,0,.5a9.62,9.62,0,0,0,.16,1.85l-2.47.27a13.81,13.81,0,0,0,0-1.93l-.23-6.74a14.89,14.89,0,0,0-.17-1.91Z"/><path class="cls-5" d="M252.64,80.25a5.83,5.83,0,0,1,1.84.07l-.31,1.91A2.21,2.21,0,0,0,253,82c-.6.07-.82.35-.8,1v.32l.35,0a16,16,0,0,0,1.61-.27l.07,2.14a11.92,11.92,0,0,0-1.6.09l-.38,0,.13,3.88a13.59,13.59,0,0,0,.17,1.91L250,91.4a16.15,16.15,0,0,0,0-1.93l-.13-3.88-.33,0a8.79,8.79,0,0,0-1.35.24l-.07-2.14a10.19,10.19,0,0,0,1.36-.06l.33,0,0-.6C249.78,81.35,250.66,80.47,252.64,80.25Z"/><path class="cls-5" d="M259,82.33c2.45-.27,4.05,1.17,4.14,3.69a4.26,4.26,0,0,1-3.86,4.66c-2.44.27-4-1.19-4.12-3.76A4.16,4.16,0,0,1,259,82.33Zm.22,6.42c1.06-.12,1.63-1,1.58-2.42s-.7-2.2-1.72-2.08-1.67,1-1.63,2.43.71,2.2,1.76,2.08"/><path class="cls-5" d="M268.78,81.39a4.77,4.77,0,0,1,1.2,0l-.5,2.36a3.7,3.7,0,0,0-1.24-.1,1.87,1.87,0,0,0-1.42.85,2,2,0,0,0-.33,1.17l.07,2a13.85,13.85,0,0,0,.17,1.89l-2.51.28a14.64,14.64,0,0,0,0-1.93L264.12,84a12.75,12.75,0,0,0-.16-1.91l2.41-.27,0,1A3,3,0,0,1,268.78,81.39Z"/><path class="cls-5" d="M282.36,80a16.34,16.34,0,0,0,0,1.92l.13,3.93a14,14,0,0,0,.16,1.9l-2.41.27,0-.55c0-.07,0-.26,0-.34a3.52,3.52,0,0,1-2.48,1.37,2.46,2.46,0,0,1-2-.5A2.67,2.67,0,0,1,275,86l-.11-3.19a15.45,15.45,0,0,0-.17-1.9l2.52-.28a14.85,14.85,0,0,0,0,1.92l.09,2.61a1.45,1.45,0,0,0,.23.93.87.87,0,0,0,.8.27,2.54,2.54,0,0,0,1.77-1.51L280,82.22a15.44,15.44,0,0,0-.17-1.9Z"/><path class="cls-5" d="M286.91,79.27a3.4,3.4,0,0,1,2.6.53,2.43,2.43,0,0,1,.84,1.37l-2.33.52c-.08-.51-.39-.71-1-.64s-1,.33-1,.66.27.45,1.48.59a6.92,6.92,0,0,1,2,.4,1.84,1.84,0,0,1,1.23,1.82,2.57,2.57,0,0,1-.56,1.76,4.2,4.2,0,0,1-2.83,1.24c-1.53.17-2.62-.14-3.23-.92a2.77,2.77,0,0,1-.53-1.22l2.39-.54c.14.65.56.89,1.37.8s1.13-.35,1.12-.73a.48.48,0,0,0-.28-.43,2.72,2.72,0,0,0-1-.19,12.18,12.18,0,0,1-1.81-.26,2.1,2.1,0,0,1-1.24-.77,2.29,2.29,0,0,1-.34-1.17C283.7,80.56,284.88,79.5,286.91,79.27Z"/><polygon class="cls-5" points="294.15 83.96 294.24 86.53 291.79 86.8 291.7 84.23 294.15 83.96"/></g></g></svg>