<svg xmlns="http://www.w3.org/2000/svg" viewBox="0 0 38.74 42.78"><defs><style>.cls-1{isolation:isolate;}.cls-2{fill:#3b154a;}.cls-3{fill:#522466;}.cls-4{fill:#652b7e;}.cls-5{fill:#fff;}</style></defs><title>home</title><g id="Layer_2" data-name="Layer 2"><g id="Layer_1-2" data-name="Layer 1"><g class="cls-1"><polygon class="cls-2" points="37.55 37.2 31.04 33.66 31.1 1.38 37.6 4.91 37.55 37.2"/><polygon class="cls-3" points="7.63 41.4 1.13 37.86 31.04 33.66 37.55 37.2 7.63 41.4"/><polygon class="cls-3" points="7.7 9.12 1.19 5.58 31.1 1.38 37.6 4.91 7.7 9.12"/><polygon class="cls-4" points="37.6 4.91 37.55 37.2 7.63 41.4 7.7 9.12 37.6 4.91"/><polygon class="cls-2" points="7.63 41.4 1.13 37.86 1.19 5.58 7.7 9.12 7.63 41.4"/><polygon class="cls-2" points="6.5 42.77 0 39.24 0.06 4.52 6.57 8.06 6.5 42.77"/><polygon class="cls-3" points="6.57 8.06 0.06 4.52 32.23 0 38.73 3.54 6.57 8.06"/><path class="cls-4" d="M6.57,8.06,38.74,3.54l-.06,34.72L6.5,42.78Zm31,29.14.06-32.28L7.7,9.12,7.64,41.4l29.91-4.2"/></g><path class="cls-5" d="M11.3,22.35l2.47-2,2.69-2.15,2.1-1.67,2.09-1.68,1.81-1.45a.19.19,0,0,1,.29,0l2.64,2.12L27.17,17c.05-.06,0-.13,0-.19,0-.73,0-1.47,0-2.2,0-.14,0-.17.17-.17h2.11c.14,0,.18,0,.18.17,0,1.38,0,2.77,0,4.15a.39.39,0,0,0,.16.35L32.22,21l1.69,1.36H31c-.15,0-.19,0-.19.19q0,4.7,0,9.41c0,.24,0,.24-.23.24H25.73c-.15,0-.21,0-.21-.2,0-2,0-4.09,0-6.14,0-.18,0-.22-.22-.22H19.89c-.17,0-.21,0-.21.21,0,2.05,0,4.11,0,6.16,0,.15,0,.19-.18.19H14.61c-.18,0-.2-.06-.2-.21q0-4.7,0-9.41c0-.17,0-.22-.22-.22H11.3Z"/></g></g></svg>