<svg xmlns="http://www.w3.org/2000/svg" viewBox="0 0 317.93 113.77"><defs><style>.cls-1{isolation:isolate;}.cls-2{fill:#09753a;}.cls-3{fill:#005627;}.cls-4{fill:#006732;}.cls-5{fill:#fff;}</style></defs><title>individual</title><g id="Layer_2" data-name="Layer 2"><g id="Layer_1-2" data-name="Layer 1"><g class="cls-1"><polygon class="cls-2" points="0 5.15 0.18 80.95 305.56 113.77 305.38 37.97 0 5.15"/><polygon class="cls-3" points="305.56 113.77 317.93 108.63 317.75 32.82 305.38 37.97 305.56 113.77"/><polygon class="cls-4" points="305.38 37.97 317.75 32.82 12.37 0 0 5.15 305.38 37.97"/></g><path class="cls-5" d="M36.72,25.9l-.16,2.45a16.46,16.46,0,0,0-1.95-.29l-1.42-.15-.43,6.46a14.4,14.4,0,0,0,0,1.95L30,36a15.56,15.56,0,0,0,.22-1.92l.43-6.46-1.48-.16a16,16,0,0,0-1.9-.11l.16-2.45a16.54,16.54,0,0,0,1.86.28l5.5.58A16.77,16.77,0,0,0,36.72,25.9Z"/><path class="cls-5" d="M40.16,26.35a12.92,12.92,0,0,0-.22,1.92l-.09,1.36c0,.11,0,.31,0,.42a3.33,3.33,0,0,1,2.68-.79,2.81,2.81,0,0,1,1.95.93A2.9,2.9,0,0,1,45,32.43l-.21,3.21a17.51,17.51,0,0,0,0,1.94l-2.61-.27a15.94,15.94,0,0,0,.22-1.92l.17-2.63a1.61,1.61,0,0,0-.14-1,1,1,0,0,0-.78-.43,2.21,2.21,0,0,0-2,1.14l-.17,2.6a15.5,15.5,0,0,0,0,1.95l-2.6-.27a14.05,14.05,0,0,0,.23-1.92l.45-6.8a12.59,12.59,0,0,0,0-1.95Z"/><path class="cls-5" d="M51.15,36.16a1.14,1.14,0,0,0,.42-.62l2.15.86a3.64,3.64,0,0,1-.92,1.23,3.91,3.91,0,0,1-3,.78A4.08,4.08,0,0,1,46.92,37,4.61,4.61,0,0,1,46,33.77c.17-2.54,1.87-4,4.27-3.8a3.81,3.81,0,0,1,3.56,3.4,9,9,0,0,1,.08,1.7,1.7,1.7,0,0,0,0,.26l-5.65-.59a1.67,1.67,0,0,0,1.6,1.77A1.75,1.75,0,0,0,51.15,36.16Zm-1-4.28A1.46,1.46,0,0,0,48.41,33l3.22.34a1.55,1.55,0,0,0-1.5-1.43"/><path class="cls-5" d="M64.47,31.58a2.86,2.86,0,0,1,2,.93A2.9,2.9,0,0,1,67,34.75L66.8,38a17.51,17.51,0,0,0,0,1.94l-2.61-.27a16,16,0,0,0,.22-1.92l.17-2.63a1.53,1.53,0,0,0-.14-1,1,1,0,0,0-.8-.45,2.18,2.18,0,0,0-2,1.15l-.17,2.59a15.5,15.5,0,0,0,0,1.95l-2.6-.27a14.05,14.05,0,0,0,.23-1.92l.26-3.95a12.59,12.59,0,0,0,0-1.95l2.5.26,0,.54c0,.07,0,.26,0,.35A3.31,3.31,0,0,1,64.47,31.58Z"/><g class="cls-1"><path class="cls-5" d="M72.43,32.32a4.07,4.07,0,0,1,3.87,4.6,3.8,3.8,0,0,1-4.43,3.81A4.09,4.09,0,0,1,68,36.07,3.73,3.73,0,0,1,72.43,32.32ZM72,38.78c1.09.11,1.78-.65,1.87-2.08s-.48-2.35-1.55-2.46-1.81.67-1.9,2.08.5,2.35,1.59,2.46"/><path class="cls-5" d="M81.15,31.49a15.53,15.53,0,0,0-.21,1.75l0,.27.45,0a9.46,9.46,0,0,0,1.23.07l-.14,2.12a9.23,9.23,0,0,0-1.15-.19l-.52-.05-.22,3.28c0,.36,0,.54.18.67a1.12,1.12,0,0,0,.56.2,1.64,1.64,0,0,0,.89-.14l.06,2a5.28,5.28,0,0,1-1.75.08,3.08,3.08,0,0,1-1.82-.65,1.89,1.89,0,0,1-.54-1.75l.26-3.92-.48-.05a8.49,8.49,0,0,0-1.09,0L77,33a7.25,7.25,0,0,0,1.11.2l.45,0,0-.27a14.38,14.38,0,0,0,0-1.77Z"/></g><path class="cls-5" d="M86,36l-.26,3.95a18.41,18.41,0,0,0,0,1.95l-2.62-.28a14.2,14.2,0,0,0,.22-1.92l.26-3.95a13.76,13.76,0,0,0,0-1.95l2.62.28A12.45,12.45,0,0,0,86,36Z"/><polygon class="cls-5" points="86.35 31.21 86.22 33.13 83.67 32.87 83.8 30.94 86.35 31.21"/><path class="cls-5" d="M91.36,34.31a4.07,4.07,0,0,1,3.87,4.6,3.8,3.8,0,0,1-4.43,3.81,4.09,4.09,0,0,1-3.85-4.65A3.73,3.73,0,0,1,91.36,34.31Zm-.43,6.46c1.09.12,1.78-.65,1.87-2.08s-.49-2.35-1.56-2.46-1.81.67-1.91,2.08.5,2.35,1.59,2.46"/><path class="cls-5" d="M101.57,35.48a2.63,2.63,0,0,1,2.54,3.16l-.21,3.21a15.43,15.43,0,0,0,0,1.94l-2.61-.27a14.26,14.26,0,0,0,.23-1.92l.17-2.63a1.53,1.53,0,0,0-.14-1,1,1,0,0,0-.81-.45,2.18,2.18,0,0,0-2,1.15l-.17,2.59a15.47,15.47,0,0,0,0,1.95L96,43A15.75,15.75,0,0,0,96.2,41l.26-3.95a14.05,14.05,0,0,0,0-1.95l2.49.26,0,.54c0,.07,0,.27,0,.35A3.3,3.3,0,0,1,101.57,35.48Z"/><path class="cls-5" d="M113.46,34.89a15.53,15.53,0,0,0-.21,1.75l0,.27.45,0a9.55,9.55,0,0,0,1.23.07l-.14,2.12a9.23,9.23,0,0,0-1.15-.19l-.52-.05-.22,3.28c0,.36,0,.54.18.67a1.09,1.09,0,0,0,.56.2,1.64,1.64,0,0,0,.89-.14l.06,2a5.34,5.34,0,0,1-1.75.07,3.05,3.05,0,0,1-1.81-.65,1.89,1.89,0,0,1-.54-1.75l.26-3.92-.48-.05a8.63,8.63,0,0,0-1.1,0l.14-2.14a7.29,7.29,0,0,0,1.11.2l.45,0,0-.27a12.81,12.81,0,0,0,0-1.77Z"/><path class="cls-5" d="M118.68,34.61a12.72,12.72,0,0,0-.23,1.92l-.09,1.36c0,.11,0,.31,0,.43a3.3,3.3,0,0,1,2.68-.79,2.84,2.84,0,0,1,1.95.93,2.9,2.9,0,0,1,.57,2.23l-.21,3.21a17.31,17.31,0,0,0,0,1.94l-2.61-.27a14.22,14.22,0,0,0,.23-1.92l.17-2.63a1.61,1.61,0,0,0-.14-1,1,1,0,0,0-.78-.43,2.23,2.23,0,0,0-2,1.14l-.17,2.6a15.47,15.47,0,0,0,0,1.95l-2.6-.27a15.76,15.76,0,0,0,.22-1.92l.45-6.8a14.06,14.06,0,0,0,0-1.95Z"/><path class="cls-5" d="M132,46.75l-2.43-.26,0-.59a3.51,3.51,0,0,1-2.48.51,3.17,3.17,0,0,1-2.12-.93,2.43,2.43,0,0,1-.57-1.82,2.09,2.09,0,0,1,1-1.78,5,5,0,0,1,2.67-.55c.49,0,.86,0,1.77.09l0-.29c0-.61-.31-.93-1.13-1s-1.25.14-1.48.75L125,40.21a2.59,2.59,0,0,1,1.15-1.43,4.64,4.64,0,0,1,2.87-.44,5.53,5.53,0,0,1,2.29.7,2.42,2.42,0,0,1,1,2.43l-.23,3.46A15.71,15.71,0,0,0,132,46.75Zm-2.75-2.38a1.26,1.26,0,0,0,.52-.94l0-.36a7.28,7.28,0,0,0-2.19,0,.9.9,0,0,0-.78.78c0,.46.32.77,1,.84a2.24,2.24,0,0,0,1.45-.34"/><path class="cls-5" d="M137.48,37.41a15.42,15.42,0,0,0-.22,1.75l0,.27.45,0a9.61,9.61,0,0,0,1.24.07l-.14,2.12a9.34,9.34,0,0,0-1.15-.19l-.53-.06-.22,3.28c0,.36,0,.54.18.67a1.13,1.13,0,0,0,.57.2,1.66,1.66,0,0,0,.89-.14l.06,2a5.37,5.37,0,0,1-1.75.07,3.05,3.05,0,0,1-1.81-.65,1.89,1.89,0,0,1-.54-1.75l.26-3.92-.48-.05a8.63,8.63,0,0,0-1.1,0l.14-2.14a7.29,7.29,0,0,0,1.11.2l.45,0,0-.27a12.81,12.81,0,0,0,0-1.77Z"/><path class="cls-5" d="M151.72,41.71a4.31,4.31,0,0,1,.8,3.1,4.16,4.16,0,0,1-1.29,3,3.45,3.45,0,0,1-2.66.74A4.61,4.61,0,0,1,146.9,48a3.12,3.12,0,0,1-.82-.69c0,.12,0,.28,0,.46l-.06.89a13.17,13.17,0,0,0,0,1.87l-2.58-.27a15.12,15.12,0,0,0,.23-1.85l.42-6.26a15.61,15.61,0,0,0,0-2l2.48.26,0,.44,0,.24a3.57,3.57,0,0,1,2.63-.64A3.76,3.76,0,0,1,151.72,41.71Zm-2.31,4.47a2.21,2.21,0,0,0,.67-1.6,1.88,1.88,0,0,0-1.72-2.26,1.92,1.92,0,0,0-2,1.9,2.1,2.1,0,0,0,1.83,2.32,1.65,1.65,0,0,0,1.26-.36"/><path class="cls-5" d="M158.35,47.43a1.25,1.25,0,0,0,.42-.62l2.14.86a3.65,3.65,0,0,1-.91,1.24,3.92,3.92,0,0,1-3,.78,4,4,0,0,1-2.84-1.4,4.61,4.61,0,0,1-.94-3.25c.17-2.54,1.88-4,4.28-3.8a3.81,3.81,0,0,1,3.56,3.4,9.78,9.78,0,0,1,.08,1.7c0,.05,0,.13,0,.26L155.45,46a1.68,1.68,0,0,0,1.61,1.77A1.76,1.76,0,0,0,158.35,47.43Zm-1-4.28a1.46,1.46,0,0,0-1.73,1.09l3.22.34a1.55,1.55,0,0,0-1.5-1.43"/><path class="cls-5" d="M166.24,42.18a4.07,4.07,0,0,1,3.87,4.6,3.8,3.8,0,0,1-4.44,3.81,4.09,4.09,0,0,1-3.84-4.65A3.73,3.73,0,0,1,166.24,42.18Zm-.43,6.46c1.09.11,1.78-.65,1.87-2.08s-.49-2.35-1.56-2.46-1.81.67-1.9,2.08.5,2.35,1.59,2.46"/><path class="cls-5" d="M179,44.58a4.28,4.28,0,0,1,.81,3.1,4.16,4.16,0,0,1-1.3,3,3.45,3.45,0,0,1-2.66.74,4.61,4.61,0,0,1-1.67-.51,3.12,3.12,0,0,1-.82-.69c0,.12,0,.28,0,.46l-.06.89a13.21,13.21,0,0,0,0,1.87l-2.57-.27a17.21,17.21,0,0,0,.22-1.85l.42-6.26a17.49,17.49,0,0,0,0-2l2.47.26,0,.44,0,.24a3.57,3.57,0,0,1,2.63-.64A3.76,3.76,0,0,1,179,44.58ZM176.7,49a2.21,2.21,0,0,0,.67-1.6,1.88,1.88,0,0,0-1.72-2.26,1.92,1.92,0,0,0-2,1.9,2.1,2.1,0,0,0,1.83,2.32A1.65,1.65,0,0,0,176.7,49"/><path class="cls-5" d="M183.88,41.46a12.8,12.8,0,0,0-.23,1.92l-.45,6.8a15.19,15.19,0,0,0,0,1.95l-2.62-.28a12.65,12.65,0,0,0,.23-1.92l.45-6.8a12.23,12.23,0,0,0,0-1.95Z"/><path class="cls-5" d="M189.58,50.71a1.14,1.14,0,0,0,.42-.62l2.15.86a3.65,3.65,0,0,1-.91,1.24,3.92,3.92,0,0,1-3,.78,4,4,0,0,1-2.84-1.4,4.57,4.57,0,0,1-.94-3.25c.17-2.54,1.88-4,4.27-3.8a3.82,3.82,0,0,1,3.57,3.4,10,10,0,0,1,.07,1.7,1.7,1.7,0,0,0,0,.26l-5.65-.59a1.67,1.67,0,0,0,1.6,1.77A1.73,1.73,0,0,0,189.58,50.71Zm-1-4.28a1.47,1.47,0,0,0-1.73,1.09l3.22.34a1.55,1.55,0,0,0-1.5-1.43"/><path class="cls-5" d="M201.24,45.88a3.92,3.92,0,0,1,2.61,1.1,2.8,2.8,0,0,1,.72,1.55h-2.43c0-.53-.33-.79-1-.87s-1.06.1-1.09.44.23.5,1.45.91a7.7,7.7,0,0,1,2,.83,2.12,2.12,0,0,1,1.08,2.09,2.31,2.31,0,0,1-.76,1.65,5.1,5.1,0,0,1-6.25-1,3.26,3.26,0,0,1-.42-1.34l2.5,0c.09.68.49,1,1.33,1.11s1.2-.1,1.22-.5a.55.55,0,0,0-.25-.49,3.53,3.53,0,0,0-1-.4,15.51,15.51,0,0,1-1.83-.66,2.55,2.55,0,0,1-1.19-1,2.58,2.58,0,0,1-.23-1.26C197.81,46.46,199.14,45.66,201.24,45.88Z"/><path class="cls-5" d="M208.81,44.08a12.72,12.72,0,0,0-.23,1.92l-.09,1.36c0,.11,0,.31,0,.43a3.33,3.33,0,0,1,2.68-.79,2.81,2.81,0,0,1,1.95.93,2.9,2.9,0,0,1,.57,2.23l-.21,3.21a17.31,17.31,0,0,0,0,1.94L210.8,55a15.94,15.94,0,0,0,.22-1.92l.17-2.63a1.61,1.61,0,0,0-.14-1,1,1,0,0,0-.78-.43,2.23,2.23,0,0,0-2,1.14l-.17,2.6a15.47,15.47,0,0,0,0,1.95l-2.6-.27a14.05,14.05,0,0,0,.23-1.92l.45-6.8a12.59,12.59,0,0,0,0-1.95Z"/><path class="cls-5" d="M219.06,47.73a4.07,4.07,0,0,1,3.87,4.6,3.8,3.8,0,0,1-4.43,3.81,4.09,4.09,0,0,1-3.84-4.65A3.73,3.73,0,0,1,219.06,47.73Zm-.43,6.46c1.09.12,1.78-.65,1.87-2.08s-.48-2.35-1.55-2.46-1.81.67-1.9,2.08.5,2.35,1.59,2.46"/><path class="cls-5" d="M232.09,49.4a13.92,13.92,0,0,0-.23,1.92l-.26,4a12.47,12.47,0,0,0,0,1.94l-2.5-.26,0-.56a2.53,2.53,0,0,1,0-.34,3.3,3.3,0,0,1-2.69.83,2.87,2.87,0,0,1-1.95-.93,2.94,2.94,0,0,1-.57-2.23l.21-3.21a17.51,17.51,0,0,0,0-1.94l2.61.27a14.17,14.17,0,0,0-.23,1.92l-.17,2.63a1.47,1.47,0,0,0,.14,1,1,1,0,0,0,.78.44,2.26,2.26,0,0,0,2-1.12l.17-2.63a17.31,17.31,0,0,0,0-1.94Z"/><path class="cls-5" d="M236.22,47a13,13,0,0,0-.22,1.92l-.45,6.8a15.29,15.29,0,0,0,0,1.95l-2.62-.28a12.64,12.64,0,0,0,.23-1.92l.45-6.8a12.23,12.23,0,0,0,0-1.95Z"/><path class="cls-5" d="M245.63,50l-.44,6.64a15.05,15.05,0,0,0,0,2l-2.48-.26,0-.41a1.75,1.75,0,0,1,0-.28,3.4,3.4,0,0,1-2.6.66c-2.28-.24-3.56-1.95-3.39-4.54a4.25,4.25,0,0,1,1.28-3,3.36,3.36,0,0,1,2.62-.73,3.85,3.85,0,0,1,2.51,1.22,4.76,4.76,0,0,1,0-.49l.07-1.07a15.9,15.9,0,0,0,0-2l2.57.27A14.06,14.06,0,0,0,245.63,50Zm-4.79,6.47a1.94,1.94,0,0,0,2.08-2,2.07,2.07,0,0,0-1.79-2.34c-1.09-.12-1.84.65-1.93,2a2.43,2.43,0,0,0,.47,1.76,1.8,1.8,0,0,0,1.18.62"/><path class="cls-5" d="M256.22,51.7c2.28.24,3.51,1.86,3.35,4.4a4.47,4.47,0,0,1-1.34,3.14,3.36,3.36,0,0,1-2.67.73,3.47,3.47,0,0,1-2.41-1.17v.28l0,.41-2.46-.26a16.46,16.46,0,0,0,.23-2l.44-6.64a16,16,0,0,0,0-2l2.54.27a18,18,0,0,0-.22,2l-.07,1.07a4.39,4.39,0,0,1,0,.49A3.52,3.52,0,0,1,256.22,51.7ZM255.15,58c1.09.12,1.88-.72,2-2.08s-.53-2.17-1.63-2.29a1.9,1.9,0,0,0-2.1,1.94A2.15,2.15,0,0,0,255.15,58"/><path class="cls-5" d="M265.39,58.68a1.14,1.14,0,0,0,.42-.62l2.15.86a3.65,3.65,0,0,1-.92,1.23,3.91,3.91,0,0,1-3,.78,4.08,4.08,0,0,1-2.84-1.4,4.61,4.61,0,0,1-.93-3.25c.17-2.54,1.87-4,4.27-3.8a3.82,3.82,0,0,1,3.57,3.4,10,10,0,0,1,.07,1.7,1.68,1.68,0,0,0,0,.26l-5.65-.59a1.67,1.67,0,0,0,1.6,1.77A1.75,1.75,0,0,0,265.39,58.68Zm-1-4.28a1.46,1.46,0,0,0-1.73,1.09l3.22.34a1.55,1.55,0,0,0-1.5-1.43"/><path class="cls-5" d="M280.57,62.37l-2.44-.26,0-.59a3.5,3.5,0,0,1-2.48.51,3.17,3.17,0,0,1-2.12-.93,2.43,2.43,0,0,1-.57-1.82,2.09,2.09,0,0,1,1-1.78A5,5,0,0,1,276.7,57c.49,0,.86,0,1.77.09l0-.29c0-.61-.3-.93-1.13-1s-1.24.14-1.48.75l-2.37-.65a2.63,2.63,0,0,1,1.15-1.43,4.64,4.64,0,0,1,2.87-.44,5.61,5.61,0,0,1,2.3.7,2.43,2.43,0,0,1,1,2.43l-.23,3.46A13.84,13.84,0,0,0,280.57,62.37ZM277.82,60a1.23,1.23,0,0,0,.52-.94l0-.36a7.28,7.28,0,0,0-2.19,0,.9.9,0,0,0-.78.78c0,.46.32.77,1,.84a2.24,2.24,0,0,0,1.45-.34"/><path class="cls-5" d="M11.68,41.42a3.64,3.64,0,0,1,3.5,3.06l-2.29.24a1.8,1.8,0,0,0-.3-.79,1.35,1.35,0,0,0-1-.56c-1-.11-1.68.65-1.77,2.06s.49,2.36,1.5,2.46a1.4,1.4,0,0,0,1.23-.44,1.25,1.25,0,0,0,.26-.56l2.29.61a3.8,3.8,0,0,1-.61,1.21,3.56,3.56,0,0,1-3.32,1.14,4.15,4.15,0,0,1-2.85-1.42,4.53,4.53,0,0,1-.92-3.23C7.54,42.63,9.23,41.16,11.68,41.42Z"/><path class="cls-5" d="M21,48.48a1.2,1.2,0,0,0,.42-.61l2.14.85A3.38,3.38,0,0,1,22.63,50a3.91,3.91,0,0,1-3,.78,4.06,4.06,0,0,1-2.84-1.4,4.57,4.57,0,0,1-.93-3.24c.17-2.54,1.87-4,4.27-3.8a3.8,3.8,0,0,1,3.56,3.4,8.89,8.89,0,0,1,.08,1.7c0,.05,0,.12,0,.26l-5.65-.59a1.68,1.68,0,0,0,1.61,1.77A1.75,1.75,0,0,0,21,48.48Zm-1-4.27a1.45,1.45,0,0,0-1.72,1.08l3.22.34A1.54,1.54,0,0,0,20,44.21"/><path class="cls-5" d="M30.05,43.5a5.21,5.21,0,0,1,1.23.28L30.53,46a4.12,4.12,0,0,0-1.26-.37,1.73,1.73,0,0,0-1.54.54,1.78,1.78,0,0,0-.46,1.1l-.13,2a13.79,13.79,0,0,0,0,1.93l-2.6-.27A14,14,0,0,0,24.75,49L25,45.07a12.51,12.51,0,0,0,0-1.95l2.49.26-.07,1A2.74,2.74,0,0,1,30.05,43.5Z"/><path class="cls-5" d="M45,53.1l-2.43-.26,0-.59a3.51,3.51,0,0,1-2.48.52A3.18,3.18,0,0,1,38,51.83,2.43,2.43,0,0,1,37.41,50a2.09,2.09,0,0,1,1-1.78,5,5,0,0,1,2.66-.56c.5,0,.87,0,1.78.1l0-.3c0-.61-.31-.93-1.13-1s-1.25.15-1.48.75l-2.37-.64a2.61,2.61,0,0,1,1.15-1.44A4.64,4.64,0,0,1,42,44.69a5.54,5.54,0,0,1,2.29.69,2.43,2.43,0,0,1,1,2.43L45,51.27A15.66,15.66,0,0,0,45,53.1Zm-2.75-2.38a1.26,1.26,0,0,0,.52-.94l0-.36a7.19,7.19,0,0,0-2.19,0,.9.9,0,0,0-.79.77c0,.46.33.77,1,.84a2.24,2.24,0,0,0,1.45-.34"/><path class="cls-5" d="M35.62,42.2a15.53,15.53,0,0,0-.21,1.75l0,.27.45,0a8.17,8.17,0,0,0,1.23.07l-.14,2.13a7.76,7.76,0,0,0-1.15-.2l-.52-.05L35,49.48c0,.36,0,.55.18.67a1,1,0,0,0,.56.2,1.64,1.64,0,0,0,.89-.14l.06,2a5.3,5.3,0,0,1-1.75.07,3.05,3.05,0,0,1-1.81-.65,1.89,1.89,0,0,1-.54-1.75L32.9,46l-.48-.05a7.23,7.23,0,0,0-1.1,0l.14-2.15a7.37,7.37,0,0,0,1.11.2L33,44l0-.27a14.57,14.57,0,0,0,0-1.77Z"/><path class="cls-5" d="M49.24,47.62,49,51.57a18.5,18.5,0,0,0,0,1.94l-2.62-.28a14,14,0,0,0,.23-1.92l.26-3.95a13.57,13.57,0,0,0,0-1.95l2.62.28A13.87,13.87,0,0,0,49.24,47.62Z"/><polygon class="cls-5" points="49.62 42.85 49.49 44.76 46.94 44.5 47.07 42.58 49.62 42.85"/><path class="cls-5" d="M55.88,46.17a2.84,2.84,0,0,1,2,.93,2.9,2.9,0,0,1,.58,2.23l-.21,3.22a17.34,17.34,0,0,0,0,1.93l-2.61-.27a14.34,14.34,0,0,0,.22-1.92L56,49.65a1.5,1.5,0,0,0-.14-1,1,1,0,0,0-.8-.44,2.16,2.16,0,0,0-2,1.14L52.9,52a17.36,17.36,0,0,0,0,1.95l-2.6-.27a14,14,0,0,0,.23-1.92l.26-3.95a12.67,12.67,0,0,0,0-1.95l2.5.26,0,.54c0,.07,0,.26,0,.35A3.34,3.34,0,0,1,55.88,46.17Z"/><path class="cls-5" d="M82.84,57.07l-2.43-.26,0-.59a3.51,3.51,0,0,1-2.48.52,3.18,3.18,0,0,1-2.12-.94A2.43,2.43,0,0,1,75.26,54a2.07,2.07,0,0,1,1-1.78A4.93,4.93,0,0,1,79,51.66c.5,0,.87,0,1.78.1l0-.3c0-.61-.31-.93-1.13-1s-1.25.15-1.48.75l-2.36-.64a2.57,2.57,0,0,1,1.15-1.44,4.64,4.64,0,0,1,2.87-.43,5.55,5.55,0,0,1,2.29.69,2.43,2.43,0,0,1,1,2.43l-.23,3.46A15.66,15.66,0,0,0,82.84,57.07Zm-2.75-2.38a1.26,1.26,0,0,0,.52-.94l0-.36a7.2,7.2,0,0,0-2.19,0,.9.9,0,0,0-.79.77c0,.46.33.77,1,.84a2.24,2.24,0,0,0,1.45-.34"/><path class="cls-5" d="M75.16,48.39c-.22.47-.45,1-.68,1.61l-1.72,4.5A11.44,11.44,0,0,0,72.29,56l-2.13-.22a12.09,12.09,0,0,0-.29-1.54l-.59-2.65c0-.22-.09-.39-.11-.51-.11.28-.11.31-.18.48L68.05,54a13,13,0,0,0-.49,1.46l-2.14-.22a15.07,15.07,0,0,0-.27-1.54l-1.1-4.8c-.11-.47-.25-1-.45-1.73l2.7.28A9,9,0,0,0,66.44,49l.39,2.35c0,.32.08.53.09.64.18-.49.18-.49.21-.6L68,49.12a14.43,14.43,0,0,0,.49-1.43l1.82.19a13.69,13.69,0,0,0,.28,1.51l.57,2.5c0,.09.07.38.11.55,0-.19,0-.19.15-.53l.68-2.22a10.93,10.93,0,0,0,.37-1.59Z"/><path class="cls-5" d="M92.86,50.25c-.37.63-.37.63-.87,1.64l-3.33,6.48a2.63,2.63,0,0,1-2.95,1.46,7.71,7.71,0,0,1-1.7-.4l.41-2a2,2,0,0,0,1,.38,1,1,0,0,0,1.06-.5l.31-.52-2-5.65c-.45-1.34-.49-1.46-.63-1.8l2.72.29a8.94,8.94,0,0,0,.39,1.7l.95,3.09,1.31-2.79A7.25,7.25,0,0,0,90.13,50Z"/><path class="cls-5" d="M101.61,50.88a4.07,4.07,0,0,1,3.87,4.6A3.81,3.81,0,0,1,101,59.29a4.09,4.09,0,0,1-3.84-4.66A3.73,3.73,0,0,1,101.61,50.88Zm-.43,6.46c1.09.11,1.78-.65,1.87-2.07s-.49-2.35-1.56-2.46-1.81.66-1.9,2.07.5,2.35,1.59,2.46"/><path class="cls-5" d="M111.76,52.09a5.26,5.26,0,0,1,1.23.28l-.75,2.24a4.16,4.16,0,0,0-1.27-.37,1.73,1.73,0,0,0-1.54.54,1.84,1.84,0,0,0-.45,1.1l-.13,2a13.8,13.8,0,0,0,0,1.93l-2.6-.27a15.66,15.66,0,0,0,.22-1.92l.26-3.95a14,14,0,0,0,0-1.95l2.49.26-.07,1A2.73,2.73,0,0,1,111.76,52.09Z"/><path class="cls-5" d="M121.76,53a4.07,4.07,0,0,1,3.86,4.6,3.8,3.8,0,0,1-4.43,3.82,4.09,4.09,0,0,1-3.84-4.66A3.73,3.73,0,0,1,121.76,53Zm-.43,6.46c1.09.11,1.78-.65,1.87-2.07s-.49-2.35-1.56-2.46-1.81.66-1.9,2.07.5,2.35,1.59,2.46"/><path class="cls-5" d="M132,54.17a2.84,2.84,0,0,1,2,.93,2.9,2.9,0,0,1,.58,2.23l-.21,3.22a17.33,17.33,0,0,0,0,1.93l-2.61-.27a14.34,14.34,0,0,0,.22-1.92l.17-2.63a1.49,1.49,0,0,0-.14-1,1,1,0,0,0-.8-.44,2.17,2.17,0,0,0-2,1.14L129,60a17.36,17.36,0,0,0,0,1.95l-2.6-.27a14,14,0,0,0,.23-1.92l.26-3.95a12.66,12.66,0,0,0,0-1.95l2.5.26,0,.54c0,.07,0,.26,0,.35A3.34,3.34,0,0,1,132,54.17Z"/><path class="cls-5" d="M138.9,52.23a14.14,14.14,0,0,0-.22,1.92l-.45,6.79a16.94,16.94,0,0,0,0,1.95l-2.61-.27a14.14,14.14,0,0,0,.22-1.92l.45-6.79a13.48,13.48,0,0,0,0-1.95Z"/><path class="cls-5" d="M148.2,56.07c-.36.63-.36.63-.86,1.64L144,64.19a2.63,2.63,0,0,1-2.95,1.46,7.71,7.71,0,0,1-1.7-.4l.4-2a2,2,0,0,0,1,.38,1,1,0,0,0,1.06-.5l.3-.52-2-5.65c-.45-1.34-.5-1.46-.63-1.8l2.72.29a8.79,8.79,0,0,0,.38,1.7l1,3.09,1.31-2.79a7.73,7.73,0,0,0,.65-1.65Z"/><path class="cls-5" d="M161.4,56.62,161,63.26a15,15,0,0,0,0,2L158.46,65l0-.41a1.75,1.75,0,0,1,0-.28,3.4,3.4,0,0,1-2.6.66c-2.28-.24-3.56-1.95-3.39-4.54a4.22,4.22,0,0,1,1.28-3,3.36,3.36,0,0,1,2.62-.73,3.86,3.86,0,0,1,2.51,1.22,4.76,4.76,0,0,1,0-.49l.07-1.07a15.56,15.56,0,0,0,0-2l2.57.27A14,14,0,0,0,161.4,56.62Zm-4.79,6.47a2,2,0,0,0,2.08-2,2.07,2.07,0,0,0-1.8-2.34c-1.09-.11-1.84.65-1.93,2a2.36,2.36,0,0,0,.47,1.75,1.76,1.76,0,0,0,1.18.62"/><path class="cls-5" d="M166.6,57.71a4.07,4.07,0,0,1,3.86,4.6A3.81,3.81,0,0,1,166,66.12a4.09,4.09,0,0,1-3.84-4.66A3.73,3.73,0,0,1,166.6,57.71Zm-.43,6.46c1.09.11,1.77-.65,1.86-2.07s-.48-2.35-1.55-2.46-1.81.66-1.9,2.07.5,2.35,1.59,2.46"/><path class="cls-5" d="M179.33,59.07a3.94,3.94,0,0,1,2.61,1.1,2.8,2.8,0,0,1,.72,1.55h-2.44c0-.53-.32-.79-1-.86s-1.07.11-1.09.44.23.51,1.45.91a8.05,8.05,0,0,1,2,.84,2.11,2.11,0,0,1,1.08,2.09,2.29,2.29,0,0,1-.76,1.64,5.1,5.1,0,0,1-6.25-1,3.09,3.09,0,0,1-.42-1.34h2.5c.08.68.48,1,1.33,1.1s1.2-.1,1.22-.49a.53.53,0,0,0-.25-.49,3.16,3.16,0,0,0-1-.41,14,14,0,0,1-1.83-.66,2.55,2.55,0,0,1-1.19-1,2.45,2.45,0,0,1-.23-1.25C175.91,59.65,177.23,58.85,179.33,59.07Z"/><path class="cls-5" d="M191.76,61.41a4.28,4.28,0,0,1,.81,3.1,4.16,4.16,0,0,1-1.3,3,3.46,3.46,0,0,1-2.65.74,4.58,4.58,0,0,1-1.67-.52,3.16,3.16,0,0,1-.83-.68c0,.12,0,.28,0,.46l-.06.88a13.34,13.34,0,0,0,0,1.88L183.44,70a17.32,17.32,0,0,0,.22-1.86l.42-6.26a17.43,17.43,0,0,0,0-2l2.47.26,0,.44,0,.25a3.55,3.55,0,0,1,2.63-.64A3.8,3.8,0,0,1,191.76,61.41Zm-2.3,4.48a2.27,2.27,0,0,0,.66-1.61A1.88,1.88,0,0,0,188.39,62a1.92,1.92,0,0,0-2,1.9,2.1,2.1,0,0,0,1.83,2.32,1.68,1.68,0,0,0,1.27-.35"/><path class="cls-5" d="M198.39,67.13a1.15,1.15,0,0,0,.42-.61l2.15.85A3.49,3.49,0,0,1,200,68.6a3.91,3.91,0,0,1-3,.78,4.08,4.08,0,0,1-2.84-1.4,4.57,4.57,0,0,1-.93-3.24c.17-2.54,1.87-4,4.27-3.8a3.81,3.81,0,0,1,3.57,3.4,9.85,9.85,0,0,1,.07,1.7,1.76,1.76,0,0,0,0,.26l-5.65-.59a1.67,1.67,0,0,0,1.6,1.77A1.75,1.75,0,0,0,198.39,67.13Zm-1-4.27a1.46,1.46,0,0,0-1.72,1.08l3.22.34a1.54,1.54,0,0,0-1.5-1.42"/><path class="cls-5" d="M206.16,61.86a3.65,3.65,0,0,1,3.51,3.06l-2.29.24a1.79,1.79,0,0,0-.31-.79,1.35,1.35,0,0,0-1-.56c-1-.11-1.67.65-1.76,2.06s.48,2.36,1.49,2.46a1.4,1.4,0,0,0,1.23-.44,1.25,1.25,0,0,0,.26-.56l2.29.61a3.62,3.62,0,0,1-.61,1.21,3.55,3.55,0,0,1-3.32,1.14,4.12,4.12,0,0,1-2.84-1.42,4.54,4.54,0,0,1-.93-3.24C202,63.07,203.72,61.6,206.16,61.86Z"/><path class="cls-5" d="M213.29,64.86,213,68.81a18.5,18.5,0,0,0,0,1.94l-2.61-.27a15.68,15.68,0,0,0,.22-1.92l.26-3.95a15.22,15.22,0,0,0,0-1.95l2.61.27A13.87,13.87,0,0,0,213.29,64.86Z"/><polygon class="cls-5" points="213.67 60.09 213.54 62.01 211 61.74 211.13 59.82 213.67 60.09"/><path class="cls-5" d="M216.07,62.59c.11-1.69,1.11-2.38,3.15-2.16a6.59,6.59,0,0,1,1.89.48l-.52,1.84a2.54,2.54,0,0,0-1.22-.45c-.62-.06-.87.17-.91.83l0,.32.36,0a16.64,16.64,0,0,0,1.67.09l-.14,2.16a12.87,12.87,0,0,0-1.64-.26l-.38,0-.26,3.91a15.21,15.21,0,0,0,0,1.94L215.41,71a15.58,15.58,0,0,0,.22-1.92l.26-3.91-.34,0a9,9,0,0,0-1.4-.06l.14-2.16a10.78,10.78,0,0,0,1.39.24l.34,0Z"/><path class="cls-5" d="M223.68,66l-.26,3.95a18.5,18.5,0,0,0,0,1.94l-2.61-.27a15.63,15.63,0,0,0,.22-1.92l.26-3.95a15.17,15.17,0,0,0,0-1.95l2.61.27A13.87,13.87,0,0,0,223.68,66Z"/><polygon class="cls-5" points="224.06 61.18 223.93 63.1 221.39 62.83 221.51 60.91 224.06 61.18"/><path class="cls-5" d="M229,64.25a3.64,3.64,0,0,1,3.5,3.06l-2.29.24a1.8,1.8,0,0,0-.3-.79,1.36,1.36,0,0,0-1-.56c-1-.11-1.67.65-1.76,2.06s.49,2.36,1.49,2.46a1.41,1.41,0,0,0,1.24-.44,1.25,1.25,0,0,0,.26-.56l2.28.61a3.62,3.62,0,0,1-.61,1.21,3.56,3.56,0,0,1-3.33,1.14,4.13,4.13,0,0,1-2.84-1.42,4.53,4.53,0,0,1-.92-3.23C224.82,65.46,226.51,64,229,64.25Z"/><path class="cls-5" d="M241.45,63.83a15.53,15.53,0,0,0-.21,1.75l0,.27.45,0a8.17,8.17,0,0,0,1.23.07l-.14,2.13a7.76,7.76,0,0,0-1.15-.2l-.52-.05-.22,3.28c0,.36,0,.55.18.67a1,1,0,0,0,.56.2,1.64,1.64,0,0,0,.89-.14l.06,2a5.28,5.28,0,0,1-1.75.08,3.08,3.08,0,0,1-1.82-.65,1.89,1.89,0,0,1-.54-1.75l.26-3.92-.48-.05a7,7,0,0,0-1.09,0l.14-2.15a7.18,7.18,0,0,0,1.11.2l.45,0,0-.27a14.57,14.57,0,0,0,0-1.77Z"/><path class="cls-5" d="M246.67,63.56a12.57,12.57,0,0,0-.23,1.92l-.09,1.36c0,.1,0,.3,0,.42a3.36,3.36,0,0,1,2.68-.79,2.81,2.81,0,0,1,1.95.93,2.9,2.9,0,0,1,.57,2.23l-.21,3.22a17.13,17.13,0,0,0,0,1.93l-2.61-.27a14.26,14.26,0,0,0,.23-1.92l.17-2.63a1.57,1.57,0,0,0-.14-1,1,1,0,0,0-.78-.43,2.24,2.24,0,0,0-2,1.13l-.17,2.6a15.47,15.47,0,0,0,0,1.95l-2.6-.27a14.11,14.11,0,0,0,.22-1.92l.45-6.79a12.65,12.65,0,0,0,0-1.95Z"/><path class="cls-5" d="M255.48,69.29l-.26,3.95a18.41,18.41,0,0,0,0,1.95l-2.62-.28A14,14,0,0,0,252.8,73l.26-3.95a13.6,13.6,0,0,0,0-1.95l2.62.28A12.45,12.45,0,0,0,255.48,69.29Z"/><polygon class="cls-5" points="255.86 64.52 255.74 66.44 253.18 66.17 253.31 64.26 255.86 64.52"/><path class="cls-5" d="M262.12,67.85a2.86,2.86,0,0,1,2,.93,2.9,2.9,0,0,1,.58,2.23l-.21,3.22a17.33,17.33,0,0,0,0,1.93l-2.61-.27A15.94,15.94,0,0,0,262,74l.17-2.63a1.55,1.55,0,0,0-.14-1,1,1,0,0,0-.8-.44,2.17,2.17,0,0,0-2,1.14l-.17,2.59a15.5,15.5,0,0,0,0,1.95l-2.6-.27a14,14,0,0,0,.23-1.92l.26-3.95a12.66,12.66,0,0,0,0-1.95l2.5.26,0,.54c0,.07,0,.26,0,.35A3.34,3.34,0,0,1,262.12,67.85Z"/><path class="cls-5" d="M271.77,69.06l2.46.26a11.93,11.93,0,0,0-.22,1.77l-.3,4.5a3.5,3.5,0,0,1-1.52,3.07,5.1,5.1,0,0,1-3,.44,4.73,4.73,0,0,1-3.61-1.81l1.89-1a2.36,2.36,0,0,0,1.84,1.07,1.86,1.86,0,0,0,1.58-.41,2,2,0,0,0,.49-1.32,3,3,0,0,1-2.34.6A3.6,3.6,0,0,1,265.68,72a3.33,3.33,0,0,1,3.81-3.42,3.59,3.59,0,0,1,2.23,1l0-.28Zm-2.19,5.35a1.72,1.72,0,0,0,1.9-1.76,1.89,1.89,0,0,0-1.62-2.15c-1-.11-1.71.61-1.79,1.8a1.77,1.77,0,0,0,1.51,2.11"/><path class="cls-5" d="M279,69.54a4,4,0,0,1,2.62,1.1,2.8,2.8,0,0,1,.72,1.55h-2.44c0-.53-.32-.79-1-.86s-1.07.11-1.09.44.23.51,1.45.91a8.18,8.18,0,0,1,2,.84,2.1,2.1,0,0,1,1.07,2.09,2.32,2.32,0,0,1-.75,1.64,4,4,0,0,1-3,.62,4,4,0,0,1-3.21-1.62,3.09,3.09,0,0,1-.42-1.34h2.5c.08.68.48,1,1.33,1.1s1.2-.1,1.22-.49a.55.55,0,0,0-.25-.49,3.16,3.16,0,0,0-1-.41,14,14,0,0,1-1.83-.66,2.61,2.61,0,0,1-1.2-1,2.55,2.55,0,0,1-.23-1.25C275.54,70.12,276.87,69.32,279,69.54Z"/><path class="cls-5" d="M290.33,73l-.26,3.95a16.33,16.33,0,0,0,0,1.95l-2.62-.28a15.68,15.68,0,0,0,.22-1.92l.26-3.95a15.21,15.21,0,0,0,0-1.95l2.62.28A12.45,12.45,0,0,0,290.33,73Z"/><polygon class="cls-5" points="290.71 68.19 290.58 70.1 288.03 69.84 288.16 67.92 290.71 68.19"/><path class="cls-5" d="M295.3,71.26a4,4,0,0,1,2.62,1.1,2.86,2.86,0,0,1,.72,1.55H296.2c0-.53-.32-.79-1-.86s-1.07.11-1.1.44.24.51,1.46.91a8,8,0,0,1,2,.84,2.11,2.11,0,0,1,1.08,2.09A2.29,2.29,0,0,1,297.9,79a5.1,5.1,0,0,1-6.25-1,3.21,3.21,0,0,1-.42-1.34h2.5c.09.68.49,1,1.33,1.11s1.2-.1,1.22-.49a.55.55,0,0,0-.25-.49,3.17,3.17,0,0,0-1-.41,13.78,13.78,0,0,1-1.82-.66,2.58,2.58,0,0,1-1.2-1,2.55,2.55,0,0,1-.23-1.25C291.88,71.84,293.21,71,295.3,71.26Z"/><path class="cls-5" d="M48.37,68.95l-2.43-.26,0-.59a3.51,3.51,0,0,1-2.48.52,3.13,3.13,0,0,1-2.12-.94,2.4,2.4,0,0,1-.58-1.81,2.1,2.1,0,0,1,1-1.78,5,5,0,0,1,2.66-.56c.5,0,.87,0,1.78.1l0-.29c0-.61-.31-.93-1.13-1s-1.25.14-1.48.75l-2.37-.65A2.6,2.6,0,0,1,42.47,61a4.64,4.64,0,0,1,2.87-.43,5.4,5.4,0,0,1,2.29.7,2.42,2.42,0,0,1,1,2.43l-.23,3.46A15.66,15.66,0,0,0,48.37,68.95Zm-2.75-2.38a1.27,1.27,0,0,0,.52-.95l0-.36a7.2,7.2,0,0,0-2.19,0,.9.9,0,0,0-.79.77c0,.46.33.78,1,.85a2.24,2.24,0,0,0,1.45-.34"/><path class="cls-5" d="M58.12,61.79a3.66,3.66,0,0,1,3.51,3.07l-2.29.23a1.91,1.91,0,0,0-.3-.79,1.4,1.4,0,0,0-1-.56c-1-.11-1.67.66-1.76,2.07s.49,2.35,1.49,2.45A1.39,1.39,0,0,0,59,67.81a1.13,1.13,0,0,0,.26-.56l2.29.62a3.88,3.88,0,0,1-.61,1.21,3.57,3.57,0,0,1-3.33,1.13,4.13,4.13,0,0,1-2.84-1.41,4.56,4.56,0,0,1-.92-3.23C54,63,55.68,61.53,58.12,61.79Z"/><path class="cls-5" d="M66.69,62.7a4.08,4.08,0,0,1,3.87,4.61,3.81,3.81,0,0,1-4.43,3.81,4.09,4.09,0,0,1-3.85-4.65A3.74,3.74,0,0,1,66.69,62.7Zm-.43,6.46c1.09.12,1.78-.65,1.87-2.07s-.49-2.35-1.56-2.46-1.81.66-1.9,2.07.5,2.35,1.59,2.46"/><path class="cls-5" d="M76.9,63.88a2.84,2.84,0,0,1,2,.93A2.88,2.88,0,0,1,79.45,67l-.21,3.22a15.44,15.44,0,0,0,0,1.94l-2.61-.27A14.31,14.31,0,0,0,76.83,70L77,67.36a1.52,1.52,0,0,0-.14-1,1,1,0,0,0-.81-.45,2.18,2.18,0,0,0-2,1.15l-.17,2.59a15.47,15.47,0,0,0,0,1.95l-2.6-.27a15.76,15.76,0,0,0,.22-1.92l.26-3.95a14,14,0,0,0,0-1.95l2.49.26,0,.53c0,.08,0,.27,0,.36A3.3,3.3,0,0,1,76.9,63.88Z"/><path class="cls-5" d="M84.62,62.84a15.65,15.65,0,0,0-.21,1.75l0,.28.45,0a8,8,0,0,0,1.23.06l-.14,2.13a7.82,7.82,0,0,0-1.15-.19l-.52-.05L84,70.12c0,.36,0,.55.18.68a1.09,1.09,0,0,0,.56.2,1.64,1.64,0,0,0,.89-.14l.06,2a5.11,5.11,0,0,1-1.75.07,3.12,3.12,0,0,1-1.81-.64,1.9,1.9,0,0,1-.54-1.75l.26-3.91-.48-.05a7.25,7.25,0,0,0-1.1,0l.14-2.14a7.29,7.29,0,0,0,1.11.2l.45,0,0-.28a13,13,0,0,0,0-1.77Z"/><path class="cls-5" d="M92.06,65.51a4.91,4.91,0,0,1,1.23.29L92.53,68a4,4,0,0,0-1.27-.38,1.74,1.74,0,0,0-1.54.54,1.87,1.87,0,0,0-.45,1.11l-.13,2a14,14,0,0,0,0,1.94L86.52,73A15.85,15.85,0,0,0,86.75,71L87,67.08a13.89,13.89,0,0,0,0-1.95l2.49.26-.07,1A2.73,2.73,0,0,1,92.06,65.51Z"/><path class="cls-5" d="M96.43,68.07,96.17,72a16.33,16.33,0,0,0,0,1.95l-2.62-.28a15.77,15.77,0,0,0,.22-1.92L94,67.82a15.21,15.21,0,0,0,0-1.95l2.62.28A12.45,12.45,0,0,0,96.43,68.07Z"/><polygon class="cls-5" points="96.81 63.3 96.68 65.22 94.14 64.96 94.27 63.03 96.81 63.3"/><path class="cls-5" d="M106.27,66.32,105.83,73a15.13,15.13,0,0,0,0,2l-2.48-.26,0-.41a1.75,1.75,0,0,1,0-.28,3.4,3.4,0,0,1-2.6.66c-2.28-.24-3.56-2-3.39-4.54a4.25,4.25,0,0,1,1.29-3,3.39,3.39,0,0,1,2.62-.73,3.88,3.88,0,0,1,2.51,1.21,4.51,4.51,0,0,1,0-.48l.07-1.07a15.72,15.72,0,0,0,0-2l2.57.27A14.12,14.12,0,0,0,106.27,66.32Zm-4.79,6.47a1.94,1.94,0,0,0,2.08-2,2.07,2.07,0,0,0-1.8-2.34c-1.09-.11-1.84.65-1.93,2a2.4,2.4,0,0,0,.47,1.76,1.8,1.8,0,0,0,1.18.62"/><path class="cls-5" d="M110,69.5l-.26,3.95a18.5,18.5,0,0,0,0,1.94l-2.62-.28a14,14,0,0,0,.23-1.92l.26-3.95a13.57,13.57,0,0,0,0-1.95l2.62.28A13.87,13.87,0,0,0,110,69.5Z"/><polygon class="cls-5" points="110.41 64.73 110.28 66.65 107.74 66.39 107.87 64.46 110.41 64.73"/><path class="cls-5" d="M123.63,66.94a15.65,15.65,0,0,0-.21,1.75l0,.28.45,0a8,8,0,0,0,1.23.06l-.14,2.13a7.82,7.82,0,0,0-1.15-.19l-.52-.05L123,74.22c0,.36,0,.55.18.68a1.12,1.12,0,0,0,.56.2,1.64,1.64,0,0,0,.89-.14l.06,2A5.11,5.11,0,0,1,123,77a3.12,3.12,0,0,1-1.81-.64,1.9,1.9,0,0,1-.54-1.75l.26-3.91-.48-.05a7.25,7.25,0,0,0-1.1,0l.14-2.14a7.29,7.29,0,0,0,1.11.2l.45,0,0-.28a14.62,14.62,0,0,0,0-1.77Z"/><path class="cls-5" d="M115.31,67.8a3.65,3.65,0,0,1,3.5,3.07l-2.29.23a1.91,1.91,0,0,0-.3-.79,1.4,1.4,0,0,0-1-.56c-1-.11-1.67.66-1.76,2.07s.49,2.35,1.49,2.45a1.38,1.38,0,0,0,1.24-.44,1.21,1.21,0,0,0,.26-.56l2.28.61a3.88,3.88,0,0,1-.61,1.21,3.57,3.57,0,0,1-3.33,1.13,4.13,4.13,0,0,1-2.85-1.41,4.56,4.56,0,0,1-.92-3.23C111.18,69,112.87,67.54,115.31,67.8Z"/><path class="cls-5" d="M128.44,71.44l-.26,3.95a16.33,16.33,0,0,0,0,1.95l-2.62-.28a15.77,15.77,0,0,0,.22-1.92l.26-3.95a15.21,15.21,0,0,0,0-1.95l2.62.28A12.47,12.47,0,0,0,128.44,71.44Z"/><polygon class="cls-5" points="128.82 66.66 128.69 68.59 126.15 68.32 126.28 66.39 128.82 66.66"/><path class="cls-5" d="M133.84,69.75a4.07,4.07,0,0,1,3.87,4.61,3.81,3.81,0,0,1-4.44,3.81,4.09,4.09,0,0,1-3.84-4.65A3.74,3.74,0,0,1,133.84,69.75Zm-.43,6.46c1.09.12,1.78-.65,1.87-2.07s-.49-2.35-1.56-2.46-1.81.66-1.9,2.07.5,2.35,1.59,2.46"/><path class="cls-5" d="M144.05,70.93a2.84,2.84,0,0,1,2,.93,2.91,2.91,0,0,1,.57,2.22l-.21,3.22a15.44,15.44,0,0,0,0,1.94L143.75,79A14.3,14.3,0,0,0,144,77l.18-2.64a1.52,1.52,0,0,0-.14-1,1,1,0,0,0-.81-.45,2.18,2.18,0,0,0-2,1.15l-.17,2.59a15.51,15.51,0,0,0,0,1.95l-2.6-.27a15.75,15.75,0,0,0,.22-1.92l.26-3.95a14,14,0,0,0,0-1.95l2.49.26,0,.53c0,.08,0,.27,0,.36A3.33,3.33,0,0,1,144.05,70.93Z"/><path class="cls-5" d="M162.2,72.74a4.07,4.07,0,0,1,3.86,4.61,3.8,3.8,0,0,1-4.43,3.81,4.09,4.09,0,0,1-3.84-4.65A3.74,3.74,0,0,1,162.2,72.74Zm-.43,6.46c1.09.11,1.78-.65,1.87-2.07s-.49-2.35-1.56-2.46-1.81.66-1.9,2.07.5,2.35,1.59,2.46"/><path class="cls-5" d="M155.94,70.33a15.55,15.55,0,0,0-.22,1.75l0,.28.45,0a8.08,8.08,0,0,0,1.24.06l-.14,2.13a7.82,7.82,0,0,0-1.15-.19l-.53-.06-.22,3.28c0,.36,0,.55.18.68a1.13,1.13,0,0,0,.57.2,1.66,1.66,0,0,0,.89-.14l.06,2a5.11,5.11,0,0,1-1.75.07,3.12,3.12,0,0,1-1.81-.64A1.9,1.9,0,0,1,153,78l.26-3.91-.48-.05a7.25,7.25,0,0,0-1.1,0l.14-2.14a7.29,7.29,0,0,0,1.11.2l.45,0,0-.28a13,13,0,0,0,0-1.77Z"/><path class="cls-5" d="M173.91,76.22l-.26,3.95a18.5,18.5,0,0,0,0,1.94L171,81.84a14.07,14.07,0,0,0,.23-1.92l.26-3.95a13.6,13.6,0,0,0,0-1.95l2.62.28A13.91,13.91,0,0,0,173.91,76.22Z"/><polygon class="cls-5" points="174.29 71.44 174.16 73.37 171.62 73.1 171.74 71.17 174.29 71.44"/><path class="cls-5" d="M180.55,74.77a2.81,2.81,0,0,1,2,.93,2.88,2.88,0,0,1,.58,2.22l-.21,3.22a17.5,17.5,0,0,0,0,1.94l-2.61-.27a14.42,14.42,0,0,0,.22-1.92l.18-2.64a1.46,1.46,0,0,0-.14-1,1,1,0,0,0-.8-.45,2.18,2.18,0,0,0-2,1.15l-.17,2.59a17.36,17.36,0,0,0,0,1.95l-2.6-.27a14.06,14.06,0,0,0,.23-1.92l.26-3.95a12.52,12.52,0,0,0,0-1.95l2.5.26,0,.53c0,.08,0,.27,0,.36A3.31,3.31,0,0,1,180.55,74.77Z"/><path class="cls-5" d="M193,75.43l-.44,6.64a15.05,15.05,0,0,0,0,2L190,83.84l0-.41a1.77,1.77,0,0,1,0-.28,3.4,3.4,0,0,1-2.6.66c-2.28-.24-3.56-2-3.39-4.54a4.25,4.25,0,0,1,1.29-3,3.38,3.38,0,0,1,2.61-.73,3.9,3.9,0,0,1,2.52,1.21,4.57,4.57,0,0,1,0-.48l.07-1.07a15.76,15.76,0,0,0,0-2l2.57.27A14.06,14.06,0,0,0,193,75.43Zm-4.79,6.47a2,2,0,0,0,2.08-2,2.07,2.07,0,0,0-1.8-2.34c-1.09-.11-1.84.65-1.93,2a2.4,2.4,0,0,0,.47,1.76,1.8,1.8,0,0,0,1.18.62"/><path class="cls-5" d="M196.72,78.62l-.26,3.95a18.5,18.5,0,0,0,0,1.94l-2.62-.28a14,14,0,0,0,.23-1.92l.26-3.95a13.57,13.57,0,0,0,0-1.95l2.62.28A13.87,13.87,0,0,0,196.72,78.62Z"/><polygon class="cls-5" points="197.09 73.84 196.97 75.76 194.42 75.5 194.55 73.57 197.09 73.84"/><path class="cls-5" d="M206.37,77.68c-.28.55-.4.78-.6,1.19l-2.47,5.27a5,5,0,0,0-.41,1l-2.75-.29a5.36,5.36,0,0,0-.27-1.12l-1.74-5.72-.45-1.3,2.79.29a5.21,5.21,0,0,0,.16,1.13l.9,4.11,0,.15c0,.13,0,.15.08.37,0-.11.06-.17.08-.22l0-.12.06-.15,1.43-3.85a6.1,6.1,0,0,0,.32-1.08Z"/><path class="cls-5" d="M209.51,80l-.26,3.95a16.29,16.29,0,0,0,0,1.95l-2.62-.28a15.72,15.72,0,0,0,.22-1.92l.26-3.95a15.17,15.17,0,0,0,0-1.95l2.62.28A12.42,12.42,0,0,0,209.51,80Z"/><polygon class="cls-5" points="209.89 75.18 209.76 77.11 207.21 76.84 207.34 74.91 209.89 75.18"/><path class="cls-5" d="M219.35,78.21l-.44,6.64a15.09,15.09,0,0,0,0,2l-2.48-.26,0-.41a1.75,1.75,0,0,1,0-.28,3.4,3.4,0,0,1-2.6.66c-2.28-.24-3.56-2-3.39-4.54a4.25,4.25,0,0,1,1.29-3,3.39,3.39,0,0,1,2.62-.73,3.88,3.88,0,0,1,2.51,1.21,4.51,4.51,0,0,1,0-.48L217,78a15.72,15.72,0,0,0,0-2l2.57.27A14.09,14.09,0,0,0,219.35,78.21Zm-4.79,6.47a2,2,0,0,0,2.08-2,2.07,2.07,0,0,0-1.8-2.34c-1.09-.11-1.84.65-1.92,2a2.4,2.4,0,0,0,.47,1.76,1.8,1.8,0,0,0,1.18.62"/><path class="cls-5" d="M228.6,80a13.78,13.78,0,0,0-.23,1.91l-.26,4a12.41,12.41,0,0,0,0,1.93l-2.49-.26,0-.55c0-.06,0-.26,0-.35a3.27,3.27,0,0,1-2.68.83,2.83,2.83,0,0,1-1.95-.93,2.87,2.87,0,0,1-.57-2.22l.21-3.22a17,17,0,0,0,0-1.93l2.61.27a15.88,15.88,0,0,0-.22,1.91L222.91,84a1.55,1.55,0,0,0,.14,1,1,1,0,0,0,.79.44,2.28,2.28,0,0,0,2-1.12l.17-2.63a15.27,15.27,0,0,0,0-1.93Z"/><path class="cls-5" d="M236.86,88.76l-2.43-.26,0-.59a3.51,3.51,0,0,1-2.48.52,3.13,3.13,0,0,1-2.12-.94,2.4,2.4,0,0,1-.58-1.81,2.08,2.08,0,0,1,1-1.78,5,5,0,0,1,2.66-.56c.5,0,.87,0,1.78.1l0-.29c0-.61-.31-.93-1.13-1s-1.25.14-1.48.75l-2.37-.65A2.65,2.65,0,0,1,231,80.78a4.64,4.64,0,0,1,2.87-.43,5.4,5.4,0,0,1,2.29.7,2.42,2.42,0,0,1,1,2.43l-.23,3.46A15.66,15.66,0,0,0,236.86,88.76Zm-2.75-2.38a1.27,1.27,0,0,0,.52-.95l0-.36a7.2,7.2,0,0,0-2.19,0,.9.9,0,0,0-.79.77c0,.46.33.78,1,.85a2.24,2.24,0,0,0,1.45-.34"/><path class="cls-5" d="M241.53,78.51a13,13,0,0,0-.22,1.92l-.45,6.8a15.33,15.33,0,0,0,0,1.95l-2.62-.28a12.64,12.64,0,0,0,.23-1.92l.45-6.8a12.16,12.16,0,0,0,0-1.95Z"/><path class="cls-5" d="M245,83.69l-.26,3.95a16.38,16.38,0,0,0,0,1.95l-2.62-.28a15.77,15.77,0,0,0,.22-1.92l.26-3.95a15.21,15.21,0,0,0,0-1.95l2.62.28A12.47,12.47,0,0,0,245,83.69Z"/><polygon class="cls-5" points="245.43 78.92 245.3 80.84 242.75 80.58 242.88 78.65 245.43 78.92"/><path class="cls-5" d="M260.78,83.4c-.36.63-.36.63-.87,1.63l-3.32,6.48a2.63,2.63,0,0,1-3,1.46,7.71,7.71,0,0,1-1.71-.39l.41-2a2,2,0,0,0,1,.39,1,1,0,0,0,1.06-.5l.3-.52-2-5.66c-.45-1.33-.5-1.46-.64-1.79l2.73.29a9,9,0,0,0,.38,1.7l1,3.09,1.31-2.79a7.08,7.08,0,0,0,.65-1.65Z"/><path class="cls-5" d="M250.19,80.24A15.55,15.55,0,0,0,250,82l0,.28.45,0a8.08,8.08,0,0,0,1.24.06l-.14,2.13a7.82,7.82,0,0,0-1.15-.19l-.53-.06-.22,3.28c0,.36,0,.55.18.68a1.13,1.13,0,0,0,.57.2,1.66,1.66,0,0,0,.89-.14l.06,2a5.11,5.11,0,0,1-1.75.07,3.12,3.12,0,0,1-1.81-.64,1.9,1.9,0,0,1-.54-1.75l.26-3.91L247,84a7.25,7.25,0,0,0-1.1,0l.14-2.14a7.29,7.29,0,0,0,1.11.2l.45,0,0-.28a13,13,0,0,0,0-1.77Z"/><polygon class="cls-5" points="262.93 88.89 262.75 91.48 260.23 91.22 260.4 88.62 262.93 88.89"/></g></g></svg>