<svg xmlns="http://www.w3.org/2000/svg" viewBox="0 0 318.43 122.61"><defs><style>.cls-1{isolation:isolate;}.cls-2{fill:#a01a1e;}.cls-3{fill:#76090a;}.cls-4{fill:#8c1416;}.cls-5{fill:#fff;}</style></defs><title>info</title><g id="Layer_2" data-name="Layer 2"><g id="Layer_1-2" data-name="Layer 1"><g class="cls-1"><polygon class="cls-2" points="318.43 5.1 318.24 87.57 11.54 122.61 11.72 40.15 318.43 5.1"/><polygon class="cls-3" points="11.54 122.61 0 117.51 0.19 35.04 11.72 40.15 11.54 122.61"/><polygon class="cls-4" points="11.72 40.15 0.19 35.04 306.89 0 318.43 5.1 11.72 40.15"/></g><path class="cls-5" d="M52.56,50.24a14.87,14.87,0,0,0-.14,2.17l-.1,7.83a14.92,14.92,0,0,0,.09,2.14l-2.94.32a15.6,15.6,0,0,0,.13-2.16l.1-7.83a14.58,14.58,0,0,0-.08-2.14Z"/><path class="cls-5" d="M59.45,52.52a2.51,2.51,0,0,1,2.14.58,3,3,0,0,1,.73,2.37l0,3.66a20.81,20.81,0,0,0,.08,2.18l-2.77.3a18.51,18.51,0,0,0,.13-2.21l0-3a1.64,1.64,0,0,0-.2-1.05.88.88,0,0,0-.88-.32c-.74.08-1.42.66-2,1.74l0,2.95a19,19,0,0,0,.08,2.19l-2.76.3A18,18,0,0,0,54.08,60l.06-4.5A15.25,15.25,0,0,0,54,53.32L56.71,53v.61c0,.09,0,.31,0,.4A4,4,0,0,1,59.45,52.52Z"/><path class="cls-5" d="M67.46,51.57a3.53,3.53,0,0,1,2.83.62,2.73,2.73,0,0,1,.85,1.57l-2.58.58c-.06-.59-.39-.81-1.11-.74s-1.12.37-1.13.75.27.5,1.59.69a7,7,0,0,1,2.18.47,2,2,0,0,1,1.25,2.09,3.16,3.16,0,0,1-.7,2A4.69,4.69,0,0,1,67.46,61c-1.68.18-2.86-.18-3.49-1.08a3.27,3.27,0,0,1-.52-1.4l2.65-.61c.13.75.58,1,1.47.94s1.26-.38,1.27-.84a.53.53,0,0,0-.29-.49,3,3,0,0,0-1.08-.22,14,14,0,0,1-2-.31,2.2,2.2,0,0,1-1.32-.89,2.81,2.81,0,0,1-.31-1.36C63.88,53,65.24,51.81,67.46,51.57Z"/><path class="cls-5" d="M76.27,48.63a19.86,19.86,0,0,0-.13,2V51l.48-.05a8.26,8.26,0,0,0,1.31-.22l0,2.42a7.46,7.46,0,0,0-1.22,0l-.56.06,0,3.74c0,.4.06.61.23.72a1,1,0,0,0,.61.09,1.88,1.88,0,0,0,.94-.36L78,59.59a5.54,5.54,0,0,1-1.84.5,2.79,2.79,0,0,1-2-.31c-.5-.37-.68-.84-.67-1.83l.06-4.46-.5.05a7.38,7.38,0,0,0-1.16.21l0-2.43a8,8,0,0,0,1.18,0l.48-.05v-.31a16.1,16.1,0,0,0-.08-2Z"/><path class="cls-5" d="M86.79,58.69,84.2,59V58.3a4.12,4.12,0,0,1-2.6,1.15,2.78,2.78,0,0,1-2.3-.56A2.46,2.46,0,0,1,78.6,57a2.87,2.87,0,0,1,1-2.23,5.85,5.85,0,0,1,2.78-1.24c.52-.12.92-.18,1.88-.31v-.33c0-.7-.37-1-1.25-.89a1.53,1.53,0,0,0-1.52,1.19L79,53A3.73,3.73,0,0,1,80.1,51.1a5.35,5.35,0,0,1,3-1.15,5.07,5.07,0,0,1,2.47.25c.84.42,1.21,1.18,1.19,2.49l0,3.94A16.92,16.92,0,0,0,86.79,58.69Zm-3-2a1.69,1.69,0,0,0,.49-1.17v-.41a7.81,7.81,0,0,0-2.31.55,1.23,1.23,0,0,0-.79,1c0,.53.39.79,1.09.71a2.61,2.61,0,0,0,1.51-.72"/><path class="cls-5" d="M94.19,49l2.61-.28a15.36,15.36,0,0,0-.13,2l-.06,5.12a4.81,4.81,0,0,1-1.43,3.8A5.87,5.87,0,0,1,92,60.89c-1.82.19-3-.17-3.93-1.2L90,58.1a2.07,2.07,0,0,0,2,.77,2.22,2.22,0,0,0,1.63-.81,2.73,2.73,0,0,0,.45-1.6,3.62,3.62,0,0,1-2.45,1.22c-2.32.25-3.77-1.26-3.73-3.92s1.56-4.46,3.84-4.7a3.2,3.2,0,0,1,2.42.58V49Zm-2,6.51a2.3,2.3,0,0,0,1.91-2.43c0-1.3-.76-2.15-1.84-2a2.21,2.21,0,0,0-1.79,2.44c0,1.34.66,2.13,1.72,2"/><path class="cls-5" d="M103.54,47.84a4.7,4.7,0,0,1,1.32,0l-.67,2.69a3.67,3.67,0,0,0-1.36-.13,2.12,2.12,0,0,0-1.59,1,2.41,2.41,0,0,0-.42,1.34l0,2.28a17.16,17.16,0,0,0,.08,2.18l-2.76.3a18.1,18.1,0,0,0,.13-2.21l.06-4.5a15.42,15.42,0,0,0-.08-2.19l2.66-.29v1.15A3.36,3.36,0,0,1,103.54,47.84Z"/><path class="cls-5" d="M113.49,55.83l-2.59.28v-.67a4.12,4.12,0,0,1-2.6,1.15A2.78,2.78,0,0,1,106,56a2.46,2.46,0,0,1-.71-1.91,2.87,2.87,0,0,1,1-2.23,5.85,5.85,0,0,1,2.78-1.24c.52-.12.92-.18,1.88-.31V50c0-.7-.37-1-1.25-.89a1.53,1.53,0,0,0-1.52,1.19l-2.55-.18a3.73,3.73,0,0,1,1.14-1.89,5.36,5.36,0,0,1,3-1.15,5.07,5.07,0,0,1,2.47.25c.84.42,1.21,1.18,1.19,2.49l0,3.94A16.88,16.88,0,0,0,113.49,55.83Zm-3-2a1.69,1.69,0,0,0,.49-1.17v-.41a7.81,7.81,0,0,0-2.31.54,1.23,1.23,0,0,0-.79,1c0,.53.39.79,1.09.71a2.61,2.61,0,0,0,1.51-.72"/><path class="cls-5" d="M125.25,45.43c1.91-.2,2.86.83,2.83,3l0,3.62a17.08,17.08,0,0,0,.08,2.18l-2.78.3a17.06,17.06,0,0,0,.14-2.21l0-3c0-1.09-.28-1.48-1-1.4s-1.3.73-1.64,1.73l0,3a17.78,17.78,0,0,0,.08,2.18l-2.78.3a17.42,17.42,0,0,0,.14-2.21l0-3a1.68,1.68,0,0,0-.22-1.11.73.73,0,0,0-.72-.28c-.72.08-1.34.71-1.73,1.74l0,2.95a17.41,17.41,0,0,0,.08,2.19l-2.75.3a17.64,17.64,0,0,0,.14-2.21l.06-4.5a14.34,14.34,0,0,0-.08-2.19l2.64-.28v.61c0,.05,0,.05,0,.2v.15A3.54,3.54,0,0,1,120.19,46a2.44,2.44,0,0,1,1.7.34,1.56,1.56,0,0,1,.54.67A4,4,0,0,1,125.25,45.43Z"/><polygon class="cls-5" points="134.04 44.74 136.74 44.45 136.7 47.38 134 47.67 134.04 44.74"/><polygon class="cls-5" points="133.93 53.63 133.97 50.69 136.66 50.4 136.63 53.34 133.93 53.63"/><path class="cls-5" d="M151.34,43.81l-.84,3.32a1.92,1.92,0,0,0-.06.44c0,.24.12.35.34.33a1.62,1.62,0,0,0,.85-.47,4.18,4.18,0,0,0,1.12-2.87,3.29,3.29,0,0,0-1.49-3,4.12,4.12,0,0,0-2.39-.36A5.38,5.38,0,0,0,144,46.65c0,2.8,1.72,4.45,4.4,4.16a7.31,7.31,0,0,0,2-.53,6.46,6.46,0,0,0,1.5-.94l.8,1.2a7.41,7.41,0,0,1-1.68,1,9.59,9.59,0,0,1-2.84.77,5.12,5.12,0,0,1-4.38-1.26,5.66,5.66,0,0,1-1.49-4.16A7.41,7.41,0,0,1,144,42.19,7.17,7.17,0,0,1,149,39.67a4.43,4.43,0,0,1,5.26,4.66A5.78,5.78,0,0,1,152.93,48a4,4,0,0,1-2.5,1.47,1.14,1.14,0,0,1-1.15-.45,1.11,1.11,0,0,1-.11-.44,2.43,2.43,0,0,1-1.8,1.11c-1.32.14-2.15-.84-2.13-2.51,0-2.47,1.54-4.67,3.31-4.86A1.28,1.28,0,0,1,150,43l.13-.52,1.58-.17C151.66,42.57,151.4,43.49,151.34,43.81Zm-2.4,3.09a6.31,6.31,0,0,0,.56-2.31c0-.6-.29-1-.76-.92a1.83,1.83,0,0,0-1.33,1.19,5.87,5.87,0,0,0-.56,2.25c0,.77.25,1.15.75,1.1s1-.52,1.33-1.31"/><path class="cls-5" d="M160.93,41.64a2.53,2.53,0,0,1,2.14.58,3,3,0,0,1,.73,2.37l0,3.66a20.88,20.88,0,0,0,.08,2.18l-2.78.3a18.41,18.41,0,0,0,.14-2.21l0-3a1.64,1.64,0,0,0-.2-1.05.89.89,0,0,0-.88-.32c-.74.08-1.42.66-2,1.74l0,2.95a19,19,0,0,0,.08,2.19l-2.76.3a18.1,18.1,0,0,0,.13-2.21l.06-4.5a15.5,15.5,0,0,0-.08-2.19l2.66-.29v.61c0,.09,0,.31,0,.4A4,4,0,0,1,160.93,41.64Z"/><path class="cls-5" d="M169,38.68a17.79,17.79,0,0,0-.14,2V41l.48-.05a8.14,8.14,0,0,0,1.31-.22l0,2.42a7.46,7.46,0,0,0-1.22,0l-.56.06,0,3.74c0,.4.06.61.23.72a1,1,0,0,0,.61.09,1.85,1.85,0,0,0,.93-.36l.18,2.19a5.61,5.61,0,0,1-1.85.5,2.78,2.78,0,0,1-2-.31c-.51-.37-.68-.84-.67-1.83l.06-4.46-.5.05a7.31,7.31,0,0,0-1.16.21l0-2.43a8,8,0,0,0,1.18,0l.48-.05V41a16.1,16.1,0,0,0-.08-2Z"/><path class="cls-5" d="M180.11,39.8A17.92,17.92,0,0,0,180,42l-.06,4.51a15.19,15.19,0,0,0,.08,2.18l-2.66.29v-.63a3.58,3.58,0,0,1,0-.4,4,4,0,0,1-2.79,1.55,2.51,2.51,0,0,1-2.11-.59,3,3,0,0,1-.73-2.37l0-3.66a20.88,20.88,0,0,0-.08-2.18l2.77-.3a18.45,18.45,0,0,0-.13,2.2l0,3a1.63,1.63,0,0,0,.2,1.07.89.89,0,0,0,.86.32,3,3,0,0,0,2-1.72l0-3a19,19,0,0,0-.08-2.18Z"/><path class="cls-5" d="M184.17,41.56l-.06,4.5c0,.79,0,1.57.08,2.19l-2.79.3a18.14,18.14,0,0,0,.13-2.21l.06-4.5a16.82,16.82,0,0,0-.08-2.19l2.79-.3A16.13,16.13,0,0,0,184.17,41.56Z"/><polygon class="cls-5" points="184.3 36.11 184.27 38.3 181.57 38.59 181.59 36.4 184.3 36.11"/><path class="cls-5" d="M189.41,36.49a19.86,19.86,0,0,0-.13,2v.31l.48-.05a8.26,8.26,0,0,0,1.31-.22L191,41a7.46,7.46,0,0,0-1.22,0l-.56.06,0,3.74c0,.4.06.61.23.72a1,1,0,0,0,.61.09,1.88,1.88,0,0,0,.94-.36l.17,2.19a5.54,5.54,0,0,1-1.84.5,2.79,2.79,0,0,1-2-.31c-.5-.37-.68-.84-.67-1.83l.06-4.46-.5.05a7.37,7.37,0,0,0-1.16.21l0-2.43a8,8,0,0,0,1.18,0l.48-.05v-.31a16.05,16.05,0,0,0-.08-2Z"/><path class="cls-5" d="M194.76,40.42l-.06,4.5c0,.79,0,1.57.08,2.19l-2.79.3a18.1,18.1,0,0,0,.13-2.21l.06-4.5a16.78,16.78,0,0,0-.08-2.19l2.79-.3A16.13,16.13,0,0,0,194.76,40.42Z"/><polygon class="cls-5" points="194.89 34.98 194.86 37.17 192.16 37.46 192.19 35.27 194.89 34.98"/><path class="cls-5" d="M204.93,37.14c-.28.69-.39,1-.57,1.47L202,45.1a8.32,8.32,0,0,0-.38,1.26l-2.92.31a5.65,5.65,0,0,0-.34-1.19l-2.16-6-.54-1.35,3-.32a6.5,6.5,0,0,0,.24,1.22l1.18,4.4.05.16c0,.14,0,.15.1.39a1.72,1.72,0,0,0,.07-.27l0-.14.06-.18,1.3-4.66a8.92,8.92,0,0,0,.27-1.28Z"/><path class="cls-5" d="M210.9,43a1.62,1.62,0,0,0,.41-.79l2.31.47a4.94,4.94,0,0,1-.9,1.6,4.68,4.68,0,0,1-3.16,1.57,3.58,3.58,0,0,1-3.08-.9,4.72,4.72,0,0,1-1.16-3.43c0-2.89,1.75-5,4.3-5.25a3.4,3.4,0,0,1,4,3,11.37,11.37,0,0,1,.18,1.89c0,.06,0,.15,0,.29l-6,.64c.12,1.17.74,1.73,1.79,1.62A2.09,2.09,0,0,0,210.9,43Zm-1.31-4.56a1.9,1.9,0,0,0-1.77,1.61l3.43-.37a1.39,1.39,0,0,0-1.66-1.25"/><polygon class="cls-5" points="217.49 41.73 217.45 44.67 214.75 44.96 214.79 42.02 217.49 41.73"/><path class="cls-5" d="M226.76,43.68l-2.59.28v-.67a4.14,4.14,0,0,1-2.6,1.15,2.81,2.81,0,0,1-2.3-.56,2.46,2.46,0,0,1-.7-1.91,2.86,2.86,0,0,1,1-2.23,5.88,5.88,0,0,1,2.79-1.24c.52-.12.92-.18,1.88-.31v-.33c0-.7-.37-1-1.25-.89a1.54,1.54,0,0,0-1.53,1.19L218.93,38a3.68,3.68,0,0,1,1.14-1.89,5.34,5.34,0,0,1,3-1.15,5.06,5.06,0,0,1,2.46.25c.85.42,1.22,1.18,1.2,2.49l0,3.94A19,19,0,0,0,226.76,43.68Zm-3-2a1.73,1.73,0,0,0,.49-1.17v-.41a7.81,7.81,0,0,0-2.31.55,1.23,1.23,0,0,0-.79,1c0,.53.39.79,1.09.71a2.61,2.61,0,0,0,1.51-.72"/><path class="cls-5" d="M236.45,34.61a4.4,4.4,0,0,1,1,3.28,5.69,5.69,0,0,1-1.21,3.66,4.29,4.29,0,0,1-4.56,1.26,2.63,2.63,0,0,1-.92-.57c0,.13,0,.32,0,.52v1a16.27,16.27,0,0,0,.09,2.11l-2.74.29c.07-.64.12-1.37.13-2.14l.09-7.13a19.22,19.22,0,0,0-.08-2.27l2.63-.28v.49l0,.28a4.28,4.28,0,0,1,2.75-1.33A3.32,3.32,0,0,1,236.45,34.61Zm-2.18,5.55a3.06,3.06,0,0,0,.61-2c0-1.49-.69-2.28-1.95-2.14a2.58,2.58,0,0,0-2,2.61A1.93,1.93,0,0,0,233,40.86a2,2,0,0,0,1.32-.7"/><path class="cls-5" d="M246.77,33.5a4.44,4.44,0,0,1,1,3.28,5.69,5.69,0,0,1-1.21,3.66A4.29,4.29,0,0,1,242,41.71a2.69,2.69,0,0,1-.91-.58c0,.13,0,.32,0,.52v1a16.41,16.41,0,0,0,.08,2.11l-2.74.29a19.46,19.46,0,0,0,.14-2.14l.09-7.13a19,19,0,0,0-.08-2.27l2.63-.28v.49l0,.28A4.25,4.25,0,0,1,244,32.69,3.35,3.35,0,0,1,246.77,33.5Zm-2.19,5.55a3.06,3.06,0,0,0,.61-2c0-1.49-.69-2.28-1.94-2.14a2.58,2.58,0,0,0-2,2.61,1.93,1.93,0,0,0,2.07,2.18,2,2,0,0,0,1.31-.7"/><path class="cls-5" d="M256.74,40.46l-2.59.28v-.67a4.16,4.16,0,0,1-2.6,1.15,2.8,2.8,0,0,1-2.3-.56,2.46,2.46,0,0,1-.71-1.91,2.87,2.87,0,0,1,1-2.23,5.88,5.88,0,0,1,2.79-1.24c.52-.12.92-.18,1.88-.31v-.33c0-.7-.38-1-1.26-.89a1.54,1.54,0,0,0-1.52,1.19l-2.54-.18a3.68,3.68,0,0,1,1.14-1.89,5.34,5.34,0,0,1,3-1.15,5.06,5.06,0,0,1,2.46.25c.85.42,1.21,1.18,1.19,2.49l0,3.94A18.75,18.75,0,0,0,256.74,40.46Zm-3-2a1.73,1.73,0,0,0,.49-1.17v-.41a7.87,7.87,0,0,0-2.32.55,1.22,1.22,0,0,0-.78,1c0,.53.39.79,1.09.71a2.61,2.61,0,0,0,1.51-.72"/><path class="cls-5" d="M263.6,30.67a4.74,4.74,0,0,1,1.32,0l-.67,2.69a3.7,3.7,0,0,0-1.36-.13,2.15,2.15,0,0,0-1.6,1,2.54,2.54,0,0,0-.42,1.34l0,2.28a17,17,0,0,0,.08,2.18l-2.76.3a18.1,18.1,0,0,0,.13-2.21l.06-4.5a15.42,15.42,0,0,0-.08-2.19l2.65-.28v1.15A3.38,3.38,0,0,1,263.6,30.67Z"/><path class="cls-5" d="M270.9,36.58a1.62,1.62,0,0,0,.41-.79l2.31.47a4.94,4.94,0,0,1-.9,1.6,4.68,4.68,0,0,1-3.16,1.57,3.58,3.58,0,0,1-3.08-.9,4.72,4.72,0,0,1-1.16-3.43c0-2.89,1.75-5,4.3-5.25a3.39,3.39,0,0,1,4,3,10.56,10.56,0,0,1,.18,1.89,2.26,2.26,0,0,0,0,.29l-6,.64c.12,1.17.74,1.73,1.79,1.62A2.11,2.11,0,0,0,270.9,36.58ZM269.58,32a1.89,1.89,0,0,0-1.76,1.61l3.43-.37A1.38,1.38,0,0,0,269.58,32"/><path class="cls-5" d="M277.72,26.09a16.36,16.36,0,0,0-.14,2.21l-.1,7.74a18.57,18.57,0,0,0,.08,2.19l-2.79.3a16.22,16.22,0,0,0,.14-2.21l.1-7.74a14.8,14.8,0,0,0-.08-2.19Z"/><path class="cls-5" d="M67.64,68.92l0,2.73a15.3,15.3,0,0,0-2,.11l-3.47.37,0,2.14L65,74a15.2,15.2,0,0,0,2-.31l0,2.7a15.56,15.56,0,0,0-2,.11l-2.88.31,0,2.45,3.44-.37a17.8,17.8,0,0,0,2.17-.33l0,2.72a16.33,16.33,0,0,0-2.2.14l-4.2.45c-1,.11-1.39.16-2,.25a15,15,0,0,0,.14-2.15l.1-8a16.52,16.52,0,0,0-.09-2.12c.55,0,.92-.05,2-.17l4.26-.46A14.5,14.5,0,0,0,67.64,68.92Z"/><path class="cls-5" d="M79.24,70.77c1.91-.2,2.87.83,2.84,3l0,3.62a17.46,17.46,0,0,0,.08,2.18l-2.78.3a17.29,17.29,0,0,0,.14-2.22l0-3c0-1.09-.28-1.49-1-1.41S77.17,74,76.83,75l0,3a17.82,17.82,0,0,0,.08,2.18l-2.78.3a17.52,17.52,0,0,0,.14-2.22l0-3a1.67,1.67,0,0,0-.22-1.11.72.72,0,0,0-.72-.29c-.72.08-1.34.71-1.73,1.74l0,3a17.65,17.65,0,0,0,.08,2.19l-2.75.3A17.85,17.85,0,0,0,69,78.8l.06-4.49A14.37,14.37,0,0,0,69,72.11l2.64-.28v.61c0,.06,0,.06,0,.2v.15a3.57,3.57,0,0,1,2.56-1.47,2.44,2.44,0,0,1,1.7.34,1.53,1.53,0,0,1,.54.68A4,4,0,0,1,79.24,70.77Z"/><path class="cls-5" d="M91.44,78.59l-2.59.28V78.2a4.11,4.11,0,0,1-2.6,1.15,2.8,2.8,0,0,1-2.3-.56,2.46,2.46,0,0,1-.71-1.9,2.89,2.89,0,0,1,1-2.24A5.88,5.88,0,0,1,87,73.41c.52-.12.92-.17,1.88-.31v-.33c0-.7-.38-1-1.26-.89a1.54,1.54,0,0,0-1.52,1.19l-2.54-.18A3.65,3.65,0,0,1,84.76,71a5.34,5.34,0,0,1,3-1.15,5.07,5.07,0,0,1,2.46.24c.85.42,1.21,1.18,1.19,2.49l0,3.94A18.8,18.8,0,0,0,91.44,78.59Zm-3-2a1.76,1.76,0,0,0,.49-1.18V75a7.65,7.65,0,0,0-2.32.54,1.23,1.23,0,0,0-.78,1c0,.53.39.79,1.08.71a2.66,2.66,0,0,0,1.52-.71"/><path class="cls-5" d="M95.62,71.46l-.06,4.49c0,.79,0,1.57.08,2.19l-2.79.3A18.33,18.33,0,0,0,93,76.23L93,71.73A16.92,16.92,0,0,0,93,69.54l2.79-.3A16.23,16.23,0,0,0,95.62,71.46Z"/><polygon class="cls-5" points="95.76 66.01 95.73 68.19 93.02 68.48 93.05 66.3 95.76 66.01"/><path class="cls-5" d="M100,65.55a16.42,16.42,0,0,0-.14,2.22l-.1,7.73a18.83,18.83,0,0,0,.08,2.19l-2.79.3a16.53,16.53,0,0,0,.13-2.22l.1-7.73a15.09,15.09,0,0,0-.08-2.19Z"/><polygon class="cls-5" points="105.78 68.17 108.47 67.88 108.43 70.81 105.74 71.1 105.78 68.17"/><polygon class="cls-5" points="105.67 77.07 105.7 74.12 108.39 73.83 108.36 76.78 105.67 77.07"/><path class="cls-5" d="M122.45,67.23a4.43,4.43,0,0,1,1,3.29,5.66,5.66,0,0,1-1.21,3.65,4.26,4.26,0,0,1-4.56,1.26,2.65,2.65,0,0,1-.91-.57c0,.13,0,.32,0,.52v1a16.13,16.13,0,0,0,.09,2.1l-2.74.29c.07-.63.12-1.37.13-2.14l.09-7.12a19.28,19.28,0,0,0-.08-2.28l2.63-.28v.5l0,.27a4.28,4.28,0,0,1,2.75-1.33A3.32,3.32,0,0,1,122.45,67.23Zm-2.19,5.56a3,3,0,0,0,.62-2c0-1.49-.69-2.27-1.95-2.13a2.57,2.57,0,0,0-2,2.61A1.92,1.92,0,0,0,119,73.48a2,2,0,0,0,1.31-.69"/><path class="cls-5" d="M129.79,72.12a1.79,1.79,0,0,0,.42-.79l2.3.46a5.07,5.07,0,0,1-.89,1.6A4.73,4.73,0,0,1,128.45,75a3.59,3.59,0,0,1-3.08-.91,4.72,4.72,0,0,1-1.16-3.43c0-2.89,1.75-5,4.3-5.25a3.4,3.4,0,0,1,4,3,11.38,11.38,0,0,1,.18,1.89,2.48,2.48,0,0,0,0,.3l-6,.64c.11,1.17.73,1.72,1.79,1.61A2.08,2.08,0,0,0,129.79,72.12Zm-1.31-4.57a1.9,1.9,0,0,0-1.76,1.62l3.43-.37a1.39,1.39,0,0,0-1.66-1.26"/><path class="cls-5" d="M137.84,64.39c2.7-.29,4.38,1.37,4.34,4.26A5,5,0,0,1,137.71,74c-2.68.29-4.37-1.39-4.34-4.33S135.15,64.68,137.84,64.39Zm-.09,7.35c1.16-.12,1.85-1.15,1.87-2.77s-.65-2.52-1.78-2.4-1.88,1.16-1.9,2.76.66,2.53,1.82,2.4"/><path class="cls-5" d="M151.49,64.12a4.46,4.46,0,0,1,1,3.29,5.66,5.66,0,0,1-1.21,3.65,4.25,4.25,0,0,1-4.56,1.26,2.66,2.66,0,0,1-.91-.57c0,.13,0,.32,0,.52v1a16.27,16.27,0,0,0,.08,2.1l-2.74.29a19.34,19.34,0,0,0,.14-2.14l.09-7.12a19.06,19.06,0,0,0-.08-2.28l2.63-.28v.5l0,.27a4.25,4.25,0,0,1,2.75-1.33A3.34,3.34,0,0,1,151.49,64.12Zm-2.19,5.56a3,3,0,0,0,.61-2c0-1.49-.69-2.27-1.94-2.13a2.57,2.57,0,0,0-2,2.61A1.93,1.93,0,0,0,148,70.37a2,2,0,0,0,1.31-.69"/><path class="cls-5" d="M156.46,59.49a16.62,16.62,0,0,0-.13,2.22l-.1,7.73a18.92,18.92,0,0,0,.08,2.19l-2.79.3a16.54,16.54,0,0,0,.13-2.22l.1-7.73a15.1,15.1,0,0,0-.08-2.19Z"/><path class="cls-5" d="M163,68.56a1.71,1.71,0,0,0,.41-.79l2.31.46a4.94,4.94,0,0,1-.9,1.6,4.69,4.69,0,0,1-3.16,1.58,3.58,3.58,0,0,1-3.08-.91,4.72,4.72,0,0,1-1.16-3.43c0-2.89,1.75-5,4.3-5.25a3.4,3.4,0,0,1,4,3,11.39,11.39,0,0,1,.18,1.89c0,.06,0,.15,0,.3l-6,.64c.12,1.17.74,1.72,1.79,1.61A2.08,2.08,0,0,0,163,68.56ZM161.7,64a1.91,1.91,0,0,0-1.77,1.62l3.43-.37A1.39,1.39,0,0,0,161.7,64"/><path class="cls-5" d="M175.78,61.59l-.84,3.32a1.87,1.87,0,0,0-.06.44.28.28,0,0,0,.35.32,1.6,1.6,0,0,0,.85-.47,4.2,4.2,0,0,0,1.12-2.87,3.3,3.3,0,0,0-1.5-3,4.09,4.09,0,0,0-2.38-.36,5.39,5.39,0,0,0-4.86,5.45c0,2.8,1.72,4.45,4.4,4.16a7.28,7.28,0,0,0,2-.54,6.72,6.72,0,0,0,1.51-.93l.79,1.19a6.83,6.83,0,0,1-1.68,1,9.5,9.5,0,0,1-2.83.77,5.09,5.09,0,0,1-4.38-1.26,5.64,5.64,0,0,1-1.5-4.15A7.36,7.36,0,0,1,168.51,60a7.13,7.13,0,0,1,4.93-2.53,4.43,4.43,0,0,1,5.26,4.67,5.79,5.79,0,0,1-1.31,3.65,4,4,0,0,1-2.51,1.47,1.13,1.13,0,0,1-1.14-.45,1,1,0,0,1-.11-.44,2.42,2.42,0,0,1-1.8,1.11c-1.32.14-2.15-.84-2.13-2.51,0-2.47,1.54-4.67,3.31-4.86a1.28,1.28,0,0,1,1.47.66l.14-.52,1.57-.17C176.1,60.34,175.85,61.26,175.78,61.59Zm-2.4,3.08a6.3,6.3,0,0,0,.56-2.31c0-.6-.3-1-.76-.92a1.82,1.82,0,0,0-1.32,1.19,6,6,0,0,0-.56,2.25c0,.78.25,1.15.76,1.1s1-.52,1.32-1.3"/><path class="cls-5" d="M185.38,59.41a2.54,2.54,0,0,1,2.14.58,3,3,0,0,1,.73,2.37l0,3.67a20.93,20.93,0,0,0,.08,2.18l-2.77.3a18.58,18.58,0,0,0,.13-2.22l0-3a1.65,1.65,0,0,0-.2-1.05.88.88,0,0,0-.88-.31c-.74.08-1.42.66-2,1.74l0,3a19.21,19.21,0,0,0,.08,2.19l-2.76.3a18.27,18.27,0,0,0,.14-2.22l.06-4.49a15.5,15.5,0,0,0-.08-2.19l2.66-.29v.61c0,.09,0,.31,0,.41A4,4,0,0,1,185.38,59.41Z"/><path class="cls-5" d="M193.48,56.46a19.55,19.55,0,0,0-.13,2v.31l.48-.05a8.37,8.37,0,0,0,1.31-.21l0,2.42a8.58,8.58,0,0,0-1.22,0l-.56.06,0,3.74c0,.41.06.61.23.72a1,1,0,0,0,.61.09,1.88,1.88,0,0,0,.94-.36l.17,2.2a5.75,5.75,0,0,1-1.84.49,2.8,2.8,0,0,1-2-.3c-.5-.37-.68-.84-.67-1.84l.06-4.46-.5.05a8.54,8.54,0,0,0-1.16.21l0-2.43a7,7,0,0,0,1.18,0l.48-.05v-.31a15.91,15.91,0,0,0-.08-2Z"/><path class="cls-5" d="M204.56,57.57a18,18,0,0,0-.13,2.2l-.06,4.51a15.44,15.44,0,0,0,.08,2.18l-2.65.28v-.63c0-.07,0-.29,0-.39A4,4,0,0,1,199,67.27a2.5,2.5,0,0,1-2.11-.6,3,3,0,0,1-.73-2.37l0-3.66a18.6,18.6,0,0,0-.08-2.18l2.78-.3a18.41,18.41,0,0,0-.13,2.2l0,3a1.68,1.68,0,0,0,.19,1.07.9.9,0,0,0,.87.31,3,3,0,0,0,2-1.71l0-3a19,19,0,0,0-.08-2.18Z"/><path class="cls-5" d="M208.62,59.34l-.06,4.49a19.93,19.93,0,0,0,.08,2.19l-2.79.3A18.16,18.16,0,0,0,206,64.1l.06-4.49a16.67,16.67,0,0,0-.08-2.19l2.79-.3A16,16,0,0,0,208.62,59.34Z"/><polygon class="cls-5" points="208.76 53.88 208.73 56.07 206.01 56.37 206.04 54.18 208.76 53.88"/><path class="cls-5" d="M213.87,54.27a17.52,17.52,0,0,0-.14,2v.31l.48-.05a8.42,8.42,0,0,0,1.31-.21l0,2.42a8.79,8.79,0,0,0-1.23,0l-.56.06,0,3.74c0,.41.06.61.23.72a1,1,0,0,0,.61.09,1.9,1.9,0,0,0,.94-.36l.17,2.2a5.82,5.82,0,0,1-1.84.49,2.78,2.78,0,0,1-2-.3c-.51-.37-.68-.84-.67-1.84l.06-4.46-.5.05a8.45,8.45,0,0,0-1.16.21l0-2.43a7,7,0,0,0,1.18,0l.48-.05v-.31a16,16,0,0,0-.08-2Z"/><path class="cls-5" d="M219.21,58.2l-.06,4.49a19.93,19.93,0,0,0,.08,2.19l-2.79.3a20,20,0,0,0,.13-2.22l.06-4.49a18.41,18.41,0,0,0-.08-2.19l2.79-.3A16,16,0,0,0,219.21,58.2Z"/><polygon class="cls-5" points="219.35 52.75 219.32 54.94 216.61 55.23 216.63 53.04 219.35 52.75"/><path class="cls-5" d="M229.38,54.91c-.27.68-.39,1-.56,1.48l-2.32,6.5a6.49,6.49,0,0,0-.38,1.26l-2.92.31a6.46,6.46,0,0,0-.34-1.19l-2.16-6c-.08-.2-.26-.64-.54-1.36l3-.32a5.77,5.77,0,0,0,.23,1.23l1.18,4.41.05.15.1.4c0-.14.06-.22.08-.27l0-.15.05-.18,1.3-4.66a6.9,6.9,0,0,0,.27-1.28Z"/><path class="cls-5" d="M235.36,60.8a1.78,1.78,0,0,0,.41-.79l2.31.46a5.23,5.23,0,0,1-.9,1.6A4.71,4.71,0,0,1,234,63.65a3.57,3.57,0,0,1-3.07-.91,4.69,4.69,0,0,1-1.17-3.43c0-2.89,1.76-5,4.3-5.25a3.4,3.4,0,0,1,4,3,11.36,11.36,0,0,1,.18,1.89,2.45,2.45,0,0,0,0,.3l-6,.64c.11,1.17.74,1.72,1.79,1.61A2.1,2.1,0,0,0,235.36,60.8ZM234,56.23a1.9,1.9,0,0,0-1.76,1.62l3.43-.37A1.38,1.38,0,0,0,234,56.23"/><polygon class="cls-5" points="241.94 59.5 241.91 62.45 239.21 62.74 239.25 59.79 241.94 59.5"/><path class="cls-5" d="M248.78,52.61a2.55,2.55,0,0,1,2.14.58,3,3,0,0,1,.73,2.37l0,3.67a20.93,20.93,0,0,0,.08,2.18l-2.77.3a18.58,18.58,0,0,0,.13-2.22l0-3a1.65,1.65,0,0,0-.2-1.05.89.89,0,0,0-.88-.31c-.74.08-1.42.66-2,1.74l0,3A19.26,19.26,0,0,0,246,62l-2.76.3a18.23,18.23,0,0,0,.14-2.22l.06-4.49a15.47,15.47,0,0,0-.08-2.19l2.66-.29v.61c0,.09,0,.31,0,.41A4,4,0,0,1,248.78,52.61Z"/><path class="cls-5" d="M258.37,58.33a1.78,1.78,0,0,0,.41-.79l2.31.46a5.23,5.23,0,0,1-.9,1.6A4.71,4.71,0,0,1,257,61.18a3.57,3.57,0,0,1-3.07-.91,4.69,4.69,0,0,1-1.17-3.43c0-2.89,1.76-5,4.3-5.25a3.4,3.4,0,0,1,4,3,11.39,11.39,0,0,1,.18,1.89,2.45,2.45,0,0,0,0,.3l-6,.64c.11,1.17.74,1.72,1.79,1.61A2.1,2.1,0,0,0,258.37,58.33Zm-1.32-4.57a1.9,1.9,0,0,0-1.76,1.62l3.43-.37a1.38,1.38,0,0,0-1.66-1.26"/><path class="cls-5" d="M266.06,48.67a17.47,17.47,0,0,0-.14,2V51l.48-.05a8.25,8.25,0,0,0,1.31-.21l0,2.42a8.58,8.58,0,0,0-1.22,0l-.56.06,0,3.74c0,.41.06.61.23.72a1,1,0,0,0,.61.09,1.85,1.85,0,0,0,.93-.36l.18,2.2a5.82,5.82,0,0,1-1.84.49,2.78,2.78,0,0,1-2-.3c-.51-.37-.68-.84-.67-1.84l.06-4.46-.5.05a8.45,8.45,0,0,0-1.16.21l0-2.43a7,7,0,0,0,1.18,0l.48-.05V51a15.91,15.91,0,0,0-.08-2Z"/><path class="cls-5" d="M86.53,87.39c2.64-.28,4.08,1,4,3.49a4.35,4.35,0,0,1-4.17,4.58l-2.11.23,0,1.86a21.16,21.16,0,0,0,.08,2.19l-2.87.31a17.41,17.41,0,0,0,.13-2.17l.1-7.89a17.68,17.68,0,0,0-.08-2.12c.62,0,1.1-.07,2-.17ZM86.32,93a1.6,1.6,0,0,0,1.5-1.73c0-1-.5-1.48-1.46-1.37l-2,.21,0,3.11,2-.21"/><path class="cls-5" d="M94.47,86.54a16.42,16.42,0,0,0-.14,2.22l0,1.55c0,.11,0,.35,0,.48a4,4,0,0,1,2.79-1.51,2.46,2.46,0,0,1,2.11.59,3,3,0,0,1,.73,2.37l0,3.66a18.6,18.6,0,0,0,.08,2.18l-2.78.3a18.53,18.53,0,0,0,.13-2.22l0-3a1.71,1.71,0,0,0-.19-1.07.89.89,0,0,0-.85-.3,2.91,2.91,0,0,0-2,1.73l0,3a19.14,19.14,0,0,0,.08,2.19l-2.76.3a18.21,18.21,0,0,0,.13-2.22l.1-7.73a15.59,15.59,0,0,0-.08-2.19Z"/><path class="cls-5" d="M105.52,88.26c2.69-.29,4.38,1.38,4.34,4.27a5,5,0,0,1-4.48,5.3c-2.68.29-4.36-1.39-4.33-4.33S102.82,88.55,105.52,88.26Zm-.09,7.35c1.16-.12,1.84-1.14,1.86-2.76s-.65-2.53-1.78-2.4-1.88,1.16-1.9,2.76.66,2.53,1.82,2.4"/><path class="cls-5" d="M116.39,87.21a2.5,2.5,0,0,1,2.14.58,3,3,0,0,1,.73,2.37l0,3.66a18.65,18.65,0,0,0,.08,2.18l-2.78.3a18.53,18.53,0,0,0,.13-2.22l0-3a1.7,1.7,0,0,0-.19-1.06.89.89,0,0,0-.88-.31c-.75.08-1.42.66-2,1.75l0,2.94a19.19,19.19,0,0,0,.08,2.19l-2.76.3a18.17,18.17,0,0,0,.13-2.22l.06-4.49A15.72,15.72,0,0,0,111,88l2.65-.28v.61c0,.09,0,.32,0,.41A4,4,0,0,1,116.39,87.21Z"/><path class="cls-5" d="M126,92.92a1.66,1.66,0,0,0,.41-.79l2.31.47a4.88,4.88,0,0,1-.9,1.59,4.66,4.66,0,0,1-3.16,1.58,3.58,3.58,0,0,1-3.08-.91,4.7,4.7,0,0,1-1.16-3.42c0-2.89,1.75-5,4.3-5.26a3.4,3.4,0,0,1,4,3,11.6,11.6,0,0,1,.18,1.9c0,.05,0,.14,0,.29l-6,.64c.12,1.17.74,1.73,1.79,1.62A2.09,2.09,0,0,0,126,92.92Zm-1.31-4.56A1.9,1.9,0,0,0,122.89,90l3.43-.37a1.38,1.38,0,0,0-1.66-1.25"/><polygon class="cls-5" points="134.38 85.49 137.08 85.2 137.04 88.14 134.35 88.42 134.38 85.49"/><polygon class="cls-5" points="134.27 94.39 134.31 91.44 137.01 91.16 136.97 94.11 134.27 94.39"/><path class="cls-5" d="M150.84,87.65a8.52,8.52,0,0,0,1.32-.26l0,2.66a9.19,9.19,0,0,0-1.3.05l-.4,0v.73a11,11,0,0,0,.08,1.78l-2.75.29a14.87,14.87,0,0,0,.13-1.83V90.4l-3.78.41c-.86.09-1.24.15-1.73.25l0-2.62c.61-.79.61-.79,1.3-1.74l2.94-4a17,17,0,0,0,1.26-1.88l2.74-.29a23.66,23.66,0,0,0-.13,2.44l-.06,4.74ZM148,86.3c0-.66,0-1.46.11-2.11-.28.43-.48.75-.85,1.28l-2,2.81,2.7-.29,0-1.69"/><path class="cls-5" d="M153.25,80.14a17.74,17.74,0,0,0,2.16-.14l4.51-.48c1.23-.13,1.6-.18,2.15-.28l0,2.42a13.32,13.32,0,0,0-1.87,3.13,21.31,21.31,0,0,0-2,7l-3.08.33a24.39,24.39,0,0,1,1.67-5.84A26.88,26.88,0,0,1,159,82.17l-3.81.41a14.22,14.22,0,0,0-2,.32Z"/><path class="cls-5" d="M172.19,80.91a10.1,10.1,0,0,1,.48,3.31,10,10,0,0,1-.89,4.14,5,5,0,0,1-3.93,2.69,3.78,3.78,0,0,1-3.21-1,4,4,0,0,1-1-1.51,10,10,0,0,1-.48-3.29,9.89,9.89,0,0,1,.89-4.13A5,5,0,0,1,168,78.4a3.9,3.9,0,0,1,3.23,1A4,4,0,0,1,172.19,80.91Zm-4.29,7.66c1.3-.14,2-1.52,2-4.12s-.64-3.73-1.94-3.59-2,1.6-2,4c0,2.61.63,3.88,2,3.74"/><path class="cls-5" d="M181.78,84.33a8.51,8.51,0,0,0,1.32-.26l0,2.66a9.22,9.22,0,0,0-1.31.05l-.4,0v.73a10.85,10.85,0,0,0,.09,1.78l-2.75.3a13.3,13.3,0,0,0,.13-1.83v-.72l-3.78.41c-.86.09-1.24.15-1.74.25l0-2.62c.61-.79.61-.79,1.31-1.74l2.94-4a17.05,17.05,0,0,0,1.26-1.88l2.74-.29a23.6,23.6,0,0,0-.14,2.44l-.06,4.74ZM178.89,83c0-.66.05-1.47.11-2.11-.27.43-.47.75-.84,1.28l-2,2.81,2.69-.29,0-1.69"/><path class="cls-5" d="M188.76,76.13a4.15,4.15,0,0,1,3.39.87,2.66,2.66,0,0,1,.73,2,3.16,3.16,0,0,1-2.33,3.14,2.54,2.54,0,0,1,1.71.59,2.65,2.65,0,0,1,.85,2.06,3.76,3.76,0,0,1-.56,2A4,4,0,0,1,191.29,88a7.29,7.29,0,0,1-2.79.87,5.25,5.25,0,0,1-3.1-.48,3.33,3.33,0,0,1-1.35-1.73,4.77,4.77,0,0,1-.21-.76l2.83-.84A1.39,1.39,0,0,0,187,86a1.76,1.76,0,0,0,1.52.47,1.71,1.71,0,0,0,1.72-1.64,1.11,1.11,0,0,0-.7-1.17,3.45,3.45,0,0,0-1.24-.06c-.52.06-1.12.16-1.64.26l0-2.5a10.28,10.28,0,0,0,1.42-.06c1.26-.14,1.9-.68,1.91-1.6s-.49-1.19-1.37-1.09A1.69,1.69,0,0,0,187,80.06l-2.88-.14a4.89,4.89,0,0,1,.91-2A5.17,5.17,0,0,1,188.76,76.13Z"/><path class="cls-5" d="M202.63,76.82a7.5,7.5,0,0,1,.79,3.86,10.89,10.89,0,0,1-.81,4.16,4.86,4.86,0,0,1-2.29,2.46,5.92,5.92,0,0,1-1.79.5,3.83,3.83,0,0,1-3.07-.81,3.64,3.64,0,0,1-1-1.62l2.68-.94a1.43,1.43,0,0,0,.31.6,1.39,1.39,0,0,0,1.24.4,2.17,2.17,0,0,0,1.73-1.2,5.3,5.3,0,0,0,.47-2,3.76,3.76,0,0,1-2.66,1.33,3.28,3.28,0,0,1-3.91-3.62,4.83,4.83,0,0,1,4.51-4.82A3.69,3.69,0,0,1,202.63,76.82Zm-3.93,4.35a2.09,2.09,0,0,0,2-2.09,1.56,1.56,0,0,0-1.86-1.65,2.05,2.05,0,0,0-1.89,2.06,1.52,1.52,0,0,0,1.79,1.68"/><path class="cls-5" d="M206,74.48a8,8,0,0,0,1.6-.08l1.7-.18A14,14,0,0,0,211,74a23.37,23.37,0,0,0-.13,2.36l-.1,7.64a18.31,18.31,0,0,0,.08,2.19l-2.91.31a18.76,18.76,0,0,0,.13-2.22l.09-7.43-.53.06a14.12,14.12,0,0,0-1.63.27Z"/><path class="cls-5" d="M223.76,75.38a10.71,10.71,0,0,1-.41,7.45,5,5,0,0,1-3.92,2.69,3.79,3.79,0,0,1-3.22-1,3.94,3.94,0,0,1-.95-1.52,10.61,10.61,0,0,1,.41-7.41,4.94,4.94,0,0,1,3.91-2.72,3.91,3.91,0,0,1,3.23,1A4,4,0,0,1,223.76,75.38ZM219.46,83c1.31-.14,2-1.53,2-4.12s-.65-3.73-1.94-3.59-2,1.61-2,4c0,2.61.63,3.88,2,3.74"/><path class="cls-5" d="M233.57,73.5a7.5,7.5,0,0,1,.79,3.86,10.9,10.9,0,0,1-.81,4.16A4.86,4.86,0,0,1,231.26,84a5.92,5.92,0,0,1-1.79.5,3.83,3.83,0,0,1-3.07-.81,3.64,3.64,0,0,1-1-1.62l2.68-.94a1.43,1.43,0,0,0,.31.6,1.39,1.39,0,0,0,1.24.4,2.17,2.17,0,0,0,1.73-1.2,5.29,5.29,0,0,0,.47-2,3.76,3.76,0,0,1-2.66,1.33,3.28,3.28,0,0,1-3.91-3.62,4.83,4.83,0,0,1,4.51-4.82A3.69,3.69,0,0,1,233.57,73.5Zm-3.93,4.35a2.09,2.09,0,0,0,2-2.09,1.56,1.56,0,0,0-1.86-1.65,2.05,2.05,0,0,0-1.89,2.06,1.52,1.52,0,0,0,1.79,1.68"/><path class="cls-5" d="M243.67,77.7a8.52,8.52,0,0,0,1.32-.26l0,2.66a9.23,9.23,0,0,0-1.31.05l-.4,0v.73a10.88,10.88,0,0,0,.09,1.78l-2.75.3a13.3,13.3,0,0,0,.13-1.83v-.72l-3.78.41c-.86.09-1.24.15-1.74.25l0-2.62c.61-.79.61-.79,1.3-1.74l2.94-4a17.06,17.06,0,0,0,1.26-1.88l2.74-.29a23.66,23.66,0,0,0-.14,2.44l-.06,4.74Zm-2.89-1.35c0-.66.05-1.47.11-2.11-.27.43-.47.75-.84,1.28l-2,2.81,2.69-.29,0-1.69"/></g></g></svg>