<svg xmlns="http://www.w3.org/2000/svg" viewBox="0 0 155.9 27.36"><defs><style>.cls-1,.cls-2{fill:#010101;}.cls-2{stroke:#000;stroke-miterlimit:10;stroke-width:0.93px;}</style></defs><title>logo</title><g id="Layer_2" data-name="Layer 2"><g id="Layer_1-2" data-name="Layer 1"><path class="cls-1" d="M20.75,2.14"/><path d="M20.75,4.05c2.13,0,2.13-3.82,0-3.82s-2.13,3.82,0,3.82Z"/><path class="cls-1" d="M90.28,2.13"/><path d="M90.28,4c2.13,0,2.13-3.82,0-3.82S88.14,4,90.28,4Z"/><polygon class="cls-2" points="70.12 15.29 73.1 15.29 75.4 12.05 72.42 12.05 72.34 12.05 69.37 12.05 67.06 15.29 70.04 15.29 70.12 15.29"/><polygon class="cls-2" points="76.89 15.29 79.2 12.05 76.14 12.05 73.83 15.29 76.89 15.29"/><polygon class="cls-2" points="77.66 17.17 77.66 17.17 75.9 19.65 74.06 22.24 77.89 22.25 79.65 19.76 81.49 17.17 83.29 14.65 79.46 14.65 77.66 17.17"/><polygon class="cls-2" points="81.31 12.05 79.47 14.64 83.29 14.64 85.14 12.05 81.31 12.05"/><polygon class="cls-2" points="74.05 22.25 72.2 24.84 72.21 24.84 70.79 26.83 74.62 26.83 76.47 24.24 76.46 24.24 77.88 22.25 74.05 22.25"/><polygon class="cls-2" points="15.89 19.37 14.1 21.8 14.09 21.82 14.05 21.86 12.26 24.3 16.09 24.3 17.93 21.8 17.93 21.8 19.64 19.48 21.49 16.98 17.66 16.97 15.89 19.37"/><polygon class="cls-2" points="10.41 26.8 14.23 26.81 16.08 24.31 12.25 24.31 10.41 26.8"/><polygon class="cls-2" points="17.93 15.16 18.01 15.16 18.99 15.16 17.66 16.96 21.5 16.97 23.34 14.47 23.34 14.47 25.13 12.04 23.3 12.04 23.3 12.04 20.32 12.04 20.24 12.04 17.26 12.04 14.96 15.16 17.93 15.16"/><polygon class="cls-2" points="8.44 21.8 8.44 21.8 10.16 19.48 12 16.98 8.17 16.97 6.41 19.37 6.41 19.37 4.57 21.86 2.77 24.3 6.6 24.3 8.44 21.8"/><polygon class="cls-2" points="4.75 26.81 6.59 24.31 2.76 24.31 0.92 26.8 4.75 26.81"/><polygon class="cls-2" points="13.34 15.16 14.94 15.16 17.25 12.04 14.19 12.04 14.19 12.04 11.82 12.04 9.97 14.53 8.18 16.96 12.01 16.97 13.34 15.16"/><polygon class="cls-2" points="52.35 19.48 54.15 17.05 54.16 17.03 54.19 16.98 55.99 14.55 52.16 14.55 50.32 17.04 50.32 17.04 48.6 19.37 46.76 21.87 50.59 21.87 52.35 19.48"/><polygon class="cls-2" points="57.84 12.04 54.01 12.04 52.17 14.54 55.99 14.54 57.84 12.04"/><polygon class="cls-2" points="50.31 23.68 50.23 23.68 49.25 23.68 50.58 21.88 46.75 21.88 44.91 24.38 44.91 24.38 43.11 26.81 44.95 26.81 44.95 26.81 47.92 26.81 48.01 26.81 50.98 26.81 53.29 23.68 50.31 23.68"/><polygon class="cls-2" points="59.8 17.04 59.8 17.04 58.08 19.37 56.24 21.87 60.07 21.87 61.84 19.48 61.84 19.48 63.68 16.98 65.47 14.55 61.64 14.55 59.8 17.04"/><polygon class="cls-2" points="63.49 12.04 61.65 14.54 65.48 14.54 67.32 12.04 63.49 12.04"/><polygon class="cls-2" points="54.9 23.68 53.3 23.68 50.99 26.81 54.05 26.81 54.05 26.81 56.43 26.81 58.27 24.32 60.06 21.88 56.23 21.88 54.9 23.68"/><polygon class="cls-2" points="110.33 17.2 108.61 19.62 106.77 22.21 110.6 22.21 112.37 19.73 114.16 17.21 114.16 17.21 116 14.62 112.17 14.62 110.33 17.2"/><polygon class="cls-2" points="114 12.05 112.16 14.64 115.99 14.64 117.83 12.05 114 12.05"/><polygon class="cls-2" points="106.77 22.22 104.92 24.81 104.92 24.81 103.47 26.85 107.3 26.86 109.14 24.27 109.14 24.27 110.59 22.22 106.77 22.22"/><polygon class="cls-2" points="120.67 15.29 123.65 15.29 125.95 12.04 122.97 12.04 122.89 12.04 119.92 12.04 117.61 15.29 120.59 15.29 120.67 15.29"/><polygon class="cls-2" points="126.72 15.29 129.02 12.04 125.96 12.04 123.66 15.29 126.72 15.29"/><polygon class="cls-2" points="142.55 12.48 139.84 14.89 135.62 14.9 135.52 14.9 138.23 12.48 138.24 12.49 142.55 12.48"/><polygon class="cls-2" points="132.86 17.3 132.82 17.3 135.54 14.88 139.76 14.87 139.74 14.89 139.84 14.89 137.14 17.3 132.86 17.3"/><polygon class="cls-2" points="137.1 17.29 137.14 17.29 134.45 19.69 134.44 19.7 130.15 19.71 130.11 19.71 132.82 17.3 137.1 17.29 137.1 17.29"/><polygon class="cls-2" points="127.51 22.1 127.42 22.1 130.12 19.71 134.4 19.7 134.44 19.7 131.75 22.09 127.51 22.1"/><polygon class="cls-2" points="131.67 22.08 131.76 22.08 129.05 24.48 124.77 24.49 124.72 24.49 127.44 22.08 131.68 22.07 131.67 22.08"/><polygon class="cls-2" points="129.01 24.48 129.06 24.48 126.35 26.88 122.02 26.89 124.75 24.47 129.03 24.46 129.01 24.48"/><polygon class="cls-2" points="127.4 17.27 127.4 17.27 125.6 19.79 125.6 19.79 123.84 22.27 127.67 22.27 129.51 19.68 129.51 19.68 131.23 17.27 131.23 17.26 131.28 17.2 133.07 14.68 129.24 14.68 127.4 17.27"/><polygon class="cls-2" points="123.86 22.25 122.01 24.84 122.01 24.84 120.56 26.88 124.39 26.88 126.23 24.29 126.23 24.29 127.69 22.25 123.86 22.25"/><polyline class="cls-2" points="138.73 12.05 138.72 12.05 138.71 12.05 136.01 14.46 136.11 14.46 140.33 14.45 143.03 12.04 138.73 12.05"/><polygon class="cls-2" points="131.11 12.04 129.27 14.63 133.1 14.64 134.94 12.05 131.11 12.04"/><polygon class="cls-2" points="87.99 15.29 90.97 15.29 93.27 12.04 90.3 12.04 90.22 12.04 87.24 12.04 84.93 15.29 87.91 15.29 87.99 15.29"/><polygon class="cls-2" points="103.47 15.29 103.55 15.29 106.53 15.29 108.83 12.04 105.85 12.04 105.77 12.04 105.42 12.04 102.79 12.04 102.36 12.04 100.06 15.29 100.49 15.29 103.12 15.29 103.47 15.29"/><polygon class="cls-2" points="106.54 15.29 109.59 15.29 111.9 12.04 108.84 12.04 106.54 15.29"/><polygon class="cls-2" points="93.61 17.2 91.89 19.62 90.05 22.21 93.88 22.21 95.64 19.73 97.44 17.21 97.44 17.21 99.28 14.62 95.45 14.61 93.61 17.2"/><polygon class="cls-2" points="90.04 22.22 88.2 24.81 88.2 24.81 86.75 26.85 90.58 26.85 92.42 24.26 92.42 24.26 93.87 22.22 90.04 22.22"/><polygon class="cls-2" points="101.84 5.63 100.12 8.05 98.28 10.64 102.11 10.64 103.88 8.16 105.67 5.64 105.67 5.64 107.51 3.05 103.68 3.04 101.84 5.63"/><polygon class="cls-2" points="105.51 0.47 103.67 3.07 107.5 3.07 109.34 0.48 105.51 0.47"/><polygon class="cls-2" points="98.27 10.65 96.43 13.24 96.43 13.24 94.98 15.28 98.81 15.28 100.65 12.69 100.65 12.69 102.1 10.65 98.27 10.65"/><polygon class="cls-2" points="94.27 15.29 94.35 15.29 97.33 15.29 99.63 12.04 96.65 12.04 96.57 12.04 96.22 12.04 93.59 12.04 93.17 12.04 90.86 15.29 91.29 15.29 93.92 15.29 94.27 15.29"/><polygon class="cls-2" points="98.1 15.29 98.18 15.29 101.15 15.29 103.46 12.04 100.48 12.04 100.4 12.04 100.05 12.04 97.42 12.04 96.99 12.04 94.69 15.29 95.12 15.29 97.75 15.29 98.1 15.29"/><polygon class="cls-2" points="27.96 15.28 30.94 15.28 33.24 12.03 30.27 12.03 30.18 12.03 27.21 12.03 24.9 15.28 27.88 15.28 27.96 15.28"/><polygon class="cls-2" points="43.44 15.28 43.52 15.28 46.49 15.28 48.8 12.03 45.82 12.03 45.74 12.03 45.39 12.03 42.76 12.03 42.33 12.03 40.03 15.28 40.46 15.28 43.09 15.28 43.44 15.28"/><polygon class="cls-2" points="46.51 15.28 49.56 15.28 51.87 12.03 48.81 12.03 46.51 15.28"/><polygon class="cls-2" points="33.58 17.19 31.86 19.61 30.02 22.2 33.85 22.2 35.61 19.72 37.41 17.2 37.41 17.2 39.25 14.61 35.42 14.6 33.58 17.19"/><polygon class="cls-2" points="30.01 22.21 28.17 24.8 28.17 24.8 26.72 26.84 30.55 26.84 32.39 24.25 32.39 24.25 33.84 22.21 30.01 22.21"/><polygon class="cls-2" points="41.81 5.62 40.09 8.04 38.25 10.63 42.08 10.63 43.85 8.15 45.64 5.63 45.64 5.63 47.48 3.04 43.65 3.03 41.81 5.62"/><polygon class="cls-2" points="45.48 0.47 43.63 3.06 47.46 3.06 49.31 0.47 45.48 0.47"/><polygon class="cls-2" points="38.24 10.64 36.4 13.23 36.4 13.23 34.95 15.27 38.78 15.27 40.62 12.68 40.62 12.68 42.07 10.64 38.24 10.64"/><polygon class="cls-2" points="34.24 15.28 34.32 15.28 37.3 15.28 39.6 12.03 36.62 12.03 36.54 12.03 36.19 12.03 33.56 12.03 33.13 12.03 30.83 15.28 31.26 15.28 33.89 15.28 34.24 15.28"/><polygon class="cls-2" points="38.06 15.28 38.15 15.28 41.12 15.28 43.43 12.03 40.45 12.03 40.37 12.03 40.02 12.03 37.39 12.03 36.96 12.03 34.66 15.28 35.09 15.28 37.72 15.28 38.06 15.28"/><polygon class="cls-2" points="145.02 15.27 148 15.27 151.61 12.02 148.63 12.02 148.55 12.02 145.57 12.02 141.96 15.27 144.94 15.27 145.02 15.27"/><polygon class="cls-2" points="151.07 15.27 154.68 12.02 151.62 12.02 148.01 15.27 151.07 15.27"/><polygon class="cls-2" points="131.99 26.87 134.96 26.87 138.58 23.63 135.6 23.63 135.52 23.63 132.54 23.63 128.93 26.87 131.9 26.87 131.99 26.87"/><polygon class="cls-2" points="138.03 26.87 141.65 23.63 138.59 23.63 134.97 26.87 138.03 26.87"/><polygon class="cls-2" points="138.5 21.06 141.48 21.06 145.1 17.82 142.12 17.82 142.04 17.82 139.06 17.82 135.45 21.06 138.42 21.06 138.5 21.06"/><polygon class="cls-2" points="144.55 21.06 148.17 17.82 145.11 17.82 141.49 21.06 144.55 21.06"/></g></g></svg>