<svg xmlns="http://www.w3.org/2000/svg" viewBox="0 0 317.93 113.77"><defs><style>.cls-1{isolation:isolate;}.cls-2{fill:#09753a;}.cls-3{fill:#005627;}.cls-4{fill:#006732;}.cls-5{fill:#fff;}</style></defs><title>movement</title><g id="Layer_2" data-name="Layer 2"><g id="Layer_1-2" data-name="Layer 1"><g class="cls-1"><polygon class="cls-2" points="0 5.15 0.18 80.95 305.56 113.77 305.38 37.97 0 5.15"/><polygon class="cls-3" points="305.56 113.77 317.93 108.63 317.75 32.82 305.38 37.97 305.56 113.77"/><polygon class="cls-4" points="305.38 37.97 317.75 32.82 12.37 0 0 5.15 305.38 37.97"/></g><path class="cls-5" d="M27,25.46a11.31,11.31,0,0,0-.25,1.88l-.53,6.84a12,12,0,0,0,0,1.9l-2.81-.3a11.79,11.79,0,0,0,.25-1.88l.53-6.84a11.49,11.49,0,0,0,0-1.9Z"/><path class="cls-5" d="M32.71,25.83a7,7,0,0,1,1.92.47l-.54,1.84a2.5,2.5,0,0,0-1.24-.46c-.62-.07-.89.17-.94.83l0,.33.37,0A17,17,0,0,0,34,29l-.17,2.15a13.23,13.23,0,0,0-1.66-.26l-.4,0-.3,3.9a13.31,13.31,0,0,0,0,1.94l-2.66-.28A13.7,13.7,0,0,0,29,34.44l.3-3.9-.34,0a9.5,9.5,0,0,0-1.44-.06l.17-2.15a11.21,11.21,0,0,0,1.42.25l.34,0,0-.6C29.61,26.28,30.62,25.61,32.71,25.83Z"/><path class="cls-5" d="M52.4,30.69a4.05,4.05,0,0,1,3.89,4.6,3.88,3.88,0,0,1-4.55,3.78,4.07,4.07,0,0,1-3.87-4.64A3.81,3.81,0,0,1,52.4,30.69Zm-.5,6.44c1.11.12,1.81-.65,1.92-2.06s-.47-2.34-1.56-2.45-1.85.65-2,2.06.49,2.34,1.6,2.46"/><path class="cls-5" d="M47.74,30.5c-.37.63-.37.63-.89,1.63L43.4,38.57a2.72,2.72,0,0,1-3,1.45,8,8,0,0,1-1.73-.4l.44-2a2.07,2.07,0,0,0,1,.39,1.06,1.06,0,0,0,1.08-.49l.31-.52-2-5.64C39,30,39,29.9,38.84,29.56l2.78.29a8.73,8.73,0,0,0,.37,1.7l.95,3.08,1.36-2.78A8,8,0,0,0,45,30.21Z"/><path class="cls-5" d="M65.66,32.38a13.47,13.47,0,0,0-.25,1.9l-.31,4a12.09,12.09,0,0,0,0,1.92l-2.55-.27,0-.55a2.41,2.41,0,0,1,0-.34,3.42,3.42,0,0,1-2.75.82,2.85,2.85,0,0,1-2-.93,2.8,2.8,0,0,1-.57-2.22l.25-3.21a16.78,16.78,0,0,0,.05-1.92l2.65.28a13.9,13.9,0,0,0-.24,1.9l-.2,2.62a1.45,1.45,0,0,0,.13,1,1,1,0,0,0,.8.44,2.32,2.32,0,0,0,2-1.12L63,34A16.7,16.7,0,0,0,63,32.1Z"/><path class="cls-5" d="M78.25,41.56l-2.48-.26,0-.59a3.67,3.67,0,0,1-2.54.51,3.22,3.22,0,0,1-2.16-.94,2.35,2.35,0,0,1-.56-1.81,2.09,2.09,0,0,1,1.07-1.77,5.29,5.29,0,0,1,2.73-.55c.5,0,.89,0,1.81.1l0-.29c0-.61-.3-.93-1.15-1s-1.27.13-1.51.74L71.11,35a2.68,2.68,0,0,1,1.2-1.43,4.82,4.82,0,0,1,2.93-.42,5.62,5.62,0,0,1,2.33.7,2.39,2.39,0,0,1,1,2.42l-.27,3.45A15.26,15.26,0,0,0,78.25,41.56Zm-2.78-2.38a1.26,1.26,0,0,0,.54-.94l0-.35a7.5,7.5,0,0,0-2.23,0,.91.91,0,0,0-.81.76c0,.46.32.77,1,.84a2.34,2.34,0,0,0,1.49-.33"/><path class="cls-5" d="M85.31,34.29a5.08,5.08,0,0,1,1.25.29l-.79,2.23a4,4,0,0,0-1.28-.38,1.76,1.76,0,0,0-2.05,1.63l-.15,2a13.69,13.69,0,0,0,0,1.93L79.6,41.7a13.94,13.94,0,0,0,.25-1.92l.3-3.93a12.32,12.32,0,0,0,.05-1.94l2.54.27-.08,1A2.83,2.83,0,0,1,85.31,34.29Z"/><path class="cls-5" d="M91.92,40.91a1.24,1.24,0,0,0,.44-.61l2.17.86a3.68,3.68,0,0,1-.94,1.23,4.72,4.72,0,0,1-6-.63,4.5,4.5,0,0,1-.93-3.24,4,4,0,0,1,8-.38,9.51,9.51,0,0,1,.07,1.69c0,.05,0,.13,0,.26L89,39.48a1.68,1.68,0,0,0,1.62,1.77A1.84,1.84,0,0,0,91.92,40.91Zm-1-4.27a1.5,1.5,0,0,0-1.78,1.08l3.29.35a1.55,1.55,0,0,0-1.51-1.42"/><path class="cls-5" d="M102.78,38.23l-.3,3.93a15.87,15.87,0,0,0,0,1.94l-2.67-.28A15.38,15.38,0,0,0,100,41.9l.3-3.93a14.78,14.78,0,0,0,.05-1.94l2.67.28A12.06,12.06,0,0,0,102.78,38.23Z"/><polygon class="cls-5" points="103.21 33.47 103.06 35.39 100.47 35.11 100.62 33.2 103.21 33.47"/><path class="cls-5" d="M109.56,36.8a2.9,2.9,0,0,1,2,.93,2.8,2.8,0,0,1,.56,2.22l-.25,3.21a16.86,16.86,0,0,0,0,1.93l-2.66-.28a14,14,0,0,0,.25-1.92l.2-2.63a1.48,1.48,0,0,0-.13-1,1,1,0,0,0-.82-.45,2.26,2.26,0,0,0-2,1.14l-.2,2.58a15.07,15.07,0,0,0,0,1.94l-2.64-.28a15.4,15.4,0,0,0,.25-1.92l.3-3.93a13.62,13.62,0,0,0,.05-1.94l2.54.27,0,.53c0,.08,0,.27,0,.36A3.44,3.44,0,0,1,109.56,36.8Z"/><path class="cls-5" d="M124.47,44.33a1.24,1.24,0,0,0,.44-.61l2.17.86a3.68,3.68,0,0,1-.94,1.23,4.72,4.72,0,0,1-6-.63,4.46,4.46,0,0,1-.93-3.24,4,4,0,0,1,8-.38,10.46,10.46,0,0,1,.07,1.69c0,.05,0,.13,0,.26l-5.75-.6a1.66,1.66,0,0,0,1.61,1.76A1.84,1.84,0,0,0,124.47,44.33Zm-1-4.27a1.5,1.5,0,0,0-1.78,1.08l3.29.35a1.55,1.55,0,0,0-1.51-1.42"/><path class="cls-5" d="M117.43,35.78a15.3,15.3,0,0,0-.23,1.74l0,.27.46,0a8.35,8.35,0,0,0,1.25.06L118.72,40a8,8,0,0,0-1.17-.2l-.53-.06L116.77,43c0,.36,0,.55.18.68a1.12,1.12,0,0,0,.57.2,1.71,1.71,0,0,0,.91-.14l0,2a5.32,5.32,0,0,1-1.79.07,3.2,3.2,0,0,1-1.84-.64,1.86,1.86,0,0,1-.53-1.75l.3-3.91-.49-.05a7.52,7.52,0,0,0-1.12,0l.16-2.13a7.55,7.55,0,0,0,1.13.2l.46,0,0-.27a14.2,14.2,0,0,0,0-1.76Z"/><path class="cls-5" d="M133.77,39.38a5.08,5.08,0,0,1,1.25.29l-.79,2.23a4.1,4.1,0,0,0-1.29-.39,1.8,1.8,0,0,0-1.57.53,1.85,1.85,0,0,0-.47,1.1l-.15,2a13.65,13.65,0,0,0,0,1.93l-2.64-.28a15.49,15.49,0,0,0,.25-1.92l.3-3.93a13.53,13.53,0,0,0,.05-1.94l2.54.27-.08,1A2.83,2.83,0,0,1,133.77,39.38Z"/><path class="cls-5" d="M140.39,46a1.18,1.18,0,0,0,.43-.61l2.18.86a3.56,3.56,0,0,1-1,1.23,4.08,4.08,0,0,1-3.09.76,4.16,4.16,0,0,1-2.89-1.39,4.49,4.49,0,0,1-.92-3.24,4,4,0,0,1,8-.38,9.72,9.72,0,0,1,.06,1.69,1.68,1.68,0,0,0,0,.26l-5.75-.6a1.67,1.67,0,0,0,1.61,1.76A1.84,1.84,0,0,0,140.39,46Zm-1-4.27a1.5,1.5,0,0,0-1.77,1.08l3.28.34a1.54,1.54,0,0,0-1.51-1.42"/><path class="cls-5" d="M148.05,40.77a4,4,0,0,1,2.65,1.11,2.71,2.71,0,0,1,.72,1.54l-2.48,0c0-.54-.33-.8-1-.87s-1.09.11-1.11.44.23.5,1.47.91a7.88,7.88,0,0,1,2,.83,2.07,2.07,0,0,1,1.08,2.08,2.26,2.26,0,0,1-.79,1.63,4.13,4.13,0,0,1-3.1.62,4,4,0,0,1-3.26-1.63,3,3,0,0,1-.41-1.33l2.55,0c.07.68.49,1,1.34,1.1s1.22-.09,1.25-.48a.53.53,0,0,0-.25-.49,3.34,3.34,0,0,0-1-.4,15.94,15.94,0,0,1-1.86-.66,2.51,2.51,0,0,1-1.2-1,2.48,2.48,0,0,1-.22-1.24C144.56,41.34,145.92,40.54,148.05,40.77Z"/><path class="cls-5" d="M156.59,39.9a15.3,15.3,0,0,0-.23,1.74l0,.27.46,0A8.35,8.35,0,0,0,158,42l-.16,2.12a8,8,0,0,0-1.17-.2l-.53-.06-.25,3.27c0,.36,0,.55.18.68a1.15,1.15,0,0,0,.57.2,1.71,1.71,0,0,0,.91-.14l0,2a5.33,5.33,0,0,1-1.79.07,3.2,3.2,0,0,1-1.84-.64,1.86,1.86,0,0,1-.53-1.75l.3-3.91-.49-.05a7.53,7.53,0,0,0-1.12,0l.16-2.13a7.55,7.55,0,0,0,1.13.2l.46,0,0-.27a14.2,14.2,0,0,0,0-1.76Z"/><path class="cls-5" d="M163.64,48.45a1.24,1.24,0,0,0,.44-.61l2.17.86a3.68,3.68,0,0,1-.94,1.23,4.72,4.72,0,0,1-6-.63,4.46,4.46,0,0,1-.93-3.24,4,4,0,0,1,8-.38,10.46,10.46,0,0,1,.07,1.69c0,.05,0,.13,0,.26L160.7,47a1.67,1.67,0,0,0,1.61,1.76A1.84,1.84,0,0,0,163.64,48.45Zm-1-4.27a1.5,1.5,0,0,0-1.78,1.08l3.29.35a1.55,1.55,0,0,0-1.51-1.42"/><path class="cls-5" d="M176.26,43.17l-.51,6.61a14.67,14.67,0,0,0,0,2l-2.52-.26,0-.42a1.67,1.67,0,0,1,0-.27,3.54,3.54,0,0,1-2.65.65c-2.32-.24-3.61-2-3.41-4.53a4.21,4.21,0,0,1,1.34-3,3.53,3.53,0,0,1,2.67-.73,4,4,0,0,1,2.55,1.22,4.39,4.39,0,0,1,0-.48l.08-1.06a15.32,15.32,0,0,0,.06-2l2.62.28A13.74,13.74,0,0,0,176.26,43.17Zm-4.94,6.43a2,2,0,0,0,2.13-2,2.05,2.05,0,0,0-1.82-2.34c-1.11-.12-1.88.63-2,2a2.34,2.34,0,0,0,.46,1.75,1.84,1.84,0,0,0,1.2.62"/><path class="cls-5" d="M184.32,46.8l-.3,3.93a18,18,0,0,0-.05,1.94l-2.67-.28a13.8,13.8,0,0,0,.26-1.92l.3-3.93a13.29,13.29,0,0,0,0-1.94l2.67.28A13.47,13.47,0,0,0,184.32,46.8Z"/><polygon class="cls-5" points="184.75 42.04 184.6 43.96 182.01 43.68 182.16 41.77 184.75 42.04"/><path class="cls-5" d="M191.09,45.37a2.88,2.88,0,0,1,2,.93,2.8,2.8,0,0,1,.57,2.22l-.25,3.21a17.06,17.06,0,0,0-.05,1.93l-2.65-.28a15.68,15.68,0,0,0,.25-1.92l.2-2.63a1.43,1.43,0,0,0-.13-1,1,1,0,0,0-.81-.45,2.25,2.25,0,0,0-2,1.14l-.2,2.58a16.92,16.92,0,0,0-.05,1.94l-2.64-.28a13.74,13.74,0,0,0,.25-1.92l.3-3.93a12.2,12.2,0,0,0,0-1.94l2.55.27,0,.53c0,.08,0,.27,0,.36A3.44,3.44,0,0,1,191.09,45.37Z"/><path class="cls-5" d="M214,53.74a1.18,1.18,0,0,0,.43-.61l2.18.86a3.68,3.68,0,0,1-1,1.23,4.1,4.1,0,0,1-3.1.76,4.15,4.15,0,0,1-2.88-1.39,4.49,4.49,0,0,1-.92-3.24,4,4,0,0,1,8-.38,8.78,8.78,0,0,1,.07,1.69,1.66,1.66,0,0,0,0,.26L211,52.3a1.67,1.67,0,0,0,1.61,1.76A1.86,1.86,0,0,0,214,53.74Zm-1-4.27a1.5,1.5,0,0,0-1.77,1.08l3.28.34A1.54,1.54,0,0,0,213,49.47"/><path class="cls-5" d="M204.68,46.75c2.33.24,3.56,1.87,3.37,4.4a4.44,4.44,0,0,1-1.39,3.12,3.49,3.49,0,0,1-2.73.72,3.54,3.54,0,0,1-2.45-1.18v.27l0,.42-2.5-.26a16.23,16.23,0,0,0,.25-2l.51-6.61a15.45,15.45,0,0,0,.06-2l2.59.27a15.58,15.58,0,0,0-.24,2L202,47a4.23,4.23,0,0,1-.06.48A3.67,3.67,0,0,1,204.68,46.75ZM203.54,53c1.11.12,1.92-.72,2-2.07s-.51-2.17-1.63-2.28a1.94,1.94,0,0,0-2.16,1.92A2.14,2.14,0,0,0,203.54,53"/><path class="cls-5" d="M221.94,48.5a3.67,3.67,0,0,1,3.55,3.06l-2.33.23a1.86,1.86,0,0,0-.3-.79,1.4,1.4,0,0,0-1-.56c-1-.11-1.71.65-1.82,2.05s.47,2.34,1.5,2.45a1.43,1.43,0,0,0,1.25-.44,1.2,1.2,0,0,0,.28-.56l2.32.62a3.36,3.36,0,0,1-4,2.33,4.23,4.23,0,0,1-2.89-1.41,4.49,4.49,0,0,1-.91-3.22A3.77,3.77,0,0,1,221.94,48.5Z"/><path class="cls-5" d="M230.66,49.42a4.05,4.05,0,0,1,3.89,4.6A3.88,3.88,0,0,1,230,57.8a4.07,4.07,0,0,1-3.87-4.64A3.81,3.81,0,0,1,230.66,49.42Zm-.5,6.44c1.11.12,1.81-.65,1.92-2.06s-.47-2.34-1.56-2.45-1.85.65-2,2.06.49,2.34,1.6,2.46"/><path class="cls-5" d="M245.69,51.08c1.83.19,2.68,1.29,2.53,3.22L248,57.46a13.69,13.69,0,0,0,0,1.93l-2.66-.28a13,13,0,0,0,.26-1.92l.2-2.63c.07-1-.18-1.36-.91-1.43a1.75,1.75,0,0,0-1.66,1.2l-.2,2.61a14.16,14.16,0,0,0-.05,1.93l-2.65-.28a14.85,14.85,0,0,0,.25-1.92l.2-2.63a1.58,1.58,0,0,0-.14-1,.86.86,0,0,0-.68-.39,1.83,1.83,0,0,0-1.74,1.2L238,56.4a14,14,0,0,0,0,1.94l-2.63-.28a13.5,13.5,0,0,0,.25-1.92l.3-3.93a11.44,11.44,0,0,0,0-1.94l2.53.27,0,.53c0,.05,0,.05,0,.18v.13a3,3,0,0,1,2.52-.8,2.85,2.85,0,0,1,1.6.63,1.7,1.7,0,0,1,.47.7A3.42,3.42,0,0,1,245.69,51.08Z"/><path class="cls-5" d="M252.28,53.94l-.3,3.93a17.94,17.94,0,0,0,0,1.94l-2.67-.28a15.38,15.38,0,0,0,.25-1.92l.3-3.93a14.78,14.78,0,0,0,.05-1.94l2.67.28A12.09,12.09,0,0,0,252.28,53.94Z"/><polygon class="cls-5" points="252.71 49.18 252.56 51.1 249.97 50.83 250.12 48.91 252.71 49.18"/><path class="cls-5" d="M259.06,52.51a2.88,2.88,0,0,1,2,.93,2.8,2.8,0,0,1,.56,2.22l-.25,3.21a16.86,16.86,0,0,0,0,1.93l-2.66-.28a14,14,0,0,0,.26-1.92l.2-2.63a1.48,1.48,0,0,0-.13-1,1,1,0,0,0-.82-.45,2.26,2.26,0,0,0-2,1.14l-.2,2.58a15.11,15.11,0,0,0,0,1.94L253.29,60a15.4,15.4,0,0,0,.25-1.92l.3-3.93a13.61,13.61,0,0,0,.05-1.94l2.54.27,0,.53c0,.08,0,.27,0,.36A3.44,3.44,0,0,1,259.06,52.51Z"/><path class="cls-5" d="M268.88,53.74l2.5.26a11.51,11.51,0,0,0-.24,1.76l-.35,4.48a3.48,3.48,0,0,1-1.57,3.05,5.31,5.31,0,0,1-3.1.44,4.8,4.8,0,0,1-3.66-1.82l1.93-1A2.39,2.39,0,0,0,266.26,62a1.9,1.9,0,0,0,1.6-.39,2,2,0,0,0,.52-1.33,3.12,3.12,0,0,1-2.39.6,3.58,3.58,0,0,1-3.34-4.17,3.39,3.39,0,0,1,3.92-3.38,3.62,3.62,0,0,1,2.27,1l0-.28Zm-2.28,5.32a1.75,1.75,0,0,0,2-1.76,1.88,1.88,0,0,0-1.63-2.14c-1-.11-1.75.6-1.84,1.78a1.77,1.77,0,0,0,1.52,2.11"/><path class="cls-5" d="M284,63.18l-2.48-.26,0-.59a3.66,3.66,0,0,1-2.53.51,3.2,3.2,0,0,1-2.16-.94,2.36,2.36,0,0,1-.57-1.81,2.1,2.1,0,0,1,1.08-1.77,5.26,5.26,0,0,1,2.72-.55c.51,0,.89,0,1.81.1l0-.29c0-.61-.3-.93-1.14-1s-1.28.13-1.51.74l-2.41-.65A2.67,2.67,0,0,1,278,55.21a4.84,4.84,0,0,1,2.93-.42,5.56,5.56,0,0,1,2.33.7,2.37,2.37,0,0,1,1,2.42L284,61.36A15.31,15.31,0,0,0,284,63.18Zm-2.78-2.38a1.26,1.26,0,0,0,.54-.94l0-.35a7.5,7.5,0,0,0-2.23,0,.91.91,0,0,0-.81.76c0,.46.33.77,1,.84a2.34,2.34,0,0,0,1.48-.33"/><path class="cls-5" d="M33.29,45.18a4.2,4.2,0,0,1,.79,3.09,4.13,4.13,0,0,1-1.34,3A3.59,3.59,0,0,1,30,52a4.75,4.75,0,0,1-1.7-.51,3.13,3.13,0,0,1-.83-.68c0,.11,0,.28,0,.46l-.07.88a12.83,12.83,0,0,0,0,1.86l-2.63-.28A14.74,14.74,0,0,0,25,51.86l.48-6.23a15.09,15.09,0,0,0,0-2l2.52.26,0,.43,0,.24a3.72,3.72,0,0,1,2.69-.63A3.83,3.83,0,0,1,33.29,45.18Zm-2.39,4.45A2.2,2.2,0,0,0,31.59,48a1.87,1.87,0,0,0-1.73-2.26,2,2,0,0,0-2.09,1.89A2.08,2.08,0,0,0,29.61,50a1.72,1.72,0,0,0,1.28-.36"/><path class="cls-5" d="M42.38,53.23,39.91,53l0-.59a3.62,3.62,0,0,1-2.53.51A3.24,3.24,0,0,1,35.26,52a2.37,2.37,0,0,1-.56-1.81,2.1,2.1,0,0,1,1.07-1.77,5.3,5.3,0,0,1,2.73-.55c.5,0,.88,0,1.8.1l0-.29c0-.61-.3-.93-1.14-1s-1.28.13-1.51.74l-2.41-.65a2.62,2.62,0,0,1,1.19-1.43,4.83,4.83,0,0,1,2.93-.43,5.56,5.56,0,0,1,2.33.7,2.37,2.37,0,0,1,1,2.42l-.27,3.45A15.32,15.32,0,0,0,42.38,53.23Zm-2.77-2.38a1.26,1.26,0,0,0,.54-.93l0-.36a7.59,7.59,0,0,0-2.23,0,.91.91,0,0,0-.8.76c0,.46.32.77,1,.84a2.33,2.33,0,0,0,1.48-.33"/><path class="cls-5" d="M55.14,44.69a15,15,0,0,0-.24,1.73l0,.27.46,0a10,10,0,0,0,1.26.07l-.16,2.11a9.69,9.69,0,0,0-1.17-.19l-.54-.06-.25,3.27c0,.35,0,.54.18.67a1.16,1.16,0,0,0,.58.2,1.73,1.73,0,0,0,.91-.14l0,2a5.51,5.51,0,0,1-1.78.07,3.13,3.13,0,0,1-1.84-.65A1.85,1.85,0,0,1,52,52.33l.3-3.91-.49-.05a8.88,8.88,0,0,0-1.12,0l.16-2.13a7.55,7.55,0,0,0,1.13.2l.46,0,0-.27a12.44,12.44,0,0,0,0-1.75Z"/><path class="cls-5" d="M49.45,46a5.08,5.08,0,0,1,1.25.29l-.79,2.23a4.35,4.35,0,0,0-1.29-.39,1.79,1.79,0,0,0-1.57.53,1.85,1.85,0,0,0-.47,1.1l-.15,2a15.1,15.1,0,0,0-.05,1.93l-2.63-.28A15.3,15.3,0,0,0,44,51.46l.3-3.93a13.53,13.53,0,0,0,.05-1.94l2.54.27-.08,1A2.84,2.84,0,0,1,49.45,46Z"/><g class="cls-1"><path class="cls-5" d="M65.74,47.54a4,4,0,0,1,3.89,4.59,3.88,3.88,0,0,1-4.55,3.78,4.07,4.07,0,0,1-3.87-4.64A3.81,3.81,0,0,1,65.74,47.54ZM65.25,54c1.11.12,1.81-.65,1.92-2.07s-.47-2.34-1.56-2.45-1.85.66-2,2.07.49,2.34,1.6,2.46"/><path class="cls-5" d="M75.44,45.76a6.7,6.7,0,0,1,1.91.48l-.54,1.83a2.49,2.49,0,0,0-1.24-.45c-.62-.07-.89.17-.94.83l0,.32.37,0c.54.06,1.23.08,1.7.09L76.52,51a13.13,13.13,0,0,0-1.66-.26l-.4,0-.3,3.9a13.23,13.23,0,0,0,0,1.94l-2.66-.28a13.58,13.58,0,0,0,.25-1.92l.3-3.9-.34,0a9.49,9.49,0,0,0-1.44-.06l.17-2.14a13.4,13.4,0,0,0,1.43.24l.34,0,0-.6C72.34,46.22,73.36,45.54,75.44,45.76Z"/></g><path class="cls-5" d="M85.83,47.91a15.14,15.14,0,0,0-.23,1.73l0,.27L86,50a9.94,9.94,0,0,0,1.25.07l-.16,2.11A9.57,9.57,0,0,0,86,52l-.53-.06-.25,3.27c0,.35,0,.54.18.67a1.14,1.14,0,0,0,.57.2,1.71,1.71,0,0,0,.91-.14l0,2a5.57,5.57,0,0,1-1.79.07,3.13,3.13,0,0,1-1.84-.65,1.85,1.85,0,0,1-.53-1.74l.3-3.91-.49-.05a9,9,0,0,0-1.12,0l.16-2.13a7.55,7.55,0,0,0,1.13.2l.46,0,0-.27a14,14,0,0,0,0-1.75Z"/><path class="cls-5" d="M91.14,47.64a12.43,12.43,0,0,0-.26,1.92l-.1,1.35c0,.11,0,.31,0,.42a3.44,3.44,0,0,1,2.73-.78,2.87,2.87,0,0,1,2,.93A2.83,2.83,0,0,1,96,53.71l-.25,3.2a16.86,16.86,0,0,0,0,1.93l-2.66-.28a13.94,13.94,0,0,0,.25-1.92l.2-2.62a1.57,1.57,0,0,0-.13-1,1,1,0,0,0-.8-.43,2.3,2.3,0,0,0-2,1.13l-.2,2.59a15.07,15.07,0,0,0,0,1.94L87.68,58a15.45,15.45,0,0,0,.25-1.92l.52-6.77a13.65,13.65,0,0,0,.05-1.94Z"/><path class="cls-5" d="M102.26,57.44a1.26,1.26,0,0,0,.43-.61l2.17.86a3.68,3.68,0,0,1-.94,1.23,4.07,4.07,0,0,1-3.1.77,4.12,4.12,0,0,1-2.88-1.4A4.5,4.5,0,0,1,97,55a4,4,0,0,1,8-.38,9.55,9.55,0,0,1,.07,1.69c0,.05,0,.13,0,.26L99.31,56a1.68,1.68,0,0,0,1.62,1.77A1.84,1.84,0,0,0,102.26,57.44Zm-1-4.27a1.5,1.5,0,0,0-1.77,1.08l3.28.34a1.55,1.55,0,0,0-1.51-1.42"/><path class="cls-5" d="M120.5,53.37c1.82.19,2.68,1.29,2.53,3.22l-.24,3.16a15.29,15.29,0,0,0-.05,1.93l-2.65-.28a13.2,13.2,0,0,0,.25-1.92l.2-2.63c.07-1-.17-1.35-.91-1.43A1.75,1.75,0,0,0,118,56.62l-.2,2.6a14,14,0,0,0,0,1.93l-2.66-.28a13.26,13.26,0,0,0,.26-1.92l.2-2.63a1.49,1.49,0,0,0-.14-1,.86.86,0,0,0-.67-.39A1.81,1.81,0,0,0,113,56.11l-.2,2.58a15.63,15.63,0,0,0-.05,1.94l-2.63-.28a15.12,15.12,0,0,0,.25-1.92l.3-3.93a12.75,12.75,0,0,0,.05-1.94l2.53.27,0,.53a1,1,0,0,1,0,.18v.12a3,3,0,0,1,2.52-.79,2.79,2.79,0,0,1,1.6.63,1.54,1.54,0,0,1,.47.69A3.44,3.44,0,0,1,120.5,53.37Z"/><path class="cls-5" d="M142,55.86c-.3.55-.42.78-.62,1.18l-2.57,5.26a6.25,6.25,0,0,0-.43,1L135.64,63a5.17,5.17,0,0,0-.26-1.11l-1.72-5.71c-.06-.18-.2-.62-.43-1.29l2.83.3a5.65,5.65,0,0,0,.16,1.12l.88,4.09,0,.15c0,.14,0,.15.08.37,0-.11.06-.18.08-.22l0-.13.06-.14,1.49-3.84a5.74,5.74,0,0,0,.33-1.07Z"/><path class="cls-5" d="M128.58,54.15a4,4,0,0,1,3.89,4.59,3.87,3.87,0,0,1-4.55,3.78A4.07,4.07,0,0,1,124,57.88,3.81,3.81,0,0,1,128.58,54.15Zm-.5,6.44c1.11.12,1.81-.65,1.92-2.07s-.47-2.34-1.56-2.45-1.85.66-2,2.07.49,2.34,1.6,2.46"/><path class="cls-5" d="M147.41,62.18a1.15,1.15,0,0,0,.43-.61l2.18.86a3.56,3.56,0,0,1-1,1.23,4,4,0,0,1-3.09.77,4.16,4.16,0,0,1-2.89-1.4,4.49,4.49,0,0,1-.92-3.24,4,4,0,0,1,8-.38,9.69,9.69,0,0,1,.06,1.69,1.68,1.68,0,0,0,0,.26l-5.75-.6a1.66,1.66,0,0,0,1.61,1.76A1.81,1.81,0,0,0,147.41,62.18Zm-1-4.27A1.51,1.51,0,0,0,144.64,59l3.28.34a1.55,1.55,0,0,0-1.51-1.42"/><path class="cls-5" d="M161.4,57.67c1.83.19,2.68,1.29,2.53,3.22L163.69,64a13.65,13.65,0,0,0,0,1.93L161,65.7a13,13,0,0,0,.25-1.92l.2-2.63c.07-1-.18-1.36-.91-1.43a1.76,1.76,0,0,0-1.67,1.21l-.2,2.6a14,14,0,0,0,0,1.93L156,65.17a14.85,14.85,0,0,0,.25-1.92l.2-2.63a1.55,1.55,0,0,0-.14-1,.86.86,0,0,0-.68-.39,1.82,1.82,0,0,0-1.74,1.19l-.2,2.58a14,14,0,0,0,0,1.94L151,64.65a13.54,13.54,0,0,0,.25-1.92l.3-3.93a11.46,11.46,0,0,0,0-1.94l2.53.27,0,.53c0,.05,0,.05,0,.18V58a3,3,0,0,1,2.52-.79,2.79,2.79,0,0,1,1.6.63,1.6,1.6,0,0,1,.47.69A3.41,3.41,0,0,1,161.4,57.67Z"/><path class="cls-5" d="M170.17,64.58a1.21,1.21,0,0,0,.44-.61l2.17.86a3.68,3.68,0,0,1-.94,1.23,4.08,4.08,0,0,1-3.1.77,4.12,4.12,0,0,1-2.88-1.4,4.46,4.46,0,0,1-.93-3.24,4,4,0,0,1,8-.38,9.51,9.51,0,0,1,.07,1.69c0,.05,0,.13,0,.26l-5.75-.6a1.67,1.67,0,0,0,1.61,1.76A1.81,1.81,0,0,0,170.17,64.58Zm-1-4.27a1.51,1.51,0,0,0-1.78,1.08l3.29.35a1.56,1.56,0,0,0-1.51-1.42"/><path class="cls-5" d="M179.53,59.6a2.94,2.94,0,0,1,2,.93,2.83,2.83,0,0,1,.56,2.22l-.25,3.2a15.08,15.08,0,0,0,0,1.93l-2.66-.28a13.9,13.9,0,0,0,.26-1.92l.2-2.62a1.49,1.49,0,0,0-.13-1,1,1,0,0,0-.82-.45,2.25,2.25,0,0,0-2,1.14l-.2,2.58a15.07,15.07,0,0,0,0,1.94L173.76,67a15.39,15.39,0,0,0,.25-1.92l.3-3.93a13.69,13.69,0,0,0,.05-1.94l2.54.27,0,.53c0,.08,0,.27,0,.36A3.44,3.44,0,0,1,179.53,59.6Z"/><path class="cls-5" d="M187.4,58.59a15,15,0,0,0-.24,1.73l0,.27.46,0a10,10,0,0,0,1.26.07l-.16,2.11a9.57,9.57,0,0,0-1.17-.19l-.54-.06-.25,3.27c0,.35,0,.54.18.67a1.16,1.16,0,0,0,.58.2,1.73,1.73,0,0,0,.91-.14l0,2a5.56,5.56,0,0,1-1.79.07,3.13,3.13,0,0,1-1.84-.65,1.85,1.85,0,0,1-.53-1.74l.3-3.91-.49-.05a9,9,0,0,0-1.12,0l.16-2.13a7.55,7.55,0,0,0,1.13.2l.46,0,0-.27a12.44,12.44,0,0,0,0-1.75Z"/><path class="cls-5" d="M192,66.35l-.2,2.56a2,2,0,0,1-.76,1.53,2.31,2.31,0,0,1-1.32.49l-.49-1a1.84,1.84,0,0,0,1-.27,1.06,1.06,0,0,0,.43-.84l-1.47-.15.2-2.56Z"/><path class="cls-5" d="M209.52,68.71a1.26,1.26,0,0,0,.43-.61l2.17.86a3.68,3.68,0,0,1-.94,1.23,4.07,4.07,0,0,1-3.1.77,4.14,4.14,0,0,1-2.88-1.4,4.5,4.5,0,0,1-.93-3.24,4,4,0,0,1,8-.38,9.53,9.53,0,0,1,.07,1.69c0,.05,0,.13,0,.26l-5.75-.6A1.68,1.68,0,0,0,208.19,69,1.84,1.84,0,0,0,209.52,68.71Zm-1-4.27a1.5,1.5,0,0,0-1.77,1.08l3.28.34a1.55,1.55,0,0,0-1.51-1.42"/><path class="cls-5" d="M202.45,59.11a6.7,6.7,0,0,1,1.91.48l-.53,1.83a2.53,2.53,0,0,0-1.24-.45c-.63-.07-.9.16-.95.83l0,.32.37,0c.54.06,1.23.08,1.7.09l-.17,2.14a13.13,13.13,0,0,0-1.66-.26l-.4,0-.3,3.9a13.27,13.27,0,0,0,0,1.94l-2.66-.28a13.58,13.58,0,0,0,.26-1.92l.3-3.9-.34,0a9.49,9.49,0,0,0-1.44-.06l.17-2.14a13.4,13.4,0,0,0,1.43.24l.34,0,0-.6C199.34,59.57,200.36,58.89,202.45,59.11Z"/><path class="cls-5" d="M218.3,69.64a1.21,1.21,0,0,0,.44-.61l2.17.86a3.67,3.67,0,0,1-.94,1.23,4.08,4.08,0,0,1-3.1.77,4.13,4.13,0,0,1-2.88-1.4,4.46,4.46,0,0,1-.93-3.24,4,4,0,0,1,8-.38,9.57,9.57,0,0,1,.07,1.69c0,.05,0,.13,0,.26l-5.75-.6A1.67,1.67,0,0,0,217,70,1.81,1.81,0,0,0,218.3,69.64Zm-1-4.27a1.51,1.51,0,0,0-1.78,1.08l3.29.35a1.56,1.56,0,0,0-1.51-1.42"/><path class="cls-5" d="M225.37,61.75a14,14,0,0,0-.25,1.92l-.52,6.77a16.71,16.71,0,0,0-.05,1.94l-2.66-.28a13.82,13.82,0,0,0,.25-1.92l.52-6.77a13.3,13.3,0,0,0,.05-1.94Z"/><path class="cls-5" d="M242.8,66.28a5.08,5.08,0,0,1,1.25.29l-.79,2.23a4.3,4.3,0,0,0-1.28-.38,1.76,1.76,0,0,0-2.05,1.63l-.15,2a13.53,13.53,0,0,0,0,1.93l-2.64-.28a13.79,13.79,0,0,0,.25-1.92l.3-3.93a12.33,12.33,0,0,0,.05-1.94l2.54.27-.08,1A2.85,2.85,0,0,1,242.8,66.28Z"/><path class="cls-5" d="M235.23,62.56a6.7,6.7,0,0,1,1.91.48l-.54,1.83a2.49,2.49,0,0,0-1.24-.45c-.62-.07-.89.17-.94.83l0,.32.37,0c.54.06,1.23.08,1.7.09l-.17,2.14a13.13,13.13,0,0,0-1.66-.26l-.4,0-.3,3.9a13.23,13.23,0,0,0,0,1.94l-2.66-.28a13.58,13.58,0,0,0,.25-1.92l.3-3.9-.34,0a9.49,9.49,0,0,0-1.44-.06l.17-2.14a13.4,13.4,0,0,0,1.43.24l.34,0,0-.6C232.13,63,233.14,62.34,235.23,62.56Z"/><path class="cls-5" d="M249.42,72.91a1.21,1.21,0,0,0,.44-.61l2.17.86a3.68,3.68,0,0,1-.94,1.23,4.08,4.08,0,0,1-3.1.77,4.13,4.13,0,0,1-2.88-1.4,4.5,4.5,0,0,1-.93-3.24,4,4,0,0,1,8-.38,9.53,9.53,0,0,1,.07,1.69c0,.05,0,.13,0,.26l-5.75-.6a1.68,1.68,0,0,0,1.62,1.77A1.8,1.8,0,0,0,249.42,72.91Zm-1-4.27a1.51,1.51,0,0,0-1.78,1.08l3.29.35a1.55,1.55,0,0,0-1.51-1.42"/><path class="cls-5" d="M258.2,73.83a1.21,1.21,0,0,0,.44-.61l2.17.86a3.68,3.68,0,0,1-.94,1.23,4.08,4.08,0,0,1-3.1.77,4.13,4.13,0,0,1-2.88-1.4,4.46,4.46,0,0,1-.93-3.24,4,4,0,0,1,8-.38,10.48,10.48,0,0,1,.07,1.69c0,.05,0,.13,0,.26l-5.75-.6a1.66,1.66,0,0,0,1.61,1.76A1.81,1.81,0,0,0,258.2,73.83Zm-1-4.27a1.51,1.51,0,0,0-1.78,1.08l3.29.35a1.56,1.56,0,0,0-1.51-1.42"/><path class="cls-5" d="M270.31,67.3a13.29,13.29,0,0,0-.24,1.73l0,.27.46,0a10,10,0,0,0,1.26.07l-.16,2.11a9.69,9.69,0,0,0-1.17-.19l-.54-.06-.25,3.27c0,.35,0,.54.18.67a1.16,1.16,0,0,0,.58.2,1.73,1.73,0,0,0,.91-.14l0,2a5.51,5.51,0,0,1-1.78.07,3.13,3.13,0,0,1-1.84-.65,1.85,1.85,0,0,1-.53-1.74l.3-3.91L267,71a8.88,8.88,0,0,0-1.12,0l.16-2.13a7.55,7.55,0,0,0,1.13.2l.46,0,0-.27a12.47,12.47,0,0,0,0-1.75Z"/><path class="cls-5" d="M276.66,69.71a4,4,0,0,1,3.9,4.59A3.88,3.88,0,0,1,276,78.08a4.07,4.07,0,0,1-3.87-4.64A3.8,3.8,0,0,1,276.66,69.71Zm-.5,6.44c1.11.12,1.81-.65,1.92-2.07s-.47-2.34-1.56-2.45-1.85.66-2,2.07.49,2.34,1.59,2.46"/><path class="cls-5" d="M63.78,68.84a1.15,1.15,0,0,0,.43-.61l2.18.85a3.52,3.52,0,0,1-1,1.23,4.69,4.69,0,0,1-6-.63,4.45,4.45,0,0,1-.92-3.23,4,4,0,0,1,8-.38,8.68,8.68,0,0,1,.07,1.69,1.74,1.74,0,0,0,0,.26l-5.75-.6a1.68,1.68,0,0,0,1.62,1.77A1.82,1.82,0,0,0,63.78,68.84Zm-1-4.26A1.49,1.49,0,0,0,61,65.65L64.3,66a1.54,1.54,0,0,0-1.51-1.42"/><path class="cls-5" d="M57.17,62.23a5.44,5.44,0,0,1,1.25.28l-.8,2.23a4.2,4.2,0,0,0-1.28-.38,1.79,1.79,0,0,0-1.57.53A1.77,1.77,0,0,0,54.3,66l-.15,2a15,15,0,0,0-.05,1.92l-2.64-.28a13.7,13.7,0,0,0,.25-1.92l.3-3.93a12.23,12.23,0,0,0,0-1.94l2.55.27-.08,1A2.83,2.83,0,0,1,57.17,62.23Z"/><path class="cls-5" d="M75,72.1l-2.48-.26,0-.58a3.66,3.66,0,0,1-2.53.51,3.2,3.2,0,0,1-2.16-.94A2.35,2.35,0,0,1,67.27,69a2.09,2.09,0,0,1,1.07-1.77,5.21,5.21,0,0,1,2.73-.55c.5,0,.88,0,1.8.1l0-.29c0-.62-.3-.94-1.14-1s-1.28.14-1.51.75l-2.41-.65A2.64,2.64,0,0,1,69,64.14,4.84,4.84,0,0,1,72,63.72a5.71,5.71,0,0,1,2.33.69,2.38,2.38,0,0,1,1,2.42L75,70.28A15.26,15.26,0,0,0,75,72.1Zm-2.78-2.38a1.26,1.26,0,0,0,.54-.93l0-.35a7.6,7.6,0,0,0-2.23,0,.9.9,0,0,0-.8.76c0,.46.32.76,1,.83a2.28,2.28,0,0,0,1.48-.33"/><path class="cls-5" d="M80.71,64.55a3.65,3.65,0,0,1,3.54,3.05l-2.34.24a1.81,1.81,0,0,0-.3-.79,1.38,1.38,0,0,0-1-.56c-1-.11-1.71.65-1.82,2s.48,2.35,1.49,2.46a1.46,1.46,0,0,0,1.26-.44A1.24,1.24,0,0,0,81.8,70l2.31.61a3.53,3.53,0,0,1-.63,1.21,3.7,3.7,0,0,1-3.4,1.13,4.21,4.21,0,0,1-2.88-1.42,4.42,4.42,0,0,1-.91-3.22A3.77,3.77,0,0,1,80.71,64.55Z"/><path class="cls-5" d="M88.39,62.81a12.49,12.49,0,0,0-.25,1.92L88,66.08c0,.1,0,.3,0,.41a3.49,3.49,0,0,1,2.73-.77,2.86,2.86,0,0,1,2,.92,2.83,2.83,0,0,1,.57,2.23L93,72.07A16.89,16.89,0,0,0,93,74l-2.65-.28a15.59,15.59,0,0,0,.25-1.92l.2-2.62a1.52,1.52,0,0,0-.13-1,1,1,0,0,0-.79-.43,2.29,2.29,0,0,0-2,1.12l-.2,2.59a15,15,0,0,0-.05,1.94l-2.64-.28a13.7,13.7,0,0,0,.25-1.92l.52-6.76a12.16,12.16,0,0,0,0-1.94Z"/><path class="cls-5" d="M103.05,66.91a4,4,0,0,1,3.9,4.59,3.88,3.88,0,0,1-4.55,3.79,4.07,4.07,0,0,1-3.87-4.65A3.8,3.8,0,0,1,103.05,66.91Zm-.5,6.44c1.11.12,1.81-.65,1.92-2.06s-.47-2.34-1.56-2.45-1.85.65-2,2.06.49,2.34,1.59,2.46"/><path class="cls-5" d="M116.32,68.6a13.69,13.69,0,0,0-.25,1.91l-.3,3.94a12.14,12.14,0,0,0,0,1.93l-2.55-.27,0-.55a2.42,2.42,0,0,1,0-.34,3.45,3.45,0,0,1-2.75.82,2.85,2.85,0,0,1-2-.93,2.82,2.82,0,0,1-.57-2.23l.25-3.2a17.06,17.06,0,0,0,.05-1.93l2.65.28a14,14,0,0,0-.25,1.91l-.2,2.62a1.44,1.44,0,0,0,.13,1,1,1,0,0,0,.79.45,2.34,2.34,0,0,0,2-1.12l.2-2.62a16.86,16.86,0,0,0,.05-1.93Z"/><path class="cls-5" d="M121.32,67.09a13.34,13.34,0,0,0-.24,1.74l0,.27.46,0a8.56,8.56,0,0,0,1.26.07l-.16,2.12a8.13,8.13,0,0,0-1.17-.2l-.54-.06-.25,3.27c0,.35,0,.55.18.68a1.15,1.15,0,0,0,.57.19,1.76,1.76,0,0,0,.92-.14l0,2a5.51,5.51,0,0,1-1.78.07,3.18,3.18,0,0,1-1.85-.65,1.87,1.87,0,0,1-.53-1.74l.3-3.91-.49-.05a7.41,7.41,0,0,0-1.11,0l.16-2.13a8.94,8.94,0,0,0,1.13.19l.46,0,0-.27a12.66,12.66,0,0,0,0-1.76Z"/><path class="cls-5" d="M138,70.58a4,4,0,0,1,3.9,4.59A3.88,3.88,0,0,1,137.38,79a4.07,4.07,0,0,1-3.88-4.65A3.81,3.81,0,0,1,138,70.58Zm-.5,6.44c1.11.12,1.81-.65,1.92-2.06s-.48-2.34-1.56-2.45-1.86.65-2,2.06.49,2.34,1.6,2.46"/><path class="cls-5" d="M131.69,68.18a15.18,15.18,0,0,0-.23,1.74l0,.27.46,0a8.43,8.43,0,0,0,1.25.07L133,72.42a8,8,0,0,0-1.17-.2l-.53-.06L131,75.44c0,.35,0,.55.18.68a1.15,1.15,0,0,0,.57.19,1.71,1.71,0,0,0,.91-.14l0,2a5.51,5.51,0,0,1-1.78.07,3.16,3.16,0,0,1-1.85-.65,1.85,1.85,0,0,1-.53-1.74l.3-3.91-.49-.05a7.4,7.4,0,0,0-1.11,0l.16-2.13a8.94,8.94,0,0,0,1.13.19l.46,0,0-.27a14.2,14.2,0,0,0,0-1.76Z"/><path class="cls-5" d="M155.55,72.72a15.39,15.39,0,0,0-.25,1.91l-.3,3.94a13.6,13.6,0,0,0-.05,1.93l-2.54-.27,0-.55c0-.06,0-.26,0-.34a3.42,3.42,0,0,1-2.74.82,2.89,2.89,0,0,1-2-.93,2.82,2.82,0,0,1-.56-2.22l.25-3.2a15,15,0,0,0,0-1.93l2.66.28a13.93,13.93,0,0,0-.25,1.91l-.2,2.62a1.49,1.49,0,0,0,.13,1,1,1,0,0,0,.8.45,2.34,2.34,0,0,0,2-1.12l.2-2.62a15,15,0,0,0,0-1.93Z"/><path class="cls-5" d="M160.37,73a4,4,0,0,1,2.66,1.1,2.74,2.74,0,0,1,.72,1.55h-2.49c0-.53-.32-.79-1-.86s-1.1.11-1.12.43.24.51,1.48.91a8.37,8.37,0,0,1,2,.84A2.07,2.07,0,0,1,163.73,79a2.31,2.31,0,0,1-.78,1.63,4.19,4.19,0,0,1-3.1.61,4,4,0,0,1-3.25-1.63,3,3,0,0,1-.41-1.34h2.55c.07.68.48,1,1.34,1.1s1.22-.09,1.25-.48a.54.54,0,0,0-.25-.49,3.24,3.24,0,0,0-1-.41,14.36,14.36,0,0,1-1.86-.66,2.62,2.62,0,0,1-1.21-1,2.48,2.48,0,0,1-.22-1.24C156.88,73.53,158.24,72.73,160.37,73Z"/><path class="cls-5" d="M176.49,82.77,174,82.51l0-.58a3.66,3.66,0,0,1-2.53.51,3.2,3.2,0,0,1-2.16-.94,2.36,2.36,0,0,1-.57-1.81,2.07,2.07,0,0,1,1.08-1.77,5.14,5.14,0,0,1,2.72-.55c.51,0,.89,0,1.81.1l0-.29c0-.62-.3-.94-1.14-1s-1.28.14-1.52.75l-2.4-.65a2.6,2.6,0,0,1,1.19-1.43,4.84,4.84,0,0,1,2.93-.42,5.71,5.71,0,0,1,2.33.69,2.38,2.38,0,0,1,1,2.42L176.54,81A15.26,15.26,0,0,0,176.49,82.77Zm-2.78-2.38a1.26,1.26,0,0,0,.54-.93l0-.35a7.51,7.51,0,0,0-2.23,0,.91.91,0,0,0-.81.76c0,.46.33.77,1,.84a2.28,2.28,0,0,0,1.48-.33"/><path class="cls-5" d="M182.12,73.48a13.34,13.34,0,0,0-.24,1.74l0,.27.46,0a8.43,8.43,0,0,0,1.25.07l-.16,2.12a7.92,7.92,0,0,0-1.16-.2l-.54-.06-.25,3.27c0,.35,0,.55.18.68a1.15,1.15,0,0,0,.57.19,1.71,1.71,0,0,0,.91-.14l0,2a5.51,5.51,0,0,1-1.78.07,3.18,3.18,0,0,1-1.85-.65,1.87,1.87,0,0,1-.53-1.74l.3-3.91-.49-.05a7.4,7.4,0,0,0-1.11,0l.16-2.13a8.94,8.94,0,0,0,1.13.19l.46,0,0-.27a14.2,14.2,0,0,0,0-1.76Z"/><path class="cls-5" d="M195.81,84.8l-2.48-.26,0-.58a3.65,3.65,0,0,1-2.53.51,3.2,3.2,0,0,1-2.16-.94,2.35,2.35,0,0,1-.56-1.81A2.09,2.09,0,0,1,189.2,80a5.21,5.21,0,0,1,2.73-.55c.5,0,.88,0,1.8.1l0-.29c0-.62-.3-.94-1.14-1s-1.27.14-1.51.75l-2.41-.65a2.68,2.68,0,0,1,1.19-1.43,4.84,4.84,0,0,1,2.93-.42,5.78,5.78,0,0,1,2.34.69,2.39,2.39,0,0,1,1,2.42L195.86,83A15.26,15.26,0,0,0,195.81,84.8ZM193,82.42a1.23,1.23,0,0,0,.54-.93l0-.35a7.6,7.6,0,0,0-2.23,0,.9.9,0,0,0-.8.76c0,.46.32.76,1,.83a2.28,2.28,0,0,0,1.48-.33"/><path class="cls-5" d="M219.88,77.45a13.34,13.34,0,0,0-.24,1.74l0,.27.46,0a8.56,8.56,0,0,0,1.26.07l-.16,2.12a8.13,8.13,0,0,0-1.17-.2l-.54-.06-.25,3.27c0,.35,0,.55.18.68a1.16,1.16,0,0,0,.58.19,1.73,1.73,0,0,0,.91-.14l0,2a5.51,5.51,0,0,1-1.78.07,3.13,3.13,0,0,1-1.84-.65,1.85,1.85,0,0,1-.54-1.74l.3-3.91-.48-.05a7.44,7.44,0,0,0-1.12,0l.16-2.13a8.94,8.94,0,0,0,1.13.19l.46,0,0-.27a12.66,12.66,0,0,0,0-1.76Z"/><path class="cls-5" d="M215.45,79c-.37.63-.37.63-.89,1.64l-3.45,6.45a2.72,2.72,0,0,1-3,1.45,7.59,7.59,0,0,1-1.73-.4l.44-2a2,2,0,0,0,1,.38,1,1,0,0,0,1.08-.49l.31-.52-2-5.63c-.45-1.34-.49-1.46-.64-1.8l2.78.29a8.78,8.78,0,0,0,.37,1.71l.95,3.07L212,80.36a7.64,7.64,0,0,0,.68-1.64Z"/><path class="cls-5" d="M202.94,77.51a2.93,2.93,0,0,1,2,.92,2.83,2.83,0,0,1,.56,2.22l-.25,3.21a14.89,14.89,0,0,0,0,1.92l-2.66-.28a13.9,13.9,0,0,0,.25-1.92L203,81a1.51,1.51,0,0,0-.13-1,1,1,0,0,0-.82-.44,2.23,2.23,0,0,0-2,1.14l-.2,2.58a15,15,0,0,0,0,1.94l-2.64-.28a15.31,15.31,0,0,0,.25-1.92l.3-3.93a13.78,13.78,0,0,0,.05-1.94l2.54.27,0,.54c0,.08,0,.26,0,.35A3.46,3.46,0,0,1,202.94,77.51Z"/><path class="cls-5" d="M224.75,81.93l-.3,3.93a18,18,0,0,0-.05,1.94l-2.67-.28a13.6,13.6,0,0,0,.26-1.92l.3-3.93a13.25,13.25,0,0,0,0-1.94L225,80A12.34,12.34,0,0,0,224.75,81.93Z"/><polygon class="cls-5" points="225.18 77.19 225.03 79.09 222.44 78.82 222.58 76.91 225.18 77.19"/><path class="cls-5" d="M236.16,81c1.83.19,2.68,1.28,2.53,3.21l-.25,3.17a13.6,13.6,0,0,0,0,1.92L235.74,89a13.07,13.07,0,0,0,.25-1.92l.2-2.63c.07-1-.18-1.36-.9-1.44a1.76,1.76,0,0,0-1.67,1.21l-.2,2.61a13.93,13.93,0,0,0,0,1.92l-2.66-.28a13.19,13.19,0,0,0,.25-1.92l.2-2.63a1.58,1.58,0,0,0-.14-1,.86.86,0,0,0-.68-.39,1.82,1.82,0,0,0-1.74,1.19l-.2,2.58a13.87,13.87,0,0,0,0,1.94l-2.63-.28A13.42,13.42,0,0,0,226,86l.3-3.93a11.57,11.57,0,0,0,0-1.94l2.53.27,0,.54c0,.05,0,.05,0,.18v.13a3,3,0,0,1,2.52-.8,2.79,2.79,0,0,1,1.6.63,1.67,1.67,0,0,1,.47.69A3.4,3.4,0,0,1,236.16,81Z"/><path class="cls-5" d="M244.93,87.88a1.21,1.21,0,0,0,.44-.6l2.17.85a3.52,3.52,0,0,1-.94,1.23,4.69,4.69,0,0,1-6-.63,4.42,4.42,0,0,1-.93-3.23,4,4,0,0,1,8-.38,10.35,10.35,0,0,1,.07,1.69c0,.05,0,.12,0,.26l-5.75-.6a1.67,1.67,0,0,0,1.61,1.76A1.81,1.81,0,0,0,244.93,87.88Zm-1-4.26a1.5,1.5,0,0,0-1.78,1.07l3.29.35a1.55,1.55,0,0,0-1.51-1.42"/><polygon class="cls-5" points="251.26 88.04 251.06 90.61 248.49 90.34 248.69 87.77 251.26 88.04"/></g></g></svg>