<svg xmlns="http://www.w3.org/2000/svg" viewBox="0 0 172.24 41.03"><defs><style>.cls-1,.cls-2,.cls-3,.cls-4{fill:#010101;}.cls-1,.cls-3,.cls-4{stroke:#000;stroke-miterlimit:10;}.cls-1{stroke-width:0.33px;}.cls-3{stroke-width:0.31px;}.cls-4{stroke-width:0.31px;}</style></defs><title>philosophy</title><g id="Layer_2" data-name="Layer 2"><g id="Layer_1-2" data-name="Layer 1"><polygon class="cls-1" points="28.64 20.71 26.51 23.21 26.49 23.23 26.45 23.27 24.32 25.77 28.86 25.78 31.05 23.21 31.05 23.21 33.09 20.82 35.27 18.25 30.73 18.25 28.64 20.71"/><polygon class="cls-1" points="22.12 28.35 26.67 28.36 28.86 25.79 24.31 25.78 22.12 28.35"/><polygon class="cls-1" points="31.06 16.39 31.15 16.39 32.31 16.39 30.74 18.24 35.28 18.24 37.47 15.67 37.47 15.67 39.6 13.17 37.42 13.17 37.42 13.17 33.89 13.17 33.79 13.17 30.26 13.17 27.52 16.39 31.06 16.39"/><polygon class="cls-1" points="19.8 23.21 19.8 23.21 21.83 20.82 24.02 18.25 19.48 18.25 17.38 20.71 17.38 20.71 15.19 23.27 13.06 25.77 17.61 25.78 19.8 23.21"/><polygon class="cls-1" points="15.41 28.36 17.6 25.79 13.06 25.78 10.87 28.35 15.41 28.36"/><polygon class="cls-1" points="25.61 16.39 27.51 16.39 30.24 13.17 26.61 13.17 26.61 13.17 23.8 13.17 21.61 15.74 19.48 18.24 24.03 18.24 25.61 16.39"/><polygon class="cls-1" points="8.69 30.91 8.69 30.91 6.54 33.42 4.31 36.04 8.85 36.13 10.99 33.62 13.23 31 15.41 28.45 10.87 28.36 8.69 30.91"/><polygon class="cls-1" points="13.11 25.73 10.88 28.35 15.42 28.44 17.66 25.82 13.11 25.73"/><polygon class="cls-1" points="4.3 36.05 2.06 38.67 2.07 38.67 0.35 40.68 4.89 40.77 7.13 38.15 7.13 38.15 8.84 36.14 4.3 36.05"/><polygon class="cls-1" points="21.83 20.91 23.96 18.41 23.98 18.39 24.02 18.34 26.15 15.84 21.61 15.84 19.42 18.41 19.42 18.41 17.38 20.8 15.19 23.37 19.74 23.37 21.83 20.91"/><polygon class="cls-1" points="28.34 13.26 23.8 13.26 21.61 15.83 26.16 15.83 28.34 13.26"/><polygon class="cls-1" points="19.41 25.23 19.32 25.23 18.15 25.23 19.73 23.38 15.19 23.38 13 25.94 13 25.94 10.87 28.45 13.05 28.45 13.05 28.45 16.58 28.45 16.68 28.45 20.21 28.45 22.95 25.23 19.41 25.23"/><polygon class="cls-1" points="30.67 18.41 30.67 18.41 28.63 20.8 26.45 23.37 30.99 23.37 33.09 20.91 33.09 20.91 35.27 18.34 37.4 15.84 32.86 15.84 30.67 18.41"/><polygon class="cls-1" points="35.05 13.26 32.87 15.83 37.41 15.83 39.6 13.26 35.05 13.26"/><polygon class="cls-1" points="24.86 25.23 22.96 25.23 20.22 28.45 23.85 28.45 23.86 28.45 26.67 28.45 28.85 25.88 30.98 23.38 26.44 23.38 24.86 25.23"/><polygon class="cls-1" points="44.99 21.46 43.01 23.83 42.99 23.85 42.95 23.89 40.97 26.26 45.2 26.27 47.24 23.83 47.24 23.83 49.13 21.57 51.17 19.13 46.94 19.13 44.99 21.46"/><polygon class="cls-1" points="38.93 28.71 43.16 28.71 45.19 26.28 40.96 26.27 38.93 28.71"/><polygon class="cls-1" points="47.24 17.36 47.33 17.36 48.41 17.36 46.95 19.12 51.18 19.12 53.22 16.69 53.22 16.69 55.2 14.32 53.17 14.32 53.17 14.31 49.88 14.31 49.79 14.31 46.5 14.31 43.95 17.36 47.24 17.36"/><polygon class="cls-1" points="36.76 23.83 36.76 23.83 38.66 21.57 40.69 19.13 36.46 19.13 34.51 21.46 34.51 21.46 32.47 23.89 30.49 26.26 34.72 26.27 36.76 23.83"/><polygon class="cls-1" points="32.68 28.71 34.71 26.28 30.48 26.27 28.45 28.71 32.68 28.71"/><polygon class="cls-1" points="42.17 17.36 43.94 17.36 46.49 14.31 43.11 14.31 43.11 14.32 40.49 14.31 38.45 16.75 36.47 19.12 40.7 19.12 42.17 17.36"/><polygon class="cls-1" points="48.46 9.69 48.46 9.69 50.39 7.3 52.41 4.8 48.17 4.83 46.24 7.22 44.22 9.71 42.26 12.14 46.49 12.12 48.46 9.69"/><polygon class="cls-1" points="44.47 14.62 46.48 12.13 42.25 12.15 40.23 14.65 44.47 14.62"/><polygon class="cls-1" points="52.41 4.79 54.43 2.3 54.43 2.3 55.98 0.38 51.75 0.41 49.73 2.9 49.73 2.9 48.18 4.82 52.41 4.79"/><path class="cls-2" d="M67.63,3.69"/><path d="M67.63,5.66c2.53,0,2.53-3.93,0-3.93s-2.53,3.93,0,3.93Z"/><polygon class="cls-1" points="53.14 18.83 53.14 18.83 51.05 21.38 48.86 24.04 53.41 24.05 55.5 21.5 57.69 18.83 59.82 16.24 55.27 16.24 53.14 18.83"/><polygon class="cls-1" points="57.47 13.56 55.28 16.23 59.83 16.23 62.01 13.57 57.47 13.56"/><polygon class="cls-1" points="48.85 24.05 46.67 26.72 46.67 26.72 44.99 28.76 49.54 28.77 51.72 26.1 51.72 26.1 53.4 24.06 48.85 24.05"/><polygon class="cls-1" points="72.06 3.66 72.06 3.66 69.97 6.21 67.78 8.87 72.32 8.88 74.42 6.32 76.6 3.66 78.73 1.07 74.19 1.06 72.06 3.66"/><polygon class="cls-1" points="67.77 8.88 65.58 11.54 65.59 11.54 63.91 13.59 68.45 13.59 70.64 10.93 70.64 10.93 72.31 8.88 67.77 8.88"/><polygon class="cls-1" points="59.59 18.86 59.59 18.86 57.49 21.41 55.31 24.07 59.85 24.08 61.95 21.52 64.13 18.86 66.26 16.27 61.72 16.26 59.59 18.86"/><polygon class="cls-1" points="63.91 13.59 61.73 16.25 66.27 16.26 68.46 13.6 63.91 13.59"/><polygon class="cls-1" points="55.3 24.08 53.11 26.75 53.12 26.75 51.44 28.79 55.98 28.79 58.17 26.13 58.17 26.13 59.84 24.09 55.3 24.08"/><polygon class="cls-1" points="75.48 21.02 73.35 23.52 73.34 23.54 73.3 23.59 71.17 26.09 75.71 26.09 77.9 23.53 77.9 23.53 79.94 21.13 82.12 18.57 77.58 18.56 75.48 21.02"/><polygon class="cls-1" points="68.97 28.67 73.52 28.67 75.7 26.11 71.16 26.1 68.97 28.67"/><polygon class="cls-1" points="77.9 16.7 78 16.7 79.16 16.7 77.59 18.55 82.13 18.56 84.32 15.99 84.32 15.99 86.45 13.49 84.27 13.49 84.27 13.48 80.73 13.48 80.64 13.48 77.11 13.48 74.37 16.7 77.9 16.7"/><polygon class="cls-1" points="66.64 23.53 66.64 23.53 68.68 21.13 70.87 18.57 66.32 18.56 64.23 21.02 64.23 21.02 62.04 23.59 59.91 26.09 64.46 26.09 66.64 23.53"/><polygon class="cls-1" points="62.26 28.67 64.45 26.11 59.91 26.1 57.72 28.67 62.26 28.67"/><polygon class="cls-1" points="72.45 16.7 74.36 16.7 77.09 13.48 73.46 13.48 73.46 13.49 70.65 13.48 68.46 16.05 66.33 18.55 70.88 18.56 72.45 16.7"/><polygon class="cls-1" points="68.68 21.23 70.81 18.73 70.83 18.71 70.87 18.66 73 16.16 68.45 16.16 66.27 18.72 66.27 18.72 64.23 21.11 62.04 23.68 66.59 23.69 68.68 21.23"/><polygon class="cls-1" points="75.19 13.58 70.65 13.58 68.46 16.14 73 16.15 75.19 13.58"/><polygon class="cls-1" points="66.26 25.55 66.16 25.55 65 25.55 66.58 23.7 62.03 23.69 59.85 26.26 59.85 26.26 57.72 28.76 59.9 28.76 59.9 28.77 63.43 28.77 63.52 28.77 67.06 28.77 69.79 25.55 66.26 25.55"/><polygon class="cls-1" points="77.52 18.72 77.52 18.72 75.48 21.11 73.3 23.68 77.84 23.69 79.94 21.23 79.94 21.23 82.12 18.66 84.25 16.16 79.71 16.16 77.52 18.72"/><polygon class="cls-1" points="81.9 13.58 79.72 16.14 84.26 16.15 86.44 13.58 81.9 13.58"/><polygon class="cls-1" points="71.71 25.55 69.81 25.55 67.07 28.77 70.7 28.77 70.7 28.76 73.52 28.77 75.7 26.2 77.83 23.7 73.29 23.69 71.71 25.55"/><polygon class="cls-3" points="84.71 17.93 84.71 17.93 82.81 20.15 80.82 22.46 84.77 22.47 86.68 20.26 88.67 17.95 90.6 15.7 86.65 15.68 84.71 17.93"/><polygon class="cls-3" points="88.65 13.36 86.66 15.67 90.61 15.69 92.6 13.38 88.65 13.36"/><polygon class="cls-3" points="93.54 16.28 96.62 16.29 99.11 13.39 96.03 13.38 95.95 13.38 92.88 13.37 90.39 16.27 93.46 16.28 93.54 16.28"/><polygon class="cls-3" points="99.79 16.29 102.27 13.4 99.12 13.39 96.63 16.29 99.79 16.29"/><polygon class="cls-3" points="93.15 24.11 93.15 24.11 95.06 21.9 97.05 19.59 93.09 19.57 91.19 21.79 89.2 24.1 87.26 26.35 91.22 26.36 93.15 24.11"/><polygon class="cls-3" points="89.22 28.69 91.21 26.37 87.25 26.36 85.27 28.67 89.22 28.69"/><polygon class="cls-3" points="84.32 25.77 81.25 25.76 78.76 28.66 81.83 28.67 81.92 28.67 84.99 28.68 87.48 25.78 84.4 25.77 84.32 25.77"/><polygon class="cls-3" points="78.08 25.75 75.59 28.65 78.75 28.66 81.24 25.76 78.08 25.75"/><polygon class="cls-3" points="90.35 19.56 87.27 19.56 84.79 22.45 87.86 22.46 87.94 22.46 91.02 22.47 93.5 19.57 90.43 19.56 90.35 19.56"/><polygon class="cls-3" points="84.11 19.55 81.62 22.44 84.77 22.45 87.26 19.56 84.11 19.55"/><polygon class="cls-3" points="93.87 19.57 91.38 22.47 94.53 22.48 97.02 19.58 93.87 19.57"/><polygon class="cls-1" points="109.22 20.7 107.09 23.2 107.08 23.21 107.04 23.26 104.91 25.76 109.45 25.77 111.64 23.2 111.64 23.2 113.68 20.81 115.86 18.24 111.32 18.23 109.22 20.7"/><polygon class="cls-1" points="102.71 28.34 107.26 28.34 109.44 25.78 104.9 25.77 102.71 28.34"/><polygon class="cls-1" points="111.65 16.38 111.74 16.38 112.9 16.38 111.33 18.23 115.87 18.23 118.06 15.66 118.06 15.66 120.19 13.16 118.01 13.16 118.01 13.16 114.48 13.16 114.38 13.16 110.85 13.16 108.11 16.38 111.65 16.38"/><polygon class="cls-1" points="100.39 23.2 100.39 23.2 102.42 20.81 104.61 18.24 100.07 18.23 97.97 20.7 97.97 20.7 95.78 23.26 93.66 25.76 98.2 25.77 100.39 23.2"/><polygon class="cls-1" points="96 28.34 98.19 25.78 93.65 25.77 91.46 28.34 96 28.34"/><polygon class="cls-1" points="106.2 16.38 108.1 16.38 110.83 13.16 107.2 13.16 107.2 13.16 104.39 13.16 102.2 15.72 100.07 18.23 104.62 18.23 106.2 16.38"/><polygon class="cls-1" points="102.42 20.9 104.55 18.4 104.57 18.38 104.61 18.33 106.74 15.83 102.19 15.83 100.01 18.39 100.01 18.39 97.97 20.79 95.78 23.36 100.33 23.36 102.42 20.9"/><polygon class="cls-1" points="108.93 13.25 104.39 13.25 102.2 15.82 106.75 15.82 108.93 13.25"/><polygon class="cls-1" points="100 25.22 99.91 25.22 98.74 25.22 100.32 23.37 95.78 23.37 93.59 25.93 93.59 25.93 91.46 28.43 93.64 28.44 93.64 28.44 97.17 28.44 97.27 28.44 100.8 28.44 103.53 25.22 100 25.22"/><polygon class="cls-1" points="111.26 18.39 111.26 18.39 109.22 20.79 107.04 23.36 111.58 23.36 113.68 20.9 113.68 20.9 115.86 18.33 117.99 15.83 113.45 15.83 111.26 18.39"/><polygon class="cls-1" points="115.64 13.25 113.46 15.82 118 15.82 120.19 13.25 115.64 13.25"/><polygon class="cls-1" points="105.45 25.22 103.55 25.22 100.81 28.44 104.44 28.44 104.44 28.43 107.26 28.44 109.44 25.87 111.57 23.37 107.03 23.37 105.45 25.22"/><polygon class="cls-1" points="127.21 20.79 125.08 23.3 125.07 23.31 125.03 23.36 122.9 25.86 127.44 25.87 129.63 23.3 129.63 23.3 131.66 20.91 133.85 18.34 129.31 18.33 127.21 20.79"/><polygon class="cls-1" points="120.7 28.44 125.25 28.44 127.43 25.88 122.89 25.87 120.7 28.44"/><polygon class="cls-1" points="129.63 16.47 129.73 16.47 130.89 16.47 129.32 18.32 133.86 18.33 136.05 15.76 136.05 15.76 138.18 13.26 136 13.26 136 13.26 132.46 13.26 132.37 13.26 128.84 13.26 126.1 16.47 129.63 16.47"/><polygon class="cls-1" points="118.37 23.3 118.37 23.3 120.41 20.91 122.6 18.34 118.05 18.33 115.96 20.79 115.96 20.79 113.77 23.36 111.64 25.86 116.19 25.87 118.37 23.3"/><polygon class="cls-1" points="113.99 28.44 116.18 25.88 111.63 25.87 109.45 28.44 113.99 28.44"/><polygon class="cls-1" points="124.19 16.47 126.09 16.47 128.82 13.26 125.19 13.26 125.19 13.26 122.38 13.26 120.19 15.82 118.06 18.32 122.61 18.33 124.19 16.47"/><polygon class="cls-1" points="107.27 31 107.27 31 105.12 33.51 102.89 36.13 107.43 36.22 109.57 33.71 111.81 31.09 113.99 28.54 109.44 28.45 107.27 31"/><polygon class="cls-1" points="111.69 25.82 109.45 28.44 114 28.53 116.23 25.91 111.69 25.82"/><polygon class="cls-1" points="102.88 36.14 100.64 38.76 100.64 38.76 98.93 40.77 103.47 40.86 105.71 38.24 105.7 38.24 107.42 36.23 102.88 36.14"/><polygon class="cls-1" points="120.41 21 122.54 18.5 122.56 18.48 122.6 18.43 124.73 15.93 120.18 15.93 118 18.49 118 18.49 115.96 20.89 113.77 23.45 118.31 23.46 120.41 21"/><polygon class="cls-1" points="126.92 13.35 122.38 13.35 120.19 15.92 124.73 15.92 126.92 13.35"/><polygon class="cls-1" points="117.99 25.32 117.89 25.32 116.73 25.32 118.31 23.47 113.76 23.46 111.58 26.03 111.58 26.03 109.45 28.53 111.63 28.54 111.63 28.54 115.16 28.54 115.25 28.54 118.79 28.54 121.52 25.32 117.99 25.32"/><polygon class="cls-1" points="129.25 18.49 129.25 18.49 127.21 20.89 125.03 23.45 129.57 23.46 131.66 21 131.66 21 133.85 18.43 135.98 15.93 131.44 15.93 129.25 18.49"/><polygon class="cls-1" points="133.63 13.35 131.44 15.92 135.99 15.92 138.18 13.35 133.63 13.35"/><polygon class="cls-1" points="123.44 25.32 121.54 25.32 118.8 28.54 122.43 28.54 122.43 28.53 125.25 28.54 127.43 25.97 129.56 23.47 125.02 23.46 123.44 25.32"/><polygon class="cls-1" points="144.1 21.24 142.12 23.61 142.1 23.63 142.06 23.68 140.08 26.05 144.31 26.05 146.35 23.62 146.35 23.62 148.25 21.35 150.28 18.92 146.05 18.91 144.1 21.24"/><polygon class="cls-1" points="138.04 28.49 142.27 28.5 144.3 26.06 140.07 26.06 138.04 28.49"/><polygon class="cls-1" points="146.35 17.15 146.44 17.15 147.53 17.15 146.06 18.9 150.29 18.91 152.33 16.47 152.33 16.47 154.31 14.1 152.28 14.1 152.28 14.1 148.99 14.1 148.9 14.1 145.61 14.1 143.06 17.15 146.35 17.15"/><polygon class="cls-1" points="135.87 23.62 135.87 23.62 137.76 21.35 139.8 18.92 135.57 18.91 133.62 21.24 133.62 21.24 131.58 23.68 129.6 26.05 133.83 26.05 135.87 23.62"/><polygon class="cls-1" points="131.79 28.5 133.82 26.06 129.59 26.06 127.56 28.49 131.79 28.5"/><polygon class="cls-1" points="141.28 17.15 143.05 17.15 145.6 14.1 142.22 14.1 142.22 14.1 139.6 14.1 137.56 16.53 135.58 18.9 139.81 18.91 141.28 17.15"/><polygon class="cls-1" points="147.57 9.47 147.57 9.47 149.5 7.08 151.52 4.58 147.29 4.61 145.35 7 143.33 9.5 141.37 11.93 145.6 11.9 147.57 9.47"/><polygon class="cls-1" points="143.58 14.4 145.59 11.91 141.36 11.94 139.34 14.43 143.58 14.4"/><polygon class="cls-1" points="151.53 4.58 153.54 2.08 153.54 2.08 155.09 0.17 150.86 0.19 148.84 2.69 148.84 2.69 147.29 4.6 151.53 4.58"/><polygon class="cls-4" points="155.23 21.49 157.23 19.1 157.24 19.08 157.28 19.04 159.28 16.65 155.02 16.64 152.96 19.1 152.96 19.1 151.05 21.38 149 23.84 153.26 23.84 155.23 21.49"/><polygon class="cls-4" points="161.34 14.18 157.08 14.18 155.02 16.63 159.29 16.64 161.34 14.18"/><polygon class="cls-4" points="152.96 25.62 152.87 25.62 151.78 25.62 153.25 23.85 148.99 23.85 146.93 26.3 146.93 26.3 144.94 28.69 146.98 28.69 146.98 28.7 150.3 28.7 150.39 28.7 153.71 28.7 156.27 25.62 152.96 25.62"/><polygon class="cls-4" points="163.53 19.1 163.53 19.1 161.62 21.38 159.56 23.84 163.83 23.84 165.8 21.49 165.8 21.49 167.85 19.04 169.85 16.65 165.58 16.64 163.53 19.1"/><polygon class="cls-4" points="167.65 14.18 165.59 16.63 169.86 16.64 171.91 14.18 167.65 14.18"/><polygon class="cls-4" points="158.07 25.62 156.29 25.62 153.72 28.7 157.13 28.7 157.13 28.69 159.77 28.7 161.82 26.24 163.82 23.85 159.56 23.85 158.07 25.62"/><polygon class="cls-4" points="151.73 33.36 151.73 33.36 149.78 35.77 147.75 38.29 152.02 38.26 153.97 35.85 156 33.33 157.98 30.89 153.72 30.91 151.73 33.36"/><polygon class="cls-4" points="155.76 28.39 153.72 30.9 157.99 30.88 160.03 28.36 155.76 28.39"/><polygon class="cls-4" points="149.38 36.33 147.34 38.85 147.35 38.85 145.79 40.78 150.05 40.75 152.09 38.24 152.08 38.24 153.65 36.31 149.38 36.33"/><polygon class="cls-4" points="139.48 40.79 142.43 40.79 144.72 38 141.77 38 141.69 38 138.73 38 136.45 40.79 139.4 40.79 139.48 40.79"/><polygon class="cls-4" points="145.48 40.79 147.77 38 144.73 38 142.45 40.79 145.48 40.79"/><polygon class="cls-4" points="138.93 37.7 140.78 35.4 144.39 35.36 142.54 37.66 142.49 37.73 140.64 40.03 137.03 40.06 138.88 37.76 138.93 37.7"/><polygon class="cls-4" points="142.69 33.02 146.29 32.99 144.39 35.35 140.79 35.39 142.69 33.02"/></g></g></svg>