<svg xmlns="http://www.w3.org/2000/svg" viewBox="0 0 172.18 51.8"><defs><style>.cls-1,.cls-2,.cls-3,.cls-4{fill:#010101;stroke:#000;stroke-miterlimit:10;}.cls-1{stroke-width:0.4px;}.cls-2{stroke-width:0.41px;}.cls-3{stroke-width:0.39px;}.cls-4{stroke-width:0.37px;}</style></defs><title>photosss</title><g id="Layer_2" data-name="Layer 2"><g id="Layer_1-2" data-name="Layer 1"><polygon class="cls-1" points="35.04 27.04 32.43 30.1 32.41 30.12 32.36 30.18 29.76 33.24 35.32 33.25 37.99 30.1 37.99 30.1 40.49 27.18 43.16 24.03 37.6 24.03 35.04 27.04"/><polygon class="cls-1" points="27.07 36.4 32.63 36.4 35.31 33.26 29.75 33.25 27.07 36.4"/><polygon class="cls-1" points="38 21.75 38.12 21.75 39.54 21.75 37.61 24.02 43.17 24.02 45.85 20.88 45.85 20.88 48.45 17.82 45.78 17.82 45.79 17.82 41.46 17.82 41.35 17.82 37.02 17.82 33.68 21.75 38 21.75"/><polygon class="cls-1" points="24.22 30.1 24.22 30.1 26.71 27.18 29.39 24.03 23.83 24.03 21.27 27.04 21.27 27.04 18.59 30.18 15.99 33.24 21.55 33.25 24.22 30.1"/><polygon class="cls-1" points="18.86 36.4 21.54 33.26 15.98 33.25 13.3 36.4 18.86 36.4"/><polygon class="cls-1" points="31.33 21.75 33.66 21.75 37.01 17.82 32.57 17.82 32.56 17.82 29.12 17.82 26.45 20.96 23.84 24.02 29.4 24.02 31.33 21.75"/><polygon class="cls-1" points="10.63 39.53 10.63 39.53 8.01 42.6 5.27 45.8 10.83 45.92 13.45 42.84 16.19 39.64 18.86 36.52 13.3 36.4 10.63 39.53"/><polygon class="cls-1" points="16.04 33.19 13.31 36.39 18.87 36.5 21.6 33.3 16.04 33.19"/><polygon class="cls-1" points="5.26 45.82 2.52 49.02 2.53 49.02 0.43 51.48 5.99 51.6 8.72 48.39 8.72 48.39 10.82 45.93 5.26 45.82"/><polygon class="cls-1" points="26.71 27.29 29.32 24.23 29.34 24.21 29.39 24.15 32 21.09 26.44 21.08 23.76 24.23 23.76 24.23 21.27 27.15 18.59 30.3 24.15 30.3 26.71 27.29"/><polygon class="cls-1" points="34.68 17.93 29.12 17.93 26.45 21.07 32.01 21.08 34.68 17.93"/><polygon class="cls-1" points="23.75 32.58 23.64 32.58 22.21 32.58 24.14 30.31 18.58 30.31 15.91 33.45 15.91 33.45 13.3 36.51 15.97 36.51 15.96 36.51 20.29 36.51 20.41 36.51 24.73 36.51 28.07 32.58 23.75 32.58"/><polygon class="cls-1" points="37.53 24.23 37.53 24.23 35.04 27.15 32.36 30.3 37.92 30.3 40.48 27.29 40.48 27.29 43.16 24.15 45.77 21.09 40.21 21.08 37.53 24.23"/><polygon class="cls-1" points="42.89 17.93 40.22 21.07 45.78 21.08 48.45 17.93 42.89 17.93"/><polygon class="cls-1" points="30.42 32.58 28.09 32.58 24.75 36.51 29.19 36.51 29.19 36.51 32.63 36.51 35.31 33.37 37.91 30.31 32.35 30.31 30.42 32.58"/><polygon class="cls-2" points="57.2 26.74 54.7 29.72 54.69 29.75 54.64 29.8 52.14 32.79 57.47 32.79 60.03 29.73 60.03 29.73 62.42 26.87 64.98 23.81 59.66 23.81 57.2 26.74"/><polygon class="cls-2" points="49.57 35.86 54.9 35.87 57.46 32.8 52.13 32.8 49.57 35.86"/><polygon class="cls-2" points="60.04 21.59 60.15 21.59 61.51 21.59 59.67 23.79 64.99 23.8 67.56 20.73 67.56 20.73 70.05 17.75 67.5 17.75 67.5 17.75 63.36 17.75 63.24 17.75 59.1 17.75 55.9 21.59 60.04 21.59"/><polygon class="cls-2" points="46.84 29.73 46.84 29.73 49.23 26.87 51.79 23.81 46.47 23.81 44.01 26.74 44.01 26.74 41.45 29.8 38.95 32.79 44.28 32.79 46.84 29.73"/><polygon class="cls-2" points="41.7 35.87 44.27 32.8 38.94 32.8 36.38 35.86 41.7 35.87"/><polygon class="cls-2" points="53.65 21.59 55.88 21.59 59.09 17.75 54.83 17.75 54.83 17.75 51.53 17.75 48.97 20.81 46.48 23.79 51.8 23.8 53.65 21.59"/><polygon class="cls-2" points="61.56 11.92 61.56 11.92 64 8.91 66.54 5.77 61.21 5.81 58.78 8.81 56.24 11.96 53.77 15.01 59.09 14.98 61.56 11.92"/><polygon class="cls-2" points="56.54 18.13 59.08 14.99 53.76 15.03 51.22 18.17 56.54 18.13"/><polygon class="cls-2" points="66.55 5.76 69.09 2.62 69.08 2.62 71.03 0.21 65.71 0.24 63.17 3.38 63.17 3.38 61.22 5.79 66.55 5.76"/><polygon class="cls-3" points="79.11 27 76.58 29.97 76.56 30 76.51 30.05 73.98 33.03 79.38 33.03 81.98 29.98 81.98 29.98 84.41 27.13 87.01 24.08 81.6 24.08 79.11 27"/><polygon class="cls-3" points="71.37 36.09 76.77 36.1 79.37 33.04 73.97 33.04 71.37 36.09"/><polygon class="cls-3" points="81.99 21.86 82.11 21.86 83.49 21.86 81.61 24.06 87.02 24.07 89.61 21.02 89.61 21.02 92.15 18.04 89.56 18.04 89.56 18.04 85.36 18.04 85.24 18.04 81.04 18.04 77.79 21.86 81.99 21.86"/><polygon class="cls-3" points="68.6 29.98 68.6 29.98 71.03 27.13 73.63 24.08 68.22 24.08 65.73 27 65.73 27 63.13 30.05 60.6 33.03 66 33.03 68.6 29.98"/><polygon class="cls-3" points="63.39 36.1 65.99 33.04 60.59 33.04 57.99 36.09 63.39 36.1"/><polygon class="cls-3" points="75.51 21.86 77.77 21.86 81.03 18.04 76.71 18.04 76.71 18.04 73.36 18.04 70.76 21.09 68.23 24.06 73.64 24.07 75.51 21.86"/><polygon class="cls-3" points="71.03 27.24 73.56 24.27 73.57 24.25 73.63 24.19 76.16 21.22 70.75 21.21 68.15 24.27 68.15 24.27 65.73 27.11 63.13 30.16 68.53 30.17 71.03 27.24"/><polygon class="cls-3" points="78.77 18.15 73.36 18.15 70.76 21.2 76.17 21.21 78.77 18.15"/><polygon class="cls-3" points="68.15 32.38 68.03 32.38 66.65 32.38 68.52 30.18 63.12 30.18 60.52 33.23 60.52 33.23 57.99 36.2 60.58 36.2 60.58 36.21 64.78 36.21 64.89 36.21 69.09 36.21 72.35 32.38 68.15 32.38"/><polygon class="cls-3" points="81.53 24.27 81.53 24.27 79.11 27.11 76.51 30.16 81.91 30.17 84.41 27.24 84.41 27.24 87 24.19 89.54 21.22 84.13 21.21 81.53 24.27"/><polygon class="cls-3" points="86.74 18.15 84.14 21.2 89.55 21.21 92.15 18.15 86.74 18.15"/><polygon class="cls-3" points="74.62 32.38 72.36 32.38 69.11 36.21 73.43 36.21 73.43 36.2 76.77 36.21 79.37 33.15 81.9 30.18 76.5 30.18 74.62 32.38"/><polygon class="cls-3" points="96.06 22 100.26 22 103.52 18.03 99.31 18.03 99.2 18.03 95 18.03 91.75 22 95.95 22 96.06 22"/><polygon class="cls-3" points="117.89 22 118.01 22 122.21 22 125.46 18.03 121.26 18.03 121.15 18.03 120.66 18.03 116.95 18.03 116.34 18.03 113.09 22 113.69 22 117.4 22 117.89 22"/><polygon class="cls-3" points="122.23 22 126.54 22 129.79 18.03 125.48 18.03 122.23 22"/><polygon class="cls-3" points="103.99 24.34 101.57 27.29 98.97 30.46 104.37 30.46 106.86 27.43 109.39 24.34 109.39 24.34 111.99 21.18 106.59 21.17 103.99 24.34"/><polygon class="cls-3" points="98.96 30.47 96.36 33.63 96.36 33.63 94.31 36.13 99.71 36.14 102.31 32.97 102.31 32.97 104.36 30.47 98.96 30.47"/><polygon class="cls-3" points="115.6 10.2 113.18 13.15 110.58 16.31 115.98 16.32 118.47 13.28 121 10.2 121 10.2 123.61 7.04 118.2 7.03 115.6 10.2"/><polygon class="cls-3" points="120.78 3.89 118.18 7.06 123.58 7.06 126.18 3.9 120.78 3.89"/><polygon class="cls-3" points="110.57 16.32 107.97 19.49 107.97 19.49 105.92 21.99 111.32 21.99 113.92 18.83 113.92 18.83 115.97 16.33 110.57 16.32"/><polygon class="cls-3" points="104.92 22 105.03 22 109.23 22 112.48 18.03 108.28 18.03 108.17 18.03 107.68 18.03 103.97 18.03 103.36 18.03 100.11 22 100.72 22 104.43 22 104.92 22"/><polygon class="cls-3" points="110.32 22 110.43 22 114.63 22 117.89 18.03 113.68 18.03 113.57 18.03 113.08 18.03 109.37 18.03 108.76 18.03 105.51 22 106.12 22 109.83 22 110.32 22"/><polygon class="cls-3" points="138.95 26.89 136.41 29.86 136.4 29.88 136.35 29.94 133.81 32.91 139.22 32.92 141.82 29.86 141.82 29.86 144.24 27.02 146.84 23.97 141.44 23.96 138.95 26.89"/><polygon class="cls-3" points="131.21 35.98 136.61 35.98 139.21 32.93 133.8 32.92 131.21 35.98"/><polygon class="cls-3" points="141.82 21.75 141.94 21.75 143.32 21.75 141.45 23.95 146.85 23.95 149.45 20.9 149.45 20.9 151.98 17.93 149.39 17.93 149.39 17.92 145.19 17.92 145.08 17.92 140.88 17.92 137.62 21.75 141.82 21.75"/><polygon class="cls-3" points="128.44 29.86 128.44 29.86 130.86 27.02 133.46 23.97 128.06 23.96 125.56 26.89 125.56 26.89 122.97 29.94 120.43 32.91 125.84 32.92 128.44 29.86"/><polygon class="cls-3" points="123.23 35.98 125.83 32.93 120.42 32.92 117.82 35.98 123.23 35.98"/><polygon class="cls-3" points="135.35 21.75 137.61 21.75 140.86 17.92 136.54 17.92 136.54 17.93 133.2 17.92 130.6 20.98 128.07 23.95 133.47 23.95 135.35 21.75"/><polygon class="cls-3" points="130.86 27.13 133.39 24.16 133.41 24.14 133.46 24.08 135.99 21.1 130.59 21.1 127.99 24.15 127.99 24.15 125.56 27 122.97 30.05 128.37 30.05 130.86 27.13"/><polygon class="cls-3" points="138.6 18.04 133.2 18.03 130.6 21.09 136 21.09 138.6 18.04"/><polygon class="cls-3" points="127.98 32.27 127.87 32.27 126.48 32.27 128.36 30.07 122.95 30.06 120.36 33.12 120.36 33.12 117.82 36.09 120.42 36.09 120.41 36.09 124.61 36.09 124.73 36.09 128.93 36.09 132.18 32.27 127.98 32.27"/><polygon class="cls-3" points="141.37 24.15 141.37 24.15 138.94 27 136.34 30.05 141.75 30.05 144.24 27.13 144.24 27.13 146.84 24.08 149.37 21.1 143.97 21.1 141.37 24.15"/><polygon class="cls-3" points="146.58 18.03 143.98 21.09 149.38 21.09 151.98 18.04 146.58 18.03"/><polygon class="cls-3" points="134.46 32.27 132.2 32.27 128.94 36.09 133.26 36.09 133.26 36.09 136.61 36.09 139.21 33.04 141.74 30.07 136.34 30.06 134.46 32.27"/><polygon class="cls-4" points="150.9 23.16 150.9 23.16 148.64 25.79 146.27 28.54 150.97 28.56 153.24 25.92 155.6 23.18 157.91 20.5 153.21 20.48 150.9 23.16"/><polygon class="cls-4" points="155.58 17.72 153.22 20.47 157.91 20.49 160.28 17.74 155.58 17.72"/><polygon class="cls-4" points="161.4 21.19 165.06 21.2 168.01 17.76 164.36 17.75 164.26 17.75 160.61 17.74 157.65 21.18 161.3 21.19 161.4 21.19"/><polygon class="cls-4" points="168.82 21.21 171.78 17.77 168.03 17.76 165.07 21.2 168.82 21.21"/><polygon class="cls-4" points="160.94 30.51 160.94 30.51 163.2 27.88 165.57 25.13 160.87 25.11 158.6 27.74 156.24 30.49 153.93 33.17 158.63 33.19 160.94 30.51"/><polygon class="cls-4" points="156.26 35.94 158.63 33.2 153.93 33.18 151.56 35.93 156.26 35.94"/><polygon class="cls-4" points="150.44 32.48 146.78 32.47 143.82 35.91 147.48 35.92 147.58 35.92 151.23 35.93 154.19 32.49 150.54 32.48 150.44 32.48"/><polygon class="cls-4" points="143.02 32.46 140.06 35.9 143.81 35.91 146.77 32.47 143.02 32.46"/><polygon class="cls-4" points="157.6 25.1 153.95 25.09 150.99 28.53 154.65 28.54 154.74 28.54 158.4 28.55 161.36 25.11 157.7 25.1 157.6 25.1"/><polygon class="cls-4" points="150.18 25.08 147.22 28.52 150.98 28.53 153.93 25.09 150.18 25.08"/><polygon class="cls-4" points="161.79 25.11 158.83 28.55 162.58 28.56 165.54 25.12 161.79 25.11"/></g></g></svg>