<svg xmlns="http://www.w3.org/2000/svg" viewBox="0 0 318.55 122.19"><defs><style>.cls-1{isolation:isolate;}.cls-2{fill:#5e277b;}.cls-3{fill:#3e0953;}.cls-4{fill:#501c69;}.cls-5{fill:#fff;}</style></defs><title>return</title><g id="Layer_2" data-name="Layer 2"><g id="Layer_1-2" data-name="Layer 1"><g class="cls-1"><polygon class="cls-2" points="318.55 5.32 318.36 87.66 12.19 122.19 12.38 39.85 318.55 5.32"/><polygon class="cls-3" points="12.19 122.19 0 116.87 0.19 34.53 12.38 39.85 12.19 122.19"/><polygon class="cls-4" points="12.38 39.85 0.19 34.53 306.36 0 318.55 5.32 12.38 39.85"/></g><path class="cls-5" d="M119.21,47.91c.17.4.34.74.7,1.49l-3.21.35a14.25,14.25,0,0,0-.73-2.22c-.48-1.23-.65-1.55-1-1.84a1.34,1.34,0,0,0-1.08-.28l-1.4.15.07,2.41a16.57,16.57,0,0,0,.17,2.21l-2.95.32a16,16,0,0,0,0-2.22l-.22-7.93a16.73,16.73,0,0,0-.17-2.15c.6,0,1.11-.08,2-.18l3.56-.39c2.22-.25,3.55.85,3.61,3a3.56,3.56,0,0,1-.74,2.5,3.32,3.32,0,0,1-1.29.89c.71.15,1,.46,1.5,1.46C118.34,45.9,118.55,46.39,119.21,47.91Zm-4.65-5.1a1.37,1.37,0,0,0,1.26-1.51c0-.83-.47-1.21-1.33-1.11l-2.15.24.07,2.62,2.14-.24"/><path class="cls-5" d="M126.28,46.3a1.64,1.64,0,0,0,.39-.8l2.41.45a4.74,4.74,0,0,1-.86,1.62,4.69,4.69,0,0,1-3.2,1.61,3.85,3.85,0,0,1-3.22-.9,4.86,4.86,0,0,1-1.35-3.45c-.08-2.92,1.61-5,4.22-5.33a3.64,3.64,0,0,1,4.21,3,10.55,10.55,0,0,1,.26,1.9,2.44,2.44,0,0,0,0,.3l-6.17.68c.17,1.18.83,1.73,1.92,1.61A2.09,2.09,0,0,0,126.28,46.3Zm-1.55-4.61A1.86,1.86,0,0,0,123,43.34L126.5,43a1.48,1.48,0,0,0-1.77-1.26"/><path class="cls-5" d="M133.82,36.52a17.16,17.16,0,0,0-.06,2v.31l.49-.05a8.72,8.72,0,0,0,1.35-.22l.07,2.44a9.24,9.24,0,0,0-1.27.06l-.58.06.11,3.76c0,.42.09.61.27.72a1.07,1.07,0,0,0,.64.09,1.92,1.92,0,0,0,1-.37l.27,2.22a5.89,5.89,0,0,1-1.88.5,3,3,0,0,1-2-.29c-.54-.37-.74-.85-.77-1.86l-.13-4.5-.52.06a8.75,8.75,0,0,0-1.19.21l-.07-2.46a7.32,7.32,0,0,0,1.22,0l.49-.05v-.31a15.81,15.81,0,0,0-.16-2Z"/><path class="cls-5" d="M145.3,37.58a17.65,17.65,0,0,0-.05,2.22l.13,4.55a15.13,15.13,0,0,0,.18,2.2l-2.73.3,0-.64a3.57,3.57,0,0,1,0-.4A4,4,0,0,1,140,47.41a2.72,2.72,0,0,1-2.2-.59,3.1,3.1,0,0,1-.85-2.39l-.1-3.69a20.68,20.68,0,0,0-.17-2.2l2.85-.31a19.9,19.9,0,0,0,0,2.22l.08,3a1.69,1.69,0,0,0,.25,1.08,1,1,0,0,0,.9.32,2.91,2.91,0,0,0,2-1.75l-.08-3a19,19,0,0,0-.17-2.2Z"/><path class="cls-5" d="M152.21,36.64a5,5,0,0,1,1.36,0L153,39.4a4.15,4.15,0,0,0-1.41-.13,2.13,2.13,0,0,0-1.61,1,2.4,2.4,0,0,0-.37,1.36l.06,2.3a17.13,17.13,0,0,0,.17,2.2l-2.84.31a18.08,18.08,0,0,0,0-2.24l-.13-4.53a15.49,15.49,0,0,0-.17-2.21l2.73-.3,0,1.17A3.32,3.32,0,0,1,152.21,36.64Z"/><path class="cls-5" d="M159.92,35.75a2.69,2.69,0,0,1,2.23.59,3.06,3.06,0,0,1,.86,2.38l.1,3.7a20.8,20.8,0,0,0,.17,2.2l-2.85.31a18.1,18.1,0,0,0,.05-2.24l-.08-3a1.68,1.68,0,0,0-.25-1.06,1,1,0,0,0-.92-.31c-.77.08-1.44.67-2,1.76l.08,3a19.13,19.13,0,0,0,.17,2.21l-2.84.31a18,18,0,0,0,0-2.24l-.13-4.53a15.62,15.62,0,0,0-.17-2.21l2.73-.3,0,.62c0,.09,0,.31,0,.42A4,4,0,0,1,159.92,35.75Z"/><path class="cls-5" d="M174.07,31.13c2.72-.3,4.25.93,4.32,3.49a4.25,4.25,0,0,1-4.11,4.65l-2.16.24.05,1.88a19,19,0,0,0,.18,2.21l-3,.33a17.2,17.2,0,0,0,.05-2.2l-.22-8a17.33,17.33,0,0,0-.18-2.14c.64,0,1.14-.08,2-.18Zm0,5.65A1.56,1.56,0,0,0,175.57,35,1.26,1.26,0,0,0,174,33.65l-2,.23L172,37l2-.23"/><path class="cls-5" d="M183.64,33c2.77-.31,4.58,1.37,4.66,4.28a4.91,4.91,0,0,1-4.4,5.38c-2.76.3-4.57-1.38-4.65-4.34S180.87,33.32,183.64,33Zm.21,7.42c1.19-.13,1.86-1.17,1.81-2.8s-.77-2.55-1.94-2.42-1.89,1.18-1.84,2.8.78,2.55,2,2.41"/><path class="cls-5" d="M192.06,29.15a16.13,16.13,0,0,0-.05,2.24l.22,7.8a18.71,18.71,0,0,0,.18,2.21l-2.87.32a16,16,0,0,0,.05-2.24l-.22-7.8a14.9,14.9,0,0,0-.18-2.21Z"/><path class="cls-5" d="M196.41,34.18l.13,4.53c0,.8.09,1.59.17,2.21l-2.86.32a17.94,17.94,0,0,0,0-2.24l-.13-4.53a16.73,16.73,0,0,0-.17-2.21l2.86-.32A16,16,0,0,0,196.41,34.18Z"/><polygon class="cls-5" points="196.32 28.68 196.39 30.88 193.61 31.19 193.54 28.98 196.32 28.68"/><path class="cls-5" d="M201.94,31a3.48,3.48,0,0,1,4.12,2.63l-2.45.82a2,2,0,0,0-.4-.82,1.3,1.3,0,0,0-1.17-.39c-1.11.12-1.74,1.14-1.7,2.76s.77,2.55,1.87,2.43a1.71,1.71,0,0,0,1.28-.79,1.6,1.6,0,0,0,.23-.71l2.54.15a4.82,4.82,0,0,1-.54,1.52,4.34,4.34,0,0,1-3.47,2.09,4,4,0,0,1-3.24-.91,4.85,4.85,0,0,1-1.33-3.44C197.6,33.35,199.27,31.28,201.94,31Z"/><path class="cls-5" d="M216.08,29.77c-.32.81-.32.81-.77,2.06L212.39,40a3.28,3.28,0,0,1-3,2.36,7.59,7.59,0,0,1-1.89,0l.24-2.38a1.92,1.92,0,0,0,1.08.21,1.29,1.29,0,0,0,1.09-.82l.27-.66-2.74-5.94c-.63-1.4-.69-1.53-.88-1.88l3-.33a9.54,9.54,0,0,0,.59,1.84l1.35,3.26,1.13-3.48a10.2,10.2,0,0,0,.53-2Z"/><path class="cls-5" d="M40.56,74.07c.29.76.52,1.33.71,1.73l-3.21.35a11,11,0,0,0-.37-1.55l-.41-1.21-3.91.43L33,75.12a9.49,9.49,0,0,0-.29,1.63l-3.21.35a16.21,16.21,0,0,0,.61-1.88L32.85,66a9.12,9.12,0,0,0,.4-1.64L36.83,64a9.9,9.9,0,0,0,.51,1.54ZM34,71.27,36.55,71l-1.43-4.27L34,71.27"/><path class="cls-5" d="M44.62,63.14a16.16,16.16,0,0,0-.05,2.24l.22,7.8A18.76,18.76,0,0,0,45,75.4l-2.87.32a16,16,0,0,0,.05-2.24l-.22-7.8a14.9,14.9,0,0,0-.18-2.21Z"/><path class="cls-5" d="M48.92,62.67a16.16,16.16,0,0,0-.05,2.24l.22,7.8a18.76,18.76,0,0,0,.18,2.21l-2.86.32a16.29,16.29,0,0,0,0-2.24l-.22-7.8A15.19,15.19,0,0,0,46.06,63Z"/><path class="cls-5" d="M58.72,64.55a3.79,3.79,0,0,1,3,.62,2.8,2.8,0,0,1,.94,1.58l-2.64.6c-.08-.6-.44-.82-1.18-.74s-1.14.37-1.13.75.3.52,1.67.68a7.21,7.21,0,0,1,2.27.47A2.1,2.1,0,0,1,63,70.62a3,3,0,0,1-.64,2,4.72,4.72,0,0,1-3.22,1.44c-1.74.19-3-.18-3.65-1.08a3.28,3.28,0,0,1-.58-1.42L57.59,71c.15.75.63,1,1.55.94s1.28-.4,1.26-.85a.55.55,0,0,0-.31-.5A3.19,3.19,0,0,0,59,70.36a13.67,13.67,0,0,1-2-.31,2.33,2.33,0,0,1-1.39-.89,2.76,2.76,0,0,1-.38-1.36C55.08,66,56.44,64.81,58.72,64.55Z"/><path class="cls-5" d="M72.39,72.37l-2.66.29,0-.68a4.11,4.11,0,0,1-2.63,1.18,3,3,0,0,1-2.4-.55,2.53,2.53,0,0,1-.8-1.91,2.76,2.76,0,0,1,.94-2.27,5.92,5.92,0,0,1,2.82-1.27c.53-.12.94-.17,1.93-.32V66.5c0-.71-.42-1-1.33-.89a1.51,1.51,0,0,0-1.53,1.21l-2.63-.17a3.51,3.51,0,0,1,1.1-1.9,6.42,6.42,0,0,1,5.61-.95,2.48,2.48,0,0,1,1.34,2.51l.11,4A18.91,18.91,0,0,0,72.39,72.37Zm-3.22-2a1.7,1.7,0,0,0,.46-1.19v-.41a7.79,7.79,0,0,0-2.36.55,1.2,1.2,0,0,0-.77,1.06c0,.53.43.79,1.15.71a2.66,2.66,0,0,0,1.53-.73"/><path class="cls-5" d="M76.37,59.64a16.33,16.33,0,0,0,0,2.24l.22,7.8a18.79,18.79,0,0,0,.17,2.21l-2.86.32a16.25,16.25,0,0,0,0-2.24l-.22-7.8A15.15,15.15,0,0,0,73.51,60Z"/><path class="cls-5" d="M83.51,68.75a1.71,1.71,0,0,0,.39-.8l2.41.45A5,5,0,0,1,85.44,70a4.71,4.71,0,0,1-3.21,1.61,3.84,3.84,0,0,1-3.21-.9,4.82,4.82,0,0,1-1.35-3.45c-.08-2.92,1.61-5,4.22-5.33a3.64,3.64,0,0,1,4.21,3,11.37,11.37,0,0,1,.26,1.9,2.44,2.44,0,0,0,0,.3l-6.17.68c.17,1.18.83,1.73,1.91,1.61A2.12,2.12,0,0,0,83.51,68.75ZM82,64.14a1.86,1.86,0,0,0-1.75,1.65l3.52-.39A1.48,1.48,0,0,0,82,64.14"/><path class="cls-5" d="M91,61a3.78,3.78,0,0,1,2.95.62,2.8,2.8,0,0,1,.94,1.58l-2.64.6c-.08-.6-.44-.82-1.18-.74s-1.14.37-1.13.75.29.52,1.66.69a7.21,7.21,0,0,1,2.27.47,2.1,2.1,0,0,1,1.38,2.1,3,3,0,0,1-.64,2,4.72,4.72,0,0,1-3.22,1.44c-1.73.19-3-.18-3.65-1.08A3.28,3.28,0,0,1,87.2,68l2.71-.62c.16.75.63,1,1.55.94s1.28-.4,1.26-.85a.55.55,0,0,0-.31-.5,3.19,3.19,0,0,0-1.14-.22,13.66,13.66,0,0,1-2-.31,2.33,2.33,0,0,1-1.4-.89,2.76,2.76,0,0,1-.38-1.36C87.4,62.47,88.75,61.24,91,61Z"/><path class="cls-5" d="M110.72,61.36l.13,4.53c0,.8.09,1.59.17,2.21l-2.86.32a18,18,0,0,0,0-2.24l-.13-4.53a16.77,16.77,0,0,0-.17-2.21l2.86-.32A16,16,0,0,0,110.72,61.36Z"/><path class="cls-5" d="M102.14,59.38c-.05-1.94.95-3,3.18-3.2a6.63,6.63,0,0,1,2.1.08l-.37,2.21a2.44,2.44,0,0,0-1.37-.22c-.67.07-.92.4-.9,1.16v.37l.39,0a17.55,17.55,0,0,0,1.82-.31l.07,2.47a13.33,13.33,0,0,0-1.8.1l-.42,0,.13,4.49a16.86,16.86,0,0,0,.17,2.21l-2.85.31a17.79,17.79,0,0,0,.05-2.24l-.13-4.49-.37,0a9.93,9.93,0,0,0-1.54.27l-.07-2.47a11.08,11.08,0,0,0,1.54-.06l.37,0Z"/><polygon class="cls-5" points="110.63 55.86 110.7 58.07 107.92 58.37 107.85 56.16 110.63 55.86"/><path class="cls-5" d="M117.75,58.13a2.72,2.72,0,0,1,2.24.59,3.09,3.09,0,0,1,.85,2.38l.1,3.7a20.8,20.8,0,0,0,.17,2.2l-2.85.31a18.14,18.14,0,0,0,.05-2.24l-.08-3A1.68,1.68,0,0,0,118,61a1,1,0,0,0-.92-.31c-.77.08-1.44.67-2,1.76l.08,3a19.13,19.13,0,0,0,.17,2.21l-2.84.31a18,18,0,0,0,0-2.24l-.13-4.53a15.61,15.61,0,0,0-.17-2.21l2.73-.3,0,.62c0,.09,0,.31,0,.42A4,4,0,0,1,117.75,58.13Z"/><path class="cls-5" d="M130.7,65.94l-2.66.29,0-.68a4.13,4.13,0,0,1-2.64,1.18,3,3,0,0,1-2.39-.55,2.54,2.54,0,0,1-.81-1.91,2.78,2.78,0,0,1,.94-2.27,6,6,0,0,1,2.83-1.27c.53-.12.94-.17,1.93-.32v-.34c0-.71-.43-1-1.34-.89a1.51,1.51,0,0,0-1.52,1.2l-2.63-.17a3.51,3.51,0,0,1,1.1-1.9,6.42,6.42,0,0,1,5.61-.95,2.48,2.48,0,0,1,1.33,2.51l.11,4A18.68,18.68,0,0,0,130.7,65.94Zm-3.22-2a1.7,1.7,0,0,0,.46-1.19V62.3a7.85,7.85,0,0,0-2.37.55,1.19,1.19,0,0,0-.76,1.06c0,.53.43.79,1.14.72a2.66,2.66,0,0,0,1.54-.73"/><path class="cls-5" d="M134.67,53.2a16.33,16.33,0,0,0,0,2.24l.22,7.8a18.79,18.79,0,0,0,.17,2.21l-2.86.32a16.25,16.25,0,0,0,0-2.24l-.22-7.8a15.15,15.15,0,0,0-.17-2.21Z"/><polygon class="cls-5" points="139.11 62.02 139.2 65 136.43 65.3 136.35 62.33 139.11 62.02"/><path class="cls-5" d="M153.8,57.67a2.86,2.86,0,0,1,1,2.23c.06,2.12-1.3,3.53-3.69,3.79l-3.73.41c-1,.12-1.44.17-2,.27a15.41,15.41,0,0,0,0-2.18l-.23-8.06A17.34,17.34,0,0,0,145,52c.7,0,.89-.05,2-.18l3.6-.4c2.22-.25,3.55.76,3.61,2.7a3,3,0,0,1-.74,2.19,3.24,3.24,0,0,1-1.09.78A2.55,2.55,0,0,1,153.8,57.67Zm-3.24,3.64a1.4,1.4,0,0,0,1.34-1.54,1.15,1.15,0,0,0-1.44-1.2l-2.51.28.08,2.74,2.53-.28m-2.73-7.13.06,2.32,2.41-.27a1.21,1.21,0,0,0,1.15-1.31c0-.72-.46-1.09-1.24-1l-2.39.26"/><path class="cls-5" d="M164.48,53.19a17.61,17.61,0,0,0-.05,2.22l.13,4.55a15.1,15.1,0,0,0,.18,2.2l-2.73.3,0-.64a3.57,3.57,0,0,1,0-.4A4,4,0,0,1,159.17,63a2.69,2.69,0,0,1-2.2-.59,3.07,3.07,0,0,1-.85-2.39l-.1-3.69a20.67,20.67,0,0,0-.17-2.2l2.85-.31a18.14,18.14,0,0,0,0,2.22l.08,3a1.69,1.69,0,0,0,.25,1.08,1,1,0,0,0,.9.32,2.91,2.91,0,0,0,2-1.75l-.08-3a19,19,0,0,0-.17-2.2Z"/><path class="cls-5" d="M169.62,50.3a19.27,19.27,0,0,0-.05,2v.31l.49-.05a8.66,8.66,0,0,0,1.34-.22l.07,2.44a9.11,9.11,0,0,0-1.26.06l-.58.06.11,3.76c0,.42.08.61.27.72a1,1,0,0,0,.63.09,1.9,1.9,0,0,0,1-.37l.27,2.22a5.89,5.89,0,0,1-1.88.5,3,3,0,0,1-2-.29c-.53-.38-.74-.85-.77-1.86l-.13-4.5-.52.06a8.85,8.85,0,0,0-1.19.21L165.29,53a7.32,7.32,0,0,0,1.22,0l.49-.05v-.31a15.86,15.86,0,0,0-.16-2Z"/><path class="cls-5" d="M189,50.48c-.19.59-.38,1.27-.56,2L187.1,58a13.42,13.42,0,0,0-.36,1.77L184.4,60a12.31,12.31,0,0,0-.47-1.68L183,55.47c-.07-.24-.14-.43-.16-.56-.09.36-.09.38-.15.59l-.76,3c-.17.67-.33,1.41-.38,1.77l-2.33.26a16.71,16.71,0,0,0-.46-1.68l-1.69-5.18c-.16-.5-.39-1.13-.67-1.85l3-.33a10.41,10.41,0,0,0,.3,1.71l.67,2.57c.08.35.14.58.16.69a7.09,7.09,0,0,0,.17-.73l.69-2.76c.33-1.43.33-1.43.38-1.74l2-.22a14.46,14.46,0,0,0,.46,1.65l.88,2.7c0,.09.12.41.18.58,0-.23,0-.23.11-.63l.5-2.67a12.82,12.82,0,0,0,.24-1.89Z"/><path class="cls-5" d="M195.46,56.4a1.64,1.64,0,0,0,.39-.8l2.41.45a4.74,4.74,0,0,1-.86,1.62,4.69,4.69,0,0,1-3.2,1.61,3.85,3.85,0,0,1-3.22-.9,4.86,4.86,0,0,1-1.35-3.45c-.08-2.92,1.61-5,4.22-5.33a3.64,3.64,0,0,1,4.21,3,10.57,10.57,0,0,1,.26,1.9,2.44,2.44,0,0,0,0,.3l-6.17.68c.17,1.18.83,1.73,1.92,1.61A2.09,2.09,0,0,0,195.46,56.4Zm-1.55-4.61a1.86,1.86,0,0,0-1.75,1.65l3.52-.39a1.48,1.48,0,0,0-1.77-1.26"/><path class="cls-5" d="M212.49,47.9a17.61,17.61,0,0,0-.05,2.22l.13,4.55a15.1,15.1,0,0,0,.18,2.2l-2.73.3,0-.64a3.53,3.53,0,0,1,0-.4,4,4,0,0,1-2.82,1.59,2.69,2.69,0,0,1-2.2-.59,3.07,3.07,0,0,1-.85-2.39L204,51a20.68,20.68,0,0,0-.17-2.2l2.85-.31a18.09,18.09,0,0,0,0,2.22l.08,3a1.69,1.69,0,0,0,.25,1.08,1,1,0,0,0,.9.32,2.92,2.92,0,0,0,2-1.75l-.08-3a19,19,0,0,0-.17-2.2Z"/><path class="cls-5" d="M219.46,46.91a2.69,2.69,0,0,1,2.23.59,3.06,3.06,0,0,1,.85,2.38l.1,3.7a20.86,20.86,0,0,0,.17,2.2l-2.85.31a18.26,18.26,0,0,0,0-2.24l-.08-3a1.75,1.75,0,0,0-.24-1.06,1,1,0,0,0-.92-.31q-1.16.13-2,1.76l.08,3a19.13,19.13,0,0,0,.17,2.21l-2.83.31a18,18,0,0,0,0-2.24L214.1,50a15.62,15.62,0,0,0-.17-2.21l2.72-.3,0,.62c0,.09,0,.31,0,.42A4,4,0,0,1,219.46,46.91Z"/><path class="cls-5" d="M233,44.68l.21,7.63a18.41,18.41,0,0,0,.18,2.3l-2.71.3v-.48a2.38,2.38,0,0,1,0-.32,4.05,4.05,0,0,1-2.74,1.37c-2.49.28-4-1.36-4.13-4.33a5.53,5.53,0,0,1,1.08-3.73A4,4,0,0,1,227.58,46a3.68,3.68,0,0,1,2.84.78c0-.21,0-.35,0-.55l0-1.22a17.43,17.43,0,0,0-.17-2.3l2.81-.31A17.78,17.78,0,0,0,233,44.68Zm-4.51,8.47a2.54,2.54,0,0,0,2-2.79c0-1.42-.95-2.36-2.2-2.22s-1.91,1.17-1.87,2.72a2.52,2.52,0,0,0,.69,1.87,1.7,1.7,0,0,0,1.34.42"/><path class="cls-5" d="M240.13,51.47a1.64,1.64,0,0,0,.39-.8l2.41.45a4.88,4.88,0,0,1-.86,1.62,4.7,4.7,0,0,1-3.2,1.61,3.85,3.85,0,0,1-3.22-.9A4.86,4.86,0,0,1,234.3,50c-.08-2.92,1.61-5,4.22-5.33a3.64,3.64,0,0,1,4.21,3,10.57,10.57,0,0,1,.26,1.9,2.44,2.44,0,0,0,0,.3l-6.17.68a1.62,1.62,0,0,0,1.92,1.61A2.09,2.09,0,0,0,240.13,51.47Zm-1.55-4.61a1.86,1.86,0,0,0-1.75,1.65l3.52-.39a1.48,1.48,0,0,0-1.77-1.26"/><path class="cls-5" d="M249.43,43.64a5,5,0,0,1,1.36,0l-.58,2.72a4.11,4.11,0,0,0-1.41-.13,2.11,2.11,0,0,0-1.61,1,2.34,2.34,0,0,0-.37,1.36l.06,2.3a17.13,17.13,0,0,0,.17,2.2l-2.84.31a18.08,18.08,0,0,0,0-2.24l-.13-4.53a15.49,15.49,0,0,0-.17-2.21l2.73-.3,0,1.17A3.32,3.32,0,0,1,249.43,43.64Z"/><path class="cls-5" d="M255.32,42.86a3.78,3.78,0,0,1,2.95.62,2.8,2.8,0,0,1,.94,1.58l-2.64.6c-.08-.6-.44-.82-1.18-.74s-1.14.37-1.13.75.3.52,1.66.69a7.21,7.21,0,0,1,2.27.47,2.1,2.1,0,0,1,1.38,2.1,3,3,0,0,1-.64,2,4.72,4.72,0,0,1-3.22,1.44c-1.73.19-3-.18-3.65-1.08a3.28,3.28,0,0,1-.58-1.42l2.71-.62c.16.75.63,1,1.55.94s1.28-.4,1.26-.85a.55.55,0,0,0-.31-.5,3.19,3.19,0,0,0-1.14-.22,13.67,13.67,0,0,1-2-.31,2.33,2.33,0,0,1-1.39-.89,2.76,2.76,0,0,1-.38-1.36C251.68,44.34,253,43.11,255.32,42.86Z"/><path class="cls-5" d="M264.28,39.85a19.21,19.21,0,0,0-.05,2v.31l.49-.05a8.6,8.6,0,0,0,1.34-.22l.07,2.44a9.11,9.11,0,0,0-1.26.06l-.58.06.11,3.76c0,.42.08.61.27.72a1.05,1.05,0,0,0,.64.09,1.87,1.87,0,0,0,.95-.37l.27,2.22a5.89,5.89,0,0,1-1.88.5,3,3,0,0,1-2-.29c-.53-.38-.73-.85-.76-1.86l-.13-4.5-.53.06A8.94,8.94,0,0,0,260,45l-.07-2.46a7.42,7.42,0,0,0,1.23,0l.49-.05v-.31a15.82,15.82,0,0,0-.17-2Z"/><path class="cls-5" d="M275.56,50l-2.66.29,0-.68a4.13,4.13,0,0,1-2.64,1.18,3,3,0,0,1-2.39-.55,2.54,2.54,0,0,1-.81-1.91A2.78,2.78,0,0,1,268,46a6,6,0,0,1,2.83-1.27c.53-.12.94-.17,1.93-.32v-.34c0-.71-.43-1-1.34-.89a1.51,1.51,0,0,0-1.52,1.2l-2.63-.17a3.51,3.51,0,0,1,1.1-1.9,6.42,6.42,0,0,1,5.61-.95,2.48,2.48,0,0,1,1.33,2.51l.11,4A18.68,18.68,0,0,0,275.56,50Zm-3.22-2a1.7,1.7,0,0,0,.46-1.19v-.41a7.85,7.85,0,0,0-2.37.55,1.19,1.19,0,0,0-.76,1.06c0,.53.43.79,1.14.72a2.66,2.66,0,0,0,1.54-.73"/><path class="cls-5" d="M282.29,40a2.69,2.69,0,0,1,2.23.59,3.06,3.06,0,0,1,.85,2.38l.1,3.7a18.59,18.59,0,0,0,.18,2.2l-2.85.31a18.26,18.26,0,0,0,0-2.24l-.08-3a1.69,1.69,0,0,0-.24-1.06,1,1,0,0,0-.92-.31q-1.16.13-2,1.76l.08,3a19.07,19.07,0,0,0,.18,2.21l-2.84.31a18,18,0,0,0,0-2.24L276.93,43a15.61,15.61,0,0,0-.17-2.21l2.72-.3,0,.62c0,.09,0,.31,0,.42A4,4,0,0,1,282.29,40Z"/><path class="cls-5" d="M295.79,37.75l.21,7.63a18.45,18.45,0,0,0,.18,2.3l-2.71.3V47.5a2.38,2.38,0,0,1,0-.32,4.05,4.05,0,0,1-2.74,1.37c-2.49.28-4-1.36-4.13-4.33a5.57,5.57,0,0,1,1.08-3.73A4,4,0,0,1,290.42,39a3.68,3.68,0,0,1,2.84.78c0-.21,0-.35,0-.55l0-1.22a17.36,17.36,0,0,0-.17-2.3l2.81-.31A17.81,17.81,0,0,0,295.79,37.75Zm-4.51,8.47a2.54,2.54,0,0,0,2-2.79c0-1.42-.95-2.36-2.19-2.22s-1.92,1.17-1.88,2.72a2.55,2.55,0,0,0,.69,1.87,1.7,1.7,0,0,0,1.34.42"/><path class="cls-5" d="M42,91.06a1.64,1.64,0,0,0,.39-.8l2.41.45a4.74,4.74,0,0,1-.86,1.62,4.69,4.69,0,0,1-3.2,1.61A3.86,3.86,0,0,1,37.5,93a4.85,4.85,0,0,1-1.34-3.45c-.08-2.92,1.6-5,4.22-5.33a3.65,3.65,0,0,1,4.21,3,11.41,11.41,0,0,1,.26,1.9c0,.06,0,.15,0,.3l-6.17.68c.17,1.18.83,1.73,1.92,1.61A2.08,2.08,0,0,0,42,91.06Zm-1.54-4.61a1.87,1.87,0,0,0-1.76,1.65l3.53-.39a1.49,1.49,0,0,0-1.77-1.26"/><path class="cls-5" d="M54.68,83c-.25.69-.35,1-.52,1.49L52,91.1a6.86,6.86,0,0,0-.34,1.28l-3,.33a6,6,0,0,0-.4-1.2l-2.48-6.06-.62-1.37,3-.34a6,6,0,0,0,.3,1.23l1.4,4.45.05.15.13.4c0-.14,0-.22.06-.27l0-.15.05-.18,1.15-4.71a7.19,7.19,0,0,0,.22-1.29Z"/><path class="cls-5" d="M61.09,88.95a1.64,1.64,0,0,0,.39-.8l2.41.45A4.74,4.74,0,0,1,63,90.23a4.69,4.69,0,0,1-3.2,1.61,3.85,3.85,0,0,1-3.22-.9,4.86,4.86,0,0,1-1.35-3.45c-.08-2.92,1.61-5,4.22-5.33a3.64,3.64,0,0,1,4.21,3,10.55,10.55,0,0,1,.26,1.9,2.44,2.44,0,0,0,0,.3L57.8,88c.17,1.18.83,1.73,1.92,1.61A2.09,2.09,0,0,0,61.09,88.95Zm-1.55-4.61A1.86,1.86,0,0,0,57.79,86l3.52-.39a1.48,1.48,0,0,0-1.77-1.26"/><path class="cls-5" d="M70.39,81.13a4.94,4.94,0,0,1,1.36,0l-.58,2.72a4.11,4.11,0,0,0-1.41-.13,2.11,2.11,0,0,0-1.61,1,2.4,2.4,0,0,0-.37,1.36l.06,2.3a17.13,17.13,0,0,0,.17,2.2l-2.84.31a18,18,0,0,0,.05-2.24l-.13-4.53a15.25,15.25,0,0,0-.18-2.21l2.73-.3,0,1.17A3.34,3.34,0,0,1,70.39,81.13Z"/><path class="cls-5" d="M81.5,80.08c-.32.81-.32.81-.77,2.06l-2.92,8.14a3.3,3.3,0,0,1-3,2.36,7.53,7.53,0,0,1-1.88,0l.23-2.37a1.92,1.92,0,0,0,1.08.21,1.28,1.28,0,0,0,1.09-.82l.27-.66L72.82,83c-.63-1.4-.69-1.53-.88-1.88l3-.33a10.19,10.19,0,0,0,.59,1.84l1.36,3.26L78,82.43a9.83,9.83,0,0,0,.54-2Z"/><path class="cls-5" d="M90.58,78.76a3.76,3.76,0,0,1,2.95.62A2.75,2.75,0,0,1,94.46,81l-2.63.6c-.09-.6-.44-.82-1.18-.74s-1.14.37-1.13.75.3.52,1.67.68a7.13,7.13,0,0,1,2.27.47,2.1,2.1,0,0,1,1.38,2.1,3,3,0,0,1-.64,2A4.72,4.72,0,0,1,91,88.31c-1.73.19-3-.18-3.64-1.08a3.38,3.38,0,0,1-.59-1.41l2.71-.62c.16.75.64,1,1.55.94s1.28-.4,1.27-.85a.54.54,0,0,0-.32-.5,3.11,3.11,0,0,0-1.14-.22,13.77,13.77,0,0,1-2-.31,2.39,2.39,0,0,1-1.4-.89A2.76,2.76,0,0,1,87,82C86.93,80.25,88.29,79,90.58,78.76Z"/><path class="cls-5" d="M98.66,80.42,98.78,85A19.81,19.81,0,0,0,99,87.16l-2.87.32a17.84,17.84,0,0,0,.05-2.24L96,80.71a16.57,16.57,0,0,0-.18-2.21l2.87-.32A15.79,15.79,0,0,0,98.66,80.42Z"/><polygon class="cls-5" points="98.58 74.91 98.64 77.12 95.85 77.43 95.79 75.22 98.58 74.91"/><path class="cls-5" d="M103.87,75.28a17.16,17.16,0,0,0-.06,2v.31l.49-.05a8.72,8.72,0,0,0,1.35-.22l.07,2.44a9.24,9.24,0,0,0-1.27.06l-.58.06.11,3.76c0,.42.09.61.27.72a1.07,1.07,0,0,0,.64.09,1.92,1.92,0,0,0,1-.37l.27,2.22a5.89,5.89,0,0,1-1.88.5,3,3,0,0,1-2-.29c-.54-.37-.74-.85-.77-1.86l-.13-4.5-.52.06a8.76,8.76,0,0,0-1.19.21L99.53,78a7.32,7.32,0,0,0,1.22,0l.49-.05v-.31a15.81,15.81,0,0,0-.16-2Z"/><path class="cls-5" d="M115.35,76.34a17.74,17.74,0,0,0,0,2.22l.13,4.55a15.34,15.34,0,0,0,.17,2.2l-2.73.3,0-.64a3.53,3.53,0,0,1,0-.4A4,4,0,0,1,110,86.16a2.72,2.72,0,0,1-2.2-.59,3.1,3.1,0,0,1-.85-2.39l-.1-3.69a20.68,20.68,0,0,0-.17-2.2l2.85-.31a18,18,0,0,0-.05,2.22l.08,3a1.69,1.69,0,0,0,.25,1.08,1,1,0,0,0,.9.32,2.91,2.91,0,0,0,2-1.75l-.08-3a19,19,0,0,0-.17-2.2Z"/><path class="cls-5" d="M125.2,84.27l-2.67.29,0-.68a4.09,4.09,0,0,1-2.63,1.18,3,3,0,0,1-2.39-.55,2.54,2.54,0,0,1-.81-1.91,2.78,2.78,0,0,1,.94-2.27,6,6,0,0,1,2.82-1.27c.53-.12.94-.17,1.93-.32V78.4c0-.71-.42-1-1.33-.89a1.5,1.5,0,0,0-1.52,1.2l-2.64-.17a3.56,3.56,0,0,1,1.1-1.9,6.44,6.44,0,0,1,5.62-.95,2.49,2.49,0,0,1,1.33,2.51l.11,4A16.87,16.87,0,0,0,125.2,84.27Zm-3.23-2a1.66,1.66,0,0,0,.46-1.19v-.41a7.79,7.79,0,0,0-2.36.55,1.2,1.2,0,0,0-.77,1.06c0,.53.43.79,1.15.71a2.66,2.66,0,0,0,1.53-.73"/><path class="cls-5" d="M130.11,72.38a17.16,17.16,0,0,0-.06,2v.31l.49-.05a8.71,8.71,0,0,0,1.35-.22l.07,2.44a9.24,9.24,0,0,0-1.27.06l-.58.06.11,3.76c0,.42.09.61.27.72a1.07,1.07,0,0,0,.64.09,1.92,1.92,0,0,0,1-.37l.27,2.22a5.89,5.89,0,0,1-1.88.5,3,3,0,0,1-2-.29c-.54-.37-.74-.85-.77-1.86l-.13-4.5-.52.06a8.75,8.75,0,0,0-1.19.21l-.07-2.46a7.31,7.31,0,0,0,1.22,0l.49-.05v-.31a15.81,15.81,0,0,0-.16-2Z"/><path class="cls-5" d="M135.79,76.32l.13,4.53a22.19,22.19,0,0,0,.17,2.21l-2.86.32a18,18,0,0,0,0-2.24l-.13-4.53A16.81,16.81,0,0,0,133,74.4l2.86-.32A16,16,0,0,0,135.79,76.32Z"/><polygon class="cls-5" points="135.7 70.82 135.77 73.03 132.99 73.33 132.92 71.12 135.7 70.82"/><path class="cls-5" d="M141.45,73.13c2.77-.31,4.58,1.37,4.66,4.28a4.91,4.91,0,0,1-4.4,5.38c-2.76.3-4.57-1.38-4.65-4.34S138.68,73.43,141.45,73.13Zm.21,7.42c1.19-.13,1.86-1.17,1.81-2.8s-.78-2.55-1.94-2.42-1.9,1.18-1.85,2.8.79,2.55,2,2.41"/><path class="cls-5" d="M152.62,72a2.72,2.72,0,0,1,2.24.59,3.09,3.09,0,0,1,.85,2.38l.1,3.7a20.8,20.8,0,0,0,.17,2.2l-2.85.31a18.14,18.14,0,0,0,.05-2.24l-.08-3a1.68,1.68,0,0,0-.25-1.06,1,1,0,0,0-.92-.31c-.77.08-1.44.67-2,1.76l.08,3a19.13,19.13,0,0,0,.17,2.21l-2.84.31a17.91,17.91,0,0,0,.05-2.24l-.13-4.53a15.38,15.38,0,0,0-.18-2.21l2.73-.3,0,.62c0,.09,0,.31,0,.42A4,4,0,0,1,152.62,72Z"/><path class="cls-5" d="M164.54,73.15l.13,4.53a19.81,19.81,0,0,0,.18,2.21l-2.87.32A17.81,17.81,0,0,0,162,78l-.13-4.53a16.54,16.54,0,0,0-.18-2.21l2.87-.32A15.79,15.79,0,0,0,164.54,73.15Z"/><polygon class="cls-5" points="164.46 67.64 164.52 69.85 161.73 70.16 161.67 67.95 164.46 67.64"/><path class="cls-5" d="M169.75,70a3.77,3.77,0,0,1,2.95.62,2.75,2.75,0,0,1,.94,1.58l-2.63.6c-.09-.6-.44-.82-1.18-.74s-1.14.37-1.13.75.3.52,1.67.68a7.13,7.13,0,0,1,2.27.47A2.1,2.1,0,0,1,174,76.1a3,3,0,0,1-.64,2,4.72,4.72,0,0,1-3.22,1.44c-1.73.19-3-.18-3.64-1.08a3.27,3.27,0,0,1-.59-1.41l2.71-.62c.16.75.63,1,1.55.94s1.28-.4,1.27-.85a.56.56,0,0,0-.32-.5,3.11,3.11,0,0,0-1.14-.22,13.78,13.78,0,0,1-2-.31,2.39,2.39,0,0,1-1.4-.89,2.76,2.76,0,0,1-.38-1.36C166.1,71.51,167.46,70.28,169.75,70Z"/><path class="cls-5" d="M188.55,67.31l.21,7.63a18.56,18.56,0,0,0,.17,2.3l-2.7.3v-.48c0-.09,0-.19,0-.32a4,4,0,0,1-2.73,1.37c-2.5.28-4.06-1.36-4.14-4.33A5.57,5.57,0,0,1,180.42,70a4,4,0,0,1,2.76-1.46,3.67,3.67,0,0,1,2.84.78c0-.21,0-.35,0-.56l0-1.22a17.15,17.15,0,0,0-.18-2.3l2.81-.31A17.94,17.94,0,0,0,188.55,67.31ZM184,75.78a2.54,2.54,0,0,0,2-2.79c0-1.42-.94-2.36-2.19-2.22S182,71.94,182,73.5a2.55,2.55,0,0,0,.69,1.87,1.71,1.71,0,0,0,1.35.42"/><path class="cls-5" d="M192.94,70l.13,4.53c0,.8.09,1.59.17,2.21l-2.86.32a17.94,17.94,0,0,0,0-2.24l-.13-4.53a16.73,16.73,0,0,0-.17-2.21l2.86-.32A16,16,0,0,0,192.94,70Z"/><polygon class="cls-5" points="192.85 64.51 192.91 66.72 190.13 67.03 190.07 64.82 192.85 64.51"/><path class="cls-5" d="M206.35,62.76a6.58,6.58,0,0,1,2.09.08L208.08,65a2.44,2.44,0,0,0-1.37-.22c-.67.07-.93.4-.91,1.16v.37l.4,0A17.23,17.23,0,0,0,208,66l.07,2.47a13.26,13.26,0,0,0-1.8.1l-.43,0,.13,4.49a16.63,16.63,0,0,0,.18,2.21l-2.85.31a17.9,17.9,0,0,0,0-2.24l-.13-4.49-.37,0a9.8,9.8,0,0,0-1.53.27l-.07-2.47a10.93,10.93,0,0,0,1.53-.06l.37,0,0-.69C203.11,64,204.11,63,206.35,62.76Z"/><path class="cls-5" d="M198.89,63.58a6.63,6.63,0,0,1,2.1.08l-.37,2.21a2.44,2.44,0,0,0-1.37-.22c-.67.07-.92.4-.9,1.16v.37l.39,0a17.52,17.52,0,0,0,1.82-.31l.07,2.47a13.31,13.31,0,0,0-1.8.1l-.42,0,.13,4.49a16.83,16.83,0,0,0,.17,2.21l-2.85.31a17.72,17.72,0,0,0,.05-2.24l-.13-4.49-.37,0a9.91,9.91,0,0,0-1.54.27l-.07-2.47a11.05,11.05,0,0,0,1.54-.06l.37,0,0-.69C195.66,64.84,196.66,63.83,198.89,63.58Z"/><path class="cls-5" d="M215,72a1.71,1.71,0,0,0,.39-.8l2.41.45a5,5,0,0,1-.86,1.62,4.71,4.71,0,0,1-3.21,1.61,3.84,3.84,0,0,1-3.21-.9,4.82,4.82,0,0,1-1.35-3.45c-.08-2.92,1.61-5,4.22-5.33a3.64,3.64,0,0,1,4.21,3,11.4,11.4,0,0,1,.26,1.9,2.44,2.44,0,0,0,0,.3l-6.17.68c.17,1.18.83,1.73,1.91,1.61A2.12,2.12,0,0,0,215,72Zm-1.55-4.61A1.86,1.86,0,0,0,211.66,69l3.52-.39a1.48,1.48,0,0,0-1.77-1.26"/><path class="cls-5" d="M224.26,64.15a5,5,0,0,1,1.36,0L225,66.9a4.11,4.11,0,0,0-1.41-.13,2.11,2.11,0,0,0-1.61,1,2.34,2.34,0,0,0-.37,1.36l.06,2.3a17.13,17.13,0,0,0,.17,2.2l-2.84.31a18,18,0,0,0,0-2.24L219,67.14a15.46,15.46,0,0,0-.17-2.21l2.73-.3,0,1.17A3.32,3.32,0,0,1,224.26,64.15Z"/><path class="cls-5" d="M232,70.09a1.64,1.64,0,0,0,.39-.8l2.41.45a4.74,4.74,0,0,1-.86,1.62,4.69,4.69,0,0,1-3.2,1.61,3.86,3.86,0,0,1-3.22-.9,4.86,4.86,0,0,1-1.34-3.45c-.08-2.92,1.6-5,4.22-5.33a3.65,3.65,0,0,1,4.21,3,11.41,11.41,0,0,1,.26,1.9c0,.06,0,.15,0,.3l-6.17.68c.17,1.18.83,1.73,1.92,1.61A2.08,2.08,0,0,0,232,70.09Zm-1.54-4.61a1.87,1.87,0,0,0-1.76,1.65l3.53-.39a1.49,1.49,0,0,0-1.77-1.26"/><path class="cls-5" d="M241.41,62.21a2.69,2.69,0,0,1,2.23.59,3.06,3.06,0,0,1,.85,2.38l.1,3.7a18.6,18.6,0,0,0,.18,2.2l-2.85.31a18.26,18.26,0,0,0,0-2.24l-.08-3a1.69,1.69,0,0,0-.24-1.06,1,1,0,0,0-.92-.31q-1.16.13-2,1.76l.08,3a19,19,0,0,0,.18,2.21l-2.84.31a18,18,0,0,0,0-2.24L236,65.26a15.61,15.61,0,0,0-.17-2.21l2.72-.3,0,.62c0,.09,0,.31,0,.42A4,4,0,0,1,241.41,62.21Z"/><path class="cls-5" d="M249.64,59.19a19.21,19.21,0,0,0-.05,2v.31l.49-.05a8.6,8.6,0,0,0,1.34-.22l.07,2.44a9.11,9.11,0,0,0-1.26.06l-.58.06.11,3.76c0,.42.08.61.27.72a1.05,1.05,0,0,0,.64.09,1.87,1.87,0,0,0,.95-.37l.27,2.22a5.89,5.89,0,0,1-1.88.5,3,3,0,0,1-2-.29c-.53-.38-.73-.85-.76-1.86l-.13-4.5-.53.06a8.93,8.93,0,0,0-1.19.21l-.07-2.46a7.42,7.42,0,0,0,1.23,0l.49-.05V61.5a15.77,15.77,0,0,0-.17-2Z"/><path class="cls-5" d="M255.42,66.91l.08,3a2.68,2.68,0,0,1-.64,1.91,2.71,2.71,0,0,1-1.35.88l-.64-1.05A2.13,2.13,0,0,0,254,71a1.38,1.38,0,0,0,.36-1l-1.58.17-.08-3Z"/><path class="cls-5" d="M261.78,60.19l2.88-.32a14.92,14.92,0,0,0,0,2.24l.19,6.65a3,3,0,0,1-.66,2.16,4,4,0,0,1-2.57,1.19A3.26,3.26,0,0,1,258.34,71l2.24-1.31c.21.46.43.6.84.55a.77.77,0,0,0,.73-.9l-.21-6.94A15.68,15.68,0,0,0,261.78,60.19Z"/><polygon class="cls-5" points="264.52 56.6 264.58 58.81 261.8 59.12 261.74 56.91 264.52 56.6"/><path class="cls-5" d="M274.91,58.74a17.61,17.61,0,0,0-.05,2.22l.13,4.55a15.1,15.1,0,0,0,.18,2.2l-2.73.3,0-.64a3.53,3.53,0,0,1,0-.4,4,4,0,0,1-2.82,1.59,2.69,2.69,0,0,1-2.2-.59,3.07,3.07,0,0,1-.85-2.39l-.1-3.69a20.68,20.68,0,0,0-.17-2.2l2.85-.31a18.1,18.1,0,0,0,0,2.22l.08,3a1.69,1.69,0,0,0,.25,1.08,1,1,0,0,0,.9.32,2.91,2.91,0,0,0,2-1.75l-.08-3a19,19,0,0,0-.17-2.2Z"/><path class="cls-5" d="M280.06,57.86a3.76,3.76,0,0,1,2.95.62,2.81,2.81,0,0,1,.94,1.58l-2.64.6c-.08-.6-.44-.82-1.18-.74s-1.14.37-1.13.75.3.52,1.67.68a7.13,7.13,0,0,1,2.27.47,2.09,2.09,0,0,1,1.38,2.1,3,3,0,0,1-.64,2,4.7,4.7,0,0,1-3.22,1.44c-1.73.19-3-.18-3.64-1.08a3.38,3.38,0,0,1-.59-1.41l2.71-.62c.16.75.64,1,1.55.94s1.28-.4,1.27-.85a.54.54,0,0,0-.32-.5,3.11,3.11,0,0,0-1.13-.22,13.67,13.67,0,0,1-2-.31,2.39,2.39,0,0,1-1.4-.89,2.85,2.85,0,0,1-.38-1.36C276.42,59.34,277.77,58.11,280.06,57.86Z"/><path class="cls-5" d="M289,54.85a19.21,19.21,0,0,0-.05,2v.31l.49-.05a8.66,8.66,0,0,0,1.34-.22l.07,2.44a9.11,9.11,0,0,0-1.26.06l-.58.06.11,3.76c0,.42.08.61.27.72a1,1,0,0,0,.63.09,1.9,1.9,0,0,0,1-.37l.27,2.22a5.89,5.89,0,0,1-1.88.5,3,3,0,0,1-2-.29c-.53-.38-.74-.85-.77-1.86l-.13-4.5-.52.06a8.84,8.84,0,0,0-1.19.21l-.07-2.46a7.31,7.31,0,0,0,1.22,0l.49-.05v-.31a15.81,15.81,0,0,0-.16-2Z"/><path class="cls-5" d="M53.28,100.74a5,5,0,0,1,1.36,0l-.58,2.72a4.11,4.11,0,0,0-1.41-.13,2.11,2.11,0,0,0-1.61,1,2.34,2.34,0,0,0-.37,1.36l.06,2.3a17.13,17.13,0,0,0,.17,2.2l-2.84.31a18,18,0,0,0,0-2.24L48,103.73a15.45,15.45,0,0,0-.17-2.21l2.73-.3,0,1.17A3.32,3.32,0,0,1,53.28,100.74Z"/><path class="cls-5" d="M61.07,106.68a1.64,1.64,0,0,0,.39-.8l2.41.45A4.74,4.74,0,0,1,63,108a4.69,4.69,0,0,1-3.2,1.61,3.86,3.86,0,0,1-3.22-.9,4.86,4.86,0,0,1-1.34-3.45c-.08-2.92,1.6-5,4.22-5.33a3.65,3.65,0,0,1,4.21,3,11.39,11.39,0,0,1,.26,1.9c0,.06,0,.15,0,.3l-6.17.68c.17,1.18.83,1.73,1.92,1.61A2.08,2.08,0,0,0,61.07,106.68Zm-1.54-4.61a1.87,1.87,0,0,0-1.76,1.65l3.53-.39a1.49,1.49,0,0,0-1.77-1.26"/><path class="cls-5" d="M73.31,107.72l-2.66.29,0-.68A4.11,4.11,0,0,1,68,108.51a3,3,0,0,1-2.4-.55,2.54,2.54,0,0,1-.8-1.91,2.77,2.77,0,0,1,.93-2.27,6,6,0,0,1,2.83-1.27c.53-.12.94-.17,1.93-.32v-.34c0-.71-.42-1-1.33-.89a1.51,1.51,0,0,0-1.53,1.21L65,102a3.51,3.51,0,0,1,1.1-1.9,6.42,6.42,0,0,1,5.61-.95A2.48,2.48,0,0,1,73,101.66l.11,4A18.86,18.86,0,0,0,73.31,107.72Zm-3.22-2a1.7,1.7,0,0,0,.46-1.19v-.41a7.79,7.79,0,0,0-2.36.55,1.2,1.2,0,0,0-.77,1.06c0,.53.43.79,1.15.71a2.66,2.66,0,0,0,1.53-.73"/><path class="cls-5" d="M78.55,97.77a3.49,3.49,0,0,1,4.12,2.63l-2.45.82a1.9,1.9,0,0,0-.41-.82,1.29,1.29,0,0,0-1.17-.39c-1.11.12-1.74,1.14-1.7,2.76s.77,2.55,1.87,2.43a1.74,1.74,0,0,0,1.29-.79,1.71,1.71,0,0,0,.23-.71l2.53.15a4.82,4.82,0,0,1-.53,1.52,4.34,4.34,0,0,1-3.47,2.09,3.93,3.93,0,0,1-3.23-.91,4.81,4.81,0,0,1-1.33-3.44C74.2,100.14,75.88,98.07,78.55,97.77Z"/><path class="cls-5" d="M86.5,94a16.29,16.29,0,0,0,0,2.24l0,1.56c0,.12,0,.36,0,.49a4,4,0,0,1,2.82-1.53,2.67,2.67,0,0,1,2.2.59,3.06,3.06,0,0,1,.85,2.38l.1,3.7a20.8,20.8,0,0,0,.17,2.2l-2.85.31a18.26,18.26,0,0,0,0-2.24l-.08-3a1.76,1.76,0,0,0-.25-1.08.94.94,0,0,0-.88-.29,2.85,2.85,0,0,0-2,1.76l.08,3a19.13,19.13,0,0,0,.17,2.21l-2.84.31a17.91,17.91,0,0,0,.05-2.24l-.22-7.8a15.21,15.21,0,0,0-.18-2.21Z"/><path class="cls-5" d="M102.54,95.14c2.77-.31,4.58,1.37,4.66,4.28a4.91,4.91,0,0,1-4.4,5.38c-2.76.3-4.57-1.38-4.65-4.34S99.78,95.45,102.54,95.14Zm.21,7.42c1.19-.13,1.86-1.17,1.81-2.8s-.77-2.55-1.94-2.42-1.89,1.18-1.84,2.8.78,2.55,2,2.41"/><path class="cls-5" d="M116.82,93.91a17.61,17.61,0,0,0-.05,2.22l.13,4.55a15.1,15.1,0,0,0,.18,2.2l-2.73.3,0-.64a3.53,3.53,0,0,1,0-.4,4,4,0,0,1-2.82,1.59,2.69,2.69,0,0,1-2.2-.59,3.07,3.07,0,0,1-.85-2.39l-.1-3.69a20.68,20.68,0,0,0-.17-2.2l2.85-.31a18.09,18.09,0,0,0,0,2.22l.08,3a1.69,1.69,0,0,0,.25,1.08,1,1,0,0,0,.9.32,2.91,2.91,0,0,0,2-1.75l-.08-3a19,19,0,0,0-.17-2.2Z"/><path class="cls-5" d="M122,91a19.21,19.21,0,0,0-.05,2v.31l.49-.05a8.66,8.66,0,0,0,1.34-.22l.07,2.44a9.11,9.11,0,0,0-1.26.06l-.58.06.11,3.76c0,.42.08.61.27.72a1,1,0,0,0,.63.09,1.9,1.9,0,0,0,1-.37l.27,2.22a5.89,5.89,0,0,1-1.88.5,3,3,0,0,1-2-.29c-.53-.38-.74-.85-.77-1.86l-.13-4.5-.52.06a8.84,8.84,0,0,0-1.19.21l-.07-2.46a7.32,7.32,0,0,0,1.22,0l.49-.05v-.31a15.81,15.81,0,0,0-.16-2Z"/><path class="cls-5" d="M132.21,94.44l.13,4.53c0,.8.09,1.59.17,2.21l-2.86.32a17.94,17.94,0,0,0,0-2.24l-.13-4.53a16.73,16.73,0,0,0-.17-2.21l2.86-.32A16,16,0,0,0,132.21,94.44Z"/><polygon class="cls-5" points="132.12 88.94 132.18 91.15 129.4 91.45 129.34 89.25 132.12 88.94"/><path class="cls-5" d="M138.16,88a6.67,6.67,0,0,1,2.1.08l-.37,2.21a2.44,2.44,0,0,0-1.37-.22c-.67.07-.92.4-.9,1.16v.37l.39,0a17.52,17.52,0,0,0,1.82-.31l.07,2.47a13.31,13.31,0,0,0-1.8.1l-.42,0,.13,4.49a16.83,16.83,0,0,0,.17,2.21l-2.85.31a17.72,17.72,0,0,0,.05-2.24l-.13-4.49-.37,0a9.91,9.91,0,0,0-1.54.27L133.09,92a11.05,11.05,0,0,0,1.54-.06l.37,0,0-.69C134.93,89.27,135.93,88.25,138.16,88Z"/><path class="cls-5" d="M149.44,88a19.27,19.27,0,0,0-.05,2v.31l.49-.05a8.66,8.66,0,0,0,1.34-.22l.07,2.44a9.11,9.11,0,0,0-1.26.06l-.58.06.11,3.76c0,.42.08.61.27.72a1,1,0,0,0,.63.09,1.9,1.9,0,0,0,1-.37l.27,2.22a5.89,5.89,0,0,1-1.88.5,3,3,0,0,1-2-.29c-.53-.38-.74-.85-.77-1.86l-.13-4.5-.52.06a8.84,8.84,0,0,0-1.19.21l-.07-2.46a7.32,7.32,0,0,0,1.22,0l.49-.05v-.31a15.86,15.86,0,0,0-.16-2Z"/><path class="cls-5" d="M155,86.41a16.29,16.29,0,0,0,0,2.24l0,1.56c0,.12,0,.36,0,.49a4,4,0,0,1,2.82-1.53,2.64,2.64,0,0,1,2.2.59,3.06,3.06,0,0,1,.86,2.38l.1,3.7a20.86,20.86,0,0,0,.17,2.2l-2.85.31a18.14,18.14,0,0,0,.05-2.24l-.08-3a1.75,1.75,0,0,0-.25-1.08.94.94,0,0,0-.89-.29,2.83,2.83,0,0,0-2,1.76l.08,3a19.13,19.13,0,0,0,.17,2.21l-2.84.31a18,18,0,0,0,0-2.24l-.22-7.8a15.46,15.46,0,0,0-.17-2.21Z"/><path class="cls-5" d="M168,94.88a1.64,1.64,0,0,0,.39-.8l2.41.45a4.87,4.87,0,0,1-.85,1.62,4.72,4.72,0,0,1-3.21,1.61,3.87,3.87,0,0,1-3.22-.9,4.86,4.86,0,0,1-1.34-3.45c-.08-2.92,1.6-5,4.22-5.33a3.65,3.65,0,0,1,4.21,3,11.4,11.4,0,0,1,.26,1.9,2.44,2.44,0,0,0,0,.3l-6.17.68c.17,1.18.82,1.73,1.91,1.61A2.08,2.08,0,0,0,168,94.88Zm-1.54-4.61a1.86,1.86,0,0,0-1.75,1.65l3.52-.39a1.49,1.49,0,0,0-1.77-1.26"/><path class="cls-5" d="M177.26,87.06a5,5,0,0,1,1.36,0L178,89.81a4.15,4.15,0,0,0-1.41-.13,2.13,2.13,0,0,0-1.61,1,2.46,2.46,0,0,0-.37,1.36l.06,2.3a17,17,0,0,0,.18,2.2l-2.84.31a18,18,0,0,0,0-2.24L172,90.05a15.46,15.46,0,0,0-.17-2.21l2.72-.3,0,1.17A3.34,3.34,0,0,1,177.26,87.06Z"/><path class="cls-5" d="M185,93a1.64,1.64,0,0,0,.39-.8l2.41.45a4.74,4.74,0,0,1-.86,1.62,4.69,4.69,0,0,1-3.2,1.61,3.85,3.85,0,0,1-3.22-.9,4.86,4.86,0,0,1-1.35-3.45c-.08-2.92,1.61-5,4.22-5.33a3.64,3.64,0,0,1,4.21,3,10.57,10.57,0,0,1,.26,1.9,2.44,2.44,0,0,0,0,.3l-6.17.68c.17,1.18.83,1.73,1.92,1.61A2.09,2.09,0,0,0,185,93Zm-1.55-4.61A1.86,1.86,0,0,0,181.75,90l3.52-.39a1.48,1.48,0,0,0-1.77-1.26"/><path class="cls-5" d="M196.26,87.37l.13,4.53a19.86,19.86,0,0,0,.18,2.21l-2.87.32a17.81,17.81,0,0,0,.05-2.24l-.13-4.53a16.54,16.54,0,0,0-.18-2.21l2.87-.32A15.82,15.82,0,0,0,196.26,87.37Z"/><polygon class="cls-5" points="196.18 81.87 196.25 84.08 193.46 84.39 193.39 82.18 196.18 81.87"/><path class="cls-5" d="M201.47,84.26a3.77,3.77,0,0,1,2.95.62,2.75,2.75,0,0,1,.94,1.58l-2.63.6c-.09-.6-.44-.82-1.18-.74s-1.14.37-1.13.75.3.52,1.67.68a7.13,7.13,0,0,1,2.27.47,2.1,2.1,0,0,1,1.38,2.1,3,3,0,0,1-.64,2,4.72,4.72,0,0,1-3.22,1.44c-1.73.19-3-.18-3.64-1.08a3.27,3.27,0,0,1-.59-1.41l2.71-.62c.16.75.63,1,1.55.94s1.28-.4,1.27-.85a.56.56,0,0,0-.32-.5,3.11,3.11,0,0,0-1.14-.22,13.77,13.77,0,0,1-2-.31,2.39,2.39,0,0,1-1.4-.89,2.76,2.76,0,0,1-.38-1.36C197.83,85.74,199.19,84.51,201.47,84.26Z"/><path class="cls-5" d="M219.71,91.57l-2.66.29,0-.68a4.13,4.13,0,0,1-2.64,1.18,3,3,0,0,1-2.39-.55,2.54,2.54,0,0,1-.81-1.91,2.78,2.78,0,0,1,.94-2.27A6,6,0,0,1,215,86.36c.53-.12.94-.17,1.93-.32V85.7c0-.71-.43-1-1.34-.89A1.51,1.51,0,0,0,214,86l-2.63-.17a3.51,3.51,0,0,1,1.1-1.9,6.42,6.42,0,0,1,5.61-.95,2.48,2.48,0,0,1,1.33,2.51l.11,4A18.68,18.68,0,0,0,219.71,91.57Zm-3.22-2a1.7,1.7,0,0,0,.46-1.19v-.41a7.85,7.85,0,0,0-2.37.55,1.19,1.19,0,0,0-.76,1.06c0,.53.43.79,1.14.72a2.66,2.66,0,0,0,1.54-.73"/><path class="cls-5" d="M226.44,81.59a2.69,2.69,0,0,1,2.23.59,3.06,3.06,0,0,1,.85,2.38l.1,3.7a18.6,18.6,0,0,0,.18,2.2l-2.85.31a18.21,18.21,0,0,0,0-2.24l-.08-3a1.69,1.69,0,0,0-.24-1.06,1,1,0,0,0-.92-.31q-1.16.13-2,1.76l.08,3a19,19,0,0,0,.18,2.21l-2.84.31a18,18,0,0,0,0-2.24l-.13-4.53a15.62,15.62,0,0,0-.17-2.21l2.72-.3,0,.62c0,.09,0,.31,0,.42A4,4,0,0,1,226.44,81.59Z"/><path class="cls-5" d="M238.36,82.73l.13,4.53c0,.8.09,1.59.17,2.22l-2.86.32a17.94,17.94,0,0,0,0-2.24L235.71,83a16.73,16.73,0,0,0-.17-2.21l2.86-.32A16,16,0,0,0,238.36,82.73Z"/><polygon class="cls-5" points="238.27 77.23 238.33 79.44 235.55 79.74 235.49 77.53 238.27 77.23"/><path class="cls-5" d="M243.56,79.61a3.79,3.79,0,0,1,3,.62,2.8,2.8,0,0,1,.94,1.58l-2.64.6c-.08-.6-.44-.82-1.18-.74s-1.14.37-1.13.75.3.52,1.67.68a7.21,7.21,0,0,1,2.27.47,2.1,2.1,0,0,1,1.37,2.1,3,3,0,0,1-.64,2A4.72,4.72,0,0,1,244,89.16c-1.74.19-3-.18-3.65-1.08a3.28,3.28,0,0,1-.58-1.42l2.71-.62c.15.75.63,1,1.55.94s1.28-.4,1.26-.85a.55.55,0,0,0-.31-.5,3.19,3.19,0,0,0-1.14-.22,13.66,13.66,0,0,1-2-.31,2.33,2.33,0,0,1-1.4-.89,2.76,2.76,0,0,1-.38-1.36C239.92,81.09,241.28,79.86,243.56,79.61Z"/><path class="cls-5" d="M252.53,78.62a3.76,3.76,0,0,1,2.95.62,2.81,2.81,0,0,1,.94,1.58l-2.64.6c-.08-.6-.44-.82-1.18-.74s-1.14.37-1.13.75.3.52,1.67.68a7.13,7.13,0,0,1,2.27.47,2.09,2.09,0,0,1,1.38,2.1,3,3,0,0,1-.64,2,4.68,4.68,0,0,1-3.21,1.44c-1.74.19-3-.18-3.65-1.08a3.28,3.28,0,0,1-.58-1.42l2.7-.62c.16.75.64,1,1.55.94s1.28-.4,1.27-.85a.55.55,0,0,0-.31-.5,3.26,3.26,0,0,0-1.14-.22,13.65,13.65,0,0,1-2-.31,2.39,2.39,0,0,1-1.4-.89,2.85,2.85,0,0,1-.38-1.36C248.89,80.11,250.24,78.87,252.53,78.62Z"/><path class="cls-5" d="M266.42,77.4a17.74,17.74,0,0,0,0,2.22l.13,4.55a15.34,15.34,0,0,0,.17,2.2l-2.73.3,0-.64a3.53,3.53,0,0,1,0-.4,4,4,0,0,1-2.82,1.59,2.72,2.72,0,0,1-2.2-.59,3.1,3.1,0,0,1-.85-2.39l-.1-3.69a20.74,20.74,0,0,0-.17-2.2l2.85-.31a18,18,0,0,0-.05,2.22l.08,3a1.69,1.69,0,0,0,.25,1.08,1,1,0,0,0,.9.32,2.91,2.91,0,0,0,2-1.75l-.08-3a19,19,0,0,0-.17-2.2Z"/><path class="cls-5" d="M273.46,83.24a1.64,1.64,0,0,0,.39-.8l2.41.45a4.74,4.74,0,0,1-.86,1.62,4.69,4.69,0,0,1-3.2,1.61,3.86,3.86,0,0,1-3.22-.9,4.86,4.86,0,0,1-1.34-3.45c-.08-2.92,1.6-5,4.22-5.33a3.65,3.65,0,0,1,4.21,3,11.37,11.37,0,0,1,.26,1.9c0,.06,0,.15,0,.3l-6.17.68c.17,1.18.83,1.73,1.92,1.61A2.08,2.08,0,0,0,273.46,83.24Zm-1.54-4.61a1.87,1.87,0,0,0-1.76,1.65l3.53-.39a1.49,1.49,0,0,0-1.77-1.26"/><polygon class="cls-5" points="280.2 81.91 280.29 84.88 277.51 85.19 277.43 82.21 280.2 81.91"/></g></g></svg>