<svg xmlns="http://www.w3.org/2000/svg" viewBox="0 0 39.24 42.45"><defs><style>.cls-1{isolation:isolate;}.cls-2{fill:#1c1a4e;}.cls-3{fill:#282969;}.cls-4{fill:#2d3080;}.cls-5{fill:#fdfefe;}</style></defs><title>search</title><g id="Layer_2" data-name="Layer 2"><g id="Layer_1-2" data-name="Layer 1"><g class="cls-1"><polygon class="cls-2" points="1.43 36.77 9.33 32.47 9.28 1.68 1.37 5.97 1.43 36.77"/><polygon class="cls-3" points="29.96 40.78 37.87 36.48 9.33 32.47 1.43 36.77 29.96 40.78"/><polygon class="cls-3" points="29.91 9.98 37.81 5.68 9.28 1.68 1.37 5.97 29.91 9.98"/><polygon class="cls-4" points="1.37 5.97 1.43 36.77 29.96 40.78 29.91 9.98 1.37 5.97"/><polygon class="cls-2" points="29.96 40.78 37.87 36.48 37.81 5.68 29.91 9.98 29.96 40.78"/><polygon class="cls-2" points="31.34 42.45 39.24 38.15 39.17 4.39 31.27 8.69 31.34 42.45"/><polygon class="cls-3" points="31.27 8.69 39.17 4.39 7.9 0 0 4.3 31.27 8.69"/><path class="cls-4" d="M31.34,42.45.06,38.06,0,4.3l31.27,4.4ZM1.43,36.77l28.53,4L29.91,10,1.37,6l.06,30.8"/></g><path class="cls-5" d="M25.69,31l-4.42-4.59a7.5,7.5,0,1,0-1.44,1.32l4.45,4.63A1,1,0,1,0,25.69,31ZM15.54,16.05A5.54,5.54,0,1,1,10,21.59,5.54,5.54,0,0,1,15.54,16.05Z"/></g></g></svg>