<svg xmlns="http://www.w3.org/2000/svg" viewBox="0 0 126.92 41.9"><defs><style>.cls-1,.cls-2,.cls-3,.cls-4,.cls-5,.cls-6{fill:#010101;}.cls-1,.cls-2,.cls-4,.cls-5,.cls-6{stroke:#000;stroke-miterlimit:10;}.cls-1{stroke-width:0.3px;}.cls-2{stroke-width:0.34px;}.cls-4{stroke-width:0.32px;}.cls-5{stroke-width:0.32px;}.cls-6{stroke-width:0.32px;}</style></defs><title>shipppping</title><g id="Layer_2" data-name="Layer 2"><g id="Layer_1-2" data-name="Layer 1"><polygon class="cls-1" points="9.33 18.91 9.33 18.91 7.45 21.1 5.48 23.38 9.38 23.39 11.26 21.21 13.22 18.93 15.13 16.71 11.24 16.7 9.33 18.91"/><polygon class="cls-1" points="13.21 14.41 11.24 16.69 15.14 16.7 17.1 14.42 13.21 14.41"/><polygon class="cls-1" points="18.04 17.28 21.07 17.29 23.52 14.43 20.49 14.43 20.41 14.43 17.38 14.42 14.92 17.27 17.95 17.28 18.04 17.28"/><polygon class="cls-1" points="24.19 17.3 26.64 14.44 23.53 14.43 21.08 17.29 24.19 17.3"/><polygon class="cls-1" points="17.65 25.01 17.65 25.01 19.53 22.83 21.49 20.55 17.59 20.53 15.71 22.72 13.75 25 11.84 27.22 15.74 27.23 17.65 25.01"/><polygon class="cls-1" points="13.77 29.52 15.73 27.24 11.83 27.23 9.87 29.51 13.77 29.52"/><polygon class="cls-1" points="8.94 26.64 5.91 26.64 3.45 29.49 6.49 29.5 6.57 29.5 9.6 29.51 12.05 26.65 9.02 26.64 8.94 26.64"/><polygon class="cls-1" points="2.78 26.63 0.33 29.48 3.44 29.49 5.9 26.64 2.78 26.63"/><polygon class="cls-1" points="14.88 20.52 11.85 20.52 9.4 23.37 12.43 23.38 12.51 23.38 15.54 23.39 18 20.53 14.96 20.52 14.88 20.52"/><polygon class="cls-1" points="8.73 20.51 6.27 23.36 9.39 23.37 11.84 20.52 8.73 20.51"/><polygon class="cls-1" points="18.35 20.53 15.9 23.39 19.01 23.4 21.47 20.54 18.35 20.53"/><polygon class="cls-2" points="32.97 22.03 30.92 24.49 30.9 24.51 30.86 24.56 28.81 27.02 33.19 27.02 35.31 24.5 35.31 24.5 37.27 22.14 39.39 19.62 35 19.61 32.97 22.03"/><polygon class="cls-2" points="26.69 29.55 31.07 29.55 33.19 27.03 28.8 27.02 26.69 29.55"/><polygon class="cls-2" points="35.31 17.79 35.41 17.79 36.53 17.79 35.01 19.61 39.39 19.61 41.51 17.09 41.51 17.09 43.56 14.63 41.46 14.63 41.46 14.62 38.05 14.62 37.95 14.62 34.54 14.62 31.9 17.79 35.31 17.79"/><polygon class="cls-2" points="24.44 24.5 24.44 24.5 26.41 22.14 28.52 19.62 24.13 19.61 22.11 22.03 22.11 22.03 19.99 24.56 17.94 27.02 22.32 27.02 24.44 24.5"/><polygon class="cls-2" points="20.2 29.55 22.32 27.03 17.93 27.02 15.82 29.55 20.2 29.55"/><polygon class="cls-2" points="30.05 17.79 31.89 17.79 34.53 14.62 31.02 14.62 31.02 14.63 28.3 14.62 26.19 17.15 24.14 19.61 28.52 19.61 30.05 17.79"/><polygon class="cls-2" points="36.57 9.82 36.57 9.82 38.58 7.34 40.67 4.76 36.28 4.78 34.27 7.26 32.18 9.85 30.14 12.37 34.53 12.34 36.57 9.82"/><polygon class="cls-2" points="32.43 14.94 34.52 12.35 30.14 12.38 28.04 14.97 32.43 14.94"/><polygon class="cls-2" points="40.68 4.75 42.77 2.16 42.76 2.16 44.37 0.17 39.98 0.2 37.89 2.79 37.89 2.79 36.29 4.78 40.68 4.75"/><path class="cls-3" d="M55.73,3.8"/><path d="M55.73,5.74c2.49,0,2.5-3.87,0-3.87s-2.5,3.87,0,3.87Z"/><polygon class="cls-4" points="41.12 19.7 41.12 19.7 39.06 22.22 36.9 24.85 41.38 24.85 43.45 22.33 45.6 19.71 47.7 17.15 43.22 17.15 41.12 19.7"/><polygon class="cls-4" points="45.39 14.51 43.23 17.14 47.71 17.14 49.87 14.51 45.39 14.51"/><polygon class="cls-4" points="36.89 24.86 34.73 27.48 34.74 27.48 33.08 29.5 37.56 29.5 39.72 26.88 39.72 26.88 41.37 24.86 36.89 24.86"/><polygon class="cls-4" points="74.5 21.85 72.41 24.31 72.39 24.33 72.35 24.38 70.25 26.85 74.73 26.85 76.89 24.32 76.89 24.32 78.9 21.96 81.05 19.43 76.57 19.42 74.5 21.85"/><polygon class="cls-4" points="68.08 29.39 72.56 29.39 74.72 26.86 70.24 26.86 68.08 29.39"/><polygon class="cls-4" points="76.89 17.59 76.99 17.59 78.13 17.59 76.58 19.41 81.06 19.41 83.22 16.88 83.22 16.88 85.32 14.42 83.17 14.41 83.17 14.41 79.68 14.41 79.59 14.41 76.11 14.41 73.41 17.59 76.89 17.59"/><polygon class="cls-4" points="65.79 24.32 65.79 24.32 67.8 21.96 69.95 19.43 65.47 19.42 63.41 21.85 63.41 21.85 61.25 24.38 59.15 26.85 63.63 26.85 65.79 24.32"/><polygon class="cls-4" points="61.47 29.39 63.62 26.86 59.14 26.86 56.98 29.39 61.47 29.39"/><polygon class="cls-4" points="71.52 17.59 73.39 17.59 76.09 14.41 72.51 14.41 72.51 14.41 69.74 14.41 67.58 16.95 65.48 19.41 69.96 19.41 71.52 17.59"/><polygon class="cls-4" points="54.83 31.91 54.83 31.91 52.72 34.39 50.51 36.97 54.99 37.06 57.11 34.59 59.31 32 61.46 29.48 56.98 29.39 54.83 31.91"/><polygon class="cls-4" points="59.2 26.8 56.99 29.39 61.47 29.48 63.68 26.89 59.2 26.8"/><polygon class="cls-4" points="50.5 36.98 48.3 39.57 48.3 39.57 46.61 41.55 51.09 41.64 53.29 39.06 53.29 39.06 54.98 37.07 50.5 36.98"/><polygon class="cls-4" points="67.8 22.05 69.9 19.58 69.91 19.57 69.95 19.52 72.05 17.05 67.57 17.05 65.41 19.58 65.42 19.58 63.41 21.94 61.25 24.47 65.73 24.48 67.8 22.05"/><polygon class="cls-4" points="74.22 14.51 69.74 14.5 67.58 17.04 72.06 17.04 74.22 14.51"/><polygon class="cls-4" points="65.41 26.31 65.31 26.31 64.17 26.31 65.72 24.48 61.24 24.48 59.08 27.01 59.08 27.01 56.98 29.48 59.13 29.48 59.13 29.48 62.62 29.48 62.71 29.48 66.2 29.48 68.89 26.31 65.41 26.31"/><polygon class="cls-4" points="76.51 19.58 76.51 19.58 74.5 21.94 72.35 24.47 76.83 24.48 78.89 22.05 78.89 22.05 81.05 19.52 83.15 17.05 78.67 17.05 76.51 19.58"/><polygon class="cls-4" points="80.83 14.5 78.68 17.04 83.16 17.04 85.32 14.51 80.83 14.5"/><polygon class="cls-4" points="70.78 26.31 68.91 26.31 66.21 29.48 69.79 29.48 69.79 29.48 72.56 29.48 74.72 26.95 76.82 24.48 72.34 24.48 70.78 26.31"/><polygon class="cls-4" points="56.7 21.95 54.6 24.41 54.58 24.43 54.54 24.48 52.44 26.94 56.92 26.95 59.08 24.41 59.08 24.41 61.09 22.05 63.25 19.52 58.77 19.52 56.7 21.95"/><polygon class="cls-4" points="50.28 29.49 54.76 29.49 56.92 26.96 52.43 26.95 50.28 29.49"/><polygon class="cls-4" points="59.09 17.68 59.18 17.68 60.33 17.68 58.77 19.51 63.26 19.51 65.41 16.98 65.41 16.98 67.51 14.51 65.36 14.51 65.36 14.51 61.88 14.51 61.78 14.51 58.3 14.51 55.6 17.68 59.09 17.68"/><polygon class="cls-4" points="47.98 24.41 47.98 24.41 49.99 22.05 52.15 19.52 47.67 19.52 45.6 21.95 45.6 21.95 43.44 24.48 41.34 26.94 45.82 26.95 47.98 24.41"/><polygon class="cls-4" points="43.66 29.49 45.82 26.96 41.34 26.95 39.18 29.49 43.66 29.49"/><polygon class="cls-4" points="53.71 17.68 55.59 17.68 58.29 14.51 54.71 14.51 54.7 14.51 51.93 14.51 49.77 17.04 47.67 19.51 52.16 19.51 53.71 17.68"/><polygon class="cls-4" points="37.03 32.01 37.03 32.01 34.91 34.49 32.7 37.07 37.19 37.16 39.3 34.68 41.51 32.1 43.66 29.58 39.17 29.49 37.03 32.01"/><polygon class="cls-4" points="41.39 26.9 39.18 29.48 43.66 29.57 45.87 26.99 41.39 26.9"/><polygon class="cls-4" points="32.7 37.08 30.49 39.66 30.5 39.66 28.8 41.65 33.28 41.74 35.49 39.15 35.48 39.15 37.18 37.17 32.7 37.08"/><polygon class="cls-4" points="49.99 22.15 52.09 19.68 52.1 19.66 52.15 19.61 54.25 17.15 49.77 17.14 47.61 19.68 47.61 19.68 45.6 22.04 43.44 24.57 47.92 24.57 49.99 22.15"/><polygon class="cls-4" points="56.41 14.61 51.93 14.6 49.77 17.13 54.26 17.14 56.41 14.61"/><polygon class="cls-4" points="47.6 26.41 47.51 26.41 46.36 26.41 47.92 24.58 43.43 24.58 41.28 27.11 41.28 27.11 39.18 29.58 41.33 29.58 41.33 29.58 44.81 29.58 44.91 29.58 48.39 29.58 51.09 26.41 47.6 26.41"/><polygon class="cls-4" points="58.71 19.68 58.71 19.68 56.7 22.04 54.54 24.57 59.02 24.57 61.09 22.15 61.09 22.15 63.25 19.61 65.35 17.15 60.87 17.14 58.71 19.68"/><polygon class="cls-4" points="63.03 14.6 60.87 17.13 65.35 17.14 67.51 14.61 63.03 14.6"/><polygon class="cls-4" points="52.98 26.41 51.1 26.41 48.4 29.58 51.98 29.58 51.98 29.58 54.76 29.58 56.91 27.05 59.02 24.58 54.53 24.58 52.98 26.41"/><path class="cls-3" d="M97.49,3.68"/><path d="M97.49,5.61c2.49,0,2.5-3.87,0-3.87s-2.5,3.87,0,3.87Z"/><polygon class="cls-4" points="82.89 19.58 82.89 19.58 80.82 22.09 78.67 24.72 83.15 24.72 85.21 22.21 87.37 19.58 89.47 17.02 84.99 17.02 82.89 19.58"/><polygon class="cls-4" points="87.15 14.38 85 17.01 89.48 17.01 91.64 14.39 87.15 14.38"/><polygon class="cls-4" points="78.66 24.73 76.5 27.36 76.5 27.36 74.85 29.37 79.33 29.38 81.49 26.75 81.48 26.75 83.14 24.73 78.66 24.73"/><polygon class="cls-4" points="98.48 21.9 96.39 24.41 96.37 24.43 96.33 24.48 94.23 26.99 98.71 26.99 100.87 24.41 100.87 24.41 102.88 22.01 105.03 19.43 100.55 19.43 98.48 21.9"/><polygon class="cls-4" points="92.06 29.57 96.55 29.58 98.7 27 94.22 27 92.06 29.57"/><polygon class="cls-4" points="100.87 17.56 100.97 17.56 102.11 17.56 100.56 19.42 105.04 19.43 107.2 16.85 107.2 16.85 109.3 14.34 107.15 14.34 107.15 14.33 103.67 14.33 103.57 14.33 100.09 14.33 97.39 17.56 100.87 17.56"/><polygon class="cls-4" points="89.77 24.41 89.77 24.41 91.78 22.01 93.93 19.43 89.45 19.43 87.39 21.9 87.39 21.9 85.23 24.48 83.13 26.99 87.61 26.99 89.77 24.41"/><polygon class="cls-4" points="85.45 29.58 87.6 27 83.12 27 80.97 29.57 85.45 29.58"/><polygon class="cls-4" points="95.5 17.56 97.38 17.56 100.07 14.33 96.49 14.33 96.49 14.34 93.72 14.33 91.56 16.91 89.46 19.42 93.94 19.43 95.5 17.56"/><polygon class="cls-5" points="109.28 21.98 111.35 19.5 111.37 19.49 111.41 19.44 113.48 16.96 109.06 16.95 106.92 19.5 106.92 19.5 104.94 21.87 102.81 24.42 107.24 24.42 109.28 21.98"/><polygon class="cls-5" points="115.62 14.4 111.19 14.4 109.06 16.94 113.49 16.95 115.62 14.4"/><polygon class="cls-5" points="106.92 26.27 106.83 26.27 105.69 26.27 107.23 24.43 102.8 24.43 100.67 26.97 100.67 26.97 98.6 29.45 100.72 29.45 100.72 29.45 104.16 29.45 104.25 29.45 107.7 29.45 110.36 26.27 106.92 26.27"/><polygon class="cls-5" points="117.89 19.5 117.89 19.5 115.9 21.87 113.77 24.42 118.2 24.42 120.24 21.98 120.24 21.98 122.37 19.44 124.44 16.96 120.02 16.95 117.89 19.5"/><polygon class="cls-5" points="122.15 14.4 120.02 16.94 124.45 16.95 126.58 14.4 122.15 14.4"/><polygon class="cls-5" points="112.23 26.27 110.37 26.27 107.71 29.45 111.24 29.45 111.25 29.45 113.99 29.45 116.12 26.91 118.19 24.43 113.76 24.43 112.23 26.27"/><polygon class="cls-5" points="105.65 34.3 105.65 34.3 103.63 36.8 101.52 39.41 105.94 39.38 107.97 36.88 110.08 34.27 112.13 31.73 107.71 31.75 105.65 34.3"/><polygon class="cls-5" points="109.82 29.14 107.71 31.75 112.14 31.72 114.25 29.11 109.82 29.14"/><polygon class="cls-5" points="103.43 37.06 101.32 39.67 101.32 39.67 99.7 41.67 104.13 41.64 106.24 39.03 106.24 39.03 107.86 37.03 103.43 37.06"/><polygon class="cls-5" points="93.11 41.67 96.18 41.67 98.55 38.78 95.48 38.78 95.4 38.78 92.34 38.78 89.97 41.67 93.03 41.67 93.11 41.67"/><polygon class="cls-5" points="99.33 41.67 101.7 38.78 98.56 38.78 96.19 41.67 99.33 41.67"/><polygon class="cls-5" points="92.54 38.48 94.46 36.09 98.2 36.05 96.28 38.44 96.23 38.5 94.31 40.89 90.57 40.93 92.49 38.54 92.54 38.48"/><polygon class="cls-5" points="96.44 33.62 100.18 33.59 98.21 36.04 94.47 36.08 96.44 33.62"/><polygon class="cls-6" points="115.3 17.41 118.49 17.42 121.07 14.42 117.88 14.41 117.79 14.41 114.61 14.4 112.03 17.4 115.21 17.41 115.3 17.41"/><polygon class="cls-6" points="121.77 17.43 124.35 14.43 121.08 14.42 118.5 17.42 121.77 17.43"/></g></g></svg>