<svg xmlns="http://www.w3.org/2000/svg" viewBox="0 0 125.09 146.62"><defs><style>.cls-1{isolation:isolate;}.cls-2{fill:#7e7d32;}.cls-3{fill:#afad35;}.cls-4{fill:#d9d324;}</style></defs><title>shop2</title><g id="Layer_2" data-name="Layer 2"><g id="Layer_1-2" data-name="Layer 1"><g class="cls-1"><polygon class="cls-2" points="123.4 128.89 114.99 124.31 115.21 1.78 123.63 6.36 123.4 128.89"/><polygon class="cls-3" points="9.88 144.84 1.46 140.26 114.99 124.31 123.4 128.89 9.88 144.84"/><polygon class="cls-3" points="10.1 22.31 1.69 17.73 115.21 1.78 123.63 6.36 10.1 22.31"/><polygon class="cls-4" points="123.63 6.36 123.4 128.89 9.88 144.84 10.1 22.31 123.63 6.36"/><polygon class="cls-2" points="9.88 144.84 1.47 140.26 1.69 17.73 10.1 22.31 9.88 144.84"/><polygon class="cls-2" points="8.41 146.62 0 142.04 0.23 16.36 8.64 20.94 8.41 146.62"/><polygon class="cls-3" points="8.64 20.94 0.23 16.36 116.68 0 125.09 4.58 8.64 20.94"/><path class="cls-4" d="M8.64,20.94,125.09,4.58l-.23,125.68L8.41,146.62ZM123.4,128.89l.23-122.53L10.1,22.31,9.88,144.84l113.52-16"/></g></g></g></svg>