<svg xmlns="http://www.w3.org/2000/svg" viewBox="0 0 103.41 55.4"><title>shop logo</title><g id="Layer_2" data-name="Layer 2"><g id="Layer_1-2" data-name="Layer 1"><polygon points="11.22 24.64 11.22 24.64 8.8 27.56 6.29 30.61 11.5 30.63 13.91 27.7 16.43 24.66 18.88 21.69 13.67 21.67 11.22 24.64"/><polygon points="16.05 18.77 13.58 21.76 18.7 21.78 21.17 18.79 16.05 18.77"/><polygon points="22.2 22.51 26.43 22.52 29.5 18.79 25.42 18.79 25.14 18.79 21.18 18.78 18.11 22.51 22.09 22.51 22.2 22.51"/><polygon points="30.5 22.52 33.57 18.79 29.51 18.78 26.44 22.51 30.5 22.52"/><polygon points="22.78 32.87 22.78 32.87 25.25 29.88 27.83 26.75 22.49 26.74 20.02 29.73 17.44 32.85 14.93 35.9 20.27 35.92 22.78 32.87"/><polygon points="17.68 39.05 20.26 35.93 14.91 35.91 12.34 39.03 17.68 39.05"/><polygon points="11.66 35.11 7.51 35.1 4.28 39.02 8.44 39.03 8.55 39.03 12.71 39.04 15.93 35.12 11.78 35.11 11.66 35.11"/><polygon points="3.23 35.09 0 39.01 4.27 39.02 7.49 35.1 3.23 35.09"/><polygon points="18.77 26.72 14.62 26.71 11.39 30.63 15.55 30.64 15.66 30.64 19.82 30.65 23.04 26.73 18.89 26.72 18.77 26.72"/><polygon points="10.34 26.7 7.11 30.62 11.38 30.63 14.6 26.71 10.34 26.7"/><polygon points="23.53 26.74 20.31 30.65 24.57 30.66 27.8 26.75 23.53 26.74"/><polygon points="42.94 29 40.21 32.27 40.19 32.29 40.14 32.35 37.41 35.62 43.23 35.62 46.03 32.27 46.03 32.27 48.64 29.15 51.45 25.8 45.62 25.8 42.94 29"/><polygon points="34.59 38.98 40.42 38.98 43.22 35.63 37.4 35.63 34.59 38.98"/><polygon points="46.04 23.37 46.16 23.37 47.65 23.37 45.63 25.78 51.46 25.79 54.26 22.44 54.26 22.44 56.99 19.18 54.19 19.18 54.2 19.17 49.67 19.17 49.55 19.17 45.02 19.17 41.51 23.37 46.04 23.37"/><polygon points="31.61 32.27 31.61 32.27 34.22 29.15 37.02 25.8 31.2 25.8 28.52 29 28.52 29 25.71 32.35 22.99 35.62 28.81 35.62 31.61 32.27"/><polygon points="26 38.98 28.8 35.63 22.98 35.63 20.17 38.98 26 38.98"/><polygon points="39.06 23.37 41.5 23.37 45 19.17 40.35 19.17 40.35 19.18 36.74 19.17 33.94 22.52 31.21 25.78 37.03 25.79 39.06 23.37"/><polygon points="47.71 12.8 47.71 12.8 50.37 9.51 53.15 6.08 47.32 6.12 44.66 9.41 41.89 12.84 39.18 16.18 45.01 16.15 47.71 12.8"/><polygon points="42.22 19.59 44.99 16.16 39.17 16.2 36.4 19.63 42.22 19.59"/><polygon points="53.16 6.07 55.93 2.63 55.93 2.63 58.06 0 52.24 0.04 49.46 3.47 49.47 3.47 47.33 6.11 53.16 6.07"/><polygon points="65.73 28.98 62.96 32.23 62.94 32.26 62.88 32.32 60.11 35.57 66.02 35.58 68.87 32.24 68.87 32.24 71.52 29.13 74.36 25.79 68.45 25.78 65.73 28.98"/><polygon points="57.26 38.93 63.17 38.93 66.01 35.59 60.1 35.59 57.26 38.93"/><polygon points="68.88 23.36 69 23.36 70.51 23.36 68.46 25.77 74.37 25.77 77.22 22.43 77.22 22.43 79.99 19.18 77.15 19.18 77.16 19.17 72.56 19.17 72.43 19.17 67.84 19.17 64.28 23.36 68.88 23.36"/><polygon points="54.23 32.24 54.23 32.24 56.88 29.13 59.72 25.79 53.81 25.78 51.09 28.98 51.09 28.98 48.24 32.32 45.47 35.57 51.38 35.58 54.23 32.24"/><polygon points="48.53 38.93 51.37 35.59 45.46 35.59 42.61 38.93 48.53 38.93"/><polygon points="61.79 23.36 64.26 23.36 67.82 19.17 63.1 19.17 63.09 19.18 59.44 19.17 56.59 22.51 53.82 25.77 59.73 25.77 61.79 23.36"/><polygon points="56.88 29.25 59.65 25.99 59.67 25.97 59.72 25.91 62.49 22.65 56.58 22.65 53.73 25.99 53.73 25.99 51.08 29.1 48.24 32.44 54.15 32.45 56.88 29.25"/><polygon points="65.35 19.3 59.44 19.29 56.59 22.64 62.5 22.64 65.35 19.3"/><polygon points="53.73 34.87 53.6 34.87 52.09 34.87 54.14 32.46 48.23 32.45 45.38 35.8 45.38 35.8 42.61 39.05 45.45 39.05 45.45 39.05 50.04 39.05 50.17 39.05 54.77 39.05 58.32 34.87 53.73 34.87"/><polygon points="68.38 25.99 68.38 25.99 65.72 29.1 62.88 32.44 68.79 32.45 71.52 29.25 71.52 29.25 74.36 25.91 77.13 22.65 71.22 22.65 68.38 25.99"/><polygon points="74.08 19.29 71.23 22.64 77.14 22.64 79.99 19.3 74.08 19.29"/><polygon points="60.81 34.87 58.34 34.87 54.78 39.05 59.5 39.05 59.51 39.05 63.17 39.05 66.01 35.71 68.78 32.46 62.87 32.45 60.81 34.87"/><polygon points="89.01 29.03 86.21 32.31 86.19 32.34 86.14 32.4 83.34 35.69 89.31 35.69 92.18 32.32 92.18 32.32 94.86 29.18 97.73 25.8 91.76 25.8 89.01 29.03"/><polygon points="80.46 39.07 86.43 39.08 89.3 35.7 83.33 35.7 80.46 39.07"/><polygon points="92.19 23.35 92.32 23.35 93.84 23.35 91.77 25.78 97.74 25.79 100.62 22.41 100.62 22.41 103.42 19.13 100.55 19.13 100.55 19.12 95.91 19.12 95.78 19.12 91.14 19.12 87.55 23.35 92.19 23.35"/><polygon points="77.4 32.32 77.4 32.32 80.07 29.18 82.95 25.8 76.98 25.8 74.22 29.03 74.22 29.03 71.35 32.4 68.55 35.69 74.52 35.69 77.4 32.32"/><polygon points="71.64 39.08 74.51 35.7 68.54 35.7 65.67 39.07 71.64 39.08"/><polygon points="85.03 23.35 87.53 23.35 91.13 19.12 86.36 19.12 86.35 19.13 82.66 19.12 79.79 22.5 76.99 25.78 82.96 25.79 85.03 23.35"/><polygon points="62.8 42.44 62.8 42.44 59.99 45.73 57.05 49.18 63.02 49.3 65.83 46 68.77 42.55 71.64 39.2 65.67 39.08 62.8 42.44"/><polygon points="68.62 35.63 65.68 39.07 71.65 39.19 74.58 35.75 68.62 35.63"/><polygon points="57.04 49.19 54.1 52.63 54.1 52.63 51.85 55.28 57.82 55.4 60.76 51.95 60.75 51.95 63.01 49.31 57.04 49.19"/><polygon points="80.07 29.3 82.87 26.01 82.89 25.99 82.95 25.92 85.74 22.64 79.77 22.63 76.9 26.01 76.9 26.01 74.22 29.15 71.35 32.52 77.32 32.53 80.07 29.3"/><polygon points="88.63 19.25 82.66 19.25 79.78 22.62 85.75 22.62 88.63 19.25"/><polygon points="76.89 34.97 76.77 34.97 75.24 34.97 77.31 32.54 71.34 32.54 68.47 35.91 68.47 35.91 65.67 39.2 68.53 39.2 68.53 39.2 73.17 39.2 73.3 39.2 77.94 39.2 81.53 34.97 76.89 34.97"/><polygon points="91.69 26.01 91.69 26.01 89.01 29.15 86.14 32.52 92.11 32.53 94.86 29.3 94.86 29.3 97.73 25.92 100.53 22.64 94.56 22.63 91.69 26.01"/><polygon points="97.44 19.25 94.57 22.62 100.54 22.62 103.41 19.25 97.44 19.25"/><polygon points="84.05 34.97 81.55 34.97 77.96 39.2 82.73 39.2 82.73 39.2 86.43 39.2 89.3 35.83 92.1 32.54 86.13 32.54 84.05 34.97"/></g></g></svg>