<svg xmlns="http://www.w3.org/2000/svg" viewBox="0 0 316.37 121.32"><defs><style>.cls-1{isolation:isolate;}.cls-2{fill:#2a2a7a;}.cls-3{fill:#160e53;}.cls-4{fill:#221f68;}.cls-5{fill:#fff;}</style></defs><title>speak</title><g id="Layer_2" data-name="Layer 2"><g id="Layer_1-2" data-name="Layer 1"><g class="cls-1"><polygon class="cls-2" points="0 5.51 0.16 83.24 304.98 121.32 304.81 43.6 0 5.51"/><polygon class="cls-3" points="304.98 121.32 316.37 115.81 316.21 38.09 304.81 43.6 304.98 121.32"/><polygon class="cls-4" points="304.81 43.6 316.21 38.09 11.4 0 0 5.51 304.81 43.6"/></g><path class="cls-5" d="M50.05,28.05a4.35,4.35,0,0,1,4.08,5,4.22,4.22,0,0,1-5,4A4.36,4.36,0,0,1,45,32,4.14,4.14,0,0,1,50.05,28.05ZM49.31,35c1.2.15,2-.66,2.15-2.17s-.45-2.54-1.62-2.69-2,.65-2.19,2.17.46,2.54,1.65,2.69"/><path class="cls-5" d="M39.94,23.73a5,5,0,0,1,3.87,2.32,4.45,4.45,0,0,1,.66,2l-2.9.18a2.13,2.13,0,0,0-2-2.15c-1.68-.22-2.8,1-3,3.24s.63,3.73,2.34,4a2.16,2.16,0,0,0,1.9-.63,2.29,2.29,0,0,0,.53-1.13l2.82.79a5.06,5.06,0,0,1-1.41,2.37,4.88,4.88,0,0,1-4,1,5.77,5.77,0,0,1-3.92-2A6.48,6.48,0,0,1,33.69,29a6.1,6.1,0,0,1,2.15-4.3A5.57,5.57,0,0,1,39.94,23.73Z"/><path class="cls-5" d="M61.27,29.61a3.12,3.12,0,0,1,2.14,1.05,3,3,0,0,1,.53,2.4l-.37,3.45a17,17,0,0,0-.1,2.07l-2.87-.37a14.51,14.51,0,0,0,.34-2.06l.3-2.82a1.64,1.64,0,0,0-.11-1,1.12,1.12,0,0,0-.87-.51A2.46,2.46,0,0,0,58,33l-.3,2.77a15.68,15.68,0,0,0-.11,2.09l-2.86-.37a14.31,14.31,0,0,0,.34-2.06l.45-4.23a12.89,12.89,0,0,0,.11-2.09l2.75.35-.06.57c0,.09,0,.29-.05.39A3.74,3.74,0,0,1,61.27,29.61Z"/><path class="cls-5" d="M79.7,40.67,77,40.32l.07-.63a4,4,0,0,1-2.76.48A3.49,3.49,0,0,1,72,39.12a2.55,2.55,0,0,1-.55-2,2.25,2.25,0,0,1,1.21-1.87,5.78,5.78,0,0,1,3-.53c.55,0,1,.06,1.95.16l0-.32c.07-.66-.3-1-1.2-1.13s-1.38.11-1.66.76l-2.59-.77a3,3,0,0,1,1.34-1.51,5.28,5.28,0,0,1,3.18-.39,6.08,6.08,0,0,1,2.5.81,2.54,2.54,0,0,1,1,2.63l-.4,3.71A17.41,17.41,0,0,0,79.7,40.67ZM76.76,38a1.35,1.35,0,0,0,.61-1l0-.38a8.3,8.3,0,0,0-2.41,0,1,1,0,0,0-.89.81c-.05.49.33.83,1.05.92A2.52,2.52,0,0,0,76.76,38"/><path class="cls-5" d="M69.81,28.71a15.59,15.59,0,0,0-.31,1.87l0,.29.5.06a9.75,9.75,0,0,0,1.35.1l-.24,2.28a9.33,9.33,0,0,0-1.26-.24L69.25,33l-.38,3.52c0,.38,0,.58.17.73a1.21,1.21,0,0,0,.61.23,1.91,1.91,0,0,0,1-.12v2.12a6.17,6.17,0,0,1-1.93,0,3.38,3.38,0,0,1-2-.75,2,2,0,0,1-.53-1.89l.45-4.2-.52-.07a8.65,8.65,0,0,0-1.2-.07l.24-2.29a8.74,8.74,0,0,0,1.21.24l.5.06,0-.29A14.5,14.5,0,0,0,67,28.35Z"/><path class="cls-5" d="M95.35,32A15.59,15.59,0,0,0,95,33.85l0,.29.5.06a9.74,9.74,0,0,0,1.35.1l-.24,2.28a9.32,9.32,0,0,0-1.26-.24l-.58-.07-.38,3.52c0,.38,0,.58.17.73a1.21,1.21,0,0,0,.61.23,1.91,1.91,0,0,0,1-.12v2.12a6.17,6.17,0,0,1-1.93,0,3.38,3.38,0,0,1-2-.75,2,2,0,0,1-.53-1.89l.45-4.2-.52-.07a8.65,8.65,0,0,0-1.2-.07l.24-2.29a8.74,8.74,0,0,0,1.21.24l.5.06,0-.29a14.5,14.5,0,0,0,.09-1.89Z"/><path class="cls-5" d="M86.15,32.68a3.92,3.92,0,0,1,3.74,3.39l-2.53.18a2,2,0,0,0-.3-.85A1.51,1.51,0,0,0,86,34.76c-1.12-.14-1.87.65-2,2.16s.45,2.54,1.55,2.68a1.58,1.58,0,0,0,1.37-.43,1.34,1.34,0,0,0,.32-.6l2.49.72a4.12,4.12,0,0,1-.72,1.29,4,4,0,0,1-3.71,1.13,4.58,4.58,0,0,1-3.09-1.59,4.74,4.74,0,0,1-.88-3.49A4.1,4.1,0,0,1,86.15,32.68Z"/><path class="cls-5" d="M111.19,36.22a15.74,15.74,0,0,0-.33,2l-.45,4.24a14,14,0,0,0-.11,2.08l-2.74-.35.06-.59c0-.07,0-.27,0-.37a3.75,3.75,0,0,1-3,.81,3.14,3.14,0,0,1-2.11-1,3.05,3.05,0,0,1-.54-2.41l.37-3.45a19.31,19.31,0,0,0,.11-2.07l2.86.37a16,16,0,0,0-.33,2l-.3,2.82a1.58,1.58,0,0,0,.11,1.06,1.12,1.12,0,0,0,.85.5,2.56,2.56,0,0,0,2.22-1.15l.3-2.82a17.25,17.25,0,0,0,.1-2.07Z"/><path class="cls-5" d="M116.4,36.59a4.33,4.33,0,0,1,2.84,1.26,2.91,2.91,0,0,1,.74,1.68l-2.7-.05c0-.57-.32-.86-1.07-1S115,38.61,115,39s.23.55,1.56,1a8.88,8.88,0,0,1,2.2,1,2.21,2.21,0,0,1,1.1,2.27,2.49,2.49,0,0,1-.89,1.74,4.58,4.58,0,0,1-3.37.58,4.41,4.41,0,0,1-3.49-1.83,3.35,3.35,0,0,1-.4-1.45l2.76,0c.07.73.5,1.11,1.42,1.23s1.32-.07,1.36-.5a.57.57,0,0,0-.25-.53,3.43,3.43,0,0,0-1.09-.46,16.5,16.5,0,0,1-2-.76,2.76,2.76,0,0,1-1.27-1.15,2.67,2.67,0,0,1-.21-1.35C112.6,37.12,114.1,36.3,116.4,36.59Z"/><path class="cls-5" d="M131.79,38.61c2.51.32,3.8,2.1,3.51,4.82a4.83,4.83,0,0,1-1.6,3.33,4.37,4.37,0,0,1-5.59-.62l0,.29,0,.43-2.7-.35a15,15,0,0,0,.34-2.14l.76-7.11a14.53,14.53,0,0,0,.12-2.18l2.8.36A19.88,19.88,0,0,0,129,37.6l-.12,1.15c0,.21,0,.34-.07.53A4,4,0,0,1,131.79,38.61Zm-1.43,6.68c1.2.15,2.11-.71,2.26-2.17a2,2,0,0,0-1.71-2.51,2.1,2.1,0,0,0-2.39,2,2.28,2.28,0,0,0,1.84,2.66"/><path class="cls-5" d="M145.8,40.66c-.42.67-.42.67-1,1.73l-3.93,6.87a3,3,0,0,1-3.32,1.48,8.84,8.84,0,0,1-1.86-.47l.53-2.15a2.13,2.13,0,0,0,1,.44,1.15,1.15,0,0,0,1.18-.5l.36-.55-2-6.13c-.44-1.44-.49-1.57-.63-1.94l3,.38a9.26,9.26,0,0,0,.35,1.84l.93,3.33L142,42a7.74,7.74,0,0,0,.79-1.75Z"/><path class="cls-5" d="M159.55,43.24a4.43,4.43,0,0,1,.77,3.34,4.48,4.48,0,0,1-1.56,3.17,3.93,3.93,0,0,1-3,.72,5.2,5.2,0,0,1-1.82-.59,3.65,3.65,0,0,1-.89-.76c0,.12,0,.3,0,.5l-.1.94a15,15,0,0,0-.11,2L150,52.21a17.12,17.12,0,0,0,.33-2l.72-6.71a17.3,17.3,0,0,0,.11-2.17l2.72.35,0,.47,0,.25a4.63,4.63,0,0,1,5.74.83ZM156.83,48a2.44,2.44,0,0,0,.79-1.71,2,2,0,0,0-1.8-2.48,2.13,2.13,0,0,0-2.32,2,2.24,2.24,0,0,0,1.92,2.55,1.91,1.91,0,0,0,1.41-.35"/><path class="cls-5" d="M165,40a13,13,0,0,0-.34,2.06l-.16,1.46c0,.11,0,.33-.06.46a3.74,3.74,0,0,1,3-.77,3.08,3.08,0,0,1,2.11,1,3,3,0,0,1,.54,2.4l-.37,3.45a17.22,17.22,0,0,0-.11,2.07l-2.87-.37a14.51,14.51,0,0,0,.34-2.06l.3-2.82a1.59,1.59,0,0,0-.11-1.05,1.08,1.08,0,0,0-.85-.49,2.54,2.54,0,0,0-2.23,1.16l-.3,2.79a15.67,15.67,0,0,0-.11,2.09l-2.86-.37a14.31,14.31,0,0,0,.34-2.06l.78-7.28a12.82,12.82,0,0,0,.11-2.09Z"/><path class="cls-5" d="M176.17,44.23a4.35,4.35,0,0,1,4.08,5,4.22,4.22,0,0,1-5,4,4.36,4.36,0,0,1-4.05-5.1A4.14,4.14,0,0,1,176.17,44.23Zm-.74,6.93c1.2.15,2-.66,2.15-2.17s-.45-2.54-1.62-2.69-2,.65-2.19,2.17.46,2.54,1.65,2.69"/><path class="cls-5" d="M187.39,45.79a3.12,3.12,0,0,1,2.14,1.05,3,3,0,0,1,.54,2.4l-.37,3.45a17.22,17.22,0,0,0-.11,2.07l-2.87-.37a14.55,14.55,0,0,0,.34-2.06l.3-2.82a1.64,1.64,0,0,0-.11-1,1.11,1.11,0,0,0-.87-.51,2.46,2.46,0,0,0-2.21,1.18l-.3,2.77a15.68,15.68,0,0,0-.11,2.09l-2.86-.37a14.28,14.28,0,0,0,.34-2.06l.45-4.23a12.87,12.87,0,0,0,.11-2.09l2.75.35-.06.57c0,.09,0,.29-.05.39A3.74,3.74,0,0,1,187.39,45.79Z"/><path class="cls-5" d="M196.7,53.42a1.39,1.39,0,0,0,.49-.64l2.32,1a3.8,3.8,0,0,1-1.05,1.3,4.41,4.41,0,0,1-3.38.76A4.46,4.46,0,0,1,192,54.22a4.79,4.79,0,0,1-.89-3.5,4.36,4.36,0,0,1,8.66-.21,10.8,10.8,0,0,1,0,1.83c0,.05,0,.13,0,.27l-6.2-.8a1.8,1.8,0,0,0,1.7,1.94A2,2,0,0,0,196.7,53.42Zm-.94-4.62a1.63,1.63,0,0,0-2,1.12l3.54.45a1.66,1.66,0,0,0-1.59-1.57"/><path class="cls-5" d="M210.21,48.6a4.34,4.34,0,0,1,4.07,5,4.22,4.22,0,0,1-5,4,4.36,4.36,0,0,1-4.05-5.1A4.14,4.14,0,0,1,210.21,48.6Zm-.74,6.93c1.2.15,2-.66,2.14-2.18s-.45-2.54-1.62-2.69-2,.65-2.19,2.17.46,2.54,1.66,2.69"/><path class="cls-5" d="M221.35,50.18a5.55,5.55,0,0,1,1.35.34l-.93,2.39a4.53,4.53,0,0,0-1.38-.45,2,2,0,0,0-1.72.54,2,2,0,0,0-.55,1.16l-.23,2.14a15.4,15.4,0,0,0-.1,2.07L214.94,58a15.9,15.9,0,0,0,.33-2.06l.45-4.23a14,14,0,0,0,.11-2.09l2.74.35-.12,1.09A3.1,3.1,0,0,1,221.35,50.18Z"/><path class="cls-5" d="M232.89,58.06a1.27,1.27,0,0,0,.49-.64l2.33,1a3.81,3.81,0,0,1-1.06,1.29,5.07,5.07,0,0,1-6.45-.83,4.76,4.76,0,0,1-.9-3.51,4.36,4.36,0,0,1,8.66-.21A10,10,0,0,1,236,57a2,2,0,0,0,0,.28l-6.2-.8a1.79,1.79,0,0,0,1.69,1.94A2,2,0,0,0,232.89,58.06Zm-.94-4.62a1.64,1.64,0,0,0-2,1.12l3.54.45a1.66,1.66,0,0,0-1.59-1.57"/><path class="cls-5" d="M248.18,53.55c2,.25,2.86,1.46,2.64,3.53l-.36,3.41a15.72,15.72,0,0,0-.11,2.07l-2.87-.37a13.64,13.64,0,0,0,.34-2.06l.3-2.82c.11-1-.15-1.47-.94-1.57A1.91,1.91,0,0,0,245.34,57l-.3,2.81a14.51,14.51,0,0,0-.1,2.07l-2.87-.37a15.3,15.3,0,0,0,.33-2.06l.3-2.82a1.66,1.66,0,0,0-.12-1.11.92.92,0,0,0-.73-.44,2,2,0,0,0-1.92,1.25l-.3,2.77a16.09,16.09,0,0,0-.11,2.09l-2.83-.36a15.55,15.55,0,0,0,.33-2.06l.45-4.23a13.3,13.3,0,0,0,.11-2.09l2.73.35-.06.57a1.05,1.05,0,0,1,0,.19v.14a3.3,3.3,0,0,1,2.76-.79,3,3,0,0,1,1.71.72,1.73,1.73,0,0,1,.49.76A3.73,3.73,0,0,1,248.18,53.55Z"/><path class="cls-5" d="M260,63.79l-2.67-.34.07-.63a4,4,0,0,1-2.76.48,3.49,3.49,0,0,1-2.3-1.06,2.56,2.56,0,0,1-.56-2A2.25,2.25,0,0,1,253,58.4a5.75,5.75,0,0,1,3-.53c.54,0,1,.06,1.95.16l0-.32c.07-.66-.3-1-1.21-1.13s-1.38.11-1.65.76l-2.59-.77a2.92,2.92,0,0,1,1.34-1.51,5.28,5.28,0,0,1,3.18-.39,6.11,6.11,0,0,1,2.5.81,2.54,2.54,0,0,1,1,2.63l-.4,3.71A15.53,15.53,0,0,0,260,63.79ZM257,61.16a1.35,1.35,0,0,0,.61-1l0-.38a8.31,8.31,0,0,0-2.41,0,1,1,0,0,0-.89.81c-.05.49.32.83,1,.92a2.52,2.52,0,0,0,1.61-.32"/><path class="cls-5" d="M264.87,58l-.45,4.23a18.25,18.25,0,0,0-.11,2.09L261.44,64a15.79,15.79,0,0,0,.33-2.06l.45-4.23a15.3,15.3,0,0,0,.11-2.09l2.88.37A13.86,13.86,0,0,0,264.87,58Z"/><polygon class="cls-5" points="265.49 52.91 265.27 54.98 262.47 54.62 262.69 52.55 265.49 52.91"/><path class="cls-5" d="M269.87,53.47a13.18,13.18,0,0,0-.34,2.06l-.78,7.28a15.34,15.34,0,0,0-.11,2.09l-2.89-.37a13,13,0,0,0,.34-2.06l.78-7.28A12.53,12.53,0,0,0,267,53.1Z"/><polygon class="cls-5" points="273.15 62.67 272.85 65.44 270.07 65.08 270.37 62.31 273.15 62.67"/><g class="cls-1"><path class="cls-5" d="M76.6,48.37c-.46.53-1.07,1.25-1.28,1.53l-3.71,4.78-.27,2.54a15.73,15.73,0,0,0-.1,2l-3-.39a17.51,17.51,0,0,0,.33-2l.27-2.54-2.62-5.6c-.2-.46-.46-1-.93-1.81l3.49.45a6.72,6.72,0,0,0,.49,1.53l1.23,3,1.83-2.58a6.13,6.13,0,0,0,.78-1.38Z"/><path class="cls-5" d="M80.08,51.59a4.34,4.34,0,0,1,4.07,5,4.22,4.22,0,0,1-5,4,4.36,4.36,0,0,1-4.05-5.1A4.14,4.14,0,0,1,80.08,51.59Zm-.74,6.92c1.2.15,2-.65,2.14-2.17s-.44-2.53-1.62-2.69-2,.65-2.19,2.16.46,2.54,1.66,2.69"/></g><path class="cls-5" d="M94.38,53.74a15.56,15.56,0,0,0-.33,2L93.59,60a13.77,13.77,0,0,0-.1,2.08l-2.75-.35.06-.59a2.78,2.78,0,0,1,.06-.37,3.76,3.76,0,0,1-3,.81,3.18,3.18,0,0,1-2.11-1,3.05,3.05,0,0,1-.53-2.41l.37-3.45a17,17,0,0,0,.1-2.07l2.87.37a16,16,0,0,0-.33,2l-.3,2.82a1.64,1.64,0,0,0,.1,1.06,1.14,1.14,0,0,0,.86.5,2.56,2.56,0,0,0,2.21-1.16l.3-2.82a17.27,17.27,0,0,0,.11-2.07Z"/><path class="cls-5" d="M112.47,56.06c-.27.49-.54,1.08-.82,1.7l-2.07,4.79a12.19,12.19,0,0,0-.59,1.55l-2.34-.3a13,13,0,0,0-.25-1.66l-.55-2.85c0-.25-.08-.43-.09-.56-.13.31-.13.33-.23.52l-1.13,2.64a13.78,13.78,0,0,0-.6,1.55l-2.35-.3a15.89,15.89,0,0,0-.24-1.66l-1-5.18c-.1-.5-.24-1.13-.43-1.86l3,.38a9.59,9.59,0,0,0,.08,1.66l.33,2.53c0,.34.07.56.07.68l.27-.64,1-2.4a13.91,13.91,0,0,0,.59-1.53l2,.26a14.71,14.71,0,0,0,.25,1.63l.52,2.7c0,.1.07.41.11.59a5.87,5.87,0,0,1,.19-.57l.83-2.35a10.66,10.66,0,0,0,.48-1.69Z"/><path class="cls-5" d="M115.82,58.59l-.45,4.23a18.31,18.31,0,0,0-.11,2.09l-2.89-.37a14.34,14.34,0,0,0,.34-2.06l.45-4.23a13.91,13.91,0,0,0,.11-2.09l2.89.37A12.81,12.81,0,0,0,115.82,58.59Z"/><polygon class="cls-5" points="116.44 53.48 116.22 55.54 113.42 55.18 113.64 53.12 116.44 53.48"/><path class="cls-5" d="M120.82,54a13.18,13.18,0,0,0-.34,2.06l-.78,7.28a15.34,15.34,0,0,0-.11,2.09l-2.89-.37a13,13,0,0,0,.34-2.06l.78-7.28a12.53,12.53,0,0,0,.11-2.09Z"/><path class="cls-5" d="M125.14,54.59a14.57,14.57,0,0,0-.33,2.06L124,63.93a17,17,0,0,0-.11,2.09L121,65.65a14.33,14.33,0,0,0,.33-2.06l.78-7.28a13.82,13.82,0,0,0,.11-2.09Z"/><path class="cls-5" d="M138.16,67.85l-2.67-.34.07-.63a4,4,0,0,1-2.75.48,3.5,3.5,0,0,1-2.31-1.06,2.55,2.55,0,0,1-.55-2,2.27,2.27,0,0,1,1.21-1.87,5.78,5.78,0,0,1,3-.53c.55,0,1,.06,1.95.16l0-.32c.07-.66-.3-1-1.2-1.13s-1.39.11-1.66.76l-2.58-.77A2.91,2.91,0,0,1,132,59.12a5.28,5.28,0,0,1,3.18-.39,6,6,0,0,1,2.5.81,2.55,2.55,0,0,1,1,2.63l-.4,3.71A17.7,17.7,0,0,0,138.16,67.85Zm-2.93-2.63a1.35,1.35,0,0,0,.61-1l0-.38a8.3,8.3,0,0,0-2.41,0,1,1,0,0,0-.89.81c-.05.49.33.83,1.05.92a2.51,2.51,0,0,0,1.61-.32"/><path class="cls-5" d="M143.72,57a14.57,14.57,0,0,0-.33,2.06l-.78,7.28a17,17,0,0,0-.11,2.09L139.62,68a14.33,14.33,0,0,0,.33-2.06l.78-7.28a13.82,13.82,0,0,0,.11-2.09Z"/><path class="cls-5" d="M165,71.29l-2.67-.34.07-.63a4,4,0,0,1-2.76.48,3.49,3.49,0,0,1-2.3-1.06,2.56,2.56,0,0,1-.56-2A2.25,2.25,0,0,1,158,65.9a5.75,5.75,0,0,1,3-.53c.54,0,1,.06,1.95.16l0-.32c.07-.66-.3-1-1.21-1.13s-1.38.11-1.65.76l-2.59-.77a2.92,2.92,0,0,1,1.34-1.51,5.28,5.28,0,0,1,3.18-.39,6.11,6.11,0,0,1,2.5.81,2.54,2.54,0,0,1,1,2.63l-.4,3.71A15.58,15.58,0,0,0,165,71.29Zm-2.93-2.63a1.35,1.35,0,0,0,.61-1l0-.38a8.29,8.29,0,0,0-2.41,0,1,1,0,0,0-.89.81c-.05.49.32.83,1,.92a2.52,2.52,0,0,0,1.61-.32"/><path class="cls-5" d="M156.9,61.76c-.26.49-.54,1.08-.81,1.7L154,68.25a10.94,10.94,0,0,0-.59,1.55l-2.35-.3a11.56,11.56,0,0,0-.25-1.66L150.28,65c0-.25-.08-.43-.09-.56-.13.31-.13.33-.22.52l-1.13,2.64a14.15,14.15,0,0,0-.61,1.55l-2.34-.3a15.9,15.9,0,0,0-.25-1.66l-1-5.18c-.1-.5-.25-1.13-.43-1.86l3,.38a9.69,9.69,0,0,0,.09,1.66l.33,2.53c0,.34.07.56.06.68a6.51,6.51,0,0,0,.27-.64l1-2.4c.51-1.24.51-1.24.6-1.52l2,.26a12.39,12.39,0,0,0,.24,1.63l.53,2.7c0,.1.06.41.1.59l.19-.57.84-2.35a11.54,11.54,0,0,0,.47-1.69Z"/><path class="cls-5" d="M176.34,64.25c-.42.67-.42.67-1,1.73l-3.93,6.87a3,3,0,0,1-3.32,1.48,8.84,8.84,0,0,1-1.86-.47l.53-2.15a2.13,2.13,0,0,0,1,.44,1.15,1.15,0,0,0,1.18-.5l.35-.55-2-6.13c-.45-1.44-.49-1.57-.63-1.94l3,.38a9.1,9.1,0,0,0,.34,1.84l.94,3.33,1.55-3a7.74,7.74,0,0,0,.79-1.75Z"/><path class="cls-5" d="M180.91,64.54a4.33,4.33,0,0,1,2.84,1.26,2.85,2.85,0,0,1,.73,1.68l-2.69,0c0-.57-.33-.87-1.07-1s-1.18.09-1.21.44.23.55,1.56,1a8.88,8.88,0,0,1,2.2,1,2.21,2.21,0,0,1,1.1,2.27,2.49,2.49,0,0,1-.89,1.74,4.58,4.58,0,0,1-3.37.58,4.41,4.41,0,0,1-3.49-1.83,3.35,3.35,0,0,1-.4-1.45l2.76,0c.07.73.5,1.1,1.42,1.22s1.32-.06,1.36-.49a.57.57,0,0,0-.25-.53A3.52,3.52,0,0,0,180.4,70a16.49,16.49,0,0,1-2-.76,2.68,2.68,0,0,1-1.27-1.16,2.61,2.61,0,0,1-.21-1.34C177.11,65.08,178.61,64.25,180.91,64.54Z"/><g class="cls-1"><path class="cls-5" d="M194.51,66.29a4.37,4.37,0,0,1,2.85,1.26,3,3,0,0,1,.73,1.68l-2.7-.05c0-.57-.32-.86-1.06-1s-1.19.09-1.22.44.24.55,1.57,1a8.89,8.89,0,0,1,2.19,1,2.21,2.21,0,0,1,1.1,2.27,2.49,2.49,0,0,1-.89,1.74,4.57,4.57,0,0,1-3.37.58c-1.74-.22-2.92-.85-3.48-1.83a3.36,3.36,0,0,1-.41-1.45l2.77.05c.06.73.49,1.1,1.41,1.22s1.33-.06,1.37-.49a.58.58,0,0,0-.26-.53,3.43,3.43,0,0,0-1.09-.46,16.25,16.25,0,0,1-2-.76,2.71,2.71,0,0,1-1.28-1.16,2.61,2.61,0,0,1-.21-1.34C190.7,66.82,192.2,66,194.51,66.29Z"/><path class="cls-5" d="M208.12,69.15a4.46,4.46,0,0,1,.76,3.34,4.51,4.51,0,0,1-1.55,3.17,4,4,0,0,1-3,.72,5.28,5.28,0,0,1-1.82-.59,3.62,3.62,0,0,1-.88-.76c0,.12,0,.3,0,.5l-.1.94a13.59,13.59,0,0,0-.1,2l-2.82-.36a19.4,19.4,0,0,0,.32-2l.72-6.71a17.44,17.44,0,0,0,.12-2.17l2.71.35,0,.47,0,.25a4.09,4.09,0,0,1,2.93-.61A4.13,4.13,0,0,1,208.12,69.15Zm-2.73,4.73a2.41,2.41,0,0,0,.8-1.71,2,2,0,0,0-1.81-2.47,2.13,2.13,0,0,0-2.32,2A2.24,2.24,0,0,0,204,74.23a1.87,1.87,0,0,0,1.4-.35"/></g><path class="cls-5" d="M215.19,75.47a1.31,1.31,0,0,0,.48-.64l2.33,1a3.8,3.8,0,0,1-1.05,1.3,5.08,5.08,0,0,1-6.46-.83,4.75,4.75,0,0,1-.89-3.5,4.35,4.35,0,0,1,8.65-.21,9.84,9.84,0,0,1,0,1.83c0,.05,0,.13,0,.27l-6.2-.8a1.8,1.8,0,0,0,1.7,1.94A2,2,0,0,0,215.19,75.47Zm-1-4.62A1.63,1.63,0,0,0,212.29,72l3.54.45a1.67,1.67,0,0,0-1.6-1.57"/><path class="cls-5" d="M227.18,79.26l-2.67-.34.07-.63a4,4,0,0,1-2.76.48,3.49,3.49,0,0,1-2.3-1.06,2.55,2.55,0,0,1-.55-2,2.25,2.25,0,0,1,1.21-1.87,5.75,5.75,0,0,1,3-.53c.55,0,1,.06,1.95.16l0-.32c.07-.66-.3-1-1.21-1.13s-1.38.11-1.65.76L219.67,72A3,3,0,0,1,221,70.54a5.28,5.28,0,0,1,3.18-.39,6.11,6.11,0,0,1,2.5.81,2.54,2.54,0,0,1,1,2.63l-.4,3.71A17.41,17.41,0,0,0,227.18,79.26Zm-2.93-2.63a1.35,1.35,0,0,0,.61-1l0-.38a8.3,8.3,0,0,0-2.41,0,1,1,0,0,0-.89.81c-.05.49.33.83,1,.92a2.52,2.52,0,0,0,1.61-.32"/><path class="cls-5" d="M232.66,68.38a13.14,13.14,0,0,0-.34,2.06l-.41,3.87L233.59,73a8.2,8.2,0,0,0,1.35-1.23l3.67.47c-.59.4-.77.53-1.6,1.16l-2.2,1.67,1.94,3.65c.71,1.32.76,1.4,1.09,1.92l-3.52-.45a10.28,10.28,0,0,0-.71-2l-.87-1.84-1.13.86-.06.55a10.09,10.09,0,0,0-.11,2l-2.81-.36a15.05,15.05,0,0,0,.33-2.06l.78-7.28a17,17,0,0,0,.11-2.09Z"/><path class="cls-5" d="M91.23,75.12l-.45,4.23a20.79,20.79,0,0,0-.11,2.09l-2.88-.37A15.65,15.65,0,0,0,88.12,79l.45-4.23a15.14,15.14,0,0,0,.11-2.09l2.88.37A14.13,14.13,0,0,0,91.23,75.12Z"/><path class="cls-5" d="M87.87,72.59c-.26.49-.54,1.08-.81,1.7L85,79.08a10.94,10.94,0,0,0-.59,1.55l-2.34-.3a13.46,13.46,0,0,0-.26-1.66l-.55-2.85c0-.25-.08-.43-.09-.56-.13.31-.13.33-.22.52l-1.13,2.64A16.39,16.39,0,0,0,79.2,80l-2.34-.3A15.89,15.89,0,0,0,76.62,78l-1-5.18c-.1-.5-.25-1.13-.43-1.86l3,.38A9.71,9.71,0,0,0,78.23,73l.33,2.53c0,.34.07.56.06.68a6.51,6.51,0,0,0,.27-.64l1-2.4c.51-1.24.51-1.24.6-1.52l2,.26a11.42,11.42,0,0,0,.25,1.63l.52,2.7c0,.1.06.41.1.59l.19-.57.84-2.35a11.54,11.54,0,0,0,.47-1.69Z"/><polygon class="cls-5" points="91.85 70 91.63 72.07 88.83 71.71 89.05 69.64 91.85 70"/><path class="cls-5" d="M102.79,71.41a14.41,14.41,0,0,0-.33,2.06l-.16,1.46c0,.11-.05.33-.07.46a3.77,3.77,0,0,1,3-.77,3.08,3.08,0,0,1,2.11,1,3,3,0,0,1,.53,2.4l-.37,3.45a17,17,0,0,0-.1,2.07l-2.87-.37a16.07,16.07,0,0,0,.33-2.06l.3-2.82a1.66,1.66,0,0,0-.1-1.05,1.08,1.08,0,0,0-.85-.49A2.52,2.52,0,0,0,102,78l-.3,2.79a17.38,17.38,0,0,0-.11,2.09l-2.85-.37a14.28,14.28,0,0,0,.34-2.06l.78-7.28A12.79,12.79,0,0,0,99.94,71Z"/><path class="cls-5" d="M97,71.56a15.48,15.48,0,0,0-.31,1.87l0,.29.5.06a9.74,9.74,0,0,0,1.35.1l-.24,2.28a9.32,9.32,0,0,0-1.26-.24l-.58-.07-.38,3.52c0,.38,0,.58.17.73a1.21,1.21,0,0,0,.61.23,1.91,1.91,0,0,0,1-.12v2.12a6.18,6.18,0,0,1-1.93,0,3.38,3.38,0,0,1-2-.75,2,2,0,0,1-.53-1.89l.45-4.2-.52-.07a8.65,8.65,0,0,0-1.2-.07l.24-2.29a8.74,8.74,0,0,0,1.21.24l.5.06,0-.29a14.54,14.54,0,0,0,.09-1.89Z"/><path class="cls-5" d="M121.63,85.41,119,85.06l.07-.63a4,4,0,0,1-2.76.48,3.49,3.49,0,0,1-2.3-1.06,2.56,2.56,0,0,1-.56-2A2.25,2.25,0,0,1,114.61,80a5.75,5.75,0,0,1,3-.53c.54,0,1,.06,1.95.16l0-.32c.07-.66-.3-1-1.21-1.13s-1.38.11-1.66.76l-2.58-.77a2.88,2.88,0,0,1,1.34-1.51,5.28,5.28,0,0,1,3.18-.39,6.11,6.11,0,0,1,2.5.81,2.54,2.54,0,0,1,1,2.63l-.4,3.71A15.53,15.53,0,0,0,121.63,85.41Zm-2.93-2.63a1.35,1.35,0,0,0,.61-1l0-.38a8.3,8.3,0,0,0-2.41,0,1,1,0,0,0-.89.81c-.05.49.32.83,1,.92a2.52,2.52,0,0,0,1.61-.32"/><path class="cls-5" d="M134.08,78.34a5.61,5.61,0,0,1,1.35.34l-.93,2.39a4.57,4.57,0,0,0-1.38-.45,2,2,0,0,0-1.72.54,1.91,1.91,0,0,0-.55,1.16l-.23,2.14a14.05,14.05,0,0,0-.1,2.07l-2.86-.37a14.36,14.36,0,0,0,.34-2.06l.45-4.23a12.73,12.73,0,0,0,.11-2.09l2.75.35-.12,1.09A3.08,3.08,0,0,1,134.08,78.34Z"/><path class="cls-5" d="M153,89.43l-2.67-.34.07-.63a4,4,0,0,1-2.76.48,3.49,3.49,0,0,1-2.3-1.06,2.56,2.56,0,0,1-.56-2A2.25,2.25,0,0,1,146,84a5.72,5.72,0,0,1,3-.53c.55,0,1,.06,2,.16l0-.32c.07-.66-.3-1-1.21-1.13s-1.39.11-1.66.76l-2.58-.77a2.88,2.88,0,0,1,1.34-1.51,5.28,5.28,0,0,1,3.18-.39,6.11,6.11,0,0,1,2.5.81,2.55,2.55,0,0,1,1,2.63l-.4,3.71A15.58,15.58,0,0,0,153,89.43Zm-2.93-2.63a1.35,1.35,0,0,0,.61-1l0-.38a8.32,8.32,0,0,0-2.42,0,1,1,0,0,0-.89.81c-.05.49.33.83,1.05.92a2.52,2.52,0,0,0,1.61-.32"/><path class="cls-5" d="M141,85.64a1.32,1.32,0,0,0,.49-.64l2.33,1a3.81,3.81,0,0,1-1.06,1.3,5.07,5.07,0,0,1-6.45-.83,4.76,4.76,0,0,1-.9-3.51,4.36,4.36,0,0,1,8.66-.21,10,10,0,0,1,0,1.83,2,2,0,0,0,0,.28L137.9,84a1.8,1.8,0,0,0,1.7,1.94A2,2,0,0,0,141,85.64ZM140.09,81a1.63,1.63,0,0,0-2,1.12l3.54.45A1.66,1.66,0,0,0,140.09,81"/><path class="cls-5" d="M158.59,78.56a14.57,14.57,0,0,0-.33,2.06l-.78,7.28a17,17,0,0,0-.11,2.09l-2.88-.37a14.12,14.12,0,0,0,.34-2.06l.78-7.28a13.59,13.59,0,0,0,.11-2.09Z"/><path class="cls-5" d="M172.67,84.28a4.46,4.46,0,0,1,.76,3.34,4.51,4.51,0,0,1-1.55,3.17,4,4,0,0,1-3,.72,5.29,5.29,0,0,1-1.82-.59,3.63,3.63,0,0,1-.88-.76c0,.12,0,.3,0,.5l-.1.94a13.53,13.53,0,0,0-.1,2l-2.83-.36a19.4,19.4,0,0,0,.32-2l.72-6.71a17.4,17.4,0,0,0,.12-2.17l2.71.35,0,.47,0,.25a4.07,4.07,0,0,1,2.93-.61A4.13,4.13,0,0,1,172.67,84.28ZM169.93,89a2.41,2.41,0,0,0,.8-1.71,2,2,0,0,0-1.81-2.47,2.13,2.13,0,0,0-2.32,2,2.24,2.24,0,0,0,1.93,2.55,1.87,1.87,0,0,0,1.4-.35"/><path class="cls-5" d="M179.74,90.6a1.32,1.32,0,0,0,.48-.64l2.33,1a3.92,3.92,0,0,1-1.05,1.3,5.08,5.08,0,0,1-6.46-.83,4.75,4.75,0,0,1-.89-3.5,4.35,4.35,0,0,1,8.65-.21,9.8,9.8,0,0,1,0,1.83c0,.05,0,.13,0,.27l-6.2-.8a1.79,1.79,0,0,0,1.7,1.94A2,2,0,0,0,179.74,90.6Zm-1-4.62a1.63,1.63,0,0,0-1.94,1.12l3.54.45a1.67,1.67,0,0,0-1.6-1.57"/><path class="cls-5" d="M205.35,87.33a4.34,4.34,0,0,1,4.07,5,4.22,4.22,0,0,1-5,4,4.36,4.36,0,0,1-4.05-5.1A4.14,4.14,0,0,1,205.35,87.33Zm-.74,6.92c1.2.15,2-.65,2.14-2.17s-.44-2.53-1.62-2.69-2,.65-2.19,2.16.46,2.54,1.66,2.69"/><path class="cls-5" d="M195.88,86.14a4.33,4.33,0,0,1,2.84,1.26,2.91,2.91,0,0,1,.74,1.68l-2.7-.05c0-.57-.32-.86-1.07-1s-1.18.09-1.21.44.23.55,1.57,1a8.89,8.89,0,0,1,2.19,1,2.21,2.21,0,0,1,1.1,2.27,2.49,2.49,0,0,1-.89,1.74,4.57,4.57,0,0,1-3.37.58c-1.74-.22-2.92-.85-3.48-1.83a3.36,3.36,0,0,1-.41-1.45l2.77.05c.06.73.49,1.1,1.41,1.22s1.33-.06,1.37-.49a.57.57,0,0,0-.26-.53,3.43,3.43,0,0,0-1.09-.46,16.49,16.49,0,0,1-2-.76,2.72,2.72,0,0,1-1.27-1.16,2.61,2.61,0,0,1-.21-1.34C192.08,86.68,193.58,85.85,195.88,86.14Z"/><path class="cls-5" d="M189.94,85.51a5.5,5.5,0,0,1,1.35.34l-.92,2.39a4.57,4.57,0,0,0-1.38-.45,2,2,0,0,0-1.72.54,1.91,1.91,0,0,0-.55,1.16l-.23,2.14a15.59,15.59,0,0,0-.11,2.07l-2.85-.37a14.36,14.36,0,0,0,.34-2.06l.45-4.23a12.73,12.73,0,0,0,.11-2.09l2.75.35-.12,1.09A3.08,3.08,0,0,1,189.94,85.51Z"/><path class="cls-5" d="M216.56,88.89a3.12,3.12,0,0,1,2.14,1.05,3,3,0,0,1,.54,2.4l-.37,3.45a17.22,17.22,0,0,0-.11,2.07l-2.86-.37a16.07,16.07,0,0,0,.33-2.06l.3-2.82a1.58,1.58,0,0,0-.11-1,1.11,1.11,0,0,0-.87-.51,2.46,2.46,0,0,0-2.21,1.18L213,95a17.34,17.34,0,0,0-.11,2.09l-2.85-.37a15.81,15.81,0,0,0,.33-2.06l.45-4.23a14.12,14.12,0,0,0,.11-2.09l2.74.35-.06.57c0,.09,0,.29-.05.39A3.74,3.74,0,0,1,216.56,88.89Z"/><polygon class="cls-5" points="223.25 95.63 222.95 98.4 220.16 98.04 220.46 95.27 223.25 95.63"/></g></g></svg>