<svg xmlns="http://www.w3.org/2000/svg" viewBox="0 0 315.21 121.41"><defs><style>.cls-1{isolation:isolate;}.cls-2{fill:#d9d117;}.cls-3{fill:#8e8b0a;}.cls-4{fill:#b6b114;}.cls-5{fill:#fff;}</style></defs><title>think</title><g id="Layer_2" data-name="Layer 2"><g id="Layer_1-2" data-name="Layer 1"><g class="cls-1"><polygon class="cls-2" points="315.21 4.07 315.07 78.18 7.48 121.41 7.62 47.3 315.21 4.07"/><polygon class="cls-3" points="7.48 121.41 0 117.34 0.14 43.23 7.62 47.3 7.48 121.41"/><polygon class="cls-4" points="7.62 47.3 0.14 43.23 307.73 0 315.21 4.07 7.62 47.3"/></g><path class="cls-5" d="M37.69,69.26v5.51a31.48,31.48,0,0,0-4.17.38l-3,.42,0,14.53a34.86,34.86,0,0,0,.2,4.33l-5.9.83A35.46,35.46,0,0,0,25,90.86l0-14.53-3.15.44a35.21,35.21,0,0,0-4,.77V72a34.89,34.89,0,0,0,4-.36L33.53,70A33.87,33.87,0,0,0,37.69,69.26Z"/><path class="cls-5" d="M45,68.42a32.16,32.16,0,0,0-.22,4.39v3.05c0,.23,0,.7,0,1a8.36,8.36,0,0,1,5.56-3.18,4.94,4.94,0,0,1,4.24,1c1.07,1,1.52,2.35,1.51,4.63v7.24a38.24,38.24,0,0,0,.21,4.29l-5.55.78A36.21,36.21,0,0,0,51,87.21V81.31a3.31,3.31,0,0,0-.42-2.1,1.74,1.74,0,0,0-1.7-.54c-1.52.21-3,1.51-4,3.57v5.84A37.26,37.26,0,0,0,45,92.41l-5.53.78a35.6,35.6,0,0,0,.22-4.39l0-15.27a30,30,0,0,0-.21-4.33Z"/><path class="cls-5" d="M64.46,76.45l0,8.87c0,1.56.07,3.1.2,4.33l-5.58.78A35.69,35.69,0,0,0,59.28,86l0-8.87a32.8,32.8,0,0,0-.2-4.33l5.58-.78A31.82,31.82,0,0,0,64.46,76.45Z"/><polygon class="cls-5" points="64.61 65.67 64.6 70 59.18 70.76 59.19 66.43 64.61 65.67"/><path class="cls-5" d="M78.29,69.71a5,5,0,0,1,4.3,1c1.06,1,1.52,2.35,1.51,4.63v7.24a40.51,40.51,0,0,0,.2,4.29l-5.55.78A36.16,36.16,0,0,0,79,83.28V77.37a3.22,3.22,0,0,0-.42-2.08,1.77,1.77,0,0,0-1.77-.56c-1.49.21-2.83,1.41-4,3.58v5.82A37.26,37.26,0,0,0,73,88.47l-5.53.78a35.72,35.72,0,0,0,.22-4.39l0-8.87a30.52,30.52,0,0,0-.2-4.33l5.31-.75v1.21c0,.17,0,.61,0,.82A8.35,8.35,0,0,1,78.29,69.71Z"/><path class="cls-5" d="M92.54,61.75a32.4,32.4,0,0,0-.22,4.39l0,8.09,2.95-3.55a21.15,21.15,0,0,0,2.33-3.24l7.11-1c-1.05,1.13-1.37,1.49-2.82,3.22L98,74.24l4.45,6.4A37,37,0,0,0,104.91,84l-6.81,1a18.84,18.84,0,0,0-1.76-3.62l-2-3.28-2,2.36v1.15a22.53,22.53,0,0,0,.21,4.18l-5.45.77a33.79,33.79,0,0,0,.22-4.39l0-15.27a33.66,33.66,0,0,0-.21-4.33Z"/><path class="cls-5" d="M131.92,56v5.47a34.82,34.82,0,0,0-4.45.43l-6.14.86v4.73l5-.71a32.81,32.81,0,0,0,4.27-.81v5.33a32.28,32.28,0,0,0-4.27.4l-5,.71v4.24a31,31,0,0,0,.21,5l-5.74.81a31.85,31.85,0,0,0,.25-5l0-14.93a29.33,29.33,0,0,0-.21-4.18c1.1-.09,1.85-.17,3.9-.46l7.71-1.08A30.84,30.84,0,0,0,131.92,56Z"/><path class="cls-5" d="M142,60.53c5.39-.76,8.8,2.42,8.79,8.12s-3.54,10-8.86,10.78-8.77-2.45-8.76-8.24S136.63,61.29,142,60.53Zm0,14.52c2.32-.33,3.66-2.39,3.66-5.59s-1.35-4.94-3.62-4.62-3.74,2.43-3.75,5.59,1.38,4.94,3.71,4.61"/><path class="cls-5" d="M163.66,57.8a10,10,0,0,1,2.64,0L165,63.14a7.81,7.81,0,0,0-2.72-.16,4.42,4.42,0,0,0-3.18,2,5,5,0,0,0-.81,2.68v4.5a33.21,33.21,0,0,0,.21,4.29l-5.53.78a35.6,35.6,0,0,0,.22-4.39l0-8.87a30,30,0,0,0-.21-4.33l5.31-.75v2.28A7,7,0,0,1,163.66,57.8Z"/><path class="cls-5" d="M204.81,51.71c5.39-.76,8.8,2.42,8.79,8.13s-3.54,10-8.85,10.78S196,68.16,196,62.37,199.41,52.47,204.81,51.71Zm0,14.52c2.32-.33,3.66-2.39,3.66-5.59s-1.35-4.94-3.62-4.62-3.74,2.43-3.75,5.59,1.38,4.94,3.71,4.61"/><path class="cls-5" d="M197.5,47c-.78,1.32-1.79,3.1-2.15,3.79l-6.13,11.75v5.33a37.34,37.34,0,0,0,.21,4.24l-5.82.82a41.4,41.4,0,0,0,.22-4.3V63.3l-6.12-10c-.48-.83-1.06-1.7-2.12-3.19l6.75-.95A12.18,12.18,0,0,0,183.59,52l2.95,5.44,3-6.24a15.73,15.73,0,0,0,1.24-3.23Z"/><path class="cls-5" d="M232.57,48.46a35.33,35.33,0,0,0-.22,4.35l0,8.91a29.62,29.62,0,0,0,.21,4.29l-5.31.75V65.52c0-.15,0-.58,0-.78A8.28,8.28,0,0,1,221.7,68a5,5,0,0,1-4.24-1c-1.07-1-1.52-2.35-1.51-4.63V55.12a38.23,38.23,0,0,0-.21-4.29l5.56-.78a35.93,35.93,0,0,0-.22,4.35v5.91a3.22,3.22,0,0,0,.42,2.1,1.77,1.77,0,0,0,1.74.56c1.47-.21,3-1.54,4-3.53V53.53a37,37,0,0,0-.21-4.29Z"/><path class="cls-5" d="M246,46.23a9.91,9.91,0,0,1,2.64,0l-1.29,5.37a7.78,7.78,0,0,0-2.72-.16,4.42,4.42,0,0,0-3.18,2,5,5,0,0,0-.81,2.68v4.5a33.25,33.25,0,0,0,.21,4.29l-5.53.78a35.6,35.6,0,0,0,.22-4.39l0-8.87a30,30,0,0,0-.21-4.33l5.31-.75V49.6A7,7,0,0,1,246,46.23Z"/><path class="cls-5" d="M257.51,44.35c2.54-.36,4.44,0,5.68,1.05a5.08,5.08,0,0,1,1.73,3l-5.15,1.33c-.13-1.17-.8-1.59-2.24-1.39s-2.24.81-2.25,1.55.56,1,3.2,1.25a13.92,13.92,0,0,1,4.37.77,3.86,3.86,0,0,1,2.56,4A6.25,6.25,0,0,1,264,60c-1.28,1.56-3.47,2.6-6.33,3-3.36.47-5.73-.18-7-1.9a6,6,0,0,1-1.06-2.73L254.92,57c.27,1.46,1.17,2,3,1.74,1.59-.22,2.51-.85,2.51-1.74a1,1,0,0,0-.59-1,5.87,5.87,0,0,0-2.19-.36,26.91,26.91,0,0,1-3.95-.48A4.29,4.29,0,0,1,251,53.57a5.27,5.27,0,0,1-.66-2.64C250.35,47.47,253.06,45,257.51,44.35Z"/><path class="cls-5" d="M278.26,55a3.48,3.48,0,0,0,.8-1.58l4.64.76a10.25,10.25,0,0,1-1.77,3.21,9.7,9.7,0,0,1-6.31,3.34c-2.62.37-4.67-.16-6.19-1.59A9,9,0,0,1,267,52.41c0-5.71,3.41-10,8.51-10.68,4.17-.59,7.08,1.46,8,5.62a21.35,21.35,0,0,1,.39,3.72,4.74,4.74,0,0,0,0,.57l-12,1.69c.26,2.3,1.52,3.36,3.62,3.06A4.38,4.38,0,0,0,278.26,55ZM275.53,46a3.9,3.9,0,0,0-3.5,3.32l6.86-1A2.7,2.7,0,0,0,275.53,46"/><path class="cls-5" d="M291.7,33.76a32.4,32.4,0,0,0-.22,4.39l0,15.27a36.57,36.57,0,0,0,.21,4.33l-5.58.78a32.16,32.16,0,0,0,.22-4.39l0-15.27a29.21,29.21,0,0,0-.21-4.33Z"/><path class="cls-5" d="M303.37,31.6a12.64,12.64,0,0,1,4.05,0L306.59,36a4.54,4.54,0,0,0-2.64-.35c-1.31.18-1.82.83-1.82,2.33v.72l.78-.11c1.12-.16,2.56-.45,3.55-.7v4.84A24.32,24.32,0,0,0,303,43l-.83.12,0,8.78a32.71,32.71,0,0,0,.21,4.33l-5.55.78a35.41,35.41,0,0,0,.22-4.39l0-8.78-.72.1a18.58,18.58,0,0,0-3,.62V39.73a23,23,0,0,0,3-.22l.72-.1V38.06C297,34.26,299,32.21,303.37,31.6Z"/></g></g></svg>