<svg xmlns="http://www.w3.org/2000/svg" viewBox="0 0 248.79 173.44"><defs><style>.cls-1{isolation:isolate;}.cls-2{fill:#d9d117;}.cls-3{fill:#8e8b0a;}.cls-4{fill:#b6b114;}.cls-5{fill:#fff;}</style></defs><title>US shipping</title><g id="Layer_2" data-name="Layer 2"><g id="Layer_1-2" data-name="Layer 1"><g class="cls-1"><polygon class="cls-2" points="248.79 4.85 248.54 139.77 8.91 173.44 9.16 38.53 248.79 4.85"/><polygon class="cls-3" points="8.91 173.44 0 168.6 0.25 33.68 9.16 38.53 8.91 173.44"/><polygon class="cls-4" points="9.16 38.53 0.25 33.68 239.88 0 248.79 4.85 9.16 38.53"/></g><path class="cls-5" d="M44.23,49.74A26.06,26.06,0,0,0,44,53.4l0,8.26c0,5.47-3.07,9-8.43,9.76-2.76.39-5-.14-6.33-1.47s-2-3.29-2-6l0-8.21a24.49,24.49,0,0,0-.17-3.61L32,51.47a24.35,24.35,0,0,0-.18,3.66l0,8.26c0,3,1.26,4.29,3.86,3.93s3.94-2,3.94-5l0-8.26a24.71,24.71,0,0,0-.17-3.61Z"/><path class="cls-5" d="M63.6,47a29.91,29.91,0,0,0-.18,3.68l0,12.74A32.79,32.79,0,0,0,63.57,67l-4.87.68A23.15,23.15,0,0,0,57,64.87l-4.11-6.12A24.45,24.45,0,0,1,51.33,56c.11,1.06.16,2.38.15,3.56V65a27.33,27.33,0,0,0,.17,3.72l-4.74.67a26.64,26.64,0,0,0,.19-3.8l0-12.63a27.72,27.72,0,0,0-.18-3.55l4.83-.68a13.91,13.91,0,0,0,1.57,2.79l4.22,6.22a30,30,0,0,1,1.6,2.64c-.09-1.09-.13-2.19-.13-3.53V51.32a27.21,27.21,0,0,0-.17-3.63Z"/><path class="cls-5" d="M71.29,45.94a24.25,24.25,0,0,0-.18,3.58l0,12.87a24.12,24.12,0,0,0,.17,3.53l-4.89.69A25,25,0,0,0,66.54,63l0-12.87a23.39,23.39,0,0,0-.17-3.53Z"/><path class="cls-5" d="M89.53,43.21v4.58a28.36,28.36,0,0,0-3.47.32l-2.52.35,0,12.1a28.16,28.16,0,0,0,.18,3.6l-4.92.69A30.33,30.33,0,0,0,79,61.22l0-12.1-2.63.37a30.5,30.5,0,0,0-3.36.64V45.53a28.86,28.86,0,0,0,3.32-.3l9.74-1.37A28.45,28.45,0,0,0,89.53,43.21Z"/><path class="cls-5" d="M104.93,41v4.49a25.49,25.49,0,0,0-3.32.3l-5.78.81v3.53l4.81-.68a26.93,26.93,0,0,0,3.33-.63V53.3a27.13,27.13,0,0,0-3.33.3l-4.81.68v4l5.74-.81a29,29,0,0,0,3.63-.68v4.5a26.26,26.26,0,0,0-3.67.34l-7,1c-1.69.24-2.32.35-3.27.53a25.23,25.23,0,0,0,.18-3.53l0-13.11a27.86,27.86,0,0,0-.17-3.49c.91-.08,1.53-.15,3.27-.39l7.1-1A26.62,26.62,0,0,0,104.93,41Z"/><path class="cls-5" d="M121.83,41.21c1.62,1.5,2.44,3.91,2.43,7.1a12.54,12.54,0,0,1-2.59,8.12,9.56,9.56,0,0,1-6.25,3.28l-4.69.66c-1.71.24-2.34.35-3.27.53a26.13,26.13,0,0,0,.18-3.53l0-13.09a22.16,22.16,0,0,0-.19-3.5c.89-.07,1.44-.13,3.29-.39l4.65-.65C118.15,39.35,120.35,39.87,121.83,41.21ZM118.3,53.84A7.67,7.67,0,0,0,119.71,49c0-2-.42-3.48-1.28-4.29A3.9,3.9,0,0,0,115,44l-2.91.41L112,56l3-.42a4.82,4.82,0,0,0,3.27-1.73"/><path class="cls-5" d="M141,35.66c2.83-.4,5,.23,6.18,1.86a6,6,0,0,1,1.11,2.73l-4.72,1.22c-.26-1.53-1.06-2.06-2.75-1.83a2.49,2.49,0,0,0-2.36,2.22,1.37,1.37,0,0,0,1,1.39c.45.15.45.15,3.07.36a9.06,9.06,0,0,1,3.6.86c1.6.86,2.4,2.35,2.39,4.56A7.13,7.13,0,0,1,147,53.69a9,9,0,0,1-5.86,2.86,9.25,9.25,0,0,1-5-.48,4.61,4.61,0,0,1-2.4-2.74,8.72,8.72,0,0,1-.48-2.16L138,50a2.93,2.93,0,0,0,.57,1.7,2.76,2.76,0,0,0,2.6.76c1.71-.24,2.73-1.2,2.74-2.54A1.55,1.55,0,0,0,143,48.4a15.61,15.61,0,0,0-3.34-.52A7.27,7.27,0,0,1,136,47a4.75,4.75,0,0,1-2.15-4.31C133.9,39,136.66,36.28,141,35.66Z"/><path class="cls-5" d="M199.4,27.77v4.58a28.36,28.36,0,0,0-3.47.32l-2.52.35,0,12.1a29.89,29.89,0,0,0,.17,3.6l-4.91.69a30.33,30.33,0,0,0,.18-3.65l0-12.1-2.63.37a30.5,30.5,0,0,0-3.36.64V30.09a28.69,28.69,0,0,0,3.31-.3l9.75-1.37A28.62,28.62,0,0,0,199.4,27.77Z"/><path class="cls-5" d="M183.06,47.28c.42,1.21.77,2.15,1.06,2.78l-5.21.73a20,20,0,0,0-.52-2.52l-.6-2-6.34.89-.6,2.12a16.19,16.19,0,0,0-.56,2.67l-5.21.73a26.7,26.7,0,0,0,1.07-3.08L171,34.52a17.26,17.26,0,0,0,.72-2.69l5.81-.82a17.83,17.83,0,0,0,.75,2.49ZM172.52,43l4.19-.59-2.1-6.9L172.52,43"/><path class="cls-5" d="M166.41,32.41V37a28.51,28.51,0,0,0-3.48.32l-2.52.35,0,12.1a28.16,28.16,0,0,0,.18,3.6l-4.92.69a28.76,28.76,0,0,0,.18-3.65l0-12.1-2.62.37a30.64,30.64,0,0,0-3.36.64V34.73a29,29,0,0,0,3.32-.3l9.74-1.37A28.67,28.67,0,0,0,166.41,32.41Z"/><path class="cls-5" d="M214.8,25.61v4.49a25.28,25.28,0,0,0-3.31.3l-5.78.81v3.53l4.8-.67a27.07,27.07,0,0,0,3.34-.63v4.44a27.19,27.19,0,0,0-3.34.31l-4.8.67v4l5.74-.81a29.11,29.11,0,0,0,3.63-.68v4.5a26.42,26.42,0,0,0-3.67.34l-7,1c-1.69.24-2.31.35-3.27.53a25.23,25.23,0,0,0,.18-3.53l0-13.11a27.86,27.86,0,0,0-.17-3.49c.9-.08,1.53-.15,3.27-.39l7.1-1A26.48,26.48,0,0,0,214.8,25.61Z"/><path class="cls-5" d="M224.46,23.94c2.83-.4,5,.23,6.18,1.86a6,6,0,0,1,1.11,2.73L227,29.75c-.26-1.53-1.06-2.06-2.75-1.83a2.49,2.49,0,0,0-2.36,2.22,1.37,1.37,0,0,0,1,1.39c.45.15.45.15,3.07.36a9.06,9.06,0,0,1,3.6.86c1.6.86,2.4,2.35,2.39,4.56A7.17,7.17,0,0,1,230.46,42a9,9,0,0,1-5.86,2.86,9.25,9.25,0,0,1-5-.48,4.58,4.58,0,0,1-2.4-2.74,8.34,8.34,0,0,1-.48-2.16l4.63-1.13A2.93,2.93,0,0,0,222,40a2.76,2.76,0,0,0,2.6.76c1.71-.24,2.73-1.2,2.74-2.54a1.55,1.55,0,0,0-.93-1.56,15.61,15.61,0,0,0-3.34-.52,7.27,7.27,0,0,1-3.58-.89A4.75,4.75,0,0,1,217.31,31C217.32,27.27,220.08,24.55,224.46,23.94Z"/><path class="cls-5" d="M83.69,82.57a3.56,3.56,0,0,1,1.71,3.32c0,2.94-2,5.08-5.22,5.64v1.41L79,93.1V91.66a5.58,5.58,0,0,1-3.39-.58,3.33,3.33,0,0,1-1.49-1.86,7.37,7.37,0,0,1-.25-1.3l3.49-1.16a2.15,2.15,0,0,0,.5,1.44,1.49,1.49,0,0,0,1.15.41V85.16a9,9,0,0,1-2.79-.54,3.48,3.48,0,0,1-2.11-3.45,5.12,5.12,0,0,1,2.63-4.41,6.74,6.74,0,0,1,2.28-.81v-1l1.15-.16v1a5.45,5.45,0,0,1,2.72.39A3.66,3.66,0,0,1,85,79.12l-3.47,1.13c-.11-1-.55-1.42-1.37-1.43v3A7.25,7.25,0,0,1,83.69,82.57Zm-3.51,5.9a1.85,1.85,0,0,0,1.7-1.92,1.13,1.13,0,0,0-.65-1.15,3.29,3.29,0,0,0-1-.22v3.29M79,81.77V79a1.64,1.64,0,0,0-1.48,1.62,1,1,0,0,0,.59,1,2.59,2.59,0,0,0,.88.2"/><path class="cls-5" d="M97.72,73.41v3.2a24.56,24.56,0,0,0-2.76.26L91,77.42l-.17,2.21c0,.1,0,.28-.06.6A4.81,4.81,0,0,1,93.55,79a4.17,4.17,0,0,1,3.63,1,4.5,4.5,0,0,1,1.26,3.47c0,3.5-2.14,5.88-5.72,6.39-2.13.3-3.8-.25-4.79-1.57a5.27,5.27,0,0,1-.84-1.92l3.4-1a1.74,1.74,0,0,0,2.22,1.46A2.68,2.68,0,0,0,95.08,84a1.89,1.89,0,0,0-2.33-2.08,2.49,2.49,0,0,0-2.13,1.65l-3.15.11c.07-.56.12-1,.18-1.52l.46-5.76c0-.39.06-.83.07-1.52.71-.07.88-.09,1.69-.2l5.05-.71A19.59,19.59,0,0,0,97.72,73.41Z"/><path class="cls-5" d="M117.94,73.46l0,9.67a22.45,22.45,0,0,0,.13,2.73l-3.53.5a19.8,19.8,0,0,0,.14-2.77l0-9.67a18.11,18.11,0,0,0-.13-2.74l3.53-.5A20.06,20.06,0,0,0,117.94,73.46Z"/><path class="cls-5" d="M107.42,75.38c0-2.41,1.28-3.71,4-4.09a8.23,8.23,0,0,1,2.57,0l-.53,2.76a2.84,2.84,0,0,0-1.67-.22c-.83.12-1.15.52-1.15,1.48v.46l.49-.07c.71-.1,1.62-.29,2.25-.45v3.07a15.17,15.17,0,0,0-2.22.18l-.52.07v5.57a21.73,21.73,0,0,0,.12,2.73l-3.52.49a21.68,21.68,0,0,0,.14-2.77V79l-.46.06a11.52,11.52,0,0,0-1.89.4V76.43A14.82,14.82,0,0,0,107,76.3l.46-.06Z"/><path class="cls-5" d="M129.89,84.2l-3.28.46v-.84a5.4,5.4,0,0,1-3.29,1.56,3.54,3.54,0,0,1-2.92-.59,3,3,0,0,1-.92-2.35,3.65,3.65,0,0,1,1.24-2.84,7.74,7.74,0,0,1,3.52-1.69c.66-.16,1.16-.25,2.39-.46V77c0-.87-.49-1.21-1.61-1.05a2,2,0,0,0-1.92,1.55l-3.23-.11A4.7,4.7,0,0,1,121.31,75a7,7,0,0,1,3.81-1.57,6.39,6.39,0,0,1,3.12.2c1.08.49,1.55,1.42,1.55,3.07v4.93A21.45,21.45,0,0,0,129.89,84.2ZM126,81.79a2.18,2.18,0,0,0,.62-1.49v-.51a10.3,10.3,0,0,0-2.93.78,1.58,1.58,0,0,0-1,1.34c0,.66.5,1,1.38.85a3.43,3.43,0,0,0,1.91-1"/><path class="cls-5" d="M136.36,69.28a24.71,24.71,0,0,0-.14,2.52v.39l.61-.09a10.64,10.64,0,0,0,1.66-.33v3a9.48,9.48,0,0,0-1.55.11l-.71.1v4.67c0,.51.09.76.3.89a1.29,1.29,0,0,0,.78.09,2.45,2.45,0,0,0,1.18-.49l.25,2.74a7.31,7.31,0,0,1-2.33.69,3.55,3.55,0,0,1-2.49-.29c-.64-.44-.87-1-.87-2.26V75.46l-.65.09a9.44,9.44,0,0,0-1.47.32V72.81a8.88,8.88,0,0,0,1.51-.1l.61-.09v-.39a20.67,20.67,0,0,0-.13-2.48Z"/><path class="cls-5" d="M152.18,69.72a6.25,6.25,0,0,1,1.67,0L153,73.1a4.75,4.75,0,0,0-1.72-.1,2.81,2.81,0,0,0-2,1.27,3.15,3.15,0,0,0-.51,1.69v2.85a20.43,20.43,0,0,0,.13,2.71l-3.5.49a21.85,21.85,0,0,0,.14-2.77V73.62a18.48,18.48,0,0,0-.13-2.73l3.36-.47v1.44A4.4,4.4,0,0,1,152.18,69.72Z"/><path class="cls-5" d="M164.91,79.28l-3.28.46V78.9a5.37,5.37,0,0,1-3.28,1.56,3.53,3.53,0,0,1-2.92-.59,3,3,0,0,1-.92-2.35,3.63,3.63,0,0,1,1.24-2.84A7.74,7.74,0,0,1,159.26,73c.66-.16,1.16-.25,2.38-.46v-.42c0-.87-.49-1.21-1.6-1.05a2,2,0,0,0-1.92,1.55l-3.23-.11a4.7,4.7,0,0,1,1.43-2.41,7,7,0,0,1,3.8-1.57,6.4,6.4,0,0,1,3.13.2c1.08.49,1.55,1.42,1.55,3.07v4.93A21.5,21.5,0,0,0,164.91,79.28ZM161,76.87a2.17,2.17,0,0,0,.61-1.49v-.51a10.27,10.27,0,0,0-2.92.77,1.58,1.58,0,0,0-1,1.34c0,.66.5,1,1.38.85a3.45,3.45,0,0,0,1.91-1"/><path class="cls-5" d="M171.38,64.36a24.65,24.65,0,0,0-.14,2.52v.39l.61-.09a10.64,10.64,0,0,0,1.66-.33v3a9.48,9.48,0,0,0-1.55.11l-.71.1v4.67c0,.51.09.76.3.89a1.28,1.28,0,0,0,.78.09,2.46,2.46,0,0,0,1.19-.5l.25,2.74a7.31,7.31,0,0,1-2.33.69,3.55,3.55,0,0,1-2.49-.29c-.64-.44-.87-1-.87-2.26V70.54l-.65.09a9.43,9.43,0,0,0-1.47.32V67.89a8.88,8.88,0,0,0,1.51-.1l.61-.09v-.39a20.63,20.63,0,0,0-.13-2.48Z"/><path class="cls-5" d="M181.49,74a2.16,2.16,0,0,0,.51-1l2.94.48a6.37,6.37,0,0,1-1.12,2,6.14,6.14,0,0,1-4,2.11,4.51,4.51,0,0,1-3.92-1,5.73,5.73,0,0,1-1.53-4.24c0-3.61,2.16-6.31,5.39-6.76a4.19,4.19,0,0,1,5.07,3.56,14.28,14.28,0,0,1,.24,2.36c0,.07,0,.18,0,.36L177.49,73c.17,1.45,1,2.12,2.29,1.93A2.75,2.75,0,0,0,181.49,74Zm-1.74-5.64a2.46,2.46,0,0,0-2.21,2.09l4.34-.61a1.7,1.7,0,0,0-2.13-1.48"/><path class="cls-5" d="M32.39,122.38c.32.92.59,1.63.81,2.11l-4,.56a15.15,15.15,0,0,0-.4-1.91l-.45-1.48-4.82.68-.46,1.61a13.16,13.16,0,0,0-.43,2l-4,.56a21.25,21.25,0,0,0,.82-2.34l3.67-11.5a12.49,12.49,0,0,0,.54-2l4.41-.62a14.49,14.49,0,0,0,.57,1.89Zm-8-3.24,3.18-.45L26,113.45l-1.59,5.69"/><path class="cls-5" d="M37.77,108.67a21.45,21.45,0,0,0-.14,2.78l0,9.67a24.26,24.26,0,0,0,.13,2.73l-3.53.5a19.88,19.88,0,0,0,.14-2.77l0-9.67a18.1,18.1,0,0,0-.13-2.74Z"/><path class="cls-5" d="M43.08,107.92a20.09,20.09,0,0,0-.14,2.78l0,9.67a22.49,22.49,0,0,0,.13,2.73l-3.53.5a19.88,19.88,0,0,0,.14-2.77l0-9.67a18.1,18.1,0,0,0-.13-2.74Z"/><path class="cls-5" d="M55.07,109.9a4.47,4.47,0,0,1,3.59.66,3.28,3.28,0,0,1,1.1,1.93l-3.27.84c-.08-.73-.5-1-1.42-.87s-1.42.51-1.42,1,.35.62,2,.79a8.77,8.77,0,0,1,2.77.48,2.45,2.45,0,0,1,1.62,2.56,4,4,0,0,1-.87,2.55,6.16,6.16,0,0,1-4,1.89c-2.13.3-3.64-.11-4.44-1.2a3.85,3.85,0,0,1-.68-1.73l3.35-.87c.17.92.74,1.26,1.88,1.1s1.59-.53,1.59-1.1a.63.63,0,0,0-.38-.6,3.56,3.56,0,0,0-1.39-.23,18.19,18.19,0,0,1-2.5-.31A2.68,2.68,0,0,1,51,115.73a3.31,3.31,0,0,1-.42-1.67C50.53,111.87,52.24,110.3,55.07,109.9Z"/><path class="cls-5" d="M66.2,105.84a22.56,22.56,0,0,0-.14,2.52v.39l.61-.09a11.75,11.75,0,0,0,1.66-.33v3a9.49,9.49,0,0,0-1.55.11l-.71.1v4.67c0,.51.09.76.3.89a1.26,1.26,0,0,0,.78.09,2.46,2.46,0,0,0,1.19-.5l.25,2.74a7.59,7.59,0,0,1-2.34.69,3.54,3.54,0,0,1-2.48-.29c-.64-.44-.88-1-.88-2.26V112l-.64.09a9.54,9.54,0,0,0-1.47.32v-3.05a10,10,0,0,0,1.51-.1l.61-.09v-.39a19.12,19.12,0,0,0-.13-2.48Z"/><path class="cls-5" d="M79.69,118l-3.28.46v-.84a5.37,5.37,0,0,1-3.28,1.56,3.56,3.56,0,0,1-2.93-.59,3,3,0,0,1-.92-2.35,3.69,3.69,0,0,1,1.24-2.84A7.76,7.76,0,0,1,74,111.67c.67-.16,1.17-.25,2.39-.47v-.42c0-.87-.49-1.21-1.6-1.05a2,2,0,0,0-1.92,1.55l-3.23-.11a4.74,4.74,0,0,1,1.42-2.41,7,7,0,0,1,3.81-1.57,6.45,6.45,0,0,1,3.13.2c1.08.49,1.55,1.42,1.55,3.07v4.93A21.5,21.5,0,0,0,79.69,118Zm-3.89-2.41a2.17,2.17,0,0,0,.61-1.49v-.51a9.91,9.91,0,0,0-2.92.77,1.59,1.59,0,0,0-1,1.34c0,.66.51,1,1.39.84a3.44,3.44,0,0,0,1.91-1"/><path class="cls-5" d="M86.15,103a22.56,22.56,0,0,0-.14,2.52v.39l.61-.09a11.83,11.83,0,0,0,1.66-.33v3a9.49,9.49,0,0,0-1.55.11l-.71.1v4.67c0,.51.09.76.3.89a1.26,1.26,0,0,0,.78.09,2.46,2.46,0,0,0,1.19-.5l.25,2.74a7.59,7.59,0,0,1-2.34.69,3.54,3.54,0,0,1-2.48-.29c-.64-.44-.88-1-.88-2.26v-5.59l-.64.09a9.54,9.54,0,0,0-1.47.32v-3.05a10,10,0,0,0,1.51-.1l.61-.09V106a19.08,19.08,0,0,0-.13-2.48Z"/><path class="cls-5" d="M96.26,112.67a2.14,2.14,0,0,0,.51-1l2.94.48a6.46,6.46,0,0,1-1.12,2,6.14,6.14,0,0,1-4,2.12,4.48,4.48,0,0,1-3.92-1,5.68,5.68,0,0,1-1.53-4.24c0-3.61,2.16-6.3,5.39-6.76a4.19,4.19,0,0,1,5.06,3.56,13.17,13.17,0,0,1,.25,2.35c0,.08,0,.19,0,.37l-7.61,1.07c.17,1.45,1,2.12,2.29,1.93A2.72,2.72,0,0,0,96.26,112.67ZM94.53,107a2.48,2.48,0,0,0-2.22,2.1l4.35-.61A1.71,1.71,0,0,0,94.53,107"/><path class="cls-5" d="M105.82,102.77a4.48,4.48,0,0,1,3.6.66,3.32,3.32,0,0,1,1.09,1.93l-3.26.84c-.09-.73-.51-1-1.42-.87s-1.42.51-1.42,1,.35.62,2,.79a8.68,8.68,0,0,1,2.77.48,2.44,2.44,0,0,1,1.62,2.56,4,4,0,0,1-.87,2.55,6.16,6.16,0,0,1-4,1.89c-2.13.3-3.64-.11-4.44-1.2a3.86,3.86,0,0,1-.67-1.73l3.34-.87c.17.92.74,1.26,1.88,1.1s1.59-.53,1.59-1.1a.63.63,0,0,0-.37-.61,3.69,3.69,0,0,0-1.39-.23,18,18,0,0,1-2.51-.3,2.67,2.67,0,0,1-1.69-1.06,3.31,3.31,0,0,1-.42-1.67C101.28,104.74,103,103.16,105.82,102.77Z"/><path class="cls-5" d="M130.62,108.84c.41.4,1.15,1.07,1.87,1.69l-4.77.67a5.93,5.93,0,0,0-.71-1,7.7,7.7,0,0,1-1.57,1.11,8.89,8.89,0,0,1-2.91.94,4.58,4.58,0,0,1-3.79-.83,4,4,0,0,1-1.06-2.82,5.14,5.14,0,0,1,1.14-3.19,7.4,7.4,0,0,1,2-1.77l-.39-.42a3.54,3.54,0,0,1-1.12-2.67c0-2.3,1.78-4,4.62-4.39s4.52.78,4.51,3c0,1.77-.92,3.1-3.12,4.53l2.06,2a10,10,0,0,0,1.76-3.55l2.57,1.28a15.91,15.91,0,0,1-2.34,4.18Zm-7.79.52a4.27,4.27,0,0,0,2.25-1.2l-2.5-2.56a6.68,6.68,0,0,0-1,.9,2.09,2.09,0,0,0-.56,1.42c0,1,.74,1.59,1.84,1.44m1.12-10.43a1.46,1.46,0,0,0-1.4,1.42,1.87,1.87,0,0,0,.59,1.25l.34.32.47-.3c1-.67,1.37-1.16,1.37-1.75s-.53-1.06-1.37-.94"/><path class="cls-5" d="M143.9,94.92a24.71,24.71,0,0,0-.14,2.52v.39l.61-.09a11.75,11.75,0,0,0,1.66-.33v3a9.49,9.49,0,0,0-1.55.11l-.71.1v4.67c0,.51.09.76.3.89a1.29,1.29,0,0,0,.78.09,2.43,2.43,0,0,0,1.18-.49l.25,2.74a7.54,7.54,0,0,1-2.33.69,3.55,3.55,0,0,1-2.49-.29c-.64-.44-.87-1-.87-2.26V101.1l-.65.09a9.44,9.44,0,0,0-1.47.32V98.45a9.88,9.88,0,0,0,1.51-.1l.61-.09v-.39a20.67,20.67,0,0,0-.13-2.48Z"/><path class="cls-5" d="M154,104.55a2.13,2.13,0,0,0,.51-1l2.94.48a6.32,6.32,0,0,1-1.12,2,6.11,6.11,0,0,1-4,2.12,4.49,4.49,0,0,1-3.92-1,5.71,5.71,0,0,1-1.53-4.24c0-3.61,2.16-6.3,5.39-6.76a4.19,4.19,0,0,1,5.07,3.56,13.36,13.36,0,0,1,.24,2.35c0,.08,0,.19,0,.37l-7.6,1.07c.17,1.45,1,2.12,2.29,1.93A2.75,2.75,0,0,0,154,104.55Zm-1.74-5.65a2.48,2.48,0,0,0-2.21,2.1l4.34-.61a1.7,1.7,0,0,0-2.13-1.49"/><path class="cls-5" d="M165.73,94.51a6,6,0,0,1,1.67,0l-.82,3.4a4.72,4.72,0,0,0-1.72-.1,2.78,2.78,0,0,0-2,1.26,3.12,3.12,0,0,0-.51,1.7v2.85a22.15,22.15,0,0,0,.12,2.71l-3.49.49a23.53,23.53,0,0,0,.13-2.77V98.42a19.85,19.85,0,0,0-.12-2.73l3.36-.47v1.44A4.4,4.4,0,0,1,165.73,94.51Z"/><path class="cls-5" d="M175.17,93.19a6,6,0,0,1,1.67,0l-.82,3.4a4.72,4.72,0,0,0-1.72-.1,2.78,2.78,0,0,0-2,1.26,3.12,3.12,0,0,0-.51,1.7v2.85a22.1,22.1,0,0,0,.12,2.71l-3.5.49a21.85,21.85,0,0,0,.14-2.77V97.09a18.41,18.41,0,0,0-.13-2.73l3.37-.47v1.44A4.4,4.4,0,0,1,175.17,93.19Z"/><path class="cls-5" d="M181.25,95.3v5.63a25.31,25.31,0,0,0,.13,2.73l-3.54.5a21.85,21.85,0,0,0,.14-2.77V95.76a20.1,20.1,0,0,0-.13-2.73l3.54-.5A19.49,19.49,0,0,0,181.25,95.3Z"/><polygon class="cls-5" points="181.34 88.49 181.34 91.23 177.91 91.71 177.92 88.97 181.34 88.49"/><path class="cls-5" d="M187.84,88.74a22.62,22.62,0,0,0-.14,2.52v.39l.61-.09a11.83,11.83,0,0,0,1.66-.33v3a9.55,9.55,0,0,0-1.55.11l-.71.1v4.67c0,.51.08.76.3.89a1.26,1.26,0,0,0,.78.09,2.46,2.46,0,0,0,1.19-.5l.25,2.74a7.63,7.63,0,0,1-2.34.69,3.53,3.53,0,0,1-2.48-.29c-.64-.44-.88-1-.88-2.26V94.92l-.64.09a9.47,9.47,0,0,0-1.47.32V92.28a9.87,9.87,0,0,0,1.51-.1l.61-.09v-.39a19.12,19.12,0,0,0-.13-2.48Z"/><path class="cls-5" d="M196.42,90c3.42-.48,5.58,1.53,5.57,5.15a6.52,6.52,0,0,1-5.61,6.83c-3.4.48-5.55-1.55-5.55-5.23S193,90.48,196.42,90Zm0,9.2c1.47-.21,2.32-1.51,2.32-3.54s-.85-3.12-2.29-2.92-2.37,1.53-2.37,3.54.88,3.13,2.34,2.92"/><path class="cls-5" d="M210.12,88.27a5.91,5.91,0,0,1,1.67,0l-.82,3.4a4.75,4.75,0,0,0-1.72-.1,2.8,2.8,0,0,0-2,1.26,3.12,3.12,0,0,0-.51,1.7v2.85a20.47,20.47,0,0,0,.13,2.71l-3.5.49a21.85,21.85,0,0,0,.14-2.77V92.18a18.42,18.42,0,0,0-.13-2.73l3.36-.47v1.44A4.4,4.4,0,0,1,210.12,88.27Z"/><path class="cls-5" d="M216.2,90.39V96a25.37,25.37,0,0,0,.13,2.73l-3.53.5a21.81,21.81,0,0,0,.14-2.77V90.85a20.06,20.06,0,0,0-.13-2.73l3.53-.5A19.5,19.5,0,0,0,216.2,90.39Z"/><polygon class="cls-5" points="216.3 83.58 216.3 86.32 212.86 86.8 212.87 84.06 216.3 83.58"/><path class="cls-5" d="M224.8,94.6a2.21,2.21,0,0,0,.51-1l2.94.48a6.32,6.32,0,0,1-1.12,2,6.11,6.11,0,0,1-4,2.12,4.48,4.48,0,0,1-3.92-1A5.71,5.71,0,0,1,217.69,93c0-3.61,2.16-6.3,5.39-6.76a4.18,4.18,0,0,1,5.06,3.56,13.17,13.17,0,0,1,.25,2.35c0,.08,0,.19,0,.37l-7.61,1.07c.17,1.45,1,2.12,2.29,1.93A2.76,2.76,0,0,0,224.8,94.6ZM223.07,89a2.47,2.47,0,0,0-2.21,2.1l4.34-.61A1.7,1.7,0,0,0,223.07,89"/><path class="cls-5" d="M234.35,84.7a4.48,4.48,0,0,1,3.6.66A3.27,3.27,0,0,1,239,87.29l-3.26.84c-.09-.73-.51-1-1.42-.87s-1.42.51-1.42,1,.36.62,2,.79a8.86,8.86,0,0,1,2.77.48,2.45,2.45,0,0,1,1.61,2.57,4,4,0,0,1-.86,2.55,6.2,6.2,0,0,1-4,1.9c-2.13.3-3.64-.11-4.44-1.2a3.86,3.86,0,0,1-.67-1.73l3.35-.87c.17.92.74,1.26,1.87,1.1s1.59-.53,1.59-1.1a.62.62,0,0,0-.37-.61,3.69,3.69,0,0,0-1.39-.23,17.84,17.84,0,0,1-2.5-.31,2.69,2.69,0,0,1-1.7-1.06,3.4,3.4,0,0,1-.41-1.67C229.82,86.67,231.53,85.1,234.35,84.7Z"/><path class="cls-5" d="M52.52,135.1c1.23,1.14,1.85,3,1.85,5.39a9.55,9.55,0,0,1-2,6.17,7.31,7.31,0,0,1-4.76,2.49l-3.56.5c-1.3.18-1.78.27-2.48.4a20,20,0,0,0,.14-2.68l0-9.94a17.13,17.13,0,0,0-.15-2.66c.67-.06,1.1-.1,2.5-.3l3.53-.5A5.82,5.82,0,0,1,52.52,135.1Zm-2.68,9.59A5.85,5.85,0,0,0,50.9,141a4.32,4.32,0,0,0-1-3.26,3,3,0,0,0-2.62-.57l-2.21.31,0,8.8,2.26-.32a3.67,3.67,0,0,0,2.49-1.32"/><path class="cls-5" d="M62.58,144.1a2.2,2.2,0,0,0,.51-1l2.94.48a6.32,6.32,0,0,1-1.12,2,6.11,6.11,0,0,1-4,2.12,4.48,4.48,0,0,1-3.92-1,5.68,5.68,0,0,1-1.53-4.24c0-3.61,2.16-6.3,5.39-6.76a4.19,4.19,0,0,1,5.06,3.56,13.17,13.17,0,0,1,.25,2.35,3.6,3.6,0,0,0,0,.36l-7.61,1.07c.17,1.45,1,2.13,2.29,1.94A2.76,2.76,0,0,0,62.58,144.1Zm-1.74-5.65a2.47,2.47,0,0,0-2.21,2.1l4.34-.61a1.7,1.7,0,0,0-2.13-1.49"/><path class="cls-5" d="M71.09,130.68a21.4,21.4,0,0,0-.14,2.78l0,9.67a24.26,24.26,0,0,0,.13,2.74l-3.53.5a19.94,19.94,0,0,0,.14-2.78l0-9.67a18.11,18.11,0,0,0-.13-2.74Z"/><path class="cls-5" d="M76.25,136.76v5.62c0,1,.05,2,.13,2.74l-3.53.5a22,22,0,0,0,.14-2.78v-5.62a20,20,0,0,0-.13-2.73l3.53-.5A19.38,19.38,0,0,0,76.25,136.76Z"/><polygon class="cls-5" points="76.35 129.94 76.34 132.69 72.91 133.17 72.91 130.43 76.35 129.94"/><path class="cls-5" d="M89.11,132.2c-.35.86-.48,1.23-.7,1.86l-2.86,8.23a9.21,9.21,0,0,0-.46,1.59l-3.7.52a7.32,7.32,0,0,0-.45-1.47l-2.83-7.43c-.1-.24-.33-.79-.7-1.66l3.75-.53a8.24,8.24,0,0,0,.32,1.52L83,140.3s0,.1.06.19.06.19.14.49c0-.17.07-.27.09-.34a1,1,0,0,0,0-.19c0-.1,0-.17.06-.23L85,134.34a9.66,9.66,0,0,0,.32-1.61Z"/><path class="cls-5" d="M96.77,139.3a2.14,2.14,0,0,0,.51-1l2.95.48a6.47,6.47,0,0,1-1.12,2,6.11,6.11,0,0,1-4,2.12,4.49,4.49,0,0,1-3.92-1,5.71,5.71,0,0,1-1.53-4.24c0-3.61,2.16-6.3,5.39-6.76a4.19,4.19,0,0,1,5.06,3.56,13.34,13.34,0,0,1,.24,2.35,2.41,2.41,0,0,0,0,.36l-7.61,1.07c.17,1.45,1,2.13,2.29,1.94A2.75,2.75,0,0,0,96.77,139.3ZM95,133.64a2.48,2.48,0,0,0-2.22,2.1l4.34-.61A1.7,1.7,0,0,0,95,133.64"/><path class="cls-5" d="M108.49,129.26a6,6,0,0,1,1.67,0l-.82,3.39a4.92,4.92,0,0,0-1.72-.1,2.8,2.8,0,0,0-2,1.27,3.12,3.12,0,0,0-.51,1.7v2.84a20.53,20.53,0,0,0,.13,2.72l-3.5.49a23.69,23.69,0,0,0,.13-2.78v-5.62a19.85,19.85,0,0,0-.12-2.73l3.36-.47v1.44A4.4,4.4,0,0,1,108.49,129.26Z"/><path class="cls-5" d="M122.19,127.56c-.43,1-.43,1-1,2.58l-3.89,10.2a4.4,4.4,0,0,1-3.83,3,9,9,0,0,1-2.32,0l.38-2.95a2.27,2.27,0,0,0,1.31.21,1.72,1.72,0,0,0,1.38-1l.35-.84-3.15-7.26c-.73-1.72-.79-1.88-1-2.3l3.68-.52a10.88,10.88,0,0,0,.65,2.26l1.55,4,1.51-4.35a13.2,13.2,0,0,0,.73-2.52Z"/><path class="cls-5" d="M132.21,128.9v5.62a25.36,25.36,0,0,0,.13,2.74l-3.54.5a22,22,0,0,0,.14-2.78v-5.62a20,20,0,0,0-.13-2.73l3.54-.5A19.38,19.38,0,0,0,132.21,128.9Z"/><polygon class="cls-5" points="132.3 122.08 132.3 124.82 128.87 125.3 128.88 122.56 132.3 122.08"/><path class="cls-5" d="M141,124.64a3.18,3.18,0,0,1,2.72.64,3.66,3.66,0,0,1,1,2.93v4.57a25.87,25.87,0,0,0,.13,2.72l-3.52.49a22.34,22.34,0,0,0,.14-2.78v-3.74a2,2,0,0,0-.27-1.32,1.11,1.11,0,0,0-1.11-.35c-.95.13-1.8.89-2.53,2.27v3.68a24.69,24.69,0,0,0,.13,2.74l-3.5.49a22,22,0,0,0,.14-2.78v-5.62a18.63,18.63,0,0,0-.13-2.73l3.36-.47v.76c0,.11,0,.38,0,.51A5.31,5.31,0,0,1,141,124.64Z"/><path class="cls-5" d="M152.19,119.16a21.22,21.22,0,0,0,2.74-.26l5.71-.8c1.56-.22,2-.3,2.72-.46v3a17.6,17.6,0,0,0-2.32,4,26.7,26.7,0,0,0-2.4,8.89l-3.9.55a30.56,30.56,0,0,1,2-7.38,34.76,34.76,0,0,1,2.78-5.28l-4.81.68a19.14,19.14,0,0,0-2.56.49Z"/><path class="cls-5" d="M182,118l0,9.46a23.82,23.82,0,0,0,.13,2.84l-3.32.47v-.58a4,4,0,0,1,0-.41,5.31,5.31,0,0,1-3.42,1.79c-3.08.43-4.93-1.53-4.92-5.22a7.29,7.29,0,0,1,1.46-4.66,5.36,5.36,0,0,1,3.44-1.91,4.31,4.31,0,0,1,3.47.87c0-.27,0-.44,0-.69v-1.52a22.24,22.24,0,0,0-.13-2.84l3.46-.49A23.48,23.48,0,0,0,182,118Zm-5.85,10.68a3.36,3.36,0,0,0,2.61-3.52c0-1.77-1.08-2.9-2.61-2.68s-2.41,1.53-2.41,3.44a3,3,0,0,0,.78,2.3,2,2,0,0,0,1.63.46"/><path class="cls-5" d="M193.93,128.6l-3.28.46v-.84a5.39,5.39,0,0,1-3.29,1.56,3.52,3.52,0,0,1-2.92-.6,3,3,0,0,1-.92-2.35,3.67,3.67,0,0,1,1.24-2.84,7.76,7.76,0,0,1,3.52-1.68c.66-.16,1.17-.25,2.39-.47v-.42c0-.88-.49-1.21-1.61-1.05a2,2,0,0,0-1.91,1.55l-3.23-.12a4.69,4.69,0,0,1,1.42-2.4,7,7,0,0,1,3.81-1.57,6.39,6.39,0,0,1,3.12.2c1.08.48,1.55,1.42,1.55,3.06V126A23.35,23.35,0,0,0,193.93,128.6Zm-3.88-2.41a2.21,2.21,0,0,0,.61-1.49v-.52a10.13,10.13,0,0,0-2.92.78,1.59,1.59,0,0,0-1,1.34c0,.66.51,1,1.38.84a3.44,3.44,0,0,0,1.92-1"/><path class="cls-5" d="M206.75,115.67c-.42,1-.42,1-1,2.58l-3.9,10.2a4.38,4.38,0,0,1-3.83,3,8.93,8.93,0,0,1-2.31,0l.38-2.95a2.26,2.26,0,0,0,1.31.21,1.71,1.71,0,0,0,1.37-1l.35-.84L196,119.62c-.73-1.72-.8-1.88-1-2.3l3.67-.52a12,12,0,0,0,.65,2.26l1.55,4,1.51-4.35a12.13,12.13,0,0,0,.73-2.52Z"/><path class="cls-5" d="M212.34,114.5a4.49,4.49,0,0,1,3.6.66,3.29,3.29,0,0,1,1.09,1.93l-3.27.84c-.08-.73-.5-1-1.42-.87s-1.42.51-1.42,1,.35.63,2,.8a8.77,8.77,0,0,1,2.77.48,2.44,2.44,0,0,1,1.62,2.56,4,4,0,0,1-.87,2.55,6.16,6.16,0,0,1-4,1.89c-2.13.3-3.64-.11-4.44-1.2a3.86,3.86,0,0,1-.67-1.73l3.34-.87c.17.92.74,1.26,1.88,1.1s1.59-.53,1.59-1.1a.63.63,0,0,0-.37-.6,3.69,3.69,0,0,0-1.39-.23,18,18,0,0,1-2.51-.3,2.71,2.71,0,0,1-1.69-1.06,3.31,3.31,0,0,1-.42-1.67C207.8,116.47,209.52,114.89,212.34,114.5Z"/></g></g></svg>