<svg xmlns="http://www.w3.org/2000/svg" viewBox="0 0 248.79 173.44"><defs><style>.cls-1{isolation:isolate;}.cls-2{fill:#00783b;}.cls-3{fill:#005727;}.cls-4{fill:#006932;}.cls-5{fill:#fff;}</style></defs><title>world shipping</title><g id="Layer_2" data-name="Layer 2"><g id="Layer_1-2" data-name="Layer 1"><g class="cls-1"><polygon class="cls-2" points="0 4.85 0.25 139.77 239.88 173.44 239.63 38.53 0 4.85"/><polygon class="cls-3" points="239.88 173.44 248.79 168.6 248.54 33.68 239.63 38.53 239.88 173.44"/><polygon class="cls-4" points="239.63 38.53 248.54 33.68 8.91 0 0 4.85 239.63 38.53"/></g><path class="cls-5" d="M21.8,25.67a24.29,24.29,0,0,0-.39,3.62l-.76,13.17a25.87,25.87,0,0,0,0,3.66l-4.94-.69a25,25,0,0,0,.39-3.61l.76-13.17a25.19,25.19,0,0,0,0-3.67Z"/><path class="cls-5" d="M41.39,28.42a28.25,28.25,0,0,0-.4,3.72l-.75,13a32.88,32.88,0,0,0,0,3.69l-4.91-.69a30.46,30.46,0,0,0-1.51-3.36L30,37.39a33.62,33.62,0,0,1-1.44-3.25c0,1.12,0,2.48-.05,3.69l-.32,5.5a29.22,29.22,0,0,0,0,3.86l-4.77-.67a28.2,28.2,0,0,0,.4-3.83l.75-12.93a31.51,31.51,0,0,0,0-3.69l4.86.68A18.84,18.84,0,0,0,30.86,30l3.86,7.57c.59,1.15,1,2,1.45,3.16,0-1.15,0-2.28.07-3.66l.32-5.6a29.15,29.15,0,0,0,0-3.77Z"/><path class="cls-5" d="M59.82,30.84l-.27,4.7a27,27,0,0,0-3.49-.67l-2.54-.36L52.81,46.9a32.05,32.05,0,0,0,0,3.73l-5-.7a30.36,30.36,0,0,0,.39-3.68l.72-12.39-2.65-.37a27.38,27.38,0,0,0-3.39-.3l.27-4.7a29.34,29.34,0,0,0,3.33.64l9.82,1.38A27.29,27.29,0,0,0,59.82,30.84Z"/><path class="cls-5" d="M75.35,33l-.27,4.59A26,26,0,0,0,71.75,37l-5.83-.82-.21,3.61,4.84.68a25.81,25.81,0,0,0,3.38.31l-.26,4.55a25.88,25.88,0,0,0-3.36-.65L65.47,44l-.24,4.13,5.78.81a27.73,27.73,0,0,0,3.67.34l-.27,4.6a27,27,0,0,0-3.69-.7l-7.07-1c-1.7-.24-2.34-.3-3.3-.39a25.16,25.16,0,0,0,.38-3.56l.77-13.42a30,30,0,0,0,0-3.62c.91.18,1.54.29,3.29.53l7.16,1A25.34,25.34,0,0,0,75.35,33Z"/><path class="cls-5" d="M92.37,53.58c.2.72.43,1.37.92,2.75L88,55.59a27.49,27.49,0,0,0-.88-4c-.6-2.24-.83-2.85-1.36-3.47a2.56,2.56,0,0,0-1.71-.91l-2.29-.32-.23,4a28,28,0,0,0,0,3.73L76.72,54a27.11,27.11,0,0,0,.39-3.67l.76-13.22a30,30,0,0,0,0-3.64c1,.19,1.81.32,3.33.54l5.83.82c3.63.51,5.62,2.88,5.42,6.42a5.26,5.26,0,0,1-1.55,3.84,4.4,4.4,0,0,1-2.2.93c1.12.55,1.6,1.19,2.22,3C91.25,49.9,91.51,50.78,92.37,53.58ZM85.55,43.2a1.88,1.88,0,0,0,2.26-2,2.06,2.06,0,0,0-2-2.38l-3.52-.49L82,42.71l3.51.49"/><path class="cls-5" d="M113.14,38.5a28.44,28.44,0,0,0-.39,3.72l-.75,13A33.1,33.1,0,0,0,112,59L107,58.27a30.42,30.42,0,0,0-1.51-3.36l-3.75-7.43a31.85,31.85,0,0,1-1.44-3.25c0,1.12,0,2.48-.06,3.69l-.32,5.5a30.66,30.66,0,0,0,0,3.86l-4.77-.67a28.23,28.23,0,0,0,.4-3.83l.75-12.93a31.56,31.56,0,0,0,0-3.69l4.87.68a17.7,17.7,0,0,0,1.41,3.3l3.85,7.57c.59,1.15,1,2,1.45,3.16,0-1.15,0-2.28.08-3.66l.32-5.6a29,29,0,0,0,0-3.77Z"/><path class="cls-5" d="M149.3,43.42l-.27,4.7a27,27,0,0,0-3.49-.67L143,47.09l-.72,12.39a30.31,30.31,0,0,0,0,3.73l-5-.7a28.63,28.63,0,0,0,.4-3.68l.72-12.39-2.65-.37a27.38,27.38,0,0,0-3.39-.3l.27-4.7a29.28,29.28,0,0,0,3.33.64l9.83,1.38A27.28,27.28,0,0,0,149.3,43.42Z"/><path class="cls-5" d="M131.83,58.72c.34,1.36.65,2.42.9,3.15l-5.25-.74a24,24,0,0,0-.38-2.73l-.49-2.17-6.4-.9-.73,2a14.6,14.6,0,0,0-.71,2.58l-5.25-.74a25,25,0,0,0,1.25-2.85l5.7-14.11a15.35,15.35,0,0,0,.87-2.56l5.86.82a22.51,22.51,0,0,0,.61,2.77Zm-10.3-7.36,4.22.59-1.7-7.68-2.52,7.09"/><path class="cls-5" d="M156,44.52a25.46,25.46,0,0,0-.39,3.62l-.76,13.17a27.16,27.16,0,0,0,0,3.66l-4.94-.69a24.76,24.76,0,0,0,.4-3.61L151,47.5a24.94,24.94,0,0,0,0-3.67Z"/><path class="cls-5" d="M167.26,45.67c5.52.78,8.8,5.39,8.43,11.84S171.46,67.79,166,67s-8.8-5.48-8.43-12S161.74,44.9,167.26,45.67Zm-1,17.1c2.71.38,4.52-1.84,4.75-5.87s-1.3-6.62-4-7-4.56,1.81-4.79,5.77,1.31,6.72,4,7.11"/><path class="cls-5" d="M195.33,50.05a28.44,28.44,0,0,0-.39,3.72l-.75,13a33.1,33.1,0,0,0,0,3.69l-4.91-.69a30.46,30.46,0,0,0-1.51-3.36L184,59a31.9,31.9,0,0,1-1.44-3.25c0,1.12,0,2.48-.06,3.69l-.32,5.5a30.7,30.7,0,0,0,0,3.86l-4.77-.67a28.2,28.2,0,0,0,.4-3.83l.75-12.93a31.51,31.51,0,0,0,0-3.69l4.86.68a18.46,18.46,0,0,0,1.42,3.3l3.85,7.57c.59,1.15,1,2,1.45,3.16,0-1.15,0-2.28.08-3.66l.32-5.6a29,29,0,0,0,0-3.77Z"/><path class="cls-5" d="M214,70.27c.34,1.36.65,2.42.9,3.15l-5.25-.74a22.19,22.19,0,0,0-.39-2.73l-.49-2.17-6.39-.9-.73,2a13.94,13.94,0,0,0-.71,2.58l-5.25-.74A25,25,0,0,0,197,67.88l5.7-14.11a15.36,15.36,0,0,0,.87-2.56l5.86.82A21.15,21.15,0,0,0,210,54.8Zm-10.3-7.36,4.22.59-1.7-7.68-2.52,7.09"/><path class="cls-5" d="M222.55,53.88a25.59,25.59,0,0,0-.41,3.86l-.7,12.19,5.43.76a23.74,23.74,0,0,0,3.73.35l-.27,4.73a27.12,27.12,0,0,0-3.71-.7l-6.82-1c-1.54-.22-2.47-.32-3.32-.4a23.36,23.36,0,0,0,.38-3.56l.75-13a32.5,32.5,0,0,0,.05-4Z"/><path class="cls-5" d="M68.69,71.87a4.7,4.7,0,0,1,1.51,3.89c-.17,3-2.28,4.63-5.54,4.29l-.08,1.43-1.16-.16.09-1.48a6.75,6.75,0,0,1-3.36-1.56A4.71,4.71,0,0,1,58.76,76a8.86,8.86,0,0,1-.17-1.4l3.55-.2A2.66,2.66,0,0,0,62.56,76a1.92,1.92,0,0,0,1.12.75l.2-3.53a10.87,10.87,0,0,1-2.76-1.35,4.65,4.65,0,0,1-1.91-4.13,4,4,0,0,1,2.88-3.77,5.82,5.82,0,0,1,2.33-.18l.06-1,1.16.16-.06,1a6.49,6.49,0,0,1,2.7,1.17,5.08,5.08,0,0,1,1.94,3.6l-3.54.16A1.79,1.79,0,0,0,65.41,67l-.18,3.09A8.94,8.94,0,0,1,68.69,71.87Zm-3.85,5c1.14.06,1.74-.42,1.8-1.48a1.48,1.48,0,0,0-.57-1.37,4.15,4.15,0,0,0-1-.52l-.19,3.36m-.76-7.19.17-2.88c-1-.05-1.51.39-1.56,1.23a1.32,1.32,0,0,0,.53,1.18,3.25,3.25,0,0,0,.86.46"/><path class="cls-5" d="M78.32,65.59a5.87,5.87,0,0,1,4.78,3,4.59,4.59,0,0,1,.43,2.26,4.12,4.12,0,0,1-1.77,3.26,21.51,21.51,0,0,1-2.59,1.65,6.4,6.4,0,0,0-2.65,2.24l4,.56a19.11,19.11,0,0,0,2.73.25L83,82.39c-1-.23-1.7-.37-2.91-.54l-6-.84a25.2,25.2,0,0,0-2.56-.28,9.57,9.57,0,0,1,.48-2.15,8.77,8.77,0,0,1,2.7-3.84,21.88,21.88,0,0,1,3.18-2.06c1.52-.87,1.92-1.31,2-2.17s-.65-1.6-1.74-1.75a1.76,1.76,0,0,0-1.83.68A3.37,3.37,0,0,0,75.81,71L72.25,70a5.93,5.93,0,0,1,1.44-3.14A5.09,5.09,0,0,1,78.32,65.59Z"/><path class="cls-5" d="M96.43,68.34l-.19,3.27a25.09,25.09,0,0,0-2.77-.52l-4-.56-.3,2.22c0,.1,0,.28-.08.59a3.94,3.94,0,0,1,2.81-.51,5.2,5.2,0,0,1,3.58,2,5.71,5.71,0,0,1,1.07,3.92c-.21,3.58-2.48,5.41-6.1,4.91a6.06,6.06,0,0,1-4.69-3,6.71,6.71,0,0,1-.74-2.21l3.47-.1a2.29,2.29,0,0,0,2.12,2.13,2.11,2.11,0,0,0,2.53-2.15A2.49,2.49,0,0,0,91,75.61a1.93,1.93,0,0,0-2.23,1.08L85.6,75.9c.1-.55.18-1,.26-1.51l.8-5.77c.05-.38.1-.83.15-1.54.72.14.89.16,1.7.27l5.1.72A18.85,18.85,0,0,0,96.43,68.34Z"/><path class="cls-5" d="M106,73.13c.14-2.47,1.48-3.43,4.26-3a8.64,8.64,0,0,1,2.57.76l-.69,2.67a3.31,3.31,0,0,0-1.66-.71c-.83-.12-1.18.21-1.23,1.18l0,.47.49.07a22.83,22.83,0,0,0,2.28.19l-.18,3.14a15.48,15.48,0,0,0-2.23-.45l-.52-.07-.33,5.7a21.55,21.55,0,0,0,0,2.83l-3.55-.5a23.19,23.19,0,0,0,.3-2.79l.33-5.7-.46-.06a10.86,10.86,0,0,0-1.92-.14l.18-3.14a15.31,15.31,0,0,0,1.91.4L106,74Z"/><path class="cls-5" d="M116.66,74.17l-.57,9.9a26,26,0,0,0,0,2.83l-3.56-.5a19.76,19.76,0,0,0,.3-2.79l.57-9.9a19.39,19.39,0,0,0,0-2.84l3.56.5A21.73,21.73,0,0,0,116.66,74.17Z"/><path class="cls-5" d="M128,88.58l-3.3-.46,0-.86a4.42,4.42,0,0,1-3.38.66,4.32,4.32,0,0,1-2.89-1.44,3.81,3.81,0,0,1-.79-2.67,3,3,0,0,1,1.4-2.55,6.31,6.31,0,0,1,3.62-.72c.67,0,1.18.08,2.41.21l0-.43c.05-.89-.42-1.38-1.55-1.54s-1.69.16-2,1l-3.22-1a3.61,3.61,0,0,1,1.56-2.06,5.85,5.85,0,0,1,3.9-.52,7.23,7.23,0,0,1,3.11,1.1,3.78,3.78,0,0,1,1.37,3.58l-.29,5A25,25,0,0,0,128,88.58ZM124.25,85a1.8,1.8,0,0,0,.7-1.35l0-.52a9.22,9.22,0,0,0-3,0,1.22,1.22,0,0,0-1.06,1.09c0,.67.46,1.14,1.34,1.27a2.79,2.79,0,0,0,2-.45"/><path class="cls-5" d="M135.32,75.15a22.52,22.52,0,0,0-.29,2.54l0,.4.61.09a10.13,10.13,0,0,0,1.68.14l-.18,3.11a10,10,0,0,0-1.57-.34l-.71-.1-.28,4.78c0,.53,0,.8.25,1a1.47,1.47,0,0,0,.77.31,2.07,2.07,0,0,0,1.21-.17l.09,2.88a6.53,6.53,0,0,1-2.37,0,4.11,4.11,0,0,1-2.47-1,2.94,2.94,0,0,1-.75-2.57l.33-5.72-.65-.09a8.87,8.87,0,0,0-1.49-.09l.18-3.12a9.21,9.21,0,0,0,1.51.33l.61.09,0-.4a20.54,20.54,0,0,0,0-2.58Z"/><path class="cls-5" d="M163.31,93.54l-3.3-.46,0-.86a4.43,4.43,0,0,1-3.38.66,4.32,4.32,0,0,1-2.89-1.44,3.81,3.81,0,0,1-.79-2.67,3,3,0,0,1,1.4-2.55,6.31,6.31,0,0,1,3.62-.72c.67,0,1.18.08,2.41.21l0-.43c.05-.89-.42-1.38-1.55-1.54s-1.7.16-2,1l-3.22-1a3.61,3.61,0,0,1,1.56-2.06,5.85,5.85,0,0,1,3.9-.52,7.23,7.23,0,0,1,3.11,1.1,3.78,3.78,0,0,1,1.37,3.58l-.29,5A24.89,24.89,0,0,0,163.31,93.54ZM159.56,90a1.81,1.81,0,0,0,.7-1.35l0-.52a9.22,9.22,0,0,0-3,0,1.22,1.22,0,0,0-1.06,1.09c0,.67.46,1.14,1.34,1.27a2.79,2.79,0,0,0,2-.45"/><path class="cls-5" d="M151.13,80.12a6.8,6.8,0,0,1,1.67.47l-1,3.25a5.31,5.31,0,0,0-1.72-.6A2.19,2.19,0,0,0,148,84a2.68,2.68,0,0,0-.61,1.58l-.17,2.92a23.54,23.54,0,0,0,0,2.82l-3.53-.5a21.86,21.86,0,0,0,.3-2.79l.33-5.75a19.89,19.89,0,0,0,0-2.84l3.39.48-.09,1.48A3.47,3.47,0,0,1,151.13,80.12Z"/><path class="cls-5" d="M170.64,80.11a22.57,22.57,0,0,0-.28,2.54l0,.4.61.09a10.13,10.13,0,0,0,1.68.14l-.18,3.11a10,10,0,0,0-1.57-.34l-.71-.1-.28,4.78c0,.53,0,.8.25,1a1.47,1.47,0,0,0,.77.31,2.07,2.07,0,0,0,1.21-.17l.09,2.88a6.52,6.52,0,0,1-2.37,0,4.11,4.11,0,0,1-2.47-1,2.94,2.94,0,0,1-.75-2.57l.33-5.72-.65-.09a8.87,8.87,0,0,0-1.49-.09l.18-3.12a9.2,9.2,0,0,0,1.51.33l.61.09,0-.4a20.54,20.54,0,0,0,0-2.58Z"/><path class="cls-5" d="M180.19,92.86a1.59,1.59,0,0,0,.56-.88l2.92,1.33a5,5,0,0,1-1.24,1.77,4.93,4.93,0,0,1-4.11,1A5.6,5.6,0,0,1,174.46,94a7.23,7.23,0,0,1-1.29-4.78c.21-3.7,2.53-5.84,5.78-5.39a5.59,5.59,0,0,1,4.86,5.09,15.71,15.71,0,0,1,.12,2.49c0,.07,0,.19,0,.37l-7.67-1.08a2.48,2.48,0,0,0,2.18,2.64A2.21,2.21,0,0,0,180.19,92.86Zm-1.4-6.27a1.91,1.91,0,0,0-2.34,1.52l4.39.62a2.26,2.26,0,0,0-2-2.13"/><path class="cls-5" d="M21.1,98.82c.27,1,.5,1.84.69,2.39l-4-.56a17.73,17.73,0,0,0-.3-2.08l-.37-1.65-4.86-.68-.54,1.52a10.41,10.41,0,0,0-.54,2l-4-.56A19.63,19.63,0,0,0,8.15,97l4.33-10.73a11.89,11.89,0,0,0,.67-1.94L17.6,85a16.06,16.06,0,0,0,.46,2.1Zm-7.82-5.6,3.21.45-1.3-5.83-1.91,5.38"/><path class="cls-5" d="M30.38,90.65a3.92,3.92,0,0,1,2.69,1.43,4.55,4.55,0,0,1,.8,3.28l-.27,4.69a27.68,27.68,0,0,0,0,2.81l-3.55-.5a22.31,22.31,0,0,0,.3-2.79l.22-3.83a2.35,2.35,0,0,0-.19-1.42,1.4,1.4,0,0,0-1.09-.68c-1-.13-1.85.39-2.65,1.6L26.38,99a24.47,24.47,0,0,0,0,2.83l-3.53-.5a23.57,23.57,0,0,0,.3-2.79l.33-5.76a21.31,21.31,0,0,0,0-2.83l3.39.48,0,.78c0,.12,0,.4,0,.52A4.18,4.18,0,0,1,30.38,90.65Z"/><path class="cls-5" d="M47.09,93.29c-.48.91-.48.91-1.16,2.35L41.45,105a3.39,3.39,0,0,1-4,2,9.61,9.61,0,0,1-2.32-.65l.55-2.91A2.59,2.59,0,0,0,37,104a1.32,1.32,0,0,0,1.43-.68l.4-.76-2.73-8.33c-.63-2-.68-2.15-.88-2.64l3.7.52a14.75,14.75,0,0,0,.52,2.5l1.33,4.54,1.76-4a10.34,10.34,0,0,0,.88-2.37Z"/><path class="cls-5" d="M63,95.52c-.3.67-.6,1.48-.91,2.32l-2.3,6.51a17,17,0,0,0-.64,2.11l-2.89-.41a20.89,20.89,0,0,0-.41-2.26L55,99.92c-.06-.33-.12-.58-.14-.75-.15.41-.15.45-.24.7l-1.26,3.59a18.59,18.59,0,0,0-.65,2.11l-2.9-.41c-.08-.69-.17-1.21-.39-2.26l-1.51-7c-.15-.68-.36-1.54-.63-2.53l3.67.52a14.17,14.17,0,0,0,.2,2.25l.54,3.45c.06.45.11.76.12.92.24-.7.24-.7.29-.86l1.16-3.27a19.62,19.62,0,0,0,.65-2.07l2.49.35a19.25,19.25,0,0,0,.39,2.21l.78,3.67c0,.14.11.57.16.8l.2-.77.91-3.2a16.18,16.18,0,0,0,.49-2.3Z"/><path class="cls-5" d="M67.8,92a19.94,19.94,0,0,0-.3,2.8l-.11,2c0,.14,0,.44-.05.61A4.2,4.2,0,0,1,71,96.36a3.86,3.86,0,0,1,2.65,1.42,4.55,4.55,0,0,1,.8,3.28l-.27,4.69a25.37,25.37,0,0,0,0,2.82l-3.55-.5a24,24,0,0,0,.3-2.79l.22-3.83A2.46,2.46,0,0,0,70.9,100a1.4,1.4,0,0,0-1.06-.66,2.87,2.87,0,0,0-2.69,1.58l-.22,3.8a24.48,24.48,0,0,0,0,2.83l-3.53-.5a22,22,0,0,0,.3-2.79l.57-9.9a19.89,19.89,0,0,0,0-2.84Z"/><path class="cls-5" d="M82.79,106.73a1.64,1.64,0,0,0,.57-.87l2.91,1.33A4.6,4.6,0,0,1,80.92,110a5.55,5.55,0,0,1-3.86-2.15,7.18,7.18,0,0,1-1.29-4.78c.21-3.69,2.52-5.84,5.77-5.38a5.58,5.58,0,0,1,4.86,5.09,15.57,15.57,0,0,1,.12,2.48c0,.08,0,.19,0,.38l-7.67-1.08A2.47,2.47,0,0,0,81,107.18,2.21,2.21,0,0,0,82.79,106.73Zm-1.4-6.27A1.91,1.91,0,0,0,79,102l4.39.62a2.26,2.26,0,0,0-2-2.12"/><path class="cls-5" d="M104,109.72a1.68,1.68,0,0,0,.56-.88l2.91,1.33a4.85,4.85,0,0,1-1.23,1.76,4.91,4.91,0,0,1-4.11,1,5.56,5.56,0,0,1-3.87-2.15A7.18,7.18,0,0,1,97,106c.21-3.69,2.52-5.84,5.77-5.38a5.58,5.58,0,0,1,4.86,5.09,14.71,14.71,0,0,1,.12,2.48c0,.08,0,.19,0,.38l-7.67-1.08a2.47,2.47,0,0,0,2.18,2.64A2.21,2.21,0,0,0,104,109.72Zm-1.41-6.27A1.91,1.91,0,0,0,100.3,105l4.38.62a2.25,2.25,0,0,0-2-2.12"/><path class="cls-5" d="M95.09,99.8a6.71,6.71,0,0,1,1.67.47l-1,3.25a5.31,5.31,0,0,0-1.72-.6,2.21,2.21,0,0,0-2.09.72,2.66,2.66,0,0,0-.61,1.59l-.17,2.92a21.94,21.94,0,0,0,0,2.82l-3.53-.5a21.87,21.87,0,0,0,.3-2.79l.33-5.76a19.76,19.76,0,0,0,0-2.83l3.39.48L91.58,101A3.46,3.46,0,0,1,95.09,99.8Z"/><path class="cls-5" d="M118.47,106.15l-.33,5.76c-.06,1-.07,2,0,2.83l-3.56-.5a21.82,21.82,0,0,0,.3-2.79l.33-5.76a21.5,21.5,0,0,0,0-2.83l3.56.5A21,21,0,0,0,118.47,106.15Z"/><polygon class="cls-5" points="118.95 99.2 118.79 102.01 115.33 101.52 115.5 98.72 118.95 99.2"/><path class="cls-5" d="M127.48,104.3a3.92,3.92,0,0,1,2.69,1.43A4.59,4.59,0,0,1,131,109l-.27,4.69a25.32,25.32,0,0,0,0,2.82l-3.55-.5a22.31,22.31,0,0,0,.3-2.79l.22-3.83a2.41,2.41,0,0,0-.19-1.42,1.4,1.4,0,0,0-1.09-.68c-1-.13-1.85.39-2.66,1.6l-.22,3.78a24.48,24.48,0,0,0,0,2.83l-3.53-.5a22,22,0,0,0,.3-2.79l.33-5.76a20,20,0,0,0,0-2.83l3.39.48,0,.78c0,.12,0,.4,0,.52A4.21,4.21,0,0,1,127.48,104.3Z"/><path class="cls-5" d="M143.62,103.87a24.6,24.6,0,0,0-.29,2.54l0,.4.61.09a10.07,10.07,0,0,0,1.68.14l-.18,3.11a9.81,9.81,0,0,0-1.56-.34l-.72-.1-.28,4.78a1.16,1.16,0,0,0,.25,1,1.49,1.49,0,0,0,.77.31,2.07,2.07,0,0,0,1.21-.17l.09,2.88a6.73,6.73,0,0,1-2.37,0,4.15,4.15,0,0,1-2.47-1,3,3,0,0,1-.74-2.57l.33-5.72-.65-.09a8.84,8.84,0,0,0-1.48-.09l.18-3.12a10.23,10.23,0,0,0,1.51.33l.61.09,0-.4a22.2,22.2,0,0,0,0-2.58Z"/><path class="cls-5" d="M150.7,103.66a19.9,19.9,0,0,0-.3,2.8l-.11,2c0,.14,0,.44-.05.61a4.21,4.21,0,0,1,3.64-1.05,3.88,3.88,0,0,1,2.65,1.43,4.59,4.59,0,0,1,.79,3.28L157,117.4a25.37,25.37,0,0,0,0,2.82l-3.55-.5a24,24,0,0,0,.3-2.79l.22-3.83a2.46,2.46,0,0,0-.19-1.44,1.4,1.4,0,0,0-1.06-.66,2.87,2.87,0,0,0-2.69,1.58l-.22,3.8a24.43,24.43,0,0,0,0,2.83l-3.53-.5a22,22,0,0,0,.3-2.79l.57-9.9a19.89,19.89,0,0,0,0-2.84Z"/><path class="cls-5" d="M165.7,118.39a1.64,1.64,0,0,0,.57-.87l2.91,1.33a4.6,4.6,0,0,1-5.35,2.79,5.56,5.56,0,0,1-3.87-2.15,7.18,7.18,0,0,1-1.29-4.78c.21-3.69,2.52-5.84,5.77-5.38a5.58,5.58,0,0,1,4.86,5.09,14.68,14.68,0,0,1,.12,2.48c0,.08,0,.19,0,.38l-7.67-1.08a2.47,2.47,0,0,0,2.18,2.64A2.2,2.2,0,0,0,165.7,118.39Zm-1.4-6.27a1.91,1.91,0,0,0-2.34,1.51l4.39.62a2.26,2.26,0,0,0-2-2.12"/><path class="cls-5" d="M191.78,113.62c-.3.67-.6,1.48-.91,2.32l-2.31,6.51a16.71,16.71,0,0,0-.63,2.11l-2.9-.41a18.59,18.59,0,0,0-.4-2.26l-.83-3.88c-.06-.33-.12-.58-.14-.75-.15.41-.15.45-.24.7l-1.26,3.59a20.93,20.93,0,0,0-.66,2.11l-2.89-.41c-.08-.69-.17-1.21-.39-2.26l-1.51-7c-.15-.68-.36-1.54-.63-2.53l3.67.52a14.17,14.17,0,0,0,.2,2.25l.54,3.45c.06.45.11.76.12.92.24-.7.24-.7.29-.86l1.15-3.27c.56-1.69.56-1.69.66-2.07l2.49.35a20.64,20.64,0,0,0,.39,2.21l.79,3.67c0,.14.11.57.16.8.06-.28.06-.28.2-.77l.91-3.2a16.18,16.18,0,0,0,.49-2.3Z"/><path class="cls-5" d="M198,114.06c3.45.48,5.49,3.16,5.28,6.86s-2.61,5.87-6,5.39-5.47-3.18-5.25-6.94S194.55,113.57,198,114.06Zm-.54,9.42c1.49.21,2.41-.88,2.53-3s-.68-3.44-2.13-3.64-2.46.89-2.58,2.95.7,3.45,2.17,3.66"/><path class="cls-5" d="M211.79,116.2a6.71,6.71,0,0,1,1.67.47l-1,3.25a5.31,5.31,0,0,0-1.72-.6,2.2,2.2,0,0,0-2.09.72,2.66,2.66,0,0,0-.61,1.59l-.17,2.92a22,22,0,0,0,0,2.82l-3.53-.5a21.87,21.87,0,0,0,.3-2.79l.33-5.76a19.76,19.76,0,0,0,0-2.83l3.39.48-.08,1.47A3.47,3.47,0,0,1,211.79,116.2Z"/><path class="cls-5" d="M218.3,113.16a21.45,21.45,0,0,0-.3,2.8l-.57,9.9a26,26,0,0,0,0,2.83l-3.56-.5a19.84,19.84,0,0,0,.3-2.79l.57-9.9a19.4,19.4,0,0,0,0-2.84Z"/><path class="cls-5" d="M231.11,117.92l-.56,9.68a23.79,23.79,0,0,0,0,2.95l-3.36-.47,0-.59a4,4,0,0,1,0-.41,4.28,4.28,0,0,1-3.52.86c-3.11-.44-4.85-3-4.63-6.75a6.18,6.18,0,0,1,1.73-4.35,4.24,4.24,0,0,1,3.54-1,5.3,5.3,0,0,1,3.42,1.87c0-.29,0-.45,0-.71l.09-1.56a22.44,22.44,0,0,0,0-2.95l3.5.49A22,22,0,0,0,231.11,117.92Zm-6.47,9.26c1.52.21,2.71-1,2.82-2.86a3.1,3.1,0,0,0-2.47-3.49c-1.48-.21-2.49.87-2.6,2.83a3.76,3.76,0,0,0,.64,2.58,2.45,2.45,0,0,0,1.61.94"/><path class="cls-5" d="M34.51,116.76A8.87,8.87,0,0,1,36,122.81a8.11,8.11,0,0,1-2.33,5.76,5.87,5.87,0,0,1-4.9,1.19l-3.6-.51c-1.31-.18-1.79-.23-2.51-.3a18.66,18.66,0,0,0,.29-2.71l.59-10.18a17.46,17.46,0,0,0,0-2.76c.68.13,1.1.21,2.52.41l3.57.5A7.18,7.18,0,0,1,34.51,116.76Zm-3.24,9.05a5,5,0,0,0,1.28-3.43,5.39,5.39,0,0,0-.78-3.62,3.63,3.63,0,0,0-2.59-1.33l-2.23-.31-.52,9,2.29.32a2.94,2.94,0,0,0,2.56-.64"/><path class="cls-5" d="M44.05,128.85a1.67,1.67,0,0,0,.56-.88l2.91,1.33a4.85,4.85,0,0,1-1.23,1.76,4.91,4.91,0,0,1-4.11,1,5.58,5.58,0,0,1-3.87-2.15A7.22,7.22,0,0,1,37,125.17c.21-3.7,2.52-5.84,5.77-5.38a5.58,5.58,0,0,1,4.87,5.09,14.84,14.84,0,0,1,.11,2.48,2.78,2.78,0,0,0,0,.38l-7.67-1.08a2.47,2.47,0,0,0,2.18,2.64A2.21,2.21,0,0,0,44.05,128.85Zm-1.41-6.28a1.92,1.92,0,0,0-2.34,1.52l4.38.62a2.26,2.26,0,0,0-2-2.13"/><path class="cls-5" d="M53.34,117.54a20.1,20.1,0,0,0-.3,2.8l-.57,9.89a24.14,24.14,0,0,0,0,2.84l-3.57-.5a19.9,19.9,0,0,0,.3-2.8l.57-9.89a19.4,19.4,0,0,0,0-2.84Z"/><path class="cls-5" d="M58.15,125.24,57.82,131a27.23,27.23,0,0,0,0,2.84l-3.57-.5a21.88,21.88,0,0,0,.3-2.8l.33-5.75a21.5,21.5,0,0,0,0-2.83l3.57.5A19.42,19.42,0,0,0,58.15,125.24Z"/><polygon class="cls-5" points="58.63 118.28 58.47 121.09 55.02 120.6 55.18 117.8 58.63 118.28"/><path class="cls-5" d="M71.27,124.24c-.39.79-.55,1.13-.81,1.71l-3.32,7.62a7.57,7.57,0,0,0-.55,1.5l-3.74-.53a8.63,8.63,0,0,0-.37-1.63l-2.4-8.42-.61-1.91,3.79.53a8.8,8.8,0,0,0,.23,1.65l1.25,6s0,.11.06.21,0,.21.11.54c.06-.16.08-.26.1-.32a.82.82,0,0,0,.06-.18,1.4,1.4,0,0,0,.09-.22l1.92-5.57a8.81,8.81,0,0,0,.42-1.56Z"/><path class="cls-5" d="M78.53,133.69a1.67,1.67,0,0,0,.57-.87L82,134.15a4.6,4.6,0,0,1-5.35,2.79,5.56,5.56,0,0,1-3.87-2.15A7.18,7.18,0,0,1,71.51,130c.21-3.7,2.52-5.84,5.77-5.38a5.58,5.58,0,0,1,4.86,5.09,14.71,14.71,0,0,1,.12,2.48c0,.08,0,.19,0,.38l-7.67-1.08a2.47,2.47,0,0,0,2.18,2.64A2.2,2.2,0,0,0,78.53,133.69Zm-1.4-6.28a1.92,1.92,0,0,0-2.34,1.52l4.39.62a2.26,2.26,0,0,0-2-2.13"/><path class="cls-5" d="M104.62,128.93c-.48.9-.48.9-1.17,2.35L99,140.62a3.39,3.39,0,0,1-4,2,9.6,9.6,0,0,1-2.32-.65l.54-2.91a2.63,2.63,0,0,0,1.31.59,1.32,1.32,0,0,0,1.43-.68l.4-.76-2.74-8.33c-.62-2-.68-2.15-.87-2.64l3.7.52a14,14,0,0,0,.52,2.5l1.32,4.53,1.76-4a11.4,11.4,0,0,0,.88-2.37Z"/><path class="cls-5" d="M90.82,126.76a6.34,6.34,0,0,1,1.67.47l-1,3.24a5.54,5.54,0,0,0-1.72-.6,2.21,2.21,0,0,0-2.09.72,2.67,2.67,0,0,0-.6,1.59l-.17,2.92a22,22,0,0,0,0,2.82l-3.53-.5a21.92,21.92,0,0,0,.3-2.8l.33-5.75A19.75,19.75,0,0,0,84,126l3.39.48L87.32,128A3.46,3.46,0,0,1,90.82,126.76Z"/><path class="cls-5" d="M114.57,133.17l-.33,5.75a27.16,27.16,0,0,0,0,2.84l-3.56-.5a23.5,23.5,0,0,0,.3-2.8l.33-5.75a23,23,0,0,0,0-2.83l3.56.5A19.38,19.38,0,0,0,114.57,133.17Z"/><polygon class="cls-5" points="115.06 126.21 114.9 129.02 111.44 128.53 111.6 125.73 115.06 126.21"/><path class="cls-5" d="M123.58,131.31a3.92,3.92,0,0,1,2.69,1.43,4.54,4.54,0,0,1,.8,3.28l-.27,4.69a27.81,27.81,0,0,0,0,2.81l-3.55-.5a22.37,22.37,0,0,0,.3-2.8l.22-3.82a2.45,2.45,0,0,0-.19-1.43,1.42,1.42,0,0,0-1.1-.68c-1-.13-1.84.4-2.65,1.61l-.22,3.77a24.53,24.53,0,0,0,0,2.84L116,142a23.63,23.63,0,0,0,.3-2.8l.33-5.75a21.31,21.31,0,0,0,0-2.83l3.39.48,0,.78c0,.12,0,.4,0,.52A4.19,4.19,0,0,1,123.58,131.31Z"/><path class="cls-5" d="M136.65,129.11a10.34,10.34,0,0,0,2,.42l2.16.3a14.53,14.53,0,0,0,2.11.22c-.14,1-.22,1.76-.29,3l-.57,9.79a25.16,25.16,0,0,0,0,2.84l-3.72-.52a22.5,22.5,0,0,0,.3-2.8l.55-9.52-.68-.1a15.89,15.89,0,0,0-2.09-.16Z"/><path class="cls-5" d="M158,141.49a10.43,10.43,0,0,0,1.7.09l-.2,3.41a12,12,0,0,0-1.66-.35l-.52-.07-.05.93a15.09,15.09,0,0,0,0,2.32l-3.51-.49A16.94,16.94,0,0,0,154,145l.05-.91-4.82-.68c-1.11-.16-1.58-.2-2.22-.24l.19-3.35C148,139,148,139,149,138l4-4.22a16.33,16.33,0,0,0,1.72-2l3.49.49a30.55,30.55,0,0,0-.32,3.08l-.35,6.07Zm-3.59-2.65c0-.84.15-1.86.26-2.68-.37.47-.65.81-1.15,1.38l-2.68,3,3.44.48.13-2.17"/><path class="cls-5" d="M178.17,138l-.56,9.68a23.84,23.84,0,0,0,0,2.95l-3.36-.47,0-.59a4,4,0,0,1,0-.41,4.28,4.28,0,0,1-3.52.86c-3.11-.44-4.85-3-4.63-6.75a6.18,6.18,0,0,1,1.73-4.35,4.24,4.24,0,0,1,3.54-1,5.3,5.3,0,0,1,3.42,1.87c0-.29,0-.45,0-.71l.09-1.56a22.43,22.43,0,0,0,0-2.95l3.5.49A22.06,22.06,0,0,0,178.17,138Zm-6.47,9.26c1.52.21,2.71-1,2.82-2.86a3.1,3.1,0,0,0-2.47-3.49c-1.48-.21-2.49.87-2.6,2.83a3.76,3.76,0,0,0,.64,2.58,2.45,2.45,0,0,0,1.61.94"/><path class="cls-5" d="M189.51,152.34l-3.3-.46,0-.86a4.4,4.4,0,0,1-3.38.66,4.32,4.32,0,0,1-2.89-1.44,3.81,3.81,0,0,1-.79-2.67,3,3,0,0,1,1.4-2.56,6.31,6.31,0,0,1,3.62-.71c.67,0,1.18.08,2.41.21l0-.42c.05-.89-.42-1.38-1.55-1.54s-1.69.16-2,1l-3.22-1a3.59,3.59,0,0,1,1.56-2.06,5.85,5.85,0,0,1,3.9-.52,7.23,7.23,0,0,1,3.11,1.1,3.76,3.76,0,0,1,1.38,3.58l-.29,5A25.29,25.29,0,0,0,189.51,152.34Zm-3.74-3.58a1.78,1.78,0,0,0,.7-1.35l0-.52a9,9,0,0,0-3,0,1.22,1.22,0,0,0-1.06,1.09c0,.67.46,1.13,1.34,1.26a2.79,2.79,0,0,0,2-.44"/><path class="cls-5" d="M203.08,142.77c-.48.91-.48.91-1.16,2.35l-4.48,9.34a3.39,3.39,0,0,1-4,2,9.65,9.65,0,0,1-2.32-.65l.55-2.91a2.59,2.59,0,0,0,1.3.59,1.31,1.31,0,0,0,1.43-.68l.41-.75-2.74-8.33c-.63-2-.68-2.15-.88-2.64l3.7.52a14.18,14.18,0,0,0,.53,2.5l1.32,4.53,1.76-4a10.77,10.77,0,0,0,.87-2.38Z"/><path class="cls-5" d="M208.73,143.16a5.41,5.41,0,0,1,3.57,1.71,4.45,4.45,0,0,1,1,2.29l-3.31-.07c0-.77-.45-1.17-1.37-1.3s-1.45.12-1.48.6.32.75,2,1.39a10.7,10.7,0,0,1,2.75,1.29,3.26,3.26,0,0,1,1.47,3.09,3.33,3.33,0,0,1-1,2.36,5,5,0,0,1-4.12.8c-2.15-.3-3.63-1.15-4.38-2.5a5,5,0,0,1-.57-2l3.4.07c.11,1,.66,1.5,1.81,1.66s1.62-.09,1.65-.67a.83.83,0,0,0-.33-.72,4.46,4.46,0,0,0-1.37-.63,21.13,21.13,0,0,1-2.49-1,3.76,3.76,0,0,1-1.63-1.57,4.09,4.09,0,0,1-.32-1.83C204.09,143.88,205.89,142.76,208.73,143.16Z"/></g></g></svg>