<svg xmlns="http://www.w3.org/2000/svg" viewBox="0 0 79.98 92.25"><defs><style>.cls-1{isolation:isolate;}.cls-2{fill:#182d0d;}.cls-3{fill:#194516;}.cls-4{fill:#1d5e1d;}</style></defs><title>Asset 22</title><g id="Layer_2" data-name="Layer 2"><g id="Layer_1-2" data-name="Layer 1"><g class="cls-1"><polygon class="cls-2" points="78.52 80.86 70.9 76.72 71.04 1.61 78.66 5.76 78.52 80.86"/><polygon class="cls-3" points="8.94 90.64 1.32 86.49 70.9 76.72 78.52 80.86 8.94 90.64"/><polygon class="cls-3" points="9.08 15.54 1.46 11.39 71.04 1.61 78.66 5.76 9.08 15.54"/><polygon class="cls-4" points="78.66 5.76 78.52 80.86 8.94 90.64 9.08 15.54 78.66 5.76"/><polygon class="cls-2" points="8.94 90.64 1.32 86.49 1.46 11.39 9.08 15.54 8.94 90.64"/><polygon class="cls-2" points="7.62 92.25 0 88.1 0.14 10.15 7.76 14.29 7.62 92.25"/><polygon class="cls-3" points="7.76 14.29 0.14 10.15 72.37 0 79.98 4.14 7.76 14.29"/><path class="cls-4" d="M7.76,14.29,80,4.14l-.14,78L7.61,92.25ZM78.52,80.86l.14-75.1L9.08,15.54l-.14,75.1,69.58-9.78"/></g></g></g></svg>