<svg xmlns="http://www.w3.org/2000/svg" viewBox="0 0 89.27 103.55"><defs><style>.cls-1{isolation:isolate;}.cls-2{fill:#4c0404;}.cls-3{fill:#7a0001;}.cls-4{fill:#a20000;}</style></defs><title>Asset 19</title><g id="Layer_2" data-name="Layer 2"><g id="Layer_1-2" data-name="Layer 1"><g class="cls-1"><polygon class="cls-2" points="87.79 90.85 80.17 86.71 80.33 1.61 87.94 5.75 87.79 90.85"/><polygon class="cls-3" points="8.94 101.94 1.33 97.79 80.17 86.71 87.79 90.85 8.94 101.94"/><polygon class="cls-3" points="9.1 16.83 1.48 12.69 80.33 1.61 87.94 5.75 9.1 16.83"/><polygon class="cls-4" points="87.94 5.75 87.79 90.85 8.94 101.94 9.1 16.83 87.94 5.75"/><polygon class="cls-2" points="8.94 101.94 1.33 97.79 1.48 12.69 9.1 16.83 8.94 101.94"/><polygon class="cls-2" points="7.62 103.55 0 99.41 0.16 11.45 7.78 15.6 7.62 103.55"/><polygon class="cls-3" points="7.78 15.6 0.16 11.45 81.66 0 89.27 4.14 7.78 15.6"/><path class="cls-4" d="M7.78,15.6,89.27,4.14l-.16,88L7.61,103.55Zm80,75.26.16-85.1L9.1,16.83l-.16,85.1L87.79,90.85"/></g></g></g></svg>