<svg xmlns="http://www.w3.org/2000/svg" viewBox="0 0 46.47 51.45"><defs><style>.cls-1{isolation:isolate;}.cls-2{fill:#4c0404;}.cls-3{fill:#7a0001;}.cls-4{fill:#a20000;}</style></defs><title>Asset 5</title><g id="Layer_2" data-name="Layer 2"><g id="Layer_1-2" data-name="Layer 1"><g class="cls-1"><polygon class="cls-2" points="45.08 44.76 37.46 40.62 37.53 1.61 45.15 5.76 45.08 44.76"/><polygon class="cls-3" points="8.94 49.84 1.32 45.7 37.46 40.62 45.08 44.76 8.94 49.84"/><polygon class="cls-3" points="9.01 10.84 1.4 6.69 37.53 1.61 45.15 5.76 9.01 10.84"/><polygon class="cls-4" points="45.15 5.76 45.08 44.76 8.94 49.84 9.01 10.84 45.15 5.76"/><polygon class="cls-2" points="8.94 49.84 1.32 45.7 1.4 6.69 9.01 10.84 8.94 49.84"/><polygon class="cls-2" points="7.62 51.45 0 47.31 0.08 5.45 7.69 9.59 7.62 51.45"/><polygon class="cls-3" points="7.69 9.59 0.08 5.45 38.86 0 46.47 4.14 7.69 9.59"/><path class="cls-4" d="M7.69,9.59,46.47,4.14,46.39,46,7.61,51.45ZM45.08,44.76l.07-39L9,10.83l-.07,39,36.14-5.08"/></g></g></g></svg>