<svg xmlns="http://www.w3.org/2000/svg" viewBox="0 0 45.36 50.09"><defs><style>.cls-1{isolation:isolate;}.cls-2{fill:#210130;}.cls-3{fill:#33004b;}.cls-4{fill:#470067;}</style></defs><title>Asset 25</title><g id="Layer_2" data-name="Layer 2"><g id="Layer_1-2" data-name="Layer 1"><g class="cls-1"><polygon class="cls-2" points="43.96 43.55 36.35 39.41 36.42 1.61 44.03 5.75 43.96 43.55"/><polygon class="cls-3" points="8.94 48.48 1.33 44.34 36.35 39.41 43.96 43.55 8.94 48.48"/><polygon class="cls-3" points="9.01 10.68 1.4 6.53 36.42 1.61 44.03 5.75 9.01 10.68"/><polygon class="cls-4" points="44.03 5.75 43.96 43.55 8.94 48.48 9.01 10.68 44.03 5.75"/><polygon class="cls-2" points="8.94 48.48 1.33 44.34 1.4 6.53 9.01 10.68 8.94 48.48"/><polygon class="cls-2" points="7.62 50.09 0 45.95 0.08 5.29 7.69 9.44 7.62 50.09"/><polygon class="cls-3" points="7.69 9.44 0.08 5.29 37.74 0 45.36 4.14 7.69 9.44"/><path class="cls-4" d="M7.69,9.44,45.36,4.14l-.08,40.65L7.61,50.09ZM44,43.56,44,5.75,9,10.68l-.07,37.8,35-4.92"/></g></g></g></svg>