<?xml version="1.0" encoding="utf-8"?>
<!-- Generator: Adobe Illustrator 22.1.0, SVG Export Plug-In . SVG Version: 6.00 Build 0)  -->
<svg version="1.1" id="Layer_1" xmlns="http://www.w3.org/2000/svg" xmlns:xlink="http://www.w3.org/1999/xlink" x="0px" y="0px"
	 viewBox="0 0 533.8 750.6" style="enable-background:new 0 0 533.8 750.6;" xml:space="preserve">
<style type="text/css">
	.st0{fill:#231F20;}
</style>
<g>
	<path class="st0" d="M522,56.1c-2.2-1.4-30-13.9-52.9-28c-6-3.6-7.5-5.5-14.9-9.3c-3.2-1.6-5.6-2.5-7.4-2.8
		c-3.6-2.9-29.7-22.1-66.1-14c-39.3,8.7-65,53.7-69.6,63.9c-4.5,10.2-15.9,32.7-13.6,73.2c1.2,21.9,29.5,67.9,40.1,84.1
		c10.6,16.3,30.6,51.8,32.1,57.1c1.5,5.3,4.9,5.7,0.4,10.2s-27.6,4.2-46.5,6.8c-13.9,1.9-98.7,18.5-115.3,25
		c-12.5,4.8-38.2,14-49.5,17.4s-28,9.8-51.4,10.2C84,350.3,47.5,336,30.8,335.2c-16.6-0.8-24.6,0.8-25,3.4s-5.3-0.3-5.7,2.6
		c-0.4,3,0,17.8,4.2,24.2c-4.1-2.3-4.2-1.1-4.2,3.4s69.6,90.4,83.2,103.6c13.6,13.2,42.7,58.3,46.1,67.3c3.4,9,15.7,48.7,34.2,61.5
		c5.1,3.5,10.9,5.6,17.3,6.5c8.5,27.5,16.3,71.4,16.2,78.4c-0.1,7.3-3.5,10.4-2.6,12.7c0.9,2.3,25.8,37.7,34,43.1
		s22.4,11.3,26.3,7.6c3.9-3.8,1.9-14.2,1.9-14.2s34.7,3.4,39,3.2c7.6-0.3,9.5,0.1,11.5-5.1c3.6-9.4-2.8-13.4-2.8-13.4
		s25.6,2.7,27.6,0c2.8-3.8-3.9-12.4-10.4-13.4c-25.8-4.2-29-6.6-50.9-11.2c-19.9-4.2-44.6-9-47.5-12.1c-6.1-6.6-7.2-11.6-8.1-16.1
		c-1.8-8.5-3.9-17.2-3.8-61.6c7.9-2,15.6-4.8,22.5-8c18.9-8.8,49-10.3,67.6-12c7.5,27.1,5.5,61.6-2.7,81.8c-1.6,4-1,8.5,2.1,9.1
		c28.6,4.9,50.2,9.8,59.4,11.2c9.3,1.4,41.8,10.1,46.5,11.2c5.6,1.2,7,0.5,8.5-1.9c1.5-2.3-0.8-6.1-0.8-6.1s12.6,0,20.6-0.6
		c3.5-0.3,9.8-3.7,1.7-11c-4-3.6-13.6-6.4-13.6-6.4s2.1-6.2-4.9-7.9c-6.8-1.7-30.6-4.6-40.1-5.7c-19.2-2.3-31.3-7.7-38.6-10.4
		c-10.6-3.9-9.6-7.4-10.4-14.7c-1.8-16.3-0.5-42.3,1.7-54.8c8.7-3.3,16.8-7.8,24.1-13.5c15.5-12.2,76.4-59.3,105.5-91.9
		c12.3-13.8,17-28.7,20.8-34c3.8-5.4,25.3-35.5,27.2-58.6c1.9-23.1-7.2-63.2-14-77.1c-12.1-24.9-28.8-49.7-63.2-80.4
		c-19.4-17.3-48.8-59.5-52.9-69.2c-3-7-7.8-10.8-4.2-22.7c3.1-10,19.6-22.3,29.5-28.4c9.9-6.1,34.4-10.2,39-17.4c0,0,0-0.1,0.1-0.1
		c13.7,2.2,73.7,1.5,80.1-1.6c7-3.4,11-11.7,11-17.2C533.5,61.7,525.2,58,522,56.1z"/>
</g>
</svg>
