<?xml version="1.0" encoding="utf-8"?>
<!-- Generator: Adobe Illustrator 25.0.1, SVG Export Plug-In . SVG Version: 6.00 Build 0)  -->
<svg version="1.1" id="Calque_1" xmlns="http://www.w3.org/2000/svg" xmlns:xlink="http://www.w3.org/1999/xlink" x="0px" y="0px"
	 viewBox="0 0 50 50" style="enable-background:new 0 0 50 50;" xml:space="preserve">
<style type="text/css">
	.st0{fill:#FFFFFF;}
</style>
<g>
	<path class="st0" d="M38.6,37L13.8,12.2l-2.4,2.4l6,6l0,0h-5.9v8.8h5.9l7.5,7.8v-9.1l5.6,5.6c-0.8,0.5-1.6,0.9-2.5,1.2v3.2
		c1.7-0.4,3.3-1.2,4.7-2.2l3.4,3.4L38.6,37z"/>
	<polygon class="st0" points="25,12.8 21.8,16.2 25,19.4 	"/>
	<path class="st0" d="M35.4,25c0,1.4-0.3,2.8-0.8,4l2.3,2.3c1-1.9,1.5-4,1.5-6.3c0-6.3-4.3-11.7-10.3-13.1v3.2
		C32.3,16.5,35.4,20.3,35.4,25z"/>
	<path class="st0" d="M31.8,25c0-2.6-1.5-4.9-3.7-6.2v3.7l3.6,3.6C31.8,25.8,31.8,25.4,31.8,25z"/>
</g>
</svg>
