<?xml version="1.0" encoding="utf-8"?>
<!-- Generator: Adobe Illustrator 25.0.1, SVG Export Plug-In . SVG Version: 6.00 Build 0)  -->
<svg version="1.1" id="Calque_1" xmlns="http://www.w3.org/2000/svg" xmlns:xlink="http://www.w3.org/1999/xlink" x="0px" y="0px"
	 viewBox="0 0 50 50" style="enable-background:new 0 0 50 50;" xml:space="preserve">
<style type="text/css">
	.st0{fill:#FFFFFF;}
</style>
<path class="st0" d="M41.6,12.5c-1.2,0.7-2.6,1.2-4,1.6c-1.2-1.2-2.8-2.1-4.7-2.1c-3.5,0-6.5,3-6.5,6.7c0,0.5,0,1.1,0.2,1.6
	c-5.4-0.4-10.2-3-13.3-7c-0.5,1.1-0.9,2.1-0.9,3.3c0,2.3,1.2,4.4,2.8,5.6c-1.1,0-2.1-0.4-3-0.9l0,0c0,3.2,2.3,6,5.3,6.5
	c-0.5,0.2-1.1,0.2-1.8,0.2c-0.4,0-0.9,0-1.2-0.2c0.9,2.6,3.2,4.6,6,4.6c-2.3,1.8-5.1,2.8-8.1,2.8c-0.5,0-1.1,0-1.6-0.2
	c2.8,1.9,6.3,3,10,3c11.9,0,18.4-10.2,18.4-18.9c0-0.4,0-0.5,0-0.9c1.2-0.9,2.3-2.1,3.2-3.5c-1.2,0.5-2.5,0.9-3.7,1.1
	C40.2,15.3,41.2,14,41.6,12.5z"/>
</svg>
