<?xml version="1.0" encoding="utf-8"?>
<svg version="1.1" id="Layer_1" x="0px" y="0px" width="100%" viewBox="0 0 525 462" enable-background="new 0 0 525 462" xmlns="http://www.w3.org/2000/svg">
  <path opacity="1.000000" stroke="none" d=" M526.000000,174.000000 C526.000000,270.666656 526.000000,366.833282 526.000000,462.999939 C351.000061,462.999969 176.000122,462.999969 1.000146,463.000000 C1.000097,309.000092 1.000097,155.000198 1.000049,1.000228 C175.999863,1.000152 350.999725,1.000152 525.999756,1.000076 C526.000000,58.500000 526.000000,116.000000 526.000000,174.000000 M15.000000,309.500000 C15.000000,322.595337 15.000000,335.690674 15.000000,348.703308 C180.989960,348.703308 346.380920,348.703308 511.700500,348.703308 C511.700500,237.345001 511.700500,126.283676 511.700500,15.296760 C346.009918,15.296760 180.618973,15.296760 15.000000,15.296760 C15.000000,113.228897 15.000000,210.864441 15.000000,309.500000 M447.500000,450.000000 C468.926270,450.000000 490.352509,450.000000 511.692444,450.000000 C511.692444,420.670502 511.692444,391.937317 511.692444,363.297699 C345.998535,363.297699 180.612335,363.297699 15.307604,363.297699 C15.307604,392.329620 15.307604,421.062805 15.307604,450.000000 C159.243408,450.000000 302.871704,450.000000 447.500000,450.000000 z" style="fill: rgb(255, 255, 255);"/>
  <path opacity="1.000000" stroke="none" d=" M78.000000,197.009354 C78.000000,184.683838 78.609390,172.809921 77.833511,161.027206 C77.010689,148.531555 75.084702,136.091339 73.263725,123.682205 C69.533104,98.259689 62.242527,73.723228 53.937012,49.187321 C55.524818,49.116177 56.821125,49.007641 58.117458,49.007339 C96.937447,48.998322 135.757690,49.061901 174.576996,48.898563 C178.220718,48.883228 179.889282,50.030430 180.779800,53.365925 C186.466141,74.664436 192.739960,95.822655 197.764618,117.274353 C200.314148,128.159012 200.974289,139.533356 201.917587,150.734421 C202.954086,163.042206 204.420242,175.464828 203.748077,187.730484 C202.712662,206.625046 200.410416,225.480927 197.922623,244.257431 C194.798660,267.835205 187.969772,290.540649 179.922562,312.866760 C179.442490,314.198639 177.406586,315.864807 176.089020,315.869751 C135.770233,316.020874 95.450752,315.983978 55.131390,315.960999 C54.833954,315.960846 54.536640,315.749878 54.685070,315.806030 C59.567802,297.939301 64.766319,280.205933 69.179169,262.279175 C71.766632,251.767883 73.461967,240.996689 74.901253,230.254333 C76.356461,219.393158 77.000580,208.423309 78.000000,197.009354 z" style="fill: rgb(255, 255, 255);"/>
  <path opacity="1.000000" stroke="none" d=" M205.998016,253.931122 C208.000397,238.493683 210.666412,223.544754 211.815735,208.480133 C212.987152,193.125580 213.808868,177.574722 212.702286,162.260208 C211.405197,144.309265 208.624268,126.367485 205.075897,108.705215 C201.626770,91.536942 196.443375,74.713608 191.890060,57.774151 C191.152664,55.030903 189.731812,52.471375 188.405029,49.295998 C190.526962,49.169117 191.940994,49.011192 193.355103,49.010704 C232.013794,48.997318 270.672729,49.060944 309.330780,48.903580 C313.101898,48.888233 314.991455,49.957756 315.935669,53.571732 C321.551025,75.064262 327.817230,96.404915 332.745483,118.051414 C335.337646,129.437180 335.829987,141.324097 336.945862,153.015717 C337.865723,162.653687 338.803772,172.336456 338.819458,182.000870 C338.834595,191.329666 337.761444,200.666931 337.011627,209.988022 C336.474121,216.669693 335.905334,223.363037 334.951172,229.993698 C333.473236,240.263489 332.318054,250.648621 329.830658,260.688690 C325.733551,277.226288 320.698639,293.532288 316.008636,309.921478 C315.434387,311.928131 314.549896,313.846039 313.795685,315.840698 C272.214996,315.840698 230.752319,315.840698 188.674103,315.840698 C190.185272,311.143799 191.773300,306.806427 192.974899,302.364532 C197.093414,287.139648 201.072449,271.877045 205.122406,256.633545 C205.328964,255.856155 205.701035,255.122757 205.998016,253.931122 z" style="fill: rgb(255, 255, 255);"/>
  <path opacity="1.000000" stroke="none" d=" M336.027344,274.042114 C338.369385,263.063934 341.158600,252.587143 342.880157,241.937729 C345.036835,228.596573 347.089417,215.152115 347.758820,201.681274 C348.431274,188.149094 347.519989,174.522827 346.970581,160.951233 C346.652802,153.102249 346.066895,145.222061 344.911072,137.458725 C343.100250,125.295364 341.289795,113.078323 338.418213,101.139221 C334.251007,83.813553 329.138763,66.715187 324.348938,49.225456 C325.539581,49.158897 326.960724,49.010525 328.381897,49.010056 C366.694214,48.997448 405.006714,49.045776 443.318665,48.930134 C447.207062,48.918400 448.844391,50.012825 450.183990,53.967213 C457.639313,75.974854 463.585663,98.380753 467.821838,121.183609 C470.021332,133.023392 471.188934,145.123611 471.867737,157.160019 C472.744690,172.709152 473.235352,188.327942 472.803772,203.886520 C472.506927,214.587341 470.354919,225.236191 469.041626,235.909439 C465.992004,260.693329 459.168793,284.531525 451.040863,308.050781 C448.303284,315.972260 448.383575,316.000000 440.042999,316.000000 C401.574707,316.000000 363.106384,316.000000 323.857483,316.000000 C327.976440,301.912048 331.988556,288.189484 336.027344,274.042114 z" style="fill: rgb(255, 255, 255);"/>
  <path opacity="1.000000" stroke="none" d=" M420.000000,406.000000 C420.000000,412.803589 420.000000,419.107452 420.000000,425.997833 C416.195587,425.997833 412.549072,426.340424 409.022919,425.838165 C407.499115,425.621155 405.882721,423.888977 404.906372,422.441650 C402.840607,419.379333 401.222412,416.018677 399.298767,412.854492 C398.764130,411.975037 397.802185,411.355347 396.120880,409.733368 C396.120880,415.921051 396.120880,420.672180 396.120880,425.708862 C391.706146,425.708862 387.639130,425.708862 383.283081,425.708862 C383.283081,412.695068 383.283081,399.635559 383.283081,386.002808 C387.156525,386.002808 391.148682,385.613495 394.993317,386.196594 C396.506531,386.426147 397.981598,388.651276 398.965088,390.275787 C401.202759,393.971985 403.125336,397.858917 406.330444,401.604767 C406.330444,396.602417 406.330444,391.600037 406.330444,386.299011 C411.277008,386.299011 415.344391,386.299011 420.000000,386.299011 C420.000000,392.646027 420.000000,399.073120 420.000000,406.000000 z" style="fill: rgb(255, 255, 255);"/>
  <path opacity="1.000000" stroke="none" d=" M441.091461,426.000000 C438.952942,426.000000 437.302002,426.000000 435.325928,426.000000 C435.325928,412.774292 435.325928,399.713623 435.325928,386.021027 C443.071686,386.021027 451.083862,385.263519 458.878845,386.239929 C466.267853,387.165527 471.275635,391.993195 472.433350,399.900330 C473.627594,408.057220 474.115295,416.243774 466.522552,421.726257 C463.445648,423.947998 459.347626,425.256195 455.540009,425.836182 C450.983734,426.530182 446.241028,425.999969 441.091461,426.000000 M459.968750,408.099731 C460.010742,399.586334 456.047607,396.060242 448.000000,397.668854 C448.000000,401.771698 447.979401,405.916168 448.005371,410.060364 C448.035248,414.833923 450.221252,416.661346 454.477478,414.632874 C456.631165,413.606415 457.956879,410.842712 459.968750,408.099731 z" style="fill: rgb(255, 255, 255);"/>
  <path opacity="1.000000" stroke="none" d=" M311.778687,391.284363 C319.183350,398.990143 318.600769,415.400970 310.213898,422.434448 C302.563446,428.850433 289.236023,428.450378 281.706543,421.294769 C274.387909,414.339539 273.804749,398.972351 282.033417,390.407501 C288.820892,383.342712 304.209412,382.636627 311.778687,391.284363 M301.962036,398.709656 C296.419159,394.117706 291.768311,395.146240 290.146912,401.876465 C289.381287,405.054443 289.689941,408.881287 290.778809,411.967072 C291.414062,413.767426 294.561523,415.725647 296.561401,415.707428 C298.572418,415.689148 301.262970,413.741241 302.415466,411.873596 C304.844849,407.936707 304.639862,403.572235 301.962036,398.709656 z" style="fill: rgb(255, 255, 255);"/>
  <path opacity="1.000000" stroke="none" d=" M92.057808,395.239319 C95.149368,403.978790 95.481255,412.032623 90.068146,419.728943 C85.945419,425.590637 75.849678,428.917511 68.125496,426.637421 C59.820042,424.185791 54.122108,417.406372 54.023979,409.617798 C53.954441,404.098785 53.589855,398.655670 56.877819,393.520996 C64.084846,382.266083 84.587418,382.045105 90.798378,393.282898 C91.111862,393.850037 91.585121,394.328888 92.057808,395.239319 M68.944656,398.586731 C68.338974,402.513031 66.934517,406.546417 67.440895,410.323639 C67.723946,412.434967 70.882507,414.945068 73.273796,415.803650 C76.764503,417.056976 79.553215,414.431610 80.095314,411.195862 C80.710472,407.524078 80.959335,403.322998 79.751656,399.926575 C78.059486,395.167480 73.598289,394.718262 68.944656,398.586731 z" style="fill: rgb(255, 255, 255);"/>
  <path opacity="1.000000" stroke="none" d=" M183.062378,424.421936 C170.676651,429.701172 159.919785,427.184326 154.128922,417.518860 C149.048569,409.039307 150.274673,400.253418 155.388702,392.436157 C159.980286,385.417511 167.745117,383.838837 175.463150,385.173126 C183.434540,386.551208 189.184158,391.243927 191.242920,399.685455 C193.647171,409.543701 191.195938,417.679840 183.062378,424.421936 M178.715042,409.803650 C178.537506,407.088226 179.037445,404.067413 177.990158,401.744049 C176.961838,399.462738 174.603439,396.854584 172.374313,396.333405 C170.583511,395.914703 166.920273,397.923401 166.207962,399.703369 C164.952988,402.839294 164.957520,406.637085 165.098801,410.130859 C165.248993,413.845001 167.665070,415.851807 171.482727,416.006714 C175.432266,416.166931 177.608963,414.285797 178.715042,409.803650 z" style="fill: rgb(255, 255, 255);"/>
  <path opacity="1.000000" stroke="none" d=" M246.500580,398.546448 C244.831970,397.270386 243.285355,396.374268 241.738724,395.478119 C241.453445,396.089417 241.168152,396.700745 240.882874,397.312073 C243.954910,398.553314 246.947464,400.072021 250.115067,400.979767 C257.352203,403.053650 262.150940,407.826141 261.940796,413.200745 C261.659271,420.399811 256.624115,426.185822 248.620667,426.792816 C243.565598,427.176178 238.235596,426.208618 233.270264,424.918243 C227.230026,423.348572 225.471176,418.203674 224.867554,412.000122 C228.408173,412.000122 231.712418,411.793518 234.967743,412.102386 C236.258728,412.224884 237.542801,413.369385 238.636429,414.280884 C239.337769,414.865387 239.623245,416.522308 240.202850,416.578003 C242.446381,416.793671 244.745255,416.662781 246.992630,416.398315 C247.397064,416.350739 248.083237,414.573883 247.913879,414.425934 C246.558060,413.241699 245.160767,411.908478 243.523254,411.283997 C240.089355,409.974487 236.452606,409.204987 232.988953,407.963226 C229.112152,406.573364 227.176773,403.914246 226.877518,399.510071 C226.514572,394.168427 227.931778,389.602570 232.551453,387.345978 C238.313141,384.531525 244.707352,383.852631 251.044403,386.033386 C256.908295,388.051270 259.935577,392.143799 260.023804,398.926392 C255.467758,398.926392 251.045151,398.926392 246.500580,398.546448 z" style="fill: rgb(255, 255, 255);"/>
  <path opacity="1.000000" stroke="none" d=" M331.000000,392.093140 C331.000000,389.953400 331.000000,388.301453 331.000000,386.325195 C335.235565,386.325195 339.304932,386.325195 344.000000,386.325195 C344.000000,393.107910 343.899902,400.041077 344.057831,406.968353 C344.108582,409.195526 344.161591,412.005646 345.446167,413.461304 C346.787842,414.981689 349.809143,416.089935 351.727386,415.674713 C353.127625,415.371613 354.771667,412.343750 354.852936,410.467590 C355.197540,402.508789 354.999146,394.526489 354.999146,386.277771 C359.326965,386.277771 363.396545,386.277771 367.988556,386.277771 C367.988556,396.053314 368.607544,405.881378 367.755249,415.580139 C367.247803,421.354431 362.696106,425.587280 356.784149,426.576752 C349.993988,427.713226 342.912750,427.985016 336.815948,423.901184 C332.233612,420.831787 331.347473,415.612366 331.075958,410.576477 C330.753418,404.593994 331.000000,398.580811 331.000000,392.093140 z" style="fill: rgb(255, 255, 255);"/>
  <path opacity="1.000000" stroke="none" d=" M111.726891,414.348236 C108.738052,404.749756 105.976372,395.499817 103.169044,386.096985 C107.712196,386.096985 112.022713,386.096985 116.618652,386.096985 C118.311966,392.352539 120.008690,398.620667 121.705406,404.888794 C122.192635,404.917542 122.679855,404.946289 123.167076,404.975037 C124.923225,398.813324 126.679375,392.651581 128.516937,386.204163 C132.640839,386.204163 137.096573,386.204163 142.023315,386.204163 C137.898468,399.457489 133.819916,412.562164 129.637650,426.000000 C127.265594,426.000000 124.787048,426.000000 122.308502,426.000000 C114.729797,426.000000 114.737541,425.998199 112.981018,418.418976 C112.690674,417.166199 112.298927,415.936920 111.726891,414.348236 z" style="fill: rgb(255, 255, 255);"/>
</svg>