<svg xmlns="http://www.w3.org/2000/svg" viewBox="0 0 751.48 466.02"><defs><style>.cls-1{fill:#fff;}</style></defs><g id="Layer_2" data-name="Layer 2"><g id="Mobile"><g id="Clouds_Right"><g id="_10" data-name="10"><path class="cls-1" d="M745,300c-1.66-3.45-3.8-5.49-6.35-6.07-2.12-.48-2-1.08-1.7-2.86l0-.18c.15-.88.32-1.76.48-2.64a74.82,74.82,0,0,0,1.36-9.69c.33-6.53-2.41-12.5-7.92-17.29-1-.84-2-1.61-3.06-2.36a32.82,32.82,0,0,1-4.15-3.38c-4-4-10.66-6.19-17.46-5.76A23.18,23.18,0,0,0,689,258.69l-.27.36.33.31c.3.28.61.55.92.82a19.28,19.28,0,0,1,1.84,1.76c7,8,9.61,18.18,7.87,30.2-1.5,10.31-8,18.14-20.44,24.63-.15.08-.64-.08-.93-.17l-.24-.07a1.16,1.16,0,0,0,0-.18,2.69,2.69,0,0,1,.34-1.13,2.36,2.36,0,0,1,.82-.57,5.24,5.24,0,0,0,.75-.44c1-.73,2-1.45,3-2.17,2.4-1.71,4.89-3.47,7.14-5.44A23.67,23.67,0,0,0,698,290.74c1-9.71-.65-17.58-5-24.06-2-3.05-4-5.65-7.52-6.68a6.48,6.48,0,0,1-1.4-.69l-.19-.11.19-.26a3.22,3.22,0,0,1,1-1.11c9.32-4,12.82-10.71,10.7-20.54a2.82,2.82,0,0,1,.33-2.07c5.1-6,7.29-13.27,6.9-22.77-.26-6.11-1.28-13.88-7-19.74a71.52,71.52,0,0,0-10.12-8.07l-1.3-.91c-1.57-1.11-2.27-1.86-2.25-2.43s.69-1.22,2.19-2.17c4.36-2.77,9.13-6.22,10.51-12.18,4.44-19.07,1-33.1-10.75-44.14a48.34,48.34,0,0,0-9.77-7.46c-7-3.85-14.78-3.76-21.5-3.16a15.43,15.43,0,0,0-4.86,1.59c-6.14,2.81-10.93,7.24-14.41,10.78a32.72,32.72,0,0,0-9,16,3.29,3.29,0,0,1-.94,1.31l-.15.15-.09-.17a3.25,3.25,0,0,1-.56-1.49,2.55,2.55,0,0,0-.49-2,2.29,2.29,0,0,0-1.85-.59h-1.23c-1.47,0-3,0-4.47.17-2.1.19-3.12,1.42-3,3.55.11,1.58.12,3.2.13,4.77,0,1.05,0,2.09,0,3.14.16,5.09-2.28,9.47-4.43,13.33-.09.16-.64.3-1,.4l-.24.07a1.8,1.8,0,0,1,0-.19,2.68,2.68,0,0,1-.17-1.25,10.1,10.1,0,0,1,1.14-2.46l.16-.27a20.5,20.5,0,0,0,2.71-11.59c-.07-1.18-.09-2.39-.11-3.57,0-.77,0-1.54,0-2.31-.38-10.92-5.33-18.31-14.71-22a23.66,23.66,0,0,0-19.92.8,23.92,23.92,0,0,0-10,9.15l-.15.27.17.26c1.65,2.47,1.69,5.25.15,8.73l-.24.55.58.14c4.16,1,7,3.68,9,8.36,1.89,4.41.59,8.72-.93,12.35l-.31.74.8-.05a37.9,37.9,0,0,1,17.77,2.92,13.14,13.14,0,0,1,3.95,3.23,3.1,3.1,0,0,1-.1,1.11,2.74,2.74,0,0,0-.05.28l-.13,0a5.67,5.67,0,0,1-1.3-.49,16.52,16.52,0,0,1-1.48-1.09,8.75,8.75,0,0,0-2.89-1.76A76.33,76.33,0,0,0,579,162.73a13.87,13.87,0,0,0-5.71,1,33.22,33.22,0,0,0-3.47,1.43c-.92.42-1.86.85-2.81,1.19a2.43,2.43,0,0,1-1.21-.12l-.25-.06c0-.09,0-.17,0-.26a2.46,2.46,0,0,1,.34-1.16,11.25,11.25,0,0,1,2.15-1.51l.75-.44a12.11,12.11,0,0,0,5-12.62,12.46,12.46,0,0,0-9.5-9.18,6.29,6.29,0,0,1-1.61-.61l-.33-.17.12-.26a7.33,7.33,0,0,1,.81-1.41c2.05-2.52,2.09-6,.08-7.68a11,11,0,0,0-11.21-1.19,2.53,2.53,0,0,1-2.08-.31c-4.46-4.85-11-5.16-15.86-.74a2,2,0,0,1-1.36.68,1.74,1.74,0,0,1-1.12-.83,14.64,14.64,0,0,0-2.39-2.55,12.23,12.23,0,0,0-8.34-2.74h0c-.25,0-.67-.36-1-.66l-.2-.17.12-.12a2.4,2.4,0,0,1,1-.72,8.78,8.78,0,0,1,2,0,13.26,13.26,0,0,0,1.55,0,3.18,3.18,0,0,0,2.09-.7c5.88-6.37,7.52-13.15,5-20.72a9.47,9.47,0,0,0-4.49-5.64l-1-.54c-3.77-2.09-7.67-4.26-12.49-3.67a3.21,3.21,0,0,1-1-.61l-.19-.16.15-.15a2.51,2.51,0,0,1,1-.8,12.34,12.34,0,0,1,2.74-.09c.43,0,.86,0,1.29,0h.48l0-.48c0-.2,0-.39,0-.56a3.2,3.2,0,0,0,0-1.07c-1.15-5.18-2.76-11-7.32-14.87a48.14,48.14,0,0,0-8.67-5.35c-1.08-.56-2.15-1.12-3.2-1.7-3.32-1.86-6.88-2.19-11.27-2.14a5.05,5.05,0,0,0-4.43,2.29c-.81,1.18-1.45,2-1.93,2s-1.19-.71-2.11-1.8a7.48,7.48,0,0,0-5-2.92,7.29,7.29,0,0,0-5.29,2,1.87,1.87,0,0,1-1.6.62c-.43-.14-.78-.69-1-1.56-.1-.42-.19-.83-.28-1.24-.19-.83-.39-1.69-.63-2.53-1-3.43-3.17-5.3-6.53-5.57l-.88-.07c-2.25-.19-4.59-.39-6.86-.36-7.15.06-12.84,2.68-16.88,7.77A4.8,4.8,0,0,1,429.78,63c-7.84-.37-13.35,3.23-15.47,10.18-.07.21-.13.43-.19.65a6.73,6.73,0,0,1-.76,2,1.86,1.86,0,0,1-1.26.56,1.94,1.94,0,0,1-.38-1c1.53-5.72,3.58-10,8.6-12.39A22.89,22.89,0,0,1,430,61a4.38,4.38,0,0,0,2.57-1.15c.66-.57,1.27-1.2,1.85-1.81a21.13,21.13,0,0,1,2.36-2.21c4.61-3.51,10.25-5,17.23-4.61,3.36.2,4-.25,5-3.47a9,9,0,0,0,.25-2.43v-.17c.08-5-1.79-9.62-5.9-14.46a11.85,11.85,0,0,0-8.76-4.45c-3.94-.2-3.94-.2-4.31-3.89-.71-7-4.51-12.18-11.3-15.36-8.43-3.95-15.75-5.53-23-5-10.14.74-17.55,5.78-22.68,15.4l-.22.42.4.25,1.08.62a17.56,17.56,0,0,1,2,1.28c2.83,2.17,5.59,4.31,8.25,6.62.16.13.19.74.21,1.15,0,.08,0,.17,0,.25h-.2a3.09,3.09,0,0,1-1.38-.23,5.94,5.94,0,0,1-1.29-1.19,11.66,11.66,0,0,0-.93-.93c-5.19-4.49-9.89-7-14.81-7.91-9.33-1.73-17.51-2-25-.77-8.21,1.33-17.4,3.52-22.58,12.81-2.46,4.41-5,9.63-4.21,15.78a3.93,3.93,0,0,1-.77,2.73c-4.1,4.72-5.93,10.57-5.59,17.86,0,.66,0,1.32,0,2,0,3.44.06,7,3.35,9.64a1.34,1.34,0,0,1,.44.81,11.88,11.88,0,0,1-.11,1.76s0,0,0,.07l-.16-.07a3.08,3.08,0,0,1-1.26-.76c-2.59-3.73-5.95-5.14-10-4.19a6.61,6.61,0,0,1-4.83-.65c-5-2.46-10-.76-12.57,4.22a2.52,2.52,0,0,0-.15.34,1.69,1.69,0,0,1-.12.27c-.26.49-.54.77-.82.83a1.58,1.58,0,0,1-1.18-.47,11.71,11.71,0,0,0-9.82-2.41,10.87,10.87,0,0,0-7.24,6.06c-.87,1.77-1.67,1.86-3.59,1.65a66.9,66.9,0,0,0-10.87-.34,7.55,7.55,0,0,0-6.13,3.89c-1.8,3.07-1.19,10.31,1.12,13.13,1.65,2,1.65,2-.29,3.93a25,25,0,0,0-7.13,11.68,45,45,0,0,0-.63,17.74,20.62,20.62,0,0,0,8.72,14c5.58,4.11,12.15,6.9,21.31,9.06l.74.13c1.38.21,2,.41,1.85,1.39s-.68,1-2,.9c-.29,0-.59,0-.83,0-5.41,0-9.65,1.91-12.61,5.6-3.43,4.27-5.67,10.68-1.65,15.83.89,1.13,1.83,2.23,2.75,3.3s1.83,2.16,2.7,3.27a6.81,6.81,0,0,1,.85,1.66c0,.15.11.29.17.43l-.36.18a4.54,4.54,0,0,1-1.56.6c-1.16.1-2.37.11-3.53.11-.92,0-1.86,0-2.8.07-3.54.19-6.18,1.3-7.86,3.3s-2.35,4.86-1.94,8.46a4.47,4.47,0,0,1-.33,1.74l-.15.44-.38-.1a4.76,4.76,0,0,1-1.57-.58c-5.33-3.79-11.34-7.3-19.18-7.34-7.64,0-16.52.64-24.26,6.05-2.53,1.77-4.87,3.62-5.72,6.68-1.22,4.4-2.09,10.11,2.06,15.28a3,3,0,0,1,.2,1.62c0,.1,0,.21,0,.31l-.15,0a2.74,2.74,0,0,1-1.26-.6,6.52,6.52,0,0,0-6.08-2.88l-6.57.16a15,15,0,0,0-10.61,4.33c-2.05,2.11-3.89,1.94-6.45,1.45-7.44-1.42-18.26-2.22-26.49,7.11a5,5,0,0,1-4.45,1.63c-4.36-.21-9.52-.41-14.75-.3a28.71,28.71,0,0,0-7.94,1.18c-8.16,2.5-12.47,9.51-11,17.85.11.62.06,1.07-.14,1.24s-.73.2-1.44,0c-1.07-.29-2.14-.61-3.2-.93a61.72,61.72,0,0,0-9.13-2.23c-8.35-1.16-15.74-1.88-22.57-2.19a50.52,50.52,0,0,0-28.1,6.73c-.9.53-1.82,1-2.73,1.54-4.12,2.29-8.38,4.65-11.4,8.74a2.63,2.63,0,0,1-.91.18l-.22,0c0-.08,0-.17-.05-.26a2.15,2.15,0,0,1,0-1.12,24.43,24.43,0,0,1,2.15-2.84c.41-.49.85-1,1.33-1.63l.59-.74-4.13-.31-5.86-.43c-5.65-.41-10.24,1.82-14,6.81a15.91,15.91,0,0,0-2.46,15.44,14.92,14.92,0,0,0,11.51,9.37,57,57,0,0,0,8.26.71c1.28.05,2.58.09,3.88.18l.54,0v-.54c0-.74,0-1.43,0-2.07a27,27,0,0,1,.07-3.65,9.13,9.13,0,0,0,0-.93c0-.67,0-1.43.32-1.72a1,1,0,0,1,.82-.14,1,1,0,0,1,.73.32c.28.37.14,1.14,0,1.83a7.65,7.65,0,0,0-.13.89c-.54,6.66,1.74,11.75,7,15.57,5.93,4.3,13,5.84,21.74,4.69a10.26,10.26,0,0,0,5.56-2.52,67.84,67.84,0,0,0,5.41-6.25c.62-.79,1.25-1.58,1.89-2.36a7.11,7.11,0,0,0,.59-.88,3.94,3.94,0,0,1,.79-1,1.05,1.05,0,0,1,1.1-.23.53.53,0,0,1,.21.58c-.33,2.81,1.39,4.21,3.29,5.31,5.21,3,10.83,5.69,17.39,2.78.23-.11.81.11,1.26.29l.26.1-.1.17a2.84,2.84,0,0,1-.81,1.09,12.78,12.78,0,0,1-9.54,1.09c-5.88-1.4-9.78-3.45-12.66-6.64l-.38-.42L70,303.32c-1.36,1.58-2.64,3.06-3.89,4.61a4.47,4.47,0,0,0-.76,2.12c-1.12,7.33,3.59,15.14,10.7,17.77a41.74,41.74,0,0,0,18.28,2.25,26.79,26.79,0,0,0,19.58-10.4,37.86,37.86,0,0,0,3.46-5.67c.56-1,1.13-2.12,1.74-3.14a3.2,3.2,0,0,1,1-1.1,2.54,2.54,0,0,1,1.36,1.22,13.94,13.94,0,0,1,.83,1.69,11,11,0,0,0,1.41,2.56,9,9,0,0,0,3.62,2.43c2,.78,3.87.18,5.3-1.74.13-.17.84-.22,1.27-.24l.29,0a.81.81,0,0,1,0,.16,3.35,3.35,0,0,1-.28,1.36c-.54.92-1.15,1.83-1.75,2.71-.69,1-1.42,2.09-2,3.2-2.3,4.16-1.65,7.51,2.1,10.87,6,5.4,13.48,8.11,22.8,8.29h.51c8,0,14.53-3.76,19.25-11.19a5.92,5.92,0,0,1,1.31-1.28l.35-.28.27.33a7.35,7.35,0,0,1,1.08,1.55c1.32,2.81,2.93,5.47,5.83,5.94,5.06.82,10.81,1,15.14-3.76a4.15,4.15,0,0,1,1.61-1.17,2.14,2.14,0,0,1,1,.07l.16,0v.25a2.23,2.23,0,0,1-.15,1,11.25,11.25,0,0,1-3,2.75c-3.1,1.6-2.49,4-1.68,6.15a9.26,9.26,0,0,0,1.49,2.7c7.7,9,16.78,14.46,27,16.11a88.42,88.42,0,0,0,16,.58l3.26-.07c2.74-.05,5-1.5,7.3-3,.46-.31.93-.61,1.4-.91l.66-.41-.65-.43c-5.23-3.41-8.85-8.13-12.35-12.69-1.25-1.64-2.54-3.33-3.89-4.93a34.14,34.14,0,0,1-3.41-5.23,2.14,2.14,0,0,1,0-1.05c0-.06,0-.13,0-.19h.24a2.26,2.26,0,0,1,1.11.22,9.65,9.65,0,0,1,1.42,1.8c.23.34.46.68.7,1,.95,1.26,1.87,2.55,2.79,3.83a91.42,91.42,0,0,0,6.57,8.44c10.43,11.4,23.09,16.87,37.54,16.3a8,8,0,0,0,.9-.1c.7-.1,1.56-.23,1.91.09a1.09,1.09,0,0,1,.25.85,1,1,0,0,1-.28.76c-.44.39-1.46.3-2.29.23l-.62,0c-3.93-.2-7.78-.48-11.85-.78l-4.42-.31-.44,0-.09.43c-.74,3.64.91,7.19,2.53,10.23A47,47,0,0,0,281,389.84c9.11,7.73,16.77,12.37,24.83,15.05,7,2.34,15.11,2.94,24.67,1.84a40.19,40.19,0,0,0,6.48-1.49c.84-.25,1.64-.48,2.4-.68l.46-.11-.82-4.18c-.75-3.82-1.47-7.44-2.08-11.08,0-.24.29-.71.56-1.09l.12-.19.08.08a5.45,5.45,0,0,1,1,1.16,2.71,2.71,0,0,1,.2,1.14c0,.14,0,.28,0,.42.8,11,6.56,19.12,18.11,25.65,4.33,2.45,9.09,2.86,13.17,2.93,2.06,0,2.66.57,2.92,2.63a18.41,18.41,0,0,0,2.48,7.38A125.42,125.42,0,0,0,385.94,444a66.88,66.88,0,0,0,11.94,11.16c6.58,4.67,14.46,7.52,24.11,8.71a48.67,48.67,0,0,0,5.88.38,29.33,29.33,0,0,0,17.45-5.19,2.91,2.91,0,0,1,2.43.15c2.8,1.79,6.56,3.88,10.93,4.15a69.91,69.91,0,0,0,9.77-.22c13-1,22.66-8.12,30.37-22.34,3.23-6,4.15-13.39,2.74-22l-.08-.48c-.78-4.8-1.67-10.23-7.61-12.34a3.31,3.31,0,0,1-.24-.75c0-.07,0-.14,0-.2l.26-.11a2.81,2.81,0,0,1,1.21-.3c1.93.28,3.89.61,5.78.93,3.22.54,6.55,1.11,9.86,1.41,5.2.47,9.89-1.61,13.55-6a29.53,29.53,0,0,0,1.76-2.44c.52-.78,1.07-1.6,1.67-2.33a2.46,2.46,0,0,1,1.09-.5l.2-.06a1.72,1.72,0,0,0,.07.21,2.3,2.3,0,0,1,.18,1.13,18.25,18.25,0,0,1-2,3.41A19.55,19.55,0,0,1,516.9,408l-.8.26.61.58,1.41,1.35c.9.89,1.76,1.72,2.67,2.46s1.78,1.5,2.66,2.27a35.9,35.9,0,0,0,7.27,5.34c8.65,4.32,18.13,2.34,25.34-5.31a2.93,2.93,0,0,1,4-.74l1.1.54a32,32,0,0,0,6.51,2.59,70,70,0,0,0,25.87,1.09q1.17-.15,2.37-.27a23.15,23.15,0,0,0,6.85-1.41c8.55-3.74,15.11-8.95,19.48-15.48a36.38,36.38,0,0,0,3.56-7.79c.26-.73.52-1.46.8-2.18a3,3,0,0,0-.88-2.8,38.49,38.49,0,0,0-3.79-2.87l-.79-.55c-6.27-4.41-10.54-8.91-13.45-14.18-.43-.78-.92-1.55-1.35-2.23l-.54-.86-.21-.33-.37.12c-10.77,3.55-20.35,2.29-29.31-3.84a2.64,2.64,0,0,1-.56-1.27,2.17,2.17,0,0,0-.07-.24l.24,0a2.48,2.48,0,0,1,1.34,0,30.52,30.52,0,0,0,21.47,5.14,19.41,19.41,0,0,0,3.82-.95c.5-.16,1-.32,1.44-.44l.48-.13-.13-.49c-.37-1.31-.75-2.56-1.12-3.78a66.69,66.69,0,0,1-2-7.6A70.43,70.43,0,0,1,600,345c0-.72-.06-1.43-.1-2.15l0-.35c0-.76-.11-1.7.26-2.1a1,1,0,0,1,.76-.24,1,1,0,0,1,.76.24c.28.32.19,1.07.11,1.73,0,.26-.06.52-.07.75A45.73,45.73,0,0,0,612.92,375c3.26,3.89,7.45,7.06,11.51,10.13l1,.75c6.85,5.21,15,7.74,25,7.76a8,8,0,0,1,4.43,1.5,40.13,40.13,0,0,0,23.19,8.3c2.28.06,4.6,0,6.85,0,2.65,0,5.4-.05,8.1.06a32.31,32.31,0,0,0,18.36-5c15.3-9.19,20.57-25,13.76-41.19-.92-2.18-2.19-4.44-5.62-3.78a3,3,0,0,1-1.3-.23l-.7-.2-3.91-.91-1.58-.37-.16.41c-.29.78-.56,1.54-.82,2.29a46.94,46.94,0,0,1-1.73,4.43,13.11,13.11,0,0,1-7.52,7.06,13.53,13.53,0,0,1-10.45-.91,12,12,0,0,1-3.2-2.19,2.46,2.46,0,0,1-.34-1.25l0-.21h.16a4.06,4.06,0,0,1,1.45.18,6.69,6.69,0,0,1,1.32.85,9.7,9.7,0,0,0,1.3.85c5,2.53,11.65,1.46,13.92-2.25a31.88,31.88,0,0,0,3.51-8.43c.46-1.76.77-2.64,1.29-2.91s1.26-.11,2.81.45a22.39,22.39,0,0,0,19.22-1.45c9.89-5.4,15.52-14,16.74-25.61C750.24,315.47,748.8,307.91,745,300ZM347.21,343a3.5,3.5,0,0,1,1.48.43,23,23,0,0,1,2,1.81,17.25,17.25,0,0,0,3.19,2.58,71.92,71.92,0,0,0,10.9,5.13,57.25,57.25,0,0,0,27.21,3c9.58-1.21,15.26-6.92,20.86-15.13l.31-.45-.48-.27c-7.59-4.18-11.38-10.82-14.34-17.36a5.47,5.47,0,0,0-2-1.95l-.23-.16c-.66-.45-1.35-.86-2-1.25a22.44,22.44,0,0,1-3.05-2,10,10,0,0,1-3.81-7.53l0-.74-.68.3c-16.35,7.06-31.7,5.71-46.95-4.13l-1.59-1,.87,1.68c.19.36.37.73.54,1.09a17.28,17.28,0,0,0,1.32,2.42c2.68,3.89,3.9,8.6,3.73,14.39a175.59,175.59,0,0,1-1.92,19.05c-.6,4.25-3.48,7.42-6.51,10.21a3.82,3.82,0,0,0-1.26,2.06c-.76,6.39-6.18,12-12.34,12.84-3.94.52-8,.79-11.91,1l-4.85.35a3,3,0,0,1-1.41-.09,1.89,1.89,0,0,1-.84-1,1.75,1.75,0,0,1,.78-.69,2.48,2.48,0,0,1,.85-.1h.27c.26,0,.52,0,.76,0,1.55-.13,3.1-.23,4.65-.33,3.59-.24,7.31-.48,10.94-1,5-.7,8.68-3.75,10.71-8.85a1.71,1.71,0,0,0,.07-.18,1.39,1.39,0,0,0,.19-1c-.74-2.36.56-3.4,2.2-4.72.29-.23.59-.47.88-.72a13.92,13.92,0,0,0,5.18-9c.15-1.37.32-2.74.49-4.11.54-4.48,1.1-9.11,1.28-13.69.32-8.25-3.92-15-7.92-20.65-.18-.25-.4-.5-.63-.76-1-1.07-1.39-1.67-.4-2.65s1.87-.55,3.12.34c.23.16.45.32.67.46,1.27.8,2.53,1.68,3.75,2.54a51.48,51.48,0,0,0,7.33,4.54c11.78,5.6,23.49,5.82,34.81.67a56.22,56.22,0,0,0,9.46-5.93c1.25-.91,2.54-1.84,3.83-2.71a7.34,7.34,0,0,0,.59-.46c.36-.3.76-.63,1-.6s.36.22.48.36a2.7,2.7,0,0,1-.67,1.92,84.47,84.47,0,0,1-7.61,5.52,2.72,2.72,0,0,0-1.51,3,10.12,10.12,0,0,0,6.09,8.47,11.23,11.23,0,0,1,6,6c2.12,4.88,5.38,10.88,11.86,14a35.24,35.24,0,0,0,10,3.18,70.15,70.15,0,0,0,13.44.53,40.65,40.65,0,0,0,6.42-1c1.32-.28,2.68-.56,4-.75a3.38,3.38,0,0,1,2.41.42c5.55,7.92,13.46,12.19,23.63,16.17,12.52,4.89,26.6,6.83,44.34,6.13,4.73-.19,8.82-2,12.19-3.83l.49-.25a16,16,0,0,1,2.9-1.31,2.24,2.24,0,0,1,.91.35l.21.11a2.25,2.25,0,0,0-.08.24c-.12.34-.27.8-.43.89-5.22,2.89-11.36,5.94-18.52,5.81l-4.41-.07c-7.91-.1-16.08-.21-23.92-2-10.18-2.39-21.94-5.9-32-13.8a30.08,30.08,0,0,1-3.55-3.5c-.68-.75-1.39-1.53-2.12-2.25-.34-.33-1.49-1.21-2.28-.89-5.16,2-10.62,1.72-15.91,1.42l-1.83-.1a73.72,73.72,0,0,1-8-1c-1.54-.24-3.14-.5-4.72-.69a2.94,2.94,0,0,0-2.22.89c-1.21,1.35-2.39,2.73-3.57,4.11-1.63,1.9-3.31,3.87-5,5.72-3,3.18-7.18,4.28-10.89,4.94-14.93,2.64-29.32-.32-42.77-8.79a20.47,20.47,0,0,1-4.28-4.1,2.7,2.7,0,0,1-.3-1.35,1.09,1.09,0,0,1,0-.18Zm138.7-53.46c-.22.55-.44,1.12-.75,1.29-4.75,2.58-10.26,3.7-16.84,3.42-7.68-.53-16.52-1.46-24.41-5.86a7.59,7.59,0,0,0-.75-.34c-.52-.22-1.12-.48-1.24-.82a1,1,0,0,1,.15-.75,1,1,0,0,1,.53-.54c.45-.14,1.11.23,1.7.55l.45.25a53.76,53.76,0,0,0,30.85,5.17,23.42,23.42,0,0,0,5.55-1.57c1-.38,2.09-.77,3.13-1.07a4.15,4.15,0,0,1,1.57,0l.15,0ZM523.49,308c.38-.48.8-1,1.19-1,.18,0,.41.1.67.34a1.08,1.08,0,0,1,.41.74c0,.48-.58,1-1.1,1.5a7.66,7.66,0,0,0-.57.57c-3.78,4.11-8.86,6.59-15.53,7.61a38,38,0,0,1-15.1-3.86l-.27-.13a2.06,2.06,0,0,1-.84-.53,6.42,6.42,0,0,1-.58-1.49l0-.11.17,0a3.27,3.27,0,0,1,1.39,0c1.25.43,2.51.93,3.74,1.42a42.68,42.68,0,0,0,6.48,2.22c6.82,1.56,13.15-.55,19.34-6.45A7.88,7.88,0,0,0,523.49,308Zm15.16,35.28c.27-.38.61-.85.84-.89a19.34,19.34,0,0,0,10.41-5.75,4,4,0,0,1,2.89-.55c7.36,1.06,16,1.94,24.55.47,9.3-1.61,16.63-7.15,21.77-16.48,3.72-6.75,4.53-14.41,2.54-24.12-.43-2.09,0-3.05,1.88-3.92a57.52,57.52,0,0,0,8.29-4.77c7.51-5.25,11.36-12.72,11.43-22.22.07-7.88-.49-16.24-4.93-23.93l-.05-.09a1.86,1.86,0,0,1-.28-.6,8.22,8.22,0,0,1,.45-1.44l0-.11.18.07c.33.12.78.29.87.46,2.33,4.59,4.74,9.34,5.07,14.71.06,1,.14,2,.22,3.07a61,61,0,0,1,.14,11.54c-1,8.55-4.88,15.2-11.54,19.76-1.55,1.06-3.22,2-4.83,2.94-1.21.69-2.47,1.42-3.68,2.18a3,3,0,0,0-1.22,2.26c.18,5.53.41,10.05.73,14.25a6.28,6.28,0,0,0,1.38,3.69c10.59,10.29,21.9,14.14,34.57,11.77l.41-.1a1.64,1.64,0,0,1,.63-.1,5.91,5.91,0,0,1,1.22.75l.12.09-.1.14c-.24.35-.48.7-.72.79a12.19,12.19,0,0,1-2.61.51l-.62.07c-11.53,1.51-22-1.8-31.21-9.83-.72-.64-1.45-1.22-2.29-1.89l-1.31-1.05-.57-.47-.22.7a33.86,33.86,0,0,1-9.89,15.54A31.66,31.66,0,0,1,570.53,339c-5.17-.19-10.56-.51-16.48-1a5,5,0,0,0-4.64,1.5c-2.2,2.42-5.23,3.86-9.55,4.53a2.55,2.55,0,0,1-1.16-.48l-.2-.12ZM137.3,306.8a7.22,7.22,0,0,1,.22-1.88.94.94,0,0,1,.63-.05c.23.12.35.59.47,1a4.54,4.54,0,0,0,.4,1.14c.31.55.62,1.11.92,1.68a18.8,18.8,0,0,0,3.35,5l1.47,1.41c2.9,2.81,5.9,5.72,9.47,7.09,13.53,5.2,25.85,3.23,34.68-5.55a13.79,13.79,0,0,0,1.23-1.44,10.47,10.47,0,0,1,1.41-1.6,3.64,3.64,0,0,1,1.42-.56l.19-.05,0,.21a2.56,2.56,0,0,1-.09,1.26A28.92,28.92,0,0,1,177,325.75a30,30,0,0,1-5,.9l-1.38.18c-1.35-.09-2.68-.15-4-.21-5.52-.26-10.3-.48-14.5-3.12-5.82-3.65-11.62-8-14.67-14.84l0-.13a1.79,1.79,0,0,1-.22-.7C137.27,307.53,137.28,307.17,137.3,306.8Z"/><path d="M751.34,322.58a42.88,42.88,0,0,0-3.77-21.4c-2-4.27-4-6.81-7-8.51a2.47,2.47,0,0,1-1.39-3.14,17.81,17.81,0,0,0,.47-1.88l.11-.5c2.12-9.5.91-16.76-3.81-22.86-.31-.4-.61-.82-.92-1.24a15.07,15.07,0,0,0-2.72-3.14c-.81-.64-1.67-1.24-2.49-1.83a35.59,35.59,0,0,1-4.92-4c-4.17-4.23-9.81-6.24-16.83-6-2.26.08-4.55.26-6.76.43l-3,.23-.57,0,0-.57c0-.66.14-1.33.23-2a14,14,0,0,0,.14-4.27c-.78-4.11.53-7.2,2.73-10.57,3.94-6,4.39-12.82,3.85-21.16-.64-9.91-4.3-17.22-11.19-22.33-1.86-1.38-3.63-2.78-5.5-4.26l-2.55-2-.53-.41,1.13-.78c.38-.26.76-.51,1.11-.78,4.36-3.32,8.37-6.75,9.63-12.08,4.73-20.13.45-35.86-13.09-48.1-9.21-8.32-20.33-11.2-33.06-8.58-7.65,1.58-13.52,7.12-18.72,12.87a66.67,66.67,0,0,0-6,8.1c-.89,1.35-1.81,2.74-2.79,4.14l-.15.21H611.45l-.08-.41c-2.1-10.88-9.31-17.62-20.85-19.49-10.87-1.76-20,2.43-26.52,12.11l-.25.37-.39-.2c-4.29-2.18-7.71-2.57-11.11-1.27a2,2,0,0,1-1.64-.41c-5.78-4.23-11.54-4.44-17.12-.61l-.3.2-5.12-4,.13-.34c0-.07,0-.14.07-.2a1.62,1.62,0,0,1,.19-.43c.23-.32.48-.62.73-.92,5.27-6.27,6.64-13.11,4.21-20.92a12.1,12.1,0,0,0-5.93-7.22l-.37-.21a34.19,34.19,0,0,0-4.42-2.18c-1.84-.69-2.36-1.8-2.65-3.49-.91-5.42-2.64-12.22-8-16.71-6.84-5.71-13.74-8.78-21.1-9.38-3.91-.33-7.08-.31-9.3,2.92l-.36.53-.43-.48c-3.21-3.58-7.13-4.36-12.36-2.44l-.56.21-.1-.6c-.79-4.82-3.3-7.83-7.46-8.95l-.47-.13.11-.47c.14-.58.3-1.14.45-1.68a13.93,13.93,0,0,0,.66-3.2,19.84,19.84,0,0,0-2.83-11.88c-3.36-5.25-6.95-10-13.92-10h-.11c-.89,0-1.81-1.32-2-2-.32-1-.55-2-.77-3A18.58,18.58,0,0,0,440,14.85c-2.72-5.27-7.38-9-14.25-11.29A76.62,76.62,0,0,0,415.57.75c-8.1-1.56-15.05-.7-21.27,2.61a27.85,27.85,0,0,0-11.75,11.52l-.06.1c-.48.9-1,1.91-2.83,1.57a113.92,113.92,0,0,0-12.5-1.79c-6.26-.46-13.63-.67-20.79,1.27-7.5,2-15,5-19.21,12.86-2.61,4.88-5.1,10.15-4.48,16.27a4.31,4.31,0,0,1-.92,2.78,23.86,23.86,0,0,0-5.28,15.24c0,2.25,0,4.51,0,6.67V73l-.46,0c-.6,0-1.19.1-1.78.15-1.41.12-2.86.24-4.29.28a7.58,7.58,0,0,1-3.23-.47c-5.57-2.51-11.19-1-14.66,3.85a1,1,0,0,1-.49.32l-.21.11-.3-.07c-7.82-3.59-13.58-2.1-18.68,4.81-.62.84-2.17,1-2.81,1-1.36,0-2.73,0-4.06,0a41.75,41.75,0,0,0-7.34.27,8.36,8.36,0,0,0-7.44,7.07c-.95,5.23-.21,9.46,2.32,13.31l.24.36-.32.28c-8.29,7.52-10.91,17.74-8.25,32.17,2.39,12.93,12.83,17.72,25.21,22.24l1.26.46-1.25.48a18,18,0,0,0-11.75,13.06c-1.66,6.42,2,11.08,5.9,16l.71.9h-1c-10.34,0-15.56,3.94-15.9,12.23l0,.85-.72-.44-.87-.54c-.57-.36-1.11-.7-1.66-1-.72-.39-1.43-.83-2.12-1.25a16.24,16.24,0,0,0-4.77-2.3c-12.37-2.68-22.79-1.58-31.84,3.37-7.56,4.14-10.82,9.8-10,17.3.1.85.14,1.71.19,2.62,0,.45,0,.91.07,1.39l0,.53h-3.5c-2.16,0-4.2,0-6.26,0a16.94,16.94,0,0,0-11.2,4.55c-1.63,1.49-3.1,1.58-5.08,1.22-12.6-2.26-21.23,0-28,7.31a5.18,5.18,0,0,1-3.54,1.28c-2.28,0-4.59,0-6.83-.07-2.8-.06-5.71-.12-8.56-.05a26.55,26.55,0,0,0-7.64,1.2c-7.77,2.58-11.76,7.3-12.19,14.45a12.78,12.78,0,0,1-.43,2.22c-.1.36-.2.74-.29,1.14l-.1.46-.47-.08-.78-.12c-.54-.08-1-.16-1.53-.28-.89-.21-1.76-.46-2.64-.7a35.1,35.1,0,0,0-5.24-1.18l-2.15-.26c-6.81-.81-13.85-1.65-20.79-2-9.47-.43-17.34,1-24.07,4.29-2.38,1.18-4.77,2.46-7.08,3.7-1.85,1-3.69,2-5.56,2.92a5.13,5.13,0,0,1-2.78.47c-1.42-.18-2.86-.42-4.25-.65-2-.33-4.12-.67-6.18-.84-6-.49-11,1.92-15.17,7.35A18,18,0,0,0,.79,285.2a16.72,16.72,0,0,0,11.08,11.09c4.47,1.41,9.68,2.68,14.89-.15l.58-.31.15.64c1.57,6.74,6.13,11.24,14.34,14.16a28.57,28.57,0,0,0,20.64-.06l.59-.23.09.63c0,.14,0,.25.05.35a3.06,3.06,0,0,1,.06.56,18.8,18.8,0,0,0,12.6,17.88,43.73,43.73,0,0,0,18.76,2.15,29.34,29.34,0,0,0,21-11.27,41.77,41.77,0,0,0,2.89-4.33q.69-1.15,1.47-2.37l.51-.8.37.87c1.66,3.93,4.18,5.77,7.93,5.78h.79l-.9,1.89c-.35.74-.67,1.41-1,2.09a8.42,8.42,0,0,0,1.35,9.44,29,29,0,0,0,7.31,6.09A38.66,38.66,0,0,0,155,344.14c7.87.1,14.22-2.94,19.5-9.32.24-.29.5-.57.83-.92l1.13-1.24.32.67c3.66,7.65,10.09,6.68,16.31,5.75l.39-.06.15.37c.3.76.54,1.51.77,2.24a12.73,12.73,0,0,0,1.72,3.91,46.34,46.34,0,0,0,15.42,13.13,52.79,52.79,0,0,0,27.15,5.71c5.17-.21,11.12-1,16-5.36l.25-.21.29.13c.75.34,1.47.69,2.18,1,1.57.76,3.05,1.47,4.59,2,2.17.79,3,2,3.06,4.44a21.11,21.11,0,0,0,1.35,7.29,37,37,0,0,0,11.48,15.73,203.21,203.21,0,0,0,18.13,13,37.7,37.7,0,0,0,12.56,5.1c10,1.83,21.7,3,33-2.05l.37-.17.24.34c7.43,10.4,16.59,15.47,28,15.47h.91v.51c0,4.58,2.16,8.08,4.57,11.55.59.84,1.17,1.69,1.75,2.54a106.25,106.25,0,0,0,7.87,10.55,59.12,59.12,0,0,0,11.23,10.25A55.18,55.18,0,0,0,430,466h.18c3.52-.16,7.16-.32,10.27-2.33s7.21-3.85,11.34,0a.9.9,0,0,0,.27.1l.17.05c9.46,3,19.08,2.28,29.41-2.32,5-2.23,8.52-6.07,12.24-10.14l1-1.06c7.52-8.16,10.2-18.53,8.43-32.64a29.69,29.69,0,0,0-1.61-5.9c-.31-.9-.63-1.8-.9-2.7l-.2-.67,3.48.15c3.07.13,6.25.26,9.38.44a2.87,2.87,0,0,1,1.6.91c.63.58,1.24,1.18,1.85,1.79,1,1,2.11,2.08,3.24,3,.8.64,1.59,1.31,2.38,2a38.7,38.7,0,0,0,7.45,5.4c8.85,4.41,19.09,2.52,26.72-4.94a2.75,2.75,0,0,1,3.67-.59l.32.15a31.66,31.66,0,0,0,6.27,2.5,73,73,0,0,0,26.63,1.23l2.05-.26c4.2-.52,8.55-1.05,12.21-3.61.91-.63,1.83-1.24,2.76-1.85,1.44-.95,2.93-1.94,4.33-3,6.18-4.7,10.24-9.85,12.41-15.74.39-1.06.74-2.13,1.11-3.29l.6-1.8.2-.61.54.35c6.69,4.37,14.32,4.64,21.06,4.89a5.94,5.94,0,0,1,2.51.93l.35.19c1.3.7,2.61,1.46,3.87,2.2a62.81,62.81,0,0,0,7.8,4.07c7,2.86,14.55,2.77,21.85,2.68,1.47,0,2.94,0,4.41,0h.2c7.66,0,13.8-1.48,19.31-4.66,15.44-8.92,21.5-22.54,17.52-39.38a28.63,28.63,0,0,0-1.84-4.92c-.34-.76-.68-1.52-1-2.29l-.18-.46.46-.19,2.27-.91a50.07,50.07,0,0,0,4.77-2.06C744.17,344.88,750.3,335.45,751.34,322.58ZM732.7,348.77a22.39,22.39,0,0,1-19.22,1.45c-1.55-.56-2.36-.69-2.81-.45s-.83,1.15-1.29,2.91a31.88,31.88,0,0,1-3.51,8.43c-2.27,3.71-8.9,4.78-13.92,2.25a9.7,9.7,0,0,1-1.3-.85,6.69,6.69,0,0,0-1.32-.85,4.06,4.06,0,0,0-1.45-.18h-.16l0,.21a2.46,2.46,0,0,0,.34,1.25,12,12,0,0,0,3.2,2.19,13.53,13.53,0,0,0,10.45.91,13.11,13.11,0,0,0,7.52-7.06,46.94,46.94,0,0,0,1.73-4.43c.26-.75.53-1.51.82-2.29l.16-.41,1.58.37,3.91.91.7.2a3,3,0,0,0,1.3.23c3.44-.66,4.7,1.6,5.62,3.78,6.81,16.22,1.54,32-13.76,41.19a32.33,32.33,0,0,1-18.36,5c-2.69-.11-5.44-.08-8.1-.06-2.25,0-4.57,0-6.85,0a40.13,40.13,0,0,1-23.19-8.3,8,8,0,0,0-4.43-1.5c-9.95,0-18.12-2.55-25-7.76l-1-.75c-4.06-3.07-8.25-6.24-11.51-10.13a45.73,45.73,0,0,1-11.18-32.13c0-.23,0-.49.07-.75.08-.66.17-1.41-.11-1.73a1,1,0,0,0-.76-.24,1,1,0,0,0-.76.24c-.37.4-.31,1.34-.26,2.1l0,.35c0,.72.07,1.43.1,2.15a70.43,70.43,0,0,0,.81,9.06,66.69,66.69,0,0,0,2,7.6c.37,1.22.75,2.47,1.12,3.78l.13.49-.48.13c-.46.12-.94.28-1.44.44a19.41,19.41,0,0,1-3.82.95,30.52,30.52,0,0,1-21.47-5.14,2.48,2.48,0,0,0-1.34,0l-.24,0a2.17,2.17,0,0,1,.07.24,2.64,2.64,0,0,0,.56,1.27c9,6.13,18.54,7.39,29.31,3.84l.37-.12.21.33.54.86c.43.68.92,1.45,1.35,2.23,2.91,5.27,7.18,9.77,13.45,14.18l.79.55a38.49,38.49,0,0,1,3.79,2.87,3,3,0,0,1,.88,2.8c-.28.72-.54,1.45-.8,2.18a36.38,36.38,0,0,1-3.56,7.79c-4.37,6.53-10.93,11.74-19.48,15.48a23.15,23.15,0,0,1-6.85,1.41q-1.2.12-2.37.27a70,70,0,0,1-25.87-1.09,32,32,0,0,1-6.51-2.59l-1.1-.54a2.93,2.93,0,0,0-4,.74c-7.21,7.65-16.69,9.63-25.34,5.31a35.9,35.9,0,0,1-7.27-5.34c-.88-.77-1.76-1.54-2.66-2.27s-1.77-1.57-2.67-2.46l-1.41-1.35-.61-.58.8-.26a19.55,19.55,0,0,0,10.32-7.71,18.25,18.25,0,0,0,2-3.41,2.3,2.3,0,0,0-.18-1.13,1.72,1.72,0,0,1-.07-.21l-.2.06a2.46,2.46,0,0,0-1.09.5c-.6.73-1.15,1.55-1.67,2.33a29.53,29.53,0,0,1-1.76,2.44c-3.66,4.42-8.35,6.5-13.55,6-3.31-.3-6.64-.87-9.86-1.41-1.89-.32-3.85-.65-5.78-.93a2.81,2.81,0,0,0-1.21.3l-.26.11c0,.06,0,.13,0,.2a3.31,3.31,0,0,0,.24.75c5.94,2.11,6.83,7.54,7.61,12.34l.08.48c1.41,8.65.49,16.07-2.74,22-7.71,14.22-17.36,21.32-30.37,22.34a69.91,69.91,0,0,1-9.77.22c-4.37-.27-8.13-2.36-10.93-4.15a2.91,2.91,0,0,0-2.43-.15,29.33,29.33,0,0,1-17.45,5.19,48.67,48.67,0,0,1-5.88-.38c-9.65-1.19-17.53-4-24.11-8.71A66.88,66.88,0,0,1,385.94,444a125.42,125.42,0,0,1-10.33-14.69,18.41,18.41,0,0,1-2.48-7.38c-.26-2.06-.86-2.6-2.92-2.63-4.08-.07-8.84-.48-13.17-2.93-11.55-6.53-17.31-14.68-18.11-25.65,0-.14,0-.28,0-.42a2.71,2.71,0,0,0-.2-1.14,5.45,5.45,0,0,0-1-1.16l-.08-.08-.12.19c-.27.38-.6.85-.56,1.09.61,3.64,1.33,7.26,2.08,11.08l.82,4.18-.46.11c-.76.2-1.56.43-2.4.68a40.19,40.19,0,0,1-6.48,1.49c-9.56,1.1-17.63.5-24.67-1.84-8.06-2.68-15.72-7.32-24.83-15.05A47,47,0,0,1,269.49,376c-1.62-3-3.27-6.59-2.53-10.23l.09-.43.44,0,4.42.31c4.07.3,7.92.58,11.85.78l.62,0c.83.08,1.85.17,2.29-.23a1,1,0,0,0,.28-.76,1.09,1.09,0,0,0-.25-.85c-.35-.32-1.21-.19-1.91-.09a8,8,0,0,1-.9.1c-14.47.57-27.11-4.91-37.54-16.3a91.42,91.42,0,0,1-6.57-8.44c-.92-1.28-1.84-2.57-2.79-3.83-.24-.33-.47-.67-.7-1a9.65,9.65,0,0,0-1.42-1.8,2.15,2.15,0,0,0-1.11-.22h-.24c0,.06,0,.13,0,.19a2.14,2.14,0,0,0,0,1.05,34.14,34.14,0,0,0,3.41,5.23c1.35,1.6,2.64,3.29,3.89,4.93,3.5,4.56,7.12,9.28,12.35,12.69l.65.43-.66.41c-.47.3-.94.6-1.4.91-2.35,1.53-4.56,3-7.3,3l-3.26.07a88.42,88.42,0,0,1-16-.58c-10.21-1.65-19.29-7.07-27-16.11a9.26,9.26,0,0,1-1.49-2.7c-.81-2.14-1.42-4.55,1.68-6.15a11.25,11.25,0,0,0,3-2.75,2.23,2.23,0,0,0,.15-1v-.25l-.16,0a2.13,2.13,0,0,0-1-.07,4.15,4.15,0,0,0-1.61,1.17c-4.33,4.77-10.09,4.58-15.14,3.76-2.9-.47-4.51-3.13-5.83-5.94a7.35,7.35,0,0,0-1.08-1.55l-.27-.33-.35.28a5.92,5.92,0,0,0-1.31,1.28c-4.82,7.59-11.5,11.32-19.76,11.19-9.32-.18-16.77-2.89-22.8-8.29-3.75-3.36-4.4-6.71-2.1-10.87.61-1.11,1.34-2.17,2-3.2.6-.88,1.21-1.79,1.75-2.71a3.35,3.35,0,0,0,.28-1.36.81.81,0,0,0,0-.16l-.29,0c-.43,0-1.14.07-1.27.24-1.43,1.92-3.27,2.52-5.3,1.74a9,9,0,0,1-3.62-2.43,11,11,0,0,1-1.41-2.56,15.53,15.53,0,0,0-.82-1.69,2.58,2.58,0,0,0-1.37-1.22,3.2,3.2,0,0,0-1,1.1c-.61,1-1.18,2.1-1.74,3.14a37.86,37.86,0,0,1-3.46,5.67,26.79,26.79,0,0,1-19.58,10.4A41.74,41.74,0,0,1,76,327.82c-7.11-2.63-11.82-10.44-10.7-17.77a4.47,4.47,0,0,1,.76-2.12c1.25-1.55,2.53-3,3.89-4.61l1.85-2.15.38.42c2.88,3.19,6.78,5.24,12.66,6.64a12.78,12.78,0,0,0,9.54-1.09,2.84,2.84,0,0,0,.81-1.09l.1-.17-.26-.1c-.45-.18-1-.4-1.26-.29-6.56,2.91-12.18.22-17.39-2.78-1.9-1.1-3.62-2.5-3.29-5.31a.53.53,0,0,0-.21-.58,1.05,1.05,0,0,0-1.1.23,3.94,3.94,0,0,0-.79,1,7.11,7.11,0,0,1-.59.88c-.64.78-1.27,1.57-1.89,2.36a67.84,67.84,0,0,1-5.41,6.25,10.26,10.26,0,0,1-5.56,2.52c-8.7,1.15-15.8-.38-21.74-4.69-5.25-3.82-7.53-8.91-7-15.57a7.65,7.65,0,0,1,.13-.89c.12-.69.26-1.46,0-1.83a1,1,0,0,0-.73-.32,1,1,0,0,0-.82.14c-.32.29-.32,1.05-.32,1.72a9.13,9.13,0,0,1,0,.93,27,27,0,0,0-.07,3.65c0,.64,0,1.33,0,2.07v.54l-.54,0c-1.3-.09-2.6-.13-3.88-.18a57,57,0,0,1-8.26-.71,14.92,14.92,0,0,1-11.51-9.37A15.91,15.91,0,0,1,5.28,270.1c3.8-5,8.4-7.22,14-6.81l5.86.43,4.13.31-.59.74c-.48.61-.92,1.14-1.33,1.63a24.43,24.43,0,0,0-2.15,2.84,2.15,2.15,0,0,0,0,1.12c0,.09,0,.18.05.26l.22,0a2.63,2.63,0,0,0,.91-.18c3-4.09,7.28-6.45,11.4-8.74.91-.5,1.83-1,2.73-1.54a50.56,50.56,0,0,1,28.1-6.73c6.83.31,14.22,1,22.57,2.19a61.72,61.72,0,0,1,9.13,2.23c1.06.32,2.13.64,3.2.93.71.2,1.23.2,1.44,0s.25-.62.14-1.24c-1.5-8.34,2.81-15.35,11-17.85a28.71,28.71,0,0,1,7.94-1.18c5.23-.11,10.39.09,14.75.3a5,5,0,0,0,4.45-1.63c8.22-9.33,19-8.53,26.49-7.11,2.56.49,4.4.66,6.45-1.45a15,15,0,0,1,10.61-4.33l6.57-.16a6.52,6.52,0,0,1,6.08,2.88,2.74,2.74,0,0,0,1.26.6l.15,0c0-.1,0-.21,0-.31a3,3,0,0,0-.2-1.62c-4.15-5.17-3.28-10.88-2.06-15.28.85-3.06,3.19-4.91,5.72-6.68,7.74-5.41,16.62-6.1,24.26-6.05,7.84,0,13.85,3.55,19.18,7.34a4.76,4.76,0,0,0,1.57.58l.38.1.15-.44a4.47,4.47,0,0,0,.33-1.74c-.41-3.6.24-6.45,1.94-8.46s4.32-3.11,7.86-3.31c.94-.05,1.88-.05,2.8-.06,1.16,0,2.37,0,3.53-.11a4.54,4.54,0,0,0,1.56-.6l.36-.18c-.06-.14-.12-.28-.17-.43a6.81,6.81,0,0,0-.85-1.66c-.87-1.11-1.8-2.21-2.7-3.27s-1.86-2.17-2.75-3.3c-4-5.15-1.78-11.56,1.65-15.83,3-3.69,7.2-5.57,12.61-5.6.27,0,.54,0,.83,0,1.36.12,1.92.07,2-.9s-.47-1.18-1.85-1.39l-.74-.13c-9.16-2.16-15.73-4.95-21.31-9.06a20.62,20.62,0,0,1-8.72-14,45,45,0,0,1,.63-17.74,25,25,0,0,1,7.13-11.68c1.94-1.91,1.94-1.91.29-3.93-2.3-2.82-2.92-10.06-1.12-13.13a7.55,7.55,0,0,1,6.13-3.89,66.93,66.93,0,0,1,10.87.34c1.92.21,2.72.12,3.59-1.65a10.87,10.87,0,0,1,7.24-6.06A11.71,11.71,0,0,1,290.89,80a1.61,1.61,0,0,0,1.18.47c.28-.06.56-.34.82-.83a1.69,1.69,0,0,0,.12-.27,2.52,2.52,0,0,1,.15-.34c2.53-5,7.59-6.68,12.57-4.22a6.61,6.61,0,0,0,4.83.65c4.05-1,7.41.46,10,4.19a3.08,3.08,0,0,0,1.26.76l.16.07s0,0,0-.07a11.88,11.88,0,0,0,.11-1.76,1.34,1.34,0,0,0-.44-.81c-3.29-2.65-3.32-6.2-3.35-9.64,0-.67,0-1.33,0-2-.34-7.29,1.49-13.14,5.59-17.86a3.93,3.93,0,0,0,.77-2.73c-.8-6.15,1.75-11.37,4.21-15.77C334,20.51,343.21,18.32,351.42,17c7.49-1.21,15.67-1,25,.77,4.92.9,9.62,3.42,14.81,7.91a10.06,10.06,0,0,1,.92.93,6.21,6.21,0,0,0,1.3,1.19,3.09,3.09,0,0,0,1.38.23h.2c0-.08,0-.17,0-.25,0-.41,0-1-.21-1.15-2.66-2.31-5.42-4.45-8.25-6.62a17.56,17.56,0,0,0-2-1.28l-1.08-.62-.4-.25.22-.42C388.4,7.81,395.81,2.77,406,2c7.28-.53,14.6,1.05,23,5,6.79,3.18,10.59,8.35,11.3,15.36.37,3.69.37,3.69,4.31,3.89a11.83,11.83,0,0,1,8.76,4.46c4.11,4.83,6,9.42,5.9,14.45v.17a9,9,0,0,1-.25,2.43c-.95,3.22-1.61,3.67-5,3.47-7-.41-12.62,1.1-17.23,4.61a21.13,21.13,0,0,0-2.36,2.21c-.58.61-1.19,1.24-1.85,1.81A4.38,4.38,0,0,1,430,61a22.89,22.89,0,0,0-9.69,2c-5,2.38-7.07,6.67-8.6,12.39a1.94,1.94,0,0,0,.38,1,1.86,1.86,0,0,0,1.26-.56,6.73,6.73,0,0,0,.76-2c.06-.22.12-.44.19-.65,2.12-7,7.63-10.55,15.47-10.18a4.8,4.8,0,0,0,4.52-2.16c4-5.09,9.73-7.71,16.88-7.77,2.27,0,4.61.17,6.86.36l.88.07c3.36.27,5.56,2.14,6.53,5.57.24.84.44,1.7.63,2.53.09.41.18.82.28,1.24.21.87.56,1.42,1,1.56a1.87,1.87,0,0,0,1.6-.62,7.29,7.29,0,0,1,5.29-2,7.48,7.48,0,0,1,5,2.92c.92,1.09,1.6,1.8,2.11,1.8s1.12-.81,1.93-2a5.05,5.05,0,0,1,4.43-2.29c4.39-.05,7.95.29,11.27,2.14,1.05.58,2.12,1.14,3.2,1.7a48.14,48.14,0,0,1,8.67,5.35c4.56,3.83,6.17,9.69,7.32,14.87a3.2,3.2,0,0,1,0,1.07c0,.17,0,.36,0,.56l0,.48h-.48c-.43,0-.86,0-1.29,0a12.34,12.34,0,0,0-2.74.09,2.51,2.51,0,0,0-1,.8l-.15.15.19.16a3.21,3.21,0,0,0,1,.61c4.82-.59,8.72,1.58,12.49,3.67l1,.54a9.47,9.47,0,0,1,4.49,5.64c2.51,7.57.87,14.35-5,20.72a3.18,3.18,0,0,1-2.09.7,13.26,13.26,0,0,1-1.55,0,8.78,8.78,0,0,0-2,0,2.4,2.4,0,0,0-1,.72l-.12.12.2.17c.33.3.75.66,1,.66h0a12.18,12.18,0,0,1,8.34,2.74,14.64,14.64,0,0,1,2.39,2.55,1.74,1.74,0,0,0,1.12.83,2,2,0,0,0,1.36-.68c4.87-4.42,11.4-4.11,15.86.74a2.53,2.53,0,0,0,2.08.31,11,11,0,0,1,11.21,1.19c2,1.65,2,5.16-.08,7.68a7.33,7.33,0,0,0-.81,1.41l-.12.26.33.17a6.29,6.29,0,0,0,1.61.61,12.46,12.46,0,0,1,9.5,9.18,12.08,12.08,0,0,1-5,12.61q-.37.24-.75.45a11.25,11.25,0,0,0-2.15,1.51,2.46,2.46,0,0,0-.34,1.16c0,.09,0,.17,0,.26l.25.06a2.43,2.43,0,0,0,1.21.12c1-.34,1.89-.77,2.81-1.19a33.22,33.22,0,0,1,3.47-1.43,13.87,13.87,0,0,1,5.71-1,76.33,76.33,0,0,1,11.35,2.33,8.75,8.75,0,0,1,2.89,1.76,16.52,16.52,0,0,0,1.48,1.09,5.67,5.67,0,0,0,1.3.49l.13,0a2.74,2.74,0,0,1,.05-.28,2.88,2.88,0,0,0,.1-1.11,13.14,13.14,0,0,0-3.95-3.23,37.9,37.9,0,0,0-17.77-2.92l-.8.05.31-.74c1.52-3.63,2.82-7.94.93-12.35-2-4.68-4.87-7.33-9-8.36l-.58-.14.24-.55c1.54-3.48,1.5-6.26-.15-8.73l-.17-.26.15-.27a23.92,23.92,0,0,1,10-9.15,23.66,23.66,0,0,1,19.92-.8c9.38,3.65,14.33,11,14.71,22,0,.77,0,1.54,0,2.31,0,1.18,0,2.39.11,3.57A20.5,20.5,0,0,1,607.57,159l-.16.27a10.1,10.1,0,0,0-1.14,2.46,2.68,2.68,0,0,0,.17,1.25,1.8,1.8,0,0,0,0,.19l.24-.07c.36-.1.91-.24,1-.4,2.15-3.86,4.6-8.24,4.43-13.33,0-1,0-2.09,0-3.14,0-1.57,0-3.19-.13-4.77-.15-2.13.87-3.36,3-3.55,1.49-.14,3-.15,4.47-.17h1.23a2.29,2.29,0,0,1,1.85.59,2.55,2.55,0,0,1,.49,2,3.25,3.25,0,0,0,.56,1.49l.09.17.15-.15a3.29,3.29,0,0,0,.94-1.31,32.72,32.72,0,0,1,9-16c3.48-3.54,8.27-8,14.41-10.78a15.43,15.43,0,0,1,4.86-1.59c6.72-.6,14.54-.69,21.5,3.16a48.34,48.34,0,0,1,9.77,7.46c11.77,11,15.19,25.07,10.75,44.14-1.38,6-6.15,9.41-10.51,12.18-1.5,1-2.18,1.62-2.19,2.17s.68,1.32,2.25,2.43l1.3.91A71.52,71.52,0,0,1,696,192.71c5.75,5.86,6.77,13.63,7,19.74.39,9.5-1.8,16.73-6.9,22.77a2.82,2.82,0,0,0-.33,2.07c2.12,9.83-1.38,16.55-10.7,20.54a3.22,3.22,0,0,0-1,1.11l-.19.26.19.11a6.48,6.48,0,0,0,1.4.69c3.54,1,5.5,3.63,7.53,6.68,4.3,6.48,5.92,14.35,5,24.06a23.67,23.67,0,0,1-7.81,15.86c-2.25,2-4.74,3.73-7.14,5.44-1,.72-2,1.44-3,2.17a5.24,5.24,0,0,1-.75.44,2.36,2.36,0,0,0-.82.57,2.69,2.69,0,0,0-.34,1.13,1.16,1.16,0,0,1,0,.18l.24.07c.29.09.78.25.93.17,12.44-6.49,18.94-14.32,20.44-24.63,1.74-12-.91-22.18-7.87-30.2a19.28,19.28,0,0,0-1.84-1.76c-.31-.27-.62-.54-.92-.82l-.33-.31.27-.36a23.18,23.18,0,0,1,17.27-8.89c6.78-.44,13.49,1.77,17.46,5.76a32.82,32.82,0,0,0,4.15,3.38c1,.75,2.08,1.52,3.06,2.36,5.51,4.79,8.25,10.76,7.92,17.29a74.82,74.82,0,0,1-1.36,9.69c-.16.88-.33,1.76-.48,2.64l0,.18c-.32,1.78-.42,2.38,1.7,2.86,2.55.58,4.69,2.62,6.35,6.07,3.79,7.88,5.24,15.44,4.43,23.13C748.22,334.75,742.59,343.37,732.7,348.77Z"/><path d="M533.9,357.65l-.21-.11a2.24,2.24,0,0,0-.91-.35,16,16,0,0,0-2.9,1.31l-.49.25c-3.37,1.79-7.46,3.64-12.19,3.83-17.73.71-31.82-1.24-44.34-6.13-10.17-4-18.08-8.25-23.63-16.17a3.38,3.38,0,0,0-2.41-.42c-1.34.19-2.7.47-4,.75a40.65,40.65,0,0,1-6.42,1,70.15,70.15,0,0,1-13.44-.53,35.24,35.24,0,0,1-10-3.18c-6.48-3.12-9.74-9.12-11.86-14a11.23,11.23,0,0,0-6-6,10.12,10.12,0,0,1-6.09-8.47,2.72,2.72,0,0,1,1.51-3,84.47,84.47,0,0,0,7.61-5.52,2.7,2.7,0,0,0,.67-1.92c-.12-.14-.3-.34-.48-.36s-.68.3-1,.6a7.34,7.34,0,0,1-.59.46c-1.29.87-2.58,1.8-3.83,2.71a56.22,56.22,0,0,1-9.46,5.93c-11.31,5.15-23,4.93-34.81-.67a51.48,51.48,0,0,1-7.33-4.54c-1.22-.86-2.48-1.74-3.75-2.54-.22-.14-.44-.3-.67-.46-1.25-.89-2.07-1.39-3.12-.34s-.55,1.58.4,2.65c.23.26.45.51.63.76,4,5.66,8.24,12.4,7.92,20.65-.18,4.58-.74,9.21-1.28,13.69-.17,1.37-.34,2.74-.49,4.11a13.92,13.92,0,0,1-5.18,9c-.29.25-.59.49-.88.72-1.64,1.32-2.94,2.36-2.2,4.72a1.39,1.39,0,0,1-.19,1,1.71,1.71,0,0,1-.07.18c-2,5.1-5.73,8.15-10.71,8.85-3.63.51-7.35.75-10.94,1-1.55.1-3.1.2-4.65.33-.25,0-.5,0-.76,0H305a2.48,2.48,0,0,0-.85.1,1.75,1.75,0,0,0-.78.69,1.89,1.89,0,0,0,.84,1,3,3,0,0,0,1.41.09l4.85-.35c3.92-.26,8-.53,11.91-1,6.16-.8,11.58-6.45,12.34-12.84A3.82,3.82,0,0,1,336,353c3-2.79,5.91-6,6.51-10.21a175.59,175.59,0,0,0,1.92-19.05c.17-5.79-1.05-10.5-3.73-14.39a17.28,17.28,0,0,1-1.32-2.42c-.17-.36-.35-.73-.54-1.09l-.87-1.68,1.59,1c15.25,9.84,30.6,11.19,46.95,4.13l.68-.3,0,.74A10,10,0,0,0,391,317.3a22.44,22.44,0,0,0,3.05,2c.67.39,1.36.8,2,1.25l.23.16a5.47,5.47,0,0,1,2,1.95c3,6.54,6.75,13.18,14.34,17.36l.48.27-.31.45C407.28,349,401.6,354.69,392,355.9a57.25,57.25,0,0,1-27.21-3,71.92,71.92,0,0,1-10.9-5.13,17.25,17.25,0,0,1-3.19-2.58,23,23,0,0,0-2-1.81,3.5,3.5,0,0,0-1.48-.43l-.19,0a1.09,1.09,0,0,0,0,.18,2.7,2.7,0,0,0,.3,1.35,20.47,20.47,0,0,0,4.28,4.1c13.45,8.47,27.84,11.43,42.77,8.79,3.71-.66,7.91-1.76,10.89-4.94,1.73-1.85,3.41-3.82,5-5.72,1.18-1.38,2.36-2.76,3.57-4.11a2.94,2.94,0,0,1,2.22-.89c1.58.19,3.18.45,4.72.69a73.72,73.72,0,0,0,8,1l1.83.1c5.29.3,10.75.61,15.91-1.42.79-.32,1.94.56,2.28.89.73.72,1.44,1.5,2.12,2.25a30.08,30.08,0,0,0,3.55,3.5c10.09,7.9,21.85,11.41,32,13.8,7.84,1.84,16,1.95,23.92,2l4.41.07c7.12.12,13.3-2.92,18.52-5.81.16-.09.31-.55.43-.89A2.25,2.25,0,0,1,533.9,357.65Z"/><path d="M577.34,336.52c-8.52,1.47-17.19.59-24.55-.47a4,4,0,0,0-2.89.55,19.34,19.34,0,0,1-10.41,5.75c-.23,0-.57.51-.84.89l-.15.21.2.12a2.55,2.55,0,0,0,1.16.48c4.32-.67,7.35-2.11,9.55-4.53a5,5,0,0,1,4.64-1.5c5.92.47,11.31.79,16.48,1a31.63,31.63,0,0,0,22.68-8.31,33.86,33.86,0,0,0,9.89-15.54l.22-.7.57.47L605.2,316c.84.67,1.57,1.25,2.29,1.89,9.18,8,19.68,11.34,31.21,9.83l.62-.07a12.19,12.19,0,0,0,2.61-.51c.24-.09.48-.44.72-.79l.1-.14-.12-.09a5.91,5.91,0,0,0-1.22-.75,1.64,1.64,0,0,0-.63.1l-.41.1c-12.67,2.37-24-1.48-34.57-11.77a6.28,6.28,0,0,1-1.38-3.69c-.32-4.19-.55-8.72-.73-14.25a3,3,0,0,1,1.22-2.26c1.21-.76,2.47-1.49,3.68-2.18,1.61-.93,3.28-1.88,4.83-2.94,6.66-4.56,10.54-11.21,11.54-19.76a61,61,0,0,0-.14-11.54c-.08-1-.16-2-.22-3.07-.33-5.37-2.74-10.12-5.07-14.71-.09-.17-.54-.34-.87-.46l-.18-.07,0,.11a8.22,8.22,0,0,0-.45,1.44,1.86,1.86,0,0,0,.28.6l.05.09c4.44,7.69,5,16,4.93,23.93-.07,9.5-3.92,17-11.43,22.22a57.52,57.52,0,0,1-8.29,4.77c-1.86.87-2.31,1.83-1.88,3.92,2,9.71,1.18,17.37-2.54,24.12C594,329.37,586.64,334.91,577.34,336.52Z"/><path d="M137.46,308.53l0,.13c3.05,6.86,8.85,11.19,14.67,14.84,4.2,2.64,9,2.86,14.5,3.12,1.29.06,2.62.12,4,.21l1.38-.18a30,30,0,0,0,5-.9,28.92,28.92,0,0,0,16.09-11.28,2.56,2.56,0,0,0,.09-1.26l0-.21-.19.05a3.64,3.64,0,0,0-1.42.56,10.47,10.47,0,0,0-1.41,1.6,13.79,13.79,0,0,1-1.23,1.44c-8.83,8.78-21.15,10.75-34.68,5.55-3.57-1.37-6.57-4.28-9.47-7.09l-1.47-1.41a18.8,18.8,0,0,1-3.35-5c-.3-.57-.61-1.13-.92-1.68a4.54,4.54,0,0,1-.4-1.14c-.12-.45-.24-.92-.47-1a.94.94,0,0,0-.63.05,7.22,7.22,0,0,0-.22,1.88c0,.37,0,.73-.06,1A1.79,1.79,0,0,0,137.46,308.53Z"/><path d="M486,289.25l-.15,0a4.15,4.15,0,0,0-1.57,0c-1,.3-2.1.69-3.13,1.07a23.42,23.42,0,0,1-5.55,1.57,53.76,53.76,0,0,1-30.85-5.17l-.45-.25c-.59-.32-1.25-.69-1.7-.55a1,1,0,0,0-.53.54,1,1,0,0,0-.15.75c.12.34.72.6,1.24.82a7.59,7.59,0,0,1,.75.34c7.89,4.4,16.73,5.33,24.41,5.86,6.58.28,12.09-.84,16.84-3.42.31-.17.53-.74.75-1.29Z"/><path d="M525.76,308a1.08,1.08,0,0,0-.41-.74,1,1,0,0,0-.67-.34c-.39,0-.81.56-1.19,1a7.88,7.88,0,0,1-.64.75c-6.19,5.9-12.52,8-19.34,6.45a42.68,42.68,0,0,1-6.48-2.22c-1.23-.49-2.49-1-3.74-1.42a3.12,3.12,0,0,0-1.39,0l-.17,0,0,.11a6.42,6.42,0,0,0,.58,1.49,2.06,2.06,0,0,0,.84.53l.27.13a38,38,0,0,0,15.1,3.86c6.67-1,11.75-3.5,15.53-7.61a7.66,7.66,0,0,1,.57-.57C525.18,309,525.76,308.48,525.76,308Z"/></g></g></g></g></svg>