<svg xmlns="http://www.w3.org/2000/svg" viewBox="0 0 978.74 436.73"><defs><style>.cls-1{fill:#fff;}</style></defs><g id="Layer_2" data-name="Layer 2"><g id="Mobile"><g id="Clouds_Left"><g id="_03" data-name="03"><path class="cls-1" d="M976.47,225.71a14,14,0,0,0-2-4.64c-5.31-7.87-13.86-9.19-19.83-9.5a78.52,78.52,0,0,0-10.19.35c-1.76.14-3.57.28-5.34.35a.92.92,0,0,1-.87-1.62,10.47,10.47,0,0,1,1.2-1.45c.34-.36.69-.73,1-1.13a8.62,8.62,0,0,0,1-7.28,8.78,8.78,0,0,0-4.41-6.08c-.34-.15-1.35-.61-1.48-1s.52-1.42.77-1.82a19,19,0,0,0,2.09-3.94,7.59,7.59,0,0,0-.74-6.55,6.83,6.83,0,0,0-5-3.17,23.94,23.94,0,0,0-8.66.68l-.22.05c-1.27.33-2.28.59-2.56.4s-.57-1.65-.69-2.41a7.37,7.37,0,0,0-6.18-6.58,16.77,16.77,0,0,0-6.25.18c-3.68.67-5.92.46-8.87-.83-7.45-3.25-18.87-.15-24,6.49-1.13,1.46-2.12,3-3.08,4.55-.71,1.11-1.43,2.26-2.2,3.35a2.58,2.58,0,0,1-1,.58l0,0a4.32,4.32,0,0,1-.53-1.24,2.69,2.69,0,0,1,.22-1.08l.12-.36c1.55-5.14,1.12-10.3-1.35-16.24A19.29,19.29,0,0,0,855.17,155a15.81,15.81,0,0,0-14.09,2.87c-.21.15-.4.31-.6.47s-.56.44-.85.64c-.92.64-1.52.89-2,.81s-.87-.49-1.42-1.31a12.75,12.75,0,0,0-9.12-5.59,56.48,56.48,0,0,0-7.69-.56h-.13c-9.85,0-16.4,4.76-19.48,14.15-.4,1.21-.68,1.41-.78,1.45s-.46,0-1.52-.78c-3.15-2.37-6.71-2.06-8.85.76a42.22,42.22,0,0,0-3.4,5.64c-.54,1-1.11,2.09-1.7,3.09a5.75,5.75,0,0,1-1,1.12l0,0,0,0a3,3,0,0,1-.75-1,27.62,27.62,0,0,1-.47-4.69c-.26-7.26-3.57-13.7-10.11-19.7-4.18-3.83-9.72-5.6-16.05-5.11-2.65.21-5.32.6-7.9,1-1.7.25-3.46.5-5.19.7a3.7,3.7,0,0,1-1.7-.19,4.71,4.71,0,0,1,.3-2l.06-.18a2.82,2.82,0,0,1,.55-.85q.19-.22.36-.45c2.43-3.36,3.33-6.59,2.76-9.88a48.32,48.32,0,0,0-1.46-5.88C740.47,121.56,734,117.93,726,120c-1.51.39-1.93.09-2,0s-.2-.92.09-1.81a33.33,33.33,0,0,0,1.2-11c-.12-7.33-3.25-13.67-9.29-18.85-8.47-7.25-17.69-10.44-28.2-9.74-8,.54-13.62,2.89-18.1,7.6l-.53.56c-1,1-2,2.08-3,3.1-.32.32-.76.69-1.12.66s-.65-.36-1-1a37,37,0,0,0-4.32-5.87c-3.91-4.11-8.35-8.77-15.11-9.19a129.61,129.61,0,0,0-14.41-.35A15.74,15.74,0,0,0,621,77.61a2.8,2.8,0,0,1-1.22.36,2.77,2.77,0,0,1,.32-1.29,16.11,16.11,0,0,1,2.67-2.07l1.37-.94.62-.46-.47-.61a29,29,0,0,0-15.23-10.52c-11.43-3.35-24.77,5.78-27.84,13.33-2.57,6.3-2.4,12.69-1.9,18.1a4.22,4.22,0,0,1-.39,1.63l0,.08,0,0a3.57,3.57,0,0,1-1.28-.91c-2.38-3.73-6-5.3-10.73-4.65-3.39.46-5.46,1.45-6.52,3.1s-1.08,4-.06,7.27c.36,1.17.19,1.55.11,1.66s-.47.37-1.82.25c-1.55-.14-2.93-.2-4.23-.19a6.63,6.63,0,0,0-5.84,2.67,9.77,9.77,0,0,0,4.67,15.38,2.36,2.36,0,0,1,.68.78,3.38,3.38,0,0,1-1.09.57,2.43,2.43,0,0,1-1.05-.15l-.25-.07-.52-.09-.26.46a14.18,14.18,0,0,0-.66,1.37,8.37,8.37,0,0,1-.63,1.26.71.71,0,0,1-.45,0c-.18-.13-.28-.7-.35-1.11a9.2,9.2,0,0,0-.21-.94,12.73,12.73,0,0,0-7.11-7.71c-2.81-1.32-5-1.57-6.83-.76s-3.1,2.67-4,5.7c-.42,1.48-.7,1.63-.75,1.65s-.35,0-1.5-.84c-2.42-1.88-4.8-1.9-7.49,0s-5.6,3.68-8.57,5.34A3,3,0,0,1,511,125h0a2.48,2.48,0,0,1,.57-1c2-1.37,4.11-2.73,7-4.41,5.2-3,7.38-7.45,6.48-13.12a14,14,0,0,1-.16-1.76c0-.55-.07-1.11-.14-1.68a7.17,7.17,0,0,0-6.52-6.39c-.44,0-1.78-.15-2-.57s.14-1.72.28-2.14a6.2,6.2,0,0,0-.24-5.24,6.13,6.13,0,0,0-4.51-2.61,17.56,17.56,0,0,0-4.09-.18,2.07,2.07,0,0,1-2.29-1.24,8.25,8.25,0,0,0-6.3-4.12c-6.8-1.16-12.06.43-16.09,4.86a5.68,5.68,0,0,1-.57.52l-.22.19c-.82.7-1.39,1-1.78,1s-.88-.57-1.55-1.65a15.33,15.33,0,0,0-3.28-3.4l-1-.87A10.15,10.15,0,0,0,472.8,80l-.05,0,.12-.18A4.88,4.88,0,0,1,474,78.43a29,29,0,0,0,10.71-13.6c1.67-4.46,1.3-8.29-1.14-11.71a17.76,17.76,0,0,0-11.63-7.51c-2.28-.41-2.32-.64-2.07-3,0-.51.13-1,.21-1.57a12,12,0,0,0,0-5.36c-3.65-11.08-10.26-18.08-19.66-20.79-4.36-1.25-10.76-2.35-16,2.61a3.27,3.27,0,0,1-2.55.17c-2.73-1-5.89-1.82-8.95.89-.43.39-.83.56-1.1.48s-.63-.62-.8-1.38a4.34,4.34,0,0,1-.08-.52,5.72,5.72,0,0,0-.18-.9c-3.87-12.54-12-17.11-24.74-14a16.23,16.23,0,0,0-11,8.77c-1.73,3.4-4.08,4.61-8.37,4.29-6.77-.48-10.29,2-12.59,8.86-1.48,4.43-3,9-2.52,14.08.08.84-.06,1.45-.37,1.65s-1,.05-1.83-.43c-1.38-.82-2.72-1.75-4-2.65-6.11-4.27-13.39-5.22-21.06-2.76a20.38,20.38,0,0,0-12.41,10.46c-2.43,5.08-2.5,11.19-.19,17.19a15,15,0,0,0,6.07,7.61c2,1.31,4,2.79,5.88,4.22,1,.76,2,1.52,3,2.25a2.19,2.19,0,0,1,1,1.3,2.08,2.08,0,0,1-.66,1.46,6.26,6.26,0,0,0-.77,7.06,12.41,12.41,0,0,0,5.38,6.15c1.09.61,1.21.91,1.22,1s-.11.47-1.09,1.37a7.85,7.85,0,0,0-2.09,3.65l-.07.28c-.68,2.58-.68,2.58-3.49,2.75-8.86.56-11.87,3.74-11.92,12.62v.41c0,.24,0,.47,0,.71-.34,5.65,2.89,9.5,6.43,12.81l.48.45.51-.42c.39-.32.79-.64,1.18-.94.86-.69,1.67-1.34,2.45-2a18.22,18.22,0,0,1,15.22-4.69c.23,0,.6.39.91.68h0a2.54,2.54,0,0,1-.85.64,11.36,11.36,0,0,1-3.24.06,11.31,11.31,0,0,0-8.15,2.33,108,108,0,0,0-9.56,8.13c-2,2-3.45,4.71-4.57,8.74l-.21.76.77.17c11.38,2.56,20.06,9.27,26.56,20.53l.28.49.55-.13a60.58,60.58,0,0,1,24.42-1l1.1.17-.26-1.09c-1.06-4.46.54-8,4.75-10.58a36.34,36.34,0,0,1,7.32-3.51c4.06-1.34,8.25-.37,11.82.76a7.28,7.28,0,0,1,4.85,5l.29.88.8-.48c.51-.3,1-.62,1.46-.93a14.42,14.42,0,0,1,2.72-1.54c7-2.63,16.94,1.82,19.69,8.82a2.42,2.42,0,0,1-.15,1.08,3.32,3.32,0,0,1-1.13-.62c-.56-.61-1.06-1.27-1.6-2a18.15,18.15,0,0,0-2.45-2.82c-6.21-5.43-12.17-5.37-18.22.17a2.85,2.85,0,0,1-1.81.8,2.94,2.94,0,0,1-.86-1.76,6,6,0,0,0-4.1-5.25c-7.3-2.6-14-1.13-20,4.36a7,7,0,0,0-2.3,6.09,7.28,7.28,0,0,0,3.84,5.55c5.55,3,8.91,6.63,10.59,11.33a3.33,3.33,0,0,1,0,1.38c-.49-.28-.95-.56-1.36-.83a1,1,0,0,1-.11-.25l-.13-.3c-4-8.15-11.13-12.73-21.16-13.62a56.19,56.19,0,0,0-10.13.33c-1.13.11-2.25.21-3.37.29a7,7,0,0,0-2.23.7c-.31.14-.63.28-1,.41l-.77.28.35.74.67,1.38c.41.84.76,1.56,1.05,2.3l.31.79c1.23,3.2,2.52,6.5,3.61,9.79a2.55,2.55,0,0,1-.34.95A8.43,8.43,0,0,1,358,179a2.36,2.36,0,0,1-.12-.45,4.92,4.92,0,0,0-.14-.58c-3.51-10.19-8.51-21.64-19.1-29.32-4.43-3.21-11.33-7.26-20.05-5.35-7.92,1.73-14.47,3-20.63,4-6.56,1.07-11.54,3.2-15.69,6.7-.84.71-1.71,1.39-2.58,2.08-1.41,1.12-2.88,2.28-4.23,3.54-4.69,4.39-10,9.37-7.81,17.81a8.84,8.84,0,0,1-.5,4.08,3.61,3.61,0,0,1-.79.45h0a2.36,2.36,0,0,1-.36-1c0-1.2,0-2.42,0-3.61,0-1.46.05-3,0-4.46-.35-7-3.23-10.72-9.63-12.51a21.56,21.56,0,0,0-7.18-.35c-.71,0-1.42.09-2.12.11l-.47,0c-1.29.06-1.88.09-2.4-1.12a29.81,29.81,0,0,0-3.8-6.66,7.09,7.09,0,0,0-8.34-2.41,47.18,47.18,0,0,0-6.88,3c-1.9,1-2.78.87-4.11-.82a15.72,15.72,0,0,0-13.37-5.59,15.21,15.21,0,0,0-12.24,6.85c-1.59,2.6-3.14,3.47-5.91,3.31C183,156.4,177,162.6,176.3,168c-.41,3.16-.81,6.54-1,9.93-.09,1.53-.53,2-1.9,2h-.2a20.14,20.14,0,0,0-2.68.06l-.81.1c-5.5.61-11.18,1.25-15.13,6.9-1.71,2.45-2.69,4.46-2.29,6.92a55.28,55.28,0,0,0,1.5,6.22c.35,1.27.72,2.58,1,3.87a3.32,3.32,0,0,1-.15,1.33h0c-.28-.07-.71-.19-.78-.22-2.32-5.1-4.58-11.08-2-17.45a3,3,0,0,0-.61-2.94c-5.48-4.21-10.7-6.43-16-6.78a48.3,48.3,0,0,0-24.64,4.6c-9.47,4.59-14.46,12.6-14.85,23.8a54.63,54.63,0,0,0,1,10.6c.29,1.74.58,3.55.78,5.31a3.78,3.78,0,0,1-.25,1.43v0h0a3.27,3.27,0,0,1-1.17-.54c-6.29-6.45-14.27-8.5-24.37-6.26-2.86.63-5.26,3.11-6.16,4.15a18.79,18.79,0,0,0-4.54,11.22c-.46,6.94,0,15.77,7.5,22.59a1.71,1.71,0,0,1,.29,1.15,2.71,2.71,0,0,1-1,.27c-.77,0-1.52,0-2.32-.05s-1.68-.09-2.53-.06a11.45,11.45,0,0,0-8.89,4.19c-4.62,5.7-5.45,12.32-2.47,19.66.56,1.37.54,1.86.43,2s-.41.36-1.66.43c-3.82.22-6.72,2-8.17,5s-3,3.2-6.57,2.68c-13.82-2-22.19,1.85-30.88,14.09A18.28,18.28,0,0,0,2,311.59c-1.17,6.82-.65,13.62,0,20,1.14,11.58,6.6,20,16.77,25.92,4.63,2.68,5,2.65,8.86-.87a16,16,0,0,1,2.8-2.13,8.3,8.3,0,0,1,2.93-1A2.59,2.59,0,0,1,34,354l0,0a2.73,2.73,0,0,1-.55.77c-.9.68-1.85,1.35-2.77,2a47.32,47.32,0,0,0-4.76,3.65c-5.66,5.16-7.09,11.62-4.12,18.7a32.22,32.22,0,0,0,14,15.57c6.8,3.95,14.4,3.74,20.93,3,5.42-.6,9.36-4.5,12.51-8.23l.38-.46-.36-.48c-.29-.39-.6-.76-.88-1.11a10.18,10.18,0,0,1-1.47-2.12,3.29,3.29,0,0,1-.14-1.49,2.83,2.83,0,0,1,1.17.63c6.24,8.2,13.32,13.51,21.64,16.25a40.83,40.83,0,0,0,35-3.81,49.39,49.39,0,0,0,5.79-4.29c.91-.75,1.86-1.52,2.86-2.29l1-.77-1.16-.51c-.59-.26-1.11-.47-1.58-.66a11,11,0,0,1-2-1,56.49,56.49,0,0,1-5.57-4.23,2.72,2.72,0,0,1-.13-.88,3.63,3.63,0,0,1,1.34.16,2.26,2.26,0,0,1,.62.57,3.47,3.47,0,0,0,1,.91c.61.32,1.22.69,1.87,1.07a12.9,12.9,0,0,0,5.42,2.23c9.12.64,18.41.83,27.09.94h.24c5.31,0,10.14-2.18,14.57-4.55a31.26,31.26,0,0,0,13.33-13.41,3.19,3.19,0,0,1,1.07-.46h0a2.41,2.41,0,0,1,0,1.08c-1.91,3.6-4.4,7.65-8.45,10.36-1.83,1.23-3.62,2.5-5.51,3.85-.87.63-1.76,1.26-2.69,1.91l-.88.62.89.61c.78.54,1.56,1.1,2.33,1.66a57.52,57.52,0,0,0,5.74,3.79,14,14,0,0,0,5.63,1.39c1.56.12,3.13.11,4.65.11,1.29,0,2.63,0,3.92.06a3,3,0,0,1,1.16.54c-.31.31-.75.75-1,.77-8.23.47-15,.4-20.43-5.13-2.36-2.38-5.64-4.79-10.12-2.26a1.7,1.7,0,0,1-.55.07c-1.71,0-3.42.1-5.12.15-4.38.13-8.9.27-13.35.27-2.59,0-5.16-.17-7.67-.35l-3.34-.21-.63,0-.14.61c-2,8.21-.75,16.44,3.73,25.16,4.8,9.36,13.22,15.18,24.35,16.84a150.61,150.61,0,0,0,15.94,1.22c1.47.06,2.94.12,4.4.2,6.58.31,11.72-3,16.41-6.37l.74-.54-.66-.62-.5-.45a9.63,9.63,0,0,1-.72-.68l-1.13-1.27c-1.39-1.54-2.82-3.13-4.06-4.7a3.36,3.36,0,0,1,.15-.87s0,0,0-.06a4,4,0,0,1,1.1.32,2.32,2.32,0,0,1,.49.65c.07.13.15.25.22.37a19.57,19.57,0,0,0,8.57,7.14,38.83,38.83,0,0,0,23.41,2.31c12.37-2.45,21.37-10.32,26.75-23.37a3,3,0,0,0,.13-1.37c0-.15,0-.3,0-.44a7.31,7.31,0,0,0,0-.79,5.8,5.8,0,0,1,0-.7,2.09,2.09,0,0,1,1.22.08c4.87,2.14,10.36,2.46,17.26,1a17.28,17.28,0,0,0,4.44-1.84c.77-.4,1.55-.81,2.33-1.14a3.71,3.71,0,0,1,1.18-.18v.06c0,.32,0,.86,0,.94a22.17,22.17,0,0,1-4.94,2.91,21.3,21.3,0,0,1-3.68,1c-.57.12-1.14.25-1.7.39l-.57.22v.59c.07,5.1.09,6.47,2.56,9,3.48,3.61,8.12,8.3,13.2,12.6,10.72,9.07,23.26,8.45,36.25,6.93,6.43-.75,12.38-3.19,18.74-7.67,1.5-1.05,3.06-2.07,4.58-3.06,4.87-3.17,9.92-6.45,13.54-11.49.12-.17.77-.43,2.06-.47,1.75,0,3.54,0,5.28,0a65.53,65.53,0,0,0,10.47-.44c5.14-.78,11.61-2.29,16.1-7.06,5-5.32,10.24-11.95,11.18-20.85a4.32,4.32,0,0,1,2.73-3.81,34.53,34.53,0,0,0,15-13.34c.63-1,1.29-2,1.95-3.06,1-1.55,2.05-3.16,3-4.81,4.61-8.18,9.11-17,9.05-27.49,0-5.9.09-11.77.22-17.27a2.19,2.19,0,0,1,.46-.83h0c.25.15.73.43.78.57a9.39,9.39,0,0,1,.49,3.37l-.07,2.72c-.12,4.33-.23,8.8-.63,13.16a53.3,53.3,0,0,1-2,10.93,83,83,0,0,1-3.29,8.47c-.53,1.24-1.07,2.49-1.58,3.75l-.23.58.52.33.41.28a6.32,6.32,0,0,0,1,.65c6.68,3.09,15.62,6.39,25.55,4.4a2.91,2.91,0,0,1,1.27.43,2.88,2.88,0,0,1-1.09.87,28.86,28.86,0,0,1-14.52-.21,99.32,99.32,0,0,1-9.52-3.18c-1.46-.54-2.93-1.09-4.44-1.61l-.57-.2-1.25,2.05c-4.59,7.58-9.34,15.41-18,19.73l-1.08.54,1,.73c8.41,6.4,18,8.38,31,6.43a3,3,0,0,1,1.26.26c-.19.33-.52.89-.7.94a21.42,21.42,0,0,1-5.27.77c-2.64.07-5.25.06-8,0H423l-.15.56c-1.4,5.44-.51,11.12,2.64,16.88a15.43,15.43,0,0,0,5.15,6,24.52,24.52,0,0,0,13.9,3.56,4.28,4.28,0,0,0,2.29-1.13,6.24,6.24,0,0,1,.82-.59c.38-.23.78-.45,1.17-.67l0,0a2.86,2.86,0,0,1,.45.78c-.31,3.69,1,6.9,2.34,10l.51,1.22a13.78,13.78,0,0,0,12.33,9c3.59.28,7.43.42,11.95.42h1.76c8.87-.06,15.72-4.23,20.35-12.39a14.75,14.75,0,0,0,1.65-4.29c.22-1,.42-1.61.59-1.7s1.46.34,1.9.52c11.19,4.61,21.24,4.89,30.7.87a6.42,6.42,0,0,0,1.19-.73c.2-.15.39-.29.6-.42s.57-.35.85-.54a7.47,7.47,0,0,1,2-1c.38-.1.63-.07.69,0s.14.4,0,.93a2.72,2.72,0,0,1-.43.72q-.16.22-.33.48l-.28.44.31.41c.12.15.22.3.32.44a8.7,8.7,0,0,0,.75.95l.44.48a11.37,11.37,0,0,0,1.8,1.73c11.21,8.2,20.92,11.86,31.45,11.86H573c5.89,0,10.43-1.64,14.3-5,.3-.27.62-.51.94-.75s.84-.65,1.24-1c2.84-2.69,5.46-5.44,6.3-9.47,1.56-7.58.64-15.56-2.89-25.1a5.6,5.6,0,0,0-1.47-1.92l-.44-.42c-.38-.4-.8-.79-1.21-1.17a15.55,15.55,0,0,1-2.07-2.18,3.18,3.18,0,0,1,.12-1,.08.08,0,0,0,0,0,2.38,2.38,0,0,1,1,.38c9.62,9.67,19.89,14.47,31.38,14.65,12.6.2,19.33-3.91,23.16-14.19,1.87-5.05,3.07-10.87-2.23-15.79a5.62,5.62,0,0,1-.7-.9,5.6,5.6,0,0,0-1.06-1.29,4.93,4.93,0,0,0-3.09-1.48c-5.7.32-10.89-1.36-15.23-3.05l-.41-.15a2.18,2.18,0,0,1-.66-.29,2.74,2.74,0,0,1-.46-1.16,3.12,3.12,0,0,1,.95-.17,2.51,2.51,0,0,1,.92.33c.18.09.36.18.54.25,7.89,3.24,15,3.61,21.74,1.15s10.71-6.69,12.37-13l.06-.22c.43-1.67.89-3.4,1.22-3.53s1.81.9,3.23,1.89l.31.22c8.54,5.92,18.72,12.16,31.58,11.24,7.27-.52,12.37-3.6,16-9.69a16.77,16.77,0,0,0,1.34-3.12c.17-.48.33-1,.52-1.43l.25-.62-.59-.31c-.51-.28-1-.53-1.48-.77a17.5,17.5,0,0,1-2.74-1.57,2.94,2.94,0,0,1-.68-1.12,2.93,2.93,0,0,1,1.29-.07,29.36,29.36,0,0,1,2.76,1.27c.86.44,1.75.89,2.67,1.25,7.28,2.82,14.75,2.4,20.45,1.71,6.62-.79,12.06-4.39,16.19-10.67a4.14,4.14,0,0,0,.48-2.11l0-.37a13.27,13.27,0,0,0,0-1.55,2.64,2.64,0,0,1,1.15.15c6,3.81,12.75,4.26,19.12,4.2a5.25,5.25,0,0,0,4.8-2.89l.34-.59L772,330.88l-3.76-2.7c-.6-.44-1.2-.88-1.81-1.31-2-1.48-4.15-3-6.11-4.62a2.91,2.91,0,0,1-.49-1.31,2.59,2.59,0,0,1,1.21.17c1.65,1.16,3.3,2.39,4.9,3.59,2.42,1.81,4.91,3.68,7.5,5.34a30.72,30.72,0,0,0,9.15,4.18c8.11,2,16.37,2.24,24.08,2.25h.05a36.84,36.84,0,0,0,18.88-5.08c2.17-1.27,3.79-1.2,6,.28,11.68,7.85,25,11.42,40.6,10.89a15.35,15.35,0,0,0,11.76-6.33,17.91,17.91,0,0,0,2.93-15.08,3.54,3.54,0,0,0-3-2.86,58.13,58.13,0,0,1-18.6-7.36,18.93,18.93,0,0,1-4.18-4l-.6-.69a.7.7,0,1,1,1.29-.41,13.86,13.86,0,0,1,1.4,1.45,9,9,0,0,0,2.5,2.26,101.44,101.44,0,0,0,12,5.54c9.17,3.4,18.7,3.61,27.65,3.53a12.7,12.7,0,0,0,7.78-2.56c4.87-3.64,7.88-9.09,7.84-14.23,0-4.62-2.46-8.8-7-12.1a13.89,13.89,0,0,1-5.71-10.47l0-.2c-.05-.5-.13-1.26.08-1.48a.61.61,0,0,1,.39-.13,3.25,3.25,0,0,1,.9,1.64c.63,5.44,3.61,9.35,9.11,11.95,6.37,3,13.09,2.82,20.52-.59a11.7,11.7,0,0,0,4.56-4c3.74-5.44,1.89-15.79-3.8-21.28l-.5-.48-1,.85c-.31.27-.6.5-.86.76-2.83,2.74-6.37,2.79-9.78,2.44a3.14,3.14,0,0,1-.72-.76,3.9,3.9,0,0,1,1.16-.55,9.51,9.51,0,0,1,1.87-.06c.42,0,.83,0,1.25,0,3.32-.13,5.9-1.92,7.67-5.32a6.1,6.1,0,0,0,.39-5,5.73,5.73,0,0,0-3.44-3.32l-.13,0c-.48-.17-1.28-.47-1.39-.75a.63.63,0,0,1,.12-.39,3,3,0,0,1,2-.63c3.26,2,6.8,2.2,10.22,2.37.75,0,1.5.08,2.25.14,8.1.64,14.91-.68,20.8-4a12.36,12.36,0,0,0,6.37-7.75A35.15,35.15,0,0,0,976.47,225.71ZM757,312.93c.82-1,1.57-2.11,2.37-3.26.38-.55.79-1.13,1.22-1.73l.63-.89-3.19-.84c-1.35-.36-2.54-.68-3.74-1-6.7-1.63-12.41-5.35-17.11-8.78a2.57,2.57,0,0,1-.24-.85H737a2.69,2.69,0,0,1,1.17-.06c1.42.78,2.82,1.67,4.17,2.53,1.14.72,2.31,1.46,3.5,2.15a39.36,39.36,0,0,0,19.35,5.23c5.47.07,10.4.1,15.33-.21,10.57-.66,18.29-5.54,23-14.49l.54-1.05c.86-1.66,1.75-3.38,2.76-5a2.6,2.6,0,0,1,1-.56,2.65,2.65,0,0,1,.2,1.09C803,296.78,796.88,303,788,305.35a52.8,52.8,0,0,1-10.78,1.3c-1.24.07-2.49.13-3.73.23a42.33,42.33,0,0,1-7.5,0c-2.58-.26-3.74,1-4.9,2.66a88.57,88.57,0,0,1-7.32,9.08,21.81,21.81,0,0,1-14.83,7c-7.47.51-14.72.69-21.32-2.81a94,94,0,0,1-9-5.72L707,316a3,3,0,0,1-.23-.89v0h0a3,3,0,0,1,1-.1c1.3.78,2.58,1.66,3.83,2.52,1,.69,2,1.4,3.1,2.07,8.59,5.41,18.5,6.44,30.28,3.15C750.31,321.26,753.86,316.83,757,312.93ZM320.72,214.19l-.65,0a10.75,10.75,0,0,0-3,.41c-10.54,3.5-20.88,8.47-25.14,21.08a19.69,19.69,0,0,0,.13,13.6c.1.25.22.51.34.76a3.41,3.41,0,0,1,.4,1.16,4.51,4.51,0,0,1-.26,1.37,2.67,2.67,0,0,1-1-.77c-5.5-11.36-.22-21,5.17-27.13,4.81-5.45,11.46-9.16,20.91-11.69a5.93,5.93,0,0,1,1.42-.22c.55,0,1.1,0,1.64,0H323c5.49-.14,11.11,1,17.75,3.47.21.08.49.57.7.95a2.67,2.67,0,0,1-1.21.24C335.07,215.7,328.16,213.75,320.72,214.19ZM267.3,323.66a14,14,0,0,1-.68,1.9,11.42,11.42,0,0,0-.94,3.26c-.54,6.38-1.14,13.61.94,20.51,3.41,11.34,9.44,19.29,18.42,24.31,7.71,4.31,17.3,9.67,28,11.11a37.84,37.84,0,0,0,16.37-.92,2.77,2.77,0,0,1,1.31.27c-.32.44-.65.88-1,1-5.85,2.06-11.94,1.68-16.59,1.12-10.38-1.25-19.27-5.91-29-11.41-9.34-5.27-15.59-13.69-19.13-25.74a36.18,36.18,0,0,1-1.09-7c-.11-1.12-.21-2.28-.37-3.42l-.13-1-.93.44c-11.72,5.54-24.24,6.07-38.27,1.62-11.84-3.76-19.59-12.74-26.42-20.66a2.94,2.94,0,0,1-.28-1.87c.15-.11.24-.15.3-.14s.54.49.76.8.32.41.48.6l1.18,1.33c5.7,6.41,11.59,13,19.89,16.84a52.85,52.85,0,0,0,31.41,3.8,29.28,29.28,0,0,0,7.06-2.51c1-.47,2.12-1,3.18-1.37,1.75-.68,2-2.08,2.17-3.47a97,97,0,0,1,2.17-10.2,1.82,1.82,0,0,1,.83-1.24.71.71,0,0,1,.6.07A7.2,7.2,0,0,1,267.3,323.66ZM48.52,296.58c-1.09.35-2.25.63-3.37.89a28.65,28.65,0,0,0-6.13,2c-6.51,3.24-9.54,11.12-7.06,18.32,2.32,6.74,7.12,11.78,14.66,15.41a13.09,13.09,0,0,0,12.92-.5c.65-.39,1.22-.53,1.53-.37s.47.64.5,1.34c.16,3.69,1.77,5.89,4.92,6.71l1.05.29c3.16.87,6.75,1.87,9.76-1.67a3.15,3.15,0,0,1,1.09-1,1.77,1.77,0,0,1,.84-.08,1.49,1.49,0,0,1,0,1c-1,2.08-5,4.29-7.32,4a41.71,41.71,0,0,1-5.36-1c-3.71-1-5.74-3-6.38-6.54l-.15-.85-.82.27c-8,2.62-14.87.67-21.67-6.15a32.31,32.31,0,0,1-5.44-6.85c-2.88-5.14-3.32-10.66-1.23-15.53,2.19-5.11,7-8.94,13.08-10.51a17.88,17.88,0,0,1,4.82-.5c.16,0,.57.39.81.63A3.65,3.65,0,0,1,48.52,296.58ZM82.91,304a3,3,0,0,1,.82,1c.12.34.24.68.35,1,1,2.9,2,5.89,5,7.68a16.61,16.61,0,0,0,3.4,1.44c.64.21,1.31.44,1.93.7a13.36,13.36,0,0,1,1.52.82l-.82.68a12,12,0,0,1-10.76-7A22.39,22.39,0,0,1,82.44,305,2.89,2.89,0,0,1,82.91,304Z"/><path d="M977.48,243.11a34.6,34.6,0,0,0,.62-15.87,18.33,18.33,0,0,0-2.44-6.73c-4.47-6.69-11.23-9.87-21.94-10.31-2.51-.11-5.1-.08-7.59,0H946l-3.44,0H941l.84-1.33c2.83-4.56,1.16-11.71-3.65-15.61l-.58-.47.56-.95c.13-.21.25-.42.37-.64,2-3.66,2.22-7.39.54-10.22s-4.94-4.38-9-4.38a34.42,34.42,0,0,0-4.68.44c-.66.1-1.29.19-1.88.26l-.55.06-.29-.46c-.43-.68-.81-1.39-1.15-2A12.88,12.88,0,0,0,919,171.3c-4-3.61-8.77-2.79-13.32-1.36a3.91,3.91,0,0,1-3.19,0C894.81,165,887,167.39,881,170a23.73,23.73,0,0,0-5.65,4c-.76.67-1.47,1.3-2.18,1.84l-1,.75-.39-1.17c-.33-1-.68-2.11-1-3.22-.82-2.6-1.66-5.26-2.65-7.9-2.88-7.65-13.48-13.28-20.63-10.94a46.26,46.26,0,0,0-6.23,2.73c-1,.47-1.92,1-2.9,1.4l-.53.25-.43-.4c-.43-.4-.84-.85-1.23-1.28a10.2,10.2,0,0,0-2.78-2.4,27.58,27.58,0,0,0-22.85-1.1c-4.72,1.83-10.29,4.86-11.57,12.13L798.8,166l-1.06-.57c-2-1.06-5-2-7.56-.35a23.55,23.55,0,0,0-4.15,3.68c-.6.62-1.19,1.24-1.81,1.82l-1.11,1.06-.34-1.5c-2.11-9.37-6.91-16.75-13.53-20.8S754,144.39,743.92,147l-2.27.59,1.33-1.93c3.8-5.48,3.89-11.36.3-19.07-3.7-7.93-10.65-8.94-15.84-8.39l-1,.1V114c0-2.34,0-4.57,0-6.79,0-7.83-3.42-14.66-10.2-20.31-8.48-7.07-17.7-10.22-28.19-9.62-8.58.48-14.49,2.89-19.16,7.79a23.73,23.73,0,0,1-2,1.84l-1,.85-.7.62-1.16-1.49c-.34-.45-.64-.84-1-1.22-3.25-4-6.91-8.08-11.71-10.47-6.15-3.06-12.95-2.71-19.53-2.37l-3.23.15c-1.47,0-2.68,0-3.8-1.63a25.74,25.74,0,0,0-18.42-11.15C600,59.36,592.7,61.58,587,66.16A23,23,0,0,0,578.06,82c-.14,1.64-.25,3.28-.38,5l-.28,3.9-2-.87c-.65-.27-1.27-.53-1.89-.81a12.81,12.81,0,0,0-10.35,0c-4,1.56-5.35,3.83-4.89,8.1,0,.41.06.82.08,1.28l.09,1.56-.84.07c-.72.06-1.44.09-2.15.12-2.88.11-5.61.22-7.58,2.66-2.3,2.85-2.73,6.14-2.66,10.22l0,1.56-1.35-.8c-3.36-2-6-2.62-8.73-2.16-3.15.54-4.48,3.12-5.89,5.85l-.36.71-4.64-1.88.55-.89c1.83-2.93,1.67-6,1.5-9.18l0-.65c-.33-6.48-2.59-9.71-7.56-10.8l-.77-.17.09-.78c.36-3.15-.07-5.41-1.3-6.9s-3.34-2.33-6.48-2.57a1.62,1.62,0,0,0-.22,0,2.07,2.07,0,0,1-1-.15l-.42-.19a20.48,20.48,0,0,1-2.71-1.4,15.34,15.34,0,0,1-1.68-1.3,6.89,6.89,0,0,0-2.57-1.64c-5.76-1.32-12.36-2.3-17.67,2.88-.52.5-1.1,1-1.61,1.36l-.72.57-2,1.67a1.49,1.49,0,0,0,.75.57c.23,0,.71-.09,1.68-.93l.22-.18a5.79,5.79,0,0,0,.56-.51c4.05-4.46,9.35-6.07,16.2-4.91a8.38,8.38,0,0,1,6.39,4.19,2,2,0,0,0,2.17,1.17,18.42,18.42,0,0,1,4.12.19,5.57,5.57,0,0,1,4.85,8c-.45,1.38-.41,1.87-.3,2s.54.4,2,.52a7.28,7.28,0,0,1,6.63,6.5c.08.57.11,1.16.14,1.68a17,17,0,0,0,.16,1.75c.91,5.72-1.29,10.18-6.53,13.25-2.88,1.68-5,3-7,4.4a2.18,2.18,0,0,0-.47.82,3.16,3.16,0,0,0,.94.14c3-1.66,5.84-3.46,8.55-5.34s5.2-1.85,7.64.06c1,.79,1.31.81,1.38.81s.28-.21.67-1.56c.89-3.07,2.21-5,4.05-5.79s4.09-.57,6.93.77a12.82,12.82,0,0,1,7.18,7.78,7.26,7.26,0,0,1,.21,1c.05.32.16.93.3,1a.49.49,0,0,0,.28,0,7.48,7.48,0,0,0,.61-1.2,13.46,13.46,0,0,1,.67-1.38l.3-.53.61.1.27.07a2.46,2.46,0,0,0,1,.15,3.22,3.22,0,0,0,.94-.48,2.12,2.12,0,0,0-.55-.63,9.89,9.89,0,0,1-4.73-15.57c1.65-2.37,3.93-2.71,5.94-2.73,1.37,0,2.75.06,4.24.19s1.65-.12,1.71-.2.22-.4-.13-1.54c-1-3.34-1-5.68.08-7.37s3.18-2.7,6.6-3.17c4.8-.65,8.45.93,10.86,4.71a3.13,3.13,0,0,0,1.15.83,3.86,3.86,0,0,0,.36-1.52c-.5-5.43-.67-11.83,1.91-18.16,3.09-7.59,16.51-16.77,28-13.4a29.2,29.2,0,0,1,15.29,10.56l.55.72-.73.53c-.46.33-.92.64-1.37.94a15.89,15.89,0,0,0-2.65,2.06,2.25,2.25,0,0,0-.26,1,2.26,2.26,0,0,0,1-.31A15.94,15.94,0,0,1,630.13,74a129.35,129.35,0,0,1,14.39.36c6.84.42,11.29,5.1,15.22,9.23a37.16,37.16,0,0,1,4.34,5.88c.5.78.82.89.94.9s.41,0,1-.62c1-1,2-2,3-3.06l.56-.59c4.5-4.74,10.11-7.1,18.18-7.64,10.53-.71,19.79,2.49,28.29,9.77,6.07,5.2,9.21,11.57,9.33,18.94a33.33,33.33,0,0,1-1.21,11c-.31,1-.25,1.53-.11,1.69s.76.26,1.91,0c8.07-2.07,14.62,1.59,17.1,9.55a48.12,48.12,0,0,1,1.46,5.9c.58,3.32-.33,6.59-2.78,10-.11.16-.24.31-.36.46a2.81,2.81,0,0,0-.53.8l-.05.19a5,5,0,0,0-.32,1.86,4.25,4.25,0,0,0,1.57.13c1.72-.2,3.47-.46,5.16-.7,2.62-.39,5.29-.78,7.94-1,6.35-.5,11.94,1.28,16.15,5.14,6.56,6,9.88,12.49,10.15,19.78a26.3,26.3,0,0,0,.46,4.67,2.75,2.75,0,0,0,.66.92,5,5,0,0,0,.92-1c.59-1,1.14-2,1.68-3a42.76,42.76,0,0,1,3.43-5.71c2.22-2.92,5.76-3.23,9-.78,1.11.83,1.39.76,1.41.76s.28-.11.7-1.37c3.14-9.58,9.55-14.24,19.59-14.24h.14a56.9,56.9,0,0,1,7.71.57,12.86,12.86,0,0,1,9.2,5.64c.54.79,1,1.19,1.34,1.26s1-.17,1.86-.79c.29-.2.56-.41.84-.63l.61-.48a16,16,0,0,1,14.2-2.89,19.45,19.45,0,0,1,12.39,10.89c2.48,6,2.91,11.16,1.35,16.32l-.12.37a2.84,2.84,0,0,0-.22,1,4.32,4.32,0,0,0,.46,1.1,2.37,2.37,0,0,0,.87-.52c.77-1.09,1.49-2.23,2.19-3.33,1-1.53,2-3.11,3.09-4.56,5.14-6.69,16.64-9.8,24.13-6.54a13.38,13.38,0,0,0,8.8.83,17.28,17.28,0,0,1,6.3-.19,7.5,7.5,0,0,1,6.27,6.69,6.56,6.56,0,0,0,.64,2.33,6.9,6.9,0,0,0,2.46-.42l.22-.06a24.42,24.42,0,0,1,8.71-.68,6.9,6.9,0,0,1,5.1,3.23,7.87,7.87,0,0,1,.75,6.66,19.23,19.23,0,0,1-2.1,4c-.58.9-.83,1.48-.76,1.72s.33.46,1.41.95c2.09.94,3.77,3.24,4.49,6.16a8.74,8.74,0,0,1-1.08,7.38c-.33.41-.68.79-1,1.15a10.9,10.9,0,0,0-1.2,1.42,2.23,2.23,0,0,0-.34,1.16,2,2,0,0,0,1.1.28c1.78-.07,3.59-.22,5.34-.35a80.38,80.38,0,0,1,10.21-.36c6,.32,14.58,1.65,19.92,9.56a14.57,14.57,0,0,1,2,4.68,35.52,35.52,0,0,1-.21,16.91,12.49,12.49,0,0,1-6.43,7.83c-5.91,3.35-12.73,4.67-20.87,4-.73-.06-1.47-.1-2.2-.14-3.48-.18-7-.37-10.3-2.37a2,2,0,0,0-.83.08,2.29,2.29,0,0,0-1,.49.56.56,0,0,0-.1.28c.08.22,1,.55,1.31.67l.14.06a5.82,5.82,0,0,1,3.5,3.38,6.17,6.17,0,0,1-.39,5.14c-1.79,3.45-4.41,5.26-7.77,5.39-.42,0-.85,0-1.27,0a8.52,8.52,0,0,0-1.84.07,3.16,3.16,0,0,0-1,.45,2.65,2.65,0,0,0,.57.61c3.34.34,6.86.3,9.65-2.41.27-.26.55-.5.87-.76l1.08-.92.57.55c5.73,5.53,7.59,16,3.82,21.44a11.94,11.94,0,0,1-4.61,4.06c-7.47,3.43-14.21,3.62-20.62.6-5.55-2.62-8.55-6.57-9.18-12.06a3.47,3.47,0,0,0-.82-1.52c-.16,0-.24,0-.26.08-.17.19-.09,1,0,1.39l0,.2A13.8,13.8,0,0,0,914,289.59c4.59,3.32,7,7.54,7.06,12.2,0,5.18-3,10.67-7.89,14.33a12.87,12.87,0,0,1-7.85,2.59c-9,.08-18.49-.13-27.69-3.54a99.45,99.45,0,0,1-12.06-5.55,9.13,9.13,0,0,1-2.55-2.28,13.66,13.66,0,0,0-1.38-1.45,2.72,2.72,0,0,0-1-.4,4.52,4.52,0,0,0-.09.63l.59.69a18.71,18.71,0,0,0,4.14,4,58.39,58.39,0,0,0,18.57,7.34,3.64,3.64,0,0,1,3.11,2.95,18.06,18.06,0,0,1-3,15.19,15.44,15.44,0,0,1-11.86,6.37c-15.66.53-29-3-40.67-10.91-2.14-1.44-3.72-1.51-5.85-.27a37,37,0,0,1-18.94,5.09c-7.77,0-16-.28-24.16-2.25a31.2,31.2,0,0,1-9.19-4.19c-2.59-1.67-5.09-3.54-7.5-5.35-1.59-1.19-3.24-2.43-4.9-3.59a2.21,2.21,0,0,0-1-.14,2.33,2.33,0,0,0,.41,1.08c2,1.62,4.06,3.14,6.1,4.62l1.82,1.31c1.2.88,2.42,1.75,3.67,2.64l2.51,1.79-.41.69a5.3,5.3,0,0,1-4.9,3c-6.41.06-13.17-.41-19.19-4.22a2.21,2.21,0,0,0-.94-.13,13.45,13.45,0,0,1,0,1.42l0,.37a4.16,4.16,0,0,1-.49,2.17c-4.15,6.32-9.63,9.94-16.28,10.74-5.72.68-13.22,1.11-20.51-1.72-.93-.36-1.82-.82-2.68-1.25a27.05,27.05,0,0,0-2.75-1.27,2.36,2.36,0,0,0-1.07.05,2.47,2.47,0,0,0,.57.92,18.71,18.71,0,0,0,2.73,1.56l1.48.77.69.37-.29.72c-.19.47-.36.95-.52,1.42a17,17,0,0,1-1.35,3.14c-3.69,6.13-8.81,9.23-16.13,9.75-12.9.92-23.11-5.33-31.66-11.26l-.31-.22c-1.3-.9-2.76-1.92-3.13-1.87a13.37,13.37,0,0,0-1.13,3.44l-.06.22c-1.67,6.36-5.74,10.65-12.45,13.1s-13.91,2.1-21.83-1.15l-.53-.25a2.79,2.79,0,0,0-.88-.33,3.21,3.21,0,0,0-.81.14,2.47,2.47,0,0,0,.42,1,3.71,3.71,0,0,0,.6.24l.42.15c4.32,1.69,9.49,3.37,15.17,3,1.12-.08,2.23.74,3.18,1.51a5.7,5.7,0,0,1,1.08,1.32,5.48,5.48,0,0,0,.68.88c5.36,5,4.15,10.84,2.26,15.92-3.84,10.36-10.54,14.49-23.27,14.28-11.53-.19-21.82-5-31.47-14.69a1.9,1.9,0,0,0-.79-.32,3.5,3.5,0,0,0-.12.87,16.77,16.77,0,0,0,2,2.13c.42.38.83.77,1.22,1.17l.4.39a5.52,5.52,0,0,1,1.54,2c3.54,9.56,4.46,17.56,2.89,25.17-.84,4.07-3.48,6.83-6.33,9.53-.4.37-.83.7-1.24,1s-.65.49-.94.75c-3.9,3.43-8.47,5-14.38,5.07-10.6.12-20.4-3.56-31.79-11.87a13.2,13.2,0,0,1-1.82-1.76l-.43-.47a8.76,8.76,0,0,1-.76-1l-.68-.92.32-.51.34-.48a2.63,2.63,0,0,0,.41-.69,1.14,1.14,0,0,0,.06-.81,1,1,0,0,0-.57,0,7.09,7.09,0,0,0-1.95,1c-.31.2-.58.38-.85.54a4.42,4.42,0,0,0-.57.39,6,6,0,0,1-1.24.76c-9.5,4-19.57,3.76-30.8-.86a4.32,4.32,0,0,0-1.79-.53c-.08.05-.26.34-.53,1.62a15,15,0,0,1-1.66,4.32c-4.66,8.2-11.54,12.39-20.46,12.46-5.31,0-9.64-.09-13.72-.42a13.9,13.9,0,0,1-12.44-9l-.48-1.16c-1.33-3.18-2.68-6.4-2.37-10.12a3.64,3.64,0,0,0-.39-.64l-1.07.61a7.91,7.91,0,0,0-.77.56,4.44,4.44,0,0,1-2.39,1.18,24.66,24.66,0,0,1-14-3.58,15.56,15.56,0,0,1-5.19-6c-3.17-5.79-4.06-11.5-2.65-17l.17-.65h4.15c2.75,0,5.34,0,8-.05a20.8,20.8,0,0,0,5.25-.76,2.73,2.73,0,0,0,.54-.75,2.4,2.4,0,0,0-1.05-.21c-13.08,2-22.68,0-31.12-6.45l-1.12-.85,1.26-.63c8.63-4.31,13.36-12.12,17.94-19.68l1.3-2.15.67.24c1.49.52,2.93,1.05,4.36,1.58a99.94,99.94,0,0,0,9.59,3.21,28.85,28.85,0,0,0,14.46.21,2.46,2.46,0,0,0,.91-.71,2.29,2.29,0,0,0-1-.35c-9.95,2-18.93-1.31-25.63-4.41a7.1,7.1,0,0,1-1.06-.65c-.14-.1-.27-.2-.4-.28l-.6-.4.27-.66c.51-1.27,1-2.52,1.58-3.76a82.55,82.55,0,0,0,3.28-8.45,54.61,54.61,0,0,0,2-10.91c.39-4.34.51-8.8.62-13.11l.08-2.76a9.59,9.59,0,0,0-.48-3.33,3.13,3.13,0,0,0-.67-.46,2,2,0,0,0-.36.67c-.14,5.5-.26,11.36-.23,17.27.07,10.48-4.44,19.36-9.06,27.55-.93,1.65-2,3.26-3,4.81-.67,1-1.32,2-1.95,3.06a34.66,34.66,0,0,1-15,13.4,4.14,4.14,0,0,0-2.67,3.7c-.94,8.94-6.19,15.59-11.2,20.92-4.52,4.8-11,6.32-16.18,7.1a65.41,65.41,0,0,1-10.46.45c-1.68,0-3.53,0-5.31,0a3.4,3.4,0,0,0-2,.42c-3.64,5.07-8.69,8.35-13.58,11.53-1.5,1-3.06,2-4.57,3-6.37,4.5-12.35,6.94-18.8,7.7-13,1.52-25.58,2.14-36.34-7-5.08-4.3-9.73-9-13.21-12.6-2.5-2.6-2.52-4.11-2.59-9.12V405l.6-.27c.62-.16,1.19-.29,1.76-.41a21.42,21.42,0,0,0,3.67-1,22.51,22.51,0,0,0,4.82-2.84,4.82,4.82,0,0,0,0-.83,3.21,3.21,0,0,0-1,.17c-.78.33-1.6.76-2.32,1.13a17.16,17.16,0,0,1-4.47,1.85c-6.94,1.45-12.44,1.13-17.34-1a2,2,0,0,0-1.06-.1c0,.17,0,.46,0,.59,0,.28,0,.56,0,.8s0,.26,0,.4a3.1,3.1,0,0,1-.13,1.46c-5.4,13.09-14.44,21-26.84,23.44a38.9,38.9,0,0,1-23.5-2.32,19.57,19.57,0,0,1-8.61-7.18,3.13,3.13,0,0,1-.22-.36,2.48,2.48,0,0,0-.45-.62,3.61,3.61,0,0,0-.94-.28,3.74,3.74,0,0,0-.14.71c1.26,1.62,2.67,3.18,4,4.69l1.14,1.27a8.14,8.14,0,0,0,.66.64l.54.48.78.73-.86.62c-4.72,3.41-9.86,6.73-16.49,6.39l-4.25-.19h-.15a151,151,0,0,1-16-1.23c-11.17-1.66-19.62-7.5-24.45-16.9-4.49-8.75-5.71-17-3.73-25.25l.17-.71.72,0,3.3.21.64,0c2.32.16,4.7.32,7.07.31,4.45,0,9-.15,13.34-.28h.33l4.79-.14a1.37,1.37,0,0,0,.5,0c4.55-2.57,7.88-.13,10.27,2.28,5.44,5.49,12.14,5.57,20.34,5.09.15,0,.52-.36.77-.62a2.48,2.48,0,0,0-1-.44c-1.33-.07-2.71-.07-3.92-.06H192c-1.49,0-3,0-4.56-.11a14.16,14.16,0,0,1-5.68-1.4,57.37,57.37,0,0,1-5.73-3.79c-.8-.57-1.57-1.12-2.35-1.66l-1-.72,1-.72,2.69-1.91c1.91-1.37,3.69-2.63,5.51-3.85,4-2.7,6.51-6.73,8.41-10.32a2,2,0,0,0,0-.86,2.84,2.84,0,0,0-.87.37A31.36,31.36,0,0,1,176,383.71c-4.54,2.43-9.51,4.66-14.88,4.56-8.67-.11-18-.29-27.09-.94a13,13,0,0,1-5.47-2.24c-.62-.37-1.26-.75-1.87-1.07a3.58,3.58,0,0,1-1.08-.94,2.21,2.21,0,0,0-.58-.53,3.06,3.06,0,0,0-1.15-.15,2.66,2.66,0,0,0,.09.68,59.59,59.59,0,0,0,5.54,4.2,10.51,10.51,0,0,0,2,1l1.58.66,1.35.6-1.17.9c-1,.77-1.93,1.54-2.85,2.28a48.48,48.48,0,0,1-5.8,4.3,41,41,0,0,1-35.15,3.83c-8.35-2.75-15.45-8.08-21.7-16.3a2.42,2.42,0,0,0-1-.52,3.2,3.2,0,0,0,.14,1.26,10.28,10.28,0,0,0,1.45,2.09c.29.35.59.72.89,1.12l.42.56-.45.53c-3.16,3.75-7.13,7.67-12.58,8.27-6.55.73-14.17.94-21-3a32.28,32.28,0,0,1-14-15.64c-3-7.12-1.56-13.63,4.14-18.83a47.32,47.32,0,0,1,4.78-3.66c.87-.61,1.86-1.3,2.76-2a2.12,2.12,0,0,0,.47-.64l0,0a3.45,3.45,0,0,0-.53-.37,8.35,8.35,0,0,0-2.86,1,15.24,15.24,0,0,0-2.77,2.12c-3.93,3.53-4.35,3.57-9,.88C8.48,351.75,3,343.24,1.84,331.62c-.63-6.4-1.14-13.22,0-20.05a18.56,18.56,0,0,1,2.82-7.41C13.4,291.87,21.81,288,35.68,290c3.53.5,5,.41,6.44-2.61s4.41-4.88,8.27-5.1c1.31-.08,1.53-.33,1.57-.38s.14-.48-.44-1.92c-3-7.39-2.17-14.05,2.48-19.79A11.54,11.54,0,0,1,63,256c.86,0,1.71,0,2.53.05s1.59.08,2.33.06a2.62,2.62,0,0,0,1-.24,1.69,1.69,0,0,0-.27-1c-5.9-5.35-8.23-12.35-7.55-22.7a19,19,0,0,1,4.57-11.29c.91-1,3.34-3.55,6.24-4.19,10.14-2.25,18.15-.19,24.48,6.29a2.8,2.8,0,0,0,1,.47,3.58,3.58,0,0,0,.22-1.28c-.2-1.78-.49-3.58-.78-5.31a54.85,54.85,0,0,1-1-10.62c.39-11.26,5.42-19.3,14.93-23.91a48.39,48.39,0,0,1,24.7-4.62c5.28.36,10.52,2.58,16,6.81a3,3,0,0,1,.65,3.09c-2.54,6.29-.33,12.2,2,17.27a4.9,4.9,0,0,0,.6.19,2.78,2.78,0,0,0,.13-1.16c-.3-1.27-.66-2.57-1-3.83a54.38,54.38,0,0,1-1.51-6.26c-.4-2.5.59-4.54,2.32-7,4-5.7,9.69-6.34,15.21-7l.82-.09a19,19,0,0,1,2.7-.06h.2c1.25,0,1.68-.39,1.76-1.83.2-3.4.61-6.79,1-10,.7-5.42,6.81-11.66,13.27-11.29,2.76.16,4.21-.66,5.79-3.24a15.31,15.31,0,0,1,12.34-6.91,15.83,15.83,0,0,1,13.48,5.63c1.27,1.63,2.12,1.79,3.95.79a47.45,47.45,0,0,1,6.9-3,7.19,7.19,0,0,1,8.47,2.45,29.69,29.69,0,0,1,3.83,6.69c.48,1.13,1,1.1,2.28,1l.46,0c.68,0,1.36-.06,2.05-.1a22.14,22.14,0,0,1,7.29.35c6.46,1.8,9.37,5.58,9.73,12.63.07,1.5.05,3,0,4.46,0,1.2,0,2.42,0,3.61a2.12,2.12,0,0,0,.3.79,4,4,0,0,0,.64-.35,8.58,8.58,0,0,0,.51-4c-2.22-8.52,3.13-13.52,7.85-17.94,1.36-1.27,2.82-2.43,4.24-3.55.89-.71,1.74-1.38,2.57-2.08,4.16-3.51,9.17-5.65,15.75-6.73,6.15-1,12.7-2.28,20.62-4,6.68-1.47,13.08.24,20.15,5.37,10.62,7.7,15.64,19.17,19.15,29.38a5.09,5.09,0,0,1,.14.59,3.44,3.44,0,0,0,.11.41,8.79,8.79,0,0,0,.95.77,2.46,2.46,0,0,0,.27-.75c-1.09-3.25-2.36-6.53-3.59-9.71l-.33-.85c-.28-.72-.63-1.44-1-2.26-.22-.45-.45-.91-.68-1.41l-.41-.86.9-.33c.33-.12.64-.26.95-.4a6.65,6.65,0,0,1,2.28-.71c1.11-.08,2.22-.19,3.34-.29a56.63,56.63,0,0,1,10.17-.33c10.08.89,17.23,5.5,21.26,13.68,0,.1.09.21.13.31l.09.2c.37.25.77.49,1.17.72a2.77,2.77,0,0,0,0-1.13c-1.66-4.66-5-8.24-10.53-11.26a7.45,7.45,0,0,1-3.91-5.64,7.18,7.18,0,0,1,2.35-6.2c6-5.52,12.8-7,20.14-4.39a6.13,6.13,0,0,1,4.18,5.35,3,3,0,0,0,.79,1.66,2.84,2.84,0,0,0,1.68-.78c6.1-5.59,12.12-5.64,18.38-.16a18.29,18.29,0,0,1,2.47,2.83c.51.67,1,1.35,1.59,1.95a2.69,2.69,0,0,0,1,.54,2.39,2.39,0,0,0,.12-.86c-2.74-7-12.6-11.36-19.54-8.75a14.05,14.05,0,0,0-2.7,1.53c-.47.31-.94.62-1.45.93l-.93.56-.35-1A7.25,7.25,0,0,0,402,147c-3.56-1.12-7.73-2.09-11.75-.76a35.55,35.55,0,0,0-7.29,3.5c-4.17,2.52-5.75,6-4.7,10.44l.3,1.27-1.28-.2a60.52,60.52,0,0,0-24.37,1l-.64.16-.33-.57c-6.48-11.23-15.14-17.93-26.48-20.48l-.9-.2.25-.89c1.12-4,2.55-6.75,4.61-8.79a109.94,109.94,0,0,1,9.57-8.14,11.41,11.41,0,0,1,8.23-2.35,11.44,11.44,0,0,0,3.2-.07,1.92,1.92,0,0,0,.7-.51,2.24,2.24,0,0,0-.75-.56,18.09,18.09,0,0,0-15.11,4.66c-.79.72-1.6,1.37-2.46,2l-.1.08-1.08.87L331,128l-.57-.53c-3.56-3.33-6.81-7.2-6.47-12.91,0-.23,0-.46,0-.69v-.41c.06-9,3.09-12.19,12-12.75,2.72-.17,2.72-.17,3.38-2.67l.07-.28a8,8,0,0,1,2.13-3.7c1-.91,1.05-1.2,1-1.27s-.06-.28-1.15-.89a12.5,12.5,0,0,1-5.43-6.21,6.36,6.36,0,0,1,.78-7.19,2,2,0,0,0,.64-1.37q-.08-.54-1-1.2c-1-.72-2-1.46-3-2.2l-.07-.06c-1.9-1.42-3.86-2.9-5.88-4.21a15.22,15.22,0,0,1-6.12-7.67c-2.32-6-2.25-12.18.2-17.3A20.46,20.46,0,0,1,334.16,34c7.71-2.47,15-1.51,21.17,2.78,1.31.91,2.63,1.83,4,2.65.91.54,1.49.56,1.71.42s.39-.6.3-1.53c-.5-5.08,1-9.68,2.53-14.13,2.32-6.93,5.88-9.43,12.72-8.94,4.28.31,6.52-.84,8.25-4.23a16.37,16.37,0,0,1,11.09-8.83C409-1,416.87,3.42,420.82,16.22a5.41,5.41,0,0,1,.18.91,3.56,3.56,0,0,0,.08.52c.2.84.51,1.21.72,1.28s.58-.1,1-.45c3.11-2.76,6.19-2,9.07-.92a3.3,3.3,0,0,0,2.42-.14c5.32-5,11.76-3.9,16.14-2.64,9.45,2.73,16.09,9.75,19.75,20.87a12.09,12.09,0,0,1,0,5.42c-.08.56-.16,1.07-.21,1.56-.24,2.32-.25,2.46,2,2.86A17.83,17.83,0,0,1,483.65,53c2.47,3.47,2.84,7.34,1.15,11.84a28.73,28.73,0,0,1-10.74,13.65A5.05,5.05,0,0,0,473,79.87l-.05.08a10.07,10.07,0,0,1,1.63,1.12l1,.86a15.65,15.65,0,0,1,3.31,3.44l.18.28,1.3-2.12-5.05-4.06.62-.69.19-.23a4.54,4.54,0,0,1,.81-.84c3.71-2.77,6.51-6.57,8.83-12a13.91,13.91,0,0,0-3.15-15.82,19.26,19.26,0,0,0-10.52-5.65l-.72-.13v-.73c0-1,.07-1.94.14-2.87a13.74,13.74,0,0,0-.22-5.26c-3.73-11.26-10.4-18.47-19.82-21.43-7.24-2.27-12.65-1.66-17.05,1.91a3.11,3.11,0,0,1-2.71.45c-3.29-1.21-5.86-1.18-8.34.12l-.9.47-.33-1-.28-.84c-.17-.53-.32-1-.5-1.4-5.22-12.09-13.06-15.8-26.2-12.42a16.29,16.29,0,0,0-10.79,8.39C382.5,13.08,380,14.4,376,14c-5.26-.54-9.41,1.79-12,6.75a21.14,21.14,0,0,0-1.61,4.13c-.73,2.76-1.42,5.58-2.08,8.31l-.77,3.14.1.44-.94.66-.42-.23-.72-.13.06-.26-.18-.12c-.64-.39-1.28-.79-1.91-1.21-6-4-13.15-5-21.32-2.8-9,2.4-17.17,11.77-15.38,23.28.88,5.66,2.67,11.89,9.28,15.19a26.63,26.63,0,0,1,4.37,3c.53.41,1.06.82,1.6,1.21a2.77,2.77,0,0,1,.85,4.11,6.12,6.12,0,0,0,0,6.41c.89,1.66,1.94,3.26,3,5,.51.78,1,1.57,1.56,2.41l.24.38-.17.41c-.08.18-.18.4-.3.65a8.77,8.77,0,0,0-.83,2.22c-.42,2.35-1.92,2.7-3.33,2.74-4.88.14-8,1.59-10.18,4.7-3.21,4.6-3,14.66.42,19.21.89,1.2,1.83,2.33,2.66,3.33.34.42.65.78.91,1.11l.36.44-1.69,3.37c-1.34,2.69-2.61,5.23-3.92,7.74-.42.8-1.1,1.79-2,2-3.35.67-6.7,1.29-10.05,1.92-4.87.91-9.84,1.84-14.69,2.87l-1,.2c-3.27.68-6.64,1.38-9.18,3.08a126,126,0,0,0-12.1,9.61l-.08.08-3,2.56a24.49,24.49,0,0,0-2.8,3c-.44.53-.88,1.06-1.34,1.58l-.72.81-.64-.88c-4.88-6.73-11.44-9.27-19.51-7.55l-.67.15-.3-.62c-2.7-5.6-5.47-8.66-8.73-9.63-3.42-1-7.7.09-13.47,3.53l-.74.44-.45-.73-.19-.32a3.08,3.08,0,0,0-.4-.64,17.84,17.84,0,0,0-28.15,2.61,4.52,4.52,0,0,1-3.47,1.79h0c-8.32-.26-14.62,6.9-15.32,13.76-.19,1.91-.43,3.78-.68,5.75-.13,1-.25,1.9-.36,2.85l-.1.73-.74,0c-6.43.26-13.14.92-18.39,6l-.55.53-1.14-.9c-.35-.29-.65-.52-1-.74-6-4.24-11-6.38-16-6.73a49.94,49.94,0,0,0-25.62,4.68c-10,4.86-15.15,13.17-15.73,25.42a54.83,54.83,0,0,0,.37,7.6c.12,1.22.24,2.45.32,3.7l.1,1.48-2-.91L92.12,218a30.38,30.38,0,0,0-19.67-2.82A13,13,0,0,0,63.88,221c-4.46,6.67-5.49,14.13-3.12,22.79a47.8,47.8,0,0,0,2.51,6.6c.46,1.07.92,2.12,1.35,3.2l.5,1.23-1.33,0h-.45c-5.54,0-9.6,2.71-12.78,8.54-3,5.46-2,11.1-.53,16.87l.24,1-1,.09c-4.65.39-7,3.5-9.65,7.52l-.33.5-.58-.12c-8.13-1.65-15.19-1-21.6,1.89-4.44,2-7.77,5.48-11.08,9.13a21,21,0,0,0-5.4,11.25,84.28,84.28,0,0,0,.2,21.45c1.3,11.14,6.73,19.45,16.62,25.39,1,.61,2,1.19,3.09,1.8L23,361.49l-.62.79a16,16,0,0,0-3,13.67c1.44,6.46,5.36,12.19,12,17.5,6.4,5.13,14.14,5.77,21.52,6A17.76,17.76,0,0,0,64,395.87c1.51-1.08,3-2.32,4.39-3.53.7-.6,1.34-1.14,2-1.67l.64-.53.56.61C79.23,399,89,403.5,100.7,404.15s22.11-2.93,30.6-10.67l1.35-1.24.11,1.83c0,.41.06.75.08,1a6.3,6.3,0,0,1,0,1.35c-.87,7.07,1.78,13.4,4.76,19.19,5,9.6,13.37,15.41,25,17.26a90.61,90.61,0,0,0,9.72.84c2.31.12,4.69.24,7,.48a27.39,27.39,0,0,0,21.72-7.12l.37-.33.47.15c8.89,2.83,20.59,5.46,32.19.61,9.95-4.16,17.18-11.86,21.5-22.89l.24-.6,12.54,1,0,.85c-.15,3,0,6.87,2.79,9.66,1.12,1.15,2.22,2.31,3.33,3.48a82,82,0,0,0,10.31,9.71c12.06,9,25.75,8.18,37.64,6.69,6.44-.81,12.41-3.31,18.8-7.87,1.62-1.16,3.32-2.23,5-3.27,4.06-2.57,8.26-5.21,11.26-9.15a5.32,5.32,0,0,1,5.36-2.17,45,45,0,0,0,26-4.74,15.27,15.27,0,0,0,4.44-3.1c5.09-5.71,10.61-12.55,11.65-21.55a4.06,4.06,0,0,1,.32-1.08l.12-.29.32-1,15.76,8-.07.61c-1,9.13.88,16.54,5.54,21.42,4.5,4.71,11.43,6.88,20,6.3l.66,0,.22.61c.3.8.58,1.61.87,2.41l.06.17c.66,1.87,1.34,3.77,2.09,5.58,2.54,6.07,7.1,9.43,13.56,10a129.65,129.65,0,0,0,13.79.41c7.85-.15,14-3,18.17-8.41,1.41-1.82,2.63-3.75,3.93-5.79l.09-.14c.49-.77,1-1.56,1.5-2.34l0-.06.14-.23.23-.21a1.11,1.11,0,0,1,1.21-.14l.85.16-.07.11c11.22,3.85,21.12,3.79,30.24-.19a3,3,0,0,1,2.88.68c9.82,9.55,20.74,14.5,33.39,15.13,4.16.21,8.45.42,12.18-1.71a48.58,48.58,0,0,0,7.73-5.57c2.54-2.21,5.54-5.28,6.22-9.36,1-5.81,1.8-12.55-.57-19a17.84,17.84,0,0,1-.67-2.53c-.11-.49-.22-1-.36-1.58l-.49-2,1.76,1,1.73,1,.12.07c1.14.66,2.09,1.2,3.05,1.7,8.55,4.39,16.56,5.92,24.49,4.69,4.32-.67,9.21-1.84,12.73-5.36A25.85,25.85,0,0,0,646,381.38c.54-4.09-.29-7.14-2.63-9.58a22.49,22.49,0,0,1-2-2.62c-.3-.43-.62-.89-1-1.35l-.79-1.07,1.29-.31c9-2.14,14.51-7.32,16.78-15.82l.31-1.16,3.12,2c1.51,1,3,1.89,4.41,2.85,9.67,6.43,19.44,8.88,29.87,7.49a16.37,16.37,0,0,0,8.41-3.42c4-3.15,6.51-6.75,7.55-10.68l.19-.7.72.05,4.79.35c3.5.28,6.8.54,10.16.62,7.16.16,12.64-1.61,16.75-5.44,1.75-1.62,3.34-3.4,5-5.27.82-.92,1.6-1.79,2.41-2.66l.47-.5.6.34c4.3,2.43,9.32,2.62,14.63,2.83l.59,0c3.15.13,5.22-.59,6.85-2.4a3.31,3.31,0,0,1,2.77-.78c2.19.38,4.4.81,6.54,1.23,4,.8,8.17,1.61,12.27,2,9.64.95,20.87,1.06,31-5.27a3.2,3.2,0,0,1,2.91.19c1,.56,2,1.18,2.88,1.78,1.17.75,2.38,1.52,3.61,2.16a67.65,67.65,0,0,0,35.55,7.5c7.94-.46,13.43-4.64,15.45-11.78a39,39,0,0,0,1.08-7.9c.09-1.21.18-2.58.33-3.92l.09-.82.82,0,2.86.13h.14c2.51.13,5.08.25,7.7.33h.29c5,.14,9.7.28,13.55-3.21,4.43-4,8.44-8.71,7.77-15.59a25.17,25.17,0,0,0-.9-4.11c-.2-.71-.4-1.42-.58-2.16l-.31-1.31,1.33.24a29.23,29.23,0,0,0,16.87-1.54c5.21-2.11,8-6.09,8.37-11.81a21.79,21.79,0,0,0-5.58-16,3,3,0,0,1-.85-2c.12-1.57.31-3.1.51-4.72l.32-2.62,7.36.55c8.56.63,15.72-.74,21.9-4.2h0A13.46,13.46,0,0,0,977.48,243.11Z"/><path d="M263.57,337.44l.16,1.18c.15,1.16.26,2.31.36,3.43a36.88,36.88,0,0,0,1.09,7c3.53,12,9.77,20.4,19.07,25.67,9.71,5.49,18.6,10.14,28.95,11.39,4.64.56,10.71.94,16.54-1.12a2.45,2.45,0,0,0,.8-.81,2.36,2.36,0,0,0-1.07-.21,37.93,37.93,0,0,1-16.42.92c-10.75-1.44-20.35-6.8-28.07-11.12-9-5-15.06-13-18.48-24.39-2.09-6.92-1.48-14.16-.95-20.55a11.62,11.62,0,0,1,1-3.3,15.68,15.68,0,0,0,.67-1.88,8.1,8.1,0,0,0,.3-1.89.57.57,0,0,0-.44,0h0a1.73,1.73,0,0,0-.75,1.15,96.39,96.39,0,0,0-2.17,10.19c-.21,1.41-.43,2.86-2.24,3.56-1.08.42-2.2.93-3.18,1.37a29.53,29.53,0,0,1-7.09,2.52,52.92,52.92,0,0,1-31.48-3.81c-8.32-3.8-14.22-10.44-19.93-16.87L199,318.49c-.16-.18-.32-.4-.48-.61s-.52-.71-.68-.74a.52.52,0,0,0-.2.1,3.3,3.3,0,0,0,.29,1.7c6.83,7.91,14.56,16.87,26.37,20.62,14,4.44,26.48,3.91,38.18-1.61Z"/><path d="M714.62,319.7c-1.07-.67-2.15-1.42-3.11-2.07-1.23-.85-2.52-1.73-3.81-2.51a3.12,3.12,0,0,0-.77.09,2.91,2.91,0,0,0,.19.73l1.55,1.06a95.73,95.73,0,0,0,9,5.71c6.57,3.49,13.8,3.31,21.25,2.79a21.65,21.65,0,0,0,14.75-7,89.52,89.52,0,0,0,7.31-9.06c1.13-1.58,2.37-3,5-2.71a43,43,0,0,0,7.47,0c1.24-.09,2.49-.16,3.74-.22a52.51,52.51,0,0,0,10.75-1.3c8.83-2.36,15-8.54,19.87-20a2.45,2.45,0,0,0-.17-.87,2.33,2.33,0,0,0-.81.46c-1,1.57-1.88,3.28-2.73,4.93l-.56,1.08c-4.7,9-12.46,13.89-23.07,14.56-4.94.31-9.87.27-15.34.2a39.35,39.35,0,0,1-19.41-5.24c-1.19-.69-2.36-1.43-3.49-2.15-1.36-.86-2.76-1.75-4.18-2.53a2.69,2.69,0,0,0-1,.06,2.64,2.64,0,0,0,.19.67c4.67,3.4,10.37,7.11,17,8.74,1.2.29,2.39.61,3.74,1l3.36.89-.73,1c-.41.57-.79,1.12-1.16,1.65l-.06.08c-.8,1.16-1.55,2.24-2.37,3.27-3.14,3.92-6.69,8.36-12.08,9.86C733.18,326.17,723.25,325.13,714.62,319.7Z"/><path d="M340.73,216.37c-6.65-2.5-12.26-3.6-17.71-3.47h-2.28l-1.64,0a6.31,6.31,0,0,0-1.4.22c-9.42,2.52-16.05,6.22-20.84,11.65-7.6,8.59-9.42,18.18-5.15,27a2.19,2.19,0,0,0,.79.64,4.11,4.11,0,0,0,.2-1.18,3.18,3.18,0,0,0-.39-1.1c-.12-.26-.24-.52-.33-.78a19.8,19.8,0,0,1-.14-13.68c4.28-12.66,14.65-17.65,25.22-21.16a11,11,0,0,1,3-.42l.65,0c7.46-.44,14.39,1.52,19.6,3.26a2.22,2.22,0,0,0,1-.19C341.11,216.82,340.87,216.42,340.73,216.37Z"/><path d="M60.16,334.35l.19,1c.61,3.4,2.67,5.51,6.28,6.45a43.51,43.51,0,0,0,5.34,1c2.22.27,6.26-1.92,7.2-3.94a1.34,1.34,0,0,0,0-.81,2.59,2.59,0,0,0-.7.09,3.36,3.36,0,0,0-1,.93c-3,3.6-6.84,2.55-9.89,1.71l-1-.29c-3.21-.83-4.85-3.07-5-6.83,0-.64-.19-1.09-.44-1.23s-.79,0-1.4.37a13.24,13.24,0,0,1-13,.5c-7.57-3.64-12.38-8.71-14.72-15.48-2.5-7.26.56-15.2,7.12-18.47a28.56,28.56,0,0,1,6.16-2c1.13-.27,2.28-.54,3.36-.88a3.35,3.35,0,0,0,1-.61,2.73,2.73,0,0,0-.63-.5,17.67,17.67,0,0,0-4.78.5c-6.08,1.56-10.82,5.36-13,10.44-2.08,4.84-1.64,10.31,1.22,15.41a32.16,32.16,0,0,0,5.42,6.83c6.67,6.69,13.72,8.69,21.54,6.12Z"/></g></g></g></g></svg>