<svg xmlns="http://www.w3.org/2000/svg" viewBox="0 0 750.03 343.24"><defs><style>.cls-1{fill:#fff;}</style></defs><g id="Layer_2" data-name="Layer 2"><g id="Mobile"><g id="_07" data-name="07"><path class="cls-1" d="M4.84,145.32a10.68,10.68,0,0,0,5.39,5.57,120.48,120.48,0,0,0,16.54,4.8,7.86,7.86,0,0,0,3.75-.41,13.82,13.82,0,0,1,2-.44,5.74,5.74,0,0,1,1.75.16l.3.06q0,.24,0,.51c0,.43-.07,1.32-.25,1.45-3.5,2.57-4.2,6.19-4.71,10.31-.39,3.19,1,5.56,4.14,7,4.22,2,4.22,2,3,6.61-.09.34-.2.68-.31,1a10,10,0,0,0-.52,2.12c-.11,1.13-.25,2.25-.38,3.38A51.27,51.27,0,0,0,35,197c.32,4.84,4.08,8.44,9.56,9.17a31.41,31.41,0,0,0,15.54-2,4.06,4.06,0,0,1,1.81,0l.4.05,0,.3a14.73,14.73,0,0,1-.3,2.07,10,10,0,0,1-.82,2l-.14.28c-4.79,9.61-3.66,19.86-2.15,27.72,3,15.8,12.12,26.93,26.25,32.16,13.35,4.94,28.28,5,45.62.09a3.92,3.92,0,0,0,2.23-2.47c.53-1.73,1-3.5,1.46-5.21.55-2.09,1.13-4.24,1.79-6.32.1-.31.72-.66,1.22-1l.27-.15c0,.08.07.16.11.25a3.12,3.12,0,0,1,.48,1.59,20.48,20.48,0,0,1-1.25,3.84c-.16.4-.32.8-.47,1.2-2.48,6.55-1,12.71,4.15,17.33a22.07,22.07,0,0,1,2.55,2.58,8.52,8.52,0,0,0,6.67,3.28c6,.33,6,.33,6.13,3.87,0,.67.05,1.46.11,2.38.7,10.77,5.65,18.26,14.31,21.64,13.08,5.12,24.13,3.21,32.85-5.68,3.31-3.39,3.38-3.33,7.08-.56a20.84,20.84,0,0,0,13.93,4.09A14.28,14.28,0,0,0,237,301.17c.82-1.62,1.49-2.74,2.14-2.89s1.65.5,3.09,1.58c.53.41,1.1.77,1.66,1.14a22,22,0,0,1,1.87,1.3c3.74,3,9.29,4.1,15.23,3s10.88-4.19,12.95-7.85c1.22-2.15,2.38-4.38,3.51-6.54s2.39-4.6,3.68-6.85c2.62-4.6,3.41-9.69,4.16-14.62l0-.13a4.49,4.49,0,0,1,1.27-2.33,1.1,1.1,0,0,1,.89.25c.38.44.2,1.56.09,2.23-.28,1.7-.64,3.42-1,5.09-.5,2.4-1,4.88-1.31,7.35-.36,2.92-.58,6,.24,8.7a118.35,118.35,0,0,0,5.84,14.75,18.51,18.51,0,0,0,4.07,5.38c4.78,4.67,11,6.5,19.71,5.76,2.42-.21,3.72.44,4.79,2.39,6.27,11.49,17.52,15.89,27.7,18.68a71.93,71.93,0,0,0,10.56,1.8c2.14.26,4.36.53,6.51.91,12.25,2.17,24.07-.62,36.15-8.56a8,8,0,0,1,3-.9c1.13-.18,2.32-.28,3.48-.37a24.09,24.09,0,0,0,6.78-1.22c7.86-3.09,16.37-7.65,19.89-18,2.59-7.66,3.65-15.61,4.6-23.77a3.76,3.76,0,0,1,1.1-1.62l.19-.2.15.25a3.63,3.63,0,0,1,.71,1.83c-.94,7-2,13.5-3.13,19.8a30,30,0,0,1-1.52,4.95c-.3.82-.6,1.65-.89,2.52l-.22.66.68.15,1,.24c.67.16,1.29.32,1.93.41,11.08,1.69,22.09,0,33.67-5.25a18.76,18.76,0,0,0,7-4.92,119.87,119.87,0,0,0,11.06-15.77A23.52,23.52,0,0,0,492.82,280a57.65,57.65,0,0,0-.53-8.53c-.18-1.63-.37-3.31-.47-5a6,6,0,0,1,.44-2.12c.05-.16.11-.33.16-.5l.47.13a10.53,10.53,0,0,1,2.14.7c1.5.71,3,1.5,4.46,2.27a72.5,72.5,0,0,0,8.45,4c10.15,3.74,21.53,5.55,35.81,5.69,12.81.13,25.09-4.23,37.6-13.36a8.85,8.85,0,0,0,1.32-1.27l.39-.43c9.11-9.68,14.75-22.17,17.75-39.28a32.9,32.9,0,0,0-.2-9.34c-.19-1.65-.39-3.35-.44-5a4.63,4.63,0,0,1,.57-1.86l.09-.2.21.18a3.87,3.87,0,0,1,1.35,1.46,32.33,32.33,0,0,1,1.24,6.62c.87,9-2.1,17.4-5,25.57l-.06.17c-1.49,4.24-1.32,4.82,2.29,7.88,5.51,4.67,12.34,5.76,18.37,6.71a31.24,31.24,0,0,0,16.13-1.64c16.26-6.13,27.27-18.5,32.72-36.76,1.4-4.7,1.83-9.73,2.25-14.6.14-1.61.27-3.21.45-4.8.14-1.31.43-2.09.93-2.45a2.36,2.36,0,0,1,1.88-.19c9.35,1.86,17.9-.69,25-3.43,8.27-3.17,14.73-8.71,19.73-16.93a3.17,3.17,0,0,1,1.27-.86l.22-.11.15.33c.21.47.53,1.19.42,1.44a21.35,21.35,0,0,1-3.19,5.15c-1.51,1.81-3.13,3.49-4.84,5.27-.72.75-1.45,1.5-2.17,2.28l-.61.64.81.36c7.64,3.41,15.09,3.12,22.76-.88,4.5-2.35,9-5.3,11.83-10.94,3.56-7.21,3.43-14.77-.4-23.8a14.25,14.25,0,0,0-5.52-6.46,21.92,21.92,0,0,0-17.41-2.23c-2.53.7-3.63,2-3.82,4.42-.31,4-1.67,7-4.16,8.91a3.73,3.73,0,0,1-1.83.4l-.29,0,0-.27a3.28,3.28,0,0,1,.48-1.63c4.17-3.7,4.39-12.95,1.52-17.15-8.36-12.23-21.82-17.47-36-14a6.18,6.18,0,0,0-5,4.36,10.69,10.69,0,0,1-3.3,4.82,106.64,106.64,0,0,1-11,7.12,1.15,1.15,0,0,1-1,.21c-.34-.15-.61-.74-.75-1.6-.06-.39-.11-.79-.17-1.19a13,13,0,0,0-1-4,13.46,13.46,0,0,0-8.23-6.56,15.82,15.82,0,0,0-12.23.87,3.76,3.76,0,0,1-1.82.11l-.28,0c0-.12.07-.24.1-.36a5.14,5.14,0,0,1,.53-1.43l2-.66c2.72-.89,5.5-1.81,8.1-1.56,8.17.81,13.36,4.91,15.43,12.2l.22.77.7-.39c5.4-3.08,11-6.26,11.47-13.79.29-4.43-1.13-8.52-4.46-12.86a44.14,44.14,0,0,0-14.14-12c-6.68-3.63-13.37-4.74-19.34-3.21-13.11,3.35-21.78,10.64-25.78,21.64a3.75,3.75,0,0,1-1.23,1.33l-.39.32-.35-.31a5.36,5.36,0,0,1-1.31-1.42,14.38,14.38,0,0,0-15.61-7.6,5.56,5.56,0,0,1-2-.11l-.46-.07,0-.54a7.21,7.21,0,0,1,.32-2.16c.48-1.26,1.06-2.52,1.62-3.73a37.25,37.25,0,0,0,2.58-6.7c.41-1.7,1.2-6-.29-9.07a51.92,51.92,0,0,0-8.65-12.9c-4.15-4.41-8.89-8.5-15.4-8.53a82.84,82.84,0,0,0-15.18,1.47,19.14,19.14,0,0,0-13.31,10.06c-.27.49-.51,1-.75,1.53a10.36,10.36,0,0,1-1.67,2.82,6.39,6.39,0,0,1-3.35,1.57,7.6,7.6,0,0,1-.65-1,12.86,12.86,0,0,0-.71-1.15c-.35-.49-.68-1-1-1.54a12.14,12.14,0,0,0-2.85-3.46c-6.31-4.56-17.23-4.35-23.85.48a2.68,2.68,0,0,1-1.31.19h-.25l0-.36c0-.38-.11-1.18,0-1.32a17.18,17.18,0,0,1,4.34-3.36l.29-.15c4-2.11,4.16-2.38,3.44-7.07-.09-.59-.23-1.18-.36-1.76l-.06-.25c-1.25-5.31-4.67-9.27-8-13.09-.45-.51-.9-1-1.34-1.55-5.35-6.31-13.83-11.64-22.69-14.26-7.2-2.14-18-3.54-28.4,1.86a97.63,97.63,0,0,0-13.25,8.63c-2.13,1.6-3.42,1.64-4.94.14-6.5-6.39-14.77-7.42-21.25-7.6-4.26-.13-7.37.89-9.79,3.15-1.28,1.2-2.52,2.48-3.72,3.71-.79.81-1.58,1.61-2.38,2.4A4.7,4.7,0,0,0,392,48.94a4.3,4.3,0,0,0,1.85,3,12.86,12.86,0,0,1,4.73,10.92c0,.34-.51.83-.94,1.26l-.23.22-.19-.22a3.06,3.06,0,0,1-.86-1.35,13.69,13.69,0,0,0-3.85-8.88c-4.56-5.08-10.4-6.88-18.36-5.66a3.16,3.16,0,0,1-1.47-.43l-.23-.1c.05-.08.09-.17.14-.26a3.18,3.18,0,0,1,.94-1.34,6.75,6.75,0,0,1,3.54-.68A81.87,81.87,0,0,1,386.87,47c1.37.31,2.7.46,3.79-1.25A13.79,13.79,0,0,1,393,43c2.27-2.07,3-4.77,2.4-8.49-1.85-10.95-13-26-29.06-25.71a46.6,46.6,0,0,0-11.16,1.08c-2.46.65-4,.69-6-.78A33.35,33.35,0,0,0,329,2.61,48.33,48.33,0,0,0,315.4,4.72c-6.86,2-11,7.32-15.11,12.46a32.73,32.73,0,0,0-7.1,15.58c-.48,3.16-1,6.43,2.72,8.53.09.05.19.16.21.16h0c0,.18,0,.38.06.58a4,4,0,0,1,.05,1.21,1.9,1.9,0,0,1-1.49,0,10,10,0,0,1-1.6-1.37,11.69,11.69,0,0,0-1.63-1.42c-.56-.39-1.12-.8-1.69-1.21a24.41,24.41,0,0,0-5.9-3.51c-7.42-2.67-12.11-1.25-16.18,4.92l-.31.47.44.36c.26.22.53.41.79.59a4.43,4.43,0,0,1,1.14,1,11.83,11.83,0,0,1,1,2.15l.05.12h-.26a3.79,3.79,0,0,1-1.93-.25c-4.13-3-9.22-4.63-16-5.08s-12.18,1.76-15.8,6.58a5,5,0,0,0-.91,3.8,40.61,40.61,0,0,1-2.6,27.88A33.71,33.71,0,0,1,228.74,85a3.71,3.71,0,0,1-1.28.09h-.35v-.31a2.83,2.83,0,0,1,.17-1.41c6.52-8,8.76-17.72,6.87-29.77-1-6.27-3.94-10.83-9.06-13.94A59.61,59.61,0,0,0,199.75,31c-6-.57-11-.16-15,1.23-8.62,3-14.71,8.27-18.11,15.6-3.91,8.4-3.91,19.1,0,29.37a3.74,3.74,0,0,0,2.84,1.76c1.91.19,3.86.3,5.74.41a76,76,0,0,1,9.87,1c6.61,1.25,11.84,4.22,15.55,8.82a3,3,0,0,1,.27,1.61,2.44,2.44,0,0,0,0,.27l-.28,0a4.44,4.44,0,0,1-1.86-.5,27.56,27.56,0,0,1-2.55-2,25,25,0,0,0-3.31-2.54c-6.28-3.76-13.29-4.44-19.93-4.81-6.27-.35-10.75,2.23-13.35,7.68-1.05,2.22-2.31,2.78-4.81,2.16-6.25-1.58-12.2,0-17.65,4.55A11.34,11.34,0,0,0,135,110.08a21.94,21.94,0,0,1,2.38,5.2,4,4,0,0,1-.63,1l-.24.31-.3-.15c-.39-.19-.93-.45-1-.66-3.6-9.06-10.33-15.08-20-17.88-4-1.16-8.15-2-12.17-2.79-2.74-.55-5.57-1.11-8.32-1.78-11.81-2.84-22.13.07-30.66,8.65A56.14,56.14,0,0,0,56.67,112c-.69,1.09-1.38,2.19-2.08,3.26-1.12,1.71-1.58,2.25-3,1.46-7.87-4.59-16.61-5.68-24.89-6.17-9.63-.57-16.34,2.23-20.52,8.58C1.31,126.64.86,135.19,4.84,145.32ZM479,97.81l2.28.37c.22,0,.69.88.91,1.28l.18.32-.2.07a4.46,4.46,0,0,1-1.78.38,44.88,44.88,0,0,1-4.84-.93L474,99a21.05,21.05,0,0,0-19.28,4.93c-4.76,4.19-9.46,9-11.58,15.82-.58,1.87-1.21,2.87-1.92,3.07s-1.75-.32-3.17-1.6a40.49,40.49,0,0,0-26.41-10.84c-.69,0-1.5-.84-2.22-1.71,11.14-1,21,2.54,30.06,10.68l.64.58.35-.79c4.23-9.32,9.52-15.55,16.65-19.58,3.55-2,6.5-3,9-3.06A71,71,0,0,1,479,97.81ZM434.14,233.93a4.18,4.18,0,0,1,1.09-1.41c1.28-.83,2.67-1.58,4-2.31a32.14,32.14,0,0,0,7.13-4.73c7.85-7.64,11-22.71,1.25-35.59-5.35-7.08-13-10.77-24-11.61a6,6,0,0,0-1.75.24,4.51,4.51,0,0,1-1.35.2,4.83,4.83,0,0,1-1.59-.56l-.18-.09.14-.29c.18-.37.51-1.06.7-1.12a16.53,16.53,0,0,1,5.69-.58,66.39,66.39,0,0,1,9.49,1.84c2,.51,3.09,0,3.72-2a15.85,15.85,0,0,0-1.1-12.45c-4-8.14-10.79-12.93-20.74-14.62a19.58,19.58,0,0,0-3.32-.19,23.65,23.65,0,0,1-2.7-.12,4.14,4.14,0,0,1-1.51-.7l-.17-.11.2-.28c.28-.4.75-1.06,1-1.09a24.5,24.5,0,0,1,6.67.09c13.59,2.27,22.3,10.14,24.52,22.15.42,2.29,0,4.8-.51,7.46-.23,1.28-.46,2.6-.61,3.94l-.05.44.39.19a27.22,27.22,0,0,1,11.55,11.88c5.16,9.77,6,24.25-3.72,34.58-3.72,3.94-8.49,6.07-12.67,7.62l-.13,0a4.48,4.48,0,0,1-1.32-.45l-.28-.13ZM251.43,133.59c-.06,1.59-.13,3.22-.3,4.8a5.68,5.68,0,0,1-.92,2.12l-.14.25-.18-.21c-.47-.56-1-1.18-1-1.61a128.48,128.48,0,0,1,1-14.4c.25-1.87.31-3.94-2.25-5.07-1.45-.64-2.89-1.32-4.33-2a77.76,77.76,0,0,0-11-4.48,98.13,98.13,0,0,0-18.92-3.68c-10.22-.91-19.73,2.46-28.23,10a5.87,5.87,0,0,1-2.27,1.46c-12.39,2.73-19.75,10.6-22.52,24.07a17.15,17.15,0,0,0-.26,1.87,11.29,11.29,0,0,1-.47,2.56,3.56,3.56,0,0,1-1.17,1.25l-.22.18a1.77,1.77,0,0,1-.16-.22c-.32-.42-.71-.94-.68-1.23.57-6.27,2-14.29,7.85-20.7,3.95-4.3,8.52-8.46,15.09-9.69a5.12,5.12,0,0,0,2.36-1c12.71-11,27.55-13.86,45.41-8.74l3,.84a78.52,78.52,0,0,1,9,2.85,71.33,71.33,0,0,1,7.73,3.94c1.16.64,2.32,1.3,3.52,1.93l.44.24.33-.39a45.17,45.17,0,0,1,17.33-12.6,6.44,6.44,0,0,0,2.7-2.57c6.29-9.52,15.59-16.73,29.26-22.68l3.11-1.37c2.93-1.31,6-2.66,9-3.75A57.51,57.51,0,0,1,338,72.73a195.64,195.64,0,0,1,23.78,3.43c8.59,1.83,16.06,6.57,23.51,14.92,5.72,6.42,9.33,14,12.53,21.25a26.17,26.17,0,0,1,1.71,7,3.61,3.61,0,0,1-.64,1.7,2,2,0,0,0-.14.25l-.24-.2c-.51-.43-1.09-.91-1.14-1.26-.88-6.84-4.23-12.61-7.48-18.19-8.7-15-21.46-23.46-37.93-25.17l-3.38-.37c-7.83-.85-15.92-1.74-24-.62a41,41,0,0,0-8.25,1.79c-12.16,4.41-23.88,9.08-33.54,17.61a48.33,48.33,0,0,0-5.27,5.82c-1.06,1.31-2.15,2.66-3.31,3.89a32.19,32.19,0,0,1-5.06,4.18c-1.39,1-2.86,1.9-4.28,2.8a62.27,62.27,0,0,0-8,5.68,16.57,16.57,0,0,0-4.73,8.31A43.07,43.07,0,0,0,251.43,133.59Zm363.91,20.32a16,16,0,0,1,.13,23.7,3.31,3.31,0,0,1-1.77.35l-.35,0a1.94,1.94,0,0,0,0-.24,3.09,3.09,0,0,1,.39-1.56c2.86-3.06,4.35-6.94,4.7-12.21.23-3.58-1.61-6.47-5.49-8.58-2.32-1.27-2.71-2.46-1.53-4.7,1.82-3.46,1.7-7.27-.36-11.62-3.19-6.7-8.89-11.06-17-12.94-6.13-1.43-12.28-2.41-17-3.11-2.13-.32-2.74-1-2.72-3,.09-12.71-6.91-21.75-19.18-24.81a161.09,161.09,0,0,0-17-3.28c-10.18-1.41-16.37,5-21.08,11.4a9.66,9.66,0,0,0-.68,1.13c-.38.71-.77,1.44-1.25,1.58a1.12,1.12,0,0,1-.87-.21,1.37,1.37,0,0,1-.78-.82c-.12-.58.5-1.41,1-2.09a8.49,8.49,0,0,0,.58-.83c7.93-13,20.13-13.67,25.47-12.23a8.82,8.82,0,0,0,1.67.23l.7,0c8.41,1,14.61,2.8,20.1,5.71,8.24,4.35,12.81,11.47,13.58,21.15.22,2.74,1.17,3.7,3.89,4a63.52,63.52,0,0,1,22.89,6.38,21.13,21.13,0,0,1,10.64,23.51A3.65,3.65,0,0,0,615.34,153.91Z"/><path d="M130.81,102.62l-.19,1-.8-.6c-6.39-4.77-12.11-7.51-18-8.6-2.11-.39-4.22-.82-6.34-1.24a139.66,139.66,0,0,0-19.92-3c-10.31-.54-19.12,4.28-27.84,15.19A46.14,46.14,0,0,0,54.07,111c-.54.93-1.08,1.86-1.65,2.78l-.31.49-.52-.27c-8.21-4.27-17-5.3-24.43-5.76-10-.59-17.22,2.16-22.08,8.47-4.24,5.48-5.72,12-4.83,21.06.94,9.58,5.72,15.39,14.6,17.75,3.06.82,6.21,1.6,9.26,2.35l4.36,1.08.66.17-.22.64c-2.4,7.08-4,14.26,5.29,17.55l.5.18-.09.51c-.27,1.66-.56,3.27-.85,4.84-.63,3.44-1.23,6.68-1.5,10-.43,5.06.66,11.71,8.24,14.67,2.72,1.06,5.92,1.16,9,1.26l.62,0a28.42,28.42,0,0,0,5.13-.5c.88-.14,1.79-.29,2.75-.4l1.17-.15-.53,1.05C54.51,217,55.23,225.14,56,233.8l0,.3c.93,10.51,5.75,20,14.33,28.18,10.32,9.85,23.57,13.56,43,12,4.45-.35,9-1.13,13.36-1.88,1.94-.33,3.89-.67,5.86-1l0-.07h.38a.84.84,0,0,1,.71.52l.42.59-.09,0c3.91,7,8.27,13.27,17.33,13.89,1.09.07,2.14,1.8,2.34,2.72.27,1.23.42,2.5.57,3.73a23.49,23.49,0,0,0,1.1,5.46c3.72,9.79,10.35,15.48,20.27,17.4,11.3,2.19,19.48.48,26.5-5.52,1-.89,2.11-1.75,3.16-2.6l1.8-1.46.39.28c6.53,4.68,13.54,6.5,19.74,5.12a19,19,0,0,0,12.53-9.75l.38-.68.59.52c6.81,6,14.39,7.81,23.15,5.46s13.32-8.8,17.27-17.73l.6-1.38.55,1.4c.67,1.67,1.29,3.3,1.89,4.9,1.39,3.66,2.7,7.12,4.28,10.44a30.17,30.17,0,0,0,5.38,7.76c4.52,4.72,10.75,6.77,19.63,6.47,2.33-.08,4.15.36,5.41,2.77,3.14,6.05,8.49,9.55,13.8,12.42,5.14,2.78,11.34,5.74,18.33,6.59,1.91.23,3.82.48,5.73.73,5.68.73,11.56,1.49,17.35,1.78,9.39.45,17.75-3.63,26.2-8.22l.71-.41a7.31,7.31,0,0,1,3.42-1.29c10.24-.09,19.18-4.48,28.13-13.8a4.45,4.45,0,0,1,3-1.19c2,.05,4.08.2,6.06.35a67.54,67.54,0,0,0,11,.22c16.91-1.53,28.32-7.91,35.89-20.08,6-9.73,8-17.46,6.43-25.85-.16-.89-.23-1.8-.3-2.67,0-.4-.06-.8-.1-1.19l-.1-1,1,.4c1.29.54,2.53,1.08,3.75,1.6,2.63,1.14,5.11,2.22,7.66,3.13,7.67,2.77,15.85,3.92,23.76,5l2.23.31c15.35,2.19,29.66-.77,43.73-9a41,41,0,0,0,9.91-8.25,87.62,87.62,0,0,0,6.72-9.15c.88-1.31,1.75-2.6,2.63-3.84l.33-.47.49.28c1.23.71,2.47,1.52,3.67,2.31a35.69,35.69,0,0,0,8.41,4.48c14.06,4.45,26.66,2.94,37.46-4.47,14.26-9.8,22.88-23.05,25.62-39.38.52-3.07.82-6.22,1.1-9.28.14-1.42.27-2.84.43-4.25l0-.42.42-.11.49-.16a1.82,1.82,0,0,1,.89-.15c11,2,20.62-1.91,30.31-6.42a4,4,0,0,1,2.83,0c9,3.46,17,3.4,25.15-.21,12.06-5.34,18.41-16.94,16.17-29.54-2.38-13.41-8.09-18.75-21.05-19.71a28.82,28.82,0,0,0-6.77.6c-1,.18-2.09.35-3.12.47l-.42,0-.2-.37c-9.32-16.81-23.7-23.24-42.75-19.09l-.6.14-.14-.6c-3.38-14.32-12.82-24-27.32-27.9-16.49-4.48-29.87,1.89-40.92,19.48l-.51.82-.54-.81c-3.19-4.79-8.14-6.26-14.58-7l-.83-.09.32-.77c.31-.77.62-1.51.91-2.21.61-1.46,1.19-2.83,1.68-4.21,1.9-5.31,2-9.54.37-13.29-1.89-4.29-4.66-9.75-9.45-13.93-5.59-4.9-11.2-9.28-18.76-9.06a79.06,79.06,0,0,0-13.54,1.64A22.11,22.11,0,0,0,536,76.21c-.33.58-.68,1.14-1.09,1.79l-1.23,2-.51-1a13,13,0,0,0-8.51-7.14,73,73,0,0,0-7.8-1.52c-1.07-.17-2.11-.33-3.11-.51l-.44-.08-.07-.44c-2.6-17.42-13-29.52-31.9-37-16.77-6.65-32.4-3.33-47.77,10.15l-.41.36-.41-.36c-9.84-8.58-20.88-10.58-33.73-6.13l-.66.23-.26-1.08c-.08-.32-.16-.64-.23-1-4-17.22-15.8-27.2-33.32-28.08a36.07,36.07,0,0,0-9.73,1,9.63,9.63,0,0,1-2.06.29,4.88,4.88,0,0,1-2.85-.95c-10.65-7.24-22.8-8.67-35.12-4.14C302.9,7,294.92,16.57,291.05,31.2c-.19.74-.32,1.53-.45,2.36-.07.42-.14.85-.23,1.3l-.13.77-.72-.3c-.58-.23-1.12-.47-1.63-.69A26.71,26.71,0,0,0,285,33.52c-6.31-1.87-12.78-2.75-17.39,3.36-2.42,3.2-4.81,2.84-7.7,2-10.58-3-18.47-1.12-24.83,5.79l-.44.49-.47-.47c-.59-.6-1.14-1.22-1.67-1.81a19.29,19.29,0,0,0-3.27-3.15c-13.63-9.41-27.13-13-41.27-10.89-12.23,1.81-23.51,12.75-25.67,24.9-1.72,9.71-1,17.79,2.14,24.72l.16.36-.25.3c-.7.84-1.38,1.63-2,2.4-1.52,1.76-2.95,3.43-4.22,5.18a3.89,3.89,0,0,1-3.85,1.74l-1.48-.07a25.78,25.78,0,0,0-7.68.36C136.78,90.92,132.24,95.32,130.81,102.62Zm6.38-7.13c5.45-4.6,11.4-6.13,17.65-4.55,2.5.62,3.76.06,4.81-2.16,2.6-5.45,7.08-8,13.35-7.68,6.64.37,13.65,1.05,19.93,4.81a25,25,0,0,1,3.31,2.54,27.56,27.56,0,0,0,2.55,2,4.44,4.44,0,0,0,1.86.5l.28,0a2.44,2.44,0,0,1,0-.27,3,3,0,0,0-.27-1.61c-3.71-4.6-8.94-7.57-15.55-8.82a76,76,0,0,0-9.87-1c-1.88-.11-3.83-.22-5.74-.41a3.74,3.74,0,0,1-2.84-1.76c-3.9-10.27-3.9-21,0-29.37,3.4-7.33,9.49-12.57,18.11-15.6,4-1.39,9-1.81,15-1.23a59.61,59.61,0,0,1,25.34,8.65c5.12,3.11,8.08,7.67,9.06,13.94,1.89,12.05-.35,21.79-6.87,29.77a2.83,2.83,0,0,0-.17,1.41v.31h.35a3.47,3.47,0,0,0,1.28-.09,33.71,33.71,0,0,0,4.59-6.66,40.61,40.61,0,0,0,2.6-27.88,5,5,0,0,1,.91-3.8c3.62-4.82,8.93-7,15.8-6.58s11.89,2.06,16,5.08a3.77,3.77,0,0,0,1.93.25h.26l-.05-.12a11.83,11.83,0,0,0-1-2.15,4.43,4.43,0,0,0-1.14-1c-.26-.18-.53-.37-.79-.59l-.44-.36.31-.47c4.07-6.17,8.76-7.59,16.18-4.92a24.41,24.41,0,0,1,5.9,3.51c.57.41,1.13.82,1.69,1.21a11.69,11.69,0,0,1,1.63,1.42,10,10,0,0,0,1.6,1.37,1.9,1.9,0,0,0,1.49,0,4,4,0,0,0-.05-1.21c0-.2-.05-.4-.06-.58h0s-.12-.11-.21-.16c-3.7-2.1-3.2-5.37-2.72-8.53a32.73,32.73,0,0,1,7.1-15.58C304.35,12,308.54,6.72,315.4,4.72A48.33,48.33,0,0,1,329,2.61a33.35,33.35,0,0,1,20.13,6.53c2,1.47,3.56,1.43,6,.78A46.6,46.6,0,0,1,366.3,8.84c16.1-.27,27.21,14.76,29.06,25.71C396,38.27,395.23,41,393,43a13.79,13.79,0,0,0-2.3,2.72c-1.09,1.71-2.42,1.56-3.79,1.25a81.87,81.87,0,0,0-9.81-1.59,6.75,6.75,0,0,0-3.54.68,3.18,3.18,0,0,0-.94,1.34c-.05.09-.09.18-.14.26l.23.1a3.16,3.16,0,0,0,1.47.43c8-1.22,13.8.58,18.36,5.66a13.69,13.69,0,0,1,3.85,8.88,3.06,3.06,0,0,0,.86,1.35l.19.22.23-.22c.43-.43.92-.92.94-1.26a12.86,12.86,0,0,0-4.73-10.92,4.3,4.3,0,0,1-1.85-3,4.7,4.7,0,0,1,1.75-3.26c.8-.79,1.59-1.59,2.38-2.4,1.2-1.23,2.44-2.51,3.72-3.71,2.42-2.26,5.51-3.25,9.79-3.15,6.48.18,14.75,1.21,21.25,7.6,1.52,1.5,2.81,1.46,4.94-.14a97.63,97.63,0,0,1,13.25-8.63c10.42-5.4,21.19-4,28.4-1.86,8.86,2.62,17.34,8,22.69,14.26.44.52.89,1,1.34,1.55,3.3,3.82,6.72,7.78,8,13.09l.06.25c.13.58.27,1.17.36,1.76.72,4.69.59,5-3.44,7.07l-.29.15a17.18,17.18,0,0,0-4.34,3.36c-.14.14-.07.94,0,1.32l0,.36h.25a2.68,2.68,0,0,0,1.31-.19c6.62-4.83,17.54-5,23.85-.48a12.14,12.14,0,0,1,2.85,3.46c.34.53.67,1,1,1.54a12.86,12.86,0,0,1,.71,1.15,7.6,7.6,0,0,0,.65,1,6.39,6.39,0,0,0,3.35-1.57,10.36,10.36,0,0,0,1.67-2.82c.24-.52.48-1,.75-1.53a19.14,19.14,0,0,1,13.31-10.06,82.75,82.75,0,0,1,15.18-1.47c6.51,0,11.25,4.12,15.4,8.53a51.92,51.92,0,0,1,8.65,12.9c1.49,3.09.7,7.37.29,9.07a37.25,37.25,0,0,1-2.58,6.7c-.56,1.21-1.14,2.47-1.62,3.73a7.21,7.21,0,0,0-.32,2.16l0,.54.46.07a5.56,5.56,0,0,0,2,.11,14.38,14.38,0,0,1,15.61,7.6,5.36,5.36,0,0,0,1.31,1.42l.35.31.39-.32a3.75,3.75,0,0,0,1.23-1.33c4-11,12.67-18.29,25.78-21.64,6-1.53,12.66-.42,19.34,3.21a44.14,44.14,0,0,1,14.14,12c3.33,4.34,4.75,8.43,4.46,12.86-.48,7.53-6.07,10.71-11.47,13.79l-.7.39-.22-.77c-2.07-7.29-7.26-11.39-15.43-12.2-2.6-.25-5.38.67-8.1,1.56l-2,.66a5.14,5.14,0,0,0-.53,1.43c0,.12-.07.24-.1.36l.28,0a3.76,3.76,0,0,0,1.82-.11,15.82,15.82,0,0,1,12.23-.87,13.46,13.46,0,0,1,8.23,6.56,13,13,0,0,1,1,4c.06.4.11.8.17,1.19.14.86.41,1.45.75,1.6a1.15,1.15,0,0,0,1-.21,107.73,107.73,0,0,0,11-7.12,10.69,10.69,0,0,0,3.3-4.82,6.18,6.18,0,0,1,5-4.36c14.18-3.45,27.64,1.79,36,14,2.87,4.2,2.65,13.45-1.52,17.15a3.28,3.28,0,0,0-.48,1.63l0,.27.29,0a3.73,3.73,0,0,0,1.83-.4c2.49-2,3.85-4.87,4.16-8.91.19-2.44,1.29-3.72,3.82-4.42a21.92,21.92,0,0,1,17.41,2.23,14.25,14.25,0,0,1,5.52,6.46c3.83,9,4,16.59.4,23.8-2.79,5.64-7.33,8.59-11.83,10.94-7.67,4-15.12,4.29-22.76.88l-.81-.36.61-.64c.72-.78,1.45-1.53,2.17-2.28,1.71-1.78,3.33-3.46,4.84-5.27a21.35,21.35,0,0,0,3.19-5.15c.11-.25-.21-1-.42-1.44l-.15-.33-.22.11a3.17,3.17,0,0,0-1.27.86c-5,8.22-11.46,13.76-19.73,16.93-7.13,2.74-15.68,5.29-25,3.43a2.36,2.36,0,0,0-1.88.19c-.5.36-.79,1.14-.93,2.45-.18,1.59-.31,3.19-.45,4.8-.42,4.87-.85,9.9-2.25,14.6-5.45,18.26-16.46,30.63-32.72,36.76a31.24,31.24,0,0,1-16.13,1.64c-6-.95-12.86-2-18.37-6.71-3.61-3.06-3.78-3.64-2.29-7.88l.06-.17c2.87-8.17,5.84-16.61,5-25.57a32.33,32.33,0,0,0-1.24-6.62A3.87,3.87,0,0,0,601,206.1l-.21-.18-.09.2a4.63,4.63,0,0,0-.57,1.86c.05,1.65.25,3.35.44,5a32.9,32.9,0,0,1,.2,9.34c-3,17.11-8.64,29.6-17.75,39.28l-.39.43a8.85,8.85,0,0,1-1.32,1.27c-12.51,9.13-24.79,13.49-37.6,13.36-14.28-.14-25.66-2-35.81-5.69a72.5,72.5,0,0,1-8.45-4c-1.45-.77-3-1.56-4.46-2.27a10.53,10.53,0,0,0-2.14-.7l-.47-.13c-.05.17-.11.34-.16.5a6,6,0,0,0-.44,2.12c.1,1.65.29,3.33.47,5a57.65,57.65,0,0,1,.53,8.53,23.52,23.52,0,0,1-2.57,10.44,119.87,119.87,0,0,1-11.06,15.77,18.76,18.76,0,0,1-7,4.92c-11.58,5.22-22.59,6.94-33.67,5.25-.64-.09-1.26-.25-1.93-.41l-1-.24-.68-.15.22-.66c.29-.87.59-1.7.89-2.52a30,30,0,0,0,1.52-4.95c1.17-6.3,2.19-12.78,3.13-19.8a3.63,3.63,0,0,0-.71-1.83l-.15-.25-.19.2a3.76,3.76,0,0,0-1.1,1.62c-.95,8.16-2,16.11-4.6,23.77-3.52,10.38-12,14.94-19.89,18a24.09,24.09,0,0,1-6.78,1.22c-1.16.09-2.35.19-3.48.37a8,8,0,0,0-3,.9c-12.08,7.94-23.91,10.73-36.15,8.56-2.15-.38-4.37-.65-6.51-.91a71.93,71.93,0,0,1-10.56-1.8c-10.18-2.79-21.43-7.19-27.7-18.68-1.07-1.95-2.36-2.6-4.79-2.39-8.67.74-14.93-1.09-19.71-5.76a18.51,18.51,0,0,1-4.07-5.38,118.35,118.35,0,0,1-5.84-14.75c-.82-2.7-.6-5.78-.24-8.7.3-2.47.81-4.95,1.31-7.35.34-1.67.7-3.39,1-5.09.11-.67.29-1.79-.09-2.23a1.1,1.1,0,0,0-.89-.25,4.49,4.49,0,0,0-1.27,2.33l0,.13c-.75,4.93-1.54,10-4.16,14.62-1.29,2.24-2.51,4.59-3.68,6.85s-2.29,4.39-3.51,6.54c-2.07,3.66-7.16,6.74-12.95,7.85s-11.49.05-15.23-3a22,22,0,0,0-1.87-1.3c-.56-.37-1.13-.73-1.66-1.14-1.44-1.08-2.45-1.73-3.09-1.58s-1.32,1.27-2.14,2.89a14.28,14.28,0,0,1-12.61,8.34,20.84,20.84,0,0,1-13.93-4.09c-3.7-2.77-3.77-2.83-7.08.56-8.72,8.89-19.76,10.8-32.85,5.68-8.66-3.38-13.61-10.87-14.31-21.64-.06-.92-.09-1.71-.11-2.38-.12-3.54-.12-3.54-6.13-3.87a8.52,8.52,0,0,1-6.67-3.28,22.07,22.07,0,0,0-2.55-2.58c-5.16-4.62-6.63-10.78-4.15-17.33.15-.4.31-.8.47-1.2a20.48,20.48,0,0,0,1.25-3.84,3.12,3.12,0,0,0-.48-1.59,2.72,2.72,0,0,1-.11-.25l-.27.15c-.5.29-1.12.64-1.22,1-.66,2.08-1.24,4.23-1.79,6.32-.46,1.71-.93,3.48-1.46,5.21a3.92,3.92,0,0,1-2.23,2.47c-17.34,4.88-32.27,4.85-45.62-.09C71,263.48,61.9,252.35,58.86,236.55c-1.51-7.86-2.63-18.11,2.15-27.72l.14-.28a10,10,0,0,0,.82-2,14.94,14.94,0,0,0,.3-2.07l0-.3-.4-.05a4.06,4.06,0,0,0-1.81,0,31.41,31.41,0,0,1-15.54,2c-5.48-.73-9.24-4.33-9.56-9.17a51.27,51.27,0,0,1,.56-9.51c.13-1.13.27-2.25.38-3.38a10,10,0,0,1,.52-2.12c.11-.34.22-.68.31-1,1.2-4.64,1.2-4.64-3-6.61-3.14-1.47-4.53-3.84-4.14-7,.51-4.12,1.21-7.74,4.71-10.31.18-.13.23-1,.25-1.45q0-.27,0-.51l-.3-.06a5.74,5.74,0,0,0-1.75-.16,13.82,13.82,0,0,0-2,.44,7.86,7.86,0,0,1-3.75.41,120.48,120.48,0,0,1-16.54-4.8,10.68,10.68,0,0,1-5.39-5.57c-4-10.13-3.53-18.68,1.39-26.15,4.18-6.35,10.89-9.17,20.52-8.58,8.28.49,17,1.58,24.89,6.17,1.37.79,1.83.25,3-1.46.7-1.07,1.39-2.17,2.08-3.26A56.14,56.14,0,0,1,64.06,102c8.53-8.58,18.84-11.49,30.66-8.65,2.75.67,5.58,1.23,8.32,1.78,4,.8,8.17,1.63,12.17,2.79,9.69,2.8,16.42,8.82,20,17.88.08.21.62.47,1,.66l.3.15.24-.31a4,4,0,0,0,.63-1,21.94,21.94,0,0,0-2.38-5.2A11.34,11.34,0,0,1,137.19,95.49Z"/><path d="M301.52,80.68c-13.67,5.95-23,13.16-29.26,22.68a6.44,6.44,0,0,1-2.7,2.57,45.17,45.17,0,0,0-17.33,12.6l-.33.39-.44-.24c-1.2-.63-2.36-1.29-3.52-1.93a71.33,71.33,0,0,0-7.73-3.94,78.52,78.52,0,0,0-9-2.85l-3-.84c-17.86-5.12-32.7-2.26-45.41,8.74a5.12,5.12,0,0,1-2.36,1c-6.57,1.23-11.14,5.39-15.09,9.69-5.88,6.41-7.28,14.43-7.85,20.7,0,.29.36.81.68,1.23a1.77,1.77,0,0,0,.16.22l.22-.18a3.56,3.56,0,0,0,1.17-1.25,11.29,11.29,0,0,0,.47-2.56,17.15,17.15,0,0,1,.26-1.87c2.77-13.47,10.13-21.34,22.52-24.07a5.87,5.87,0,0,0,2.27-1.46c8.5-7.58,18-10.95,28.23-10A98.13,98.13,0,0,1,232.39,113a77.76,77.76,0,0,1,11,4.48c1.44.68,2.88,1.36,4.33,2,2.56,1.13,2.5,3.2,2.25,5.07a128.48,128.48,0,0,0-1,14.4c0,.43.52,1.05,1,1.61l.18.21.14-.25a5.68,5.68,0,0,0,.92-2.12c.17-1.58.24-3.21.3-4.8a43.07,43.07,0,0,1,.81-8,16.57,16.57,0,0,1,4.73-8.31,62.27,62.27,0,0,1,8-5.68c1.42-.9,2.89-1.83,4.28-2.8a32.19,32.19,0,0,0,5.06-4.18c1.16-1.23,2.25-2.58,3.31-3.89a48.33,48.33,0,0,1,5.27-5.82c9.66-8.53,21.38-13.2,33.54-17.61a41,41,0,0,1,8.25-1.79c8.06-1.12,16.15-.23,24,.62l3.38.37c16.47,1.71,29.23,10.18,37.93,25.17,3.25,5.58,6.6,11.35,7.48,18.19,0,.35.63.83,1.14,1.26l.24.2a2,2,0,0,1,.14-.25,3.61,3.61,0,0,0,.64-1.7,26.17,26.17,0,0,0-1.71-7c-3.2-7.23-6.81-14.83-12.53-21.25-7.45-8.35-14.92-13.09-23.51-14.92A195.64,195.64,0,0,0,338,72.73a57.53,57.53,0,0,0-24.4,2.83c-3.05,1.09-6.08,2.44-9,3.75Z"/><path d="M603.51,127.28a63.52,63.52,0,0,0-22.89-6.38c-2.72-.25-3.67-1.21-3.89-4-.77-9.68-5.34-16.8-13.58-21.15-5.49-2.9-11.69-4.66-20.09-5.71l-.69,0a8.92,8.92,0,0,1-1.69-.23c-5.34-1.44-17.54-.74-25.47,12.23a8.49,8.49,0,0,1-.58.83c-.5.68-1.12,1.51-1,2.09a1.37,1.37,0,0,0,.78.82,1.12,1.12,0,0,0,.87.21c.48-.14.87-.87,1.25-1.58a9.66,9.66,0,0,1,.68-1.13c4.71-6.43,10.9-12.81,21.08-11.4a161.09,161.09,0,0,1,17,3.28c12.27,3.06,19.27,12.1,19.18,24.81,0,2,.59,2.73,2.72,3,4.69.7,10.84,1.68,17,3.11,8.07,1.88,13.77,6.24,17,12.94,2.06,4.35,2.18,8.16.36,11.62-1.18,2.24-.79,3.43,1.53,4.7,3.88,2.11,5.72,5,5.49,8.58-.35,5.27-1.84,9.15-4.7,12.21a3.09,3.09,0,0,0-.39,1.56,1.94,1.94,0,0,1,0,.24l.35,0a3.31,3.31,0,0,0,1.77-.35,16,16,0,0,0-.13-23.7,3.65,3.65,0,0,1-1.19-3.12A21.13,21.13,0,0,0,603.51,127.28Z"/><path d="M409.18,147.46l-.2.28.17.11a4.14,4.14,0,0,0,1.51.7,23.65,23.65,0,0,0,2.7.12,19.58,19.58,0,0,1,3.32.19c9.95,1.69,16.74,6.48,20.74,14.62a15.85,15.85,0,0,1,1.1,12.45c-.63,1.94-1.71,2.51-3.72,2a66.39,66.39,0,0,0-9.49-1.84,16.53,16.53,0,0,0-5.69.58c-.19.06-.52.75-.7,1.12l-.14.29.18.09a4.83,4.83,0,0,0,1.59.56,4.51,4.51,0,0,0,1.35-.2,5.61,5.61,0,0,1,1.75-.24c11,.84,18.63,4.53,24,11.61,9.71,12.88,6.6,28-1.25,35.59a32.14,32.14,0,0,1-7.13,4.73c-1.35.73-2.74,1.48-4,2.31a4.18,4.18,0,0,0-1.09,1.41l-.13.23.28.13a4.48,4.48,0,0,0,1.32.45l.13,0c4.18-1.55,8.95-3.68,12.67-7.62,9.73-10.33,8.88-24.81,3.72-34.58a27.22,27.22,0,0,0-11.55-11.88l-.39-.19.05-.44c.15-1.34.38-2.66.61-3.94.48-2.66.93-5.17.51-7.46-2.22-12-10.93-19.88-24.52-22.15a24.5,24.5,0,0,0-6.67-.09C409.93,146.4,409.46,147.06,409.18,147.46Z"/><path d="M409.41,108.62c.72.87,1.53,1.69,2.22,1.71A40.49,40.49,0,0,1,438,121.17c1.42,1.28,2.46,1.79,3.17,1.6s1.34-1.2,1.92-3.07c2.12-6.81,6.82-11.63,11.58-15.82A21.05,21.05,0,0,1,474,99l1.56.35a44.88,44.88,0,0,0,4.84.93,4.46,4.46,0,0,0,1.78-.38l.2-.07-.18-.32c-.22-.4-.69-1.24-.91-1.28L479,97.81a71,71,0,0,0-12.87-1.36c-2.52,0-5.47,1-9,3.06-7.13,4-12.42,10.26-16.65,19.58l-.35.79-.64-.58C430.37,111.16,420.55,107.66,409.41,108.62Z"/></g></g></g></svg>