<svg xmlns="http://www.w3.org/2000/svg" viewBox="0 0 707.51 345.59"><defs><style>.cls-1{fill:#fff;}</style></defs><g id="Layer_2" data-name="Layer 2"><g id="Mobile"><g id="Clouds_Right"><g id="_11" data-name="11"><path class="cls-1" d="M596.14,200.9a40.3,40.3,0,0,0-23-2.78,3.57,3.57,0,0,1-1.47-.3l-.34-.12.08-.26a7.71,7.71,0,0,1,.53-1.47c.6-1.14,1.24-2.26,1.88-3.38a70.05,70.05,0,0,0,3.35-6.44c1.59-3.66,1.49-7.56,1.4-11.34,0-.91,0-1.82,0-2.72,0-12.47-6.57-20.94-19.52-25.17-11.78-3.84-24.08-2.81-34.56-1.3a31.21,31.21,0,0,0-15.11,6.17,3.45,3.45,0,0,1-1.29.5l-.19.05a.68.68,0,0,0,0-.14,9,9,0,0,1-.11-1.61,2.11,2.11,0,0,1,.38-.82l.2-.34c1.16-2.07,1-5.28-.47-8.39s-3.6-5.07-5.77-5.48c-5.9-1.09-13.26-1.21-17.86,7.7-.33.66-.59,1.35-.85,2a15.54,15.54,0,0,1-.95,2.19,2.82,2.82,0,0,1-1.05.78l-.14.08-.05-.14a3.3,3.3,0,0,1-.31-1.34,7.79,7.79,0,0,1,.61-2c.16-.41.33-.86.52-1.38l.42-1.23-1.14.63c-.68.37-1.31.73-1.91,1.08-1.49.84-2.77,1.57-4.11,2.16-.22.1-.73-.08-1.14-.23l-.23-.07.06-.16a2.32,2.32,0,0,1,.55-1,29,29,0,0,1,2.58-1.51c.71-.38,1.45-.77,2.15-1.21,7.11-4.45,9.77-10.35,7.66-17.07a17.74,17.74,0,0,0-2.65-4.74c-.27-.4-.55-.79-.81-1.19a9.31,9.31,0,0,0-7.57-4.25l-1.28-.07c-1.3-.07-2.64-.14-3.95-.26-.75-.07-1.24-.29-1.4-.62s0-.82.39-1.43c2.37-3.57,2.93-7.55,1.71-12.16a5.27,5.27,0,0,0-1.69-2.82,14.56,14.56,0,0,0-10.25-2.62,8.32,8.32,0,0,0-5.69,3.46c-.41.6-.81.91-1.19.92h0c-.45,0-1-.4-1.66-1.19l-.18-.21c-1.05-1.27-2.23-2.7-3.72-3.17-8-2.54-14.43-2.2-20.12,1.07-.91.52-1.78,1.13-2.62,1.71-.64.45-1.29.9-2,1.32a1.54,1.54,0,0,1-1.44.28,1.3,1.3,0,0,1-.45-1.2c.08-4.1.15-7.8.34-11.55a.93.93,0,0,1,1.78-.55c1.94,2.31,3.63,2.76,6.23,1.64a11.39,11.39,0,0,0,6.27-6.93c3.45-9.37,1.07-17.82-6.7-23.79a15.26,15.26,0,0,0-6-2.74,55.21,55.21,0,0,0-6.87-.81c-1-.07-2-.15-3-.25l-.41,0c-.54,0-1.14-.09-1.35-.34a.77.77,0,0,1-.1-.57A3.75,3.75,0,0,1,412.4,51a17.66,17.66,0,0,1,2.93-.07l1.44,0h.52l0-.52c0-.54,0-1.06,0-1.56a12.66,12.66,0,0,0-.25-3.11c-.37-1.48-.72-3-1.06-4.49a74.65,74.65,0,0,0-3.68-12.61c-4.05-9.55-11.3-15.79-21-18.07a67.46,67.46,0,0,0-9.89-1.3c-1.14-.09-2.27-.19-3.41-.3a31.77,31.77,0,0,0-4.68,0c-5.9.31-8.65,2.58-10.17,8.35-.27,1.07-.7,1.77-1.16,1.93a1.08,1.08,0,0,1-1-.3c-3-2.26-6.23-1.89-9.36-1.54a3.36,3.36,0,0,1-2.08-.36,3.7,3.7,0,0,1,.43-1.8c1.7-3.47,1-6.58-2-8.76a19,19,0,0,0-5.09-2.75c-5.83-1.95-11.87-2.08-17.52-1.92-8.77.24-15.73,3.93-21.28,11.27a4.05,4.05,0,0,1-2.62.93c-1.26.1-2.57.13-3.83.16a40.35,40.35,0,0,0-6,.42c-4.69.82-8.2,2.53-10.75,5.26a17.2,17.2,0,0,0-2.31,20.67l.23.37a3.65,3.65,0,0,1,.56,1.22,5.85,5.85,0,0,1-.06,1.49v.06l-.1,0a5.19,5.19,0,0,1-1.39-.73,4.05,4.05,0,0,1-.84-1.57l-.05-.14c-2.1-5.56-6.85-6.65-11.22-7-6.32-.48-11.86,1.94-16,4.1-6.2,3.27-9.52,8.3-9.34,14.18.14,4.33-1.24,7.1-3.67,10.44-2.29,3.13-3.26,7.4-3.85,10.77-1.8,10.25,2.36,17,12,19.47,1.12.29,2.15.58,2.32.95s-.25,1.3-.72,2.3A10.68,10.68,0,0,0,249.73,110a18.12,18.12,0,0,0,11.16,3.64c.29,0,.72.38,1.1.71l.25.21c-.06.06-.12.14-.18.21-.29.35-.63.76-.89.8-5.67,1-8.38,3.8-8.52,8.84a1.36,1.36,0,0,1-.4,1.1c-.31.24-.9.24-1.75,0a37,37,0,0,0-7.76-1.57,8.89,8.89,0,0,0-7.92,3.93c-2.47,3.32-2.65,7.1-2.83,10.76l-.05,1c-.34,6.3,5.13,11.15,10.39,12a2.93,2.93,0,0,0,2.15-.55c5.67-4.82,12.66-6.48,19.42-8.08a2.36,2.36,0,0,1,1.14.39l.17.08-.12.19c-.3.43-.6.87-.9,1-1.45.48-2.95.88-4.41,1.27s-3.26.87-4.86,1.41c-6.6,2.25-11.35,6.06-14.13,11.35a95,95,0,0,0-5.4,12l-.25.71c-.79,2.26-.78,2.26-4.08,2.2l-9.3-.21c-5.49-.14-11.17-.27-16.76-.31a56.06,56.06,0,0,0-33.84,10.47c-13.3,9.57-20.73,19-24.08,30.65-.32,1.11-.88,1.44-2.07,1.2-2-.4-3.95-.77-5.93-1.14-3.13-.6-6.38-1.21-9.54-1.9-7.66-1.68-16.8-3.2-26.48-1.82-7.25,1-11.84,4.54-14,10.71-.5,1.42-1.22,1.78-3.23,1.62-7-.56-12.67-.79-17.93-.73-4.1,0-7.34,2.43-9.63,7.08-3.56,7.21-3.1,14.52,1.37,21.71l.32.49c.36.53.78,1.13.7,1.55a.89.89,0,0,1-.42.51,1,1,0,0,1-.67.23c-.29-.07-.57-.52-.83-1a4.66,4.66,0,0,0-.76-1c-.11-.09-.21-.19-.32-.3-.59-.56-1.24-1.19-2-1.15l-1.8.09a94.54,94.54,0,0,0-11.09,1c-6.32,1.05-12,4.17-17.24,7.28a21.54,21.54,0,0,0-11,17.68c-.55,6.63,2.17,12.29,4.81,17.76a3.78,3.78,0,0,0,3.71,2.43,8.28,8.28,0,0,1,3.05.38,3.76,3.76,0,0,1,1.24,1l.1.11-.11.05a3.63,3.63,0,0,1-1.41.48c-1.59,0-3.21,0-4.78-.06a76.34,76.34,0,0,0-7.71.05A11.82,11.82,0,0,0,2.7,306.82,11.68,11.68,0,0,0,5.7,320a52.62,52.62,0,0,0,18.76,11.42c10.1,3.62,21.35,5.08,35.48,4.6,5.36-.19,10.9-.38,15.89-3.11,1.79-1,2.85-.71,3.91,1A14.66,14.66,0,0,0,87,340.1,50.46,50.46,0,0,0,105,343.77a36.84,36.84,0,0,0,10.45-1.51c8.35-2.44,14.76-7.59,19.58-15.74l.24-.39-.38-.27-.55-.36a3.54,3.54,0,0,1-.73-.54l-1.09-1.18c-1.66-1.81-3.38-3.68-4.91-5.63-.14-.17,0-.83.07-1.26l.05-.27.19.06a2.52,2.52,0,0,1,1.12.58,20.5,20.5,0,0,0,9.81,8.53c4.46,2,13.24.39,16.48-3.08l.29-.31-.25-.33c-.42-.56-.84-1.1-1.27-1.65-1.06-1.38-2.16-2.8-3.11-4.27a2.66,2.66,0,0,1-.11-1.35.76.76,0,0,0,0-.15h0a16.28,16.28,0,0,1,1.63.68,2,2,0,0,1,.3.48l.1.2c2.45,4.64,7,5.94,10.23,6.52a47.64,47.64,0,0,0,6.83.55l.67,0c4.85.17,10.57.08,16.18-1.81a36.43,36.43,0,0,0,16.48-11.22c.86-1,1.58-1.06,3-.2a21.2,21.2,0,0,0,5.58,2.6,27.71,27.71,0,0,0,6.63.68,105.83,105.83,0,0,0,11-.29c4.62-.45,8.14-3.08,11.94-6.2,1.42-1.18,2.4-1.8,4-.62a96.87,96.87,0,0,0,9.1,6.12c12.48,7.15,24.23,9.23,35.91,6.34,8.49-2.1,14.61-5.28,19.25-10a11.69,11.69,0,0,0,.79-.95,5.37,5.37,0,0,1,1-1.13,2.88,2.88,0,0,1,1.19-.37l.15,0a.77.77,0,0,1,0,.15,2.87,2.87,0,0,1,0,1.23,5.25,5.25,0,0,1-.88,1.36c-.17.2-.33.41-.48.62l-.18.26.16.27c2.25,3.94,8.49,9.35,13,12.11A67.19,67.19,0,0,0,354,331.82a178.74,178.74,0,0,0,41-1.27,71,71,0,0,0,26-9.23c9.55-5.59,16.51-14.32,20.68-25.95a37.23,37.23,0,0,0,2.1-8.81c.27-2.77.3-5.59.33-8.32,0-1.59,0-3.23.11-4.84a25.09,25.09,0,0,0-3-12.91A68.37,68.37,0,0,0,435.3,251a50.07,50.07,0,0,0-4.45-4.85c-1-1-2-2-2.9-3a2.81,2.81,0,0,1-.46-1.34.5.5,0,0,1,0-.12l1.7.22,0,0,.12.13c11.89,10.9,17.05,21.17,16.76,33.3a3.18,3.18,0,0,0,1.66,2.61c1.09.38,2.17.77,3.25,1.17a59,59,0,0,0,10.78,3.19,129.34,129.34,0,0,0,34.69.57c14.37-1.53,25.39-8.63,32.76-21.09.3-.51.57-1,.84-1.56l.5-1a1.78,1.78,0,0,1,2.54-.85,13,13,0,0,0,14.24-4l.29-.33-.29-.33c-.27-.32-.56-.63-.85-.94a16.78,16.78,0,0,1-1.88-2.27,3.24,3.24,0,0,1-.31-1.44v-.14l.12,0a3.3,3.3,0,0,1,1.4.44,10.34,10.34,0,0,1,1.58,1.59c.31.36.61.71.94,1a10.66,10.66,0,0,0,12.36,1.49,17.79,17.79,0,0,0,7.48-8.45c.66-1.56,1.43-1.95,3-1.48a28.91,28.91,0,0,0,17.58,0c9.12-2.93,14.71-7.94,17.11-15.31,2.08-6.41,1.27-12.81-2.49-19.59C601.49,205.35,599.66,202.44,596.14,200.9Z"/><path class="cls-1" d="M692.06,121.92c-8.46-5.82-20.13-4.32-25.49,3.28A2.16,2.16,0,0,1,665,126a2.47,2.47,0,0,1-.84-1.64c-.14-1.34-.22-2.72-.3-4-.11-1.83-.22-3.72-.5-5.57-2.11-14-7.4-22.35-17.13-27.19a70,70,0,0,0-11.65-4.67c-7.84-2.28-15.55.44-20.62,7.27-3,4.07-5.21,8.81-7.12,15.38-.09.33-.58.67-1.05,1l-.2.15a1.34,1.34,0,0,1-.07-.18c-.19-.43-.42-1-.33-1.21l.65-1.79a97.19,97.19,0,0,1,4.37-10.7,38.91,38.91,0,0,1,3.94-5.84c.73-1,1.49-2,2.26-3l.3-.43-.43-.28c-.19-.13-.4-.25-.62-.38a7.35,7.35,0,0,1-1.38-1c-9.63-9.12-26.24-10.73-37-3.58a97,97,0,0,0-11.43,9.37l-2.53,2.28c-6.91,6.17-11.4,14.18-13.74,24.49a2.48,2.48,0,0,1-.79,1l-.12.11-.14-.19c-.26-.37-.62-.87-.58-1.11a2.5,2.5,0,0,0-1.79-3c-5.44-2.09-10.06-1.83-14.1.81-2.69,1.76-3.81,4.11-3.32,7a12.07,12.07,0,0,1,.07,3.35,1.41,1.41,0,0,1-.59,1.15c-.28.12-.63-.08-.88-.27-3.65-2.81-7.88-3.14-11.92-3.09-6,.08-9.45,3-10.63,9-.56,2.85-.81,5.56,2.24,7.46a4.18,4.18,0,0,1,1.16,1.53l.22.39c1.78,3.06,2.86,5.69,2.4,8.57l-.12.78.75-.22c1.5-.43,3-.93,4.39-1.41A41,41,0,0,1,525,143.8a220.11,220.11,0,0,1,23.56-.58,36.13,36.13,0,0,1,19.51,6.1c6.7,4.33,10.66,10.26,11.76,17.63.59,3.93,2.58,5.13,5.61,5.79l.43.1a34.37,34.37,0,0,0,7,.75c8.69,0,17-3.54,25.59-10.86,1.55-1.31,2.45-1.46,4-.63a27.94,27.94,0,0,0,19.89,2.55,5.35,5.35,0,0,1,3.4.5c4.32,2.29,9.11,2.48,15.07.6a16.15,16.15,0,0,0,8.65-6.93c1.73-2.58,1.54-7.25-.37-9.25a3.81,3.81,0,0,1-.65-1.34l-.06-.17.33,0a3.41,3.41,0,0,1,1.68,0c1.67.67,3.34,1.43,5,2.17,2.3,1.05,4.69,2.13,7.12,3A33.94,33.94,0,0,0,699,154.74c3.78-.56,6.75-3.27,6.9-6.31C706.46,137.38,701.94,128.71,692.06,121.92Z"/><path d="M622.56,164.1a28.84,28.84,0,0,0,19.69,2.39,5.25,5.25,0,0,1,3.25.5,18.1,18.1,0,0,0,10,1.68c10.28-.79,16.36-6.71,17.11-16.66l.05-.66.63.23,2.86,1.13c2,.82,4.17,1.67,6.3,2.31a36.84,36.84,0,0,0,17.52,1.36c4-.72,7.56-4,7.59-6.91a49.23,49.23,0,0,0-.94-11.18c-1.71-7.47-6.48-13.5-14.58-18.42-8.36-5.08-16.54-4.6-24.33,1.45a4.71,4.71,0,0,1-.58.34l-.39.2-.65.35-.09-.73c-.11-.94-.2-1.87-.29-2.77-.19-1.94-.37-3.77-.7-5.58-2.44-13.58-8-22.16-17.52-27-1.53-.78-3.17-1.45-4.74-2.1-1.14-.47-2.32-1-3.46-1.49-6.27-2.89-12.6-2.92-19.36-.08a3.14,3.14,0,0,1-2.92-.52C606.74,71,588.6,68.81,575.65,77,569.21,81,564,86.38,559.27,91.53a53.58,53.58,0,0,0-6.25,9.06l-.55.93a51.26,51.26,0,0,0-2.74,5.57c-.34.78-.68,1.54-1,2.26l-.17.35-.38-.08c-.85-.17-1.68-.37-2.5-.57a31.65,31.65,0,0,0-5.07-.94c-5.85-.41-10.08,1.48-12.59,5.63a12,12,0,0,0-1.21,3.78c-.12.58-.23,1.14-.37,1.65l-.12.41-.42,0c-1.06-.13-2.13-.28-3.22-.43a57.91,57.91,0,0,0-7.35-.74c-6.62-.08-10.74,3.24-12.2,9.9-.23,1.06-.37,2.16-.5,3.13-.05.42-.11.83-.16,1.2l-.06.39-13.69,1.35.12-.65c1-5.66.11-10.24-2.85-14.4-3.33-4.66-7.5-6.75-13.14-6.57l-.64,0,.14-.63.33-1.43c1.37-5.91,2.67-11.5-2.76-15.21-6.07-4.14-12.14-3.87-17.09.78l-.4.38-.34-.43c-3.43-4.35-8.17-4.65-13.19-5l-.88-.06c-5-.33-9.83,1.11-14.83,4.41l-.85.56.48-6.9.55.1c5.54,1,9.65-1.27,12.6-6.94a21.73,21.73,0,0,0-.48-20.47c-3.23-5.89-8.72-9.72-14.69-10.26a4.6,4.6,0,0,1-1-.22l-.46-.14-.38-.1v-.4c.24-6.6-1.68-12.93-3.39-18.51a34.14,34.14,0,0,0-14.19-19.22C390.94,6.2,379.13,6.63,369,7.94c-1.62.21-3.26,1.89-4.71,3.36l-.48.49a9.86,9.86,0,0,0-1.69,2.75c-.23.47-.45.94-.69,1.38l-.17.3-7.84-1.07-.17-.34c-.23-.9-.39-1.81-.54-2.69-.31-1.84-.6-3.57-1.5-4.74a16.75,16.75,0,0,0-6.89-5C338.32,0,332-.1,325.46,0c-8.87.2-16.13,3.84-22.18,11.12a3.49,3.49,0,0,1-2.33,1c-1.15.1-2.32.13-3.46.17a38.18,38.18,0,0,0-5.86.48c-5.83,1.12-9.65,3-12.36,6.25-3.68,4.36-5.23,8.77-4.74,13.5a2.73,2.73,0,0,1-.08.84,2.25,2.25,0,0,0-.05.22l-.07.53-.52-.11c-.83-.18-1.64-.37-2.44-.56a45.9,45.9,0,0,0-5.08-1c-6.9-.78-13,1.91-17.52,4.34-6.74,3.61-10.28,9.26-10.24,16.32,0,3.68-1.39,5.94-3.09,8.31-3.61,5-5.15,11.2-4.58,18.38s4.4,11.93,11.42,14.38l1.41.53,1.14.44-.14.45c-3,9.39.46,15.52,11,19.29l1.4.51-1.42.44c-3,1-3.57,3-4.16,5.12-.15.56-.31,1.14-.51,1.68l-.14.37-.39,0c-.81-.1-1.59-.22-2.35-.33-1.65-.24-3.21-.46-4.77-.56a10.81,10.81,0,0,0-9.82,4.54c-3,3.86-3.26,8.39-3.32,12.34-.08,5.87,2.26,10,7.18,12.62.89.48,1.8.94,2.54,1.31l1.23.63-.19.44-2,4.3c-1.73,3.77-3.52,7.66-5.17,11.51a2.74,2.74,0,0,1-3,2l-4.58-.12c-7.3-.19-14.85-.39-22.27-.39h-.07a58.33,58.33,0,0,0-31.11,9,72.92,72.92,0,0,0-14.38,11.9c-6.36,6.65-10.3,12.88-12.39,19.6-.62,2-2,1.71-3.08,1.5l-6.76-1.41c-3.42-.72-7-1.46-10.45-2.14-6.59-1.28-15.3-2.51-24.18-.67-4.44.92-9,2.19-11.56,6.7l-.55.95A25.09,25.09,0,0,0,88,219.38c-.69,1.53-1.77,1.57-2.91,1.48l-.29,0c-4.62-.38-9.41-.77-14.1-.81-4.25,0-7.32.83-9.6,2.75a19.11,19.11,0,0,0-6.69,13c-.42,3.82-.53,7.89,1.43,11.75l.32.64-.71.08-.62.09a4.51,4.51,0,0,1-.86.08c-9.14-.36-18.11,2.2-28.2,8.06l-.71.4a22.29,22.29,0,0,0-4.11,2.78c-8.34,7.73-10.55,19-5.76,29.49.65,1.41,1.26,2.85,1.89,4.34.31.71.61,1.43.93,2.16l.27.64-2.15.19c-.95.07-1.82.15-2.69.25-6.16.73-10.3,3.87-12.31,9.32C-1,311.75,0,316.84,3.93,320.73a54.6,54.6,0,0,0,27.19,14.59,110,110,0,0,0,31,2.42,42.89,42.89,0,0,0,13.92-2.82,1.54,1.54,0,0,1,.58-.11,2.94,2.94,0,0,1,2,.87c2.06,2.53,4.67,5.26,8.37,6.33,4.52,1.3,8.21,2.22,11.59,2.88a35.67,35.67,0,0,0,24.28-3.77c4.8-2.57,8.84-6.41,12.72-12.1.49-.72,1.8-1.65,2.65-1.4,6.24,1.87,12.28.74,18.46-3.46a4,4,0,0,1,2.3-.65c2.07.14,4.17.36,6.2.56a98.4,98.4,0,0,0,12.26.73A34.29,34.29,0,0,0,199.75,316c1.16-1,2.27-2,3.25-3l1.08-1,.21-.19.28.09c.91.29,1.77.59,2.6.88a48.46,48.46,0,0,0,5.18,1.61,28.54,28.54,0,0,0,6,.49c1,0,2.08,0,3.12.08,4,.15,8.12.31,11.85-1.31a54.84,54.84,0,0,0,7.17-4c1.07-.67,2.15-1.34,3.26-2l.28-.16.27.19a70.7,70.7,0,0,0,23.76,12c13.56,3.73,26.78,1.41,39.27-6.88,2.19-1.45,3.08-.94,4.6.56l1.47,1.45a60.77,60.77,0,0,0,9.6,8.3,66.89,66.89,0,0,0,30.63,10.37,181.89,181.89,0,0,0,41.87-1.31,72.91,72.91,0,0,0,26.69-9.55c9.86-5.8,17-14.77,21.12-26.64a50.7,50.7,0,0,0,1.91-8.95c.15-1,.31-2.09.49-3.13a11.47,11.47,0,0,0,.06-2.5c0-.43,0-.86,0-1.29v-.69l.65.22c1.25.4,2.44.84,3.59,1.27a40.69,40.69,0,0,0,7.15,2.17,137.75,137.75,0,0,0,18.18,2c9.71.34,19.71.7,29.25-2a45.09,45.09,0,0,0,22.84-15.32,38.42,38.42,0,0,0,3.25-4.89c.46-.79.93-1.58,1.42-2.34l.19-.31.35.09c5.59,1.41,10.32.27,14.9-3.59a4,4,0,0,1,4.39-.88c4.64,1.54,8.63.71,11.87-2.48,1.59-1.57,3.08-3.28,4.65-5.08.74-.85,1.5-1.72,2.3-2.61l.19-.22.29.06c6.58,1.45,12.22,1.42,17.26-.09,10.38-3.12,16.47-8.48,19.15-16.9,2.15-6.73,1.25-13.45-2.83-21.13-2.95-5.55-6.94-8.74-12.21-9.77-3.44-.67-7-1.06-10.46-1.44l-4-.46a11.19,11.19,0,0,0-1.68,0l-1.3,0h-.95l.54-.79a31.42,31.42,0,0,0,5.56-21l0-.65.65.12c1.1.22,2.16.46,3.2.7a37.47,37.47,0,0,0,6.12,1.07c10,.64,19.22-2.75,28.95-10.66C620.28,163.74,621.15,163.39,622.56,164.1Zm-45.4,22.05a70.05,70.05,0,0,1-3.35,6.44c-.64,1.12-1.28,2.24-1.88,3.38a7.71,7.71,0,0,0-.53,1.47l-.08.26.34.12a3.57,3.57,0,0,0,1.47.3,40.3,40.3,0,0,1,23,2.78c3.52,1.54,5.35,4.45,7.21,7.81,3.76,6.78,4.57,13.18,2.49,19.59-2.4,7.37-8,12.38-17.11,15.31a28.91,28.91,0,0,1-17.58,0c-1.54-.47-2.32-.08-3,1.48a17.79,17.79,0,0,1-7.48,8.45A10.66,10.66,0,0,1,548.33,252c-.33-.33-.63-.68-.94-1a10.34,10.34,0,0,0-1.58-1.59,3.3,3.3,0,0,0-1.4-.44l-.12,0v.14a3.24,3.24,0,0,0,.31,1.44,16.78,16.78,0,0,0,1.88,2.27c.29.31.58.62.85.94l.29.33-.29.33a13,13,0,0,1-14.24,4,1.78,1.78,0,0,0-2.54.85l-.5,1c-.27.53-.54,1-.84,1.56-7.37,12.46-18.39,19.56-32.76,21.09a129.34,129.34,0,0,1-34.69-.57A59,59,0,0,1,451,279.11c-1.08-.4-2.16-.79-3.25-1.17a3.18,3.18,0,0,1-1.66-2.61c.29-12.13-4.87-22.4-16.76-33.3l-.12-.13,0,0-1.7-.22a.5.5,0,0,0,0,.12,2.81,2.81,0,0,0,.46,1.34c.92,1,1.93,2,2.9,3A50.07,50.07,0,0,1,435.3,251a68.37,68.37,0,0,1,5.91,9.54,25.09,25.09,0,0,1,3,12.91c-.07,1.61-.09,3.25-.11,4.84,0,2.73-.06,5.55-.33,8.32a37.23,37.23,0,0,1-2.1,8.81C437.53,307,430.57,315.73,421,321.32a71,71,0,0,1-26,9.23,179.31,179.31,0,0,1-41,1.27A67.19,67.19,0,0,1,324.46,322c-4.49-2.76-10.73-8.17-13-12.11l-.16-.27.18-.26c.15-.21.31-.42.48-.62a5.25,5.25,0,0,0,.88-1.36,2.87,2.87,0,0,0,0-1.23.77.77,0,0,0,0-.15l-.15,0a2.88,2.88,0,0,0-1.19.37,5.37,5.37,0,0,0-1,1.13,11.69,11.69,0,0,1-.79.95c-4.64,4.71-10.76,7.89-19.25,10-11.68,2.89-23.43.81-35.91-6.34a96.87,96.87,0,0,1-9.1-6.12c-1.59-1.18-2.57-.56-4,.62-3.8,3.12-7.32,5.75-11.94,6.2a105.83,105.83,0,0,1-11,.29,27.71,27.71,0,0,1-6.63-.68,21.2,21.2,0,0,1-5.58-2.6c-1.39-.86-2.11-.81-3,.2a36.43,36.43,0,0,1-16.48,11.22c-5.61,1.89-11.34,2-16.18,1.81l-.67,0a47.64,47.64,0,0,1-6.83-.55c-3.22-.58-7.78-1.88-10.23-6.52l-.1-.2a2,2,0,0,0-.3-.48,16.28,16.28,0,0,0-1.63-.68h0a.76.76,0,0,1,0,.15,2.66,2.66,0,0,0,.11,1.35c.95,1.47,2.05,2.89,3.11,4.27.43.55.85,1.09,1.27,1.65l.25.33-.29.31c-3.24,3.47-12,5.11-16.48,3.08a20.5,20.5,0,0,1-9.81-8.53,2.52,2.52,0,0,0-1.12-.58l-.19-.06c0,.09,0,.18-.05.27-.08.43-.21,1.09-.07,1.26,1.53,2,3.25,3.82,4.91,5.63l1.09,1.18a3.54,3.54,0,0,0,.73.54l.55.36.38.27-.24.39c-4.82,8.15-11.23,13.3-19.58,15.74A36.84,36.84,0,0,1,105,343.77,50.46,50.46,0,0,1,87,340.1a14.66,14.66,0,0,1-7.3-6.19c-1.06-1.7-2.12-2-3.91-1-5,2.73-10.53,2.92-15.89,3.11-14.13.48-25.38-1-35.48-4.6A52.62,52.62,0,0,1,5.7,320a11.68,11.68,0,0,1-3-13.19,11.82,11.82,0,0,1,10.75-8.27c2.56-.18,5.18-.12,7.71-.05,1.56,0,3.19.08,4.78.06a3.63,3.63,0,0,0,1.41-.48l.11-.05-.1-.11a3.76,3.76,0,0,0-1.24-1,8.28,8.28,0,0,0-3.05-.38,3.78,3.78,0,0,1-3.71-2.43c-2.64-5.47-5.36-11.13-4.81-17.76a21.54,21.54,0,0,1,11-17.68c5.26-3.11,10.92-6.23,17.24-7.28a94.54,94.54,0,0,1,11.09-1l1.8-.09c.72,0,1.39.59,2,1.15.11.11.21.21.32.3a4.66,4.66,0,0,1,.76,1c.26.43.54.88.83,1a1,1,0,0,0,.67-.23.89.89,0,0,0,.42-.51c.08-.42-.34-1-.7-1.55l-.32-.49c-4.47-7.19-4.93-14.5-1.37-21.71,2.29-4.65,5.53-7,9.63-7.08,5.26-.06,10.95.17,17.93.73,2,.16,2.73-.2,3.23-1.62,2.19-6.17,6.78-9.68,14-10.71,9.68-1.38,18.82.14,26.48,1.82,3.16.69,6.41,1.3,9.54,1.9,2,.37,4,.74,5.93,1.14,1.19.24,1.75-.09,2.07-1.2,3.35-11.62,10.78-21.08,24.08-30.65A56.17,56.17,0,0,1,205,173.08c5.59,0,11.27.17,16.76.31l9.3.21c3.29.06,3.29.06,4.08-2.2l.25-.71a95,95,0,0,1,5.4-12c2.78-5.29,7.53-9.1,14.13-11.35,1.6-.54,3.26-1,4.86-1.41s3-.79,4.41-1.27c.3-.1.6-.54.9-1l.12-.19-.17-.08a2.36,2.36,0,0,0-1.14-.39c-6.76,1.6-13.75,3.26-19.42,8.08a2.93,2.93,0,0,1-2.15.55c-5.26-.9-10.73-5.75-10.39-12l.05-1c.18-3.66.36-7.44,2.83-10.76a8.86,8.86,0,0,1,7.92-3.93,37,37,0,0,1,7.76,1.57c.85.23,1.44.24,1.75,0a1.36,1.36,0,0,0,.4-1.1c.14-5,2.85-7.85,8.52-8.84.26,0,.6-.45.89-.8.06-.07.12-.15.18-.21l-.25-.21c-.38-.33-.81-.7-1.11-.71A18.11,18.11,0,0,1,249.73,110a10.68,10.68,0,0,1-3.22-13.53c.47-1,.89-1.94.72-2.3s-1.2-.66-2.32-.95c-9.65-2.49-13.81-9.22-12-19.47.59-3.37,1.56-7.64,3.85-10.77,2.43-3.34,3.81-6.11,3.67-10.44-.18-5.88,3.14-10.91,9.34-14.18,4.12-2.16,9.66-4.58,16-4.1,4.37.34,9.12,1.43,11.22,7l.05.14a4.13,4.13,0,0,0,.84,1.57,5.19,5.19,0,0,0,1.39.73l.1,0v-.06a5.85,5.85,0,0,0,.06-1.49,3.65,3.65,0,0,0-.56-1.22l-.23-.37a17.2,17.2,0,0,1,2.31-20.67c2.55-2.73,6.06-4.44,10.75-5.26a40.35,40.35,0,0,1,6-.42c1.26,0,2.57-.06,3.83-.16a4.05,4.05,0,0,0,2.62-.93c5.55-7.34,12.51-11,21.28-11.27,5.65-.16,11.69,0,17.52,1.92A19,19,0,0,1,348,6.51c3,2.18,3.66,5.29,2,8.76a3.7,3.7,0,0,0-.43,1.8,3.36,3.36,0,0,0,2.08.36c3.13-.35,6.37-.72,9.36,1.54a1.08,1.08,0,0,0,1,.3c.46-.16.89-.86,1.16-1.93,1.52-5.77,4.27-8,10.17-8.35A31.77,31.77,0,0,1,378,9c1.14.11,2.27.21,3.41.3a67.46,67.46,0,0,1,9.89,1.3c9.66,2.28,16.91,8.52,21,18.07a74.65,74.65,0,0,1,3.68,12.61c.34,1.5.69,3,1.06,4.49a12.66,12.66,0,0,1,.25,3.11c0,.5,0,1,0,1.56l0,.52h-.52l-1.44,0a17.66,17.66,0,0,0-2.93.07,3.75,3.75,0,0,0-1.92.79.77.77,0,0,0,.1.57c.21.25.81.3,1.35.34l.41,0c1,.1,2,.18,3,.25a55.21,55.21,0,0,1,6.87.81,15.26,15.26,0,0,1,6,2.74c7.77,6,10.15,14.42,6.7,23.79a11.39,11.39,0,0,1-6.27,6.93c-2.6,1.11-4.29.67-6.23-1.64a.93.93,0,0,0-1.78.55c-.19,3.75-.26,7.45-.34,11.55a1.3,1.3,0,0,0,.45,1.2,1.53,1.53,0,0,0,1.44-.28c.67-.42,1.32-.87,2-1.32.84-.58,1.71-1.19,2.62-1.71,5.69-3.27,12.09-3.61,20.12-1.07,1.49.47,2.67,1.9,3.72,3.17l.18.21c.65.79,1.21,1.19,1.66,1.19h0c.38,0,.78-.32,1.19-.92a8.32,8.32,0,0,1,5.69-3.46,14.56,14.56,0,0,1,10.25,2.62,5.27,5.27,0,0,1,1.69,2.82c1.22,4.61.66,8.59-1.71,12.16-.41.61-.54,1.11-.39,1.43s.65.55,1.4.62c1.31.12,2.65.19,3.95.26l1.28.07a9.31,9.31,0,0,1,7.57,4.25c.26.4.54.79.81,1.19a17.74,17.74,0,0,1,2.65,4.74c2.11,6.72-.55,12.62-7.66,17.07-.7.44-1.44.83-2.15,1.21a29,29,0,0,0-2.58,1.51,2.32,2.32,0,0,0-.55,1l-.06.16.23.07c.41.15.92.33,1.14.23,1.34-.59,2.62-1.32,4.11-2.16.6-.35,1.23-.71,1.91-1.08l1.14-.63-.42,1.23c-.19.52-.36,1-.52,1.38a7.79,7.79,0,0,0-.61,2,3.3,3.3,0,0,0,.31,1.34l.05.14.14-.08a2.82,2.82,0,0,0,1.05-.78,15.54,15.54,0,0,0,.95-2.19c.26-.66.52-1.35.85-2,4.6-8.91,12-8.79,17.86-7.7,2.17.41,4.38,2.51,5.77,5.48s1.63,6.32.47,8.39l-.2.34a2.11,2.11,0,0,0-.38.82,9,9,0,0,0,.11,1.61.68.68,0,0,1,0,.14l.19-.05a3.45,3.45,0,0,0,1.29-.5,31.21,31.21,0,0,1,15.11-6.17c10.48-1.51,22.78-2.54,34.56,1.3,13,4.23,19.52,12.7,19.52,25.17,0,.9,0,1.81,0,2.72C578.65,178.59,578.75,182.49,577.16,186.15Zm41.33-23.42c-8.62,7.32-16.9,10.86-25.59,10.86a34.37,34.37,0,0,1-7-.75l-.43-.1c-3-.66-5-1.86-5.61-5.79-1.1-7.37-5.06-13.3-11.76-17.63a36.13,36.13,0,0,0-19.51-6.1,220.11,220.11,0,0,0-23.56.58,41,41,0,0,0-9.18,2.36c-1.42.48-2.89,1-4.39,1.41l-.75.22.12-.78c.46-2.88-.62-5.51-2.4-8.57l-.22-.39a4.18,4.18,0,0,0-1.16-1.53c-3.05-1.9-2.8-4.61-2.24-7.46,1.18-6,4.66-8.88,10.63-9,4,0,8.27.28,11.92,3.09.25.19.6.39.88.27a1.41,1.41,0,0,0,.59-1.15,12.07,12.07,0,0,0-.07-3.35c-.49-2.89.63-5.24,3.32-7,4-2.64,8.66-2.9,14.1-.81a2.5,2.5,0,0,1,1.79,3c0,.24.32.74.58,1.11l.14.19.12-.11a2.48,2.48,0,0,0,.79-1c2.34-10.31,6.83-18.32,13.74-24.49l2.53-2.28a97.86,97.86,0,0,1,11.43-9.37c10.8-7.15,27.41-5.54,37,3.58a7.35,7.35,0,0,0,1.38,1c.22.13.43.25.62.38l.43.28-.3.43c-.77,1.08-1.53,2.08-2.26,3a38.91,38.91,0,0,0-3.94,5.84,97.19,97.19,0,0,0-4.37,10.7l-.65,1.79c-.09.25.14.78.32,1.21l.08.18.2-.15c.47-.33,1-.67,1.05-1,1.91-6.57,4.11-11.31,7.12-15.38,5.07-6.83,12.78-9.55,20.62-7.27a70,70,0,0,1,11.65,4.67c12.61,6.27,15.82,18.52,17.13,27.19.28,1.85.39,3.74.5,5.57.08,1.33.16,2.71.3,4A2.47,2.47,0,0,0,665,126a2.16,2.16,0,0,0,1.56-.77c5.36-7.6,17-9.1,25.49-3.28,9.88,6.79,14.4,15.46,13.82,26.51-.15,3-3.12,5.75-6.9,6.31a33.94,33.94,0,0,1-16.45-1.58c-2.43-.86-4.82-1.94-7.12-3-1.63-.74-3.3-1.5-5-2.17a3.41,3.41,0,0,0-1.68,0l-.33,0,.06.17a3.81,3.81,0,0,0,.65,1.34c1.91,2,2.1,6.67.37,9.25a16.15,16.15,0,0,1-8.65,6.93c-6,1.88-10.75,1.69-15.07-.6a5.35,5.35,0,0,0-3.4-.5,27.94,27.94,0,0,1-19.89-2.55C620.94,161.27,620,161.41,618.49,162.73Z"/></g></g></g></g></svg>