<svg xmlns="http://www.w3.org/2000/svg" viewBox="0 0 1800.29 640.87"><defs><style>.cls-1{fill:#fff;}</style></defs><g id="Layer_2" data-name="Layer 2"><g id="Mobile"><g id="Clouds_Right"><g id="_12" data-name="12"><path class="cls-1" d="M1796.23,468.5a22.13,22.13,0,0,0-15.14-10.07,20.19,20.19,0,0,0-16,4.41l-.32.27a16.54,16.54,0,0,1-2.35,1.76,2.06,2.06,0,0,1-1.62.39c-.31-.14-.56-.65-.69-1.39a25,25,0,0,1-.29-3.54v-.19c0-.62,0-1.24-.1-1.86-1.35-17.3-9.08-32.31-23.65-45.89-8.92-8.32-20.2-13-35.49-14.86-20.17-2.39-37.48,0-52.92,7.23a4.13,4.13,0,0,1-2.79-.68c-4.37-7.27-11.54-10.14-18.47-12.91l-1.06-.42A16.79,16.79,0,0,0,1618,390a6.52,6.52,0,0,0-4.37,2.53c-2.46,3.35-4.78,6.76-7.28,10.43l-.19.27-2.61,3.82-.48.7.46.72c5.17,8.08,7.49,18.32,7.3,32.23-.22,15.21-4.65,24.83-14.38,31.17a11.5,11.5,0,0,0-1.24,1c-.59.5-1.49,1.25-1.94,1.21a1.13,1.13,0,0,1-.57-.45c-.38-.49-.39-.74-.38-.82.07-.43,1-1.05,1.65-1.52a12.86,12.86,0,0,0,1.38-1c.68-.63,1.37-1.25,2.06-1.87,4.93-4.41,10-9,10.37-16.86.09-2.07.25-4.18.41-6.22v-.11a96.06,96.06,0,0,0,.44-12c-.88-18.44-9-31.7-24.18-39.4-7.64-3.89-14.09-7.07-20.72-10-9.87-4.37-20.65-8.39-32.74-8.39h-.6c-5.41.06-10.85.05-16.41,0h-1c-3.89,0-7.77,0-11.66,0-1.07,0-2.13.1-3.16.19a24.71,24.71,0,0,1-3.9.16,3.59,3.59,0,0,1-1.14-.78,5.38,5.38,0,0,1,1.11-1.05,4.54,4.54,0,0,1,1.77-.21c3.64,0,7.28-.05,10.93-.08h.42c9.08-.09,18.47-.18,27.72.09,13.11.38,25,5.95,36.55,11.34l4.28,2c8.41,3.88,17.94,8.27,24.86,17.39l1,1.31,1-1.28,1.51-1.8c1-1.14,1.79-2.12,2.54-3.21,7.31-10.74,10.68-19.94,10.93-29.83.47-18.91-8.29-30.55-26-34.57-8.23-1.88-17.37-1-26,0-3.13.38-6,2.25-8.75,4.08-1.25.82-2.54,1.67-3.8,2.33a9.48,9.48,0,0,1-2,.67h0a5,5,0,0,1-.48-1.83c.1-2.34.3-4.78.49-7a100.78,100.78,0,0,0,.51-12.68c-.38-8.27-9-21.43-20-22.67-10.74-1.19-19.36.95-26.36,6.56a4.34,4.34,0,0,1-2.29.91,4.67,4.67,0,0,1-.94-2.61c-.33-2.38-.57-4.81-.81-7.16-.4-4-.82-8.08-1.63-12.1-3.38-16.62-11.12-28-23.69-34.63l-.67-.36c-6.39-3.4-13-6.92-20-8.42a70.86,70.86,0,0,0-33.69,1.14,24.27,24.27,0,0,0-9.2,5.54,34.88,34.88,0,0,0-4.43,5.3c-.83,1.15-1.7,2.33-2.63,3.4a3.58,3.58,0,0,1-1.4.65,3.86,3.86,0,0,1-.32-1.09,16,16,0,0,1,2.45-4.26c.88-1.17,1.85-2.31,2.8-3.44a44.62,44.62,0,0,0,4.69-6.26c6-10.38,12.85-22.15,16.18-35.41a69.28,69.28,0,0,0-3.8-46.12c-5.54-12.43-15.92-22-30.85-28.59-14.62-6.4-29.27-8.24-43.53-5.46a3.18,3.18,0,0,1-1.86-.57,3.46,3.46,0,0,1,.65-1.5c8.7-8.76,10.61-20.78,5.38-33.87-8.21-20.57-23.48-30.32-43-27.46l-.24,0a3.21,3.21,0,0,1-1,.07L1310.3,62a9.52,9.52,0,0,1-2-.52,4.29,4.29,0,0,1,1-2.56c4.88-5.51,6.33-12.41,4.43-21.07-1.7-7.75-6.41-12.27-13.64-13.07-4.66-.52-9.49-.94-14.34-1.24-6.82-.43-12.33,2.44-16.87,8.8-1.56,2.19-2.32,2.66-2.69,2.67-.72,0-2-1.55-2.93-2.72-5.26-6.75-11.87-10.52-19.64-11.22a38,38,0,0,0-23.53,5.27c-6.36,3.84-8.54,10-9.94,16l-.24,1.05,1,.43c1.5.64,3,1.2,4.38,1.7a32.14,32.14,0,0,1,7.91,3.72c5.46,4,11.72,8.85,16.73,14.57,9.61,11,14.21,23.74,13.7,37.94-.48,13.07-3.57,24-9.44,33.49-1.91,3.07-1,5,1,7.05,10.64,10.64,13.46,23.77,8.64,40.15-2.9,9.85-11.29,13.87-19.09,16.5a5.2,5.2,0,0,1-1.26-.46,3.34,3.34,0,0,1,.7-1.18,34,34,0,0,1,4.11-1.94c.88-.36,1.76-.73,2.63-1.14a19.81,19.81,0,0,0,9.7-9.31c6.14-12.41,4.66-31.83-8.42-42.86-2.49-2.1-2.37-3.38-.78-5.93a68.09,68.09,0,0,0,10.25-35.35c.23-13.06-4.2-25.09-13.18-35.74-6.47-7.68-15.62-16.75-29.08-18.7a92.33,92.33,0,0,0-12.73-.64h-.58l-2.59,0A70.19,70.19,0,0,0,1165,51.09c-1.35.58-3.62,1.55-4.11,1.29s-1-2.68-1.24-3.85c-3.22-15.58-13.32-26.95-30-33.79-9.07-3.71-21.14-8-34.34-8h-.58c-6.72.08-13.56,0-20.24-.06l-1.25,0h-.75c-17.53,0-30.59,5.3-39.92,16.2-5.16,6-11.11,8.48-19.89,8.21a23.49,23.49,0,0,0-18.09,7.46c-6.07,6.35-11.76,12.73-14.62,20.87-1.72,4.93-3.14,10-4.52,15-.89,3.22-1.82,6.55-2.82,9.79a1.35,1.35,0,1,1-2.4-.2c-.4-3.29-.73-6.73-1-9.81-.42-4.37-.85-8.88-1.51-13.31a25.29,25.29,0,0,0-11.4-17.82c-6.88-4.62-16.22-9.34-27.43-4.71-1.18.48-1.43.22-2.46-1.66l-.35-.64c-1.51-2.64-3.18-5.34-5.57-6.86-7.47-4.76-16.18-5-25.89-.8-2.44,1.06-3.14.69-4.63-1.32-2.59-3.48-5.27-7.09-8.73-9.75-7.14-5.47-15.58-5.42-23.75-5.38h-1.07c-11.9,0-20.68,5.69-27.64,17.79a9.26,9.26,0,0,1-4,3.52c-8.63,4-19.46,9.88-26.55,20.07a183.43,183.43,0,0,0-9.73,16.21c-1.34,2.41-2.72,4.89-4.13,7.32-.19.32-.36.67-.52,1a4.64,4.64,0,0,1-1,1.53,2.54,2.54,0,0,1-1.54.2,3.92,3.92,0,0,1,0-1.33,12.22,12.22,0,0,1,1.11-2.33c.25-.43.49-.86.71-1.3,7-14,15.78-29.79,32.08-38.88a8.29,8.29,0,0,0,2.9-3.45c2.79-5.3,2.2-11-1.7-16.53C809,5.12,800.2.84,789.73,2.69A34.66,34.66,0,0,0,776.44,8a18.17,18.17,0,0,1-10.9,3.33c-7.51,0-13.42,3.81-17.09,11a13.16,13.16,0,0,0-.78,10.29,13.4,13.4,0,0,0,7.07,7.8,4,4,0,0,1,1.13,1.47,3.43,3.43,0,0,1-1.48.36c-5.95-1.32-11,.26-15.47,4.83a8.93,8.93,0,0,1-4.81,2.14c-1.87.31-3.82.44-5.75.57a56,56,0,0,0-6.38.68c-12.82,2.34-21.51,8.12-26.56,17.66l-.09.18c-4.42,8.35-4.42,8.35-13.94,7.51l-.51,0c-10.14-.89-23.4-1.13-36.13,5-12.06,5.79-17.54,14.4-16.76,26.32a154.46,154.46,0,0,0,2.08,15.38c.18,1,.6,3.47,0,4.13s-2.58.62-4.11.59c-2.28,0-4.57-.11-6.85-.18h-.2c-6.06-.18-12.34-.37-18.51-.07a65.83,65.83,0,0,0-17.14,3.1c-8.52,2.8-13.16,10.8-11.56,19.9.68,3.84,1.44,8.2,3.51,11.69,2.57,4.33,1.9,8.7,1.18,13.32-.19,1.28-.5,2.58-.79,3.83l-.22,1c-2.33,10.2-4.8,19.25-11.51,26.71A31,31,0,0,0,556,231.34c1.79,16.1,9.13,24.79,22.43,26.56,7.8,1,15.86.54,23.65.06l.41,0c1.92-.11,3.85-.23,5.76-.32a17.94,17.94,0,0,0,6.42-2c.69-.31,1.37-.62,2.05-.9,4.67-1.87,7.47-5.61,10.18-9.24L628,244c.39-.52,1.12-1.5,1.5-1.53a.92.92,0,0,1,.41.23,7.9,7.9,0,0,1-.91,3.12,24.76,24.76,0,0,1-3.89,5.15,5.79,5.79,0,0,0-.61,7.4c2.61,4.61,7.66,5.88,12.57,3.17a5.63,5.63,0,0,1,2.15-.45,5,5,0,0,1-.75,2.23,19.29,19.29,0,0,0-4.89,16.52,18.87,18.87,0,0,0,9.89,13.62,27.64,27.64,0,0,0,3.17,1.35,19.46,19.46,0,0,1,3.33,1.46,3.94,3.94,0,0,1,1,1.48,6,6,0,0,1-2.07.68,5.14,5.14,0,0,1-1.87-.61,12.1,12.1,0,0,0-1.42-.6,24.32,24.32,0,0,0-22.34,4.14c-5,4-7.58,9.64-7,15.44a27,27,0,0,1,0,3.92c0,.85-.09,1.82-.08,2.75a2.23,2.23,0,0,1-.39,1.61c-.18.17-.64.35-1.76.25-1.89-.19-3.81-.28-5.74-.38-1.51-.07-3.07-.15-4.64-.28-7.53-.63-13.68,2.56-17.76,9.26-2,3.25-3.66,6.71-5.29,10.07-.92,1.91-2,4.07-3.06,6.14a5,5,0,0,1-1.33,1.28,5.38,5.38,0,0,1-1.17-1.53,5.75,5.75,0,0,1-.18-2c0-.39,0-.77,0-1.15-.65-13.64-11-23.67-24.54-23.86-1.95,0-2.45-.3-2.57-.46s-.29-.62.16-2.51c1.06-4.53-.24-8.11-4.22-11.62-5.92-5.23-12.45-4.09-18.11-2.62-2.7.7-3.35.34-4.08-2.27-2.31-8.33-6.59-14.37-13.08-18.46A72.25,72.25,0,0,0,481.94,275c-15.52-2.74-28.38,3-36.21,16.27-1.19,2-2,2.24-4.14,1.09a86.39,86.39,0,0,0-10.81-5.16c-13.61-5.22-27.17-.33-33.73,12.17-1.35,2.58-2.54,3.07-5.43,3.24-12.59.73-21.11,7.26-23.37,17.93a197.43,197.43,0,0,0-2.82,19.74c-.28,2.54-.56,5.08-.87,7.62-.05.42-.07.88-.08,1.34-.07,2.1-.26,2.17-1.16,2.18s-1.07-.1-1.27-2.07a12.37,12.37,0,0,0-.22-1.57c-.52-2.16-1-4.38-1.45-6.55a114,114,0,0,0-4.12-15.77,24.18,24.18,0,0,0-16.07-14.66,25.49,25.49,0,0,0-22.37,3.41c-1.69,1.23-2.71,1.25-4.2.07a19,19,0,0,0-24.92,1.23c-3.89,3.87-7.68,8-11.27,12.18-2.23,2.63-3.93,2.94-6.73,1.25-4.77-2.9-9.72-2.53-15.14,1.1-7.93,5.34-10.5,13.5-11.86,20-.87,4.18-.87,4.18-5.43,3.63-13.67-1.66-22.59,2.18-28.06,12.07l-.26.47a28.6,28.6,0,0,1-3.45,5.3,5.71,5.71,0,0,1-3.38,1.88c-2.41.09-4.89,0-7.3-.08h-.23c-2.57-.09-5.23-.18-7.86-.07-12.3.54-27,7.31-30.26,20.9-1.28,5.37-1,11-.46,17.38.29,3.64-.48,6-2.75,8.3a76.94,76.94,0,0,0-8.36,10.52,17.27,17.27,0,0,0-1.64,15.58,14.15,14.15,0,0,0,9.81,9,4.48,4.48,0,0,1,2.47,1.67c.81,4.72,3.82,7.68,6.73,10.55l1,.94c6,6,12.7,11.64,21.41,12.61,12.5,1.4,26.68,3,37.54-8.83a7,7,0,0,1,1.39,0,3.52,3.52,0,0,1-.26,1.31c-3.64,3.94-8.66,8.54-15.17,9.16a189.7,189.7,0,0,1-23.36.29l-1.49,0c-2.12-.06-4.48-1.22-6.56-2.24-8.81-4.33-15.53-9.91-20-16.59-2.89-4.34-5.79-7.74-10.54-10.2-2.28-1.18-4.34-1.75-7-.67-11.52,4.76-19.23,12.28-22.89,22.37-2.89,7.92-5.37,17.07,1.7,25.39.08.1.22.26.32.41a13.47,13.47,0,0,1-.42,1.66l-.83-.15c-.46-.8-1-1.6-1.44-2.41-1.55-2.54-3.15-5.16-3.56-7.79a31.43,31.43,0,0,1,4.06-21.25c1.82-3.05,3.79-5.93,5.9-9q1.38-2,2.75-4.06l.45-.69-.42-.7c-2.43-4-7.51-7.18-13.59-8.51-6.4-1.4-12.73-.52-17,2.33-2.18,1.48-3.52,2.93-4.1,4.45A59.7,59.7,0,0,0,87.6,467.4c-.69,4.78-.69,4.78-4.95,5-14.85.76-24.13,9.07-25.47,22.78a2.4,2.4,0,0,1-.64,1.68,3.41,3.41,0,0,1-2.41.22c-7.83-1.13-13.84.24-18.37,4.17a82,82,0,0,0-8.09,8.51c-1.17,1.36-2.38,2.76-3.61,4.1-.25.26-.49.54-.75.83a11.06,11.06,0,0,1-2.43,2.3c-1.47.88-3.05,1.67-4.6,2.45-1.71.86-3.47,1.74-5.15,2.77C.24,528.9.46,541.4,5.27,550.18a11.3,11.3,0,0,0,6.55,5c8.47,2.08,16.1,0,22.07-5.88l.37-.37c5.55-5.51,5.55-5.51,11.9-.94,13,9.34,27.47,5.68,36.69-.85,5.14-3.64,5.14-3.64,9.88.57l.54.49c7.41,6.53,17.82,9.53,28.56,8.25a36.61,36.61,0,0,0,25.79-15c1.61-2.3,2.64-2.58,4.8-1.29,4.66,2.79,10,3.57,16.4,2.39l.7-.13.26-.66a4.19,4.19,0,0,0,.13-3.63c-.72-1.32-2.24-1.72-3.62-2-8.23-1.64-17.54-4.34-24.2-11.92a4.56,4.56,0,0,1-.75-1.8,4.18,4.18,0,0,1,1.91.42c5.68,6,13.18,9.61,23.61,11.37s23.44,2.2,32.66-9.9a4.31,4.31,0,0,1,1.22-.32,4.47,4.47,0,0,1,0,1.53c-3.43,5.25-7.23,8.19-11.94,9.24-3.43.77-6.94,1.48-10.65,2.23l-.13,0-5.48,1.12-1.45.29.5,1.4c.38,1.07.75,2.14,1.12,3.21l.08.23c.84,2.47,1.71,5,2.74,7.45,3.13,7.48,11.64,13,22.2,14.47,10,1.38,19.22-1.51,24-7.53,2-2.53,3.91-2.94,7.31-1.6,8.81,3.47,21.41,2.66,26.41-4.73,3.88-5.71,8.5-7.87,16-7.46,8.35.49,16.6-8.43,17.23-15.85l.1-1.15-1.14-.22-.81-.16a19.48,19.48,0,0,0-2-.35,54.79,54.79,0,0,1-21.25-6.65c-7.77-4.5-15.81-9.16-22.09-16.2a9.3,9.3,0,0,0-1.38-1.19c-.39-.3-1.14-.86-1.17-1.12a1.31,1.31,0,0,1,.38-.65c.5-.59.67-.79,2.44.67.36.3.71.58,1.06.82a10.6,10.6,0,0,1,1.25,1.06c.37.34.73.68,1.12,1,1.17.91,2.32,1.84,3.48,2.76l.16.13c2.93,2.35,6,4.77,9.08,7a60.51,60.51,0,0,0,31.41,11c9.07.67,19.49.26,28-7.87l.3-.28c3.09-3,6.29-6,9.6-8.84a3.87,3.87,0,0,1,1.58-.59,6.84,6.84,0,0,1-.07,1.89c-.06.26-.34.74-1.3,1.56-4.33,3.69-8.68,7.35-13.24,11.18l-5.52,4.65,8.32,7.16.67-1.65c.32-.78.58-1.51.83-2.19a12.65,12.65,0,0,1,1.41-3.11,4.53,4.53,0,0,1,1.55-1.09,8,8,0,0,1,.22,1.94,4.08,4.08,0,0,1-.52,1.37,11,11,0,0,0-.56,1.28A17.21,17.21,0,0,0,322,544.4a16.4,16.4,0,0,0,11.25,8,39.83,39.83,0,0,0,22.58-2c2.39-.95,3.95-2.1,4.63-3.43.88-1.7,1.95-1.88,4.21-1.88,1.67,0,3.35,0,5,.07a103.32,103.32,0,0,0,13.38-.34c9.1-1,16.54-5.91,22.75-14.89l1.2-1.74-2.1-.27c-8.14-1-14.82-5-21-12.34l-.94-1.12-1,1.09c-4.72,5.16-10.44,5.74-18,1.8-3-1.58-5.68-4.28-8.24-6.9l-.9-.91a4.41,4.41,0,0,1-.18-1.63,5.52,5.52,0,0,1,1.78.76c1.09.85,2.18,1.87,3.16,2.78a35.48,35.48,0,0,0,4.49,3.76c5.91,3.91,12.25,3.39,16.53-1.35.64-.72,2.15-2.4,2.59-2.4s1.77,1.82,2.34,2.58c5.18,7,11.49,10.81,19.29,11.8a46.21,46.21,0,0,0,5.81.47c1.47,0,2.93.06,4.4.1,7,.23,14.29.45,21.09-3.29a4.84,4.84,0,0,1,1.12.22,3.38,3.38,0,0,1-.34,1.35,13.27,13.27,0,0,0-2.71,12.37,12.13,12.13,0,0,0,8.54,8.08c8.35,2.38,16.07,1.7,22.94-2,6.11-3.3,8.7-11.81,5.45-17.85a4,4,0,0,0-3.06-1.71c-5.67-.42-10-3.51-14.67-6.79l-.25-.18-1.6-1.12a5.14,5.14,0,0,1-.33-1.23,3.49,3.49,0,0,1,1.39-.13,25,25,0,0,1,3.52,2.19c.74.51,1.57,1.08,2.41,1.59,7.69,4.65,15.54,5.26,24,1.88l1.59-.64-1.73-2.22c-.44-.56-.78-1-1.14-1.43a7.93,7.93,0,0,0-.7-.73,3.31,3.31,0,0,1-.62-.68,4.6,4.6,0,0,1-.13-1.52,4.45,4.45,0,0,1,1.54.21,3.4,3.4,0,0,1,.84.75,7.37,7.37,0,0,0,.54.57c6.8,6.55,12.84,6.69,20.2.43a3.52,3.52,0,0,1,1.51-.44,4.13,4.13,0,0,1-.2,1.6,15.52,15.52,0,0,1-15.35,5l-.57-.12a5.85,5.85,0,0,0-3.25-.1c-2.57.94-5.13,2-7.88,3.19-1.06.46-2.16.93-3.32,1.41l-1,.43.3,1.1a29.58,29.58,0,0,1,.59,3c.44,2.63.9,5.36,2.61,7.26,6.52,7.25,14.09,11.28,22.48,12,12.57,1.06,23-4.44,31-16.35,1.83-2.73,3-3.19,6.18-2.31,10.86,3,19.86,1,26.76-6.21.36-.37.7-.76,1.05-1.17a10.57,10.57,0,0,1,1.75-1.78,4.2,4.2,0,0,1,1.79-.76,4.12,4.12,0,0,1,.56,1.84,14.76,14.76,0,0,1-.13,2.61c-.08.73-.16,1.49-.17,2.28,0,6.66,4,11.64,10.32,12.7,6.71,1.13,15.47,1.93,23.66-1.9a16.83,16.83,0,0,0,5-4.22l.1-.12c1.16-1.29,2.27-2.64,3.38-4,1.43-1.75,2.92-3.55,4.49-5.18a3.67,3.67,0,0,1,1.29-.22,5.47,5.47,0,0,1-.53,1.91,7.76,7.76,0,0,1-1.52,1.62,13.29,13.29,0,0,0-1.58,1.6c-8.36,10.59-10.43,20.89-6.17,30.63a37.47,37.47,0,0,0,19,19.56c14,6.17,29.68,7.71,46.46,4.58,2.42-.45,4.75-.79,5.36-.24s.47,3.65.37,4.94a8.91,8.91,0,0,0,3.66,8.27c6.7,5.27,15.07,6.94,25.61,5.09,3.51-.62,5-.11,6.86,2.34,4.27,5.62,8.66,8.61,13.82,9.42A85.76,85.76,0,0,0,741.94,615c10.35-.14,18.19-4.75,23.32-13.69.3-.54.8-1.19,1.46-1.25a2.44,2.44,0,0,1,1.83,1.06c.49.56,1,1.13,1.46,1.72a53.92,53.92,0,0,0,7.77,8c15,11.64,33.3,18.71,57.52,22.27,13.53,2,27.38,3.09,40.77,4.15,12,1,21.85,1.4,31.13,1.4,22.22,0,41.61-2.63,59.3-8,17.88-5.47,29.39-18.08,39.65-30.53l.76-.93-.88-.83c-.26-.24-.49-.48-.73-.73a7.76,7.76,0,0,0-1.74-1.49c-13.85-8-20.18-21.46-24.55-33.57-4.22-11.71-5.77-25.08-4.74-40.88.27-4.17,1.8-8.42,3.28-12.53.38-1.08.77-2.15,1.13-3.21a4.57,4.57,0,0,1,1.34-.84,5.93,5.93,0,0,1,0,2.13,40.64,40.64,0,0,1-1.44,4.14,26.58,26.58,0,0,0-2,6.95c-2.14,22.58,1.43,41.65,10.93,58.3,6.92,12.14,15.65,19.83,26.71,23.49,11.48,3.81,24,4.73,38.14,2.81,9.63-1.3,16.54-4.53,21.73-10.17a23.42,23.42,0,0,1,3.45-2.84c.68-.49,1.36-1,2-1.5,1.53-1.22,2.67-1.17,4.5.23a26.87,26.87,0,0,0,8.42,4.73c11.93,3.47,22.51,4.74,32.35,3.89,12.24-1.05,21.85-8.93,24.48-20.05l.18-.75c.91-3.83,1.85-7.8,3-11.65.08-.27.55-.66,1-1a3.5,3.5,0,0,1,.71,1.15,21.57,21.57,0,0,1-1,6c-1,3.4-2.07,6.72-3.21,10.23l-.17.51c-.43,1.32-.86,2.66-1.29,4l-.31,1,1.37.82,1.46.88c9.79,6,20.91,10.81,36.07,15.61,3.89,1.24,7.78,2.5,11.71,3.77,12.41,4,25.23,8.17,38.09,11.39,15.13,3.79,30.47,4.33,48.85,4,22.16-.43,38.75-6.37,52.21-18.68,14.66-13.4,23.33-28.61,26.52-46.5a183.35,183.35,0,0,0,2.08-20.76c.19-3.17.39-6.45.67-9.65,2.59-29.71-4.31-54.2-21.09-74.89-4.62-5.7-9.4-11.59-15.41-15.85-12.74-9-28.19-14.7-45.92-16.81a4.38,4.38,0,0,1-1.71-1.18,3.86,3.86,0,0,1,1.73-.63c13,1,26.3,5.24,41.91,13.39,7.18,3.75,12.59,10,17.82,16l.35.4c13.73,15.76,21.75,33.74,23.83,53.45,1.88,17.78,1,36.61-2.67,59.27-.42,2.59.38,4.26,2.58,5.39,1.26.65,2.53,1.35,3.76,2l.18.1a58.21,58.21,0,0,0,9.34,4.5l3.11,1.08.43.15c7.27,2.54,14.79,5.16,22.46,6.14,12.75,1.63,25.92-.52,39.13-6.4,12.15-5.41,18.84-15,20.44-29.2.82-7.31-.28-14.85-1.34-22.14l0-.32c-1.5-10.31-2.49-10.45-11.94-11.82l-.43-.06a11.35,11.35,0,0,0-1.67-.06c-.66,0-1.77,0-2-.24,0,0-.15-.19-.07-.82.11-.87.26-1.13,2.77-.87a13.75,13.75,0,0,0,1.58.12h.12a3.71,3.71,0,0,1,.6.12,6,6,0,0,0,1,.19c1.86.18,3.77.41,5.61.64l.25,0a91.81,91.81,0,0,0,13.5,1c8.56-.19,17.24-.84,25.7-1.47l.43,0,7.86-.57a27.43,27.43,0,0,0,3.13-.45,20.7,20.7,0,0,1,3.17-.43,2.68,2.68,0,0,1,1,.56,3.52,3.52,0,0,1-1,1.25,4.15,4.15,0,0,1-1.5.27l-4.57.37c-10.83.85-22,1.73-33,2.52-1.91.14-3.92.1-5.7.06l-2.69,0h-1.44l.76,6.59c.5,4.38,1,8.69,1.52,13,.09.76.14,1.54.2,2.37a18.25,18.25,0,0,0,1.18,6.36c3.79,8.48,11.11,13.88,21.76,16.05,6.13,1.25,12.42,2.08,18.59,2.9,3.71.49,7.9,1,11.93,1.69a250.74,250.74,0,0,0,50.67,3,67.08,67.08,0,0,0,9-1.18l1.76-.31c9.27-1.58,17.15-6.26,24.77-10.78,2.06-1.22,4.18-2.47,6.34-3.68,6.83-3.79,11.26-9.87,15.53-15.76,1.53-2.1,3.12-4.28,4.79-6.31,1.32-1.61,2.47-3.34,3.59-5,1-1.48,2-3,3.11-4.4a5.24,5.24,0,0,1,1.29-.13h0a3.17,3.17,0,0,1,0,1.35,13.42,13.42,0,0,1-1.62,2.62c-.3.42-.61.85-.9,1.28l-.9,1.36,1.52.57a76.84,76.84,0,0,0,35.23,3.89c12.75-1.48,20.9-8.33,24.92-20.94.59-1.85,1-3.73,1.37-5.55.26-1.22.56-2.61.9-3.9.16-.6.54-1.63,1.26-1.91a2.8,2.8,0,0,1,2.19.61c.58.39,1.16.8,1.76,1.22,1.27.89,2.58,1.81,4,2.61s2.51,1.45,3.78,2.19c8.34,4.9,17,10,27.15,10.1,9,.13,18.18-.87,27-1.84l5.56-.6c2.46-.26,4.87-1.93,6.91-3.54,8.25-6.54,13.06-15.79,14.28-27.49C1798.41,475.66,1798.09,471.41,1796.23,468.5ZM1154.07,270.89h0a93,93,0,0,1,10.66-7l.57-.33a5.19,5.19,0,0,0,2.94-5.45c-.69-9.35-4.36-17.63-7.91-25.64-2.61-5.86-8.11-8.38-13.68-10.22a99.59,99.59,0,0,0-40.16-4.45c-6.89.59-13,3.46-18.56,8.79-6.21,5.9-13.93,13.24-18.53,22.75a5.76,5.76,0,0,1-2,1.74l-.16.1-.12-.22a8.65,8.65,0,0,1-1.18-2.85c-1.53-12.43-3.52-25.57-9.38-37.45-7-14.29-19.71-23.28-38.72-27.48-20.36-4.5-41-2-61.28,7.35-10.72,4.95-18,13.14-25.56,23.93-15.15,21.52-15.74,44.37-1.8,69.85.48.9.95,1.81,1.42,2.73,2.33,4.55,4.73,9.26,9.86,12a7.73,7.73,0,0,1,.19,1.07h0c-.61.19-.9.26-1,.29-.48-.36-1-.71-1.54-1.12-2.18-1.56-4.42-3.17-5.66-5.19-6.26-10.23-12.32-21.47-14.3-34.37-2-13.28-.6-24.59,4.41-34.56,7.16-14.27,14.43-23.66,23.58-30.45a68.37,68.37,0,0,1,14.39-8c23.3-9.7,46.42-10.45,68.72-2.22,18.14,6.7,29.48,19.42,33.69,37.81,1,4.56,2.07,9.11,3.13,13.82l2.28,10.09,1.67-2.4a90.69,90.69,0,0,1,22.7-23.25,21.76,21.76,0,0,1,8.54-3.81c18.46-2.93,35.7-.93,51.24,5.93a20,20,0,0,1,11.34,12.7c1.71,5.32,3.41,10.65,5.16,16.1l2.33,7.28-.13.31.5.59c.32.39.87.69,2.72.28,13.43-3,28.12-3.72,44.92-2.3,16.1,1.36,34.77,3.29,52.65,9,6.93,2.2,12.52,4.34,16.1,10.12a18.7,18.7,0,0,0,5.16,4.9l.41.3c4.79,3.53,7,8.64,9.26,14,.58,1.36,1.18,2.77,1.8,4.07a5.26,5.26,0,0,1-.38,1.17,4.32,4.32,0,0,1-1.52-.94,14.61,14.61,0,0,1-1.88-3.84l-.12-.31c-2.46-6.47-6-11.32-10.87-14.83l-.2-.15a7.45,7.45,0,0,1-2.06-1.88c-4.31-7.37-11.55-9.43-18.56-11.42l-1.78-.51c-18.79-5.44-39.14-8-66-8.36h-1.14a111.21,111.21,0,0,0-24,2.81c-11.64,2.59-20.44,8.2-26.17,16.68a22.16,22.16,0,0,0-2.64,6.7,35.07,35.07,0,0,1-1.2,3.8,6.52,6.52,0,0,1-1.25,1.76,3.47,3.47,0,0,1-.65-1.53C1144.46,282.06,1147.75,275.91,1154.07,270.89ZM783.85,394.42c-8.56,10.75-12.92,22.41-13.34,35.65s.49,26.95,9.93,38.45a150.21,150.21,0,0,0,14.39,14.59c1.58,1.46,3.16,2.92,4.71,4.4a5.32,5.32,0,0,0,2.89,1.13,7.4,7.4,0,0,1,1.42.34l.72.3a20.85,20.85,0,0,1,2.22,1,.69.69,0,0,1-.11.47c-.27.3-1.46.29-2.14.29h-3.19c-12.49,0-25.39,0-38.09,0H763a74.54,74.54,0,0,0-26.86,4.6A27.56,27.56,0,0,0,721.56,508a4.07,4.07,0,0,1-1.48,1.11,4.31,4.31,0,0,1,0-2.11c3.77-7.76,10.75-12.76,20.73-14.86a153.86,153.86,0,0,1,23.88-2.93c3.25-.17,6.78-.25,11.1-.25,2.74,0,5.47,0,8.16.06h.56c2.78,0,5.55.06,8.33.06h.75l1.56-2.78-.74-.69c-1.23-1.15-2.49-2.28-3.78-3.44a101.2,101.2,0,0,1-7.83-7.53c-9.93-11-14.54-22.59-14.11-35.43.06-1.81.07-3.68.08-5.48v-.1c0-5.33.07-10.84,1.35-15.85,4.23-16.56,13.3-29.37,27-38.07,4.73-3,9.8-5.74,14.76-8.4,2-1.09,4.05-2.18,6.07-3.3l.13-.07a4.7,4.7,0,0,1,1.84-.71,11.39,11.39,0,0,1,2.27.42,3.88,3.88,0,0,1-1.23,1.28C804.12,375.63,792.36,383.75,783.85,394.42ZM420.74,458.57c-4.94,7-5.57,14.81-1.87,23.28,2.85,6.53,8.58,10.38,17.51,11.77,6.59,1,13.5,1.31,19.51-3.48a6.64,6.64,0,0,1,3.36.73,13.26,13.26,0,0,1,2.26,1.4,10.9,10.9,0,0,0,3.68,2c13.48,3.26,24.41-.42,30.76-10.36a14.21,14.21,0,0,0,1.36-3.14,14.08,14.08,0,0,1,1-2.45,3.68,3.68,0,0,1,1.26-.89,3.42,3.42,0,0,1,.5,1.05A18.17,18.17,0,0,1,494,489.68c-6.12,5.69-12.95,8.19-20.39,7.44h-.14a22.56,22.56,0,0,1-14.77-3.62,4.55,4.55,0,0,0-4.07-.22c-8.58,4.25-17.56,4-27.45-.7-16-7.63-12.75-24.4-10.61-31.26a9.7,9.7,0,0,1,3-4,3.6,3.6,0,0,1,1.34-.17A3.73,3.73,0,0,1,420.74,458.57Zm79.13,18.34h0Zm-68.42-58c-.17.27-.33.55-.49.84a6.05,6.05,0,0,1-1.24,1.75,3.85,3.85,0,0,1-1.42.48c-.08-.24-.3-.85-.33-1,5.28-8.8,10.44-16.31,19.89-19.23,12.16-3.75,25.47-3.66,40.68.26a33.87,33.87,0,0,1,11.54,5.22,54.11,54.11,0,0,1,7.59,7.44c1.12,1.26,2.29,2.55,3.52,3.84l.95,1,.93-1c3.4-3.71,8.62-5.58,16-5.7,6.84-.17,13.27,4.45,15.06,10.7a3.19,3.19,0,0,1-.3,1.36,3.92,3.92,0,0,1-1.39-.73c-3.32-5.5-8.18-8.84-13.67-9.42a16,16,0,0,0-1.69-.09c-4.93,0-9.83,2.32-13.79,6.54-2.31,2.45-3,2.54-3.17,2.51s-.76-.43-1.79-3.22c-2.64-7.15-7.78-12-16.17-15.2-10.7-4.11-22.35-5.1-37.76-3.21C445.15,403.19,437.87,408.56,431.45,419Zm79.07,104a.92.92,0,0,1,0-.59,7.45,7.45,0,0,1,2.3-.34,6.56,6.56,0,0,1,.82,0c7.39,1.22,16.58,2.72,25.36-.86a16.06,16.06,0,0,0,2.46-1.33,13.32,13.32,0,0,1,2.21-1.19,7.15,7.15,0,0,1,2-.34,6.85,6.85,0,0,1-.42,1.54,130,130,0,0,1-14,5.28,8.72,8.72,0,0,1-3.15.11c-.56,0-1.2-.09-1.81-.09h-1.13l0,.33-2.05-.26-.55-.07c-3.12-.39-6.35-.8-9.51-1.35C512.27,523.71,510.82,523.45,510.52,522.94Zm22.31-43.37c-3.27,6-3.38,13.81-.26,19.37l.12.19a9.37,9.37,0,0,0,.89,1.51c.35.52.87,1.31.81,1.62,0,0-.07.21-.51.49a1.3,1.3,0,0,1-.91.3c-.47-.12-1-1.15-1.4-1.9-.18-.35-.36-.68-.54-1-3.54-5.87-3.64-14.32-.23-21a18.65,18.65,0,0,1,15.45-10.52c2.21-.2,4.44-.33,7-.49l.51,0,3.89-.24c.63,0,1.38.09,2.22.13a63.65,63.65,0,0,1,7.48.72c8.3,1.47,13.37,6.94,14.26,15.39a3.86,3.86,0,0,1-.61,1.66c-.51-.42-1.06-.89-1.15-1.23-2.85-10.63-6.33-13.58-16.94-14.36a108.15,108.15,0,0,0-14.86.3l-1.06.07A16.83,16.83,0,0,0,532.83,479.57Zm-189.42,11h.5l-.5,0a24.11,24.11,0,0,1-.08,3.82,4.77,4.77,0,0,0,.12,1.59,3.11,3.11,0,0,1,.09.64,7.35,7.35,0,0,1-.82,1.56c-.36-.28-1-.77-1-1a68.63,68.63,0,0,1-.87-10.16c-.1-5.21-2.92-10.48-7.54-14.11a19.66,19.66,0,0,0-12-4.34,15.81,15.81,0,0,0-3.46.38,5.8,5.8,0,0,1-2.26-.21c.1-.29.26-.75.39-1l1-.14c2.95-.43,6-.87,8.69-.3,7,1.47,12.37,5.7,16.09,12.57l1,1.85,1.19-1.74a34.6,34.6,0,0,1,15.16-12.72,43.36,43.36,0,0,1,10.32-2.48,5.93,5.93,0,0,1,1.09.79c-.35.36-.95,1-1.17,1-9.23.83-16.75,5.43-23.68,14.46C343.23,484.22,343.32,487.47,343.41,490.6ZM276,409.32c-.38,1.69-.91,3.41-1.44,5.11a54.27,54.27,0,0,0-1.76,6.69c-2,11.68,1.9,19.74,12.68,26.15a37,37,0,0,0,7.45,3.05c1.44.48,2.94,1,4.33,1.55a3.75,3.75,0,0,1,1.51,1.26c-.13.12-.34.31-.71.6l-.08.06c-7.42-.07-14.79-3.69-20.24-10s-8.16-14.54-7.06-21.92a76.81,76.81,0,0,1,3.61-13l.18-.51a4,4,0,0,1,1.25-.86A4.18,4.18,0,0,1,276,409.32Z"/><path d="M1327.86,614.85c18.42-12.26,30.05-26.9,35.54-44.76a10.52,10.52,0,0,1,.72-1.65c.09-.16.15-.27.19-.36l.46-1,1,.45c2.41,1.06,4.79,2.16,7.15,3.24,5.21,2.4,10.11,4.65,15.24,6.61,22.49,8.59,44.59,6.89,65.69-5.08a28.11,28.11,0,0,0,9.09-9.1,69.34,69.34,0,0,0,5.21-10.37l0-.09c.66-1.51,1.34-3.08,2-4.59l.62-1.29,1.1.92c9.21,7.67,14.88,10.5,24.29,12.11,6.78,1.17,12.79,2,18.39,2.56,4.65.46,9.36,1,13.91,1.56l.16,0c12.73,1.51,25.89,3.07,39,2.58,15.32-.57,26.47-3.43,36.15-9.28,2-1.21,4.16-2.39,6-3.42,6.15-3.37,12.51-6.85,17-12.65,1.22-1.58,2.46-3.15,3.69-4.71,2.13-2.68,4.33-5.45,6.38-8.3,1.48-2,3-2.56,5.34-1.83,11.49,3.54,22,4.77,32.08,3.73,9.77-1,20.53-3.57,26.27-15.1a108.53,108.53,0,0,0,4.18-10.09c.61-1.63,1.23-3.29,1.9-5l.47-1.19,2.11,1.2,2.38,1.35,3.2,1.88c9.09,5.33,18.48,10.85,29.23,11.1,10.31.25,20.83-1,31-2.2l1.64-.2c3.42-.4,6.86-2.83,8.61-4.25,9-7.27,14-17.15,14.85-29.35.25-3.36-.26-8.09-2.4-11.28-7.37-11-21-14.23-31.84-7.61-1.09.68-1.86.85-2.37.54l-.58-.35,0-.59c-.74-2.42-1.43-4.94-2-7.17a119.65,119.65,0,0,0-5.07-15.7c-6.13-14.26-15.5-25.15-27.85-32.34s-26.7-10.17-45.14-9.34c-15.15.67-25.69,2.91-34.18,7.26l-.59.3-.55-.37q-2.45-1.71-4.66-3.35l-.08-.06a74.2,74.2,0,0,0-9.37-6.16,72.33,72.33,0,0,0-10.46-4.07c-1.42-.46-3-1-4.52-1.54l-.83-.3.11-.88c.2-1.67.44-3.34.7-5.11a102,102,0,0,0,1.27-11.74c.57-18.9-9.07-31.26-27.88-35.75a53.35,53.35,0,0,0-34.79,2.84,3.1,3.1,0,0,1-1.3.22l-.62,0-1.37.12.17-1.36c1.94-15.74-2-26.95-12-34.26-12.32-9-25.26-4.69-36.29.69l-1.44.71-.16-1.6c-.1-1-.18-2-.27-2.92-.17-1.95-.34-3.77-.57-5.57-2.91-22.23-10.82-35.83-25.64-44.09-6.6-3.68-14.45-7.69-22.69-9.56-9.48-2.15-19.93-1.94-32,.66-.65.14-1.32.24-2.16.37h-.09l-1.48.23-2.26.36,3.31-6c5.9-10.61,10.2-19.73,12-29.79,3.84-21.52,1.1-38-8.63-51.77-13.77-19.56-34.14-29.52-60.55-29.62q-2,0-3.93,0h-3.64l.61-1.52c6.47-16.27,5.23-30.11-3.81-42.34-7.73-10.45-19.06-22-38.27-18.26l-2,.39.76-1.89.8-2,.2-.49c.59-1.46,1-2.55,1.44-3.68,3.15-8.72.54-20.9-5.58-26s-27.31-7.19-34.19-3.15a35.67,35.67,0,0,0-5.43,4.24l-.55.5a9.34,9.34,0,0,0-1.47,1.85c-.29.43-.55.8-.83,1.17l-.82,1.11-.91-1.05c-10.52-12.1-23.53-15.4-39.77-10.09-9,3-14.78,9.08-17,18.18-.89,3.55-2.81,4.26-5.63,4.26l-2.81,0c-9.42-.11-19.13-.22-28.3,2.73l-8.37,2.69-.44-.82c-1.09-2.07-2.1-4.16-3.08-6.18l-.06-.11a76.47,76.47,0,0,0-6.92-12.37C1141.67,14.06,1123.82,9,1107.87,6.14c-8-1.45-16.5-1.47-24.69-1.49-3.14,0-6.34,0-9.48-.09-17.94-.48-32.42,5.28-43,17.07-4.69,5.23-10,7.41-17.74,7.3h-.46a26,26,0,0,0-18.91,7.64c-8.32,8.38-13.62,16.1-16.67,24.27-.63,1.68-1.19,3.43-1.79,5.28l-.12.37c-.28.88-.58,1.82-.92,2.83L972.86,73l-.9-3.82c-.26-1.08-.53-2.07-.78-3l0-.14A30.71,30.71,0,0,1,970,60.59c-.6-6.78-5.31-14-12.6-19.42-7.55-5.57-16.22-8-23.2-6.49-1.07.23-2.17.41-3.14.57l-2.23.37-.34-.8c-3.68-8.58-16.05-15.07-34.53-9.07l-.64.2-.48-.46c-1.23-1.2-2.44-2.48-3.41-3.5a47.9,47.9,0,0,0-7.17-6.61c-11.08-7.71-24-6.47-35.14-4.25-9.52,1.89-15.24,9.4-19.59,16.49a25.57,25.57,0,0,1-1.8,2.45l-.06.07c-.37.46-.79,1-1.26,1.6L822.71,34l-.3-2.77c-.15-1.36-.24-2.58-.33-3.71a34.62,34.62,0,0,0-.7-5.5c-2-8.14-8.36-15.56-16.65-19.36a26.8,26.8,0,0,0-23.8.36l-.25.13c-6.42,3.27-12.47,6.36-20.12,6.8-3.76.22-8.27,3-11.49,7.06s-4.66,8.82-3.9,13.18c.33,1.9.81,3.81,1.24,5.5.19.75.37,1.47.52,2.13l.15.62-.47.44A33.64,33.64,0,0,1,722,48.24a1.13,1.13,0,0,0-.39,0h-.08c-13.69,2.75-22.58,8.71-28,18.76l-.13.23c-3.66,6.83-4.1,7.07-11.84,6.39l-.47,0c-10.87-1-25-1.18-37.9,5.56-7.24,3.79-14.19,8.46-16,17-1.11,5.41-1.06,11.28-1,16.46a40.78,40.78,0,0,0,1,7.27c.21,1.09.44,2.29.63,3.48l.2,1.28h-1.3c-2.44,0-4.87,0-7.27,0h-.63c-5.93,0-12-.09-18.15.13A68,68,0,0,0,586,126.68C575,129.53,568.27,138.11,569.37,148a47.18,47.18,0,0,0,3.72,14.12,19.22,19.22,0,0,1,1.25,12.08c-.2,1.13-.45,2.26-.69,3.36l-.35,1.59c-1.95,9.17-4.74,18.8-11.92,27-5.84,6.68-8.4,15.29-7.63,25.58,1.26,16.84,12.79,28.55,28.68,29.12l2.67.11.68,0c11.34.48,23.06,1,33.63-5.25l1.1-.65.49,1.18c2.28,5.46,5.8,8.42,10.78,9l1.17.15-.22,1.16c-2.44,13.23-2.44,13.23,4.25,25.43l.74,1.36-1.52.27c-16,2.88-23.27,12.15-22.23,28.32l.1,1.47-1.45-.32c-16-3.54-27,2.38-33.63,18.1l-1,2.39-1-2.38c-5.76-13.35-13.63-19.87-25.5-21.15l-1.06-.12.07-1.06a13.57,13.57,0,0,0-4.61-11.77c-4.77-4.34-10.29-5.73-17.37-4.36-3.24.61-5-.4-6.15-3.61a29.85,29.85,0,0,0-9.26-13.52c-7.89-6.32-17.72-10.41-30.93-12.87-15.38-2.87-29.46,3.12-37.69,16a2.41,2.41,0,0,1-.95.8l-.3.18-.56.38-1.6-.89c-.68-.38-1.38-.78-2.1-1.14-11-5.56-32.47-10.08-42.73,8.3a1.87,1.87,0,0,1-.24.31c-1.34,3.07-4.23,3.47-6.54,3.8-12.09,1.68-19.55,7.47-22.82,17.68-.89,2.79-1.64,5.62-2.44,8.61l-.05.19c-.36,1.34-.72,2.7-1.11,4.1l-.91,3.28-1.2-3.19c-.18-.47-.35-.9-.51-1.3a19.2,19.2,0,0,1-.87-2.42c-1.44-5.58-4.85-10.27-10.73-14.78-8.27-6.34-21.79-7-30.78-1.55a4.55,4.55,0,0,1-4.22.1c-8.19-5.13-19.82-4-26.47,2.52-3.5,3.43-6.86,7.14-10.12,10.73l-.88,1c-1.21,1.33-2.68,2.38-5.27,1.08-5.76-2.9-11.43-2.23-17.34,2-6.22,4.49-10,10.59-11.48,18.64-.6,3.19-2.06,4.3-5.41,4.07-8.54-.58-18.16-.06-24.78,8.25-1.26,1.58-2.43,3.31-3.57,5l-.05.08c-.95,1.4-1.93,2.85-3,4.26a5.2,5.2,0,0,1-3.56,2.09c-2,.06-4.09,0-6.06,0-2.6-.06-5.27-.11-7.87.07-13.29.93-22.87,5.84-29.27,15-5.62,8.06-5.11,17.24-4,24.34.56,3.65-.35,6.3-3.14,9.14-7.51,7.68-13.78,16.44-8.8,28.45l.39.95L128.7,456.4l-.56-.81c-4-5.87-10-8.93-19.26-9.95-6.66-.73-12.37.76-16.54,4.31s-6.47,8.79-6.81,15.31c-.21,4-2,4.94-5.13,5.24-10.52,1-17.72,5.35-22,13.34a45.5,45.5,0,0,0-2.72,6.63c-.36,1-.77,2.19-1.22,3.33l-.26.68-.72,0-.58,0h-.15a12.71,12.71,0,0,1-2.07.07A24.29,24.29,0,0,0,32.33,501a66.41,66.41,0,0,0-6.83,7.57c-1,1.27-2.1,2.58-3.21,3.86l-.37.42a9.66,9.66,0,0,1-2.37,2.22c-1.51.9-3.13,1.76-4.56,2.53l-.09,0c-1.76,1-3.58,1.92-5.29,3-11.06,6.82-11.42,19.87-6.87,29.77A12.41,12.41,0,0,0,13,557.81c7.1.86,12.47-.09,16.93-3a65.06,65.06,0,0,0,6.47-5c1.1-.92,2.18-1.83,3.33-2.75l.71-.57.69.58c14.48,11.9,30,11.73,46.25-.5l.82-.62.68.77a35,35,0,0,0,24.95,12c14.16.84,25.82-4.06,34.68-14.59,1-1.16,3-1.36,4.19-1.21,1.9.25,3.79.57,5.89.92,2.68.46,5.41.92,8.09,1.18l.23,0c1.8.16,3.65.34,4.59,2.85a13.26,13.26,0,0,0,1.12,2.13c.31.51.62,1,.88,1.54,4.09,8.09,10.57,13.05,19.28,14.74a84.7,84.7,0,0,0,13.36,1.18c5.86.22,11.1-2.25,16.55-7.7,1.82-1.82,3.4-2.2,6-1.44,6.86,2,15.75,3.55,23.7-1.54a25.82,25.82,0,0,0,4.87-4.54,42.22,42.22,0,0,1,3.45-3.5,9.59,9.59,0,0,1,5.49-2.38H267c4.73-.09,9.2-.18,13.19-2.85,6.83-4.56,10.34-9.44,11.39-15.83l.15-.94h.94c1.19,0,2.34.07,3.46.13a23.62,23.62,0,0,0,6.58-.24c3.77-.9,5.35,1.43,6.51,3.13a4.84,4.84,0,0,0,2.1,2.13c5.63,1.83,6.87,6.56,8.06,11.14,1.53,5.87,5.22,9.6,10.39,10.52a69.94,69.94,0,0,0,18.48.9c4.78-.44,9.43-2.68,12.48-4.49,2.6-1.53,5.22-2.89,8.86-2.56,17.39,1.57,30-3.88,38.57-16.66a4.37,4.37,0,0,1,3.13-2c4.78-.09,9.51-.08,14.76-.07h5.55l0,1.14c-.21,8.91,2.93,14.53,9.62,17.19,10.4,4.16,24.81.66,32.11-7.79l.7-.8,2.33,1.86c1.12.9,2.14,1.72,3.18,2.51,11,8.3,21.88,10.38,33.3,6.37,6.87-2.42,12.67-7,18.26-14.57,1-1.4,2-2.72,4.79-2.1,10.6,2.45,19.16.84,26.17-4.91a3.12,3.12,0,0,1,1.2-.55l.36-.11,1.28-.48.21,1.35c1.38,9,6.92,14.11,15.59,14.36,4.64.13,9.39-.07,14-.27h.11c2-.09,4.09-.18,6.15-.24l.49-.23,1.07.79-.22,1.5c0,1-.12,1.94-.19,2.91-.35,4.82-.72,9.8,1.69,14.09,6.69,11.94,14.24,19,23.76,22.09,8.37,2.74,17.33,5.37,26.62,4.69,4.53-.34,9.08-.55,13.48-.76l6.19-.31,1.37-.07-.22,1.36c-.85,5.26,1.4,9.21,7.3,12.82,7.26,4.45,15.13,4.74,24.71,3.81a5.13,5.13,0,0,1,5.17,2c4.2,5.25,8.3,8.15,12.91,9.13,7.65,1.62,15.86,2.85,24,.86,7.17-1.74,12.64-6.52,17.48-11.44l.76-.77.79.74c.88.81,1.73,1.64,2.58,2.47l.14.15a65,65,0,0,0,5.85,5.28c15.57,11.78,34.92,19.15,59.15,22.56,14,2,28.17,3.17,41.34,4.17,29.49,2.24,61,2.89,91.52-7.45,11.19-3.79,19.31-8.71,25.56-15.49l2.78-3c3.16-3.4,6.43-6.9,9.42-10.51,2.3-2.79,4.36-2.65,6.95-1.54l.48.2c3.53,1.52,7.16,3.08,10.73,3.36a158.17,158.17,0,0,0,21.64,0c10.6-.6,20.74-1.83,28.3-10.12,4.27-4.68,8-4.12,13.08-1.57,6.27,3.18,14,4.46,20.65,5.29a86.55,86.55,0,0,0,20.78-.06,23.18,23.18,0,0,0,16.29-9.79l.56-.76,2.54,1.29c1,.53,2,1,3,1.51,2.32,1.08,4.64,2.19,7,3.3l.12.06c5.61,2.69,11.41,5.48,17.25,7.88,8.42,3.46,17,6.28,23.57,8.34l5.9,1.87.27.08c9.65,3.08,19.59,6.25,29.52,8.54,18.5,4.27,37.11,4.52,52.89,4.19a89.45,89.45,0,0,0,14.38-1.51C1310.55,622.15,1320,620.1,1327.86,614.85Zm-42,8c-18.37.36-33.69-.18-48.81-4-12.85-3.21-25.67-7.37-38.07-11.39-3.94-1.27-7.82-2.53-11.72-3.76-15.14-4.8-26.25-9.61-36-15.6l-1.27-.76-1.44-.87.26-.84,1.3-4,.16-.5c1.14-3.52,2.22-6.83,3.22-10.24a21.91,21.91,0,0,0,1-6,4,4,0,0,0-.84-1.39h0c-.51.41-1.08.86-1.18,1.21-1.16,3.85-2.1,7.82-3,11.66l-.18.74c-2.62,11.06-12.17,18.88-24.32,19.93-9.81.84-20.37-.42-32.29-3.88a26.79,26.79,0,0,1-8.37-4.71c-1.88-1.44-3.11-1.5-4.71-.22-.64.52-1.33,1-2,1.49a23.18,23.18,0,0,0-3.48,2.86c-5.16,5.61-12,8.82-21.62,10.12-14.16,1.91-26.61,1-38.07-2.81-11-3.65-19.71-11.3-26.61-23.41-9.47-16.62-13-35.65-10.9-58.2a26.21,26.21,0,0,1,2-6.9,39.19,39.19,0,0,0,1.43-4.15,6.55,6.55,0,0,0-.06-2.44c-.57.28-1.55.75-1.65,1-.36,1.06-.74,2.14-1.13,3.21-1.48,4.12-3,8.38-3.29,12.57-1,15.83.53,29.23,4.76,41,4.37,12.14,10.72,25.63,24.63,33.66a8.12,8.12,0,0,1,1.7,1.46c.24.25.47.5.73.74l.76.71-.66.81c-10.24,12.43-21.73,25-39.57,30.47-17.66,5.4-37,8-59.24,8-9.27,0-19.16-.45-31.11-1.4-13.39-1.07-27.24-2.17-40.77-4.16-24.18-3.55-42.43-10.61-57.43-22.22a53.56,53.56,0,0,1-7.74-8L768.68,601a2.51,2.51,0,0,0-2-1.11c-.72.06-1.26.76-1.59,1.33-5.08,8.89-12.88,13.47-23.16,13.61a86.19,86.19,0,0,1-14.82-1.21c-5.11-.8-9.46-3.78-13.72-9.35-1.92-2.53-3.43-3-7-2.41-10.48,1.84-18.82.18-25.47-5.06a8.7,8.7,0,0,1-3.59-8.11c.17-2.18.25-4.48-.43-5.09s-3.22-.23-5.51.2c-16.75,3.13-32.34,1.59-46.36-4.57a37.32,37.32,0,0,1-18.94-19.47c-4.23-9.67-2.17-19.92,6.15-30.45a12.43,12.43,0,0,1,1.57-1.59,7.79,7.79,0,0,0,1.54-1.65,6.31,6.31,0,0,0,.59-2.18,4.24,4.24,0,0,0-1.62.27c-1.58,1.64-3.07,3.45-4.51,5.2-1.1,1.33-2.21,2.68-3.37,4l-.11.12a16.55,16.55,0,0,1-4.89,4.18c-8.15,3.81-16.87,3-23.56,1.89-6.22-1-10.21-6-10.17-12.53,0-.78.09-1.57.16-2.27a15,15,0,0,0,.14-2.64,3.85,3.85,0,0,0-.67-2,4.09,4.09,0,0,0-2,.8,11.25,11.25,0,0,0-1.78,1.8c-.34.41-.68.81-1,1.17-6.86,7.11-15.8,9.18-26.59,6.16-3.2-.89-4.51-.4-6.37,2.39-7.94,11.84-18.3,17.32-30.8,16.26-8.35-.7-15.88-4.71-22.37-11.92-1.68-1.87-2.13-4.57-2.57-7.18a30,30,0,0,0-.59-3l-.26-.94.91-.38,3.32-1.4c2.74-1.17,5.3-2.26,7.87-3.2a5.64,5.64,0,0,1,3.13.1l.6.13a15.68,15.68,0,0,0,15.51-5.07,4.44,4.44,0,0,0,.25-1.89v0a4.15,4.15,0,0,0-1.81.52c-7.37,6.26-13.15,6.14-20-.42-.18-.17-.34-.36-.51-.54a3.51,3.51,0,0,0-.93-.83,4.19,4.19,0,0,0-1.72-.2,3.86,3.86,0,0,0,.08,1.72,3,3,0,0,0,.67.77,9.33,9.33,0,0,1,.69.71c.35.43.7.87,1.13,1.43l1.59,2-1.38.55c-8.41,3.37-16.21,2.76-23.85-1.86-.79-.48-1.56-1-2.4-1.59a26.49,26.49,0,0,0-3.54-2.2,3.81,3.81,0,0,0-1.64.14h0l0,.08a4.9,4.9,0,0,0,.38,1.41l1.63,1.14.25.18c4.65,3.29,9,6.4,14.76,6.82a3.76,3.76,0,0,1,2.91,1.62c3.22,6,.65,14.36-5.38,17.62-6.83,3.68-14.5,4.35-22.8,2a12,12,0,0,1-8.43-8A13.12,13.12,0,0,1,437,524.81a3.78,3.78,0,0,0,.39-1.51v-.08l-.09,0a4.57,4.57,0,0,0-1.27-.24c-6.81,3.74-14,3.51-21,3.29-1.45,0-2.94-.09-4.41-.1a47.85,47.85,0,0,1-5.79-.47c-7.74-1-14-4.82-19.17-11.73-.69-.92-2-2.63-2.47-2.66s-2,1.6-2.73,2.46c-4.22,4.68-10.47,5.19-16.3,1.32a34.39,34.39,0,0,1-4.47-3.73c-1-.92-2.07-1.94-3.17-2.79a6.3,6.3,0,0,0-2.06-.87,4.69,4.69,0,0,0,.22,2l.9.92c2.57,2.62,5.22,5.33,8.29,6.92,7.65,4,13.44,3.4,18.22-1.84l.85-.93.82,1c6.24,7.41,13,11.35,21.15,12.39l1.81.23-1,1.51c-6.17,8.93-13.57,13.78-22.62,14.82a101,101,0,0,1-13.34.33h-.29c-1.59,0-3.18-.06-4.76-.06-2.29,0-3.45.2-4.36,2-.67,1.29-2.19,2.42-4.55,3.35a39.65,39.65,0,0,1-22.48,2,16.24,16.24,0,0,1-11.13-7.91,17.1,17.1,0,0,1-1.31-14.14,10.3,10.3,0,0,1,.56-1.25,4.27,4.27,0,0,0,.53-1.44,8.8,8.8,0,0,0-.26-2.21,5.21,5.21,0,0,0-1.82,1.24,13,13,0,0,0-1.44,3.16c-.24.68-.5,1.4-.82,2.18l-.58,1.43-8-6.87,5.36-4.51c4.73-4,9-7.57,13.24-11.19a3.91,3.91,0,0,0,1.36-1.65,7.53,7.53,0,0,0,.06-2.14,4.45,4.45,0,0,0-1.85.66c-3.31,2.84-6.52,5.9-9.61,8.85l-.3.28c-8.47,8.09-18.85,8.5-27.88,7.83a60.47,60.47,0,0,1-31.32-10.92c-3.11-2.21-6.14-4.63-9.07-7l-.16-.13c-1.16-.93-2.31-1.85-3.48-2.77-.39-.31-.76-.65-1.11-1A11.05,11.05,0,0,0,243,501.7a12.5,12.5,0,0,1-1-.81c-1.72-1.42-2.05-1.39-2.68-.65-.42.49-.43.73-.42.79,0,.33.73.86,1.24,1.24a9.47,9.47,0,0,1,1.35,1.16c6.31,7.08,14.36,11.74,22.14,16.24a54.93,54.93,0,0,0,21.31,6.67c.67.08,1.32.22,1.95.35l.81.16,1,.19-.08,1c-.62,7.32-8.76,16.18-17,15.69-7.53-.43-12.21,1.75-16.13,7.54-4.95,7.31-17.46,8.11-26.21,4.65-3.48-1.37-5.45-.94-7.51,1.66-4.74,6-13.88,8.84-23.83,7.47-10.51-1.44-19-6.95-22.07-14.36-1-2.48-1.94-5.12-2.74-7.45l-.08-.22c-.36-1.07-.73-2.15-1.12-3.22l-.43-1.2,1.26-.26,5.47-1.12.14,0c3.71-.75,7.21-1.46,10.65-2.23,4.76-1.06,8.59-4,12-9.32a3.91,3.91,0,0,0,0-1.74v-.08h0a4.69,4.69,0,0,0-1.47.39c-9.18,12-22.2,11.59-32.51,9.85s-17.86-5.35-23.51-11.31a4.69,4.69,0,0,0-2.27-.49,5.45,5.45,0,0,0,.85,2.1c6.69,7.63,16,10.33,24.3,12,1.33.26,2.81.65,3.49,1.9a4,4,0,0,1-.13,3.49l-.23.57-.6.11c-6.34,1.17-11.66.39-16.28-2.37-2.24-1.34-3.37-1-5,1.35a36.4,36.4,0,0,1-25.67,14.87c-10.69,1.28-21-1.71-28.42-8.2l-.54-.49c-4.84-4.3-4.84-4.31-10.1-.58-9.17,6.5-23.57,10.13-36.49.84-6.46-4.64-6.47-4.64-12.12,1l-.37.37c-5.93,5.87-13.5,7.89-21.9,5.83a11.1,11.1,0,0,1-6.45-4.9c-4.77-8.72-5-21.12,5.81-27.74,1.65-1,3.41-1.9,5.1-2.75S19.49,518,21,517.14a11.49,11.49,0,0,0,2.48-2.34c.25-.28.49-.56.74-.83,1.23-1.33,2.44-2.74,3.61-4.09a81.86,81.86,0,0,1,8.08-8.5c4.48-3.9,10.45-5.25,18.23-4.13a3.47,3.47,0,0,0,2.54-.26,2.44,2.44,0,0,0,.7-1.79c1.33-13.62,10.56-21.87,25.31-22.63,4.41-.22,4.41-.22,5.12-5.14A58.82,58.82,0,0,1,91.41,455c.56-1.48,1.88-2.91,4-4.36,4.17-2.83,10.46-3.7,16.81-2.31,6,1.32,11.08,4.47,13.48,8.44l.36.6-.39.59c-.91,1.37-1.83,2.72-2.74,4.06-2.12,3.09-4.09,6-5.91,9A31.52,31.52,0,0,0,113,492.4c.42,2.67,2,5.31,3.58,7.86.5.82,1,1.64,1.47,2.46a9.51,9.51,0,0,0,1,.2h0a16,16,0,0,0,.48-1.9c-.11-.16-.26-.35-.38-.49-7-8.24-4.54-17.33-1.67-25.21,3.65-10,11.32-17.53,22.8-22.27,2.56-1.05,4.51-.53,6.81.66,4.72,2.45,7.6,5.83,10.48,10.15,4.45,6.7,11.2,12.3,20,16.64,2.1,1,4.47,2.2,6.63,2.26l1.49,0a190.07,190.07,0,0,0,23.38-.29c6.57-.62,11.62-5.25,15.28-9.21a4,4,0,0,0,.32-1.6h-.13a6.87,6.87,0,0,0-1.56.06c-10.78,11.77-24.93,10.2-37.42,8.81-8.65-1-15.35-6.61-21.3-12.56l-1-.95c-2.89-2.84-5.88-5.78-6.67-10.45a4.55,4.55,0,0,0-2.61-1.81,13.94,13.94,0,0,1-9.68-8.93,17.09,17.09,0,0,1,1.62-15.42A76.35,76.35,0,0,1,154.39,420c2.3-2.37,3.08-4.73,2.79-8.43-.51-6.31-.82-12,.46-17.33,3.23-13.5,17.86-20.23,30.1-20.76,2.59-.12,5.22,0,7.76.06h.32c2.4.08,4.89.17,7.3.08a6,6,0,0,0,3.51-1.94,28.83,28.83,0,0,0,3.47-5.34l.26-.47c5.44-9.81,14.29-13.62,27.89-12,4.72.57,4.72.57,5.62-3.77,1.35-6.48,3.91-14.61,11.79-19.91,5.35-3.6,10.24-4,15-1.1,2.86,1.73,4.68,1.39,7-1.29,3.58-4.21,7.37-8.3,11.26-12.17a18.83,18.83,0,0,1,24.68-1.22c1.55,1.24,2.67,1.22,4.41-.06A25.29,25.29,0,0,1,340.14,311a24,24,0,0,1,16,14.55,113.55,113.55,0,0,1,4.11,15.74c.46,2.18.93,4.4,1.44,6.56a10.5,10.5,0,0,1,.23,1.55c.19,1.9.38,2.19,1.44,2.23s1.27-.32,1.33-2.35c0-.44,0-.9.08-1.34.32-2.54.6-5.13.88-7.64a197.85,197.85,0,0,1,2.81-19.7c2.25-10.58,10.71-17.06,23.21-17.79,3-.17,4.19-.68,5.58-3.33,6.52-12.42,20-17.27,33.51-12.08a87.19,87.19,0,0,1,10.79,5.14c2.16,1.2,3.14.94,4.38-1.15,7.78-13.16,20.58-18.91,36-16.19a72.05,72.05,0,0,1,26.39,9.92c6.46,4.07,10.72,10.07,13,18.36.74,2.69,1.5,3.12,4.28,2.39,5.62-1.46,12.1-2.58,18,2.58,3.92,3.46,5.2,7,4.16,11.45-.42,1.8-.31,2.44-.13,2.66s1.17.51,2.71.53c13.47.18,23.72,10.15,24.36,23.69,0,.37,0,.75,0,1.13a5.65,5.65,0,0,0,.2,2.06,5.55,5.55,0,0,0,1.25,1.64l.06.06.1-.08a5,5,0,0,0,1.4-1.34c1.1-2.08,2.15-4.24,3.07-6.15,1.63-3.36,3.3-6.82,5.28-10.06,4-6.64,10.13-9.81,17.6-9.17,1.57.13,3.13.2,4.64.28,1.93.09,3.85.19,5.74.37a2.51,2.51,0,0,0,1.89-.29,2.34,2.34,0,0,0,.44-1.74c0-.93,0-1.89.08-2.74a26,26,0,0,0,0-3.95c-.57-5.74,2-11.31,6.94-15.29a24.14,24.14,0,0,1,22.17-4.1,15.11,15.11,0,0,1,1.4.58,5.24,5.24,0,0,0,1.94.64,6.37,6.37,0,0,0,2.24-.74l.08,0,0-.07A4.33,4.33,0,0,0,650,296.1a21,21,0,0,0-3.36-1.48,28.22,28.22,0,0,1-3.15-1.33,18.7,18.7,0,0,1-9.79-13.5,19.15,19.15,0,0,1,4.83-16.37,5.29,5.29,0,0,0,.83-2.46s0,0,0-.08a6.4,6.4,0,0,0-2.46.48c-4.81,2.67-9.76,1.42-12.33-3.1a5.62,5.62,0,0,1,.59-7.19,24.71,24.71,0,0,0,3.91-5.19,7.31,7.31,0,0,0,.92-3.28.94.94,0,0,0-.58-.32c-.46,0-1.17,1-1.63,1.6l-1.1,1.47c-2.7,3.6-5.48,7.33-10.11,9.18-.67.27-1.35.58-2,.89a17.83,17.83,0,0,1-6.38,2c-2,.1-4.09.23-6.14.35-7.82.48-15.87,1-23.65-.06-13.2-1.75-20.49-10.39-22.28-26.4A30.94,30.94,0,0,1,564,206.58c6.74-7.48,9.22-16.56,11.55-26.78l.22-1c.3-1.26.6-2.56.8-3.84.72-4.66,1.39-9.05-1.21-13.44-2-3.46-2.81-7.8-3.49-11.63-1.58-9,3-16.93,11.44-19.7a65.19,65.19,0,0,1,17.1-3.09c6.16-.31,12.43-.12,18.5.07h.19c2.29.07,4.57.14,6.86.19,2.54,0,3.81-.15,4.24-.66s.31-2.51,0-4.27a154.44,154.44,0,0,1-2.07-15.36c-.78-11.84,4.67-20.4,16.65-26.15,12.7-6.09,25.94-5.85,36-5l.51,0c9.63.86,9.63.86,14.11-7.61l.08-.17c5-9.49,13.67-15.24,26.44-17.57a55.34,55.34,0,0,1,6.36-.67,57.51,57.51,0,0,0,5.77-.58,9.19,9.19,0,0,0,4.9-2.18c4.41-4.53,9.42-6.09,15.31-4.78a4.09,4.09,0,0,0,1.77-.45l0,0a4.62,4.62,0,0,0-1.28-1.68,13.19,13.19,0,0,1-7-7.7,13,13,0,0,1,.77-10.15c3.63-7.15,9.49-10.94,16.93-10.94a18.27,18.27,0,0,0,11-3.36,34.61,34.61,0,0,1,13.22-5.26c10.41-1.83,19.1,2.42,26.59,13,3.86,5.46,4.44,11.12,1.69,16.35a8.18,8.18,0,0,1-2.84,3.38C798.87,44.72,790,60.48,783.05,74.55c-.22.44-.46.86-.7,1.29a13,13,0,0,0-1.13,2.37,4.62,4.62,0,0,0,0,1.53,2.79,2.79,0,0,0,1.8-.21,4.28,4.28,0,0,0,1-1.59c.17-.34.34-.68.52-1,1.42-2.43,2.8-4.92,4.13-7.32a186.6,186.6,0,0,1,9.72-16.2c7.07-10.15,17.87-16,26.49-20a9.6,9.6,0,0,0,4-3.59c6.93-12,15.66-17.66,27.49-17.7h1.07c8.15,0,16.57-.08,23.64,5.35,3.44,2.65,6.11,6.24,8.69,9.71,1.54,2.08,2.32,2.48,4.85,1.38,9.65-4.21,18.31-3.94,25.72.78,2.37,1.51,4,4.19,5.52,6.81l.35.64c1,1.9,1.38,2.26,2.67,1.73,11.14-4.59,20.42.1,27.27,4.7a25,25,0,0,1,11.32,17.7c.66,4.42,1.09,8.93,1.51,13.3.29,3.07.62,6.52,1,9.81a6.12,6.12,0,0,0,1.13,2.26l-.23.25.3-.25a6,6,0,0,0,1.53-2c1-3.25,1.93-6.58,2.83-9.81,1.37-4.92,2.79-10,4.52-14.94C983,51.4,988.66,45,994.72,38.7a23.31,23.31,0,0,1,18-7.4c8.84.28,14.83-2.2,20-8.28C1042,12.17,1055,6.88,1072.4,6.88h2.09c6.68.07,13.52.15,20.24.06h.73c13,0,25.09,4.25,34.13,7.94,16.63,6.82,26.7,18.15,29.91,33.67.28,1.37.76,3.67,1.33,4s2.61-.58,4.26-1.28a69.48,69.48,0,0,1,28.46-5.34l2.59,0h.58a90.41,90.41,0,0,1,12.71.63c13.39,2,22.52,11,29,18.64,8.94,10.62,13.36,22.61,13.14,35.63a68.14,68.14,0,0,1-10.22,35.26c-1.58,2.53-1.82,3.94.8,6.15,13,11,14.49,30.31,8.39,42.65a19.64,19.64,0,0,1-9.63,9.23c-.87.41-1.76.78-2.62,1.14a35,35,0,0,0-4.13,1.95,3.76,3.76,0,0,0-.83,1.41h0l.08,0a5.23,5.23,0,0,0,1.44.51c7.87-2.65,16.3-6.7,19.23-16.63,4.84-16.44,2-29.63-8.69-40.33-1.95-1.95-2.86-3.86-1-6.83,5.89-9.49,9-20.47,9.46-33.57.52-14.25-4.1-27.06-13.74-38.06-5-5.74-11.29-10.61-16.76-14.6a32.28,32.28,0,0,0-8-3.74c-1.34-.5-2.87-1.06-4.37-1.71l-.85-.36.2-.91c1.4-6,3.55-12.13,9.86-15.93a37.86,37.86,0,0,1,23.43-5.25c7.71.7,14.28,4.45,19.52,11.16,1.5,1.92,2.44,2.78,3.06,2.78s1.53-.91,2.83-2.73c4.51-6.32,10-9.17,16.72-8.74,4.85.31,9.67.73,14.33,1.24,7.15.8,11.81,5.27,13.49,12.94,1.88,8.6.45,15.44-4.4,20.91a4.46,4.46,0,0,0-1,2.73,6.43,6.43,0,0,0,2.1.64c.42.08.82.17,1.19.26a3.57,3.57,0,0,0,1.1-.06l.24,0c19.4-2.86,34.6,6.87,42.78,27.35,5.2,13,3.3,25-5.35,33.68a3.73,3.73,0,0,0-.7,1.71,3.2,3.2,0,0,0,2.07.66c14.23-2.77,28.84-.94,43.43,5.45,14.89,6.52,25.24,16.11,30.76,28.5a69.14,69.14,0,0,1,3.8,46c-3.34,13.24-10.15,25-16.17,35.36a44.89,44.89,0,0,1-4.67,6.24c-1,1.12-1.93,2.27-2.81,3.45a16.16,16.16,0,0,0-2.48,4.3,4.07,4.07,0,0,0,.39,1.37h0l.06,0a4,4,0,0,0,1.58-.74c.93-1.07,1.79-2.26,2.63-3.41a34.92,34.92,0,0,1,4.41-5.27,24,24,0,0,1,9.13-5.5,70.64,70.64,0,0,1,33.61-1.13c7,1.49,13.59,5,20,8.39l.68.36c12.52,6.66,20.23,17.95,23.59,34.52a121.39,121.39,0,0,1,1.63,12c.24,2.4.49,4.83.81,7.22a4.67,4.67,0,0,0,1,2.74,4.25,4.25,0,0,0,2.47-.93c7-5.58,15.55-7.71,26.24-6.52,11,1.22,19.47,14.29,19.85,22.5a98.69,98.69,0,0,1-.51,12.66c-.18,2.18-.39,4.62-.49,7a5.33,5.33,0,0,0,.5,1.89l.06.15.1,0a9.67,9.67,0,0,0,2.07-.7,43.07,43.07,0,0,0,3.82-2.34c2.76-1.82,5.58-3.67,8.67-4,8.64-1.05,17.76-1.91,26,0,17.65,4,26.37,15.58,25.9,34.4-.25,9.85-3.61,19-10.91,29.73a37.33,37.33,0,0,1-2.52,3.2c-.48.56-1,1.15-1.51,1.8l-.89,1.1-.86-1.13c-6.94-9.15-16.5-13.55-24.92-17.44-1.43-.65-2.86-1.32-4.29-2-11.54-5.4-23.47-11-36.62-11.36-9.33-.27-19.1-.17-27.72-.08H1507l-10.93.09a4.39,4.39,0,0,0-1.86.23,6.23,6.23,0,0,0-1.26,1.22,3.86,3.86,0,0,0,1.37.93,26.33,26.33,0,0,0,3.93-.15c1.06-.1,2.1-.19,3.14-.19,3.89,0,7.77,0,11.66,0h1c5.56,0,11,0,16.42,0h.58c12.06,0,22.83,4,32.68,8.37,6.64,2.93,13.08,6.11,20.71,10,15.1,7.68,23.21,20.88,24.08,39.26a93.73,93.73,0,0,1-.43,12v.09c-.16,2-.33,4.17-.42,6.25-.33,7.83-5.4,12.36-10.3,16.74-.7.62-1.39,1.24-2.07,1.87a12.84,12.84,0,0,1-1.36,1c-.78.54-1.64,1.13-1.72,1.63,0,.16,0,.46.41.95a1.17,1.17,0,0,0,.69.52c.52,0,1.42-.7,2.07-1.25a12.24,12.24,0,0,1,1.23-1c9.78-6.38,14.24-16,14.45-31.32.2-13.94-2.13-24.21-7.33-32.32l-.39-.62.42-.61,2.61-3.82.18-.27c2.5-3.67,4.83-7.08,7.28-10.42a6.43,6.43,0,0,1,4.24-2.47,16.7,16.7,0,0,1,7.2.73l1.06.42c6.91,2.77,14.06,5.62,18.39,12.84a4.19,4.19,0,0,0,3,.74c15.4-7.24,32.68-9.6,52.82-7.2,15.25,1.81,26.5,6.51,35.39,14.81,14.53,13.55,22.25,28.52,23.59,45.77,0,.62.08,1.24.1,1.87v.18a25.52,25.52,0,0,0,.3,3.57c.14.8.42,1.34.79,1.51a2.12,2.12,0,0,0,1.77-.4,15.86,15.86,0,0,0,2.38-1.78l.32-.26a20,20,0,0,1,15.9-4.37,21.9,21.9,0,0,1,15,10c1.83,2.87,2.16,7.07,1.84,10-1.21,11.66-6,20.87-14.21,27.37-2,1.59-4.4,3.26-6.82,3.51l-5.55.59-.36,0c-8.74,1-17.8,1.95-26.64,1.81-10.13-.14-18.74-5.19-27.06-10.08-1.27-.74-2.53-1.48-3.79-2.2s-2.7-1.72-4-2.61c-.57-.4-1.15-.81-1.73-1.2a2.81,2.81,0,0,0-2.35-.63c-.76.28-1.16,1.26-1.37,2-.34,1.3-.64,2.69-.9,3.92-.39,1.81-.78,3.69-1.37,5.53-4,12.54-12.09,19.35-24.77,20.81a76.55,76.55,0,0,1-35.15-3.88l-1.31-.49.77-1.17c.3-.44.6-.86.9-1.27a13.87,13.87,0,0,0,1.65-2.66,3.92,3.92,0,0,0,0-1.6h-.17a4.16,4.16,0,0,0-1.4.17c-1.11,1.39-2.18,3-3.14,4.44a59.78,59.78,0,0,1-3.58,5c-1.67,2-3.26,4.21-4.79,6.32-4.27,5.87-8.68,11.93-15.47,15.71-2.17,1.2-4.29,2.46-6.34,3.68-7.61,4.51-15.48,9.18-24.72,10.76l-1.76.31a68.42,68.42,0,0,1-9,1.18,251.5,251.5,0,0,1-50.63-3c-4-.64-8-1.18-11.93-1.69l-.09,0c-6.08-.8-12.38-1.63-18.5-2.88-10.58-2.16-17.86-7.53-21.63-15.95a18.33,18.33,0,0,1-1.17-6.3c0-.82-.11-1.62-.2-2.38-.52-4.32-1-8.63-1.52-13l-.74-6.4h1.25l2.68,0c1.79,0,3.8.08,5.72-.06,11-.78,22.22-1.67,33-2.52l4.58-.36a3.89,3.89,0,0,0,1.59-.32,3.28,3.28,0,0,0,1-1.44,2.74,2.74,0,0,0-1.16-.67,21.19,21.19,0,0,0-3.25.43,27.17,27.17,0,0,1-3.08.45l-8.29.6c-8.45.64-17.13,1.29-25.68,1.47a93.13,93.13,0,0,1-13.48-1l-.25,0c-1.84-.23-3.75-.47-5.61-.65a6.12,6.12,0,0,1-1-.18,4.22,4.22,0,0,0-.66-.13h-.09c-.48,0-1-.05-1.58-.11-2.46-.26-2.82,0-3,1-.08.64,0,.87.11.95.28.32,1.36.31,2.14.3a10.9,10.9,0,0,1,1.64.07l.42.06c9.34,1.34,10.31,1.48,11.8,11.67l0,.31c1.06,7.28,2.16,14.82,1.33,22.1-1.59,14.17-8.24,23.67-20.33,29.06-13.18,5.87-26.32,8-39,6.39-7.65-1-15.16-3.6-22.42-6.13l-.43-.15-3.11-1.08a57.86,57.86,0,0,1-9.31-4.49l-.18-.1c-1.23-.69-2.5-1.4-3.77-2-2.13-1.1-2.89-2.71-2.48-5.21,3.7-22.68,4.54-41.53,2.66-59.32-2.08-19.74-10.12-37.76-23.87-53.54l-.35-.41c-5.24-6-10.66-12.23-17.87-16-15.63-8.16-29-12.42-42-13.41a4.63,4.63,0,0,0-2,.77,5.06,5.06,0,0,0,2,1.39c17.7,2.11,33.12,7.75,45.84,16.78,6,4.25,10.76,10.13,15.37,15.82,16.76,20.65,23.64,45.1,21.06,74.76-.28,3.21-.48,6.49-.68,9.66v.08a181.36,181.36,0,0,1-2.07,20.66c-3.19,17.85-11.84,33-26.46,46.4C1324.52,616.52,1308,622.44,1285.85,622.87Z"/><path d="M1303.09,295.89c-2.3-5.42-4.49-10.55-9.31-14.11l-.42-.3a18.62,18.62,0,0,1-5.11-4.85c-3.61-5.83-9.23-8-16.2-10.19-17.89-5.68-36.58-7.61-52.69-9-16.81-1.43-31.52-.67-45,2.3-1.76.39-2.27.11-2.54-.22l-.44-.51.11-.27-2.34-7.34L1164,235.32a20.19,20.19,0,0,0-11.44-12.8c-15.57-6.87-32.84-8.88-51.33-5.94a21.88,21.88,0,0,0-8.62,3.83,91.09,91.09,0,0,0-22.75,23.3l-1.44,2.07-2.19-9.7c-1.06-4.71-2.08-9.26-3.13-13.82-4.23-18.45-15.6-31.21-33.8-37.93-22.34-8.25-45.51-7.5-68.85,2.21a68.68,68.68,0,0,0-14.42,8c-9.17,6.81-16.46,16.22-23.64,30.51-5,10-6.47,21.35-4.43,34.67,2,12.93,8.06,24.19,14.33,34.43,1.26,2.05,3.52,3.68,5.71,5.24l.07.06c.52.37,1,.73,1.52,1.1a8.57,8.57,0,0,0,1.13-.3l.14,0,0-.16a7.82,7.82,0,0,0-.23-1.17c-5.12-2.67-7.52-7.37-9.85-11.92-.47-.92-.93-1.83-1.42-2.73-13.9-25.42-13.31-48.21,1.79-69.67,7.58-10.76,14.81-18.94,25.49-23.87,20.27-9.36,40.85-11.83,61.17-7.34,19,4.19,31.59,13.15,38.61,27.38,5.84,11.86,7.83,25,9.36,37.41a8.91,8.91,0,0,0,1.19,2.9l.21.39.32-.21a5.77,5.77,0,0,0,2.06-1.8c4.59-9.49,12.29-16.82,18.49-22.7,5.57-5.3,11.61-8.16,18.45-8.75a99.79,99.79,0,0,1,40.1,4.44c5.52,1.84,11,4.33,13.57,10.13,3.54,8,7.21,16.26,7.9,25.58a5.05,5.05,0,0,1-2.86,5.29l-.57.33a95.61,95.61,0,0,0-10.68,7c-6.36,5.05-9.67,11.25-9.85,18.42a4.24,4.24,0,0,0,.8,1.82,7.56,7.56,0,0,0,1.45-2,36.31,36.31,0,0,0,1.2-3.83,22.38,22.38,0,0,1,2.61-6.64c5.71-8.44,14.48-14,26.07-16.61a110.9,110.9,0,0,1,24-2.8h1.14c26.83.34,47.17,2.92,65.94,8.36l1.78.51c7,2,14.19,4,18.46,11.34a7.66,7.66,0,0,0,2.11,1.93l.2.15c4.83,3.49,8.36,8.32,10.8,14.75l.12.31a14.69,14.69,0,0,0,1.91,3.89,4.91,4.91,0,0,0,1.75,1.06h0v0a5.88,5.88,0,0,0,.45-1.39C1304.27,298.66,1303.67,297.26,1303.09,295.89Z"/><path d="M822.41,367.51a12,12,0,0,0-2.55-.49,4.57,4.57,0,0,0-2,.74l-.11.06c-2,1.12-4,2.21-6.08,3.29-5,2.67-10,5.39-14.77,8.41-13.7,8.73-22.8,21.57-27,38.17-1.29,5-1.32,10.56-1.35,15.9v.1c0,1.8,0,3.66-.08,5.48-.43,12.88,4.2,24.51,14.16,35.55a104.11,104.11,0,0,0,7.87,7.57l.25.22c1.18,1.06,2.35,2.11,3.5,3.19l.64.6-1.44,2.57h-.65c-2.78,0-5.55,0-8.33-.07h-.56c-2.69,0-5.42-.07-8.16-.07-4.33,0-7.86.08-11.11.25a155.14,155.14,0,0,0-23.9,2.94c-10,2.11-17.06,7.15-20.86,14.95a5.06,5.06,0,0,0,.07,2.46,4.56,4.56,0,0,0,1.76-1.29,27.45,27.45,0,0,1,14.47-12.25,74.68,74.68,0,0,1,26.8-4.58h.28c12.72,0,25.66,0,38.16,0h3.12c.78,0,1.94,0,2.27-.35a1,1,0,0,0,.15-.68,16.43,16.43,0,0,0-2.33-1.07l-.71-.29a7.15,7.15,0,0,0-1.45-.35,5.08,5.08,0,0,1-2.81-1.08c-1.55-1.48-3.13-2.95-4.71-4.41a149.78,149.78,0,0,1-14.37-14.57c-9.41-11.46-10.32-25.2-9.9-38.34s4.78-24.82,13.31-35.54,20.23-18.75,37-25.48A4.45,4.45,0,0,0,822.41,367.51Z"/><path d="M544.26,423.48c-1.81-6.32-8.37-11-15.24-10.83h0c-7.38.13-12.64,2-16.08,5.76l-.8.88-.82-.86c-1.24-1.28-2.4-2.57-3.52-3.82a53.94,53.94,0,0,0-7.61-7.47,34.21,34.21,0,0,0-11.6-5.25c-15.25-3.93-28.59-4-40.78-.25-9.52,2.94-14.7,10.49-20,19.32a6.5,6.5,0,0,0,.34,1.15s0,.08,0,.12h0a4.45,4.45,0,0,0,1.62-.54,6.22,6.22,0,0,0,1.28-1.81c.18-.31.33-.58.49-.83,6.39-10.35,13.62-15.69,22.78-16.81,15.39-1.88,27-.9,37.67,3.2,8.35,3.2,13.46,8,16.08,15.1,1,2.63,1.58,3.26,1.92,3.33s1.11-.21,3.32-2.56c3.94-4.18,8.79-6.48,13.67-6.48.55,0,1.11,0,1.67.08,5.44.58,10.25,3.89,13.54,9.34a3.89,3.89,0,0,0,1.58.84l.07,0A3.8,3.8,0,0,0,544.26,423.48Z"/><path d="M458.56,493.64a22.61,22.61,0,0,0,14.87,3.65h.13c7.5.75,14.37-1.77,20.51-7.48,3.62-3.37,5.71-7.18,6.19-11.34a3.5,3.5,0,0,0-.61-1.3h0a4.07,4.07,0,0,0-1.44,1,13.68,13.68,0,0,0-1,2.48,14.43,14.43,0,0,1-1.35,3.11c-6.31,9.87-17.16,13.52-30.57,10.28a10.6,10.6,0,0,1-3.61-1.94,12.44,12.44,0,0,0-2.31-1.42,6.42,6.42,0,0,0-3.51-.72c-6,4.76-12.85,4.47-19.39,3.46-8.87-1.38-14.55-5.2-17.38-11.67-3.67-8.41-3-16.18,1.85-23.1a3.86,3.86,0,0,0,.12-1.61V457h-.05a4,4,0,0,0-1.57.21,10,10,0,0,0-3,4c-2.15,6.9-5.43,23.78,10.7,31.47,9.94,4.74,19,5,27.61.7A4.41,4.41,0,0,1,458.56,493.64Z"/><path d="M548.07,470.63a107.72,107.72,0,0,1,14.83-.29c10.64.78,13.93,3.57,16.79,14.23.12.42.78,1,1.37,1.45a4.55,4.55,0,0,0,.74-1.95c-.91-8.54-6-14.05-14.41-15.54a62.1,62.1,0,0,0-7.49-.72c-.85-.05-1.6-.09-2.22-.14-1.4.1-2.7.17-3.92.25l-.51,0c-2.58.15-4.8.28-7,.48a18.87,18.87,0,0,0-15.6,10.62c-3.43,6.77-3.33,15.3.24,21.21.18.29.36.63.54,1,.43.83,1,1.85,1.5,2a1.44,1.44,0,0,0,1.05-.32c.46-.29.57-.5.59-.6.08-.39-.43-1.15-.84-1.76a10.27,10.27,0,0,1-.87-1.48l-.13-.21c-3.09-5.5-3-13.22.26-19.2a16.7,16.7,0,0,1,14-8.95Z"/><path d="M370.71,465.65l0,0c-.91-.78-1.22-.95-1.33-1a43.53,43.53,0,0,0-10.4,2.5,34.81,34.81,0,0,0-15.24,12.78l-1,1.5-.86-1.6c-3.75-6.91-9.2-11.17-16.21-12.65-2.72-.57-5.79-.13-8.76.3l-1.08.15a11.58,11.58,0,0,0-.48,1.28l0,0,.11,0a6.21,6.21,0,0,0,2.42.22,15.45,15.45,0,0,1,3.42-.37,19.49,19.49,0,0,1,11.9,4.3,18.71,18.71,0,0,1,7.47,14,70.43,70.43,0,0,0,.87,10.18c.05.27.83.88,1.21,1.18l0,0a8.26,8.26,0,0,0,.95-1.76,2.54,2.54,0,0,0-.09-.75,4.89,4.89,0,0,1-.12-1.52,24.47,24.47,0,0,0,.09-3.85c-.09-3.11-.19-6.32,2.2-9.43,6.89-9,14.38-13.57,23.55-14.4h0C369.66,466.74,370.29,466.09,370.71,465.65Z"/><path d="M274.29,408.31l-.17.5a76.1,76.1,0,0,0-3.62,13.08c-1.11,7.42,1.54,15.67,7.1,22.06s12.94,10,20.43,10l.12-.1a8,8,0,0,0,.83-.71,3.74,3.74,0,0,0-1.67-1.45c-1.39-.59-2.89-1.08-4.34-1.55a36.68,36.68,0,0,1-7.41-3.05c-10.71-6.36-14.6-14.36-12.6-26a54.12,54.12,0,0,1,1.76-6.68c.53-1.7,1.06-3.42,1.44-5.11a4.89,4.89,0,0,0-.34-2.12C275.23,407.55,274.39,408,274.29,408.31Z"/><path d="M522.46,525.35l.55.07,2.22.28,0-.35h1c.61,0,1.24,0,1.8.09a8.83,8.83,0,0,0,3.21-.12A128.35,128.35,0,0,0,545.33,520a9.27,9.27,0,0,0,.47-1.79v-.06a7.89,7.89,0,0,0-2.24.37,13.59,13.59,0,0,0-2.24,1.2,16.7,16.7,0,0,1-2.44,1.32c-8.74,3.56-17.9,2.06-25.26.85a5.39,5.39,0,0,0-.85-.06,6.89,6.89,0,0,0-2.45.4,1.08,1.08,0,0,0,0,.79c.34.59,1.79.84,2.57,1l0,.32h0L513,524C516.1,524.55,519.34,525,522.46,525.35Z"/></g></g></g></g></svg>