<svg xmlns="http://www.w3.org/2000/svg" viewBox="0 0 242.58 137.77"><defs><style>.cls-1{fill:#fff;}</style></defs><g id="Layer_2" data-name="Layer 2"><g id="Homepage"><g id="Clouds"><g id="Clouds_Right"><g id="_08" data-name="08"><path d="M68.26,103.53l-6.68-3.64c-.27.47-.63,1.15-1,1.81a17.62,17.62,0,0,1-10,7.93,27.4,27.4,0,0,1-19.86-.73c-4.15-1.73-5.92-5-6-9.39,0-.59,0-1.19-.05-1.78,0-.08-.09-.16-.23-.37a15.81,15.81,0,0,1-1.85.73c-6.08,1.57-12,1.51-17.36-2.27-4.5-3.17-6-7.91-4.79-13.11C1.45,78,5.31,75.86,9.75,74.85c1.43-.32,3-.18,4.43-.36a1.61,1.61,0,0,0,1.17-.75c1.89-5.65,6.09-8.52,11.63-9.92a53.51,53.51,0,0,1,21.47-1c.44-1.32.83-2.68,1.34-4,2-5.13,5.61-7.31,11-6.78a1.52,1.52,0,0,0,1.2-.42c3.41-4.54,9.32-5.4,14-3.93a4.94,4.94,0,0,0,2.8,0,11.48,11.48,0,0,1,6.44-.08,4.09,4.09,0,0,1,3.22,4.23l4.28,1.25c1.52-2.22,2.85-4.82,4.79-6.83a28.49,28.49,0,0,1,6.76-5c2.79-1.54,5.89-1.1,8.82-.13a2.55,2.55,0,0,0,2.82-.59,9.87,9.87,0,0,1,7.42-2.85c3.35.23,6.72.41,10,1,3.66.62,6.15,3,7.82,6.27l.54,1s.08.05.12.08c3-1,6.39.91,6.87,4.87,4.22-.18,7.59,1.71,10.6,4.74,2.46-3.39,6-3.44,9.69-3.31.72-5,2.59-9,8.19-10-2.56-2.54-2.69-5.61-2-8.8a10,10,0,0,0-6.9-1.23,36.71,36.71,0,0,1-9.87-.14c-3.22-.35-5.13-2.57-5.71-5.66a12.17,12.17,0,0,1,2.57-10.6,2.39,2.39,0,0,0,.65-1.54C155,7.13,162.47.2,169.82,0c5.47-.14,10.75.52,15.66,3.2,3.48,1.9,6,4.42,6.2,8.57,1.75,0,3.36-.06,5,0a23.71,23.71,0,0,1,11.85,3.42,12.25,12.25,0,0,1,5.58,13.32c-.49,2.3-1.26,4.53-2,7,4.15-.6,7.93.23,9.8,4.3,1.7,3.7,1.41,7.44-1.95,10.57,3.27-.49,6.15.61,9.08,1.44,5.26,1.48,9.57,4.29,12.38,9.06,1.56,2.67,1.17,5.66.9,8.56a9.31,9.31,0,0,1-4.09,7.2,58.12,58.12,0,0,1,1.69,7.3,7.46,7.46,0,0,1-6.38,8,34.46,34.46,0,0,1-7.39,0c-2.15-.18-3.34-2-4.62-3.48a24.06,24.06,0,0,1-1.44-2.09c-3.48,4.06-8,5.8-13.38,6,.49,1.4.88,2.61,1.35,3.79A34.89,34.89,0,0,1,210.35,110c0,1-.06,2,0,3,.59,8.63-3.83,14.52-10.49,19.2-4.55,3.2-9.74,4.45-15.18,5a72.83,72.83,0,0,1-22.64-.69,62.35,62.35,0,0,1-10.19-3.59,4.27,4.27,0,0,0-3.5-.07c-5.67,2.06-11.5,3.25-17.63,2.28a32.61,32.61,0,0,1-10.36-3.49c-5.28-2.84-7.91-7.69-9.14-13.4,0-.19-.06-.38-.11-.66-4.26.7-8.29.3-11.6-2.13-2.93,1.77-5.68,3.57-8.56,5.15-6.88,3.77-19.62.08-23-6.6a10.62,10.62,0,0,1-.21-9.3C67.9,104.22,68.15,103.75,68.26,103.53ZM147.91,131c-1.78-2.3-3.57-4.52-5.26-6.81-2-2.68-3.84-5.44-4.34-8.84-.07-.48.4-1,.63-1.56.38.37,1,.69,1.11,1.12.6,3,2.18,5.38,3.84,7.8,1.88,2.74,3.68,5.62,6.56,7.38a36.8,36.8,0,0,0,12.3,4.69,76.45,76.45,0,0,0,20.88.67c6.77-.6,13.09-2.4,18.17-7.14,4-3.75,7-8.09,6.66-14a32.52,32.52,0,0,1,0-3.56,37.77,37.77,0,0,0-3.14-16.64c-.46-1.1-.9-1.65-2.24-1.45-3.91.56-7.44-.67-10.69-2.73-.47-.3-.57-1.15-.85-1.75a9.17,9.17,0,0,1,1.84.22c2.23.77,4.39,2.14,6.65,2.3a54.77,54.77,0,0,0,10.2-.67c3.68-.45,6.5-2.54,8.81-5.33,1.31-1.59,1.79-1.48,2.7.42,1,2.22,2.32,4.5,4.92,5a21.71,21.71,0,0,0,6.49.07,5.89,5.89,0,0,0,5-6.11,11,11,0,0,0-2-6.1c-.68-1-.63-1.85.47-2.49a7.13,7.13,0,0,0,3.79-6c.11-2.43.24-5-.54-7.27a10.88,10.88,0,0,0-4-4.81c-5.74-4-12-6.31-19.15-4.34a5.19,5.19,0,0,1-2-.29,7,7,0,0,1,1.06-1.7c1.14-1,2.47-1.82,3.58-2.87,2.2-2.1,2.18-6.4.17-8.68-2.51-2.84-5.62-2.38-8.81-1.79a8.2,8.2,0,0,1-1.64,0c.09-.59,0-1.32.29-1.76a20.23,20.23,0,0,0,3-7.7,10.44,10.44,0,0,0-4.89-11.49,22.83,22.83,0,0,0-14.59-2.91c-2.64.3-2.66.32-3-2.23a7.62,7.62,0,0,0-3.19-5.45c-3.92-2.86-8.41-3.89-13.1-4.24-3.94-.3-7.74.12-11,2.75s-5.29,5.71-4.61,10.13a2.48,2.48,0,0,1-.74,1.75A10.31,10.31,0,0,0,154.52,26a4.87,4.87,0,0,0,4.33,4.29,41.3,41.3,0,0,0,5.32.42c3.41,0,6.79-.08,9.07-3.3.19-.27.92-.17,1.4-.25,0,.45.17,1,0,1.34A17.85,17.85,0,0,1,173,30.6c1.17.32,2.14.65,3.14.83s1.57.62,1.16,1.82c-1.63,4.72-.06,7.89,4.67,9.66A6.38,6.38,0,0,1,183.92,44c.33.29.4.88.58,1.33-.52.07-1.2.38-1.53.16-1.78-1.18-3.76-1.09-5.74-1.12a4.38,4.38,0,0,0-3.52,1.6c-1.53,1.76-2.68,3.63-2.62,6.11,0,2-.43,2.25-2.43,2.14-.74,0-1.48,0-2.22,0-3.87.07-5.82,1.69-6.69,5.46-.17.73,0,2-1.29,1.63-.34-.09-.4-1.39-.5-2.14,0-.32.23-.67.22-1a2,2,0,0,0-.31-1.19c-2.67-2.57-5.54-4.69-9.59-3.91-1.08.21-1.59-.28-1.63-1.33a12.29,12.29,0,0,0-.06-1.49A3,3,0,0,0,143,47.8c-2.22.81-2.22.81-3.2-1.4-1.36-3.08-3.51-5.36-6.9-6-2.91-.52-5.88-.71-8.83-.94a9.18,9.18,0,0,0-7.17,2.64,3.67,3.67,0,0,1-4.2.82c-2.4-.91-5-1.3-7.39-.14-3.19,1.53-6.2,3.49-8,6.63-1.37,2.37-2.29,5-3.48,7.49-.19.4-.75.62-1.13.92-.23-.39-.63-.77-.66-1.17-.16-2-1.3-2.95-3.25-2.62-2.2.38-2.2.38-2.25-2,0-1.83-.56-2.68-2.35-2.8a17.33,17.33,0,0,0-5.23.46,4.42,4.42,0,0,1-3,0,10.37,10.37,0,0,0-10.44,1.16,8.17,8.17,0,0,0-2.12,3,1.17,1.17,0,0,1-1.77.68,6.64,6.64,0,0,0-7.94,1.51,13.32,13.32,0,0,0-3.24,7.35c-.21,1.25-.84,1.64-2.09,1.4a44.47,44.47,0,0,0-24.26,2c-3.61,1.32-5.82,4.07-7,7.8a3.41,3.41,0,0,1,1,.28,10.26,10.26,0,0,1,1,1.06,6.17,6.17,0,0,1-1.39.73c-.4.1-.88-.13-1.32-.12a37,37,0,0,0-6.5.2C6.4,77.47,3.28,79.27,2.25,83A10.41,10.41,0,0,0,5.9,94,16.75,16.75,0,0,0,16.81,97.1a16.76,16.76,0,0,0,10.41-3.74c1.3-1,2.37-2.38,3.62-3.51.29-.26.86-.19,1.3-.28.08.4.35,1,.19,1.18-.81,1-.16,1.5.5,2.08,3.09,2.72,8.42,2.76,12.17.15.41-.28,1.11-.16,1.67-.23-.16.56-.16,1.43-.51,1.61a20.46,20.46,0,0,1-5.39,2.24,10.78,10.78,0,0,1-10.34-3.41c-2.22,1.73-4.43,3.08-3.94,6.51s1.64,6.11,5,7.47a25.27,25.27,0,0,0,20.36-.06,15,15,0,0,0,8.09-8.31,7.44,7.44,0,0,1,.72-1.29c.77-1.16,1.19-1.13,2,0A8.64,8.64,0,0,0,68,101.07c2,.36,4,.46,5.53-.63-.5-1.54-1-2.86-1.32-4.21-.06-.29.5-.72.77-1.08.31.26.86.48.9.77.47,3.06,2.78,4.54,5.16,5.72a29.43,29.43,0,0,0,12.92,3.58c5.86,0,11.3-1.1,15.83-5.15.38-.34,1.17-.23,1.77-.34-.16.55-.16,1.25-.51,1.63-2.91,3.22-6.88,4.41-10.92,5.27-6.67,1.41-13,.07-19-2.88-2.37-1.17-4.48-2.54-7-.71-.15.1-.42,0-.58.11a3.21,3.21,0,0,0-1,.73,8.5,8.5,0,0,0,1.3,11.86c5.62,4.76,14.73,6.6,22.28,1.12,1.68-1.22,3.74-2.14,4.27-4.51,0-.23.66-.51.95-.46s1,.44,1,.72c.13,1.49,1.26,2,2.35,2.38,3.81,1.48,7.52,1.69,10.89-1.16.23-.19.45-.49.7-.53a7.92,7.92,0,0,1,1.46,0,4.82,4.82,0,0,1-.24,1.34,1.8,1.8,0,0,1-.88.77,2.05,2.05,0,0,0-1.27,2.8,50.29,50.29,0,0,0,3.44,7.63c2.17,3.73,6.12,5.05,9.91,6.35,7,2.41,14,1.44,20.83-.89A2.31,2.31,0,0,0,147.91,131Z"/><path class="cls-1" d="M147.91,131a2.31,2.31,0,0,1-.54.31c-6.85,2.33-13.8,3.3-20.83.89-3.79-1.3-7.74-2.62-9.91-6.35a50.29,50.29,0,0,1-3.44-7.63,2.05,2.05,0,0,1,1.27-2.8,1.8,1.8,0,0,0,.88-.77,4.82,4.82,0,0,0,.24-1.34,7.92,7.92,0,0,0-1.46,0c-.25,0-.47.34-.7.53-3.37,2.85-7.08,2.64-10.89,1.16-1.09-.42-2.22-.89-2.35-2.38,0-.28-.6-.64-1-.72s-.9.23-.95.46c-.53,2.37-2.59,3.29-4.27,4.51-7.55,5.48-16.66,3.64-22.28-1.12a8.5,8.5,0,0,1-1.3-11.86,3.21,3.21,0,0,1,1-.73c.16-.09.43,0,.58-.11,2.57-1.83,4.68-.46,7,.71,6,3,12.36,4.29,19,2.88,4-.86,8-2,10.92-5.27.35-.38.35-1.08.51-1.63-.6.11-1.39,0-1.77.34-4.53,4.05-10,5.2-15.83,5.15A29.43,29.43,0,0,1,79,101.64c-2.38-1.18-4.69-2.66-5.16-5.72,0-.29-.59-.51-.9-.77-.27.36-.83.79-.77,1.08.33,1.35.82,2.67,1.32,4.21-1.54,1.09-3.56,1-5.53.63a8.64,8.64,0,0,1-5.31-3.55c-.86-1.14-1.28-1.17-2,0a7.44,7.44,0,0,0-.72,1.29,15,15,0,0,1-8.09,8.31,25.27,25.27,0,0,1-20.36.06c-3.31-1.36-4.47-4-5-7.47s1.72-4.78,3.94-6.51A10.78,10.78,0,0,0,40.77,96.6a20.46,20.46,0,0,0,5.39-2.24c.35-.18.35-1,.51-1.61-.56.07-1.26,0-1.67.23-3.75,2.61-9.08,2.57-12.17-.15-.66-.58-1.31-1.1-.5-2.08.16-.21-.11-.78-.19-1.18-.44.09-1,0-1.3.28-1.25,1.13-2.32,2.46-3.62,3.51A16.76,16.76,0,0,1,16.81,97.1,16.75,16.75,0,0,1,5.9,94,10.41,10.41,0,0,1,2.25,83c1-3.7,4.15-5.5,7.69-6.21a37,37,0,0,1,6.5-.2c.44,0,.92.22,1.32.12A6.17,6.17,0,0,0,19.15,76a10.26,10.26,0,0,0-1-1.06,3.41,3.41,0,0,0-1-.28c1.14-3.73,3.35-6.48,7-7.8a44.47,44.47,0,0,1,24.26-2c1.25.24,1.88-.15,2.09-1.4a13.32,13.32,0,0,1,3.24-7.35,6.64,6.64,0,0,1,7.94-1.51,1.17,1.17,0,0,0,1.77-.68,8.17,8.17,0,0,1,2.12-3A10.37,10.37,0,0,1,76,49.75a4.42,4.42,0,0,0,3,0,17.33,17.33,0,0,1,5.23-.46c1.79.12,2.31,1,2.35,2.8.05,2.36.05,2.36,2.25,2,2-.33,3.09.63,3.25,2.62,0,.4.43.78.66,1.17.38-.3.94-.52,1.13-.92,1.19-2.48,2.11-5.12,3.48-7.49,1.82-3.14,4.83-5.1,8-6.63,2.39-1.16,5-.77,7.39.14a3.67,3.67,0,0,0,4.2-.82A9.18,9.18,0,0,1,124,39.5c2.95.23,5.92.42,8.83.94,3.39.6,5.54,2.88,6.9,6,1,2.21,1,2.21,3.2,1.4a3,3,0,0,1,3.62,2.4,12.29,12.29,0,0,1,.06,1.49c0,1.05.55,1.54,1.63,1.33,4.05-.78,6.92,1.34,9.59,3.91a2,2,0,0,1,.31,1.19c0,.34-.26.69-.22,1,.1.75.16,2,.5,2.14,1.26.35,1.12-.9,1.29-1.63.87-3.77,2.82-5.39,6.69-5.46.74,0,1.48,0,2.22,0,2,.11,2.48-.19,2.43-2.14-.06-2.48,1.09-4.35,2.62-6.11a4.38,4.38,0,0,1,3.52-1.6c2,0,4-.06,5.74,1.12.33.22,1-.09,1.53-.16-.18-.45-.25-1-.58-1.33A6.38,6.38,0,0,0,182,42.91c-4.73-1.77-6.3-4.94-4.67-9.66.41-1.2,0-1.61-1.16-1.82s-2-.51-3.14-.83a17.85,17.85,0,0,0,1.59-2.08c.19-.35,0-.89,0-1.34-.48.08-1.21,0-1.4.25-2.28,3.22-5.66,3.33-9.07,3.3a41.3,41.3,0,0,1-5.32-.42A4.87,4.87,0,0,1,154.52,26a10.31,10.31,0,0,1,2.64-9.48,2.48,2.48,0,0,0,.74-1.75c-.68-4.42,1.41-7.51,4.61-10.13s7-3,11-2.75c4.69.35,9.18,1.38,13.1,4.24a7.62,7.62,0,0,1,3.19,5.45c.34,2.55.36,2.53,3,2.23a22.83,22.83,0,0,1,14.59,2.91,10.44,10.44,0,0,1,4.89,11.49,20.23,20.23,0,0,1-3,7.7c-.31.44-.2,1.17-.29,1.76a8.2,8.2,0,0,0,1.64,0c3.19-.59,6.3-1.05,8.81,1.79,2,2.28,2,6.58-.17,8.68-1.11,1-2.44,1.86-3.58,2.87a7,7,0,0,0-1.06,1.7,5.19,5.19,0,0,0,2,.29c7.17-2,13.41.34,19.15,4.34a10.88,10.88,0,0,1,4,4.81c.78,2.22.65,4.84.54,7.27a7.13,7.13,0,0,1-3.79,6c-1.1.64-1.15,1.46-.47,2.49a11,11,0,0,1,2,6.1,5.89,5.89,0,0,1-5,6.11,21.71,21.71,0,0,1-6.49-.07c-2.6-.48-3.87-2.76-4.92-5-.91-1.9-1.39-2-2.7-.42-2.31,2.79-5.13,4.88-8.81,5.33a54.77,54.77,0,0,1-10.2.67c-2.26-.16-4.42-1.53-6.65-2.3a9.17,9.17,0,0,0-1.84-.22c.28.6.38,1.45.85,1.75,3.25,2.06,6.78,3.29,10.69,2.73,1.34-.2,1.78.35,2.24,1.45a37.77,37.77,0,0,1,3.14,16.64,32.52,32.52,0,0,0,0,3.56c.35,5.89-2.64,10.23-6.66,14-5.08,4.74-11.4,6.54-18.17,7.14a76.45,76.45,0,0,1-20.88-.67,36.8,36.8,0,0,1-12.3-4.69c-2.88-1.76-4.68-4.64-6.56-7.38-1.66-2.42-3.24-4.85-3.84-7.8-.09-.43-.73-.75-1.11-1.12-.23.52-.7,1.08-.63,1.56.5,3.4,2.36,6.16,4.34,8.84C144.34,126.48,146.13,128.7,147.91,131Z"/></g></g></g></g></g></svg>