<svg xmlns="http://www.w3.org/2000/svg" viewBox="0 0 642.05 287.13"><defs><style>.cls-1{fill:#fff;}</style></defs><g id="Layer_2" data-name="Layer 2"><g id="Homepage"><g id="Clouds"><g id="Clouds_Left"><g id="_03" data-name="03"><path d="M583.24,210.3c-.3,2.71-.24,5.38-.94,7.84-1.43,5.06-5.38,7.82-10.64,8.13a44.69,44.69,0,0,1-23.57-5c-1.48-.77-2.82-1.78-4.27-2.6a1.6,1.6,0,0,0-1.32-.13c-6.42,4-13.52,4.24-20.69,3.53-4.14-.41-8.23-1.43-12.35-2.13a1.63,1.63,0,0,0-1.29.32,5.79,5.79,0,0,1-4.93,1.77c-3.6-.14-7.18-.22-10.23-1.94-1.69,1.81-3.18,3.63-4.89,5.22-3.19,3-7.18,3.81-11.38,3.71-3.2-.08-6.4-.41-9.81-.64a14,14,0,0,1-5.14,7.3,11.26,11.26,0,0,1-5.79,2.36c-7.32,1-13.89-1-19.95-5-1.38-.91-2.78-1.79-4.26-2.75-1.59,5.93-5.47,9.36-11.41,10.77a26.42,26.42,0,0,0,1.92,2.55,7.69,7.69,0,0,1,1.87,6.75,17.53,17.53,0,0,1-5,10.33c-2.33,2.33-5.5,3.17-8.65,3.66-5.81.91-11.24-.48-16.39-3.12-1-.51-1.92-1.08-3.23-1.81.28,1.11.4,1.9.66,2.63,1.55,4.2,1.11,8.48.4,12.72-.44,2.69-2.27,4.73-4.26,6.47a33,33,0,0,1-5.15,3.71c-2.56,1.46-5.46,1.33-8.29,1.19-8.73-.44-16-4-22.24-10.07a1.44,1.44,0,0,0-1.25-.33c-6.91,3-13.8,2.43-20.69,0a.62.62,0,0,0-.25-.05c-1.29,1.95-2.42,3.91-3.79,5.68-3.1,4-7.42,5.64-12.34,5.73a86.16,86.16,0,0,1-9.09-.27,10.57,10.57,0,0,1-9.36-6.89c-.73-1.76-1.33-3.58-2-5.37-12.09.82-18.76-6.48-17.36-18.79L266.55,251a4.2,4.2,0,0,0-.26.78c-.67,5.84-4,10.24-7.77,14.42a10.32,10.32,0,0,1-3.07,2.16,29.94,29.94,0,0,1-17.34,3.16,2.9,2.9,0,0,0-3,1.2c-2.83,3.72-7.07,5.63-10.75,8.26a27.27,27.27,0,0,1-12.57,5.25c-8.83,1.11-17.36,1.27-25.06-4.49-3.42-2.55-6.08-5.72-9-8.69-1.82-1.85-2.11-4.27-2-6.76l-7.24-.58c-2.69,6.88-7.3,12.34-14.39,15.3s-14.22,1.93-21.47-.38a18.43,18.43,0,0,1-14.66,4.8c-3.66-.38-7.38-.29-11-.86-7.38-1.18-13.31-4.87-16.79-11.61-2-4-3.76-8.2-3.18-12.9a11.58,11.58,0,0,0-.08-1.44,27,27,0,0,1-20.45,7.13,27.63,27.63,0,0,1-19.44-9c-1.41,1.16-2.74,2.39-4.21,3.43a12.25,12.25,0,0,1-7.65,2.44c-5.16-.15-10.17-.62-14.43-4-3.89-3.13-7-6.88-8-11.78a11,11,0,0,1,2-9.43c-1.09-.62-2.09-1.18-3.07-1.77C5.23,231.79,1.42,226.21.53,218.62a54.8,54.8,0,0,1-.12-14.19,14.19,14.19,0,0,1,3.68-7.67c2.17-2.4,4.43-4.74,7.44-6.11A22.88,22.88,0,0,1,26,189.37c1.6-2.44,3.32-4.9,6.76-5.19-1-4-1.64-7.71.4-11.45s4.88-6,9.18-5.89a61.56,61.56,0,0,1-2.56-6.47c-1.46-5.39-1.08-10.6,2.13-15.4a9.11,9.11,0,0,1,6-4.05,20.34,20.34,0,0,1,13.25,1.89l1.14.53a68.42,68.42,0,0,1-.45-7.46c.36-7.63,3.35-13.61,10.62-17.14a33.08,33.08,0,0,1,17.06-3.11c4,.27,7.53,2.19,10.79,4.51.33.23.63.49,1,.78,3.49-3.35,7.88-3.89,12.42-4.06.24-1.94.5-3.77.69-5.62.5-5,5.09-9.7,10.61-9.53a2.36,2.36,0,0,0,1.79-.9A12.25,12.25,0,0,1,146.15,99a3.93,3.93,0,0,1,.46.72c7.82-4.67,11.82-3.07,15.34,4.23,5.49-1.17,10,.51,13.36,5.16a31.42,31.42,0,0,1,2.77-3,109.55,109.55,0,0,1,10-8.06c1.92-1.28,4.49-1.73,6.84-2.23,5.38-1.14,10.81-2.07,16.21-3.14.36-.07.72-.59.92-1,1.16-2.22,2.26-4.47,3.5-6.94-.6-.75-1.51-1.81-2.35-2.92-2.4-3.21-2.51-10.06-.29-13.26,1.74-2.49,4.29-3.24,7.12-3.32,1,0,1.46-.3,1.64-1.32a8.51,8.51,0,0,1,.77-2c-1.1-1.75-2.17-3.25-3-4.86a4.51,4.51,0,0,1,0-4.77,1.26,1.26,0,0,0-.41-1.93,28.36,28.36,0,0,0-3.83-2.68c-4.32-2.16-5.71-6-6.39-10.37a14.41,14.41,0,0,1,10.49-15.89c4.88-1.31,9.95-1.13,14.44,1.92.54.36,1.1.7,1.66,1.05h0c.64-2.57,1.23-5.13,1.91-7.68a14.13,14.13,0,0,1,1.1-2.81c1.75-3.41,4.61-5.13,8.4-4.74a4.4,4.4,0,0,0,4.94-2.58A11.25,11.25,0,0,1,259.19.8C268-1.47,273.46,1,277,9.26c.2.45.33.93.53,1.5a6.92,6.92,0,0,1,5.93-.1,1.48,1.48,0,0,0,1.21-.2c3.62-3,7.78-2.59,11.7-1.36,7.06,2.22,11.11,7.64,13.35,14.4.54,1.62.08,3.57.08,5.5A13.35,13.35,0,0,1,317,32.86a9.64,9.64,0,0,1,2.19,11,19,19,0,0,1-6,8.06,4.65,4.65,0,0,0-.57.62l3.22,2.6-.28.46c.5-.41,1-.78,1.49-1.23,3.56-3.47,7.84-3,12.1-2,1.08.25,2,1.36,3,2a15.17,15.17,0,0,0,2,1,2,2,0,0,0,.6,0c4.39.34,6.12,2.42,5.62,6.83,4.08.9,5.21,3.9,5.4,7.61.12,2.28.34,4.56-1,6.77l1.92.78c1-1.88,1.93-3.74,4.27-4.13a8.8,8.8,0,0,1,6.1,1.48c0-2.64.22-5,1.87-7.06,1.79-2.21,4.32-1.82,6.76-2,0-.49,0-.88-.08-1.27-.32-3,.73-4.78,3.57-5.9a9,9,0,0,1,7.22,0l1.83.78c.13-1.74.23-3.38.37-5,.8-9.4,10.91-15.9,19.22-14.79A17.56,17.56,0,0,1,410.21,47a1.89,1.89,0,0,0,2,.82c5.12-.19,10.36-.88,15.18,1.52,3.2,1.6,5.62,4.24,7.86,7,.31.38.61.78,1,1.3.68-.6,1.35-1.12,1.93-1.73,3.53-3.7,7.87-5,12.93-5.28A26.13,26.13,0,0,1,470,57.05c4.24,3.53,6.89,8,6.88,13.74v6.6c4.62-.5,8.74,1.07,10.95,5.82,2,4.24,2.81,8.64-.24,13.05,16.31-4.19,23.9,5.63,26.14,15.57a27.59,27.59,0,0,1,4-3.67c1.64-1,3.59-.82,5.53.2.82-4.65,4.11-6.89,7.93-8.37a18.71,18.71,0,0,1,15.42.73,12.8,12.8,0,0,1,2.77,2.51,56.92,56.92,0,0,1,6-2.73c4.75-1.55,12.17,2,14.22,7.51.94,2.51,1.69,5.09,2.42,7.3,1.51-1.16,3.17-3,5.24-3.92,4.77-2.12,9.72-3.16,14.61,0a2.31,2.31,0,0,0,1.61-.06c3.25-1,6.5-1.48,9.27,1,1,1,1.61,2.44,2.44,3.76a38.07,38.07,0,0,1,4.34-.46c6.13,0,9.06,5,6.09,10.41-.12.22-.25.43-.37.63,3.32,2.69,4.54,7.71,2.51,11,2.49,0,4.92-.09,7.35,0,5.92.25,11.32,1.76,14.82,7a12.59,12.59,0,0,1,1.69,4.62,23.3,23.3,0,0,1-.42,10.66,9.45,9.45,0,0,1-4.77,5.8,25.4,25.4,0,0,1-14.67,2.82l-4.27-.32c-.18,1.49-.37,2.86-.48,4.24a1.56,1.56,0,0,0,.42.9,14.81,14.81,0,0,1,3.8,10.85,8.92,8.92,0,0,1-5.84,8.23,19.76,19.76,0,0,1-11.37,1,34.85,34.85,0,0,1,1,4.19c.45,4.62-2.12,7.81-5.28,10.69-2.74,2.49-6.11,2.34-9.46,2.24C587.8,210.54,585.34,210.4,583.24,210.3Zm32.5-35.77c-.33.28-.6.5-.85.74-1.94,1.87-4.35,2-6.8,1.73-.43-.05-.78-.73-1.17-1.11a5.76,5.76,0,0,1,1.42-.72,16.6,16.6,0,0,1,2.12,0,5.28,5.28,0,0,0,4.6-3.22,3.28,3.28,0,0,0-1.73-4.78c-.72-.27-1.69-.58-1.17-1.49a2.09,2.09,0,0,1,2-.58c2.48,1.52,5.25,1.36,7.94,1.57a22.86,22.86,0,0,0,13.35-2.57,7.66,7.66,0,0,0,3.93-4.78,22.42,22.42,0,0,0,.13-10.8,8.84,8.84,0,0,0-1.24-2.87c-3-4.45-7.66-5.75-12.6-6-3.36-.17-6.75.33-10.13.47a1.57,1.57,0,0,1-1.25-.5,1.62,1.62,0,0,1,.25-1.33c.41-.63,1-1.13,1.47-1.72,1.72-2.2.54-6.84-2-8-1.48-.67-1.59-1.14-.71-2.52a12.08,12.08,0,0,0,1.35-2.53,4.26,4.26,0,0,0-3.35-5.71,15.24,15.24,0,0,0-5.5.43c-2.27.58-2.49.7-2.88-1.68a4.34,4.34,0,0,0-3.65-3.91,10.79,10.79,0,0,0-3.92.13,9.42,9.42,0,0,1-6.09-.58c-4.61-2-11.9-.09-15.12,4.1-1.25,1.63-2.25,3.46-3.44,5.15-.26.37-.85.52-1.29.76a6.18,6.18,0,0,1-.61-1.37,2.71,2.71,0,0,1,.24-1.18,14.71,14.71,0,0,0-.87-10.3c-2.27-5.47-9.85-10-16.54-5-.32.25-.63.51-1,.74-1.33.92-2,.87-2.9-.45a7.85,7.85,0,0,0-5.63-3.46,37.52,37.52,0,0,0-5-.36c-6.35,0-10.41,2.94-12.38,8.93-.49,1.5-1,1.65-2.26.68-1.76-1.33-3.8-1.33-5.11.4a60,60,0,0,0-3.31,5.67,7.12,7.12,0,0,1-1.13,1.21c-.33-.43-.85-.83-1-1.31a17.54,17.54,0,0,1-.32-3.16c-.19-5.2-2.83-9.22-6.46-12.55a13,13,0,0,0-10.15-3.22c-2.86.22-5.69.77-8.55,1.1-.54.06-1.46,0-1.6-.36a3,3,0,0,1,.2-1.8,3.65,3.65,0,0,1,.67-1,7.79,7.79,0,0,0,1.71-6.09,29.14,29.14,0,0,0-.94-3.79c-1.52-4.9-5.55-7.14-10.5-5.87-1.72.44-2.4-.14-1.87-1.82a21.35,21.35,0,0,0,.77-7,15.64,15.64,0,0,0-5.91-12A24.31,24.31,0,0,0,451,52.54c-4.52.3-8.39,1.52-11.52,4.82-.77.8-1.53,1.61-2.31,2.4s-1.5.79-2.17-.28a24.52,24.52,0,0,0-2.78-3.76c-2.65-2.79-5.38-5.61-9.56-5.87a86.65,86.65,0,0,0-9.39-.23,9.82,9.82,0,0,0-5.7,2.16,4.52,4.52,0,0,1-1.68.45c.13-.61.06-1.4.43-1.78a19.52,19.52,0,0,1,2.71-2,18.38,18.38,0,0,0-9.72-6.72c-7.22-2.12-15.67,3.59-17.64,8.44-1.54,3.78-1.58,7.66-1.21,11.62a6.15,6.15,0,0,1-.49,1.89c-.53-.35-1.25-.59-1.56-1.08a6.18,6.18,0,0,0-6.55-2.82c-4.08.56-5.1,2.28-3.9,6.16.46,1.51,0,2-1.63,1.88-.91-.08-1.82-.13-2.72-.12a3.81,3.81,0,0,0-3.43,1.54A5.91,5.91,0,0,0,363,78.54c.41.16.65.73,1,1.11a4.89,4.89,0,0,1-1.32.72,2.35,2.35,0,0,1-1-.14c-.47.82-.73,1.88-1.18,2-1.14.21-1-1-1.22-1.68a7.85,7.85,0,0,0-4.4-4.76c-3.4-1.6-5.35-.67-6.4,2.93-.48,1.67-.91,1.82-2.24.78a3.25,3.25,0,0,0-4.32,0c-1.83,1.26-3.72,2.44-5.66,3.52-.4.23-1.12-.11-1.69-.18.25-.48.39-1.14.79-1.42,1.49-1,3-2,4.61-2.9,3.12-1.83,4.58-4.44,4-8.09-.12-.75-.1-1.52-.2-2.26a4.23,4.23,0,0,0-3.82-3.77c-1.87-.15-2.18-.62-1.58-2.42.8-2.43-.18-4.09-2.73-4.5a11.54,11.54,0,0,0-2.56-.11,1.83,1.83,0,0,1-2-1.06,4.94,4.94,0,0,0-3.78-2.46c-3.89-.66-7.34,0-10.09,3a5.59,5.59,0,0,1-.57.51c-1.38,1.19-2,.94-2.91-.56A13.87,13.87,0,0,0,311,54.09a10.29,10.29,0,0,0-1.51-1,7.25,7.25,0,0,1,1.23-1.58,18.4,18.4,0,0,0,6.83-8.67,7.3,7.3,0,0,0-.69-7.22,11.09,11.09,0,0,0-7.3-4.72c-1.77-.31-1.94-.72-1.76-2.49.15-1.44.58-3,.15-4.33-2.09-6.34-5.89-11.38-12.54-13.3-3.37-1-7-1.24-10,1.6a2.57,2.57,0,0,1-2.17.21c-1.92-.69-3.64-1-5.37.5-1,.85-1.75.43-2.05-.85-.07-.3-.07-.61-.16-.9C273,3.12,267.91.59,260,2.55A10.22,10.22,0,0,0,253.08,8c-1.3,2.55-3.11,3.28-6,3.08-4.33-.32-6.35,1.3-7.74,5.46-1,2.92-1.94,5.83-1.63,9,.16,1.64-.77,2.11-2.18,1.27-.91-.54-1.78-1.15-2.65-1.76a14.82,14.82,0,0,0-13.37-1.74c-7.22,2.32-11,9.45-7.94,17.47a9.42,9.42,0,0,0,3.78,4.74c2,1.32,3.91,2.84,5.87,4.25,1,.74,1.2,1.49.33,2.52a3.6,3.6,0,0,0-.43,4.11,7.63,7.63,0,0,0,3.31,3.8c1.41.79,1.32,1.28.18,2.33a4.78,4.78,0,0,0-1.23,2.15c-.58,2.2-.52,2.22-2.77,2.36-5.56.35-7.31,2.2-7.35,7.77,0,.26,0,.51,0,.76-.21,3.42,1.68,5.78,4.06,8,.82-.67,1.62-1.27,2.36-1.94a12.37,12.37,0,0,1,10.35-3.2c.46.06.85.61,1.27.93-.39.32-.75.81-1.19.9a7.76,7.76,0,0,1-2.26.06,6.92,6.92,0,0,0-5,1.42,71.35,71.35,0,0,0-6.22,5.28,12.14,12.14,0,0,0-2.87,5.51c8.25,1.85,13.82,6.92,17.71,13.68a39.89,39.89,0,0,1,16.19-.68c-.8-3.37.58-5.8,3.33-7.47a24.47,24.47,0,0,1,4.9-2.34c2.69-.89,5.41-.34,8,.49a5.3,5.3,0,0,1,3.49,3.56,20,20,0,0,1,2.81-1.66c4.86-1.82,11.62,1.21,13.53,6.06.17.43-.14,1-.22,1.57a4.82,4.82,0,0,1-1.44-.76c-.92-1-1.61-2.21-2.62-3.09-3.89-3.41-7.54-3.31-11.27.1a2.18,2.18,0,0,1-1.68.63c-.43-.15-.8-1-.89-1.54a3.46,3.46,0,0,0-2.36-3c-4.77-1.7-9-.58-12.61,2.75a4.18,4.18,0,0,0,.91,6.83c3.24,1.77,5.89,4.11,7.16,7.69a5.39,5.39,0,0,1-.05,1.87c-.54-.32-1.09-.62-1.6-1-.15-.1-.21-.34-.3-.52-2.74-5.58-7.55-8.12-13.45-8.65a56,56,0,0,0-8.76.41,8.24,8.24,0,0,0-2,.69c.46,1,.85,1.7,1.14,2.45.89,2.3,1.8,4.6,2.58,7,.13.41-.31,1-.48,1.53a10.56,10.56,0,0,1-1.29-1c-.19-.19-.19-.56-.29-.85-2.52-7.35-5.81-14.23-12.33-19-3.76-2.73-7.86-4.49-12.73-3.42-4.49,1-9,1.89-13.54,2.63a20.18,20.18,0,0,0-10,4.28c-1.47,1.24-3,2.36-4.44,3.67-3.21,3-6.3,6.08-5,11.18a6,6,0,0,1-.35,3c-.09.36-.79.54-1.21.8a3.89,3.89,0,0,1-.51-1.27c-.06-1.76.06-3.52,0-5.28-.22-4.22-1.87-6.6-5.95-7.74-1.85-.52-4-.2-5.95-.14-1,0-1.81.21-2.34-1a19.26,19.26,0,0,0-2.43-4.26,4.15,4.15,0,0,0-4.9-1.42,30.71,30.71,0,0,0-4.44,1.93c-1.39.76-2.26.68-3.31-.66-3.89-5-12.69-4.59-16,.77a4.18,4.18,0,0,1-4.32,2.4c-3.94-.23-7.65,3.58-8.08,6.9-.28,2.15-.54,4.31-.66,6.47-.07,1.21-.54,1.77-1.75,1.74a15.62,15.62,0,0,0-1.81,0c-3.79.44-7.52.69-10.1,4.38-1,1.41-1.66,2.67-1.42,4.17.36,2.22,1.14,4.37,1.65,6.57a4.88,4.88,0,0,1-.21,1.62c-.45-.18-1.18-.24-1.32-.57-1.72-3.78-3-7.62-1.32-11.81a1.47,1.47,0,0,0-.25-1.35,19.07,19.07,0,0,0-10.18-4.35,31.18,31.18,0,0,0-15.89,3C66.81,123.63,64,129,63.8,135.66c-.12,3.43.79,6.9,1.18,10.35a5.78,5.78,0,0,1-.31,1.65A4.59,4.59,0,0,1,63.2,147c-4.37-4.48-9.74-5.24-15.5-4a7.67,7.67,0,0,0-3.77,2.56,11.81,11.81,0,0,0-2.86,7c-.36,5.43.44,10.49,4.76,14.4a1.54,1.54,0,0,1,.31,1.33c-.07.24-.73.44-1.13.46-1,0-2.12-.12-3.17-.08a7,7,0,0,0-5.46,2.56c-3.07,3.8-3.33,8-1.54,12.39.67,1.63.47,2.19-1.24,2.29a5.47,5.47,0,0,0-4.93,3c-1.11,2.32-2.39,2.38-4.81,2-9.07-1.29-14.32,1.37-19.76,9a11.47,11.47,0,0,0-1.74,4.61,48.22,48.22,0,0,0,0,13,20.37,20.37,0,0,0,10.7,16.57c2.88,1.67,2.87,1.67,5.26-.49a11.38,11.38,0,0,1,1.93-1.46,5.78,5.78,0,0,1,2.12-.71c.35,0,.76.43,1.15.67a4.33,4.33,0,0,1-.72,1c-1.62,1.24-3.4,2.3-4.9,3.67a9.63,9.63,0,0,0-2.57,11.69,20.42,20.42,0,0,0,8.93,10c4.22,2.46,8.87,2.42,13.41,1.91,3.26-.36,5.73-2.69,7.86-5.22a13,13,0,0,1-1.59-2.2,5.38,5.38,0,0,1-.13-1.9c.56.27,1.31.39,1.64.83,3.66,4.81,8.07,8.54,13.93,10.47A26.14,26.14,0,0,0,81.91,260a61.71,61.71,0,0,0,5.62-4.28,17,17,0,0,1-2.46-1.1,39.36,39.36,0,0,1-3.71-2.82c-.29-.26-.19-1-.28-1.45a5.54,5.54,0,0,1,1.6.17c.44.18.7.76,1.13,1,1.5.78,3,2,4.58,2.11,5.89.41,11.81.54,17.71.61,3.42,0,6.54-1.35,9.47-2.92a19.94,19.94,0,0,0,8.52-8.58c.21-.4,1-.49,1.55-.73,0,.54.27,1.19.06,1.6a18.17,18.17,0,0,1-5.7,7c-1.74,1.17-3.44,2.42-5.35,3.77,1.75,1.2,3.41,2.53,5.24,3.54a8.75,8.75,0,0,0,3.49.85c1.86.14,3.74,0,5.6.11.53,0,1,.5,1.53.76-.46.38-.91,1.05-1.4,1.08-5,.28-9.89.4-13.76-3.51-1.75-1.75-3.59-2.78-6-1.4a1.27,1.27,0,0,1-.59.12c-4,.1-8.07.27-12.1.27-2.45,0-4.9-.24-7.24-.37-1.4,5.82-.16,11.16,2.4,16.14,3.22,6.28,8.72,9.74,15.58,10.76,4.38.65,8.84.71,13.28.93,4,.19,7.23-1.76,10.43-4.08-.33-.31-.6-.52-.83-.78-1.17-1.31-2.37-2.59-3.45-4-.21-.28.09-1,.15-1.44a5.94,5.94,0,0,1,1.33.36c.28.15.45.53.64.83a12.25,12.25,0,0,0,5.4,4.49,24.86,24.86,0,0,0,15,1.48c8.35-1.65,13.92-7.17,17.16-15a3.07,3.07,0,0,0,0-1c0-.45-.15-1.13.08-1.32a1.57,1.57,0,0,1,1.36,0c3.6,1.58,7.32,1.4,11,.63,1.51-.32,2.88-1.31,4.34-1.92a5.07,5.07,0,0,1,1.47-.19c-.06.54.08,1.34-.22,1.57a15.2,15.2,0,0,1-3.34,2,28,28,0,0,1-3.59,1c0,3.32,0,4.08,1.54,5.62A115.19,115.19,0,0,0,187.8,280c6.91,5.84,15.11,5.39,23.36,4.43a26.09,26.09,0,0,0,12.05-4.94c4.11-2.9,8.69-5.17,11.75-9.41.28-.4,1.13-.5,1.73-.52,3.42-.1,6.9.22,10.26-.29,3.72-.56,7.57-1.62,10.25-4.47,3.55-3.77,6.62-7.93,7.19-13.37a3.3,3.3,0,0,1,2.07-2.88,22.12,22.12,0,0,0,9.59-8.56c1.05-1.72,2.22-3.37,3.21-5.13,3.12-5.53,5.91-11.17,5.87-17.76,0-3.78.05-7.55.14-11.33,0-.4.42-.8.64-1.2.4.29,1,.51,1.15.89a6.89,6.89,0,0,1,.35,2.39c-.1,3.48-.15,7-.46,10.43a36.31,36.31,0,0,1-1.33,7.25c-.83,2.74-2.1,5.34-3.2,8.05a9.53,9.53,0,0,0,.89.57c5.22,2.41,10.57,4,16.43,2.85.52-.11,1.17.39,1.76.61-.47.41-.88,1.06-1.42,1.19a19.44,19.44,0,0,1-9.76-.14c-3.05-.79-6-2-9.18-3.15-3.25,5.34-6.41,11-12.59,14.11,6.15,4.68,12.88,5.18,19.94,4.12a4.64,4.64,0,0,1,1.65.38c-.35.47-.62,1.24-1.07,1.37a14.88,14.88,0,0,1-3.58.52c-2.46.07-4.93,0-7.53,0a14.32,14.32,0,0,0,1.68,10.69,10.05,10.05,0,0,0,3.2,3.74,15.54,15.54,0,0,0,8.83,2.26c.61,0,1.2-.7,1.8-1.06l1.18-.67c.22.41.67.84.64,1.23-.22,2.6.9,4.85,1.83,7.12a8.54,8.54,0,0,0,7.66,5.57c3,.24,6,.29,8.93.27,5.85,0,10.07-2.87,12.91-7.86a9.22,9.22,0,0,0,1-2.67c.36-1.71.64-1.81,2.3-1.13,6.49,2.68,13.07,3.4,19.72.57a8.87,8.87,0,0,0,1.12-.72,8.38,8.38,0,0,1,2-1.09c.95-.25,1.31.33,1,1.23a4.11,4.11,0,0,1-.55.9c.24.32.43.62.66.88a10.72,10.72,0,0,0,1.4,1.38c6.1,4.46,12.62,7.72,20.47,7.67a13.08,13.08,0,0,0,9-3.18c.46-.4,1-.73,1.41-1.15,1.78-1.67,3.46-3.43,4-5.94,1.16-5.58.07-10.93-1.87-16.16a4.44,4.44,0,0,0-1.14-1.37,21.32,21.32,0,0,1-2.2-2.26c-.24-.33.05-1,.1-1.58.46.16,1.06.2,1.38.52,5.59,5.62,12.2,9.32,20.21,9.45s12.25-2.41,14.69-9c1.28-3.43,1.81-6.89-1.33-9.81-.44-.4-.68-1-1.13-1.41a3,3,0,0,0-1.68-.86,23.86,23.86,0,0,1-10.18-2c-.33-.13-.76-.21-.93-.46a2,2,0,0,1-.38-1.29c0-.18.73-.37,1.12-.36a3.62,3.62,0,0,1,1.13.42c4.54,1.87,9.13,2.48,13.88.75,4-1.45,6.7-4,7.79-8.18.93-3.53.86-3.48,3.92-1.36,6.12,4.25,12.4,7.84,20.36,7.28a12,12,0,0,0,10.11-6.11,18.83,18.83,0,0,0,1.18-2.91,22.73,22.73,0,0,1-2.83-1.57c-.42-.32-.58-1-.86-1.5a4.35,4.35,0,0,1,1.73-.13c1.23.45,2.35,1.18,3.57,1.65,4.27,1.66,8.7,1.63,13.15,1.1s7.81-3.06,10.25-6.78a2.94,2.94,0,0,0,.24-1.38,12.31,12.31,0,0,0,0-1.49c.52.05,1.14-.06,1.53.19,3.77,2.39,8,2.72,12.25,2.67a2.91,2.91,0,0,0,2.72-1.65c-1.25-.9-2.44-1.74-3.62-2.6-1.76-1.28-3.54-2.52-5.21-3.9-.42-.34-.45-1.15-.65-1.74.58.06,1.29-.08,1.71.21,2.73,1.91,5.31,4.05,8.11,5.84a19.79,19.79,0,0,0,5.84,2.67,66.72,66.72,0,0,0,15.65,1.46,23.6,23.6,0,0,0,12.15-3.26,3.69,3.69,0,0,1,4.44.2c8,5.35,16.74,7.37,26.29,7.05,6.36-.21,10.85-6.88,9.16-13.41a1.82,1.82,0,0,0-1.6-1.51,38.56,38.56,0,0,1-12.34-4.88,15.44,15.44,0,0,1-3.27-3.24c-.24-.27,0-1,.06-1.47a4.61,4.61,0,0,1,1.5.55c.88.74,1.5,1.86,2.47,2.37a65.17,65.17,0,0,0,7.83,3.61c5.78,2.14,11.85,2.33,17.93,2.28a7.88,7.88,0,0,0,4.8-1.58c4.9-3.66,7.85-11.17.55-16.45a9.6,9.6,0,0,1-3.94-7.21c-.07-.73-.23-1.72.85-1.72.35,0,1,.94,1,1.5.42,3.65,2.51,5.94,5.68,7.45,4.41,2.08,8.78,1.55,13-.4a7.22,7.22,0,0,0,2.78-2.46C620.51,184.42,619.31,178,615.74,174.53Z"/><path class="cls-1" d="M615.74,174.53c3.57,3.44,4.77,9.89,2.43,13.3a7.22,7.22,0,0,1-2.78,2.46c-4.25,2-8.62,2.48-13,.4-3.17-1.51-5.26-3.8-5.68-7.45-.07-.56-.67-1.5-1-1.5-1.08,0-.92,1-.85,1.72a9.6,9.6,0,0,0,3.94,7.21c7.3,5.28,4.35,12.79-.55,16.45a7.88,7.88,0,0,1-4.8,1.58c-6.08.05-12.15-.14-17.93-2.28a65.17,65.17,0,0,1-7.83-3.61c-1-.51-1.59-1.63-2.47-2.37a4.61,4.61,0,0,0-1.5-.55c0,.5-.3,1.2-.06,1.47a15.44,15.44,0,0,0,3.27,3.24,38.56,38.56,0,0,0,12.34,4.88,1.82,1.82,0,0,1,1.6,1.51c1.69,6.53-2.8,13.2-9.16,13.41-9.55.32-18.34-1.7-26.29-7.05a3.69,3.69,0,0,0-4.44-.2,23.6,23.6,0,0,1-12.15,3.26A66.72,66.72,0,0,1,513.13,219a19.79,19.79,0,0,1-5.84-2.67c-2.8-1.79-5.38-3.93-8.11-5.84-.42-.29-1.13-.15-1.71-.21.2.59.23,1.4.65,1.74,1.67,1.38,3.45,2.62,5.21,3.9,1.18.86,2.37,1.7,3.62,2.6a2.91,2.91,0,0,1-2.72,1.65c-4.29,0-8.48-.28-12.25-2.67-.39-.25-1-.14-1.53-.19a12.31,12.31,0,0,1,0,1.49,2.94,2.94,0,0,1-.24,1.38c-2.44,3.72-5.73,6.23-10.25,6.78s-8.88.56-13.15-1.1c-1.22-.47-2.34-1.2-3.57-1.65a4.35,4.35,0,0,0-1.73.13c.28.51.44,1.18.86,1.5a22.73,22.73,0,0,0,2.83,1.57,18.83,18.83,0,0,1-1.18,2.91,12,12,0,0,1-10.11,6.11c-8,.56-14.24-3-20.36-7.28-3.06-2.12-3-2.17-3.92,1.36-1.09,4.15-3.82,6.73-7.79,8.18-4.75,1.73-9.34,1.12-13.88-.75a3.62,3.62,0,0,0-1.13-.42c-.39,0-1.1.18-1.12.36a2,2,0,0,0,.38,1.29c.17.25.6.33.93.46a23.86,23.86,0,0,0,10.18,2,3,3,0,0,1,1.68.86c.45.38.69,1,1.13,1.41,3.14,2.92,2.61,6.38,1.33,9.81-2.44,6.57-6.74,9.11-14.69,9s-14.62-3.83-20.21-9.45c-.32-.32-.92-.36-1.38-.52,0,.54-.34,1.25-.1,1.58a21.32,21.32,0,0,0,2.2,2.26,4.44,4.44,0,0,1,1.14,1.37c1.94,5.23,3,10.58,1.87,16.16-.52,2.51-2.2,4.27-4,5.94-.44.42-1,.75-1.41,1.15a13.08,13.08,0,0,1-9,3.18c-7.85.05-14.37-3.21-20.47-7.67a10.72,10.72,0,0,1-1.4-1.38c-.23-.26-.42-.56-.66-.88a4.11,4.11,0,0,0,.55-.9c.28-.9-.08-1.48-1-1.23a8.38,8.38,0,0,0-2,1.09,8.87,8.87,0,0,1-1.12.72c-6.65,2.83-13.23,2.11-19.72-.57-1.66-.68-1.94-.58-2.3,1.13a9.22,9.22,0,0,1-1,2.67c-2.84,5-7.06,7.82-12.91,7.86-3,0-6,0-8.93-.27a8.54,8.54,0,0,1-7.66-5.57c-.93-2.27-2.05-4.52-1.83-7.12,0-.39-.42-.82-.64-1.23l-1.18.67c-.6.36-1.19,1-1.8,1.06a15.54,15.54,0,0,1-8.83-2.26,10.05,10.05,0,0,1-3.2-3.74A14.32,14.32,0,0,1,278,256c2.6,0,5.07.05,7.53,0a14.88,14.88,0,0,0,3.58-.52c.45-.13.72-.9,1.07-1.37a4.64,4.64,0,0,0-1.65-.38c-7.06,1.06-13.79.56-19.94-4.12,6.18-3.09,9.34-8.77,12.59-14.11,3.19,1.12,6.13,2.36,9.18,3.15a19.44,19.44,0,0,0,9.76.14c.54-.13.95-.78,1.42-1.19-.59-.22-1.24-.72-1.76-.61-5.86,1.17-11.21-.44-16.43-2.85a9.53,9.53,0,0,1-.89-.57c1.1-2.71,2.37-5.31,3.2-8.05a36.31,36.31,0,0,0,1.33-7.25c.31-3.47.36-6.95.46-10.43a6.89,6.89,0,0,0-.35-2.39c-.14-.38-.75-.6-1.15-.89-.22.4-.63.8-.64,1.2-.09,3.78-.17,7.55-.14,11.33,0,6.59-2.75,12.23-5.87,17.76-1,1.76-2.16,3.41-3.21,5.13a22.12,22.12,0,0,1-9.59,8.56,3.3,3.3,0,0,0-2.07,2.88c-.57,5.44-3.64,9.6-7.19,13.37-2.68,2.85-6.53,3.91-10.25,4.47-3.36.51-6.84.19-10.26.29-.6,0-1.45.12-1.73.52-3.06,4.24-7.64,6.51-11.75,9.41a26.09,26.09,0,0,1-12.05,4.94c-8.25,1-16.45,1.41-23.36-4.43a115.19,115.19,0,0,1-8.61-8.22c-1.49-1.54-1.49-2.3-1.54-5.62a28,28,0,0,0,3.59-1,15.2,15.2,0,0,0,3.34-2c.3-.23.16-1,.22-1.57a5.07,5.07,0,0,0-1.47.19c-1.46.61-2.83,1.6-4.34,1.92-3.69.77-7.41,1-11-.63a1.57,1.57,0,0,0-1.36,0c-.23.19-.07.87-.08,1.32a3.07,3.07,0,0,1,0,1c-3.24,7.84-8.81,13.36-17.16,15a24.86,24.86,0,0,1-15-1.48,12.25,12.25,0,0,1-5.4-4.49c-.19-.3-.36-.68-.64-.83a5.94,5.94,0,0,0-1.33-.36c-.06.49-.36,1.16-.15,1.44,1.08,1.39,2.28,2.67,3.45,4,.23.26.5.47.83.78-3.2,2.32-6.42,4.27-10.43,4.08-4.44-.22-8.9-.28-13.28-.93-6.86-1-12.36-4.48-15.58-10.76-2.56-5-3.8-10.32-2.4-16.14,2.34.13,4.79.38,7.24.37,4,0,8.07-.17,12.1-.27a1.27,1.27,0,0,0,.59-.12c2.45-1.38,4.29-.35,6,1.4,3.87,3.91,8.81,3.79,13.76,3.51.49,0,.94-.7,1.4-1.08-.51-.26-1-.73-1.53-.76-1.86-.11-3.74,0-5.6-.11a8.75,8.75,0,0,1-3.49-.85c-1.83-1-3.49-2.34-5.24-3.54,1.91-1.35,3.61-2.6,5.35-3.77a18.17,18.17,0,0,0,5.7-7c.21-.41,0-1.06-.06-1.6-.53.24-1.34.33-1.55.73a19.94,19.94,0,0,1-8.52,8.58c-2.93,1.57-6,3-9.47,2.92-5.9-.07-11.82-.2-17.71-.61-1.57-.11-3.08-1.33-4.58-2.11-.43-.22-.69-.8-1.13-1a5.54,5.54,0,0,0-1.6-.17c.09.5,0,1.19.28,1.45a39.36,39.36,0,0,0,3.71,2.82,17,17,0,0,0,2.46,1.1A61.71,61.71,0,0,1,81.91,260a26.14,26.14,0,0,1-22.54,2.45c-5.86-1.93-10.27-5.66-13.93-10.47-.33-.44-1.08-.56-1.64-.83a5.38,5.38,0,0,0,.13,1.9,13,13,0,0,0,1.59,2.2c-2.13,2.53-4.6,4.86-7.86,5.22-4.54.51-9.19.55-13.41-1.91a20.42,20.42,0,0,1-8.93-10,9.63,9.63,0,0,1,2.57-11.69c1.5-1.37,3.28-2.43,4.9-3.67a4.33,4.33,0,0,0,.72-1c-.39-.24-.8-.71-1.15-.67a5.78,5.78,0,0,0-2.12.71,11.38,11.38,0,0,0-1.93,1.46c-2.39,2.16-2.38,2.16-5.26.49a20.37,20.37,0,0,1-10.7-16.57,48.22,48.22,0,0,1,0-13,11.47,11.47,0,0,1,1.74-4.61c5.44-7.66,10.69-10.32,19.76-9,2.42.35,3.7.29,4.81-2a5.47,5.47,0,0,1,4.93-3c1.71-.1,1.91-.66,1.24-2.29-1.79-4.41-1.53-8.59,1.54-12.39a7,7,0,0,1,5.46-2.56c1,0,2.12.11,3.17.08.4,0,1.06-.22,1.13-.46a1.54,1.54,0,0,0-.31-1.33c-4.32-3.91-5.12-9-4.76-14.4a11.81,11.81,0,0,1,2.86-7,7.67,7.67,0,0,1,3.77-2.56c5.76-1.28,11.13-.52,15.5,4a4.59,4.59,0,0,0,1.47.65A5.78,5.78,0,0,0,65,146c-.39-3.45-1.3-6.92-1.18-10.35.23-6.71,3-12,9.45-15.16a31.18,31.18,0,0,1,15.89-3,19.07,19.07,0,0,1,10.18,4.35,1.47,1.47,0,0,1,.25,1.35c-1.7,4.19-.4,8,1.32,11.81.14.33.87.39,1.32.57a4.88,4.88,0,0,0,.21-1.62c-.51-2.2-1.29-4.35-1.65-6.57-.24-1.5.44-2.76,1.42-4.17,2.58-3.69,6.31-3.94,10.1-4.38a15.62,15.62,0,0,1,1.81,0c1.21,0,1.68-.53,1.75-1.74.12-2.16.38-4.32.66-6.47.43-3.32,4.14-7.13,8.08-6.9a4.18,4.18,0,0,0,4.32-2.4c3.28-5.36,12.08-5.73,16-.77,1.05,1.34,1.92,1.42,3.31.66a30.71,30.71,0,0,1,4.44-1.93,4.15,4.15,0,0,1,4.9,1.42A19.26,19.26,0,0,1,160,105c.53,1.22,1.35,1,2.34,1,2-.06,4.1-.38,5.95.14,4.08,1.14,5.73,3.52,5.95,7.74.08,1.76,0,3.52,0,5.28a3.89,3.89,0,0,0,.51,1.27c.42-.26,1.12-.44,1.21-.8a6,6,0,0,0,.35-3c-1.32-5.1,1.77-8.17,5-11.18,1.4-1.31,3-2.43,4.44-3.67a20.18,20.18,0,0,1,10-4.28c4.54-.74,9-1.65,13.54-2.63,4.87-1.07,9,.69,12.73,3.42,6.52,4.73,9.81,11.61,12.33,19,.1.29.1.66.29.85a10.56,10.56,0,0,0,1.29,1c.17-.52.61-1.12.48-1.53-.78-2.35-1.69-4.65-2.58-7-.29-.75-.68-1.47-1.14-2.45a8.24,8.24,0,0,1,2-.69,56,56,0,0,1,8.76-.41c5.9.53,10.71,3.07,13.45,8.65.09.18.15.42.3.52.51.35,1.06.65,1.6,1a5.39,5.39,0,0,0,.05-1.87c-1.27-3.58-3.92-5.92-7.16-7.69a4.18,4.18,0,0,1-.91-6.83c3.63-3.33,7.84-4.45,12.61-2.75a3.46,3.46,0,0,1,2.36,3c.09.57.46,1.39.89,1.54a2.18,2.18,0,0,0,1.68-.63c3.73-3.41,7.38-3.51,11.27-.1,1,.88,1.7,2.11,2.62,3.09a4.82,4.82,0,0,0,1.44.76c.08-.53.39-1.14.22-1.57-1.91-4.85-8.67-7.88-13.53-6.06a20,20,0,0,0-2.81,1.66A5.3,5.3,0,0,0,264,96.27c-2.63-.83-5.35-1.38-8-.49a24.47,24.47,0,0,0-4.9,2.34c-2.75,1.67-4.13,4.1-3.33,7.47a39.89,39.89,0,0,0-16.19.68c-3.89-6.76-9.46-11.83-17.71-13.68a12.14,12.14,0,0,1,2.87-5.51,71.35,71.35,0,0,1,6.22-5.28,6.92,6.92,0,0,1,5-1.42,7.76,7.76,0,0,0,2.26-.06c.44-.09.8-.58,1.19-.9-.42-.32-.81-.87-1.27-.93a12.37,12.37,0,0,0-10.35,3.2c-.74.67-1.54,1.27-2.36,1.94-2.38-2.22-4.27-4.58-4.06-8,0-.25,0-.5,0-.76,0-5.57,1.79-7.42,7.35-7.77,2.25-.14,2.19-.16,2.77-2.36a4.78,4.78,0,0,1,1.23-2.15c1.14-1.05,1.23-1.54-.18-2.33a7.63,7.63,0,0,1-3.31-3.8,3.6,3.6,0,0,1,.43-4.11c.87-1,.68-1.78-.33-2.52-2-1.41-3.84-2.93-5.87-4.25a9.42,9.42,0,0,1-3.78-4.74c-3.08-8,.72-15.15,7.94-17.47a14.82,14.82,0,0,1,13.37,1.74c.87.61,1.74,1.22,2.65,1.76,1.41.84,2.34.37,2.18-1.27-.31-3.19.65-6.1,1.63-9,1.39-4.16,3.41-5.78,7.74-5.46,2.84.2,4.65-.53,6-3.08A10.22,10.22,0,0,1,260,2.55c7.94-2,13.07.57,15.62,8.81.09.29.09.6.16.9.3,1.28,1.08,1.7,2.05.85,1.73-1.54,3.45-1.19,5.37-.5a2.57,2.57,0,0,0,2.17-.21c3-2.84,6.65-2.57,10-1.6,6.65,1.92,10.45,7,12.54,13.3.43,1.29,0,2.89-.15,4.33-.18,1.77,0,2.18,1.76,2.49a11.09,11.09,0,0,1,7.3,4.72,7.3,7.3,0,0,1,.69,7.22,18.4,18.4,0,0,1-6.83,8.67,7.25,7.25,0,0,0-1.23,1.58,10.29,10.29,0,0,1,1.51,1,13.87,13.87,0,0,1,2.72,2.69c.93,1.5,1.53,1.75,2.91.56a5.59,5.59,0,0,0,.57-.51c2.75-3,6.2-3.69,10.09-3A4.94,4.94,0,0,1,331,56.26a1.83,1.83,0,0,0,2,1.06,11.54,11.54,0,0,1,2.56.11c2.55.41,3.53,2.07,2.73,4.5-.6,1.8-.29,2.27,1.58,2.42a4.23,4.23,0,0,1,3.82,3.77c.1.74.08,1.51.2,2.26.58,3.65-.88,6.26-4,8.09-1.57.91-3.12,1.87-4.61,2.9-.4.28-.54.94-.79,1.42.57.07,1.29.41,1.69.18,1.94-1.08,3.83-2.26,5.66-3.52a3.25,3.25,0,0,1,4.32,0c1.33,1,1.76.89,2.24-.78,1.05-3.6,3-4.53,6.4-2.93a7.85,7.85,0,0,1,4.4,4.76c.23.71.08,1.89,1.22,1.68.45-.08.71-1.14,1.18-2a2.35,2.35,0,0,0,1,.14,4.89,4.89,0,0,0,1.32-.72c-.32-.38-.56-1-1-1.11a5.91,5.91,0,0,1-2.83-9.33,3.81,3.81,0,0,1,3.43-1.54c.9,0,1.81,0,2.72.12,1.62.15,2.09-.37,1.63-1.88-1.2-3.88-.18-5.6,3.9-6.16a6.18,6.18,0,0,1,6.55,2.82c.31.49,1,.73,1.56,1.08a6.15,6.15,0,0,0,.49-1.89c-.37-4-.33-7.84,1.21-11.62,2-4.85,10.42-10.56,17.64-8.44A18.38,18.38,0,0,1,409,48.42a19.52,19.52,0,0,0-2.71,2c-.37.38-.3,1.17-.43,1.78a4.52,4.52,0,0,0,1.68-.45,9.82,9.82,0,0,1,5.7-2.16,86.65,86.65,0,0,1,9.39.23c4.18.26,6.91,3.08,9.56,5.87A24.52,24.52,0,0,1,435,59.48c.67,1.07,1.34,1.12,2.17.28s1.54-1.6,2.31-2.4c3.13-3.3,7-4.52,11.52-4.82a24.31,24.31,0,0,1,18.12,6.26,15.64,15.64,0,0,1,5.91,12,21.35,21.35,0,0,1-.77,7c-.53,1.68.15,2.26,1.87,1.82,4.95-1.27,9,1,10.5,5.87a29.14,29.14,0,0,1,.94,3.79,7.79,7.79,0,0,1-1.71,6.09,3.65,3.65,0,0,0-.67,1,3,3,0,0,0-.2,1.8c.14.31,1.06.42,1.6.36,2.86-.33,5.69-.88,8.55-1.1a13,13,0,0,1,10.15,3.22c3.63,3.33,6.27,7.35,6.46,12.55a17.54,17.54,0,0,0,.32,3.16c.1.48.62.88,1,1.31a7.12,7.12,0,0,0,1.13-1.21,60,60,0,0,1,3.31-5.67c1.31-1.73,3.35-1.73,5.11-.4,1.28,1,1.77.82,2.26-.68,2-6,6-9,12.38-8.93a37.52,37.52,0,0,1,5,.36,7.85,7.85,0,0,1,5.63,3.46c.9,1.32,1.57,1.37,2.9.45.33-.23.64-.49,1-.74,6.69-5,14.27-.47,16.54,5a14.71,14.71,0,0,1,.87,10.3,2.71,2.71,0,0,0-.24,1.18,6.18,6.18,0,0,0,.61,1.37c.44-.24,1-.39,1.29-.76,1.19-1.69,2.19-3.52,3.44-5.15,3.22-4.19,10.51-6.11,15.12-4.1a9.42,9.42,0,0,0,6.09.58,10.79,10.79,0,0,1,3.92-.13,4.34,4.34,0,0,1,3.65,3.91c.39,2.38.61,2.26,2.88,1.68a15.24,15.24,0,0,1,5.5-.43,4.26,4.26,0,0,1,3.35,5.71,12.08,12.08,0,0,1-1.35,2.53c-.88,1.38-.77,1.85.71,2.52,2.55,1.16,3.73,5.8,2,8-.46.59-1.06,1.09-1.47,1.72a1.62,1.62,0,0,0-.25,1.33,1.57,1.57,0,0,0,1.25.5c3.38-.14,6.77-.64,10.13-.47,4.94.26,9.59,1.56,12.6,6a8.84,8.84,0,0,1,1.24,2.87,22.42,22.42,0,0,1-.13,10.8,7.66,7.66,0,0,1-3.93,4.78,22.86,22.86,0,0,1-13.35,2.57c-2.69-.21-5.46,0-7.94-1.57a2.09,2.09,0,0,0-2,.58c-.52.91.45,1.22,1.17,1.49a3.28,3.28,0,0,1,1.73,4.78,5.28,5.28,0,0,1-4.6,3.22,16.6,16.6,0,0,0-2.12,0,5.76,5.76,0,0,0-1.42.72c.39.38.74,1.06,1.17,1.11,2.45.25,4.86.14,6.8-1.73C615.14,175,615.41,174.81,615.74,174.53Zm-443,47.86a46.61,46.61,0,0,0,1,6.9c2.13,7.24,5.94,13.29,12.76,17.14,6,3.42,12.13,6.68,19.17,7.53a24.09,24.09,0,0,0,11.09-.76c.52-.18.85-.89,1.27-1.36-.6-.14-1.29-.55-1.81-.4a24.56,24.56,0,0,1-10.51.59c-6.66-.89-12.42-4-18.17-7.21-6.27-3.51-9.85-9-11.84-15.64-1.29-4.29-1-8.81-.59-13.25a19.61,19.61,0,0,1,1.05-3.29c.15-.59.33-1.63.08-1.79-.95-.6-1.58.23-1.78,1a64.59,64.59,0,0,0-1.43,6.74c-.13.87-.22,1.54-1.11,1.88-2.2.86-4.33,2.13-6.61,2.52A34,34,0,0,1,145,220.53c-5.71-2.61-9.61-7.26-13.64-11.78-.49-.55-.88-1.52-1.72-.85-.29.23-.2,1.49.16,1.9,4.92,5.71,9.9,11.25,17.52,13.67C155.93,226.21,164.31,226.35,172.7,222.39Zm325.51-20.46c-.87,1.22-1.55,2.27-2.33,3.25-2.1,2.62-4.33,5.35-7.62,6.27-6.66,1.86-13.29,1.85-19.43-2-1.54-1-3-2.08-4.55-3-.35-.21-1,0-1.47.09.14.47.13,1.17.45,1.39a76.94,76.94,0,0,0,7,4.49c4.47,2.37,9.36,2.23,14.23,1.89a14.78,14.78,0,0,0,10-4.76,59.12,59.12,0,0,0,4.83-6c.74-1,1.36-1.69,2.76-1.54a27.83,27.83,0,0,0,5,0c3.21-.24,6.52-.19,9.59-1,6.94-1.85,10.72-7.18,13.39-13.44.18-.42-.16-1.05-.26-1.59-.47.26-1.13.39-1.39.79-.81,1.27-1.48,2.64-2.18,4-3.09,5.91-8.12,8.82-14.63,9.22-3.33.21-6.67.18-10,.14a25.17,25.17,0,0,1-12.44-3.36c-1.7-1-3.31-2.12-5-3.07-.41-.23-1.09,0-1.64.06.15.47.14,1.14.46,1.37,3.48,2.54,7.12,4.79,11.38,5.83C495.54,201.21,496.7,201.54,498.21,201.93ZM39.53,220.26a5.57,5.57,0,0,0,4.53,4.67,27,27,0,0,0,3.57.67,6.39,6.39,0,0,0,5.31-2.9,1.41,1.41,0,0,0-.13-1.2c-.14-.19-.75-.17-1.08-.05a2.47,2.47,0,0,0-.91.77c-2,2.31-4.31,1.34-6.58.75-2-.52-2.77-1.93-2.86-3.94-.06-1.37-.89-1.76-2.07-1a8.07,8.07,0,0,1-8,.3c-4.27-2.06-7.72-5.11-9.34-9.81a9.27,9.27,0,0,1,4.37-11.4c1.89-.94,4.11-1.2,6.15-1.84a5.3,5.3,0,0,0,1.34-.91c-.43-.33-.84-.92-1.28-.93a12.16,12.16,0,0,0-3.29.35c-8.33,2.12-12.32,10.18-8.07,17.76a22.08,22.08,0,0,0,3.64,4.6C28.88,220.16,33.57,222.22,39.53,220.26Zm172.55-80.85c-.85,0-1.71,0-2.57,0a4.51,4.51,0,0,0-1,.16c-5.31,1.42-10.28,3.67-13.94,7.81-4.8,5.43-6.57,11.87-3.46,18.3.23.46.91.71,1.38,1.05a6.33,6.33,0,0,0,.36-1.67,4.62,4.62,0,0,0-.51-1.41,12.52,12.52,0,0,1-.08-8.58c2.65-7.83,9-11.12,16.15-13.5a8.78,8.78,0,0,1,2.25-.26,33.13,33.13,0,0,1,12.61,2.11c.47.15,1.12-.21,1.69-.34-.34-.47-.58-1.2-1-1.37A31.41,31.41,0,0,0,212.08,139.41ZM63,208.85l1.21-1a17.67,17.67,0,0,0-1.65-.91,26.36,26.36,0,0,1-3.43-1.37c-2-1.21-2.54-3.39-3.26-5.44-.18-.49-.74-.85-1.12-1.28-.25.54-.77,1.14-.67,1.61A15.13,15.13,0,0,0,55.35,204,8.35,8.35,0,0,0,63,208.85Z"/><path d="M172.7,222.39c-8.39,4-16.77,3.82-25.42,1.08-7.62-2.42-12.6-8-17.52-13.67-.36-.41-.45-1.67-.16-1.9.84-.67,1.23.3,1.72.85,4,4.52,7.93,9.17,13.64,11.78A34,34,0,0,0,165.24,223c2.28-.39,4.41-1.66,6.61-2.52.89-.34,1-1,1.11-1.88a64.59,64.59,0,0,1,1.43-6.74c.2-.76.83-1.59,1.78-1,.25.16.07,1.2-.08,1.79a19.61,19.61,0,0,0-1.05,3.29c-.37,4.44-.7,9,.59,13.25,2,6.6,5.57,12.13,11.84,15.64,5.75,3.21,11.51,6.32,18.17,7.21a24.56,24.56,0,0,0,10.51-.59c.52-.15,1.21.26,1.81.4-.42.47-.75,1.18-1.27,1.36a24.09,24.09,0,0,1-11.09.76c-7-.85-13.13-4.11-19.17-7.53-6.82-3.85-10.63-9.9-12.76-17.14A46.61,46.61,0,0,1,172.7,222.39Z"/><path d="M498.21,201.93c-1.51-.39-2.67-.72-3.84-1-4.26-1-7.9-3.29-11.38-5.83-.32-.23-.31-.9-.46-1.37.55,0,1.23-.29,1.64-.06,1.71,1,3.32,2.09,5,3.07a25.17,25.17,0,0,0,12.44,3.36c3.33,0,6.67.07,10-.14,6.51-.4,11.54-3.31,14.63-9.22.7-1.34,1.37-2.71,2.18-4,.26-.4.92-.53,1.39-.79.1.54.44,1.17.26,1.59-2.67,6.26-6.45,11.59-13.39,13.44-3.07.82-6.38.77-9.59,1a27.83,27.83,0,0,1-5,0c-1.4-.15-2,.51-2.76,1.54a59.12,59.12,0,0,1-4.83,6,14.78,14.78,0,0,1-10,4.76c-4.87.34-9.76.48-14.23-1.89a76.94,76.94,0,0,1-7-4.49c-.32-.22-.31-.92-.45-1.39.5,0,1.12-.3,1.47-.09,1.56.93,3,2,4.55,3,6.14,3.86,12.77,3.87,19.43,2,3.29-.92,5.52-3.65,7.62-6.27C496.66,204.2,497.34,203.15,498.21,201.93Z"/><path d="M39.53,220.26c-6,2-10.65-.1-14.7-4.14a22.08,22.08,0,0,1-3.64-4.6c-4.25-7.58-.26-15.64,8.07-17.76a12.16,12.16,0,0,1,3.29-.35c.44,0,.85.6,1.28.93a5.3,5.3,0,0,1-1.34.91c-2,.64-4.26.9-6.15,1.84A9.27,9.27,0,0,0,22,208.49c1.62,4.7,5.07,7.75,9.34,9.81a8.07,8.07,0,0,0,8-.3c1.18-.73,2-.34,2.07,1,.09,2,.86,3.42,2.86,3.94,2.27.59,4.61,1.56,6.58-.75a2.47,2.47,0,0,1,.91-.77c.33-.12.94-.14,1.08.05a1.41,1.41,0,0,1,.13,1.2,6.39,6.39,0,0,1-5.31,2.9,27,27,0,0,1-3.57-.67A5.57,5.57,0,0,1,39.53,220.26Z"/><path d="M212.08,139.41a31.41,31.41,0,0,1,11.81,2.31c.45.17.69.9,1,1.37-.57.13-1.22.49-1.69.34a33.13,33.13,0,0,0-12.61-2.11,8.78,8.78,0,0,0-2.25.26c-7.15,2.38-13.5,5.67-16.15,13.5a12.52,12.52,0,0,0,.08,8.58,4.62,4.62,0,0,1,.51,1.41,6.33,6.33,0,0,1-.36,1.67c-.47-.34-1.15-.59-1.38-1.05-3.11-6.43-1.34-12.87,3.46-18.3,3.66-4.14,8.63-6.39,13.94-7.81a4.51,4.51,0,0,1,1-.16C210.37,139.4,211.23,139.41,212.08,139.41Z"/><path d="M63,208.85A8.35,8.35,0,0,1,55.35,204a15.13,15.13,0,0,1-1.27-3.54c-.1-.47.42-1.07.67-1.61.38.43.94.79,1.12,1.28.72,2.05,1.26,4.23,3.26,5.44a26.36,26.36,0,0,0,3.43,1.37,17.67,17.67,0,0,1,1.65.91Z"/></g></g></g></g></g></svg>