<svg xmlns="http://www.w3.org/2000/svg" viewBox="0 0 311.92 159.64"><defs><style>.cls-1{fill:#fff;}</style></defs><g id="Layer_2" data-name="Layer 2"><g id="Homepage"><g id="Clouds"><g id="Clouds_Left"><g id="_02" data-name="02"><path d="M192.68,137.78c-1.33,6.09-3.9,11.41-10.34,14.07-6.13,2.53-11.93,1.79-17.69-1.33-2,3.31-5,5.18-8.27,6.81a21.8,21.8,0,0,1-27.44-6.68c-1-1.44-1.35-3.42-2-5.05-2.37-.21-4.89-.25-7.32-.71a8.85,8.85,0,0,1-6-4.49c-.42.66-.69,1.11-1,1.54-3.15,4.56-7.26,7.54-13,7.29a59.87,59.87,0,0,1-8.74-1.12c-2-.38-3.3-1.83-4.42-3.48-2.68-4-3.72-8.11-1.76-12.7a4.58,4.58,0,0,0,.19-.85,21.13,21.13,0,0,1-3.87-1.26,23.33,23.33,0,0,1-3.38-2.66c-.21.41-.48.9-.71,1.4A21.36,21.36,0,0,1,67,138.5c-2.59,1.32-5.39,1.06-8.13.92-6.19-.32-11.42-2.47-14.75-8.07a12,12,0,0,1-1.69-6.76c-12.27,3.94-16.19,2.91-24-6.31-1.8,1.43-4,1.65-6.21,1.82A9.26,9.26,0,0,1,3.64,116c-4.22-5.7-5.47-10.72,0-17.23,4.57-5.4,10.62-6,17.16-4.71a3.48,3.48,0,0,0,2-.33c2-.91,3.94-1.93,6.15-3-.06-.61-.17-1.57-.24-2.53-.2-2.75-.85-5.56-.47-8.23a29.83,29.83,0,0,1,2.8-9.08c5.25-10.4,14-16,25.46-17.35a65.29,65.29,0,0,1,8.83-.52c4.79.11,8.85,2.48,13,4.59.35.18.68.39,1.07.62.73-1.19,1.39-2.33,2.12-3.44A27.06,27.06,0,0,1,97.27,43.43a52.72,52.72,0,0,1,27.45-1l.86.2a2.42,2.42,0,0,0,.47,0c-.09-.92-.15-1.83-.27-2.74a34.58,34.58,0,0,1,.86-14.21,13.05,13.05,0,0,1,12.29-9.32c3.78,0,7.61-.32,10.93,1.49l3.45-8.21a13.61,13.61,0,0,1,9-7.81c7-2.14,14.13-2.84,21.1.25a8.34,8.34,0,0,1,3,2.23c1.62,2,3,4.12,4.5,6.25,1.13-.8,2.38-1.73,3.66-2.59a12.1,12.1,0,0,1,6.58-1.92,26,26,0,0,1,10.19,1.35,14,14,0,0,1,8.17,7.48,21,21,0,0,1,1.9,10.8c0,.31.3.75.59,1a68.15,68.15,0,0,1,5.23,4.48,7.31,7.31,0,0,1,1.87,3.74,35.78,35.78,0,0,1,.35,8.07c-.14,1.67-1.19,3.26-1.91,5.09.92,1.67.88,1.45,3,1.1a65.14,65.14,0,0,1,8.5-.74,47.07,47.07,0,0,1,5,.43,4.89,4.89,0,0,1,4.49,3.32A41.65,41.65,0,0,1,250.14,58c.18.9.42,1.24,1.37,1.25,3,0,4.56,1.21,5.16,4.18.46,2.29.57,4.65.85,7.11,2.49-2.08,5.34-2.18,8.3-.81,3.25,1.51,3.44,4.5,3.47,7.69C284,74.67,293.15,80.9,298,94.64c1.45-.11,3.19-.35,4.94-.34,2.74,0,5.36.93,6.82,3.2a15.65,15.65,0,0,1,2.08,6.38c.86,6.69-4.28,10.27-9.4,10.74-2,.18-4,0-6,0a14.57,14.57,0,0,1-13.2,7.85c-2.5,0-5,0-7.65,0-.09.39-.25,1.15-.41,1.91-1.38,6.64-5.78,10.57-12.06,12-7.89,1.79-15.84,1.88-23.46-1.66a51.89,51.89,0,0,0-5.24-2,1.9,1.9,0,0,0-1.51.3c-3.85,3.05-8,5.69-12.76,6.87a38.29,38.29,0,0,1-9.81.81,77.18,77.18,0,0,1-10.72-1A60,60,0,0,1,192.68,137.78Zm-145.57-18c-2.27,2-3.27,4.41-2.64,7.24a12.34,12.34,0,0,0,5.82,8,16.16,16.16,0,0,0,8,2.42c2.69.1,5.45.54,8-.75a19.81,19.81,0,0,0,10-11.34c.21-.59.89-1.39,1.35-1.39s1.05.78,1.54,1.25c1.16,1.09,2.13,2.54,3.49,3.2s3,1.22,4.3-.44c.31-.38,1.14-.33,1.73-.48a8.48,8.48,0,0,1-.34,1.68,44.81,44.81,0,0,0-2.43,5.46c-1.21,4.37,1,7.75,3.84,10.69a6,6,0,0,0,3.34,1.41,38.38,38.38,0,0,0,7.78.47,14.56,14.56,0,0,0,5.38-1.72,13.56,13.56,0,0,0,6-6.71c.66-1.41,1.41-1.46,2.39-.24a6,6,0,0,1,.43.6c2.7,4.44,7,4.63,11.15,4.23a1.52,1.52,0,0,0,.82-.31c1.44-1.29,2.82-2.64,4.28-3.9a4.83,4.83,0,0,1,1.48-.55c0,.53.24,1.22,0,1.56-.9,1.22-2,2.3-3,3.46-.3.36-.77.87-.69,1.2.38,1.65.57,3.5,1.47,4.87a17.29,17.29,0,0,0,8.93,6.77c7.28,2.54,14.08,1.11,20.28-3.36a11.19,11.19,0,0,0,4.26-7.31c.16-.78,0-1.29-.94-1.43a14.66,14.66,0,0,1-6.47-3.08c-.4-.3-.5-1-.73-1.54.56,0,1.21-.2,1.67,0,1.32.63,2.48,1.72,3.86,2.12,5.12,1.48,10,1.07,14.46-2.23.39-.29,1.11-.13,1.68-.18-.17.54-.17,1.3-.54,1.6a15.16,15.16,0,0,1-7.79,3.32c-3.17.34-3.2.29-3.62,3.44a1.63,1.63,0,0,0,.64,1.32,16.83,16.83,0,0,0,16.68.22A13.06,13.06,0,0,0,187,146.1a16.44,16.44,0,0,0,3.77-9.6c.07-1.71.8-1.94,2.34-1.18a35.27,35.27,0,0,0,5.83,2.33,32.47,32.47,0,0,0,5.41.75c5.4.53,10.84,1.32,16.12-.48a57.84,57.84,0,0,0,6.47-3.18,17.75,17.75,0,0,0,8.12-7.49c.19-.36.91-.45,1.38-.67.07.53.33,1.13.16,1.57a25.57,25.57,0,0,1-1.57,2.93c3.78,1.33,7.36,2.89,11.1,3.84,5.23,1.32,10.59.85,15.85-.14a13.88,13.88,0,0,0,11.44-11.3c.84-5.15-.2-9.62-4-13.39a13.37,13.37,0,0,0-8.83-3.91c-.44,0-.84-.6-1.26-.91.44-.3.91-.89,1.31-.84,1.75.2,3.66.23,5.19,1,5.58,2.71,9.18,7,9.71,13.43.08,1,.43,1.48,1.36,1.53,2.36.11,4.72.23,7.08.25,3.43,0,6.07-1.79,8.62-3.78,1.9-1.48,2-3.61,2-5.76,0-.29.45-.8.67-.79a1.4,1.4,0,0,1,1,.62,7.31,7.31,0,0,1,.4,1.85,57.94,57.94,0,0,0,5.9,0A8,8,0,0,0,309,109c2.11-3.56,1.14-7.25-.84-10.36-1.58-2.49-4.64-2.71-7.51-2.38a12.21,12.21,0,0,0-2.16.46c-2.06.62-2.43.51-2.7-1.54A14.72,14.72,0,0,0,292,86.94c-1.78-2-3.71-3.8-5.59-5.68a2.3,2.3,0,0,0-.77-.42,26.45,26.45,0,0,0-11.07-2.23c-4.52,0-8,1.78-10.17,5.83-.2.37-.82.51-1.24.76-.14-.51-.57-1.2-.38-1.5a12.7,12.7,0,0,1,2.75-3.6c2-1.48,2-3.35,1.71-5.38A4.18,4.18,0,0,0,264.12,71a5.87,5.87,0,0,0-5.89,1.32c-2.23,1.83-4.48,3.65-6.8,5.36-.64.47-1.6,1.6-2.35.36-.64-1.07.69-1.38,1.34-1.9a30.22,30.22,0,0,0,2.84-2.32c2.5-2.53,2.44-5.66,1.84-8.86s-1.41-4.25-4.66-3.89c-1.5.16-1.9-.52-2.09-1.92a40.35,40.35,0,0,0-1.38-6,3,3,0,0,0-2.59-2.36c-3.48-.23-7-.42-10.47-.41a19.89,19.89,0,0,0-4.17.9c.39,2.42.78,4.5,1,6.6,0,.41-.5.89-.77,1.34-.35-.4-.9-.75-1-1.21-.32-1.33-.49-2.7-.7-4.06-.64-4.28-3.47-5.59-7.43-6.7-.65-.18-1.62,0-1.44-.93.08-.42,1.12-1,1.66-.92a8.27,8.27,0,0,1,3,1c1.15.65,1.82.39,2.34-.7l.08-.12c2.07-3.25,1.2-6.75.85-10.2a3.75,3.75,0,0,0-.66-1.93c-2.59-3-5.17-6.15-9.72-6.19-.37,0-.75-.55-1.13-.85.38-.31.72-.81,1.14-.89a13.14,13.14,0,0,1,2.45-.05,6.76,6.76,0,0,0,.2-1.15,20.07,20.07,0,0,0-2.24-9.54,11.94,11.94,0,0,0-6.51-5.56,26.59,26.59,0,0,0-8.41-1.35,12.93,12.93,0,0,0-10.63,4.81c-1.16,1.34-1.72,1.14-2.58-.36-1.4-2.47-3-4.85-4.59-7.18a4.91,4.91,0,0,0-2-1.37C176.13.94,169.5,1.65,163,3.59a11.81,11.81,0,0,0-8.06,7.08c-1,2.65-2,5.31-2.91,8-.6,1.84-.82,1.92-2.54,1.18a20.66,20.66,0,0,0-5.05-1.49,33.53,33.53,0,0,0-5.31-.13,11.17,11.17,0,0,0-10.72,8.14c-1.52,5.38-1.25,10.81-.36,16.26.13.79.44,1.83.08,2.37-.72,1.08-1.56-.14-2.32-.35-9.29-2.63-18.53-2-27.71.48a25.55,25.55,0,0,0-13.87,9,36.49,36.49,0,0,0-6.33,13.09c-.85,3.19-.73,6.63-1.12,10a5.46,5.46,0,0,1-.86,1.63c-.32-.53-.93-1.07-.9-1.57.31-4.94.14-10,2.48-14.58.44-.87.72-1.81,1.11-2.8C73,56.6,67.43,54,60.82,54.79c-1.27.15-2.54.34-3.81.48C46.2,56.5,38,61.66,32.87,71.36,31.41,74.13,30,77,30.07,80.29c.07,2.8.39,5.59.65,8.39C31,91,31,91,33.26,91.06c.25,0,.56-.07.73,0A8.22,8.22,0,0,1,35,92c-.3.28-.55.69-.9.8a6.33,6.33,0,0,1-1.46.1,23.1,23.1,0,0,0-5.1.55A12.08,12.08,0,0,0,19,102.71c-.09.43-.7.74-1.08,1.11-.24-.48-.76-1-.67-1.42a18.68,18.68,0,0,1,1.21-3.61,30.32,30.32,0,0,1,1.67-2.89C12.67,94,6.23,96.59,3,103.15a8.06,8.06,0,0,0-.78,6,15.62,15.62,0,0,0,4.21,7c2.45,2.32,7.46,2.77,10.34,1a1.65,1.65,0,0,0,.91-2,16.77,16.77,0,0,1-.18-3.82c0-.31.55-.75.92-.86.19,0,.7.47.81.82s0,1.09.09,1.61a17.08,17.08,0,0,0,1.16,4.51c5,9.37,18.36,10,24.29,2.16.89-1.18,1.72-2.41,2.68-3.53.27-.32.9-.33,1.36-.48.1.39.37.83.27,1.17-.52,1.86-.46,2.41,1.26,3.28C54,121.9,57.84,122.84,62,121.5c.37-.12.87.14,1.31.23-.16.46-.2,1.19-.51,1.34a6.71,6.71,0,0,1-2.77.85C55.31,123.93,50.7,123.56,47.11,119.82Z"/><path class="cls-1" d="M47.11,119.82c3.59,3.74,8.2,4.11,12.89,4.1a6.71,6.71,0,0,0,2.77-.85c.31-.15.35-.88.51-1.34-.44-.09-.94-.35-1.31-.23-4.13,1.34-8,.4-11.67-1.47-1.72-.87-1.78-1.42-1.26-3.28.1-.34-.17-.78-.27-1.17-.46.15-1.09.16-1.36.48-1,1.12-1.79,2.35-2.68,3.53-5.93,7.88-19.25,7.21-24.29-2.16a17.08,17.08,0,0,1-1.16-4.51c-.11-.52.06-1.11-.09-1.61s-.62-.87-.81-.82c-.37.11-.91.55-.92.86a16.77,16.77,0,0,0,.18,3.82,1.65,1.65,0,0,1-.91,2c-2.88,1.75-7.89,1.3-10.34-1a15.62,15.62,0,0,1-4.21-7,8.06,8.06,0,0,1,.78-6C6.23,96.59,12.67,94,20.15,95.9a30.32,30.32,0,0,0-1.67,2.89,18.68,18.68,0,0,0-1.21,3.61c-.09.41.43.94.67,1.42.38-.37,1-.68,1.08-1.11a12.08,12.08,0,0,1,8.47-9.24,23.1,23.1,0,0,1,5.1-.55,6.33,6.33,0,0,0,1.46-.1c.35-.11.6-.52.9-.8a8.22,8.22,0,0,0-1-.91c-.17-.12-.48,0-.73,0C31,91,31,91,30.72,88.68c-.26-2.8-.58-5.59-.65-8.39-.08-3.25,1.34-6.16,2.8-8.93C38,61.66,46.2,56.5,57,55.27c1.27-.14,2.54-.33,3.81-.48C67.43,54,73,56.6,78.59,59.9c-.39,1-.67,1.93-1.11,2.8-2.34,4.6-2.17,9.64-2.48,14.58,0,.5.58,1,.9,1.57a5.46,5.46,0,0,0,.86-1.63c.39-3.32.27-6.76,1.12-10a36.49,36.49,0,0,1,6.33-13.09,25.55,25.55,0,0,1,13.87-9c9.18-2.51,18.42-3.11,27.71-.48.76.21,1.6,1.43,2.32.35.36-.54,0-1.58-.08-2.37-.89-5.45-1.16-10.88.36-16.26a11.17,11.17,0,0,1,10.72-8.14,33.53,33.53,0,0,1,5.31.13,20.66,20.66,0,0,1,5.05,1.49c1.72.74,1.94.66,2.54-1.18.88-2.7,1.88-5.36,2.91-8A11.81,11.81,0,0,1,163,3.59c6.52-1.94,13.15-2.65,19.67.21a4.91,4.91,0,0,1,2,1.37c1.62,2.33,3.19,4.71,4.59,7.18.86,1.5,1.42,1.7,2.58.36A12.93,12.93,0,0,1,202.49,7.9a26.59,26.59,0,0,1,8.41,1.35,11.94,11.94,0,0,1,6.51,5.56,20.07,20.07,0,0,1,2.24,9.54,6.76,6.76,0,0,1-.2,1.15,13.14,13.14,0,0,0-2.45.05c-.42.08-.76.58-1.14.89.38.3.76.85,1.13.85,4.55,0,7.13,3.14,9.72,6.19a3.75,3.75,0,0,1,.66,1.93c.35,3.45,1.22,7-.85,10.2l-.08.12c-.52,1.09-1.19,1.35-2.34.7a8.27,8.27,0,0,0-3-1c-.54-.06-1.58.5-1.66.92-.18.94.79.75,1.44.93,4,1.11,6.79,2.42,7.43,6.7.21,1.36.38,2.73.7,4.06.12.46.67.81,1,1.21.27-.45.81-.93.77-1.34-.24-2.1-.63-4.18-1-6.6a19.89,19.89,0,0,1,4.17-.9c3.49,0,7,.18,10.47.41A3,3,0,0,1,247,53.17a40.35,40.35,0,0,1,1.38,6c.19,1.4.59,2.08,2.09,1.92,3.25-.36,4.06.63,4.66,3.89s.66,6.33-1.84,8.86a30.22,30.22,0,0,1-2.84,2.32c-.65.52-2,.83-1.34,1.9.75,1.24,1.71.11,2.35-.36,2.32-1.71,4.57-3.53,6.8-5.36A5.87,5.87,0,0,1,264.12,71a4.18,4.18,0,0,1,3.16,3.68c.27,2,.27,3.9-1.71,5.38a12.7,12.7,0,0,0-2.75,3.6c-.19.3.24,1,.38,1.5.42-.25,1-.39,1.24-.76,2.2-4,5.65-5.79,10.17-5.83a26.45,26.45,0,0,1,11.07,2.23,2.3,2.3,0,0,1,.77.42c1.88,1.88,3.81,3.71,5.59,5.68a14.72,14.72,0,0,1,3.75,8.19c.27,2.05.64,2.16,2.7,1.54a12.21,12.21,0,0,1,2.16-.46c2.87-.33,5.93-.11,7.51,2.38,2,3.11,2.95,6.8.84,10.36a8,8,0,0,1-6.41,3.76,57.94,57.94,0,0,1-5.9,0,7.31,7.31,0,0,0-.4-1.85,1.4,1.4,0,0,0-1-.62c-.22,0-.66.5-.67.79,0,2.15-.13,4.28-2,5.76-2.55,2-5.19,3.82-8.62,3.78-2.36,0-4.72-.14-7.08-.25-.93,0-1.28-.55-1.36-1.53-.53-6.4-4.13-10.72-9.71-13.43-1.53-.74-3.44-.77-5.19-1-.4-.05-.87.54-1.31.84.42.31.82.87,1.26.91a13.37,13.37,0,0,1,8.83,3.91c3.83,3.77,4.87,8.24,4,13.39A13.88,13.88,0,0,1,262,134.78c-5.26,1-10.62,1.46-15.85.14-3.74-.95-7.32-2.51-11.1-3.84a25.57,25.57,0,0,0,1.57-2.93c.17-.44-.09-1-.16-1.57-.47.22-1.19.31-1.38.67a17.75,17.75,0,0,1-8.12,7.49,57.84,57.84,0,0,1-6.47,3.18c-5.28,1.8-10.72,1-16.12.48a32.47,32.47,0,0,1-5.41-.75,35.27,35.27,0,0,1-5.83-2.33c-1.54-.76-2.27-.53-2.34,1.18a16.44,16.44,0,0,1-3.77,9.6,13.06,13.06,0,0,1-4.05,3.34,16.83,16.83,0,0,1-16.68-.22,1.63,1.63,0,0,1-.64-1.32c.42-3.15.45-3.1,3.62-3.44a15.16,15.16,0,0,0,7.79-3.32c.37-.3.37-1.06.54-1.6-.57.05-1.29-.11-1.68.18-4.44,3.3-9.34,3.71-14.46,2.23-1.38-.4-2.54-1.49-3.86-2.12-.46-.22-1.11,0-1.67,0,.23.53.33,1.24.73,1.54a14.66,14.66,0,0,0,6.47,3.08c1,.14,1.1.65.94,1.43a11.19,11.19,0,0,1-4.26,7.31c-6.2,4.47-13,5.9-20.28,3.36a17.29,17.29,0,0,1-8.93-6.77c-.9-1.37-1.09-3.22-1.47-4.87-.08-.33.39-.84.69-1.2,1-1.16,2.07-2.24,3-3.46.25-.34,0-1,0-1.56a4.83,4.83,0,0,0-1.48.55c-1.46,1.26-2.84,2.61-4.28,3.9a1.52,1.52,0,0,1-.82.31c-4.18.4-8.45.21-11.15-4.23a6,6,0,0,0-.43-.6c-1-1.22-1.73-1.17-2.39.24a13.56,13.56,0,0,1-6,6.71,14.56,14.56,0,0,1-5.38,1.72,38.38,38.38,0,0,1-7.78-.47,6,6,0,0,1-3.34-1.41c-2.86-2.94-5.05-6.32-3.84-10.69a44.81,44.81,0,0,1,2.43-5.46,8.48,8.48,0,0,0,.34-1.68c-.59.15-1.42.1-1.73.48-1.33,1.66-3,1-4.3.44s-2.33-2.11-3.49-3.2c-.49-.47-1-1.25-1.54-1.25s-1.14.8-1.35,1.39a19.81,19.81,0,0,1-10,11.34c-2.55,1.29-5.31.85-8,.75a16.16,16.16,0,0,1-8-2.42,12.34,12.34,0,0,1-5.82-8C43.84,124.23,44.84,121.84,47.11,119.82ZM111,136.34h2.22c5.73-.07,10.11-2.87,13.81-7,.34-.37.19-1.18.27-1.79-.53.17-1.27.18-1.57.55-6.39,7.92-17.43,7.56-24.66,4.37a19.47,19.47,0,0,1-9.66-8.82c-1.4-2.73-3.17-2.94-5.67-3a13.19,13.19,0,0,1-9.6-3.9c-2-2.1-3.37-4.53-2.74-7.45.43-2-.17-2.92-1.82-3.7-2.85-1.33-4.21-3.62-3.42-6.71.37-1.43,1.49-2.66,2.19-4a8.8,8.8,0,0,0,.53-1.74,5,5,0,0,0-1.8.43c-3.8,2.86-4.38,10.65.49,13a5.05,5.05,0,0,1,1.35.9,1.86,1.86,0,0,1,.59,1.18c-.2,6.6,3,11.25,9.39,13,2.11.59,4.37.63,6.54,1a2.57,2.57,0,0,1,1.48.82c1.68,2.06,3,4.4,4.93,6.22A22.26,22.26,0,0,0,111,136.34ZM163.6,99c1,0,2,0,3,0a12.21,12.21,0,0,0,10.5-5.28c.49-.66,1.59-1.44.61-2.23s-1.59.46-2.11,1.12c-2.23,2.82-5,4.59-8.69,4.49-2.61-.08-5.22-.07-7.82-.27a16,16,0,0,1-3.38-.91c-3.37-1-5.83-3.45-8.32-5.73-3.59-3.29-4.14-6.35-2.28-10.92a3.58,3.58,0,0,0,.43-1.25,4,4,0,0,0-.44-1.26c-.42.23-1.07.36-1.24.71A19,19,0,0,0,142.55,81a9.34,9.34,0,0,0,2.12,9.22C149.79,95.58,155.56,99.77,163.6,99Z"/><path d="M111,136.34a22.26,22.26,0,0,1-17.15-6.61c-1.88-1.82-3.25-4.16-4.93-6.22a2.57,2.57,0,0,0-1.48-.82c-2.17-.38-4.43-.42-6.54-1-6.36-1.78-9.59-6.43-9.39-13a1.86,1.86,0,0,0-.59-1.18,5.05,5.05,0,0,0-1.35-.9c-4.87-2.35-4.29-10.14-.49-13a5,5,0,0,1,1.8-.43,8.8,8.8,0,0,1-.53,1.74c-.7,1.37-1.82,2.6-2.19,4-.79,3.09.57,5.38,3.42,6.71,1.65.78,2.25,1.73,1.82,3.7-.63,2.92.73,5.35,2.74,7.45a13.19,13.19,0,0,0,9.6,3.9c2.5.07,4.27.28,5.67,3a19.47,19.47,0,0,0,9.66,8.82c7.23,3.19,18.27,3.55,24.66-4.37.3-.37,1-.38,1.57-.55-.08.61.07,1.42-.27,1.79-3.7,4.09-8.08,6.89-13.81,7Z"/><path d="M163.6,99c-8,.74-13.81-3.45-18.93-8.86A9.34,9.34,0,0,1,142.55,81a19,19,0,0,1,1.27-3.45c.17-.35.82-.48,1.24-.71a4,4,0,0,1,.44,1.26,3.58,3.58,0,0,1-.43,1.25c-1.86,4.57-1.31,7.63,2.28,10.92,2.49,2.28,5,4.68,8.32,5.73a16,16,0,0,0,3.38.91c2.6.2,5.21.19,7.82.27,3.72.1,6.46-1.67,8.69-4.49.52-.66,1-2,2.11-1.12s-.12,1.57-.61,2.23A12.21,12.21,0,0,1,166.56,99C165.57,99,164.59,99,163.6,99Z"/></g></g></g></g></g></svg>