<svg xmlns="http://www.w3.org/2000/svg" viewBox="0 0 433.14 174.12"><defs><style>.cls-1{fill:#fff;}</style></defs><g id="Layer_2" data-name="Layer 2"><g id="Homepage"><g id="Clouds"><g id="Clouds_Left"><g id="_05" data-name="05"><path d="M125.17,95c-1.49,1.1-2.85,2.18-4.3,3.14a35.75,35.75,0,0,1-19,5.83c-7.17.25-14.35.37-21.41-1.22-6.48-1.46-13-3-18.46-7a105.23,105.23,0,0,1-10.17-9c-.94-.89-1.33-2.37-2.13-3.87-.82.89-1.62,1.87-2.53,2.73A13.23,13.23,0,0,1,39,88.93a29.76,29.76,0,0,1-18.13-3.74,28.23,28.23,0,0,1-3.23-2.61C15,85.26,11.47,84.79,8.1,84.76a.36.36,0,0,1-.15,0A11.39,11.39,0,0,1,.67,78a7.84,7.84,0,0,1,1.21-8.3c1.43-1.74,3.51-2.38,5.6-2.92.69-.17,1.17-.36,1.14-1.23a9.82,9.82,0,0,1,4.54-8.64c5.18-3.55,10.62-7,17.05-7.48,5.23-.4,10.54,0,15.81.24,2.27.09,4.53.54,6.71.81a30.35,30.35,0,0,1,1.35-3.8,8,8,0,0,1,7.38-4.5,38.69,38.69,0,0,1,4,0c1.28.1,1.7-.36,1.91-1.61a16.33,16.33,0,0,1,8.48-12,23,23,0,0,1,10.19-2.61c6.2-.37,12.17.39,17.53,3.75a65.14,65.14,0,0,1,5.7,4.47c.25-.6.51-1.23.75-1.86,1.61-4.32,4.89-6.4,9.32-6.75a46.61,46.61,0,0,1,6.58,0,12.47,12.47,0,0,1,3.27.91c.94.33,1.82.79,2.62,1.15,1.72-3.29,3.29-6.55,5.09-9.69C141,10.8,147.27,7.31,155.44,7a27.45,27.45,0,0,1,16.34,4.07c1-1.12,2-2.15,2.87-3.27A19.14,19.14,0,0,1,187.89.49a50.64,50.64,0,0,1,17.53.58,16.69,16.69,0,0,1,9.13,5.76c3.4,3.9,5.45,8.41,7.2,13.13A35.74,35.74,0,0,1,222.86,25c2.12-1.36,4.2-2.78,6.36-4.07a25.78,25.78,0,0,1,15.24-3.31c2.41.15,4.22,1.68,5.83,3.35,4.07,4.21,5.51,9.45,5.75,15.13,0,.72.08,1.45.13,2.4a12.91,12.91,0,0,1,7.28-2c3.42.18,5.11,1.51,5.71,4.9.18,1,.21,2.07.33,3.35a27.59,27.59,0,0,0,3.1-.81c4.55-1.8,9.16-1.54,13.83-.6A16.53,16.53,0,0,1,299.24,57c.23,1.67.51,3.33.8,5.15,1.43-.81,2.7-1.68,4.09-2.29,5.22-2.25,10.35-2.21,15.25.93,3.1,2,4.12,5.09,4.4,8.54.07.83,0,1.67,0,2.31,2.52-.13,4.89-.34,7.26-.36A10.84,10.84,0,0,1,341.91,81c.36,3.12.6,6.2-.83,9.21-2.24,4.76-6.25,7-11.15,7.67a38,38,0,0,1-7.9-.08,40.18,40.18,0,0,1-5.2-1.07c-2.56,2.42-6,2.51-9.53,1.86-1.85-.34-3.71-.73-5.53-1.21A1.52,1.52,0,0,0,300,98a55.58,55.58,0,0,1-5.94,6c-3.36,2.65-7.53,3.36-11.68,3.61-7.25.42-14.34-.36-21-3.66a4.94,4.94,0,0,0-.84-.3.46.46,0,0,0-.22,0c0,.85,0,1.69,0,2.52a8,8,0,0,1-2.29,5.53c-3.35,3.3-7.13,5.63-12.14,4.62a2,2,0,0,0-2,.81,74.35,74.35,0,0,1-5.45,5.06c-3.32,2.72-7.26,3.5-11.47,3.51a82.09,82.09,0,0,1-23.7-3.52c-3.28-1-6.22-3-9.34-4.56a1.91,1.91,0,0,0-1.51-.09,33.49,33.49,0,0,1-17.15,4.33,43.09,43.09,0,0,1-15.9-3.75c-4.22-1.76-7.3-5-10.06-8.48-1.36-1.74-2.41-3.72-3.76-5.86a17.53,17.53,0,0,1-11.92-.21C129.62,102,127.18,98.66,125.17,95Zm190.44.76a28.51,28.51,0,0,1-2.91-2.66c-.35-.43-.27-1.21-.39-1.83.58.17,1.31.18,1.71.55,2.27,2.1,4.65,4,7.9,4.12A55.64,55.64,0,0,0,330,96a11.41,11.41,0,0,0,8.76-5.35c2.34-3.77,1.93-7.93.58-12a7.42,7.42,0,0,0-2.14-3c-3.79-3.39-8.22-3.06-12.67-1.78-1.89.55-2.75.08-2.67-1.93a24,24,0,0,0,.07-2.68c-.29-3.64-1.81-6.6-5.33-8-5.78-2.25-11-1-15.78,2.83-.69.56-1.46,1-2.2,1.5-.18-.93-.42-1.85-.52-2.78-.44-4-.53-8-3-11.37-1.67-2.28-3.36-4.8-6.08-5.54-4.88-1.34-9.9-2.36-15-.41a61.28,61.28,0,0,1-6.15,1.83c-.37.1-1.07.06-1.19-.16a2.56,2.56,0,0,1,0-1.35c0-.18.22-.33.32-.5a4.62,4.62,0,0,0-3.82-6.94,9.94,9.94,0,0,0-5.53,1.51c-2.33,1.38-3.34.81-3.41-1.92,0-1-.06-2.09-.15-3.13-.38-4.79-1.71-9.24-5.29-12.64-1.22-1.15-2.82-2.4-4.37-2.59a24.08,24.08,0,0,0-7.56.44c-5.16,1-9.48,3.75-13.35,7.25a2.5,2.5,0,0,1-1.79.66c-.33-.06-.71-1-.73-1.57-.18-5.14-2.23-9.68-4.67-14-3.68-6.54-9.14-10.34-16.91-10.3-2.74,0-5.48-.06-8.21,0-7.81.08-13.53,3.82-17.67,10.22-.74,1.13-1.32,1.22-2.53.61a36,36,0,0,0-7.8-3.25A33.41,33.41,0,0,0,154.3,9a17.73,17.73,0,0,0-13.6,6.8,40,40,0,0,0-6.88,13.14c-.31,1-.89,1.78-1.91,1-4-3.07-8.69-2.92-13.31-2.42a7.64,7.64,0,0,0-6.48,4.67c-.47,1.09-.8,2.25-1.3,3.34-.26.58-.75,1.51-1.13,1.51-.59,0-1.23-.62-1.76-1.07-1.88-1.6-3.54-3.55-5.62-4.83-6-3.71-12.75-4-19.52-2.89a19.4,19.4,0,0,0-6.92,2.59,14.35,14.35,0,0,0-6.75,10.61c-.36,2.57-.45,2.54-3,2.55-1.84,0-3.68,0-5.52.14a5.34,5.34,0,0,0-4,2.13A6.38,6.38,0,0,0,55,51.37c.22,1.58-.26,1.86-1.78,1.41A15.75,15.75,0,0,0,49.76,52c-5.76-.36-11.52-.68-17.29-.89a20.85,20.85,0,0,0-4.42.58c-4.46.83-8.17,3.35-12,5.52-3.48,2-5.72,4.76-5.52,9a1.87,1.87,0,0,1-1.83,2.22,16,16,0,0,0-3.14.94A5.29,5.29,0,0,0,2,74.72c-.07,3.89,2.35,6.46,5.43,7.71a8.37,8.37,0,0,0,8.88-1.22c1.67-1.45,1.63-1.43,3.15.24a11.41,11.41,0,0,0,2.7,2.31,28.16,28.16,0,0,0,16.15,3.35,12.14,12.14,0,0,0,8.93-4.26c.81-1,1.65-2,2.54-2.92.34-.36,1-.84,1.29-.73a2.2,2.2,0,0,1,1,1.31,3.87,3.87,0,0,1,.29,2,3.13,3.13,0,0,0,1.09,3.2A118.67,118.67,0,0,0,62.82,94c5.32,3.91,11.7,5.4,18,6.82,6.92,1.56,14,1.43,21,1.17a33.7,33.7,0,0,0,21.83-8.41c2-1.72,2.31-1.61,3.41.72,3.35,7.06,9.4,9.88,17,7.92.63-.16,1.26-.3,1.89-.48,1.08-.32,1.62,0,1.9,1.16a10.31,10.31,0,0,0,1.38,3.43c2.32,3.3,4.79,6.58,8.37,8.58a46.25,46.25,0,0,0,7.92,3.41,30.23,30.23,0,0,0,16.64,1c3.29-.77,6.67-1.44,9.4-3.62a2.15,2.15,0,0,1,3.16.06,23.76,23.76,0,0,0,9.12,4.66,90.06,90.06,0,0,0,22.68,3.4A17.6,17.6,0,0,0,238.46,120c1.5-1.23,2.79-2.71,4.08-4-2.47-1.55-4.67-2.88-6.81-4.33-.35-.24-.39-1-.57-1.46.53,0,1.16-.23,1.58,0a23.13,23.13,0,0,1,2.49,1.63c4.47,3,10.61,4.58,16.14,0,2.6-2.18,3.72-5.09,2.65-8.33a7.42,7.42,0,0,1-.42-1.42,1.12,1.12,0,0,1,1.69-1.24c.68.31,1.3.73,2,1.07a40.15,40.15,0,0,0,21.5,3.89c3.4-.25,7-.76,9.73-3a59.57,59.57,0,0,0,6.45-6.55,2.52,2.52,0,0,1,2.83-.87,77.37,77.37,0,0,0,9.54,1.55C312.6,97,314,96.19,315.61,95.71Z"/><path class="cls-1" d="M315.61,95.71c-1.64.48-3,1.29-4.3,1.18a77.37,77.37,0,0,1-9.54-1.55,2.52,2.52,0,0,0-2.83.87,59.57,59.57,0,0,1-6.45,6.55c-2.76,2.22-6.33,2.73-9.73,3a40.15,40.15,0,0,1-21.5-3.89c-.67-.34-1.29-.76-2-1.07A1.12,1.12,0,0,0,257.6,102a7.42,7.42,0,0,0,.42,1.42c1.07,3.24,0,6.15-2.65,8.33-5.53,4.63-11.67,3-16.14,0a23.13,23.13,0,0,0-2.49-1.63c-.42-.21-1.05,0-1.58,0,.18.5.22,1.22.57,1.46,2.14,1.45,4.34,2.78,6.81,4.33-1.29,1.28-2.58,2.76-4.08,4a17.6,17.6,0,0,1-11.93,3.89,90.06,90.06,0,0,1-22.68-3.4,23.76,23.76,0,0,1-9.12-4.66,2.15,2.15,0,0,0-3.16-.06c-2.73,2.18-6.11,2.85-9.4,3.62a30.23,30.23,0,0,1-16.64-1,46.25,46.25,0,0,1-7.92-3.41c-3.58-2-6.05-5.28-8.37-8.58a10.31,10.31,0,0,1-1.38-3.43c-.28-1.18-.82-1.48-1.9-1.16-.63.18-1.26.32-1.89.48-7.61,2-13.66-.86-17-7.92-1.1-2.33-1.45-2.44-3.41-.72A33.7,33.7,0,0,1,101.82,102c-7,.26-14,.39-21-1.17-6.33-1.42-12.71-2.91-18-6.82a118.67,118.67,0,0,1-9.41-8.27,3.13,3.13,0,0,1-1.09-3.2,3.87,3.87,0,0,0-.29-2,2.2,2.2,0,0,0-1-1.31c-.29-.11-1,.37-1.29.73-.89.93-1.73,1.92-2.54,2.92a12.14,12.14,0,0,1-8.93,4.26,28.16,28.16,0,0,1-16.15-3.35,11.41,11.41,0,0,1-2.7-2.31c-1.52-1.67-1.48-1.69-3.15-.24a8.37,8.37,0,0,1-8.88,1.22C4.35,81.18,1.93,78.61,2,74.72a5.29,5.29,0,0,1,3.54-5.34,16,16,0,0,1,3.14-.94,1.87,1.87,0,0,0,1.83-2.22c-.2-4.25,2-7,5.52-9,3.85-2.17,7.56-4.69,12-5.52a20.85,20.85,0,0,1,4.42-.58c5.77.21,11.53.53,17.29.89a15.75,15.75,0,0,1,3.48.78c1.52.45,2,.17,1.78-1.41a6.38,6.38,0,0,1,1.59-5.1,5.34,5.34,0,0,1,4-2.13C62.41,44,64.25,44,66.09,44c2.58,0,2.67,0,3-2.55a14.35,14.35,0,0,1,6.75-10.61,19.4,19.4,0,0,1,6.92-2.59c6.77-1.13,13.48-.82,19.52,2.89,2.08,1.28,3.74,3.23,5.62,4.83.53.45,1.17,1.06,1.76,1.07.38,0,.87-.93,1.13-1.51.5-1.09.83-2.25,1.3-3.34a7.64,7.64,0,0,1,6.48-4.67c4.62-.5,9.26-.65,13.31,2.42,1,.78,1.6,0,1.91-1A40,40,0,0,1,140.7,15.8,17.73,17.73,0,0,1,154.3,9a33.41,33.41,0,0,1,8.88.64,36,36,0,0,1,7.8,3.25c1.21.61,1.79.52,2.53-.61,4.14-6.4,9.86-10.14,17.67-10.22,2.73,0,5.47.06,8.21,0,7.77,0,13.23,3.76,16.91,10.3,2.44,4.35,4.49,8.89,4.67,14,0,.56.4,1.51.73,1.57a2.5,2.5,0,0,0,1.79-.66c3.87-3.5,8.19-6.24,13.35-7.25a24.08,24.08,0,0,1,7.56-.44c1.55.19,3.15,1.44,4.37,2.59,3.58,3.4,4.91,7.85,5.29,12.64.09,1,.12,2.09.15,3.13.07,2.73,1.08,3.3,3.41,1.92a9.94,9.94,0,0,1,5.53-1.51A4.62,4.62,0,0,1,267,45.36c-.1.17-.3.32-.32.5a2.56,2.56,0,0,0,0,1.35c.12.22.82.26,1.19.16A61.28,61.28,0,0,0,274,45.54c5.07-1.95,10.09-.93,15,.41,2.72.74,4.41,3.26,6.08,5.54,2.5,3.41,2.59,7.42,3,11.37.1.93.34,1.85.52,2.78.74-.5,1.51-.94,2.2-1.5,4.74-3.87,10-5.08,15.78-2.83,3.52,1.37,5,4.33,5.33,8a24,24,0,0,1-.07,2.68c-.08,2,.78,2.48,2.67,1.93,4.45-1.28,8.88-1.61,12.67,1.78a7.42,7.42,0,0,1,2.14,3c1.35,4,1.76,8.19-.58,12A11.41,11.41,0,0,1,330,96a55.64,55.64,0,0,1-8.06-.06c-3.25-.14-5.63-2-7.9-4.12-.4-.37-1.13-.38-1.71-.55.12.62,0,1.4.39,1.83A28.51,28.51,0,0,0,315.61,95.71Zm-104.22,2.5c1.1,0,2.2,0,3.29,0,5.77-.11,11-1.54,15.14-5.9.47-.51,1.1-.88,1.56-1.4,1.08-1.22,2.13-2.48,3.11-3.79A1.17,1.17,0,0,0,234.4,86c-.22-.21-.81-.15-1.18,0s-.52.44-.76.7c-1.69,1.8-3.3,3.7-5.12,5.37a14.7,14.7,0,0,1-3.71,2.41c-5.92,2.76-12.27,2.46-18.37,1.5a51.4,51.4,0,0,1-21.21-8c-2.86-2-5.4-4.05-6.64-7.42-.15-.43-.89-.65-1.36-1-.12.57-.5,1.26-.3,1.69a15.52,15.52,0,0,0,2.27,4,31.73,31.73,0,0,0,12.83,8.46C197.47,96.1,204.09,98.74,211.39,98.21ZM270,90.46c1.74-.09,3.49-.09,5.22-.27,6.06-.62,11.28-2.85,14.77-8.12A11.73,11.73,0,0,0,291.52,79c.14-.47-.34-1.14-.54-1.72-.41.41-1,.74-1.2,1.23a15,15,0,0,1-8.49,8.33,31,31,0,0,1-14.3,1.6c-7.41-.66-14.82-1.67-20-8-.21-.25-.77-.22-1.17-.32a4.14,4.14,0,0,0-.3,1.31c0,.35.38.68.61,1a12.27,12.27,0,0,0,5.63,4.28C257.61,89,263.56,91,270,90.46ZM103.9,44.38a45.67,45.67,0,0,0-6.3.86c-5.85,1.6-9.38,6.12-12.8,10.7-.2.27,0,.88.08,1.33.48-.12,1.13-.07,1.41-.37,1.18-1.27,2.26-2.64,3.37-4a16.19,16.19,0,0,1,8.6-5.9c4.81-1.17,9.59-.48,14.3.85.54.15,1.21-.18,1.82-.28a11.2,11.2,0,0,0-1.19-1.45,2.4,2.4,0,0,0-1.13-.37C109.38,45.3,106.69,44.85,103.9,44.38ZM20.15,68a9.48,9.48,0,0,0,.23,2.21c.14.44.7.76,1.08,1.13a4.15,4.15,0,0,0,.7-1.28A13.09,13.09,0,0,0,22.1,68c-.07-2.73.91-4.91,3.5-6,1.63-.7,3.39-1.08,5-1.72.52-.2.9-.8,1.34-1.22a5.49,5.49,0,0,0-1.78-.54,11.42,11.42,0,0,0-3.05.68C22.26,61,20.19,63.23,20.15,68Z"/><path d="M211.39,98.21c-7.3.53-13.92-2.11-20.54-4.56A31.73,31.73,0,0,1,178,85.19a15.52,15.52,0,0,1-2.27-4c-.2-.43.18-1.12.3-1.69.47.32,1.21.54,1.36,1,1.24,3.37,3.78,5.47,6.64,7.42a51.4,51.4,0,0,0,21.21,8c6.1,1,12.45,1.26,18.37-1.5A14.7,14.7,0,0,0,227.34,92c1.82-1.67,3.43-3.57,5.12-5.37.24-.26.47-.61.76-.7s1-.18,1.18,0a1.17,1.17,0,0,1,.09,1.16c-1,1.31-2,2.57-3.11,3.79-.46.52-1.09.89-1.56,1.4-4.12,4.36-9.37,5.79-15.14,5.9C213.59,98.23,212.49,98.21,211.39,98.21Z"/><path d="M270,90.46c-6.48.55-12.43-1.44-18.29-3.77a12.27,12.27,0,0,1-5.63-4.28c-.23-.33-.57-.66-.61-1a4.14,4.14,0,0,1,.3-1.31c.4.1,1,.07,1.17.32,5.19,6.37,12.6,7.38,20,8a31,31,0,0,0,14.3-1.6,15,15,0,0,0,8.49-8.33c.22-.49.79-.82,1.2-1.23.2.58.68,1.25.54,1.72A11.73,11.73,0,0,1,290,82.07c-3.49,5.27-8.71,7.5-14.77,8.12C273.53,90.37,271.78,90.37,270,90.46Z"/><path d="M103.9,44.38c2.79.47,5.48.92,8.16,1.39a2.4,2.4,0,0,1,1.13.37,11.2,11.2,0,0,1,1.19,1.45c-.61.1-1.28.43-1.82.28-4.71-1.33-9.49-2-14.3-.85a16.19,16.19,0,0,0-8.6,5.9c-1.11,1.34-2.19,2.71-3.37,4-.28.3-.93.25-1.41.37,0-.45-.28-1.06-.08-1.33,3.42-4.58,7-9.1,12.8-10.7A45.67,45.67,0,0,1,103.9,44.38Z"/><path d="M20.15,68c0-4.76,2.11-7,7-8.83a11.42,11.42,0,0,1,3.05-.68A5.49,5.49,0,0,1,32,59c-.44.42-.82,1-1.34,1.22-1.66.64-3.42,1-5,1.72C23,63.07,22,65.25,22.1,68a13.09,13.09,0,0,1,.06,2.07,4.15,4.15,0,0,1-.7,1.28c-.38-.37-.94-.69-1.08-1.13A9.48,9.48,0,0,1,20.15,68Z"/></g><g id="_06" data-name="06"><path d="M401.43,74.9c3.83-2.42,8.19-2.07,12.44-1.53,6.85.88,12.63,3.57,16.32,9.92,3.9,6.71,3.58,13.57,1.05,20.39-1.69,4.55-5.53,7.15-10.35,8a34.11,34.11,0,0,1-6.06.41,12.09,12.09,0,0,1-3.09-.88c-.1.71-.25,1.46-.32,2.22-.26,2.7-.39,5.43-.75,8.12-1.07,7.93-6.2,12.32-13.37,14.67-2.83.92-5.83,1.34-8.92,2,.09.49.2,1.26.39,2a26.14,26.14,0,0,1-.56,14.92c-1.82,5.46-5.84,8.92-10.95,11.25-6,2.74-12.05,2.14-17.88-.26-2-.84-3.6-2.86-5.29-4.43a18.72,18.72,0,0,1-1.91-2.5c-2.64,5.29-5.41,10-12.1,10.57s-10.25-3.35-13.4-8.28a4.55,4.55,0,0,0-.58.28c-3.56,2.62-7.43,2-11.13-.6a2.15,2.15,0,0,0-1.3-.3c-2,.12-4,.4-6,.44a4,4,0,0,1-4.36-3.23,1.65,1.65,0,0,0-1.87-1.48c-4.53.29-7.33-2.88-9.1-6.17a1.83,1.83,0,0,0-.36.4c-2.74,6.92-8.17,10.51-15.17,11.9-2.44.48-4.16,1.19-5.65,3.44-4,6.12-10.37,7.86-17.31,8-4.65,0-9.23-.38-13.21-3.16-1.21-.84-2.27-1.9-3.48-2.76a4.42,4.42,0,0,0-2.29-1c-5.36.15-9.19-2.58-12.87-6.1s-6.88-7.34-8.63-11.8c-3.31,1.13-6.36,2.81-9.55,3.15-6.29.66-12.75.84-18.42-2.76a14.37,14.37,0,0,1-4.6-4.51A90.89,90.89,0,0,1,175.23,134c-1.72-4.12-1-8.36.14-12.53a8.81,8.81,0,0,1,.34-1.14c1.17-2.74,1.51-5.36-.94-7.67a2,2,0,0,1-.48-1.07c-.82-5.18-1.27-10.33,1.4-15.19a17.37,17.37,0,0,1,7.45-6.84c6.88-3.6,14.2-5.44,22.07-4.37a1.84,1.84,0,0,0,1.44-.78c.86-1.38,1.55-2.87,2.34-4.3,2.36-4.22,6.23-6.8,10.14-9.37a42.84,42.84,0,0,1,16.09-6.21,17.68,17.68,0,0,1,3.26-.15c7.14,0,14.32-.21,20.85,4.15.46-1.68.82-3.08,1.22-4.48,3.22-11.3,9.21-20.65,19.38-26.91A44.43,44.43,0,0,1,287.29,34c1.85-.71,3.81-1.12,5.63-1.89A28,28,0,0,1,304,30.33a119.68,119.68,0,0,1,20.89,1.23c9.72,1.64,18.44,5.46,25.55,12.32,2.51,2.43,4.34,5.62,6.17,8.64.77,1.27.75,3,1.12,4.66l1.9-1a14.12,14.12,0,0,1,7.52-1.27,60,60,0,0,1,19.17,4.37c6.82,2.79,11.2,8.09,14.36,14.55.13.27.25.54.39.8C401.08,74.69,401.19,74.73,401.43,74.9ZM219.3,92.48l-4.54-2.32a29.51,29.51,0,0,0-21.33-2.42c-4.16,1.05-8.24,2.33-11.77,5.05A15.58,15.58,0,0,0,178,114a3.72,3.72,0,0,1,.55,3.49c-.47,1.41-.84,2.85-1.27,4.26-1.42,4.65-1.64,9.25.54,13.74,1.18,2.45,2.39,4.89,3.68,7.28a13.46,13.46,0,0,0,10.47,7.42,80,80,0,0,0,9,.69c4.19.07,7.84-1.64,11.35-3.79a25,25,0,0,1-1.27-3,5.58,5.58,0,0,1-.09-2.44c.06-.33.79-.54,1.22-.8a7.22,7.22,0,0,1,.59,1.3,11.62,11.62,0,0,0,.2,1.7c2.51,5.82,5.27,11.4,10.16,15.82,3.69,3.33,7.38,5.88,12.55,5.72a3.73,3.73,0,0,1,2.4,1.13,16.87,16.87,0,0,0,7.71,4.83,27.29,27.29,0,0,0,14.81,0c3.68-1.09,7.24-2.7,9-6.28,1.49-3,3.82-3.57,6.7-4.15,9.35-1.87,14.76-7.75,15-17.33a16.62,16.62,0,0,1,.73-3.92c.1-.39.69-.65,1.06-1a4.23,4.23,0,0,1,.66,1.42,8.45,8.45,0,0,1-.37,1.88,12.17,12.17,0,0,0,1.52,9.13,7.66,7.66,0,0,0,7.29,3.7c1.52-.07,2.28.71,2.73,2.15.27.85.91,2,1.62,2.21a12,12,0,0,0,6.43-.1c-.94-1.24-1.77-2.27-2.52-3.36a6.66,6.66,0,0,1-1-1.94,1.18,1.18,0,0,1,.57-1,1.28,1.28,0,0,1,1.07.45c.84,1.09,1.61,2.23,2.36,3.39,2.64,4.11,7.91,7.22,12.6,2.89.87-.81,1.54-.23,2.14.64a44.24,44.24,0,0,0,3.72,5c2.85,3.14,8.86,3.84,12.39,1.5a14.38,14.38,0,0,0,6-8.42,2.35,2.35,0,0,1,2.49-2.09,16,16,0,0,0,9.79-4.48,9.85,9.85,0,0,0,3.23-7.8,3.1,3.1,0,0,1,1.33-2.06c2.17-1.55,4.43-3,6.71-4.36.43-.26,1.11-.11,1.68-.14-.2.54-.23,1.29-.62,1.57a57.2,57.2,0,0,1-5.79,3.87,3,3,0,0,0-1.67,2.66,11,11,0,0,1-1.25,4.76,17.07,17.07,0,0,1-10.84,7.48c-.5.11-1,.26-1.73.46,1.08,1.36,1.92,2.6,2.95,3.65,4.64,4.72,13.63,6,20.06,3,4.46-2.11,8.08-5.12,9.69-9.88a36.53,36.53,0,0,0,1.27-7.26c.4-3.21-.52-6.28-1.18-9.37-.37-1.75,0-2.26,1.72-2.22A25.73,25.73,0,0,0,400,133.08a14.81,14.81,0,0,0,8.92-12.71c.3-3.3.6-6.59.87-9.89.07-.93.57-1.39,1.43-1.32a17.14,17.14,0,0,1,2.45.49,10.84,10.84,0,0,0,2.36.58,24.49,24.49,0,0,0,4.28-.37,12.13,12.13,0,0,0,9.87-8.38c1.08-3,.67-6.07.79-9.11.22-5.3-2.41-9.4-6.14-12.61-5-4.26-11.12-5.21-17.47-4.69a29.24,29.24,0,0,0-5.2,1.33L403,86c.79,0,1.68,0,2.57,0a7.52,7.52,0,0,1,5.35,2.81c.31.35.16,1.11.22,1.68a6.31,6.31,0,0,1-1.53-.45c-1-.57-1.82-1.36-2.82-1.86a4.28,4.28,0,0,0-5.19,1.27c-.24.31-.8.39-1.21.58-.17-.42-.54-.87-.47-1.24.23-1.25.76-2.45.91-3.71a17.35,17.35,0,0,0-1.26-8.7c-2.63-6.5-6.54-11.87-13.06-14.89a56.27,56.27,0,0,0-18.63-4.64,13.73,13.73,0,0,0-9.36,2.11c-1.67,1.14-2.81.33-3-1.77-.12-1.41-.13-3-.82-4.15a39,39,0,0,0-5.65-7.76C342.4,38.74,334.16,35.15,325,33.5c-7.3-1.32-14.68-1.34-22.06-1.29a24.77,24.77,0,0,0-9.7,1.81A26.14,26.14,0,0,1,290,35.09C283.4,36.91,277.51,40,272.88,45.2a49.56,49.56,0,0,0-11.63,23.68c-.39,1.92-.82,2.23-2.59,1.24a31.94,31.94,0,0,0-15.19-3.91c-6.66-.17-13.07.58-19,3.7a79.22,79.22,0,0,0-9.15,5.79c-3.44,2.46-5.32,6.13-7,9.87,1.62.58,3.2,1,4.67,1.68,2.64,1.23,5.2,2.65,7.83,3.9a5,5,0,0,0,2.21.37c3.5-.14,7-.44,10.49-.49a56.84,56.84,0,0,1,6.37.46,36.07,36.07,0,0,1,13.36,3.7c1.19.61,2.45,1.09,3.59,1.78.43.26.6.94.88,1.43a4.35,4.35,0,0,1-1.56.23,8.08,8.08,0,0,1-2-.87,32.38,32.38,0,0,0-12.31-4.11c-3.74-.39-7.5-.67-11.25-.87a19.33,19.33,0,0,0-9.47,1.37c-3.43,1.63-6.68,3.61-10,5.44-.18.1-.35.3-.51.29-.4,0-1,0-1.15-.25a1.43,1.43,0,0,1,.14-1.17,2.37,2.37,0,0,1,.89-.76C213.37,96,216.26,94.28,219.3,92.48Z"/><path class="cls-1" d="M219.3,92.48c-3,1.8-5.93,3.5-8.81,5.22a2.37,2.37,0,0,0-.89.76,1.43,1.43,0,0,0-.14,1.17c.17.24.75.23,1.15.25.16,0,.33-.19.51-.29,3.32-1.83,6.57-3.81,10-5.44a19.33,19.33,0,0,1,9.47-1.37c3.75.2,7.51.48,11.25.87a32.38,32.38,0,0,1,12.31,4.11,8.08,8.08,0,0,0,2,.87,4.35,4.35,0,0,0,1.56-.23c-.28-.49-.45-1.17-.88-1.43-1.14-.69-2.4-1.17-3.59-1.78a36.07,36.07,0,0,0-13.36-3.7,56.84,56.84,0,0,0-6.37-.46c-3.5,0-7,.35-10.49.49a5,5,0,0,1-2.21-.37c-2.63-1.25-5.19-2.67-7.83-3.9-1.47-.68-3-1.1-4.67-1.68,1.67-3.74,3.55-7.41,7-9.87a79.22,79.22,0,0,1,9.15-5.79c5.92-3.12,12.33-3.87,19-3.7a31.94,31.94,0,0,1,15.19,3.91c1.77,1,2.2.68,2.59-1.24A49.56,49.56,0,0,1,272.88,45.2C277.51,40,283.4,36.91,290,35.09A26.14,26.14,0,0,0,293.27,34a24.77,24.77,0,0,1,9.7-1.81c7.38-.05,14.76,0,22.06,1.29,9.13,1.65,17.37,5.24,24.05,11.75A39,39,0,0,1,354.73,53c.69,1.13.7,2.74.82,4.15.16,2.1,1.3,2.91,3,1.77a13.73,13.73,0,0,1,9.36-2.11,56.27,56.27,0,0,1,18.63,4.64c6.52,3,10.43,8.39,13.06,14.89a17.35,17.35,0,0,1,1.26,8.7c-.15,1.26-.68,2.46-.91,3.71-.07.37.3.82.47,1.24.41-.19,1-.27,1.21-.58a4.28,4.28,0,0,1,5.19-1.27c1,.5,1.85,1.29,2.82,1.86a6.31,6.31,0,0,0,1.53.45c-.06-.57.09-1.33-.22-1.68A7.52,7.52,0,0,0,405.57,86c-.89,0-1.78,0-2.57,0l-.84-9.56a29.24,29.24,0,0,1,5.2-1.33c6.35-.52,12.51.43,17.47,4.69,3.73,3.21,6.36,7.31,6.14,12.61-.12,3,.29,6.1-.79,9.11a12.13,12.13,0,0,1-9.87,8.38,24.49,24.49,0,0,1-4.28.37,10.84,10.84,0,0,1-2.36-.58,17.14,17.14,0,0,0-2.45-.49c-.86-.07-1.36.39-1.43,1.32-.27,3.3-.57,6.59-.87,9.89A14.81,14.81,0,0,1,400,133.08a25.73,25.73,0,0,1-11.88,2.82c-1.7,0-2.09.47-1.72,2.22.66,3.09,1.58,6.16,1.18,9.37a36.53,36.53,0,0,1-1.27,7.26c-1.61,4.76-5.23,7.77-9.69,9.88-6.43,3-15.42,1.76-20.06-3-1-1-1.87-2.29-2.95-3.65.73-.2,1.23-.35,1.73-.46a17.07,17.07,0,0,0,10.84-7.48,11,11,0,0,0,1.25-4.76,3,3,0,0,1,1.67-2.66,57.2,57.2,0,0,0,5.79-3.87c.39-.28.42-1,.62-1.57-.57,0-1.25-.12-1.68.14-2.28,1.38-4.54,2.81-6.71,4.36a3.1,3.1,0,0,0-1.33,2.06,9.85,9.85,0,0,1-3.23,7.8,16,16,0,0,1-9.79,4.48,2.35,2.35,0,0,0-2.49,2.09,14.38,14.38,0,0,1-6,8.42c-3.53,2.34-9.54,1.64-12.39-1.5a44.24,44.24,0,0,1-3.72-5c-.6-.87-1.27-1.45-2.14-.64-4.69,4.33-10,1.22-12.6-2.89-.75-1.16-1.52-2.3-2.36-3.39a1.28,1.28,0,0,0-1.07-.45,1.18,1.18,0,0,0-.57,1,6.66,6.66,0,0,0,1,1.94c.75,1.09,1.58,2.12,2.52,3.36a12,12,0,0,1-6.43.1c-.71-.22-1.35-1.36-1.62-2.21-.45-1.44-1.21-2.22-2.73-2.15a7.66,7.66,0,0,1-7.29-3.7,12.17,12.17,0,0,1-1.52-9.13,8.45,8.45,0,0,0,.37-1.88,4.23,4.23,0,0,0-.66-1.42c-.37.33-1,.59-1.06,1a16.62,16.62,0,0,0-.73,3.92c-.22,9.58-5.63,15.46-15,17.33-2.88.58-5.21,1.17-6.7,4.15-1.78,3.58-5.34,5.19-9,6.28a27.29,27.29,0,0,1-14.81,0,16.87,16.87,0,0,1-7.71-4.83,3.73,3.73,0,0,0-2.4-1.13c-5.17.16-8.86-2.39-12.55-5.72-4.89-4.42-7.65-10-10.16-15.82a11.62,11.62,0,0,1-.2-1.7,7.22,7.22,0,0,0-.59-1.3c-.43.26-1.16.47-1.22.8a5.58,5.58,0,0,0,.09,2.44,25,25,0,0,0,1.27,3c-3.51,2.15-7.16,3.86-11.35,3.79a80,80,0,0,1-9-.69,13.46,13.46,0,0,1-10.47-7.42c-1.29-2.39-2.5-4.83-3.68-7.28-2.18-4.49-2-9.09-.54-13.74.43-1.41.8-2.85,1.27-4.26A3.72,3.72,0,0,0,178,114a15.58,15.58,0,0,1,3.69-21.19c3.53-2.72,7.61-4,11.77-5.05a29.51,29.51,0,0,1,21.33,2.42ZM276.64,71.3l-3.85.26c-10.18.72-17.26,6.16-22.31,14.66-.24.41,0,1.11.05,1.68.52-.25,1.2-.37,1.52-.78,1.54-1.93,2.79-4.13,4.51-5.86a34.11,34.11,0,0,1,6.14-4.81c4.44-2.77,9.51-3.07,14.58-3.31A24.76,24.76,0,0,1,291,75.94a1.72,1.72,0,0,0,2.63-.75c1.31-2.52,3.75-3.36,6.11-4.38.52-.22.86-.84,1.27-1.28-.64-.15-1.38-.59-1.9-.41-2.54.94-5.13,1.87-6.66,4.41a1.35,1.35,0,0,1-1.28.33A26.76,26.76,0,0,0,276.64,71.3Zm67.68-5.77a23.28,23.28,0,0,0-9.11,3.11,1.19,1.19,0,0,0-.37,1.1,1.25,1.25,0,0,0,1.07.46,10.39,10.39,0,0,0,1.76-.76c2.69-1.11,5.34-2.23,8.42-1.81A14.36,14.36,0,0,1,353,70.87c4.44,3.46,7.45,7.76,6.47,13.85-.05.35.37.78.57,1.17.39-.22,1-.36,1.13-.69a5.77,5.77,0,0,0,.39-1.87c.39-3.84-1.23-7.08-3.41-10A18.55,18.55,0,0,0,344.32,65.53Z"/><path d="M276.64,71.3a26.76,26.76,0,0,1,14.57,2.56,1.35,1.35,0,0,0,1.28-.33c1.53-2.54,4.12-3.47,6.66-4.41.52-.18,1.26.26,1.9.41-.41.44-.75,1.06-1.27,1.28-2.36,1-4.8,1.86-6.11,4.38a1.72,1.72,0,0,1-2.63.75,24.76,24.76,0,0,0-13.76-2.8c-5.07.24-10.14.54-14.58,3.31a34.11,34.11,0,0,0-6.14,4.81c-1.72,1.73-3,3.93-4.51,5.86-.32.41-1,.53-1.52.78,0-.57-.29-1.27-.05-1.68,5.05-8.5,12.13-13.94,22.31-14.66Z"/><path d="M344.32,65.53a18.55,18.55,0,0,1,13.81,7.81c2.18,2.91,3.8,6.15,3.41,10a5.77,5.77,0,0,1-.39,1.87c-.17.33-.74.47-1.13.69-.2-.39-.62-.82-.57-1.17,1-6.09-2-10.39-6.47-13.85a14.36,14.36,0,0,0-6.89-3.24c-3.08-.42-5.73.7-8.42,1.81a10.39,10.39,0,0,1-1.76.76,1.25,1.25,0,0,1-1.07-.46,1.19,1.19,0,0,1,.37-1.1A23.28,23.28,0,0,1,344.32,65.53Z"/></g></g></g></g></g></svg>