<svg xmlns="http://www.w3.org/2000/svg" viewBox="0 0 492.75 305.82"><defs><style>.cls-1{fill:#fff;}</style></defs><g id="Layer_2" data-name="Layer 2"><g id="Homepage"><g id="Clouds"><g id="Clouds_Right"><g id="_10" data-name="10"><path d="M167.33,235.67c-3.05,2.7-6.73,3.43-10.7,3.59a35,35,0,0,1-17.95-3.78,30.54,30.54,0,0,1-10.21-8.69c-.83-1.08-1.08-2.6-1.67-4.1-4.17.63-8.56,1.2-11-3.95-.44.49-.71.76-1,1a15.89,15.89,0,0,1-13,6.22,25.61,25.61,0,0,1-12.36-3.21,19.33,19.33,0,0,1-4.87-4.06,5.8,5.8,0,0,1-.94-6.53c.29-.67.62-1.32,1-2.15-2.78,0-4.44-1.47-5.5-4a51.31,51.31,0,0,1-2.87,4.41,19.39,19.39,0,0,1-14,7.5,28.84,28.84,0,0,1-12.43-1.42,12.67,12.67,0,0,1-8.46-12c0-.14,0-.29-.07-.55a19.07,19.07,0,0,1-13.75.05c-4.56-1.63-8.39-4.34-9.6-9.51-3.42,1.85-6.78,1.14-10,.12-7.82-2.47-10.5-11.95-5.4-18.52,2.61-3.36,5.9-5.29,10.22-4.94,2.3.19,4.56.69,6.85,1a2.94,2.94,0,0,0,1.63-.27c2.78-1.41,5.49-3,8.28-4.33,5-2.48,10.45-3.1,15.92-2.85,5,.23,10,.87,15.05,1.46a43.45,43.45,0,0,1,5.19,1.24c.47.11,1,.16,1.5.25a15.84,15.84,0,0,0,.45-2.14c.33-5.3,3.54-8.21,8.21-9.75A17.6,17.6,0,0,1,81,155c3.36-.08,6.72.11,10.09.08a3.08,3.08,0,0,0,2.07-.73c5.18-5.61,11.68-6.13,18.62-4.89a3.05,3.05,0,0,0,3-.72,11.55,11.55,0,0,1,7.55-3.06c2-.06,3.94,0,6,0-.06-1-.07-1.8-.17-2.61-.63-5.53,2.09-9.14,6.7-11.66,6.7-3.67,13.83-3.81,21.07-2.23,1.62.35,3.07,1.53,4.59,2.35.55.29,1.07.64,1.68,1,.23-5.59,3.69-8.37,10.74-8.33-2.55-3.23-5.1-6.44-4-10.83a12.13,12.13,0,0,1,7.9-8.78c-7.75-2.82-15.1-6-16.72-14.81-1.44-7.78-1-15.48,5.5-21.36a11.71,11.71,0,0,1-1.57-9,5.84,5.84,0,0,1,5.15-4.9c2.44-.39,5-.09,7.5-.17a2.26,2.26,0,0,0,1.59-.51c3.4-4.62,7.37-5.67,12.63-3.25a.73.73,0,0,0,.25-.13,7.79,7.79,0,0,1,10-2.63,4.77,4.77,0,0,0,2,.28c1.32,0,2.63-.18,4-.28,0-1.94,0-4,0-6.16a16,16,0,0,1,3.52-10.18,2.5,2.5,0,0,0,.55-1.59c-.41-4,1.14-7.44,3-10.84,2.75-5.15,7.57-7.17,12.78-8.58a40.66,40.66,0,0,1,13.73-.84A73.58,73.58,0,0,1,249,10.84c1,.19,1.22-.33,1.55-.93a18.72,18.72,0,0,1,7.82-7.67A20.8,20.8,0,0,1,272.52.5a51.07,51.07,0,0,1,6.72,1.85c4.06,1.37,7.51,3.66,9.52,7.55.77,1.5.91,3.31,1.44,4.95.15.44.67,1.09,1,1.09,4.78,0,7.23,3.19,9.47,6.68a13.43,13.43,0,0,1,1.9,8,17.69,17.69,0,0,1-.74,3.25c3,.82,4.62,3,5.13,6.13,3.19-1.17,6-1,8.45,1.69,1.61-2.34,4-2.25,6.39-2.06,5.38.44,10,2.88,14,6.22,3.33,2.79,4.66,6.93,5.36,11.14a2.18,2.18,0,0,0,1.53,2,25.49,25.49,0,0,1,3.18,1.59,8.24,8.24,0,0,1,4,4.92,14,14,0,0,1-2.81,14c-.16.19-.32.38-.46.58a1.4,1.4,0,0,0-.13.33c1,.78,2,1.56,3,2.35,3.76-2.57,7.7-2.43,11.59.41a1,1,0,0,0,.76.23c2.62-1,5.06-.42,7.54.84,4.25-6.35,10.28-9.27,17.69-8.07s12.47,5.51,13.92,13h7.19c2-2.88,3.62-5.7,5.75-8,3.44-3.8,7.34-7.47,12.44-8.52,8.06-1.67,15.5-.11,21.93,5.69,9.77,8.83,11.52,19.67,8.67,31.81-.86,3.63-3.6,5.94-6.42,8.1-.36.27-.73.5-1.12.78,1.79,1.39,3.49,2.78,5.26,4.09,5,3.71,7.08,8.87,7.46,14.87.32,4.89.21,9.79-2.57,14.05-1.39,2.13-2.23,4.09-1.74,6.68a17,17,0,0,1-.24,4.2c2.11-.15,4.26-.35,6.41-.43,4.28-.16,8.23.93,11.27,4a45.21,45.21,0,0,0,4.82,3.78,15.44,15.44,0,0,1,2.44,2.92c3.58,4.62,3.77,9.82,2.56,15.24-.12.53-.23,1.07-.39,1.59-.26.8.05,1.26.76,1.67a11.72,11.72,0,0,1,4.68,5.73,28.15,28.15,0,0,1,2.5,14.17c-.67,8.33-4.55,14.7-12.1,18.61-1.48.76-3.08,1.3-4.63,2a36.49,36.49,0,0,1,1.86,4.77c2.67,11.32-1.58,20.34-11.63,26.14a24.8,24.8,0,0,1-12.94,3.1c-5.83,0-11.76.51-17.31-1.76a81.14,81.14,0,0,1-7.68-4.12,4.42,4.42,0,0,0-1.73-.7c-4.83-.17-9.62-.42-13.95-3.25-.42,1.24-.74,2.3-1.13,3.34a23.21,23.21,0,0,1-8.23,10.46c-1.5,1.13-3.11,2.11-4.65,3.18-2.86,2-6.22,2.15-9.49,2.59a48,48,0,0,1-17.55-.81,22,22,0,0,1-4.38-1.76,1.5,1.5,0,0,0-2,.32c-5,4.93-11.82,6.31-17.87,3.3-2.38-1.19-4.39-3.17-6.49-4.88-1.19-1-2.23-2.11-3.35-3.15a1.69,1.69,0,0,0-.85-.51c-2.65-.15-5.31-.25-7.95-.36a37.29,37.29,0,0,1,1.65,5.68c1,7.92.15,15.39-5.6,21.64-2.63,2.85-5.13,5.79-8.77,7.41-6.31,2.81-12.78,3.68-19.49,1.53a1.08,1.08,0,0,1-.41-.17c-2.36-2.18-4.7-1.44-7,.06-2.15,1.39-4.6,1.47-7,1.58a36.49,36.49,0,0,1-22.07-6.21,38.39,38.39,0,0,1-7.42-6.77,91,91,0,0,1-6.32-8.6c-1.58-2.28-3-4.65-3-7.75-8.26.08-14.27-3.81-18.88-10.27-7.17,3.21-14.54,2.71-21.83,1.36a24.75,24.75,0,0,1-8.33-3.38,132.55,132.55,0,0,1-11.91-8.54,24.62,24.62,0,0,1-7.61-10.44,14,14,0,0,1-.91-4.89,2.38,2.38,0,0,0-1.79-2.6C170.31,237.14,168.91,236.39,167.33,235.67ZM251.59,11.9a22.24,22.24,0,0,1,2.07,1.26c1.83,1.41,3.67,2.83,5.42,4.35.31.27.2,1,.29,1.52a4.15,4.15,0,0,1-1.57-.22,13.37,13.37,0,0,1-1.5-1.43,20.38,20.38,0,0,0-9.54-5.1,47.51,47.51,0,0,0-16.26-.5c-5.8.94-11.38,2.52-14.55,8.23-1.76,3.14-3.21,6.35-2.72,10.12a2.88,2.88,0,0,1-.58,2.05c-2.88,3.31-3.78,7.24-3.58,11.46.12,2.59-.35,5.41,2.1,7.38a1.18,1.18,0,0,1,.41.77,14,14,0,0,1-.13,1.7c-.5-.27-1.19-.42-1.48-.84-1.54-2.23-3.6-3.23-6.2-2.62a4.61,4.61,0,0,1-3.38-.45,5.53,5.53,0,0,0-7.8,2.62c-.07.13-.11.28-.18.41-.46.85-1,.93-1.8.34-3.84-2.93-8.59-2-10.67,2.27-.66,1.34-1.39,1.4-2.69,1.26a45,45,0,0,0-7.06-.22,4.63,4.63,0,0,0-3.75,2.39c-1.12,1.91-.71,6.5.71,8.23,1.23,1.51,1.21,1.6-.22,3a16.22,16.22,0,0,0-4.58,7.49,29.16,29.16,0,0,0-.4,11.5,13.19,13.19,0,0,0,5.58,8.94c4.16,3.07,8.88,4.71,13.83,5.88.77.18,2.09.1,1.94,1.35s-1.39.85-2.2.85a9.77,9.77,0,0,0-8,3.55c-2.31,2.88-3.52,6.84-1.08,10,1.15,1.46,2.42,2.83,3.57,4.3a8.4,8.4,0,0,1,.84,1.73,5.88,5.88,0,0,1-1.66.68c-1.38.12-2.77,0-4.15.11-4.52.25-6.63,2.85-6.11,7.34a6.24,6.24,0,0,1-.41,1.88,6.57,6.57,0,0,1-1.7-.59c-3.72-2.65-7.56-4.72-12.37-4.75-5.62,0-11,.6-15.7,3.91-1.55,1.09-3.08,2.27-3.62,4.19-.94,3.4-1.12,6.71,1.29,9.71.34.43.15,1.28.21,1.94-.52-.23-1.25-.31-1.53-.71a4,4,0,0,0-3.7-1.74l-4.31.1a9.54,9.54,0,0,0-6.72,2.74c-1.43,1.47-2.76,1.38-4.52,1-6.38-1.21-12.37-.74-17,4.55A3.6,3.6,0,0,1,91.22,157c-3.21-.15-6.43-.26-9.64-.2a19.15,19.15,0,0,0-5.11.76,9.6,9.6,0,0,0-7,11.32c.21,1.14-.3,1.51-1.44,1.19A63.55,63.55,0,0,0,60,168c-4.89-.68-9.82-1.2-14.75-1.42A32.52,32.52,0,0,0,27.07,171c-3.3,1.92-6.8,3.44-9.15,6.64-.2.27-.85.21-1.3.31,0-.49-.25-1.1,0-1.45a31.68,31.68,0,0,1,2.3-3L13,173.06c-3.8-.27-6.64,1.35-8.91,4.33-4.61,6-1.67,14.35,5.72,15.73a69.9,69.9,0,0,0,7.92.58,35.76,35.76,0,0,1,0-3.79c.09-.82-.28-2.28,1.13-2.11s.76,1.48.69,2.34A10.36,10.36,0,0,0,24,200c4.24,3.09,9,3.68,14,3a6.47,6.47,0,0,0,3.45-1.56,69.09,69.09,0,0,0,4.76-5.61,8.06,8.06,0,0,1,.95-1.3c.65-.52,1.48-.28,1.39.52-.2,1.7.88,2.52,2,3.16,3.44,2,7,3.63,11.09,1.8.41-.18,1.07.23,1.62.37-.3.44-.51,1.06-.93,1.3a8.7,8.7,0,0,1-6.48.74c-3.2-.76-6.2-1.95-8.46-4.45-1.22,1.43-2.39,2.76-3.51,4.14a2.82,2.82,0,0,0-.43,1.24,10.69,10.69,0,0,0,6.8,11.28,27.06,27.06,0,0,0,11.83,1.45,17.21,17.21,0,0,0,12.59-6.69A55.32,55.32,0,0,0,78,203.72c.23-.38.72-.93,1-.88a2,2,0,0,1,1.12,1,22.22,22.22,0,0,0,1.44,2.74A5.36,5.36,0,0,0,83.84,208a2.47,2.47,0,0,0,3.09-1c.26-.34,1.09-.25,1.66-.36a5,5,0,0,1-.28,1.54c-.77,1.31-1.74,2.53-2.47,3.86-1.47,2.65-1,4.68,1.3,6.71,4.21,3.77,9.22,5.24,14.72,5.35s9.7-2.53,12.66-7.18a7.75,7.75,0,0,1,1.41-1.32,10.05,10.05,0,0,1,1.13,1.57c.78,1.66,1.77,3.41,3.57,3.7,3.44.56,7,.59,9.63-2.36a2.94,2.94,0,0,1,1.19-.85c.35-.13.8.06,1.21.1-.06.44,0,1-.2,1.3a7.71,7.71,0,0,1-2.08,1.88c-1.75.91-1.48,2.22-.95,3.62a5.87,5.87,0,0,0,.93,1.68c4.64,5.45,10.39,9.29,17.47,10.43,4.1.66,8.37.4,12.56.33,2.05,0,3.69-1.37,5.54-2.52-4.72-3.08-7.38-7.65-10.71-11.61a22.28,22.28,0,0,1-2.27-3.47c-.19-.34,0-.88,0-1.33.48.07,1.1,0,1.4.26a14.2,14.2,0,0,1,1.43,1.89c2,2.68,3.85,5.54,6.11,8,6.5,7.1,14.5,11,24.33,10.57.84,0,2.37-.62,2.34.88,0,1.33-1.54,1-2.43.94-3.53-.17-7.06-.46-10.67-.71-.45,2.21.5,4.37,1.63,6.48a30.62,30.62,0,0,0,7.45,9c4.87,4.12,10.07,7.77,16.15,9.79a37,37,0,0,0,16,1.19,43.72,43.72,0,0,0,5.78-1.41c-.66-3.42-1.31-6.55-1.84-9.7-.07-.42.46-.94.71-1.41a6.88,6.88,0,0,1,1.06,1.17,2.86,2.86,0,0,1,.19,1.16c.57,7.86,5.21,12.87,11.69,16.54a17.5,17.5,0,0,0,8.47,1.87c1.46,0,2,.46,2.23,2a11.89,11.89,0,0,0,1.57,4.7,81.59,81.59,0,0,0,6.74,9.58,43.33,43.33,0,0,0,7.76,7.25,33.66,33.66,0,0,0,15.64,5.65c5.32.66,10.46.11,15.05-3.1a2.23,2.23,0,0,1,2,.1,14.69,14.69,0,0,0,7,2.67,46.48,46.48,0,0,0,6.35-.15c9.52-.75,15.4-6.68,19.62-14.46,2.36-4.35,2.55-9.37,1.76-14.22-.53-3.23-1-6.78-4.86-8.17-.25-.09-.3-.73-.44-1.11a3.86,3.86,0,0,1,1.42-.38c3.41.48,6.79,1.21,10.22,1.53a9.71,9.71,0,0,0,8.59-3.83c.82-1,1.43-2.14,2.25-3.13.27-.33.87-.4,1.32-.58.1.48.39,1,.24,1.42a11.36,11.36,0,0,1-1.35,2.3,13.07,13.07,0,0,1-6.92,5.17c1,.95,1.78,1.78,2.65,2.49,2.11,1.7,4.07,3.75,6.45,4.94,5.6,2.8,11.7,1.37,16.2-3.41a2.24,2.24,0,0,1,3-.55,25.23,25.23,0,0,0,4.92,2A45.49,45.49,0,0,0,389,274c2-.28,4.16-.29,6-1.08a28.34,28.34,0,0,0,12.61-10,31.68,31.68,0,0,0,2.82-6.46,1.7,1.7,0,0,0-.49-1.47,28.33,28.33,0,0,0-3-2.22,28.44,28.44,0,0,1-8.9-9.39c-.4-.73-.86-1.42-1.23-2-7,2.32-13.48,1.55-19.48-2.56-.39-.27-.45-1-.67-1.56.57,0,1.29-.21,1.67,0a19.6,19.6,0,0,0,13.83,3.31,22.52,22.52,0,0,0,3.39-.9c-.76-2.73-1.61-5.07-2-7.48a60.68,60.68,0,0,1-.6-7.38c-.05-.84-.25-2.13,1-2.12s.88,1.34.85,2.13a29.71,29.71,0,0,0,7.24,20.82,49.26,49.26,0,0,0,8.14,7.07c4.74,3.6,10.23,5,16.15,5a5.63,5.63,0,0,1,3.1,1.05,26.12,26.12,0,0,0,15,5.37c3.27.09,6.54-.08,9.8.05A20.79,20.79,0,0,0,466,261c9.75-5.85,13.33-16,8.88-26.56-.64-1.52-1.39-2.65-3.32-2.28a4,4,0,0,1-1.44-.28l-3.32-.78c-.59,1.58-1,3.06-1.68,4.43a8.68,8.68,0,0,1-12.21,4.18,8.06,8.06,0,0,1-2.18-1.5c-.33-.32-.28-1-.4-1.53a5.34,5.34,0,0,1,1.57.16c.62.27,1.12.81,1.73,1.12,3,1.52,7.27,1,8.69-1.35a20.39,20.39,0,0,0,2.26-5.43c.6-2.26.86-2.65,3.11-1.84a14.37,14.37,0,0,0,12.32-.93c6.57-3.58,10-9.21,10.8-16.52a27.51,27.51,0,0,0-2.88-15c-.86-1.78-2.11-3.37-3.93-3.79s-1.56-1.14-1.34-2.37a68.85,68.85,0,0,0,1.2-8,13.5,13.5,0,0,0-5.08-11.06c-1.51-1.3-3.26-2.29-4.74-3.77-4.92-5-16.43-5.57-22.24,2a24.81,24.81,0,0,1,1.83,1.72c5,5.81,6.28,12.77,5.23,20-1.17,8-6.74,12.83-13.56,16.38-.31.16-.86-.13-1.3-.21a4,4,0,0,1,.36-1.29c.25-.33.75-.47,1.11-.73,2.22-1.64,4.55-3.16,6.62-5a15.18,15.18,0,0,0,5-10.17c.55-5.43,0-10.79-3.19-15.54-1.21-1.84-2.47-3.58-4.75-4.25a8,8,0,0,1-1.43-.73c.38-.44.68-1.09,1.17-1.3,6-2.56,8.17-6.76,6.81-13.08a2.16,2.16,0,0,1,.28-1.63c3.61-4.27,4.67-9.26,4.44-14.69-.19-4.73-1.11-9.26-4.5-12.71a52.38,52.38,0,0,0-7.44-5.85c-2.12-1.49-2.17-2.19,0-3.55,3-1.91,5.89-4.12,6.74-7.77,2.47-10.66,1.57-20.6-6.94-28.59a32.56,32.56,0,0,0-6.34-4.84c-4.31-2.38-9.11-2.45-13.89-2a10,10,0,0,0-3.08,1,31.89,31.89,0,0,0-9.34,7,21.17,21.17,0,0,0-5.82,10.33c-.12.55-.73,1-1.11,1.46-.24-.56-.72-1.15-.68-1.69.09-1-.27-1.39-1.2-1.38-1.23,0-2.48,0-3.7.12a1.62,1.62,0,0,0-1.65,2c.12,1.72.06,3.46.11,5.19.11,3.33-1.39,6.13-2.94,8.9-.18.33-.88.38-1.34.57a4,4,0,0,1-.22-1.44,7.28,7.28,0,0,1,.89-1.87,13,13,0,0,0,1.73-7.41c-.08-1.29-.06-2.57-.11-3.86-.23-6.64-3-11.59-9.42-14.08a15.15,15.15,0,0,0-12.78.5,15.41,15.41,0,0,0-6.42,5.87c1.25,1.88,1.08,3.88.13,6,3.15.78,5,2.9,6.14,5.66s.54,5.58-.62,8.35a25.1,25.1,0,0,1,11.79,1.94,9,9,0,0,1,2.7,2.19c.25.26,0,1-.07,1.55a6.25,6.25,0,0,1-1.38-.48c-.95-.59-1.76-1.54-2.78-1.83a50.07,50.07,0,0,0-7.38-1.52,8.87,8.87,0,0,0-3.6.61c-1.41.46-2.71,1.21-4.1,1.71-.41.15-1-.1-1.46-.16.13-.49.1-1.12.41-1.42a10.64,10.64,0,0,1,1.95-1.33,7.56,7.56,0,0,0,3.13-7.91A7.77,7.77,0,0,0,369.81,93a7.88,7.88,0,0,1-1.67-.67,9,9,0,0,1,.81-1.46c1.21-1.49,1.28-3.6.09-4.58a6.89,6.89,0,0,0-7-.73,1.91,1.91,0,0,1-1.74-.28,6.73,6.73,0,0,0-9.93-.46c-.79.71-1.42.75-2.1-.14A9.3,9.3,0,0,0,346.77,83a7.6,7.6,0,0,0-5.24-1.72c-.42,0-.87-.55-1.3-.85.38-.31.73-.82,1.15-.89a18.44,18.44,0,0,1,2.35,0,1.8,1.8,0,0,0,1.15-.36c3.52-3.81,4.9-8.14,3.21-13.24a5.91,5.91,0,0,0-2.79-3.51c-2.68-1.48-5.3-3.13-8.61-2.72-.4.05-.88-.52-1.32-.8.4-.34.77-.89,1.22-1a15,15,0,0,1,2.7-.05,4.28,4.28,0,0,0,0-1c-.79-3.57-1.84-7.17-4.69-9.55-2.26-1.9-5.1-3.13-7.72-4.59a14,14,0,0,0-7.21-1.36,3,3,0,0,0-2.64,1.36c-1.31,1.91-1.7,1.89-3.17.15-1.83-2.19-4.14-2.4-6.28-.57-1.05.89-1.89.6-2.22-.79-.2-.82-.36-1.65-.59-2.45a4.27,4.27,0,0,0-4-3.42c-1.68-.13-3.36-.29-5-.28a13.23,13.23,0,0,0-10.8,5,3.49,3.49,0,0,1-3.24,1.54c-4.59-.23-8.33,1.63-9.8,6.43a6.46,6.46,0,0,1-.66,1.8,1.51,1.51,0,0,1-1.19.5c-.19,0-.55-.74-.47-1.05.92-3.46,2.24-6.64,5.81-8.32A15.3,15.3,0,0,1,281.91,40a2.54,2.54,0,0,0,1.47-.67c1-.84,1.76-1.88,2.77-2.65,3.4-2.59,7.33-3.33,11.51-3.08,2,.12,2.33-.08,2.91-2a6.16,6.16,0,0,0,.16-1.61c.06-3.63-1.5-6.57-3.78-9.25a7.37,7.37,0,0,0-5.51-2.8c-2.72-.14-2.86-.18-3.13-2.85-.48-4.73-3.15-7.89-7.21-9.79C276.42,3,271.48,1.6,266.18,2,259.45,2.48,254.77,5.93,251.59,11.9Z"/><path class="cls-1" d="M251.59,11.9c3.18-6,7.86-9.42,14.59-9.91,5.3-.39,10.24,1.05,14.92,3.24,4.06,1.9,6.73,5.06,7.21,9.79.27,2.67.41,2.71,3.13,2.85a7.37,7.37,0,0,1,5.51,2.8c2.28,2.68,3.84,5.62,3.78,9.25a6.16,6.16,0,0,1-.16,1.61c-.58,2-.86,2.16-2.91,2-4.18-.25-8.11.49-11.51,3.08-1,.77-1.8,1.81-2.77,2.65a2.54,2.54,0,0,1-1.47.67,15.3,15.3,0,0,0-6.48,1.33c-3.57,1.68-4.89,4.86-5.81,8.32-.08.31.28,1,.47,1.05a1.51,1.51,0,0,0,1.19-.5,6.46,6.46,0,0,0,.66-1.8c1.47-4.8,5.21-6.66,9.8-6.43A3.49,3.49,0,0,0,285,40.4a13.23,13.23,0,0,1,10.8-5c1.68,0,3.36.15,5,.28a4.27,4.27,0,0,1,4,3.42c.23.8.39,1.63.59,2.45.33,1.39,1.17,1.68,2.22.79,2.14-1.83,4.45-1.62,6.28.57,1.47,1.74,1.86,1.76,3.17-.15a3,3,0,0,1,2.64-1.36,14,14,0,0,1,7.21,1.36c2.62,1.46,5.46,2.69,7.72,4.59,2.85,2.38,3.9,6,4.69,9.55a4.28,4.28,0,0,1,0,1,15,15,0,0,0-2.7.05c-.45.08-.82.63-1.22,1,.44.28.92.85,1.32.8,3.31-.41,5.93,1.24,8.61,2.72A5.91,5.91,0,0,1,348.09,66c1.69,5.1.31,9.43-3.21,13.24a1.8,1.8,0,0,1-1.15.36,18.44,18.44,0,0,0-2.35,0c-.42.07-.77.58-1.15.89.43.3.88.87,1.3.85A7.6,7.6,0,0,1,346.77,83a9.3,9.3,0,0,1,1.51,1.62c.68.89,1.31.85,2.1.14a6.73,6.73,0,0,1,9.93.46,1.91,1.91,0,0,0,1.74.28,6.89,6.89,0,0,1,7,.73c1.19,1,1.12,3.09-.09,4.58a9,9,0,0,0-.81,1.46,7.88,7.88,0,0,0,1.67.67,7.77,7.77,0,0,1,5.95,5.76,7.56,7.56,0,0,1-3.13,7.91,10.64,10.64,0,0,0-1.95,1.33c-.31.3-.28.93-.41,1.42.49.06,1.05.31,1.46.16,1.39-.5,2.69-1.25,4.1-1.71a8.87,8.87,0,0,1,3.6-.61,50.07,50.07,0,0,1,7.38,1.52c1,.29,1.83,1.24,2.78,1.83A6.25,6.25,0,0,0,391,111c0-.53.32-1.29.07-1.55a9,9,0,0,0-2.7-2.19,25.1,25.1,0,0,0-11.79-1.94c1.16-2.77,1.83-5.51.62-8.35s-3-4.88-6.14-5.66c1-2.15,1.12-4.15-.13-6a15.41,15.41,0,0,1,6.42-5.87A15.15,15.15,0,0,1,390.1,79c6.41,2.49,9.19,7.44,9.42,14.08.05,1.29,0,2.57.11,3.86a13,13,0,0,1-1.73,7.41,7.28,7.28,0,0,0-.89,1.87,4,4,0,0,0,.22,1.44c.46-.19,1.16-.24,1.34-.57,1.55-2.77,3.05-5.57,2.94-8.9-.05-1.73,0-3.47-.11-5.19a1.62,1.62,0,0,1,1.65-2c1.22-.11,2.47-.09,3.7-.12.93,0,1.29.37,1.2,1.38,0,.54.44,1.13.68,1.69.38-.48,1-.91,1.11-1.46a21.17,21.17,0,0,1,5.82-10.33,31.89,31.89,0,0,1,9.34-7,10,10,0,0,1,3.08-1c4.78-.42,9.58-.35,13.89,2A32.56,32.56,0,0,1,448.21,81c8.51,8,9.41,17.93,6.94,28.59-.85,3.65-3.73,5.86-6.74,7.77-2.15,1.36-2.1,2.06,0,3.55a52.38,52.38,0,0,1,7.44,5.85c3.39,3.45,4.31,8,4.5,12.71.23,5.43-.83,10.42-4.44,14.69a2.16,2.16,0,0,0-.28,1.63c1.36,6.32-.83,10.52-6.81,13.08-.49.21-.79.86-1.17,1.3a8,8,0,0,0,1.43.73c2.28.67,3.54,2.41,4.75,4.25,3.16,4.75,3.74,10.11,3.19,15.54a15.18,15.18,0,0,1-5,10.17c-2.07,1.81-4.4,3.33-6.62,5-.36.26-.86.4-1.11.73a4,4,0,0,0-.36,1.29c.44.08,1,.37,1.3.21,6.82-3.55,12.39-8.37,13.56-16.38,1.05-7.26-.19-14.22-5.23-20a24.81,24.81,0,0,0-1.83-1.72c5.81-7.58,17.32-7,22.24-2,1.48,1.48,3.23,2.47,4.74,3.77a13.5,13.5,0,0,1,5.08,11.06,68.85,68.85,0,0,1-1.2,8c-.22,1.23-.41,2,1.34,2.37s3.07,2,3.93,3.79a27.51,27.51,0,0,1,2.88,15c-.77,7.31-4.23,12.94-10.8,16.52a14.37,14.37,0,0,1-12.32.93c-2.25-.81-2.51-.42-3.11,1.84a20.39,20.39,0,0,1-2.26,5.43c-1.42,2.33-5.67,2.87-8.69,1.35-.61-.31-1.11-.85-1.73-1.12a5.34,5.34,0,0,0-1.57-.16c.12.52.07,1.21.4,1.53a8.06,8.06,0,0,0,2.18,1.5,8.68,8.68,0,0,0,12.21-4.18c.65-1.37,1.09-2.85,1.68-4.43l3.32.78a4,4,0,0,0,1.44.28c1.93-.37,2.68.76,3.32,2.28,4.45,10.6.87,20.71-8.88,26.56a20.79,20.79,0,0,1-11.84,3.21c-3.26-.13-6.53,0-9.8-.05a26.12,26.12,0,0,1-15-5.37,5.63,5.63,0,0,0-3.1-1.05c-5.92,0-11.41-1.41-16.15-5a49.26,49.26,0,0,1-8.14-7.07,29.71,29.71,0,0,1-7.24-20.82c0-.79.49-2.11-.85-2.13s-1,1.28-1,2.12a60.68,60.68,0,0,0,.6,7.38c.42,2.41,1.27,4.75,2,7.48a22.52,22.52,0,0,1-3.39.9,19.6,19.6,0,0,1-13.83-3.31c-.38-.26-1.1,0-1.67,0,.22.53.28,1.29.67,1.56,6,4.11,12.46,4.88,19.48,2.56.37.59.83,1.28,1.23,2a28.44,28.44,0,0,0,8.9,9.39,28.33,28.33,0,0,1,3,2.22,1.7,1.7,0,0,1,.49,1.47,31.68,31.68,0,0,1-2.82,6.46,28.34,28.34,0,0,1-12.61,10c-1.8.79-4,.8-6,1.08a45.49,45.49,0,0,1-16.81-.71,25.23,25.23,0,0,1-4.92-2,2.24,2.24,0,0,0-3,.55c-4.5,4.78-10.6,6.21-16.2,3.41-2.38-1.19-4.34-3.24-6.45-4.94-.87-.71-1.64-1.54-2.65-2.49a13.07,13.07,0,0,0,6.92-5.17,11.36,11.36,0,0,0,1.35-2.3c.15-.38-.14-.94-.24-1.42-.45.18-1.05.25-1.32.58-.82,1-1.43,2.14-2.25,3.13a9.71,9.71,0,0,1-8.59,3.83c-3.43-.32-6.81-1-10.22-1.53a3.86,3.86,0,0,0-1.42.38c.14.38.19,1,.44,1.11,3.87,1.39,4.33,4.94,4.86,8.17.79,4.85.6,9.87-1.76,14.22-4.22,7.78-10.1,13.71-19.62,14.46a46.48,46.48,0,0,1-6.35.15,14.69,14.69,0,0,1-7-2.67,2.23,2.23,0,0,0-2-.1c-4.59,3.21-9.73,3.76-15.05,3.1a33.66,33.66,0,0,1-15.64-5.65,43.33,43.33,0,0,1-7.76-7.25,81.59,81.59,0,0,1-6.74-9.58,11.89,11.89,0,0,1-1.57-4.7c-.2-1.55-.77-2-2.23-2a17.5,17.5,0,0,1-8.47-1.87c-6.48-3.67-11.12-8.68-11.69-16.54a2.86,2.86,0,0,0-.19-1.16,6.88,6.88,0,0,0-1.06-1.17c-.25.47-.78,1-.71,1.41.53,3.15,1.18,6.28,1.84,9.7a43.72,43.72,0,0,1-5.78,1.41,37,37,0,0,1-16-1.19c-6.08-2-11.28-5.67-16.15-9.79a30.62,30.62,0,0,1-7.45-9c-1.13-2.11-2.08-4.27-1.63-6.48,3.61.25,7.14.54,10.67.71.89.05,2.4.39,2.43-.94,0-1.5-1.5-.91-2.34-.88-9.83.39-17.83-3.47-24.33-10.57-2.26-2.47-4.09-5.33-6.11-8a14.2,14.2,0,0,0-1.43-1.89c-.3-.27-.92-.19-1.4-.26,0,.45-.19,1,0,1.33a22.28,22.28,0,0,0,2.27,3.47c3.33,4,6,8.53,10.71,11.61-1.85,1.15-3.49,2.49-5.54,2.52-4.19.07-8.46.33-12.56-.33-7.08-1.14-12.83-5-17.47-10.43a5.87,5.87,0,0,1-.93-1.68c-.53-1.4-.8-2.71.95-3.62a7.71,7.71,0,0,0,2.08-1.88c.24-.28.14-.86.2-1.3-.41,0-.86-.23-1.21-.1a2.94,2.94,0,0,0-1.19.85c-2.68,2.95-6.19,2.92-9.63,2.36-1.8-.29-2.79-2-3.57-3.7a10.05,10.05,0,0,0-1.13-1.57,7.75,7.75,0,0,0-1.41,1.32c-3,4.65-7,7.29-12.66,7.18s-10.51-1.58-14.72-5.35c-2.27-2-2.77-4.06-1.3-6.71.73-1.33,1.7-2.55,2.47-3.86a5,5,0,0,0,.28-1.54c-.57.11-1.4,0-1.66.36a2.47,2.47,0,0,1-3.09,1,5.36,5.36,0,0,1-2.23-1.49,22.22,22.22,0,0,1-1.44-2.74,2,2,0,0,0-1.12-1c-.29-.05-.78.5-1,.88a55.32,55.32,0,0,1-3.39,5.73,17.21,17.21,0,0,1-12.59,6.69,27.06,27.06,0,0,1-11.83-1.45,10.69,10.69,0,0,1-6.8-11.28,2.82,2.82,0,0,1,.43-1.24c1.12-1.38,2.29-2.71,3.51-4.14,2.26,2.5,5.26,3.69,8.46,4.45a8.7,8.7,0,0,0,6.48-.74c.42-.24.63-.86.93-1.3-.55-.14-1.21-.55-1.62-.37-4.11,1.83-7.65.18-11.09-1.8-1.11-.64-2.19-1.46-2-3.16.09-.8-.74-1-1.39-.52a8.06,8.06,0,0,0-.95,1.3,69.09,69.09,0,0,1-4.76,5.61A6.47,6.47,0,0,1,38,203.06c-5,.66-9.76.07-14-3a10.36,10.36,0,0,1-4.45-9.9c.07-.86.64-2.18-.69-2.34s-1,1.29-1.13,2.11a35.76,35.76,0,0,0,0,3.79,69.9,69.9,0,0,1-7.92-.58c-7.39-1.38-10.33-9.7-5.72-15.73,2.27-3,5.11-4.6,8.91-4.33l5.92.44a31.68,31.68,0,0,0-2.3,3c-.21.35,0,1,0,1.45.45-.1,1.1,0,1.3-.31,2.35-3.2,5.85-4.72,9.15-6.64a32.52,32.52,0,0,1,18.22-4.36c4.93.22,9.86.74,14.75,1.42a63.55,63.55,0,0,1,8,2.07c1.14.32,1.65-.05,1.44-1.19a9.6,9.6,0,0,1,7-11.32,19.15,19.15,0,0,1,5.11-.76c3.21-.06,6.43.05,9.64.2a3.6,3.6,0,0,0,3.17-1.18c4.67-5.29,10.66-5.76,17-4.55,1.76.34,3.09.43,4.52-1a9.54,9.54,0,0,1,6.72-2.74l4.31-.1a4,4,0,0,1,3.7,1.74c.28.4,1,.48,1.53.71-.06-.66.13-1.51-.21-1.94-2.41-3-2.23-6.31-1.29-9.71.54-1.92,2.07-3.1,3.62-4.19,4.73-3.31,10.08-3.94,15.7-3.91,4.81,0,8.65,2.1,12.37,4.75a6.57,6.57,0,0,0,1.7.59,6.24,6.24,0,0,0,.41-1.88c-.52-4.49,1.59-7.09,6.11-7.34,1.38-.07,2.77,0,4.15-.11a5.88,5.88,0,0,0,1.66-.68,8.4,8.4,0,0,0-.84-1.73c-1.15-1.47-2.42-2.84-3.57-4.3-2.44-3.12-1.23-7.08,1.08-10a9.77,9.77,0,0,1,8-3.55c.81,0,2.05.41,2.2-.85s-1.17-1.17-1.94-1.35c-5-1.17-9.67-2.81-13.83-5.88A13.19,13.19,0,0,1,162,88.88a29.16,29.16,0,0,1,.4-11.5,16.22,16.22,0,0,1,4.58-7.49c1.43-1.41,1.45-1.5.22-3-1.42-1.73-1.83-6.32-.71-8.23a4.63,4.63,0,0,1,3.75-2.39,45,45,0,0,1,7.06.22c1.3.14,2,.08,2.69-1.26C182,51,186.77,50,190.61,53c.78.59,1.34.51,1.8-.34.07-.13.11-.28.18-.41a5.53,5.53,0,0,1,7.8-2.62,4.61,4.61,0,0,0,3.38.45c2.6-.61,4.66.39,6.2,2.62.29.42,1,.57,1.48.84a14,14,0,0,0,.13-1.7,1.18,1.18,0,0,0-.41-.77c-2.45-2-2-4.79-2.1-7.38-.2-4.22.7-8.15,3.58-11.46a2.88,2.88,0,0,0,.58-2.05c-.49-3.77,1-7,2.72-10.12,3.17-5.71,8.75-7.29,14.55-8.23a47.51,47.51,0,0,1,16.26.5,20.38,20.38,0,0,1,9.54,5.1,13.37,13.37,0,0,0,1.5,1.43,4.15,4.15,0,0,0,1.57.22c-.09-.52,0-1.25-.29-1.52-1.75-1.52-3.59-2.94-5.42-4.35A22.24,22.24,0,0,0,251.59,11.9Zm18.83,211.39c-3.39,5-7.1,9-13.43,9.76a37.38,37.38,0,0,1-17.66-1.94,46.77,46.77,0,0,1-7.09-3.34c-1.26-.71-2.21-2-3.38-2.85a4.84,4.84,0,0,0-1.67-.45c.1.55,0,1.26.33,1.62a13.92,13.92,0,0,0,2.88,2.76,38.76,38.76,0,0,0,28.24,5.79c2.7-.48,5.36-1.25,7.31-3.33s3.74-4.31,5.64-6.44a1.6,1.6,0,0,1,1.17-.48c2.79.34,5.56,1,8.35,1.1,3.93.2,7.92.62,11.76-.89.27-.11.85.23,1.14.52a49.7,49.7,0,0,0,3.75,3.79c6.22,4.87,13.54,7.32,21.09,9.09,6.11,1.44,12.38,1.27,18.62,1.4,4.58.09,8.47-1.73,12.3-3.85.32-.17.39-.79.59-1.2-.42-.16-.9-.53-1.24-.44a12.36,12.36,0,0,0-2.28,1.05,18.36,18.36,0,0,1-7.85,2.47c-9.88.39-19.59-.36-28.9-4-5.91-2.31-11.52-5-15.33-10.47-.28-.39-1.27-.5-1.88-.41-2.28.33-4.53,1-6.81,1.15a46.38,46.38,0,0,1-8.74-.35,22.55,22.55,0,0,1-6.43-2c-3.81-1.84-6-5.31-7.61-9a7.73,7.73,0,0,0-4.11-4.13,6.32,6.32,0,0,1-3.81-5.28,1.48,1.48,0,0,1,.85-1.63,57.51,57.51,0,0,0,5-3.63c.4-.33.72-1.4.5-1.7-.66-.87-1.24,0-1.84.37-2.85,1.92-5.55,4.22-8.65,5.63-7.48,3.41-15.13,3.08-22.52-.43-2.56-1.22-4.8-3.09-7.22-4.62-.87-.56-1.8-1.57-2.89-.48s.1,1.89.64,2.65c2.84,4,5.32,8.22,5.13,13.32-.15,3.89-.72,7.76-1.16,11.64a8.79,8.79,0,0,1-3.28,5.66c-1.28,1.11-2.76,1.85-2.12,3.91.05.16-.09.38-.16.57a8.28,8.28,0,0,1-6.75,5.58c-3.37.48-6.79.6-10.19.86a5.2,5.2,0,0,0-1.32.1c-.31.11-.75.53-.72.76a1.5,1.5,0,0,0,.72.94,2.28,2.28,0,0,0,1.17.09c3.64-.28,7.31-.44,10.93-.91a10.24,10.24,0,0,0,8.36-8.7,2.1,2.1,0,0,1,.72-1.14c2.07-1.91,4-4,4.37-6.88a117,117,0,0,0,1.26-12.51,15.69,15.69,0,0,0-2.51-9.62,20.38,20.38,0,0,1-1.19-2.27c9.9,6.39,20.11,7.46,31.05,2.73a6.86,6.86,0,0,0,2.62,5.17,38.25,38.25,0,0,0,3.34,2.17,3.7,3.7,0,0,1,1.37,1.25C263,216.39,265.56,220.61,270.42,223.29ZM395.57,206.8c.91.74,1.65,1.3,2.35,1.91,5.94,5.21,12.78,7.56,20.69,6.53a9.88,9.88,0,0,0,2.18-.41c.37-.13.6-.64.89-1a7.72,7.72,0,0,0-1.21-.77c-.24-.1-.58.05-.87.11-8.88,1.66-16.12-1.56-22.35-7.62a3.7,3.7,0,0,1-.81-2.21c-.23-3.1-.37-6.21-.47-9.31a1.65,1.65,0,0,1,.65-1.2c1.83-1.16,3.79-2.13,5.58-3.36a17.88,17.88,0,0,0,7.7-13.17,54.51,54.51,0,0,0-.24-9.63c-.22-3.53-1.79-6.66-3.36-9.75-.16-.33-.76-.43-1.16-.64a9.84,9.84,0,0,0-.46,1.39c0,.2.14.47.26.68,2.78,4.82,3.23,10.09,3.18,15.5a16.6,16.6,0,0,1-7.34,14.29,37.28,37.28,0,0,1-5.38,3.09,2.24,2.24,0,0,0-1.42,2.93c1.1,5.35,1.13,10.58-1.62,15.57-3.12,5.65-7.62,9.52-14,10.63-5.3.92-10.66.45-16-.31a2.91,2.91,0,0,0-2.17.45,12.28,12.28,0,0,1-6.64,3.67c-.42.08-.73.75-1.1,1.15.49.22,1,.68,1.45.61a10.46,10.46,0,0,0,6.44-3.07,2.93,2.93,0,0,1,2.77-.88c3.6.29,7.2.52,10.8.65A21,21,0,0,0,389,217.12,22.61,22.61,0,0,0,395.57,206.8Zm-283.48,7.88a31.44,31.44,0,0,0,4.24-.73A19.25,19.25,0,0,0,127,206.44c.26-.37.07-1.05.1-1.58a4.85,4.85,0,0,0-1.59.58c-.67.57-1.12,1.38-1.74,2-6.26,6.21-14.58,6.55-22.37,3.56-2.67-1-4.89-3.45-7-5.5a17.78,17.78,0,0,1-2.74-4.28c-.38-.67-.19-2-1.42-1.53-.34.12-.29,1.41-.36,2.17a1.61,1.61,0,0,0,.21.71c2,4.5,5.74,7.36,9.73,9.86C103.31,214.64,107.41,214.34,112.09,214.68ZM307,193.3a21,21,0,0,0,11.2-2.28c.45-.24.6-1,.89-1.57a6.19,6.19,0,0,0-1.71,0c-1.89.54-3.72,1.5-5.63,1.72a34.84,34.84,0,0,1-20-3.35c-.71-.36-1.65-1.09-2.19,0s.67,1.32,1.34,1.69C295.87,192.22,301.39,192.92,307,193.3Zm26.38,15.38a17.09,17.09,0,0,0,10.4-5.09c.58-.64,1.79-1.36.81-2.3s-1.51.4-2.09,1c-3.48,3.32-7.48,5.26-12.36,4.15-2.29-.53-4.43-1.62-6.67-2.38a4.35,4.35,0,0,0-1.56.05,8.13,8.13,0,0,0,.56,1.5,2,2,0,0,0,.86.56A25.13,25.13,0,0,0,333.36,208.68Z"/><path d="M270.42,223.29c-4.86-2.68-7.43-6.9-9.53-11.52a3.7,3.7,0,0,0-1.37-1.25,38.25,38.25,0,0,1-3.34-2.17,6.86,6.86,0,0,1-2.62-5.17c-10.94,4.73-21.15,3.66-31.05-2.73a20.38,20.38,0,0,0,1.19,2.27,15.69,15.69,0,0,1,2.51,9.62A117,117,0,0,1,225,224.85c-.41,2.87-2.3,5-4.37,6.88a2.1,2.1,0,0,0-.72,1.14,10.24,10.24,0,0,1-8.36,8.7c-3.62.47-7.29.63-10.93.91a2.28,2.28,0,0,1-1.17-.09,1.5,1.5,0,0,1-.72-.94c0-.23.41-.65.72-.76a5.2,5.2,0,0,1,1.32-.1c3.4-.26,6.82-.38,10.19-.86a8.28,8.28,0,0,0,6.75-5.58c.07-.19.21-.41.16-.57-.64-2.06.84-2.8,2.12-3.91a8.79,8.79,0,0,0,3.28-5.66c.44-3.88,1-7.75,1.16-11.64.19-5.1-2.29-9.3-5.13-13.32-.54-.76-1.76-1.53-.64-2.65s2-.08,2.89.48c2.42,1.53,4.66,3.4,7.22,4.62,7.39,3.51,15,3.84,22.52.43,3.1-1.41,5.8-3.71,8.65-5.63.6-.4,1.18-1.24,1.84-.37.22.3-.1,1.37-.5,1.7a57.51,57.51,0,0,1-5,3.63,1.48,1.48,0,0,0-.85,1.63,6.32,6.32,0,0,0,3.81,5.28,7.73,7.73,0,0,1,4.11,4.13c1.61,3.69,3.8,7.16,7.61,9a22.55,22.55,0,0,0,6.43,2,46.38,46.38,0,0,0,8.74.35c2.28-.11,4.53-.82,6.81-1.15.61-.09,1.6,0,1.88.41,3.81,5.43,9.42,8.16,15.33,10.47,9.31,3.64,19,4.39,28.9,4a18.36,18.36,0,0,0,7.85-2.47,12.36,12.36,0,0,1,2.28-1.05c.34-.09.82.28,1.24.44-.2.41-.27,1-.59,1.2-3.83,2.12-7.72,3.94-12.3,3.85-6.24-.13-12.51,0-18.62-1.4-7.55-1.77-14.87-4.22-21.09-9.09a49.7,49.7,0,0,1-3.75-3.79c-.29-.29-.87-.63-1.14-.52-3.84,1.51-7.83,1.09-11.76.89-2.79-.14-5.56-.76-8.35-1.1a1.6,1.6,0,0,0-1.17.48c-1.9,2.13-3.69,4.36-5.64,6.44s-4.61,2.85-7.31,3.33a38.76,38.76,0,0,1-28.24-5.79,13.92,13.92,0,0,1-2.88-2.76c-.31-.36-.23-1.07-.33-1.62a4.84,4.84,0,0,1,1.67.45c1.17.89,2.12,2.14,3.38,2.85a46.77,46.77,0,0,0,7.09,3.34A37.38,37.38,0,0,0,257,233.05C263.32,232.25,267,228.27,270.42,223.29Z"/><path d="M395.57,206.8A22.61,22.61,0,0,1,389,217.12a21,21,0,0,1-15.09,5.52c-3.6-.13-7.2-.36-10.8-.65a2.93,2.93,0,0,0-2.77.88,10.46,10.46,0,0,1-6.44,3.07c-.44.07-1-.39-1.45-.61.37-.4.68-1.07,1.1-1.15a12.28,12.28,0,0,0,6.64-3.67,2.91,2.91,0,0,1,2.17-.45c5.31.76,10.67,1.23,16,.31,6.41-1.11,10.91-5,14-10.63,2.75-5,2.72-10.22,1.62-15.57a2.24,2.24,0,0,1,1.42-2.93,37.28,37.28,0,0,0,5.38-3.09,16.6,16.6,0,0,0,7.34-14.29c.05-5.41-.4-10.68-3.18-15.5-.12-.21-.3-.48-.26-.68a9.84,9.84,0,0,1,.46-1.39c.4.21,1,.31,1.16.64,1.57,3.09,3.14,6.22,3.36,9.75a54.51,54.51,0,0,1,.24,9.63,17.88,17.88,0,0,1-7.7,13.17c-1.79,1.23-3.75,2.2-5.58,3.36A1.65,1.65,0,0,0,396,194c.1,3.1.24,6.21.47,9.31a3.7,3.7,0,0,0,.81,2.21c6.23,6.06,13.47,9.28,22.35,7.62.29-.06.63-.21.87-.11a7.72,7.72,0,0,1,1.21.77c-.29.35-.52.86-.89,1a9.88,9.88,0,0,1-2.18.41c-7.91,1-14.75-1.32-20.69-6.53C397.22,208.1,396.48,207.54,395.57,206.8Z"/><path d="M112.09,214.68c-4.68-.34-8.78,0-12.28-2.24-4-2.5-7.73-5.36-9.73-9.86a1.61,1.61,0,0,1-.21-.71c.07-.76,0-2.05.36-2.17,1.23-.44,1,.86,1.42,1.53a17.78,17.78,0,0,0,2.74,4.28c2.16,2.05,4.38,4.47,7,5.5,7.79,3,16.11,2.65,22.37-3.56.62-.63,1.07-1.44,1.74-2a4.85,4.85,0,0,1,1.59-.58c0,.53.16,1.21-.1,1.58A19.25,19.25,0,0,1,116.33,214,31.44,31.44,0,0,1,112.09,214.68Z"/><path d="M307,193.3c-5.59-.38-11.11-1.08-16.12-3.87-.67-.37-1.93-.55-1.34-1.69s1.48-.33,2.19,0a34.84,34.84,0,0,0,20,3.35c1.91-.22,3.74-1.18,5.63-1.72a6.19,6.19,0,0,1,1.71,0c-.29.54-.44,1.33-.89,1.57A21,21,0,0,1,307,193.3Z"/><path d="M333.36,208.68a25.13,25.13,0,0,1-10.05-2.56,2,2,0,0,1-.86-.56,8.13,8.13,0,0,1-.56-1.5,4.35,4.35,0,0,1,1.56-.05c2.24.76,4.38,1.85,6.67,2.38,4.88,1.11,8.88-.83,12.36-4.15.58-.55,1.12-1.87,2.09-1s-.23,1.66-.81,2.3A17.09,17.09,0,0,1,333.36,208.68Z"/></g></g></g></g></g></svg>