<svg xmlns="http://www.w3.org/2000/svg" viewBox="0 0 358.31 182.65"><defs><style>.cls-1{fill:#fff;}</style></defs><g id="Layer_2" data-name="Layer 2"><g id="Homepage"><g id="Clouds"><g id="Clouds_Right"><g id="_09" data-name="09"><path d="M342.57,109.49c2.08.85,4.06,1.61,6,2.47,5.73,2.55,7.07,7.48,7.15,13.14,0,4-1.86,7.15-3.85,10.32-.29.46-.56.92-.87,1.43.91.53,1.73,1,2.53,1.48,4.65,2.78,5.39,8.76,4.4,13.28-1,4.37-4.48,7.23-9.44,7.87a10,10,0,0,1-2.82.17c-1.36-.23-2,.36-2.68,1.42a15.35,15.35,0,0,1-12.81,7c-.6,0-1.2,0-1.8,0-6.95.19-12-3-15.53-8.79-.15-.25-.32-.49-.54-.81-5.43,5.63-12.25,4.88-19.17,4.37-.31,1.89-.65,3.88-.94,5.87a13.64,13.64,0,0,1-3.94,7.56,19.2,19.2,0,0,1-14.15,6.07c-3.74,0-7.59.32-11.08-1.12-2.92-1.21-5.28-.76-8.09.33-4.44,1.72-9.1,1.2-13.69.1a31.4,31.4,0,0,1-14.61-8.32,53.85,53.85,0,0,1-4.58-5.7c-1.33,1-2.76,2-4.14,3.13-7.43,5.89-16.1,7.79-25.32,7.87-6.63.06-13.25,0-19.71-1.83a36.6,36.6,0,0,1-21.14-15.59,28.91,28.91,0,0,1-1.57-3.06,13.94,13.94,0,0,1-1.07,1c-2.59,2-5.07,4.17-7.82,5.93-5,3.16-10.61,3.06-16.21,2.7-7.2-.47-13-3.77-17.67-9.16-1.42-1.64-2.59-3.5-4-5.18a2.45,2.45,0,0,0-1.61-.69c-4.11-.13-8.17-.46-11.87-2.47-.91-.5-1.75-1.12-2.76-1.77-.49.8-1,1.61-1.51,2.45-3,5.21-7.81,8.35-13.08,10.93a30,30,0,0,1-14.15,3,67.33,67.33,0,0,1-14.09-1.38C37.9,162,33,158.13,29.08,153c-1.69-2.21-3.18-4.57-4.76-6.86-2-2.84-2.37-6.12-2.36-9.41s.4-6.62.63-10.05a29.37,29.37,0,0,1-3.61,0c-2.6-.29-5.2-.66-7.78-1.14C9,125.07,7.45,123.48,6,122,1.32,117.18-.33,111.39.05,104.86c.27-4.64,1-9.09,3.88-13a11.2,11.2,0,0,1,8.75-4.71c1.68-.09,3.37,0,5.21,0,0-.56,0-1.1,0-1.62.27-2.86.16-5.83.91-8.56,1.57-5.79,5.72-9.25,11.56-10.08A49,49,0,0,1,41.2,67c3,.24,5.48,2,7.58,4.5.4-.79.71-1.39,1-2a6.46,6.46,0,0,1,5.13-3.88c4-.56,7.92-.67,11.81,1.06.74-3.55,3-5.74,6.5-7.19a10.76,10.76,0,0,1-5.07-9.24c-.06-4.33,2.45-6.6,6.07-8.19-.21-.9-.43-1.7-.58-2.52-1.12-6.13.14-11.76,3.09-17.24a15.69,15.69,0,0,1,10.82-8.15,20.43,20.43,0,0,1,12.62.74c.6.24,1.21.44,1.82.66.05,0,.1,0,0,0,1.43-1.8,2.73-3.61,4.22-5.25a18.48,18.48,0,0,1,4-3.57,36,36,0,0,1,5.71-2.4c2.6-1,5.16-2.08,7.83-2.81,7.3-2,14.66-2.38,21.54,1.25a25.22,25.22,0,0,1,12.86,14.85,5.27,5.27,0,0,0,.19.56,1.41,1.41,0,0,0,.26.34c.16-.26.31-.47.43-.7,3.2-5.72,7.71-9.69,14.52-10,3.3-.16,6.63.36,10,.5a3.64,3.64,0,0,0,1.89-.45c1-.59,1.94-1.39,2.92-2.07a11.31,11.31,0,0,1,6-1.95c5-.22,9.57,1,13.28,4.6l3.6-2.24c5.33-3.4,11.07-3.07,16.7-1.34a32.8,32.8,0,0,1,17,12.08c.95,1.27,1.83,1.59,3.57,1.24a26.59,26.59,0,0,1,8-.15c8.93,1,14.59,6.42,17.94,14.33,1,2.38,1,5.23,1.23,7.89.12,1.18.4,1.52,1.63,1.64a27.81,27.81,0,0,1,15.21,6,14,14,0,0,1,5.18,10.4,62.85,62.85,0,0,1-.52,7c0,.47,0,1.17.25,1.41,2.61,2.24,2.63,2.22,4.1,5.79.75-1,1.38-2,2.14-2.89,3.54-4.12,7.47-7.75,13.22-8.13a34.89,34.89,0,0,1,8.9.5c6.27,1.24,9.84,5.87,9.78,12.24,0,2.32-.32,4.64-.5,7.1,3.78-.57,7.4-.2,9.1,4,1.61,4,0,7.14-3.06,9.87C345.78,99.6,346,104.46,342.57,109.49ZM223.89,166.17a5.67,5.67,0,0,0,.28.79,13.43,13.43,0,0,0,.84,1.41,29.1,29.1,0,0,0,17.2,11.55c4.08,1,8.32,1.46,12.21-.23,3.1-1.34,5.71-1.76,9-.37,3.7,1.58,7.84,1.38,11.81,1.09,7.52-.53,14.65-5.69,15.51-14,.15-1.53.29-3.07.41-4.6.08-1.14.6-1.71,1.75-1.32,3.42,1.16,6.9.87,10.36.46s6.41-1.76,8.26-4.94a1.52,1.52,0,0,1,1.13-.71c.35.06.7.62.89,1,3,6.48,7.9,10.08,15.28,9.81a11.81,11.81,0,0,1,1.19,0c4.71.38,11.52-3.88,12.85-9,.65-2.5,1.5-4.95,2.34-7.39.14-.39.74-.63,1.12-.94.22.48.69,1,.6,1.43-.38,1.75-.92,3.46-1.44,5.17-.21.73-.5,1.43-.88,2.49a46.42,46.42,0,0,0,5.07-.7c3.35-.87,5.95-2.74,6.51-6.39.86-5.51-.29-10.11-6.24-12.29-1.07-.39-1.3-1.06-.85-2a25.19,25.19,0,0,1,1.85-3.23,14.85,14.85,0,0,0,2.73-11.3c-.46-2.66-1.08-5.34-3.51-7-2.87-1.93-5.87-3.59-9.52-3.46a1.7,1.7,0,0,1-1.37-.79c-.13-.41.27-1.07.6-1.5a21,21,0,0,0,1.93-2.24c2.11-4,1.61-7.46-2.34-10.85-1.25-1.07-1.16-1.47.08-2.53a11.39,11.39,0,0,0,2.57-2.85c1.85-3.22.19-8.1-4.29-7.94-1.18,0-2.34.39-3.52.49a2.18,2.18,0,0,1-1.58-.34,1.87,1.87,0,0,1-.16-1.62c1.15-2.49,1.06-5.13,1.15-7.76a9.14,9.14,0,0,0-4.88-8.63c-4.24-2.52-8.88-2.21-13.5-1.56A9,9,0,0,0,312,64.79a23.67,23.67,0,0,0-8,7.47A27.2,27.2,0,0,1,302,75.08a1.86,1.86,0,0,1-1.3.73c-.36-.07-.74-.71-.88-1.17a26.26,26.26,0,0,0-.72-3,7.22,7.22,0,0,0-2-2.84c-2.34-1.72-2.41-1.63-1.73-4.5.06-.24.14-.48.18-.73,1-5.44.06-10.5-4.24-14.17a24.88,24.88,0,0,0-15-5.67c-2.39-.14-2.6-.16-2.5-2.6a20.24,20.24,0,0,0-4.79-14.22A19.66,19.66,0,0,0,254,19.61a13.72,13.72,0,0,0-5.14.4c-2.12.8-3.52.4-4.76-1.31-.23-.32-.54-.59-.78-.9a32,32,0,0,0-11.86-9.56C224.23,4.87,217.11,4,210.24,9a9.8,9.8,0,0,0-1.2,1.21,7.41,7.41,0,0,0,1.62,1.11c3,1,5.7,2.4,7.37,5.24.85,1.44,1.6,2.94,2.44,4.51a6.57,6.57,0,0,1,1.18-.29c2.81-.25,5.62-.51,8.44-.64.44,0,.91.64,1.37,1-.5.28-1,.77-1.51.81-1.53.12-3.08,0-4.62.09-3.83.22-7,1.74-8.8,5.23-.94,1.78-1.54,3.75-2.36,5.6-.19.42-.68.7-1,1a11.2,11.2,0,0,1-.78-1.39c-.08-.19.07-.48.13-.72a18.64,18.64,0,0,1,5.21-9.06,1.82,1.82,0,0,0,.52-1.47c-1-3.31-2.83-6.09-6.24-7.32a13.48,13.48,0,0,1-5.77-4c-3.86-4.39-9.09-4.9-14.54-3.71a7.55,7.55,0,0,0-2.38,1.21c-1.08.71-2,1.64-3.16,2.25a4.08,4.08,0,0,1-2.59.52,28.65,28.65,0,0,0-10.83-.43c-6.08.85-10,4.55-12.37,10-.6,1.4-.73,3-1.21,4.45-.22.66-.82,1.74-1.14,1.7-1.25-.15-.69-1.25-.7-2a12.36,12.36,0,0,0,0-1.49c-1.17-8.55-6-14.55-13.54-18.26-6.39-3.14-13.18-2.71-19.82-.66-3.26,1-6.29,2.68-9.74,3.22a7,7,0,0,0-2.88,1.5,25.7,25.7,0,0,0-9.27,12.52c-.4,1.23-.67,2.5-1.1,3.71-.14.39-.59.66-.9,1-.3-.4-.79-.76-.84-1.18a4.75,4.75,0,0,1,.31-1.89c.52-1.65,1.1-3.27,1.68-5a19.38,19.38,0,0,0-17.61.28c-3.33,1.67-4.81,4.78-6.31,7.87a20.94,20.94,0,0,0-1.36,15.25c.63,2.24.64,2.26-1.47,3.28s-3.83,2.14-4.29,4.6A9.2,9.2,0,0,0,76.25,58.9c.53.18.89.87,1.33,1.32-.5.3-1,.8-1.52.87-4.84.66-6.38,2-7.57,6.63-.34,1.35-1,1.8-2.13,1-2.32-1.54-4.89-1.48-7.47-1.63-4.06-.22-7.08,1-8.41,5.25-.54,1.71-1.39,1.79-2.77.57-.41-.36-.8-.75-1.18-1.15a8.78,8.78,0,0,0-5.7-3,54,54,0,0,0-9.51-.18c-6.16.63-10.35,4.86-11.12,11A60,60,0,0,0,20,87.86c0,1.29-.3,1.72-1.44,1.62a51,51,0,0,0-5.78-.36,9.11,9.11,0,0,0-7.52,4.16C2.68,97,2.06,101.14,2,105.47c-.06,3.14,0,6.29,1.39,9.21,1.66,3.52,3.74,6.9,7.36,8.53a19.16,19.16,0,0,0,13.69.83,2,2,0,0,1,1.54.48c.16.13-.16.9-.34,1.35s-.56.93-.72,1.44A27.86,27.86,0,0,0,24.34,141a11.89,11.89,0,0,0,1.58,4,76.48,76.48,0,0,0,4.54,6.65c3.91,5.12,8.71,9.13,15.28,10.15a80.43,80.43,0,0,0,13.5,1.09c11.32-.19,20.17-5,26-14.91a1.72,1.72,0,0,0-.08-2.13Q82.95,142.51,81,139c-.23-.39.13-1.11.23-1.68.48.31,1.12.51,1.41.94,1.54,2.32,2.87,4.79,4.52,7a9.49,9.49,0,0,0,3.52,3.13c6.32,2.76,12.75,3.83,19.22.31.43-.24,1.14,0,1.71,0-.24.52-.35,1.28-.76,1.5-1.73.94-3.55,1.72-5.67,2.71,1.27,1.51,2.55,3.11,3.92,4.64,4.25,4.75,9.44,7.75,15.9,8.22,4.64.34,9.3.47,13.65-1.52a32.82,32.82,0,0,0,10-7.4,2.1,2.1,0,0,0,.67-2.31c-.53-2.07-1-4.17-1.31-6.28-.06-.39.41-.87.64-1.31a5,5,0,0,1,1.16,1.07,5.93,5.93,0,0,1,.26,1.45c1.08,4.27,1.63,8.7,4.4,12.41a42.06,42.06,0,0,0,7.2,7.1,31.84,31.84,0,0,0,15.1,6.71,91.32,91.32,0,0,0,17.72.93,38.39,38.39,0,0,0,24.67-9.21c.58-.49,1.14-1,1.63-1.43-2.69-1.16-5.18-2.13-7.59-3.29-4.29-2.09-7.34-5.75-10.85-8.81a1.53,1.53,0,0,1-.56-.86,4.81,4.81,0,0,1,.28-1.31c.4.09.92.06,1.19.3,1.36,1.24,2.66,2.54,4,3.83a30.62,30.62,0,0,0,12.22,7.52c5.55,1.79,10.53.18,15.21-2.71,2.1-1.29,3.9-3.05,5.9-4.52a4.71,4.71,0,0,1,1.66-.43,6.58,6.58,0,0,1-.33,1.69,4.17,4.17,0,0,1-1.12,1.18C235.93,162.7,230.62,165.79,223.89,166.17Z"/><path class="cls-1" d="M223.89,166.17c6.73-.38,12-3.47,16.89-7.54a4.17,4.17,0,0,0,1.12-1.18,6.58,6.58,0,0,0,.33-1.69,4.71,4.71,0,0,0-1.66.43c-2,1.47-3.8,3.23-5.9,4.52-4.68,2.89-9.66,4.5-15.21,2.71a30.62,30.62,0,0,1-12.22-7.52c-1.31-1.29-2.61-2.59-4-3.83-.27-.24-.79-.21-1.19-.3a4.81,4.81,0,0,0-.28,1.31,1.53,1.53,0,0,0,.56.86c3.51,3.06,6.56,6.72,10.85,8.81,2.41,1.16,4.9,2.13,7.59,3.29-.49.43-1.05.94-1.63,1.43a38.39,38.39,0,0,1-24.67,9.21,91.32,91.32,0,0,1-17.72-.93,31.84,31.84,0,0,1-15.1-6.71,42.06,42.06,0,0,1-7.2-7.1c-2.77-3.71-3.32-8.14-4.4-12.41a5.93,5.93,0,0,0-.26-1.45,5,5,0,0,0-1.16-1.07c-.23.44-.7.92-.64,1.31.36,2.11.78,4.21,1.31,6.28a2.1,2.1,0,0,1-.67,2.31,32.82,32.82,0,0,1-10,7.4c-4.35,2-9,1.86-13.65,1.52-6.46-.47-11.65-3.47-15.9-8.22-1.37-1.53-2.65-3.13-3.92-4.64,2.12-1,3.94-1.77,5.67-2.71.41-.22.52-1,.76-1.5-.57,0-1.28-.28-1.71,0-6.47,3.52-12.9,2.45-19.22-.31a9.49,9.49,0,0,1-3.52-3.13c-1.65-2.23-3-4.7-4.52-7-.29-.43-.93-.63-1.41-.94-.1.57-.46,1.29-.23,1.68q2,3.51,4.2,6.86a1.72,1.72,0,0,1,.08,2.13c-5.85,9.9-14.7,14.72-26,14.91a80.43,80.43,0,0,1-13.5-1.09c-6.57-1-11.37-5-15.28-10.15A76.48,76.48,0,0,1,25.92,145a11.89,11.89,0,0,1-1.58-4,27.86,27.86,0,0,1,.55-13.72c.16-.51.52-.94.72-1.44s.5-1.22.34-1.35a2,2,0,0,0-1.54-.48,19.16,19.16,0,0,1-13.69-.83c-3.62-1.63-5.7-5-7.36-8.53C2,111.76,1.91,108.61,2,105.47c.09-4.33.71-8.51,3.32-12.19a9.11,9.11,0,0,1,7.52-4.16,51,51,0,0,1,5.78.36c1.14.1,1.45-.33,1.44-1.62a60,60,0,0,1,.17-8.16c.77-6.19,5-10.42,11.12-11a54,54,0,0,1,9.51.18,8.78,8.78,0,0,1,5.7,3c.38.4.77.79,1.18,1.15,1.38,1.22,2.23,1.14,2.77-.57,1.33-4.21,4.35-5.47,8.41-5.25,2.58.15,5.15.09,7.47,1.63,1.12.75,1.79.3,2.13-1,1.19-4.65,2.73-6,7.57-6.63.54-.07,1-.57,1.52-.87-.44-.45-.8-1.14-1.33-1.32a9.2,9.2,0,0,1-6.09-10.25c.46-2.46,2.27-3.63,4.29-4.6s2.1-1,1.47-3.28a20.94,20.94,0,0,1,1.36-15.25c1.5-3.09,3-6.2,6.31-7.87a19.38,19.38,0,0,1,17.61-.28c-.58,1.71-1.16,3.33-1.68,5a4.75,4.75,0,0,0-.31,1.89c.05.42.54.78.84,1.18.31-.33.76-.6.9-1,.43-1.21.7-2.48,1.1-3.71A25.7,25.7,0,0,1,111.32,8.2a7,7,0,0,1,2.88-1.5c3.45-.54,6.48-2.21,9.74-3.22,6.64-2,13.43-2.48,19.82.66,7.53,3.71,12.37,9.71,13.54,18.26a12.36,12.36,0,0,1,0,1.49c0,.78-.55,1.88.7,2,.32,0,.92-1,1.14-1.7.48-1.46.61-3,1.21-4.45,2.36-5.46,6.29-9.16,12.37-10a28.65,28.65,0,0,1,10.83.43,4.08,4.08,0,0,0,2.59-.52c1.13-.61,2.08-1.54,3.16-2.25a7.55,7.55,0,0,1,2.38-1.21c5.45-1.19,10.68-.68,14.54,3.71A13.48,13.48,0,0,0,212,14c3.41,1.23,5.22,4,6.24,7.32a1.82,1.82,0,0,1-.52,1.47,18.64,18.64,0,0,0-5.21,9.06c-.06.24-.21.53-.13.72a11.2,11.2,0,0,0,.78,1.39c.35-.35.84-.63,1-1,.82-1.85,1.42-3.82,2.36-5.6,1.84-3.49,5-5,8.8-5.23,1.54-.09,3.09,0,4.62-.09.53,0,1-.53,1.51-.81-.46-.34-.93-1-1.37-1-2.82.13-5.63.39-8.44.64a6.57,6.57,0,0,0-1.18.29c-.84-1.57-1.59-3.07-2.44-4.51-1.67-2.84-4.39-4.22-7.37-5.24A7.41,7.41,0,0,1,209,10.22,9.8,9.8,0,0,1,210.24,9c6.87-5,14-4.14,21.17-.77a32,32,0,0,1,11.86,9.56c.24.31.55.58.78.9,1.24,1.71,2.64,2.11,4.76,1.31a13.72,13.72,0,0,1,5.14-.4,19.66,19.66,0,0,1,15.1,7.27,20.24,20.24,0,0,1,4.79,14.22c-.1,2.44.11,2.46,2.5,2.6a24.88,24.88,0,0,1,15,5.67c4.3,3.67,5.23,8.73,4.24,14.17,0,.25-.12.49-.18.73-.68,2.87-.61,2.78,1.73,4.5a7.22,7.22,0,0,1,2,2.84,26.26,26.26,0,0,1,.72,3c.14.46.52,1.1.88,1.17a1.86,1.86,0,0,0,1.3-.73A27.2,27.2,0,0,0,304,72.26a23.67,23.67,0,0,1,8-7.47,9,9,0,0,1,3.32-1.26c4.62-.65,9.26-1,13.5,1.56a9.14,9.14,0,0,1,4.88,8.63c-.09,2.63,0,5.27-1.15,7.76a1.87,1.87,0,0,0,.16,1.62,2.18,2.18,0,0,0,1.58.34c1.18-.1,2.34-.44,3.52-.49,4.48-.16,6.14,4.72,4.29,7.94a11.39,11.39,0,0,1-2.57,2.85c-1.24,1.06-1.33,1.46-.08,2.53,3.95,3.39,4.45,6.89,2.34,10.85a21,21,0,0,1-1.93,2.24c-.33.43-.73,1.09-.6,1.5a1.7,1.7,0,0,0,1.37.79c3.65-.13,6.65,1.53,9.52,3.46,2.43,1.65,3.05,4.33,3.51,7a14.85,14.85,0,0,1-2.73,11.3,25.19,25.19,0,0,0-1.85,3.23c-.45.91-.22,1.58.85,2,6,2.18,7.1,6.78,6.24,12.29-.56,3.65-3.16,5.52-6.51,6.39a46.42,46.42,0,0,1-5.07.7c.38-1.06.67-1.76.88-2.49.52-1.71,1.06-3.42,1.44-5.17.09-.41-.38-.95-.6-1.43-.38.31-1,.55-1.12.94-.84,2.44-1.69,4.89-2.34,7.39-1.33,5.08-8.14,9.34-12.85,9a11.81,11.81,0,0,0-1.19,0c-7.38.27-12.24-3.33-15.28-9.81-.19-.41-.54-1-.89-1a1.52,1.52,0,0,0-1.13.71c-1.85,3.18-4.81,4.53-8.26,4.94s-6.94.7-10.36-.46c-1.15-.39-1.67.18-1.75,1.32-.12,1.53-.26,3.07-.41,4.6-.86,8.27-8,13.43-15.51,14-4,.29-8.11.49-11.81-1.09-3.25-1.39-5.86-1-9,.37-3.89,1.69-8.13,1.22-12.21.23A29.1,29.1,0,0,1,225,168.37a13.43,13.43,0,0,1-.84-1.41A5.67,5.67,0,0,1,223.89,166.17Zm-88.72-33c6.63,1.85,13.12,2.23,19.48-1.08a13.18,13.18,0,0,0,6.22-6.56c.25-.57.49-1.13.77-1.79a4,4,0,0,1,.59.52c1.65,2.29,4.18,3.13,6.69,3.93.37.12.91-.3,1.37-.47a8.82,8.82,0,0,0-.79-1.25c-.17-.19-.54-.22-.82-.31a10.31,10.31,0,0,1-5.77-4,18.69,18.69,0,0,1-2.38-4.61c-2.67-8.81-3.23-17.49,2.11-25.67.26-.39.09-1.06.12-1.6-.54.18-1.36.19-1.58.55a41.79,41.79,0,0,0-2.89,5.5c-.9,2.21-.77,2.27-3.21,2.21-.45,0-.9,0-1.34-.07-5.73-.39-12-4.54-13.44-10.92-.23-1.07-.27-2.18-.55-3.23-.11-.41-.63-.71-1-1.07-.28.4-.8.81-.8,1.21a16.12,16.12,0,0,0,.39,3.24c1.68,7.77,9.23,12.73,16.56,12.75h2.14c0,.66-.07,1.1-.1,1.54-.39,5.9-.42,11.81,2.23,17.27a5.56,5.56,0,0,1-.11,5.73,12.73,12.73,0,0,1-5.2,5.36c-5.56,2.91-11.29,2.81-17.14,1.29-2.15-.56-2.92-1.54-3.15-3.81-.1-1,0-2.1-.17-3.12-.05-.39-.53-.71-.82-1.06-.32.31-.92.61-.94.93-.11,2.29-.31,4.65,1.11,6.64a1.48,1.48,0,0,1-.16,2.17,14.34,14.34,0,0,1-11,4.77c-3.72.07-8.76-4.47-7.56-9.13.18-.67.44-1.31.67-2,.43-1.23.12-1.73-1.16-2a31.31,31.31,0,0,1-3.63-.82c-4-1.3-5.85-7.12-3.36-10.39.47-.62,1.19-1.06,1.66-1.69.24-.33.17-.88.24-1.33a3.78,3.78,0,0,0-1.33-.06,3.75,3.75,0,0,0-1.19.89c-4.4,4.16-2.38,12.63,3.44,14.42,1,.31,2.08.58,3.23.9a9.12,9.12,0,0,0,2.17,10,8.44,8.44,0,0,0,5.24,2.89C126.31,140.5,131.38,138.42,135.17,133.13Zm116.46.16c-2.25,2.3-4.38,4.45-6.49,6.62-4.39,4.55-9.64,7.37-16,7.65-3.33.15-6.67-.08-10-.06-7.34.05-12.78-3.46-17.22-9-.32-.4-1-.5-1.54-.74a14.1,14.1,0,0,0,0,1.72,1.69,1.69,0,0,0,.48.74c4.41,5.13,9.62,8.79,16.66,9.05,3.34.12,6.67.3,10,.28a25.11,25.11,0,0,0,18-7.42c2-2,4.06-4,6-6,1-1.07,1.71-1.25,2.79-.14a16.17,16.17,0,0,0,9.62,4.71c3.62.5,7.33.35,11,.52a3,3,0,0,1,1.49.39,14.3,14.3,0,0,0,12.77,2.22,10.32,10.32,0,0,0,6-4.63c.32-.5.41-1.68.11-1.93-.84-.68-1.25.24-1.65.87-3.58,5.61-11.58,5.27-15.33,2.3a21.51,21.51,0,0,0,3-1.64c.4-.29.46-1,.68-1.57a6.23,6.23,0,0,0-1.68,0,18.56,18.56,0,0,0-2,1c-3.15,1.46-6.5,1.27-9.84,1.14-6.84-.25-12.46-2.79-16.26-8.7-.89-1.38-1.68-2.82-2.61-4.16-.27-.41-.87-.59-1.33-.88a6.64,6.64,0,0,0-.31,1.66,3.12,3.12,0,0,0,.62,1.35C249.59,130.23,250.64,131.79,251.63,133.29ZM63.7,132.9c2.39-.4,4.8-.72,7.17-1.23a6.76,6.76,0,0,0,4.47-3.24c.26-.43.07-1.14.09-1.72a6.88,6.88,0,0,0-1.58.64c-1,.73-1.89,2-3,2.29-5.48,1.54-11,1.91-16.25-.87a3.36,3.36,0,0,0-2.25-.26,28.78,28.78,0,0,1-16.74-.72A10.73,10.73,0,0,1,29,122.07c-1.06-2.23-1.81-4.6-2.76-6.88-.17-.43-.63-.74-1-1.11-.28.45-.8.9-.81,1.35a6.49,6.49,0,0,0,.48,2.46c.7,1.7,1.47,3.38,2.32,5a13.08,13.08,0,0,0,7.53,6.64,31.29,31.29,0,0,0,17.49,1,2.5,2.5,0,0,1,1.67.09C57,132.3,60.26,132.74,63.7,132.9Zm85.07-89.3-.1.36c-4-.14-7.42,1.47-10.6,3.58-4.84,3.22-7.72,7.94-9.36,13.42-.14.46.39,1.13.62,1.7.39-.43,1-.8,1.15-1.3,2-5.79,5.13-10.61,10.78-13.5,4-2,7.92-2.93,12.11-.69.4.21,1-.06,1.57-.1-.25-.52-.37-1.34-.76-1.51C152.42,44.81,150.58,44.24,148.77,43.6ZM315.7,139.46a69.48,69.48,0,0,0,8.07-1.24,15.07,15.07,0,0,0,9.92-8c.26-.51.2-1.71-.12-1.9-.92-.55-1.2.42-1.54,1.07a13.25,13.25,0,0,1-8.71,7c-5.81,1.48-11.62,1.52-17.17-1.31-.43-.22-1.13.11-1.71.18.29.49.47,1.18.9,1.44C308.51,138.6,312,139.16,315.7,139.46ZM110.2,84.28l-.06.36c-.75,0-1.49,0-2.24,0-5-.14-7.66,2.35-9.31,7-.28.79-1,2,.35,2.43s1.17-1,1.41-1.81c1.12-3.47,3.28-5.66,6.31-5.69,4.45,0,9-.49,13.21,1.55.3.15.79-.1,1.2-.17-.07-.44,0-1-.26-1.31a2.3,2.3,0,0,0-1.27-.71C116.43,85.36,113.32,84.83,110.2,84.28Zm-92,13.55c-.24,3.19,3,7.55,6.05,9.18a1.19,1.19,0,0,0,1.14-.23,1.29,1.29,0,0,0-.14-1.16A4.7,4.7,0,0,0,24,104.57a9.09,9.09,0,0,1-1-14.12c.4-.36.75-1.41.53-1.69-.65-.84-1.28-.09-1.85.38C19,91.4,18.51,94.58,18.23,97.83ZM163.07,48a6.78,6.78,0,0,0-5.14,2c-.32.35-.22,1.09-.3,1.66a7.31,7.31,0,0,0,1.56-.31c.8-.35,1.51-1.11,2.32-1.21,3.46-.43,6.6.22,9,3.12.31.39,1,.48,1.52.71a4.39,4.39,0,0,0,0-1.74,5,5,0,0,0-1.34-1.56C168.46,48.72,165.8,48.19,163.07,48Z"/><path d="M135.17,133.13c-3.79,5.29-8.86,7.37-15.12,6.68a8.44,8.44,0,0,1-5.24-2.89,9.12,9.12,0,0,1-2.17-10c-1.15-.32-2.2-.59-3.23-.9-5.82-1.79-7.84-10.26-3.44-14.42a3.75,3.75,0,0,1,1.19-.89,3.78,3.78,0,0,1,1.33.06c-.07.45,0,1-.24,1.33-.47.63-1.19,1.07-1.66,1.69-2.49,3.27-.61,9.09,3.36,10.39a31.31,31.31,0,0,0,3.63.82c1.28.26,1.59.76,1.16,2-.23.66-.49,1.3-.67,2-1.2,4.66,3.84,9.2,7.56,9.13a14.34,14.34,0,0,0,11-4.77,1.48,1.48,0,0,0,.16-2.17c-1.42-2-1.22-4.35-1.11-6.64,0-.32.62-.62.94-.93.29.35.77.67.82,1.06.15,1,.07,2.08.17,3.12.23,2.27,1,3.25,3.15,3.81,5.85,1.52,11.58,1.62,17.14-1.29a12.73,12.73,0,0,0,5.2-5.36,5.56,5.56,0,0,0,.11-5.73c-2.65-5.46-2.62-11.37-2.23-17.27,0-.44.06-.88.1-1.54h-2.14c-7.33,0-14.88-5-16.56-12.75a16.12,16.12,0,0,1-.39-3.24c0-.4.52-.81.8-1.21.34.36.86.66,1,1.07.28,1,.32,2.16.55,3.23C141.7,93.89,148,98,153.74,98.43c.44,0,.89.06,1.34.07,2.44.06,2.31,0,3.21-2.21a41.79,41.79,0,0,1,2.89-5.5c.22-.36,1-.37,1.58-.55,0,.54.14,1.21-.12,1.6-5.34,8.18-4.78,16.86-2.11,25.67a18.69,18.69,0,0,0,2.38,4.61,10.31,10.31,0,0,0,5.77,4c.28.09.65.12.82.31a8.82,8.82,0,0,1,.79,1.25c-.46.17-1,.59-1.37.47-2.51-.8-5-1.64-6.69-3.93a4,4,0,0,0-.59-.52c-.28.66-.52,1.22-.77,1.79a13.18,13.18,0,0,1-6.22,6.56C148.29,135.36,141.8,135,135.17,133.13Z"/><path d="M251.63,133.29c-1-1.5-2-3.06-3.06-4.63a3.12,3.12,0,0,1-.62-1.35,6.64,6.64,0,0,1,.31-1.66c.46.29,1.06.47,1.33.88.93,1.34,1.72,2.78,2.61,4.16,3.8,5.91,9.42,8.45,16.26,8.7,3.34.13,6.69.32,9.84-1.14a18.56,18.56,0,0,1,2-1,6.23,6.23,0,0,1,1.68,0c-.22.54-.28,1.28-.68,1.57a21.51,21.51,0,0,1-3,1.64c3.75,3,11.75,3.31,15.33-2.3.4-.63.81-1.55,1.65-.87.3.25.21,1.43-.11,1.93a10.32,10.32,0,0,1-6,4.63,14.3,14.3,0,0,1-12.77-2.22,3,3,0,0,0-1.49-.39c-3.67-.17-7.38,0-11-.52a16.17,16.17,0,0,1-9.62-4.71c-1.08-1.11-1.8-.93-2.79.14-1.91,2.08-4,4.06-6,6a25.11,25.11,0,0,1-18,7.42c-3.34,0-6.67-.16-10-.28-7-.26-12.25-3.92-16.66-9.05a1.69,1.69,0,0,1-.48-.74,14.1,14.1,0,0,1,0-1.72c.53.24,1.22.34,1.54.74,4.44,5.51,9.88,9,17.22,9,3.33,0,6.67.21,10,.06,6.38-.28,11.63-3.1,16-7.65C247.25,137.74,249.38,135.59,251.63,133.29Z"/><path d="M63.7,132.9c-3.44-.16-6.69-.6-9.71-2.31a2.5,2.5,0,0,0-1.67-.09,31.29,31.29,0,0,1-17.49-1,13.08,13.08,0,0,1-7.53-6.64c-.85-1.62-1.62-3.3-2.32-5a6.49,6.49,0,0,1-.48-2.46c0-.45.53-.9.81-1.35.33.37.79.68,1,1.11.95,2.28,1.7,4.65,2.76,6.88a10.73,10.73,0,0,0,6.57,5.72,28.78,28.78,0,0,0,16.74.72,3.36,3.36,0,0,1,2.25.26c5.29,2.78,10.77,2.41,16.25.87,1.12-.31,2-1.56,3-2.29a6.88,6.88,0,0,1,1.58-.64c0,.58.17,1.29-.09,1.72a6.76,6.76,0,0,1-4.47,3.24C68.5,132.18,66.09,132.5,63.7,132.9Z"/><path d="M148.77,43.6c1.81.64,3.65,1.21,5.41,2,.39.17.51,1,.76,1.51-.53,0-1.17.31-1.57.1-4.19-2.24-8.14-1.35-12.11.69-5.65,2.89-8.79,7.71-10.78,13.5-.18.5-.76.87-1.15,1.3-.23-.57-.76-1.24-.62-1.7,1.64-5.48,4.52-10.2,9.36-13.42,3.18-2.11,6.61-3.72,10.6-3.58Z"/><path d="M315.7,139.46c-3.68-.3-7.19-.86-10.36-2.76-.43-.26-.61-.95-.9-1.44.58-.07,1.28-.4,1.71-.18,5.55,2.83,11.36,2.79,17.17,1.31a13.25,13.25,0,0,0,8.71-7c.34-.65.62-1.62,1.54-1.07.32.19.38,1.39.12,1.9a15.07,15.07,0,0,1-9.92,8A69.48,69.48,0,0,1,315.7,139.46Z"/><path d="M110.2,84.28c3.12.55,6.23,1.08,9.34,1.67a2.3,2.3,0,0,1,1.27.71c.25.32.19.87.26,1.31-.41.07-.9.32-1.2.17-4.23-2-8.76-1.59-13.21-1.55-3,0-5.19,2.22-6.31,5.69-.24.76-.11,2.19-1.41,1.81s-.63-1.64-.35-2.43c1.65-4.67,4.29-7.16,9.31-7,.75,0,1.49,0,2.24,0Z"/><path d="M18.23,97.83c.28-3.25.76-6.43,3.52-8.69.57-.47,1.2-1.22,1.85-.38.22.28-.13,1.33-.53,1.69a9.09,9.09,0,0,0,1,14.12,4.7,4.7,0,0,1,1.24,1.05,1.29,1.29,0,0,1,.14,1.16,1.19,1.19,0,0,1-1.14.23C21.19,105.38,18,101,18.23,97.83Z"/><path d="M163.07,48c2.73.24,5.39.77,7.55,2.66A5,5,0,0,1,172,52.17a4.39,4.39,0,0,1,0,1.74c-.52-.23-1.21-.32-1.52-.71-2.36-2.9-5.5-3.55-9-3.12-.81.1-1.52.86-2.32,1.21a7.31,7.31,0,0,1-1.56.31c.08-.57,0-1.31.3-1.66A6.78,6.78,0,0,1,163.07,48Z"/></g></g></g></g></g></svg>