<?xml version="1.0" encoding="utf-8"?>
<!-- Generator: Adobe Illustrator 24.1.0, SVG Export Plug-In . SVG Version: 6.00 Build 0)  -->
<svg version="1.1" id="Layer_1" xmlns="http://www.w3.org/2000/svg" xmlns:xlink="http://www.w3.org/1999/xlink" x="0px" y="0px"
	 viewBox="0 0 1000 163.8" style="enable-background:new 0 0 1000 163.8;" xml:space="preserve">
<style type="text/css">
	.st0{fill:#FFFFFF;}
</style>
<g id="Layer_2_1_">
	<g id="Layer_1-2">
		<path class="st0" d="M377.4,154.4v-3.8c0.8,0,1.5,0,2.3-0.1c6.2-0.3,12.5-0.5,18.7-1c4.1-0.3,8.1-1.3,11.8-3.1
			c3.4-1.7,6.1-4,7-7.9c0.3-1.4,0.5-2.8,0.5-4.2c0-25.1,0-50.2,0-75.3c0-5.7-2.6-9.6-7.6-12c-3.7-1.6-7.5-2.7-11.5-3.1
			c-6.2-0.7-12.4-1-18.7-0.9h-2.5v-3.9c0.7,0,1.4-0.1,2-0.1c34.3,0,68.5-0.1,102.8,0c13.2,0,26.2,1.7,38.8,6.2
			c10.7,3.8,20.2,9.5,27.5,18.3c9.2,11.1,13.3,24,11.7,38.3c-1.5,14-8.4,25.4-19.1,34.4c-8.9,7.5-19.3,11.9-30.4,14.7
			c-10.3,2.4-20.8,3.5-31.4,3.4c-33.1,0-66.3,0-99.5,0L377.4,154.4z M441,149.5c0.5,0,1,0.1,1.4,0.1c10.5,0,21,0.1,31.5-0.1
			c6.4,0,12.8-0.9,18.9-2.5c11.4-3.1,21.3-8.8,28.6-18.3c9.2-11.6,12.9-26.6,10.3-41.1c-3-18.6-13.1-31.7-30.7-38.7
			c-8.5-3.3-17.6-5-26.8-4.9c-10.4-0.1-20.8,0-31.2,0c-0.6,0-1.1,0-2,0.1L441,149.5z"/>
		<path class="st0" d="M741,39.2h3.4v49.2h-3.5c-0.2-1.1-0.4-2.3-0.6-3.4c-2.4-12.4-9.1-22.1-19.2-29.6c-8.3-6.1-17.9-10.2-28-12.1
			c-13.2-2.7-26.8-2.3-39.8,1.2c-3.1,0.9-6,2.1-8.8,3.6c-2.1,1.2-4.1,2.7-5.7,4.5c-2.5,2.7-3.9,6.3-3.8,10c-0.1,3.6,1.6,7.1,4.5,9.3
			c2.6,2,5.5,3.6,8.6,4.6c5.6,1.9,11.4,3.2,17.3,4c11,1.6,22.1,2.9,33.1,4.5c10.3,1.5,20.5,3.4,30.3,7.1c5.1,1.8,9.9,4.5,14.1,7.9
			c9.3,7.8,12.4,17.9,10,29.6c-1.2,6.1-5,10.7-9.9,14.4c-5.8,4.3-12.4,6.8-19.3,8.4c-12.6,2.8-25.5,3.8-38.3,2.8
			c-12.5-0.9-24.4-4-36.4-7.4c-4.6-1.3-9.2-2.5-13.8-3.5c-5.8-1.3-11.6,2.3-12.9,8.1c-0.1,0.4-0.2,0.9-0.2,1.3
			c-0.1,0.2-0.1,0.4-0.2,0.6h-3.5V105h3.6c0.3,1.5,0.5,3,0.9,4.4c2.4,10.4,8.5,18.5,16.8,25.1c8.9,7.1,19.2,11.6,30.1,14.4
			c14.8,3.9,30.3,4.1,45.3,0.7c3.8-0.8,7.5-2.2,11-4.1c2.4-1.3,4.5-2.9,6.3-4.9c4.9-5.4,5.8-15.4-2.5-21c-4.3-2.9-9.2-4.4-14.2-5.7
			c-7.6-1.7-15.3-2.9-23.1-3.6c-12.5-1.4-25-2.5-37.3-4.9c-6.7-1.2-13.3-3.1-19.6-5.8c-4.5-1.9-8.7-4.6-12.3-8
			c-8.5-8.2-11.8-24.8-0.7-36.2c4.6-4.6,10-8.2,16-10.6c7.4-3,15.1-5,23-5.8c16.5-2.1,33.3-0.4,49,5.1c4.4,1.5,8.8,3,13.3,4.4
			c2.5,1,5.2,1.2,7.9,0.8c4.4-0.7,7.9-4.1,8.7-8.5C740.8,40.4,740.9,39.8,741,39.2z"/>
		<path class="st0" d="M287.1,155.7c-14.9,0.3-29.7-2.3-43.6-7.9c-8.4-3.3-16.2-8-22.9-14c-8.5-7.7-14.4-17-16.2-28.5
			c-2.6-15.8,1.6-29.8,12.6-41.7c7.2-7.8,16-13.2,25.7-17.3c10.6-4.4,21.8-7,33.3-7.8c9.3-0.8,18.6-0.6,27.8,0.5
			c17,2.2,32.9,7.5,46.5,18.3c8.5,6.7,14.9,15,17.7,25.6c4.8,17.8,1.2,33.8-11.4,47.5c-7.2,7.9-16.1,13.3-25.9,17.3
			c-13,5.2-26.9,7.9-40.9,7.9C288.9,155.7,288,155.7,287.1,155.7z M286.3,41.7c-4.5-0.1-8.9,0.3-13.3,1.4
			c-17.3,4.3-30.1,14.2-37.3,30.7c-4.5,10.4-5.5,21.4-3.8,32.5c2.9,18.9,13,32.5,30.3,40.7c12.2,5.8,25.1,6.7,38.1,3.8
			c18.4-4.2,31.6-15.1,38.5-32.9c3.9-10.1,4.6-20.7,2.8-31.4c-2.2-13.5-8.4-24.8-19.3-33.3C312,45.2,300.2,41.5,286.3,41.7z"/>
		<path class="st0" d="M148.9,154.2h-3.6c-0.8-3.5-3.1-5.7-6.3-7.2c-3.6-1.8-7.8-2.2-11.7-1.2c-3.1,0.9-6.3,1.9-9.3,3.1
			c-15.1,5.9-30.8,7.7-46.9,6.4c-14.8-1.2-29-5-42-12.4c-7.2-4-13.5-9.3-18.6-15.7c-15.3-19.3-13.8-47,3.5-64.5
			c7.7-7.7,17-13.6,27.3-17.3c13.7-5.2,28.3-7.7,43-7.1c10,0.4,19.9,2.8,29.1,6.8c2.9,1.2,5.9,2.5,8.9,3.6c2.3,1,4.9,1.3,7.4,0.8
			c4.4-0.7,7.9-4.1,8.7-8.5c0.1-0.6,0.2-1.2,0.4-1.8h3.4v49.3h-3.5c-0.2-1.2-0.4-2.4-0.6-3.7c-3.4-18.2-13.9-30.8-30.8-37.9
			c-14.3-6.1-29.1-7.4-43.9-2.1C42.7,52.3,30.9,67.3,28,89.1c-1.6,10.6-0.1,21.4,4.1,31.2c7.4,16.6,20.5,26.6,38.1,30.6
			c11.5,2.7,23.7,1.5,34.4-3.5c9.9-4.6,17.2-11.8,20.9-22.3c1.2-3.5,1.8-7.2,1.9-10.9c0.3-4.7-2.2-9.1-6.3-11.2
			c-2.9-1.6-6-2.7-9.2-3.2c-7.2-1.4-14.5-1.4-21.8-1.5c-1,0-1.9,0-3,0v-3.8h102.4c0,0.6,0.1,1.2,0.1,1.7s-0.1,1.2-0.1,2.1
			c-1,0-1.9,0-2.9,0c-6.5,0-13.1,0-19.6,1.1c-4.1,0.5-8,1.7-11.6,3.6c-3.1,1.6-5.4,4.4-6.1,7.8c-0.2,1.3-0.3,2.7-0.3,4
			c0,12.3,0,24.7,0,37L148.9,154.2z"/>
		<path class="st0" d="M848.3,86.8c0.9,1.4,1.8,2.6,2.6,3.8c4.8,7.6,9.5,15.2,13.7,23.2s8.4,15.6,11.6,23.8
			c2.4,6.1,4.5,12.2,6.7,18.4c0.4,1.1,0.6,2.2,0.6,3.3c0.1,1.7-0.4,3.3-2.1,4.1c-1.5,0.8-3.4,0.5-4.6-0.7c-1.8-1.8-3.4-3.7-4.7-5.9
			c-3.3-5.8-6.5-11.7-9.4-17.7c-4.2-8.7-8-17.5-12.1-26.3c-2.6-5.6-5.2-11.1-8-17.1c-0.4,0.8-0.7,1.3-0.9,1.9
			c-4.8,11.8-9,23.9-13,36c-1.8,5.3-3.7,10.5-5.7,15.7c-1.2,2.8-2.7,5.5-4.3,8c-1.2,2-3.2,3.3-5.6,2.9s-3.9-2.3-4.8-4.6
			c-1-2.8-0.7-5.7-0.3-8.6c0.8-4.7,2.2-9.3,4-13.6c4.8-12.5,9.7-24.9,14.5-37.4c3.4-8.9,6.7-18,10-26.9
			c6.3-16.8,12.7-33.6,20.4-49.8c1.7-3.7,3.3-7.4,5.2-11c1.5-2.8,3.7-5.2,6.4-7c3.5-2.3,7.1-0.8,7.7,3.4c0.4,2.8,0,5.7-1,8.3
			c-3.2,8.5-6.3,17.1-9.5,25.7c-2.5,6.7-5.3,13.2-8,19.8c-0.3,0.7-0.4,1.5-0.3,2.2c1.3-1,2.7-2,4-3.1c8-6.5,16-13.1,24.1-19.5
			c4-3.1,8.1-6.1,12.2-9c1-0.7,2-1.2,3.2-1.5c2.9-0.7,5,1.4,4.6,4.3c-0.3,2-1.3,3.8-2.7,5.3c-3.7,4-7.2,8.1-11.2,11.8
			c-6.2,5.7-12.8,11.1-19.1,16.7c-5.6,4.9-11.1,9.9-16.7,14.8C853.5,82.5,851,84.5,848.3,86.8z"/>
		<path class="st0" d="M973.8,75.6l9.7-1.1c3.8-0.5,7.7-0.4,11.6,0.2c1.4,0.3,2.7,0.9,3.8,1.6c1,0.6,1.4,1.9,0.9,2.9
			c-0.1,0.2-0.2,0.4-0.4,0.5c-0.6,0.8-1.5,1.5-2.4,1.9c-1.9,0.8-3.9,1.4-5.9,1.8c-5.2,1-10.4,1.9-15.6,2.8c-0.4,0.1-0.7,0.2-1.1,0.4
			c0.8,18.4,1.3,36.8,2.6,55.4c0.8,0,1.5,0,2.1,0c1.9,0,3.9-0.1,5.8-0.1c0.8,0,1.6,0.2,2.4,0.4c1.1,0.2,2.2,0.7,2.5,1.9
			s-0.8,2.2-1.9,2.7c-1.8,0.8-3.6,1.4-5.4,2c-1.5,0.5-3.1,0.9-4.8,1.3c0,1.4,0,2.6,0,3.8s0,2.2-0.2,3.3c0,0.9-0.6,1.6-1.5,1.7
			c-0.7,0-1.4-0.3-1.9-0.8c-0.7-1-1.4-2.1-2-3.2c-0.5-0.8-0.8-1.7-1.3-2.6c-2.8,0.4-5.5,0.9-8.3,1.2c-6.1,0.7-12.2,0.9-18.2-0.8
			s-11.4-4.7-15.2-9.9c-2.4-3.2-3.8-7.1-4-11.2c-0.5-8.1,1.9-15.4,6-22.2c5.9-9.6,13.3-18.1,22-25.2c1.4-1.2,2.9-2.3,4.6-3.2
			c1.9-1,2.3-2.2,2.2-4.2c-0.3-10-0.6-20-0.5-30.1c0.1-8.2,0.8-16.3,1.5-24.5c0.3-2.3,0.7-4.5,1.3-6.8c0.2-1.4,1.4-2.6,2.8-2.8
			c1.6-0.3,3.2,0.4,4,1.8c1.3,2,2.1,4.3,2.3,6.7c0.4,3.3,0.8,6.6,1,10c0.8,13.5,1.1,27,0.9,40.5c0,0.9,0,1.8,0.1,2.7
			C973.5,75.1,973.6,75.4,973.8,75.6z M960.8,92.9c-0.6,0.3-1.1,0.6-1.7,1c-2,1.6-4.1,3.2-6,4.9c-4.8,4.1-8.1,9.2-11.2,14.6
			c-1.7,2.8-3,5.8-3.8,9c-1.5,7.2,2.2,14.5,8.8,17.7c2.9,1.4,5.9,2.3,9.1,2.8c3.1,0.4,6.2,0.5,9.4,0.5c0.1-0.4,0.1-0.8,0.1-1.2
			c-1.4-16.2-2.9-32.4-4.3-48.5C961.2,93.4,961,93.2,960.8,92.9L960.8,92.9z"/>
		<path class="st0" d="M882,137c0.7-2.3,1.3-4.7,2.2-7c1.9-4.7,4.1-9.2,6.8-13.5c3.8-6.5,7.5-13.1,11.4-19.6
			c2.8-4.8,5.9-9.4,8.9-14.1c1.1-1.6,2.7-2.8,4.6-3.3c3-0.9,5.6,1,5.3,4.1c-0.2,1.7-0.7,3.4-1.5,5c-3.1,6.2-6.4,12.4-9.6,18.6
			c-2.6,5.1-5.1,10.2-8,15.1s-5.9,9.6-9,14.3c-1.1,1.8-2.7,3.4-4.6,4.4c-1.3,0.9-3.1,0.9-4.4,0.1C882.5,140.2,882.1,138.7,882,137z"
			/>
		<path class="st0" d="M576.5,72.4v-3.5c2-1.1,4-2,5.8-3.2c1.8-1.1,3.1-2.8,3.6-4.9c0.4-1.8,0-2.7-1.7-3.4c-1.5-0.6-3.1-0.9-4.7-1.4
			c-1.8-0.4-3.6-1-5.3-1.7c-4-1.8-5.8-6.5-4-10.6c0.4-0.9,1-1.7,1.7-2.4l0.3-0.3c4-3.9,14.5-5.4,20,0.3c1.8,1.7,2.9,4,3.2,6.5
			c1,8.8-1.7,15.8-9.4,20.2c-2.4,1.4-5.1,2.4-7.6,3.6C577.8,71.9,577.1,72.2,576.5,72.4z"/>
		<path class="st0" d="M943.5,61.9c-0.1,5.9-4.3,11-10.1,12.3c-3.7,1-7.7,0.5-11-1.4c-3.9-2.1-6-6.4-5.4-10.7
			c0.8-7.5,6.5-12,13.2-12.6C935.7,49,943.5,53.7,943.5,61.9z M930.2,67.1c1.2-0.4,2.3-0.9,3.4-1.5c1.7-1,2.3-3.2,1.4-4.9
			c0,0,0-0.1,0-0.1c-1.3-2.6-4.5-3.7-7.1-2.4c-0.6,0.3-1.2,0.8-1.7,1.3c-1.4,1.5-2,3.4-1.2,5.3C925.7,66.9,927.6,67,930.2,67.1
			L930.2,67.1z"/>
	</g>
</g>
</svg>
