<svg xmlns="http://www.w3.org/2000/svg" viewBox="0 0 409.67 409.89"><title>Instagram</title><g id="Layer_2" data-name="Layer 2"><g id="Layer_1-2" data-name="Layer 1"><g id="Layer_2-2" data-name="Layer 2"><g id="Layer_1-2-2" data-name="Layer 1-2"><g id="Layer_2-2-2" data-name="Layer 2-2"><g id="Layer_1-2-2-2" data-name="Layer 1-2-2"><g id="_2dVz9k" data-name=" 2dVz9k"><path d="M302.6,0c9.4,3,19.1,4.7,28.3,8.6,48.1,20.2,78.6,65.6,78.7,117.8s.1,104.4,0,156.6c-.1,52.9-33.5,100.9-83.1,119a117.17,117.17,0,0,1-41,7.5c-54.4,0-108.9,1.1-163.4-.4C74.5,407.9,39,384.3,14.9,343.3,7.4,330.5,3.9,316.4,0,302.4V105.8c1.4-.8,1.1-2.3,1.4-3.6C9.9,62.7,31.7,33.1,67.3,13.6,79.6,6.9,92.9,3.8,106,0ZM203.2,372.8c26.9,0,53.8.1,80.7,0,48.8-.2,88.9-40,89.1-88.8q.3-79.65,0-159.3c-.2-48.1-39.5-88.4-87.7-89q-80.4-.9-160.7,0c-49.4.5-88.6,40.8-88.8,90.1q-.3,77.25.1,154.6c0,16.4,3,32.3,11.5,46.6,17.4,29.1,43.1,44.9,77.2,45.6C150.8,373.2,177,372.8,203.2,372.8Z"/><path d="M204.5,312.2c-59.1,0-107.7-48.5-107.8-107.6-.1-59.4,48.3-108,107.4-108s107.8,47.9,108.2,106.6C312.7,263.3,264.3,312.2,204.5,312.2ZM274.3,205a70.06,70.06,0,0,0-69-70.6c-38.5-.4-70.3,31.1-70.6,69.8-.2,37.8,31.3,69.6,69.1,69.8C242.4,274.2,274.1,243.3,274.3,205Z"/><path d="M285,90.8c0-12.6,9.6-22,22.4-21.9,11.9.1,22.2,10.1,22.2,21.7,0,11.9-10.5,22.5-22.3,22.7S285,102.8,285,90.8Z"/></g></g></g></g></g></g></g></svg>