<svg xmlns="http://www.w3.org/2000/svg" viewBox="0 0 409.49 409.87"><defs><style>.cls-1{fill:#fff;}</style></defs><g id="Layer_2" data-name="Layer 2"><g id="Layer_1-2" data-name="Layer 1"><g id="Layer_2-2" data-name="Layer 2"><g id="Layer_1-2-2" data-name="Layer 1-2"><g id="Layer_2-2-2" data-name="Layer 2-2"><g id="Layer_1-2-2-2" data-name="Layer 1-2-2"><g id="_2dVz9k" data-name=" 2dVz9k"><path class="cls-1" d="M302.43,0c9.4,3,19.11,4.74,28.29,8.59,48.1,20.19,78.61,65.56,78.7,117.78s.1,104.38,0,156.58c-.11,52.91-33.53,100.87-83.06,119a118.67,118.67,0,0,1-41,7.53c-54.45,0-108.93,1.08-163.35-.35-47.6-1.25-83.11-24.75-107.16-65.78-7.52-12.77-11-26.9-14.85-40.92V105.78c1.41-.84,1.08-2.33,1.35-3.6,8.48-39.55,30.32-69.1,65.88-88.59C79.39,6.93,92.68,3.81,105.78,0ZM203,372.82c26.89,0,53.78.08,80.68,0,48.77-.18,88.93-40,89.13-88.76q.31-79.67,0-159.32c-.19-48.1-39.53-88.4-87.72-89q-80.32-.93-160.67,0c-49.36.54-88.64,40.77-88.8,90.11q-.25,77.29.08,154.57c0,16.42,3,32.34,11.52,46.65,17.44,29.12,43.1,44.9,77.18,45.61C150.63,373.24,176.84,372.8,203,372.82Z"/><path class="cls-1" d="M204.31,312.23c-59.15,0-107.72-48.48-107.77-107.63-.05-59.41,48.26-108,107.42-108s107.82,47.88,108.16,106.6C312.48,263.32,264.14,312.2,204.31,312.23ZM274.06,205a70,70,0,0,0-69-70.55c-38.46-.44-70.33,31.07-70.57,69.77C134.25,242,165.81,273.85,203.6,274,242.24,274.24,273.87,243.27,274.06,205Z"/><path class="cls-1" d="M284.8,90.82c0-12.57,9.64-22,22.43-21.9C319.12,69,329.4,79,329.41,90.64c0,11.86-10.48,22.54-22.34,22.74C295.41,113.58,284.79,102.81,284.8,90.82Z"/></g></g></g></g></g></g></g></svg>