<svg xmlns="http://www.w3.org/2000/svg" viewBox="0 0 395.16 277.5"><title>Twitter</title><g id="Layer_2" data-name="Layer 2"><g id="Layer_1-2" data-name="Layer 1"><g id="Layer_2-2" data-name="Layer 2"><g id="Layer_1-2-2" data-name="Layer 1-2"><g id="RlOplj"><path d="M275.36.1c0,4.9-3.4,7.6-6.6,10.6,1.3.8,2.4,0,3.5-.3,4.9-1.3,9.8-2.6,14.7-3.8,2.4-.5,5.3-1,6.5,1.8s-.9,4.9-3.1,6.4c-6.5,4.6-14.1,6.4-21.7,8.5a39.56,39.56,0,0,0-4.5,1.5c5.4,1.2,10.9,1.5,16.2,2.8,22.3,5.6,38.4,19.5,51.1,38,7.3,10.6,13.1,21.9,14.7,34.9.3,2.2,1.7,2.3,3.2,2.7a84.12,84.12,0,0,0,41.7-.2l2.4-.7c-9.1,15.8-24.4,18.4-40.4,21.5,14.1,5.2,28,4.7,42.1,4.3-.5,1.9-1.9,2.6-3,3.6-11,9.5-23.6,14.6-38.3,13.8-4.4-.3-6.1.9-7.3,5.4-8.7,33.7-28.2,60.1-55.1,81.6s-57.4,36-91.7,41.5a207.37,207.37,0,0,1-29.5,2.7h-31.7a127.25,127.25,0,0,1-24.7-2.9c-31-5.9-58.6-19.3-83.4-38.6-11-8.7-21.2-18.6-29.5-30.2l.6-.6,3.3,2.1c36.1,23.2,73.5,27.1,112.4,7.4a90.52,90.52,0,0,0,26.1-19.9,27,27,0,0,1-10.6-.2c-8-1.2-16.2-7.8-17.4-14.4-1.5-8.3,3.7-13,9.8-17.1,1.2-.8,2.3-1.6,3.5-2.4-14,2.4-25.2-3.5-35.8-11A26.06,26.06,0,0,1,84,137.8c-.8-2-.5-3.2,1-4.8a27.1,27.1,0,0,1,23-8.2,57.83,57.83,0,0,0-6.3-2.8c-7.2-3-14.3-6.4-20.4-11.3-7.3-5.8-13.6-12.5-15.7-22.1-.6-2.8-.3-4.2,2.8-5a59.72,59.72,0,0,1,19.7-2.2c-5.3-3.2-9.7-5.9-13.5-9.3-11-10-17.8-22.1-18.8-37-.3-4.2,0-4.3,4-2.8,19.3,7.4,38.5,15,57.3,23.7,22.3,10.4,44.3,21.3,63.6,37,2.8,2.3,5.5,4.7,8.3,7.1,3.9-9.4,7.5-18.7,11.4-27.7,8.8-19.8,18.8-38.9,33.6-55.1A62.48,62.48,0,0,1,250.06,4c.4,3.1-1.4,5.3-2,7.7-.1.1-.8.1-.2.5l.1-.5c1.4.5,2.2-.5,3.1-1.2,6.2-4.3,12.4-8.3,19.7-10.5l4.6.1Z"/><path d="M138.66,277.5c.1-.2.2-.3.2-.5a.37.37,0,0,0-.1-.3h31.7l.2.8Z"/><path d="M248,11.8l-.1.5c-.6-.4,0-.3.1-.5Z"/><path d="M1,205c-.5-.4-1.3-.9-.8-1.4s1.1.3,1.4.8Z"/></g></g></g></g></g></svg>