<svg xmlns="http://www.w3.org/2000/svg" viewBox="0 0 72.86 83.57"><defs><style>.cls-1{isolation:isolate;}.cls-2{fill:#210130;}.cls-3{fill:#33004b;}.cls-4{fill:#470067;}</style></defs><title>Asset 17</title><g id="Layer_2" data-name="Layer 2"><g id="Layer_1-2" data-name="Layer 1"><g class="cls-1"><polygon class="cls-2" points="71.41 73.18 63.79 69.03 63.92 1.61 71.53 5.75 71.41 73.18"/><polygon class="cls-3" points="8.94 81.96 1.32 77.81 63.79 69.03 71.41 73.18 8.94 81.96"/><polygon class="cls-3" points="9.06 14.53 1.45 10.39 63.92 1.61 71.53 5.75 9.06 14.53"/><polygon class="cls-4" points="71.53 5.75 71.41 73.18 8.94 81.96 9.06 14.53 71.53 5.75"/><polygon class="cls-2" points="8.94 81.96 1.32 77.81 1.45 10.39 9.06 14.53 8.94 81.96"/><polygon class="cls-2" points="7.62 83.57 0 79.43 0.13 9.15 7.75 13.29 7.62 83.57"/><polygon class="cls-3" points="7.75 13.29 0.13 9.15 65.24 0 72.86 4.14 7.75 13.29"/><path class="cls-4" d="M7.75,13.29,72.86,4.14l-.13,70.28L7.61,83.57ZM71.41,73.18l.13-67.42L9.06,14.53,8.94,82l62.47-8.78"/></g></g></g></svg>