<svg xmlns="http://www.w3.org/2000/svg" viewBox="0 0 37.81 40.91"><defs><style>.cls-1{isolation:isolate;}.cls-2{fill:#080434;}.cls-3{fill:#0c054d;}.cls-4{fill:#100668;}</style></defs><title>Asset 23</title><g id="Layer_2" data-name="Layer 2"><g id="Layer_1-2" data-name="Layer 1"><g class="cls-1"><polygon class="cls-2" points="36.43 35.43 28.82 31.29 28.87 1.61 36.49 5.76 36.43 35.43"/><polygon class="cls-3" points="8.94 39.3 1.32 35.15 28.82 31.29 36.43 35.43 8.94 39.3"/><polygon class="cls-3" points="8.99 9.62 1.38 5.48 28.87 1.61 36.49 5.76 8.99 9.62"/><polygon class="cls-4" points="36.49 5.76 36.43 35.43 8.94 39.3 8.99 9.62 36.49 5.76"/><polygon class="cls-2" points="8.94 39.3 1.32 35.15 1.38 5.48 8.99 9.62 8.94 39.3"/><polygon class="cls-2" points="7.62 40.91 0 36.77 0.06 4.24 7.67 8.38 7.62 40.91"/><polygon class="cls-3" points="7.67 8.38 0.06 4.24 30.2 0 37.81 4.14 7.67 8.38"/><path class="cls-4" d="M7.68,8.38,37.81,4.14l-.06,32.53L7.61,40.91ZM36.43,35.43l.06-29.68L9,9.62,8.94,39.3l27.5-3.86"/></g></g></g></svg>