<svg xmlns="http://www.w3.org/2000/svg" viewBox="0 0 93.54 107.29"><defs><style>.cls-1{isolation:isolate;}.cls-2{fill:#3b154a;}.cls-3{fill:#522466;}.cls-4{fill:#652b7e;}</style></defs><title>Asset 24</title><g id="Layer_2" data-name="Layer 2"><g id="Layer_1-2" data-name="Layer 1"><g class="cls-1"><polygon class="cls-2" points="91.68 93.95 81.9 88.63 82.06 2.07 91.84 7.39 91.68 93.95"/><polygon class="cls-3" points="11.47 105.22 1.7 99.9 81.9 88.63 91.68 93.95 11.47 105.22"/><polygon class="cls-3" points="11.64 18.66 1.86 13.34 82.06 2.07 91.84 7.39 11.64 18.66"/><polygon class="cls-4" points="91.84 7.39 91.68 93.95 11.47 105.22 11.64 18.66 91.84 7.39"/><polygon class="cls-2" points="11.47 105.22 1.7 99.9 1.86 13.34 11.64 18.66 11.47 105.22"/><polygon class="cls-2" points="9.78 107.29 0 101.98 0.17 11.75 9.94 17.07 9.78 107.29"/><polygon class="cls-3" points="9.94 17.07 0.17 11.75 83.76 0 93.54 5.32 9.94 17.07"/><path class="cls-4" d="M9.94,17.07,93.54,5.32l-.17,90.23L9.78,107.29ZM91.68,94l.16-86.56L11.64,18.66l-.16,86.56L91.68,94"/></g></g></g></svg>