<svg xmlns="http://www.w3.org/2000/svg" viewBox="0 0 71.77 79.46"><defs><style>.cls-1{isolation:isolate;}.cls-2{fill:#600c0d;}.cls-3{fill:#861619;}.cls-4{fill:#a61e22;}</style></defs><title>Asset 23</title><g id="Layer_2" data-name="Layer 2"><g id="Layer_1-2" data-name="Layer 1"><g class="cls-1"><polygon class="cls-2" points="69.62 69.13 57.86 62.73 57.97 2.49 69.73 8.89 69.62 69.13"/><polygon class="cls-3" points="13.8 76.97 2.04 70.57 57.86 62.73 69.62 69.13 13.8 76.97"/><polygon class="cls-3" points="13.91 16.73 2.15 10.34 57.97 2.49 69.73 8.89 13.91 16.73"/><polygon class="cls-4" points="69.73 8.89 69.62 69.13 13.8 76.97 13.91 16.73 69.73 8.89"/><polygon class="cls-2" points="13.8 76.97 2.04 70.57 2.15 10.34 13.91 16.73 13.8 76.97"/><polygon class="cls-2" points="11.76 79.46 0 73.06 0.12 8.42 11.88 14.81 11.76 79.46"/><polygon class="cls-3" points="11.88 14.81 0.12 8.42 60.01 0 71.77 6.4 11.88 14.81"/><path class="cls-4" d="M11.88,14.81,71.77,6.4,71.65,71,11.76,79.46ZM69.62,69.13l.11-60.24L13.92,16.73,13.8,77l55.81-7.84"/></g></g></g></svg>