<svg xmlns="http://www.w3.org/2000/svg" viewBox="0 0 84.7 97.68"><defs><style>.cls-1{isolation:isolate;}.cls-2{fill:#224922;}.cls-3{fill:#1c6432;}.cls-4{fill:#177b3e;}</style></defs><title>phone2</title><g id="Layer_2" data-name="Layer 2"><g id="Layer_1-2" data-name="Layer 1"><g class="cls-1"><polygon class="cls-2" points="83.14 85.62 75.08 81.23 75.23 1.71 83.29 6.09 83.14 85.62"/><polygon class="cls-3" points="9.46 95.97 1.4 91.59 75.08 81.23 83.14 85.62 9.46 95.97"/><polygon class="cls-3" points="9.61 16.45 1.55 12.06 75.23 1.71 83.29 6.1 9.61 16.45"/><polygon class="cls-4" points="83.29 6.1 83.14 85.62 9.46 95.97 9.61 16.45 83.29 6.1"/><polygon class="cls-2" points="9.46 95.97 1.4 91.59 1.55 12.06 9.61 16.45 9.46 95.97"/><polygon class="cls-2" points="8.06 97.68 0 93.29 0.15 10.75 8.22 15.13 8.06 97.68"/><polygon class="cls-3" points="8.22 15.13 0.15 10.75 76.63 0 84.69 4.39 8.22 15.13"/><path class="cls-4" d="M8.22,15.13,84.7,4.39l-.15,82.55L8.06,97.68ZM83.14,85.62,83.29,6.1,9.61,16.45,9.46,96,83.14,85.62"/></g></g></g></svg>