<svg xmlns="http://www.w3.org/2000/svg" viewBox="0 0 76.9 88.21"><defs><style>.cls-1{isolation:isolate;}.cls-2{fill:#1c1a4e;}.cls-3{fill:#282969;}.cls-4{fill:#2d3080;}</style></defs><title>photos2</title><g id="Layer_2" data-name="Layer 2"><g id="Layer_1-2" data-name="Layer 1"><g class="cls-1"><polygon class="cls-2" points="75.37 77.24 67.34 72.87 67.47 1.7 75.51 6.08 75.37 77.24"/><polygon class="cls-3" points="9.43 86.51 1.4 82.14 67.34 72.87 75.37 77.24 9.43 86.51"/><polygon class="cls-3" points="9.57 15.34 1.53 10.97 67.47 1.7 75.51 6.08 9.57 15.34"/><polygon class="cls-2" points="9.43 86.51 1.4 82.14 1.53 10.97 9.57 15.34 9.43 86.51"/><path class="cls-4" d="M8.18,14,76.9,4.37l-.14,74.18L8,88.21Zm67.2,63.21.13-71.17L9.57,15.34,9.43,86.51l65.94-9.27"/><polygon class="cls-4" points="75.51 6.08 75.37 77.24 9.43 86.51 9.57 15.34 75.51 6.08"/><polygon class="cls-2" points="8.04 88.21 0 83.84 0.14 9.66 8.18 14.03 8.04 88.21"/><polygon class="cls-3" points="8.18 14.03 0.14 9.66 68.86 0 76.9 4.37 8.18 14.03"/></g></g></g></svg>