<?xml version="1.0" standalone="no"?>
<!DOCTYPE svg PUBLIC "-//W3C//DTD SVG 20010904//EN"
 "http://www.w3.org/TR/2001/REC-SVG-20010904/DTD/svg10.dtd">
<svg version="1.0" xmlns="http://www.w3.org/2000/svg"
 width="600.000000pt" height="600.000000pt" viewBox="0 0 600.000000 600.000000"
 preserveAspectRatio="xMidYMid meet">
<metadata>
Created by potrace 1.14, written by Peter Selinger 2001-2017
</metadata>
<g transform="translate(0.000000,600.000000) scale(0.100000,-0.100000)"
fill="#000000" stroke="none">
<path d="M570 3760 c0 -16 5 -30 10 -30 6 0 10 14 10 30 0 17 -4 30 -10 30 -5
0 -10 -13 -10 -30z"/>
<path d="M4759 3773 c-2 -26 -9 -47 -16 -52 -9 -7 -65 -78 -77 -99 -7 -11 -4
-11 12 -1 11 7 27 24 35 38 9 14 27 39 42 55 25 29 34 66 15 66 -5 0 -10 -3
-11 -7z"/>
<path d="M5200 3754 c-8 -21 -52 -86 -70 -104 -18 -18 -31 -40 -23 -40 12 0
109 123 118 149 9 31 -13 26 -25 -5z"/>
<path d="M600 3716 c0 -24 75 -66 141 -80 75 -15 123 -7 153 25 20 21 20 22 1
14 -66 -27 -188 -12 -246 30 -37 28 -49 31 -49 11z"/>
<path d="M2709 3713 c-6 -37 -5 -53 5 -53 14 0 19 47 6 55 -6 3 -11 3 -11 -2z"/>
<path d="M3519 3715 c-13 -21 -20 -67 -10 -60 6 3 22 -8 37 -24 54 -60 150
-78 234 -44 14 6 32 18 39 27 7 9 18 16 24 16 5 0 -12 -20 -39 -45 -27 -25
-56 -44 -65 -41 -11 2 -15 -2 -12 -13 2 -10 -6 -20 -21 -27 -25 -11 -29 -3
-13 23 8 12 -10 29 -20 19 -4 -3 0 -6 8 -7 8 0 5 -4 -6 -8 -12 -5 -26 -4 -34
3 -11 8 -13 8 -8 -1 4 -6 3 -14 -3 -18 -5 -3 -10 -1 -10 4 0 6 -5 11 -11 11
-8 0 -8 -5 1 -15 7 -9 17 -12 24 -7 13 10 36 10 36 0 0 -39 -1 -42 -8 -31 -4
6 -21 10 -37 8 -35 -4 -79 5 -70 14 4 3 11 6 16 6 21 0 12 18 -11 22 -19 2
-22 1 -10 -7 8 -5 11 -10 5 -10 -5 0 -22 11 -37 23 -19 17 -24 27 -17 34 7 7
8 17 3 26 -8 13 -11 13 -24 -1 -13 -14 -12 -15 3 -9 22 8 22 -2 0 -19 -11 -7
-22 -9 -28 -4 -6 5 -17 4 -25 -2 -12 -8 -12 -9 3 -4 9 3 17 1 17 -4 0 -6 -7
-10 -15 -10 -8 0 -15 -7 -15 -16 0 -8 -4 -13 -8 -10 -4 2 -13 -4 -20 -15 -10
-16 -9 -19 5 -19 10 1 29 7 43 14 22 13 28 12 60 -13 46 -37 86 -49 142 -46
55 4 89 21 143 70 35 32 37 35 15 30 -25 -6 -25 -6 -5 12 27 23 69 83 59 83
-4 0 5 14 21 30 33 35 26 39 -16 10 -43 -31 -119 -62 -135 -56 -9 3 -12 1 -9
-5 4 -6 -4 -8 -22 -5 -15 2 -37 5 -48 5 -11 1 -42 15 -69 32 -37 24 -46 33
-35 40 9 5 10 9 2 9 -6 0 -13 8 -15 18 -2 9 -6 13 -9 7z"/>
<path d="M4790 3696 c0 -8 16 -27 35 -41 28 -22 46 -27 97 -28 55 -2 68 2 101
27 47 36 48 52 1 24 -55 -33 -171 -23 -204 18 -16 18 -30 18 -30 0z"/>
<path d="M5242 3701 c-9 -6 -6 -14 14 -34 15 -15 29 -27 33 -28 3 0 15 -3 26
-5 81 -19 103 -17 150 17 47 34 48 54 1 23 -47 -30 -150 -22 -191 16 -12 12
-25 16 -33 11z"/>
<path d="M3020 3659 c-40 -30 -127 -59 -165 -54 -19 2 -52 14 -74 27 -47 27
-64 18 -32 -16 44 -46 143 -57 212 -22 42 21 46 20 24 -4 -10 -11 -22 -17 -26
-14 -9 5 -13 -9 -10 -35 2 -7 -2 -10 -7 -7 -13 8 -43 -4 -37 -14 3 -5 -4 -11
-14 -15 -23 -7 -43 -80 -29 -107 6 -12 3 -20 -9 -27 -10 -6 -12 -11 -5 -11 6
0 12 -5 12 -11 0 -5 -6 -7 -12 -3 -10 6 -10 4 0 -7 22 -23 35 5 33 71 -1 45 2
60 11 59 22 -4 48 12 48 29 0 8 15 33 33 56 42 51 54 72 39 62 -22 -14 -12 5
16 29 33 29 27 41 -8 14z"/>
<path d="M4735 3660 c3 -5 8 -10 11 -10 2 0 4 5 4 10 0 6 -5 10 -11 10 -5 0
-7 -4 -4 -10z"/>
<path d="M5001 3624 c-18 -13 -38 -21 -44 -17 -6 4 -8 0 -4 -10 4 -12 -2 -21
-24 -32 -16 -9 -33 -13 -38 -11 -5 3 -14 0 -20 -8 -9 -10 -21 -11 -56 -3 -25
6 -45 15 -44 21 3 25 -2 36 -13 34 -7 -2 -12 3 -10 10 1 8 -2 11 -9 6 -9 -5
-5 -13 10 -26 21 -17 22 -18 4 -18 -11 0 -28 7 -39 16 -10 8 -13 12 -5 8 9 -4
12 -3 7 4 -11 18 -59 2 -108 -38 -35 -28 -8 -43 32 -18 17 11 27 9 63 -9 54
-28 114 -37 184 -28 44 5 62 14 92 42 20 19 28 32 19 29 -21 -6 -14 20 7 28 8
3 19 14 25 25 13 25 13 25 -29 -5z"/>
<path d="M5430 3609 c-61 -53 -108 -76 -152 -74 -41 2 -127 41 -135 62 -4 10
-12 9 -36 -4 -18 -10 -34 -17 -37 -16 -3 1 -13 -10 -23 -23 -17 -23 -17 -24 1
-24 10 0 27 6 37 14 17 12 24 11 60 -9 77 -45 210 -41 276 7 28 21 42 47 17
32 -7 -5 0 9 16 30 15 20 26 39 25 41 -2 1 -24 -15 -49 -36z"/>
<path d="M2690 3621 c0 -6 4 -13 10 -16 6 -3 7 1 4 9 -7 18 -14 21 -14 7z"/>
<path d="M3525 3620 c3 -5 11 -10 16 -10 6 0 7 5 4 10 -3 6 -11 10 -16 10 -6
0 -7 -4 -4 -10z"/>
<path d="M864 3605 c-4 -8 -10 -12 -15 -9 -5 3 -9 0 -9 -5 0 -18 19 -12 30 9
6 11 8 20 5 20 -3 0 -8 -7 -11 -15z"/>
<path d="M3517 3599 c7 -9 9 -19 5 -23 -4 -4 -2 -7 3 -6 23 5 36 -1 29 -12 -4
-7 -4 -10 1 -6 4 4 13 4 19 -2 8 -6 12 -2 13 13 0 12 -1 16 -4 9 -4 -9 -15 -5
-41 15 -21 15 -31 20 -25 12z"/>
<path d="M5226 3593 c-6 -14 -5 -15 5 -6 7 7 10 15 7 18 -3 3 -9 -2 -12 -12z"/>
<path d="M5313 3563 c1 -21 2 -21 19 -6 21 19 24 31 4 14 -11 -9 -15 -9 -19 1
-3 7 -4 3 -4 -9z"/>
<path d="M438 3556 c-26 -19 -22 -28 10 -21 20 4 36 0 53 -13 35 -27 120 -52
176 -52 77 0 193 64 165 92 -12 12 -56 -14 -44 -27 4 -5 1 -5 -6 -1 -9 5 -25
-2 -45 -20 -17 -16 -26 -22 -20 -14 9 13 6 15 -23 15 -19 0 -34 -3 -34 -7 0
-5 5 -8 12 -8 6 0 8 -3 5 -6 -4 -4 -12 -3 -19 2 -21 16 -87 36 -97 29 -5 -3
-12 -1 -16 5 -4 6 -10 8 -15 5 -4 -3 -10 2 -14 10 -3 8 -12 12 -21 9 -8 -3
-15 -1 -15 5 0 15 -31 13 -52 -3z"/>
<path d="M3606 3562 c-2 -4 4 -8 14 -8 10 0 16 4 14 8 -3 4 -9 8 -14 8 -5 0
-11 -4 -14 -8z"/>
<path d="M4835 3560 c-3 -6 1 -7 9 -4 18 7 21 14 7 14 -6 0 -13 -4 -16 -10z"/>
<path d="M2655 3549 c4 -5 0 -9 -7 -9 -18 0 -73 -48 -64 -57 3 -4 23 1 43 11
36 17 36 17 63 -9 16 -15 32 -25 37 -23 4 1 9 -25 11 -59 2 -34 8 -66 15 -71
9 -8 12 -3 12 19 0 16 -4 29 -10 29 -5 0 -4 4 4 9 9 6 10 11 2 15 -6 4 -11 12
-11 17 0 6 6 7 13 3 8 -5 8 -2 -2 9 -9 11 -10 17 -2 17 6 0 11 5 11 11 0 5 -5
7 -12 3 -7 -5 -9 -2 -5 9 4 10 -3 21 -19 32 -14 9 -22 21 -18 27 4 6 3 8 -4 4
-5 -3 -12 -2 -14 4 -2 6 -13 12 -26 15 -13 2 -20 0 -17 -6z m39 -34 c9 -14 13
-25 8 -25 -5 0 -14 11 -20 25 -6 14 -10 25 -8 25 2 0 11 -11 20 -25z"/>
<path d="M2760 3550 c-9 -6 -10 -10 -3 -10 6 0 15 5 18 10 8 12 4 12 -15 0z"/>
<path d="M3025 3540 c-24 -10 -60 -48 -69 -75 -5 -14 3 -10 26 14 39 40 76 66
84 58 3 -3 -3 -8 -14 -11 -11 -4 -22 -16 -25 -26 -6 -25 -5 -25 37 4 26 17 32
26 23 35 -13 13 -33 13 -62 1z"/>
<path d="M339 3464 c-35 -36 -73 -70 -84 -76 -25 -14 -114 -18 -137 -7 -9 5
-19 5 -22 1 -6 -10 60 -34 90 -35 65 0 77 5 130 55 52 49 101 114 92 123 -2 3
-33 -25 -69 -61z"/>
<path d="M4966 3505 c-9 -14 -12 -25 -6 -25 5 0 10 -7 10 -16 0 -13 -3 -14
-15 -4 -13 10 -15 -9 -17 -156 l-3 -169 -40 -1 c-28 0 -45 6 -58 19 -9 11 -15
23 -12 26 4 3 10 0 14 -7 6 -10 10 -10 20 2 14 16 7 36 -12 36 -7 0 -6 -4 3
-11 12 -9 12 -10 1 -7 -23 7 -25 28 -2 28 11 0 23 5 27 12 5 8 2 9 -9 5 -10
-3 -17 -2 -17 3 0 6 -9 5 -20 -2 -11 -7 -18 -20 -15 -28 3 -9 -2 -25 -10 -36
-13 -17 -14 -17 -15 -1 0 9 5 17 12 17 6 0 3 9 -7 20 -11 12 -13 20 -6 20 7 0
10 4 7 9 -4 5 4 7 16 3 18 -4 20 -2 15 16 -3 16 1 27 16 37 12 8 18 15 14 15
-4 0 -3 9 3 20 6 11 7 20 3 19 -20 -3 -23 2 -8 17 9 9 14 19 11 21 -9 9 -66
11 -61 2 3 -4 14 -6 25 -4 24 5 24 6 4 -33 -22 -45 -44 -42 -43 6 1 20 0 42
-1 47 -9 36 1 52 30 51 16 -1 30 -4 30 -9 0 -4 11 0 25 9 28 19 34 9 8 -13
-10 -8 -12 -12 -6 -8 9 4 12 -7 9 -42 -2 -26 -7 -56 -11 -67 -5 -11 -3 -21 6
-27 11 -7 11 -9 -3 -10 -35 -3 -38 -4 -38 -14 1 -5 11 -8 23 -7 12 2 19 1 15
-4 -4 -4 -3 -13 3 -20 7 -8 7 -14 0 -18 -7 -5 -7 -15 -1 -32 7 -17 7 -23 0
-19 -14 8 -13 -8 1 -22 28 -28 34 -2 32 135 0 76 -2 149 -4 162 -2 14 0 31 5
38 6 10 1 11 -21 5 -35 -9 -70 -9 -106 0 -26 7 -27 6 -17 -14 8 -15 9 -19 1
-15 -8 5 -11 -128 -11 -479 0 -477 0 -487 -21 -528 -29 -55 -84 -107 -147
-136 -55 -26 -59 -41 -12 -41 50 0 123 30 182 76 l57 43 43 -39 c41 -38 85
-54 75 -27 -8 22 82 183 132 235 12 12 17 22 11 22 -14 0 -71 -29 -90 -46 -13
-11 -20 -10 -45 10 l-30 24 -1 186 c0 147 3 186 13 186 10 0 13 -38 15 -172 0
-95 2 -179 2 -186 1 -16 27 -33 38 -26 5 3 8 72 8 152 -1 81 -1 165 -1 187 l1
40 105 0 105 0 0 -229 0 -229 -31 -48 c-17 -26 -48 -64 -70 -84 -31 -28 -36
-37 -24 -41 21 -8 99 22 134 52 16 13 32 24 36 24 4 0 29 -18 55 -40 51 -43
80 -51 80 -22 0 10 14 44 31 75 l30 57 32 -14 c18 -7 77 -39 132 -70 98 -55
138 -68 134 -43 -3 18 10 45 58 117 56 86 86 122 77 95 -4 -13 12 -1 45 30 49
48 62 63 41 50 -5 -3 -10 -1 -10 4 0 6 5 11 10 11 6 0 10 4 10 9 0 6 -9 9 -20
8 -11 -1 -20 -4 -20 -8 0 -4 -8 -6 -17 -5 -10 2 -29 -5 -43 -16 -14 -10 -49
-37 -79 -60 l-54 -41 -53 27 -54 26 0 315 c0 204 4 315 10 315 7 0 9 -106 8
-305 -1 -225 1 -308 10 -317 23 -23 32 8 33 125 1 88 4 116 12 109 7 -5 47 -9
89 -8 69 1 77 0 73 -15 -3 -10 -2 -20 3 -23 12 -7 29 14 29 35 0 16 75 133 93
144 13 8 13 25 -1 25 -17 0 -59 -37 -51 -45 4 -3 3 -6 -3 -4 -16 4 -65 -12
-65 -22 0 -4 -39 -8 -86 -8 l-85 0 33 42 c19 23 79 101 133 172 55 72 103 132
107 133 16 7 8 34 -8 28 -9 -3 -20 -6 -25 -6 -6 0 -8 -3 -6 -7 3 -5 -6 -9 -19
-10 -13 -1 -35 -3 -49 -4 -16 -1 -43 12 -72 35 -46 36 -71 46 -57 24 5 -8 2
-9 -9 -5 -10 4 -17 2 -17 -4 0 -6 -9 -9 -20 -6 -23 6 -28 -8 -6 -16 9 -4 12
-14 9 -26 -6 -23 -20 -29 -20 -8 0 6 -3 21 -6 32 -5 15 2 29 28 54 19 18 35
41 35 52 0 10 -2 19 -3 19 -2 0 -59 -56 -127 -125 -68 -69 -131 -127 -139
-130 -9 -2 -29 -6 -45 -9 -16 -3 -31 -7 -33 -10 -19 -18 64 -61 85 -44 12 10
13 -12 13 -292 0 -205 0 -203 -32 -228 l-29 -23 -26 20 -27 21 0 445 c-1 305
-4 444 -12 442 -5 -2 -10 -17 -11 -33 0 -19 -5 -28 -15 -26 -10 2 -10 -1 3
-11 21 -17 5 -47 -25 -46 -12 0 -16 3 -9 6 24 9 12 23 -20 23 -25 0 -29 -3
-18 -10 11 -7 12 -14 4 -27 -6 -10 -10 -43 -10 -75 1 -31 -1 -56 -4 -56 -17 1
-21 -4 -12 -15 7 -8 7 -18 2 -27 -12 -18 -12 -20 -13 155 0 79 -5 133 -11 138
-6 5 0 5 13 1 45 -12 91 -11 111 3 11 8 20 17 20 21 0 4 -35 7 -78 7 l-78 0 1
-175 c0 -140 3 -174 13 -172 8 1 11 -2 7 -8 -3 -5 -2 -10 3 -10 15 0 2 -38
-14 -44 -7 -3 -16 0 -20 6 -4 7 -3 8 4 4 11 -7 14 -3 16 27 1 9 -28 12 -113
12 l-115 0 0 198 c0 108 -1 197 -2 197 -1 0 -9 -11 -18 -25z m376 -189 c2 -19
0 -32 -4 -29 -9 5 -3 -40 7 -57 3 -5 2 -10 -3 -10 -6 0 -8 -10 -5 -22 3 -13 3
-20 0 -17 -4 3 -9 25 -12 49 -3 23 -8 47 -11 51 -3 5 0 9 7 9 8 0 8 4 -1 15
-10 12 -10 15 1 16 12 0 12 1 0 6 -11 5 -11 7 0 14 8 5 15 9 15 9 1 0 4 -15 6
-34z m-55 2 c2 -17 0 -19 -7 -8 -5 8 -6 18 -4 22 8 12 10 10 11 -14z m-443 -3
c-4 -8 -10 -15 -14 -15 -5 0 -12 -9 -15 -20 -3 -11 -14 -20 -23 -20 -14 0 -14
2 -3 9 7 5 11 13 7 19 -3 6 3 13 14 17 11 3 20 11 20 16 0 5 4 9 10 9 5 0 7
-7 4 -15z m450 -107 c4 -43 13 -98 20 -122 8 -25 12 -47 9 -50 -12 -12 -23
-90 -28 -196 -6 -116 -14 -160 -16 -79 -1 89 -16 228 -27 258 -6 16 -4 37 5
63 11 31 17 86 23 202 0 5 2 7 4 5 2 -2 7 -39 10 -81z m453 62 c3 -12 14 -20
27 -20 20 -1 20 -1 2 -11 -14 -9 -20 -8 -27 2 -7 11 -9 10 -9 -3 0 -9 8 -22
18 -28 15 -10 15 -11 0 -6 -9 3 -19 2 -21 -2 -2 -4 -2 -1 -1 6 2 6 -1 12 -7
12 -6 0 -6 7 1 19 16 31 11 38 -8 13 l-18 -23 2 28 c3 36 1 33 20 33 9 0 18
-9 21 -20z m-88 -13 c0 -9 -2 -8 -6 1 -2 6 -10 9 -15 6 -7 -4 -8 -2 -4 5 9 13
26 5 25 -12z m-55 -54 c-3 -39 -3 -39 -12 -26 -5 8 -16 4 -35 -13 -16 -13 -25
-24 -21 -24 3 0 1 -6 -5 -14 -7 -8 -20 -14 -30 -13 -13 1 -3 16 38 57 31 31
58 58 61 58 3 1 5 -10 4 -25z m234 13 c-2 -1 -10 -7 -20 -14 -11 -9 -18 -10
-23 -2 -4 6 -1 9 7 8 7 -2 12 2 11 9 -2 7 4 10 13 6 8 -3 14 -6 12 -7z m-151
-28 c-3 -7 -5 -2 -5 12 0 14 2 19 5 13 2 -7 2 -19 0 -25z m33 7 c0 -8 -2 -15
-4 -15 -2 0 -6 7 -10 15 -3 8 -1 15 4 15 6 0 10 -7 10 -15z m-124 -98 c1 -29
-1 -46 -3 -39 -4 10 -8 10 -19 1 -12 -9 -13 -9 -9 3 6 14 -10 35 -27 37 -5 1
-7 4 -5 9 1 4 5 6 10 5 4 -2 7 2 7 7 0 6 5 10 11 10 6 0 9 -6 6 -14 -3 -8 1
-20 9 -26 11 -10 14 -9 14 4 0 10 -5 14 -11 10 -8 -5 -8 -1 0 14 15 28 14 35
-4 28 -15 -6 -20 5 -8 18 14 14 28 -17 29 -67z m194 53 c-6 -11 -13 -20 -16
-20 -2 0 0 9 6 20 6 11 13 20 16 20 2 0 0 -9 -6 -20z m-970 0 c0 -5 -8 -10
-17 -10 -15 0 -16 2 -3 10 19 12 20 12 20 0z m1003 -17 c-3 -7 -6 -13 -8 -13
-2 0 -5 6 -8 13 -3 8 1 14 8 14 7 0 11 -6 8 -14z m-991 -14 c2 -2 1 -3 -1 -2
-2 2 -9 -2 -16 -7 -8 -7 -12 -5 -12 4 0 12 22 16 29 5z m926 -29 c29 0 28 -4
-13 -47 -19 -20 -35 -41 -35 -45 0 -4 -4 -8 -10 -8 -6 0 -10 31 -10 72 l0 71
23 -21 c13 -12 33 -22 45 -22z m-871 24 c-3 -4 -1 -16 5 -28 10 -20 9 -20 -7
-4 -15 14 -14 38 2 38 4 0 3 -3 0 -6z m570 0 c-3 -3 -12 -4 -19 -1 -8 3 -5 6
6 6 11 1 17 -2 13 -5z m-440 -36 c-3 -8 -6 -5 -6 6 -1 11 2 17 5 13 3 -3 4
-12 1 -19z m69 0 c-1 -14 4 -22 12 -20 8 1 11 -2 7 -8 -3 -6 -10 -8 -15 -5 -4
3 -10 2 -13 -2 -2 -5 -2 -2 -1 5 2 6 -2 12 -9 13 -9 0 -9 2 0 5 7 3 9 12 6 20
-3 8 -1 14 5 14 5 0 9 -10 8 -22z m96 -2 c6 -12 16 -24 21 -28 6 -3 -1 -5 -16
-5 -16 1 -22 6 -17 12 5 6 5 17 -1 25 -8 13 -10 13 -19 0 -6 -10 -10 -11 -10
-2 0 6 -7 12 -15 12 -8 0 -15 -5 -15 -12 0 -6 -3 -9 -6 -5 -12 12 7 26 37 25
20 -1 34 -8 41 -22z m-247 4 c-3 -5 -12 -10 -18 -10 -7 0 -6 4 3 10 19 12 23
12 15 0z m-114 -23 c-7 -7 -7 -15 2 -26 11 -14 10 -14 -6 -2 -12 9 -14 17 -7
26 5 6 6 16 2 20 -4 5 -1 5 6 0 10 -5 11 -10 3 -18z m719 19 c0 -2 -9 -6 -20
-9 -11 -3 -18 -1 -14 4 5 9 34 13 34 5z m-670 -10 c0 -3 -4 -8 -10 -11 -5 -3
-10 -1 -10 4 0 6 5 11 10 11 6 0 10 -2 10 -4z m134 -5 c4 -5 -3 -7 -14 -4 -23
6 -26 13 -6 13 8 0 17 -4 20 -9z m131 0 c3 -5 2 -12 -3 -15 -5 -3 -9 1 -9 9 0
17 3 19 12 6z m-225 -7 c0 -8 -19 -13 -24 -6 -3 5 1 9 9 9 8 0 15 -2 15 -3z
m636 -19 c0 -14 -1 -25 -1 -25 0 0 -9 10 -19 22 -15 18 -16 20 -2 15 9 -4 16
-2 16 3 0 6 2 10 4 10 2 0 3 -11 2 -25z m-491 5 c3 -6 -1 -7 -9 -4 -18 7 -21
14 -7 14 6 0 13 -4 16 -10z m-60 -10 c3 -5 1 -10 -4 -10 -6 0 -11 5 -11 10 0
6 2 10 4 10 3 0 8 -4 11 -10z m-98 -32 c-3 -7 -5 -2 -5 12 0 14 2 19 5 13 2
-7 2 -19 0 -25z m223 26 c0 -8 -19 -13 -24 -6 -3 5 1 9 9 9 8 0 15 -2 15 -3z
m52 -1 c-14 -3 -20 -9 -15 -16 4 -7 -1 -6 -10 2 -22 17 -22 17 16 18 20 0 23
-1 9 -4z m58 -14 c0 -6 -4 -7 -10 -4 -5 3 -10 11 -10 16 0 6 5 7 10 4 6 -3 10
-11 10 -16z m370 10 c0 -4 -9 -7 -19 -6 -11 0 -18 4 -16 7 6 9 35 8 35 -1z
m-715 -47 c-3 -3 -11 0 -18 7 -9 10 -8 11 6 5 10 -3 15 -9 12 -12z m712 -24
c-3 -7 -5 -2 -5 12 0 14 2 19 5 13 2 -7 2 -19 0 -25z m-37 -42 c0 -2 -7 -7
-16 -10 -8 -3 -12 -2 -9 4 6 10 25 14 25 6z m-5 -76 c3 -6 -1 -7 -9 -4 -18 7
-21 14 -7 14 6 0 13 -4 16 -10z"/>
<path d="M2845 3489 c-4 -6 -5 -12 -2 -15 2 -3 7 2 10 11 7 17 1 20 -8 4z"/>
<path d="M2979 3460 c-19 -22 -33 -40 -30 -40 2 0 -5 -9 -17 -20 -24 -22 -27
-37 -13 -59 14 -23 41 -5 42 29 2 42 2 42 25 75 46 67 44 71 -7 15z"/>
<path d="M399 3478 c-7 -21 -8 -58 -2 -58 5 0 8 14 8 30 1 25 -2 38 -6 28z"/>
<path d="M2514 3447 c-12 -17 -32 -50 -45 -72 -66 -112 -177 -138 -279 -65
-16 11 -36 20 -47 20 -29 -1 48 -67 94 -79 93 -26 158 -8 207 57 12 18 25 30
28 27 2 -3 5 1 5 8 1 6 11 30 23 52 l21 40 -6 -40 c-4 -26 -3 -35 3 -25 8 13
25 110 19 110 -1 0 -11 -15 -23 -33z"/>
<path d="M571 3444 c-13 -33 -73 -74 -103 -69 -29 5 -31 -14 -4 -21 17 -4 37
1 58 13 35 20 73 75 65 95 -3 7 -10 -1 -16 -18z"/>
<path d="M4065 3415 c-22 -25 -83 -90 -135 -145 -82 -87 -100 -100 -128 -100
-31 0 -42 12 -22 25 6 4 24 34 41 67 26 52 28 60 12 54 -16 -5 -16 -4 -3 7 16
13 40 52 40 64 0 4 -20 -14 -45 -39 -53 -55 -119 -83 -170 -74 -19 4 -35 11
-35 16 0 5 -6 7 -12 5 -16 -6 -69 40 -72 62 -4 25 -26 28 -26 3 0 -11 -9 -30
-20 -42 -10 -12 -17 -25 -14 -30 3 -4 1 -8 -5 -8 -6 0 -13 -11 -17 -25 -4 -14
-19 -39 -35 -55 -47 -47 -34 -66 22 -33 27 16 29 16 51 -4 13 -12 35 -24 49
-28 l26 -6 -2 -327 c-2 -370 -2 -369 -81 -442 -25 -23 -42 -45 -39 -51 14 -21
130 31 159 72 14 21 15 21 68 -18 74 -55 77 -56 93 -43 10 8 9 -3 -5 -41 -11
-29 -18 -55 -16 -57 6 -5 38 13 37 21 -4 27 3 39 32 52 17 9 43 22 57 30 28
15 150 23 150 10 0 -5 -17 -10 -37 -12 -56 -4 -89 -21 -118 -58 -23 -32 -32
-55 -20 -55 3 0 24 10 47 21 36 18 104 27 143 19 36 -8 42 0 35 41 -7 35 -5
39 9 34 70 -29 108 -30 99 -3 -3 7 19 42 48 78 l53 65 0 290 c0 159 -2 307 -5
329 l-6 38 -42 -41 c-23 -23 -46 -38 -51 -34 -4 5 -5 3 -2 -3 3 -6 -18 -35
-48 -64 -30 -30 -55 -50 -56 -45 0 6 0 47 1 93 1 68 -2 83 -15 88 -11 5 -13 9
-6 14 8 4 6 12 -6 23 -17 15 -18 9 -18 -129 0 -106 -3 -149 -13 -156 -7 -6
-13 -9 -15 -7 -1 2 0 81 3 174 l5 170 47 -48 c82 -85 153 -92 217 -23 19 20
27 23 34 14 6 -10 8 -9 4 2 -2 8 9 32 25 54 15 21 25 42 23 47 -3 4 -1 10 5
14 6 4 8 11 4 16 -3 5 -18 0 -35 -11 -33 -24 -80 -22 -127 7 -43 27 -131 97
-132 105 0 4 12 20 26 35 15 15 21 20 13 10 -12 -17 -11 -19 11 -15 32 4 38
34 8 41 -17 5 -31 -3 -63 -38z m39 -86 c13 -27 13 -30 -6 -40 -15 -8 -19 -8
-14 0 12 19 -4 33 -21 19 -14 -11 -15 -10 -8 11 6 21 5 22 -8 10 -14 -12 -13
-16 5 -36 19 -20 19 -23 4 -29 -9 -3 -23 -3 -32 0 -14 5 -14 9 -3 24 13 15 12
16 -4 3 -13 -10 -15 -17 -6 -27 16 -19 32 -18 74 6 42 23 52 25 36 6 -6 -7 -9
-20 -6 -28 4 -11 -2 -17 -19 -20 -14 -3 -26 -1 -26 3 0 5 8 9 18 10 9 0 12 3
5 5 -7 3 -21 1 -32 -5 -14 -8 -26 -7 -47 4 -25 13 -30 12 -45 -3 -9 -9 -15
-20 -13 -23 2 -3 -5 -15 -16 -26 -10 -12 -16 -24 -12 -27 3 -4 15 4 26 16 12
13 18 19 14 14 -3 -4 -4 -15 -1 -22 3 -8 -1 -14 -11 -14 -9 0 -16 -7 -16 -15
0 -8 8 -15 17 -15 9 0 13 -3 10 -6 -3 -4 -2 -16 4 -27 8 -14 8 -18 0 -13 -6 4
-16 4 -23 0 -8 -5 -6 -10 8 -16 12 -5 6 -6 -16 -2 -45 8 -48 11 -53 61 -4 43
19 83 38 66 4 -5 5 -3 2 3 -4 6 8 27 26 47 17 19 49 55 70 80 41 51 58 52 81
6z m-570 -30 c-3 -5 1 -9 9 -9 8 0 22 -9 32 -20 10 -11 24 -20 32 -20 7 0 13
-4 13 -8 0 -5 13 -7 30 -6 16 1 27 -2 24 -7 -3 -5 -1 -9 5 -9 5 0 11 -6 14
-12 2 -7 2 -2 0 12 -3 14 -2 22 2 18 9 -9 75 20 104 45 20 18 20 16 -5 -15
-16 -21 -33 -38 -37 -38 -5 0 -5 -6 -1 -12 4 -7 4 -10 -1 -6 -5 5 -15 -1 -22
-12 -8 -11 -18 -18 -23 -15 -4 3 -11 -2 -14 -11 -4 -11 -13 -13 -28 -8 -22 6
-22 6 -7 -12 20 -23 14 -44 -12 -44 -10 0 -19 -4 -19 -10 0 -5 -5 -10 -11 -10
-8 0 -7 6 2 16 12 15 11 16 -10 9 -23 -7 -23 -7 -4 13 37 41 43 51 34 57 -5 3
-12 1 -16 -5 -4 -6 -10 -8 -15 -5 -5 3 -12 0 -15 -5 -8 -14 -45 16 -45 36 0
19 19 27 34 15 13 -11 26 -5 26 11 0 5 -4 6 -10 3 -5 -3 -10 -2 -10 3 0 6 -8
8 -17 6 -10 -3 -27 2 -38 11 -17 14 -17 16 -2 11 9 -3 17 -1 17 4 0 6 -7 10
-16 10 -10 0 -14 6 -10 15 3 8 0 15 -5 15 -6 0 -9 -9 -6 -20 3 -11 1 -20 -5
-20 -5 0 -6 -5 -2 -11 4 -7 1 -10 -7 -7 -16 6 -14 45 3 65 8 10 14 10 24 2 8
-6 11 -15 8 -20z m643 -67 c-3 -17 -1 -22 9 -18 8 3 14 -1 14 -10 0 -9 -5 -12
-12 -8 -7 4 -8 3 -4 -4 4 -7 1 -12 -8 -12 -8 0 -18 -5 -21 -11 -10 -16 28 -6
43 11 11 13 11 12 3 -7 -7 -14 -8 -24 -1 -28 9 -6 12 2 14 50 1 11 -6 26 -14
33 -13 11 -12 12 5 10 12 -2 21 -12 23 -26 2 -12 8 -22 14 -22 5 0 8 7 4 15
-4 11 1 15 19 15 14 0 25 -5 25 -11 0 -5 -5 -7 -12 -3 -7 5 -9 2 -5 -9 4 -12
2 -14 -10 -10 -10 4 -14 2 -10 -4 9 -15 -25 -43 -59 -49 -22 -3 -25 -2 -14 6
12 8 11 10 -7 10 -33 0 -36 1 -58 13 -11 6 -23 10 -27 9 -4 -1 -5 4 -2 12 3 9
-4 16 -21 20 -15 4 -23 11 -19 17 4 8 9 7 14 -1 5 -9 17 -10 36 -5 16 5 32 8
37 7 4 -1 7 5 7 14 0 9 5 12 12 8 7 -4 8 -3 4 4 -4 6 -13 9 -21 5 -8 -3 -15
-1 -15 5 0 16 23 20 43 8 12 -7 17 -19 14 -34z m-692 18 c4 -6 15 -8 26 -5 11
4 19 2 19 -5 0 -6 5 -8 11 -4 8 4 8 0 0 -15 -13 -24 -23 -29 -15 -7 3 8 1 17
-5 21 -6 3 -11 1 -11 -6 0 -9 -4 -9 -15 1 -8 6 -19 9 -25 5 -5 -3 -10 1 -10 9
0 18 16 21 25 6z m865 -5 c0 -2 -10 -10 -22 -16 -21 -11 -22 -11 -9 4 13 16
31 23 31 12z m-480 -89 c0 -2 -7 -7 -16 -10 -8 -3 -12 -2 -9 4 6 10 25 14 25
6z m-74 -32 c13 -9 32 -14 42 -12 18 5 19 -6 18 -218 -1 -264 0 -267 80 -180
29 31 57 56 63 56 6 0 11 5 11 10 0 6 3 10 8 10 4 0 7 -62 7 -139 0 -107 -3
-137 -12 -134 -9 4 -13 37 -13 117 l0 111 -74 -75 c-67 -68 -73 -78 -71 -113
1 -23 -4 -42 -15 -52 -14 -12 -22 -10 -73 23 l-57 37 0 285 0 285 31 2 c17 1
42 -5 55 -13z m-145 -53 c-6 -10 -7 -22 -3 -27 4 -5 -1 -2 -10 5 -19 14 -25
37 -8 26 6 -3 10 -1 10 4 0 6 5 11 10 11 7 0 7 -6 1 -19z m26 -26 c0 -8 -4
-12 -9 -9 -5 3 -6 10 -3 15 9 13 12 11 12 -6z m-52 -5 c3 -5 1 -10 -4 -10 -6
0 -11 5 -11 10 0 6 2 10 4 10 3 0 8 -4 11 -10z m355 5 c0 -7 -30 -13 -34 -7
-3 4 4 9 15 9 10 1 19 0 19 -2z m257 -19 c0 -8 -5 -14 -11 -13 -6 1 -9 -5 -8
-13 2 -8 0 -12 -4 -8 -4 4 -14 2 -23 -4 -9 -7 -3 2 13 20 34 37 33 36 33 18z
m-560 -13 c12 7 10 -30 -2 -40 -4 -5 -5 -3 -1 4 3 6 -3 18 -14 26 -11 7 -17
17 -13 21 4 3 10 1 14 -5 4 -6 11 -9 16 -6z m242 -22 c-6 -2 -18 4 -27 13 -15
15 -15 15 10 4 15 -7 23 -15 17 -17z m51 -6 c0 -5 -5 -3 -10 5 -5 8 -10 20
-10 25 0 6 5 3 10 -5 5 -8 10 -19 10 -25z m-312 -10 c-3 -3 -9 2 -12 12 -6 14
-5 15 5 6 7 -7 10 -15 7 -18z m245 -10 c-3 -9 -8 -14 -10 -11 -3 3 -2 9 2 15
9 16 15 13 8 -4z m-280 -10 c4 -8 3 -16 -1 -19 -4 -3 -9 4 -9 15 -2 23 3 25
10 4z m587 -15 c0 -5 -2 -10 -4 -10 -3 0 -8 5 -11 10 -3 6 -1 10 4 10 6 0 11
-4 11 -10z m-565 -20 c3 -5 1 -10 -4 -10 -6 0 -11 5 -11 10 0 6 2 10 4 10 3 0
8 -4 11 -10z m489 -275 c1 -140 -1 -255 -4 -255 -3 1 -17 19 -32 41 l-28 39 0
200 c0 122 4 201 10 205 6 3 10 1 10 -6 0 -8 4 -8 15 1 8 7 15 19 15 28 0 8 3
12 7 9 4 -4 7 -122 7 -262z m-471 247 c-7 -5 -11 -18 -8 -30 2 -13 0 -20 -6
-16 -5 3 -16 2 -22 -3 -7 -4 -5 -1 4 8 11 10 14 21 9 30 -6 11 -3 15 13 16 13
1 17 -1 10 -5z m528 -15 c-10 -9 -11 -8 -5 6 3 10 9 15 12 12 3 -3 0 -11 -7
-18z m-517 -76 c3 -5 -1 -11 -9 -14 -9 -4 -12 -1 -8 9 6 16 10 17 17 5z"/>
<path d="M3898 3155 c-3 -14 -1 -28 4 -31 5 -4 8 -15 5 -25 -6 -22 11 -25 37
-6 16 12 16 14 2 26 -9 8 -16 19 -16 26 0 7 -6 18 -14 24 -11 9 -15 6 -18 -14z
m26 -21 c3 -8 2 -12 -4 -9 -6 3 -10 10 -10 16 0 14 7 11 14 -7z"/>
<path d="M3635 3222 c-11 -2 -24 -8 -29 -13 -6 -5 -15 -4 -22 2 -8 7 -14 6
-20 -2 -5 -8 -3 -9 6 -4 10 6 12 4 7 -7 -9 -24 4 -30 19 -10 11 14 13 14 14 2
0 -12 4 -10 15 4 10 13 15 15 15 6 0 -7 3 -10 7 -7 3 4 12 -1 19 -11 7 -9 16
-13 20 -9 5 4 4 11 -2 15 -6 4 -15 14 -20 22 -5 9 -18 14 -29 12z"/>
<path d="M3710 3210 c0 -11 2 -20 5 -20 2 0 9 9 15 20 9 16 8 20 -5 20 -8 0
-15 -9 -15 -20z"/>
<path d="M3639 3159 c-8 -42 -6 -46 19 -30 10 6 10 10 -3 21 -8 7 -15 11 -16
9z"/>
<path d="M4145 3220 c-4 -6 -10 -8 -15 -5 -5 3 -14 -4 -20 -15 -9 -16 -8 -20
4 -20 10 0 13 6 10 18 -5 13 -4 14 4 3 6 -8 8 -21 4 -29 -3 -10 -1 -13 6 -8 7
4 12 14 12 22 0 8 4 14 8 14 5 0 9 7 9 15 0 17 -13 20 -22 5z"/>
<path d="M4225 3169 c-11 -16 -1 -19 13 -3 7 8 8 14 3 14 -5 0 -13 -5 -16 -11z"/>
<path d="M2825 3439 c-4 -6 -5 -12 -2 -15 2 -3 7 2 10 11 7 17 1 20 -8 4z"/>
<path d="M2100 3399 c0 -17 4 -28 10 -24 6 3 10 17 10 31 0 13 -4 24 -10 24
-5 0 -10 -14 -10 -31z"/>
<path d="M2908 3413 c7 -3 16 -2 19 1 4 3 -2 6 -13 5 -11 0 -14 -3 -6 -6z"/>
<path d="M5260 3400 c-12 -7 -10 -9 7 -7 12 0 19 5 17 9 -6 10 -6 10 -24 -2z"/>
<path d="M1618 3281 c-63 -65 -130 -126 -148 -136 l-32 -17 24 34 c41 54 73
112 58 103 -8 -5 -4 5 8 22 29 41 28 52 -3 19 -13 -14 -30 -26 -37 -27 -7 0
-22 -2 -32 -4 -11 -2 -36 4 -55 13 -20 8 -43 19 -52 23 -22 10 -20 -16 2 -32
17 -12 17 -13 1 -26 -15 -13 -14 -13 6 -3 15 7 28 8 41 0 11 -5 29 -10 40 -10
25 0 33 -12 19 -30 -8 -13 -9 -13 -5 0 4 12 -4 16 -31 17 -29 1 -33 -1 -21
-11 38 -28 27 -79 -19 -83 -19 -2 -21 -1 -10 11 7 8 16 12 19 10 4 -2 13 4 20
13 12 14 12 16 0 8 -11 -6 -13 -4 -8 8 3 8 0 18 -8 21 -9 3 -12 0 -9 -8 4 -10
-4 -13 -30 -11 -32 3 -34 1 -24 -15 10 -16 13 -16 26 -3 8 7 17 11 21 8 3 -4
-3 -13 -14 -21 -18 -14 -22 -13 -42 11 -12 14 -28 25 -35 25 -7 1 -2 7 12 15
18 9 29 10 37 3 10 -8 13 -6 13 5 0 9 -7 14 -17 12 -10 -1 -27 2 -38 8 -18 9
-19 9 -6 -7 13 -16 13 -18 0 -16 -26 4 -40 0 -35 -9 3 -5 -1 -12 -10 -15 -18
-7 -15 -47 4 -54 7 -2 10 2 6 12 -5 12 -2 15 12 9 13 -5 15 -3 9 8 -8 12 -6
12 9 0 9 -8 15 -20 12 -28 -8 -21 52 -53 91 -48 17 2 45 0 61 -5 17 -4 34 -4
39 1 5 5 8 -111 8 -271 0 -259 -1 -281 -17 -286 -23 -7 -78 -53 -78 -65 0 -5
20 -9 45 -9 38 0 65 -11 159 -65 62 -36 120 -65 128 -65 9 0 18 12 21 28 7 32
91 159 143 217 20 22 31 32 24 22 -22 -31 -5 -28 26 5 23 25 25 30 9 25 -20
-7 -20 -7 -1 8 32 24 12 27 -43 6 -47 -18 -104 -54 -139 -88 -18 -18 -30 -16
-82 11 l-45 24 -1 311 c0 172 3 314 8 317 4 3 8 -134 8 -304 0 -270 2 -311 15
-316 24 -9 29 18 29 136 1 70 4 104 11 99 5 -4 45 -7 88 -7 71 1 78 -1 73 -17
-3 -13 0 -17 12 -15 10 2 16 11 14 23 -4 18 -3 18 20 2 57 -42 84 -57 96 -52
9 3 12 -21 12 -100 0 -58 -3 -104 -7 -104 -21 3 -34 -4 -68 -36 -20 -20 -33
-40 -30 -45 3 -5 23 -9 44 -8 37 1 84 -21 249 -117 47 -27 87 -33 79 -12 -3 7
9 30 27 51 l32 38 74 -56 c41 -31 81 -56 87 -56 7 0 13 11 13 23 0 32 94 217
121 240 12 10 19 20 16 23 -9 9 -71 -26 -94 -53 l-21 -26 -36 22 -36 23 -1
191 c0 106 -2 230 -3 277 -1 57 3 95 13 115 19 41 31 95 20 95 -21 0 -24 -2
-21 -16 2 -8 -3 -14 -9 -14 -7 0 -9 -3 -6 -7 4 -3 1 -13 -6 -21 -10 -13 -9
-14 2 -7 9 5 7 -2 -5 -17 -10 -14 -22 -24 -26 -22 -4 2 -9 0 -13 -5 -3 -6 3
-8 14 -6 17 3 19 0 11 -21 -7 -17 -6 -24 2 -24 9 0 9 -3 1 -11 -7 -7 -8 -21
-3 -40 6 -19 5 -27 -1 -23 -6 3 -7 -7 -4 -25 3 -18 1 -31 -5 -31 -5 0 -10 -11
-10 -25 0 -14 6 -25 13 -25 9 0 8 -3 -2 -9 -9 -6 -10 -11 -2 -15 6 -4 11 -13
11 -19 0 -7 -7 -3 -15 7 -8 10 -12 22 -10 27 3 4 1 10 -5 14 -5 3 -10 2 -10
-3 0 -5 -8 -9 -17 -9 -14 0 -13 3 5 15 23 15 31 47 10 39 -7 -2 -12 -10 -10
-16 1 -7 -2 -10 -7 -7 -11 7 -25 -23 -22 -49 4 -29 -7 -14 -13 18 -3 15 -1 25
4 22 5 -3 12 7 16 22 10 47 14 54 24 48 5 -3 10 -1 10 4 0 6 -5 11 -10 11 -19
0 -37 -24 -33 -41 3 -9 1 -19 -4 -22 -4 -3 -8 19 -8 48 0 43 2 49 12 36 10
-14 11 -14 10 3 -1 10 4 21 12 24 9 3 11 0 6 -9 -5 -8 4 -3 18 10 15 14 25 27
22 29 -3 3 -11 -2 -18 -12 -12 -17 -14 -17 -28 0 -12 16 -12 17 4 11 9 -3 17
-2 17 3 0 6 7 10 16 10 8 0 13 4 10 9 -10 15 -66 -18 -59 -34 4 -11 -2 -15
-18 -14 -13 0 -19 3 -12 5 9 4 9 13 2 30 -5 14 -9 26 -9 28 0 1 9 2 20 3 11 1
18 -2 15 -7 -3 -4 4 -6 15 -3 11 3 20 9 20 14 0 5 -7 6 -16 2 -9 -3 2 18 24
47 23 30 39 57 36 61 -2 4 2 10 8 12 7 3 9 6 3 6 -15 1 -25 -8 -82 -76 l-53
-61 0 -302 0 -302 -72 41 -73 40 0 143 c0 115 3 142 14 140 15 -3 51 33 77 78
10 16 22 30 26 30 4 0 8 16 8 36 0 25 -4 33 -12 28 -10 -6 -10 -4 0 7 6 7 12
22 12 32 0 14 -34 -14 -115 -94 -63 -63 -128 -119 -144 -126 -35 -15 -121 -23
-121 -11 0 12 51 92 61 96 5 2 9 9 9 15 0 6 -10 1 -23 -11 -38 -36 -87 -50
-179 -51 l-88 -1 75 98 c41 53 78 102 83 107 4 6 22 30 41 53 19 24 44 59 57
77 l22 33 -34 -14 c-51 -21 -77 -17 -134 21 -52 35 -70 42 -70 27 0 -12 62
-68 85 -77 36 -14 74 -16 97 -5 22 11 22 11 3 -4 -11 -8 -27 -21 -35 -28 -8
-7 -18 -12 -22 -10 -5 1 -8 -4 -8 -12 0 -8 -9 -24 -19 -37 -18 -23 -20 -23
-38 -6 -11 9 -22 15 -24 12 -3 -2 -18 6 -34 19 l-30 24 24 19 c25 20 37 53 20
53 -6 0 -9 -6 -7 -12 1 -7 -10 -25 -25 -40 -15 -15 -27 -22 -27 -16 0 5 -7 8
-15 4 -8 -3 -15 -1 -15 4 0 6 5 10 11 10 8 0 8 4 -1 15 -6 8 -9 19 -5 25 9 14
-38 13 -53 -2 -7 -7 -12 -9 -12 -6 0 3 27 34 60 69 33 35 60 71 60 81 0 10 -2
18 -3 18 -2 0 -56 -54 -119 -119z m-181 -83 c-3 -8 -6 -5 -6 6 -1 11 2 17 5
13 3 -3 4 -12 1 -19z m187 -11 c7 -6 4 -7 -6 -3 -20 6 -25 -10 -5 -17 7 -3 5
-6 -5 -6 -10 -1 -18 6 -18 15 0 8 -5 12 -11 9 -7 -5 -5 -15 5 -30 9 -14 12
-26 6 -30 -13 -8 -1 -33 18 -38 10 -3 1 -4 -18 -3 -28 1 -36 6 -38 24 -3 17 0
21 15 15 14 -5 16 -3 6 7 -6 7 -9 20 -6 29 3 9 -4 5 -16 -9 -11 -14 -18 -32
-15 -40 4 -11 2 -12 -7 -3 -6 6 -19 9 -28 7 -9 -3 -7 0 5 8 11 7 38 33 59 57
26 28 41 38 44 30 2 -8 9 -18 15 -22z m107 -78 c11 -11 29 -19 38 -16 10 2 23
-4 29 -14 15 -23 15 -29 1 -29 -5 0 -7 5 -4 10 3 6 3 10 -2 10 -13 0 -35 -16
-36 -26 0 -5 -12 -22 -27 -37 l-26 -28 0 75 c0 42 1 76 3 76 2 0 12 -9 24 -21z
m-186 -29 c-5 -9 21 -14 63 -13 18 1 15 -5 -9 -18 -15 -8 -19 -8 -15 0 4 6 3
11 -3 11 -15 0 -23 -18 -11 -25 8 -5 8 -11 0 -20 -7 -8 -9 -19 -5 -25 8 -13
-5 -13 -25 0 -13 9 -13 10 0 10 9 1 6 6 -9 14 l-24 13 24 17 c20 14 20 20 -2
18 -3 -1 -6 6 -6 14 0 8 7 14 14 14 8 0 11 -4 8 -10z m63 -64 c-19 -14 -25
-32 -8 -21 6 4 7 -1 3 -11 -5 -12 -3 -15 6 -9 10 6 11 3 2 -14 -7 -11 -15 -21
-19 -21 -13 0 -48 29 -36 30 5 0 15 -5 22 -12 17 -17 26 -3 13 20 -14 25 -4
52 18 52 14 -1 14 -2 -1 -14z m656 -18 c-16 -18 -30 -35 -31 -37 -2 -2 -5 -2
-8 1 -5 5 53 68 63 68 3 0 -7 -15 -24 -32z m-715 -64 c1 5 8 3 16 -4 12 -10
13 -15 4 -21 -20 -12 -35 0 -36 29 -1 23 -1 24 7 7 5 -11 9 -16 9 -11z m161
16 c0 -5 -5 -10 -11 -10 -5 0 -7 5 -4 10 3 6 8 10 11 10 2 0 4 -4 4 -10z m517
-6 c-3 -3 -12 -4 -19 -1 -8 3 -5 6 6 6 11 1 17 -2 13 -5z m-623 -30 c3 -8 2
-12 -4 -9 -6 3 -10 10 -10 16 0 14 7 11 14 -7z m584 2 c-7 -8 -15 -12 -17 -11
-5 6 10 25 20 25 5 0 4 -6 -3 -14z m-568 -41 c0 -12 -29 -3 -34 10 -4 13 -2
14 14 5 11 -6 20 -13 20 -15z m77 18 c-4 -3 -1 -13 6 -22 11 -14 10 -14 -5 -2
-16 12 -16 31 -1 31 4 0 3 -3 0 -7z m459 -12 c0 -11 -5 -17 -13 -14 -10 4 -11
9 -2 19 15 18 15 18 15 -5z m-593 -7 c-2 -7 -12 -15 -21 -19 -14 -5 -14 -7 -2
-15 9 -6 10 -10 3 -10 -19 0 -27 21 -12 31 12 7 11 9 -1 9 -12 0 -12 2 -2 8
19 13 41 10 35 -4z m857 -16 c0 -6 -7 -7 -16 -4 -10 4 -13 2 -7 -7 15 -23 11
-37 -10 -37 -20 0 -20 0 -1 15 11 8 14 15 7 15 -7 0 -13 9 -13 19 0 14 5 18
20 14 11 -3 20 -10 20 -15z m-838 -30 c-4 -28 -6 -30 -12 -13 -4 11 -3 26 2
33 15 17 15 16 10 -20z m550 18 c7 4 8 2 4 -5 -9 -13 -26 -5 -25 12 0 9 2 8 6
-1 2 -6 10 -9 15 -6z m-28 -15 c3 -4 -1 -16 -8 -26 -10 -14 -15 -15 -21 -5 -5
8 -4 11 2 7 6 -4 13 0 16 7 3 8 1 17 -6 20 -9 3 -9 5 0 5 6 1 14 -3 17 -8z
m343 -7 c-3 -3 -12 -4 -19 -1 -8 3 -5 6 6 6 11 1 17 -2 13 -5z m-297 -24 c0
-5 -5 -10 -11 -10 -5 0 -7 5 -4 10 3 6 8 10 11 10 2 0 4 -4 4 -10z m268 -23
c8 -9 8 -17 0 -27 -8 -12 -9 -12 -4 2 3 10 -2 22 -12 27 -9 6 -12 11 -6 11 6
0 16 -6 22 -13z m-873 -17 c3 -5 1 -10 -4 -10 -6 0 -11 5 -11 10 0 6 2 10 4
10 3 0 8 -4 11 -10z m581 -18 c-17 -16 -18 -16 -5 5 7 12 15 20 18 17 3 -2 -3
-12 -13 -22z m-520 6 c4 -7 3 -8 -4 -4 -7 4 -12 2 -12 -4 0 -6 -5 -8 -11 -4
-8 4 -7 9 2 15 18 11 17 11 25 -3z m839 -8 c3 -5 1 -10 -4 -10 -6 0 -11 5 -11
10 0 6 2 10 4 10 3 0 8 -4 11 -10z m-302 -25 c-3 -9 -8 -14 -10 -11 -3 3 -2 9
2 15 9 16 15 13 8 -4z m301 -21 c3 -8 2 -12 -4 -9 -6 3 -10 10 -10 16 0 14 7
11 14 -7z m-54 -14 c0 -5 -2 -10 -4 -10 -3 0 -8 5 -11 10 -3 6 -1 10 4 10 6 0
11 -4 11 -10z m-245 -19 c3 -5 2 -12 -3 -15 -5 -3 -9 1 -9 9 0 17 3 19 12 6z
m-570 -10 c3 -5 2 -12 -3 -15 -5 -3 -9 1 -9 9 0 17 3 19 12 6z m-4 -58 c13
-16 12 -17 -3 -4 -17 13 -22 21 -14 21 2 0 10 -8 17 -17z m580 0 c13 -16 12
-17 -3 -4 -17 13 -22 21 -14 21 2 0 10 -8 17 -17z"/>
<path d="M1565 3100 c3 -5 8 -10 11 -10 2 0 4 5 4 10 0 6 -5 10 -11 10 -5 0
-7 -4 -4 -10z"/>
<path d="M1530 3029 c0 -5 5 -7 10 -4 6 3 10 1 10 -5 0 -6 5 -8 11 -4 8 4 7 9
-2 15 -19 12 -29 11 -29 -2z"/>
<path d="M312 3374 c-14 -15 -16 -28 -4 -20 13 8 28 -7 39 -39 6 -16 16 -29
22 -27 9 2 9 -3 1 -17 -13 -25 -13 -42 1 -19 5 9 15 15 23 12 8 -3 12 3 11 18
-1 13 -7 23 -12 23 -17 0 -54 52 -48 67 7 18 -17 19 -33 2z"/>
<path d="M385 3380 c3 -5 10 -10 16 -10 5 0 9 5 9 10 0 6 -7 10 -16 10 -8 0
-12 -4 -9 -10z"/>
<path d="M542 3368 c-15 -16 -34 -23 -60 -23 l-38 0 -2 -300 c-1 -165 -5 -308
-8 -317 -11 -36 23 -17 86 48 36 36 57 62 48 58 -10 -3 -18 -11 -18 -17 0 -6
-3 -7 -7 -4 -3 4 4 19 17 33 20 20 24 36 25 82 0 55 -2 59 -47 104 -27 26 -48
54 -48 63 0 8 -6 15 -12 15 -9 0 -10 3 -2 8 7 4 10 45 9 110 -1 96 0 102 17
96 25 -8 63 18 65 45 2 26 2 26 -25 -1z m-43 -331 c-2 -1 -13 -9 -24 -17 -19
-14 -19 -14 -6 3 7 9 18 17 24 17 6 0 8 -1 6 -3z m71 -63 c0 -2 -7 -4 -15 -4
-8 0 -15 4 -15 10 0 5 7 7 15 4 8 -4 15 -8 15 -10z m-42 -24 c8 -17 21 -38 30
-47 13 -13 14 -15 2 -11 -18 6 -40 -14 -40 -36 0 -9 -4 -16 -10 -16 -5 0 -10
6 -10 14 0 8 -8 24 -18 37 -18 22 -18 23 2 55 12 18 23 33 26 34 3 0 11 -14
18 -30z m-15 -170 c-15 -16 -31 -30 -35 -30 -3 0 6 14 20 30 15 17 30 30 35
30 5 0 -4 -13 -20 -30z"/>
<path d="M1318 3360 c-3 -16 -1 -30 4 -30 8 0 9 2 13 38 3 33 -12 27 -17 -8z"/>
<path d="M2669 3350 c-14 -48 -5 -63 38 -62 15 0 33 -4 39 -9 8 -6 10 -2 6 16
-4 21 -10 25 -39 25 -35 0 -35 0 -29 35 9 48 0 44 -15 -5z"/>
<path d="M1040 3355 c0 -14 5 -25 10 -25 6 0 10 11 10 25 0 14 -4 25 -10 25
-5 0 -10 -11 -10 -25z"/>
<path d="M104 3341 c11 -12 43 -33 72 -47 44 -21 55 -23 72 -13 11 7 18 18 15
26 -3 7 -9 10 -14 7 -6 -3 -17 0 -26 8 -12 9 -15 9 -9 1 11 -19 -19 -16 -34 2
-7 9 -15 14 -17 11 -3 -2 -21 3 -41 11 l-37 15 19 -21z"/>
<path d="M389 3360 c-6 -33 -4 -47 8 -43 7 3 13 8 13 12 0 8 -19 37 -21 31z"/>
<path d="M2520 3325 c-19 -49 -22 -75 -11 -75 6 0 12 3 12 8 1 4 3 20 5 36 2
16 5 35 8 43 3 7 3 13 0 13 -2 0 -9 -11 -14 -25z"/>
<path d="M2817 3343 c-9 -8 12 -33 27 -33 6 0 3 5 -7 11 -9 6 -15 14 -12 20 7
10 2 12 -8 2z"/>
<path d="M5725 3340 c-3 -5 -2 -10 4 -10 5 0 13 5 16 10 3 6 2 10 -4 10 -5 0
-13 -4 -16 -10z"/>
<path d="M295 3329 c-4 -6 -5 -13 -2 -15 3 -3 -3 -14 -14 -25 -10 -10 -19 -27
-20 -36 0 -10 -1 -154 -2 -320 l-2 -303 -31 -10 c-40 -14 -128 -90 -117 -101
5 -5 22 -5 38 -1 70 19 80 14 281 -132 129 -94 137 -98 162 -86 16 7 22 15 15
17 -14 5 44 82 61 83 5 0 -1 -11 -14 -25 -13 -14 -21 -25 -17 -25 12 0 46 43
41 52 -8 13 16 39 29 31 5 -3 7 -1 4 4 -4 6 3 19 16 29 18 16 19 16 8 2 -23
-30 -7 -20 25 14 16 18 19 24 7 14 -34 -29 -28 -4 8 30 24 23 29 25 23 9 -4
-11 -4 -17 0 -13 4 3 9 14 10 25 2 10 8 18 14 18 6 0 14 4 19 9 5 5 3 6 -4 2
-7 -4 -13 -4 -13 -1 0 4 6 12 13 19 9 9 12 66 11 223 l-2 211 37 8 c20 4 39 8
43 8 12 2 68 46 66 54 0 4 2 14 6 23 6 13 14 15 41 9 19 -4 36 -5 39 -2 7 7 7
22 6 -357 -1 -352 -2 -362 -69 -408 -53 -37 -54 -58 -3 -48 20 3 52 15 70 26
43 25 48 24 123 -10 56 -26 97 -31 85 -12 -8 12 79 184 107 214 26 27 26 27 4
27 -12 0 -39 -11 -60 -25 l-37 -26 -38 20 -39 20 -1 238 c0 383 -2 422 -19
416 -8 -3 -12 -11 -9 -18 7 -20 -19 -26 -41 -9 -17 13 -17 14 2 7 17 -6 18 -5
5 8 -14 15 -40 22 -40 10 1 -21 34 -44 60 -44 28 0 29 -2 16 -15 -13 -13 -17
-13 -32 -1 -16 12 -17 12 -11 -3 3 -10 2 -20 -4 -24 -6 -3 -8 -12 -5 -20 3 -7
0 -16 -6 -20 -7 -4 -8 -3 -4 4 4 7 3 12 -3 12 -5 0 -11 -3 -14 -7 -2 -5 -3 -3
-1 3 1 6 -3 17 -9 23 -8 8 -8 11 0 11 6 0 14 -6 16 -12 3 -7 5 3 6 22 0 28 -2
31 -9 15 -8 -18 -9 -19 -9 -1 -1 12 -6 16 -16 12 -9 -3 -24 3 -34 13 -11 11
-22 17 -25 13 -3 -3 -6 0 -6 7 0 8 -9 7 -29 -5 -17 -10 -28 -20 -26 -24 7 -12
-54 -60 -84 -66 -17 -4 -34 -11 -37 -15 -7 -12 -24 -11 -24 2 0 5 4 8 8 5 5
-3 9 8 10 24 1 43 10 52 42 45 34 -7 71 9 64 28 -3 9 -16 12 -35 9 -45 -7
-116 17 -166 55 -24 18 -48 33 -53 33 -16 0 -12 -27 5 -34 23 -8 18 -29 -5
-23 -11 3 -23 1 -26 -5 -3 -5 -13 -7 -21 -3 -13 4 -14 3 -3 -10 11 -13 9 -15
-11 -16 -20 -1 -21 -2 -5 -6 12 -3 25 3 35 15 16 21 16 21 51 -8 19 -16 29
-30 23 -30 -7 0 -13 5 -13 10 0 19 -16 10 -17 -10 -1 -11 2 -18 8 -15 5 4 9
-1 9 -9 0 -8 -5 -18 -10 -21 -6 -4 -8 -11 -4 -16 3 -5 9 -7 13 -5 3 3 7 -3 7
-13 0 -9 -8 -17 -17 -17 -11 0 -16 7 -14 18 5 26 -13 32 -36 12 -18 -16 -19
-16 -19 0 0 10 5 14 12 10 8 -5 9 0 6 14 -4 12 -3 24 2 27 4 3 10 15 13 27 6
22 5 22 -8 4 -8 -11 -15 -17 -15 -13 0 4 -10 2 -22 -5 -13 -7 -29 -11 -35 -10
-7 2 -25 -5 -40 -15 -21 -14 -25 -15 -19 -3 5 8 -3 4 -17 -10 -34 -34 -18 -47
32 -28 43 17 51 15 51 -13 0 -21 44 -54 60 -44 7 4 10 -73 10 -244 0 -248 0
-250 -23 -275 l-24 -25 -109 71 c-60 39 -111 75 -114 79 -3 4 -5 143 -5 308 0
166 -2 301 -6 301 -10 0 -20 -30 -13 -41 3 -5 0 -9 -5 -9 -6 0 -11 8 -11 17 0
12 -3 14 -11 6 -6 -6 -12 -44 -13 -85 -1 -58 2 -72 13 -70 10 2 12 -1 5 -10
-5 -7 -9 -25 -8 -40 0 -16 -2 -28 -6 -28 -5 0 -7 16 -5 36 4 39 -13 43 -30 6
-5 -12 -14 -22 -19 -22 -4 0 -3 -6 3 -14 9 -10 8 -15 -2 -19 -15 -6 -16 31 -1
54 4 8 3 9 -4 5 -7 -4 -12 -2 -12 3 0 6 5 11 11 11 6 0 7 5 2 13 -11 18 -14
87 -3 87 5 0 6 -7 3 -17 -5 -12 -3 -14 8 -8 11 6 12 5 2 -6 -7 -7 -13 -17 -13
-22 0 -4 6 -5 13 -1 9 6 9 5 -1 -8 -10 -12 -10 -18 2 -27 13 -11 15 -1 12 74
-2 47 -7 90 -13 96 -6 6 -9 -3 -9 -27 1 -25 -4 -39 -14 -41 -13 -4 -13 -3 0 6
12 8 12 11 1 11 -10 0 -11 3 -2 14 8 10 9 16 1 21 -5 3 -10 15 -10 27 0 15 4
18 17 14 10 -4 14 -4 11 0 -4 4 -3 15 3 26 15 27 19 58 9 58 -5 0 -12 -5 -15
-11z m478 -138 c51 -32 42 -36 -16 -7 -26 12 -44 26 -40 29 8 8 6 9 56 -22z
m-396 -36 c0 -19 -3 -32 -7 -30 -7 4 -4 65 3 65 2 0 4 -16 4 -35z m459 -17
c-1 -18 -8 -33 -16 -36 -12 -3 -12 -2 -1 6 10 8 8 13 -10 26 -22 16 -22 17 -4
14 12 -2 19 2 18 10 -2 6 1 12 6 12 5 0 8 -14 7 -32z m-183 2 c-3 -11 -9 -20
-14 -20 -14 0 -11 28 4 33 6 3 13 6 14 6 0 1 -1 -8 -4 -19z m535 -29 c10 -6
10 -10 -3 -21 -18 -15 -42 0 -31 19 8 13 16 14 34 2z m-808 -21 c0 -5 -2 -10
-4 -10 -3 0 -8 5 -11 10 -3 6 -1 10 4 10 6 0 11 -4 11 -10z m393 -45 c8 -69
18 -115 27 -120 5 -3 1 -26 -7 -52 -8 -27 -15 -94 -16 -150 -1 -57 -5 -103 -9
-103 -5 0 -8 19 -9 43 -1 95 -14 192 -29 233 -5 13 -5 26 0 29 4 3 12 24 16
48 4 23 9 45 10 50 1 4 2 24 3 44 1 48 7 40 14 -22z m422 10 c-2 -14 1 -25 6
-25 6 0 7 -5 3 -11 -4 -8 -12 -2 -21 16 -13 23 -13 29 -1 36 7 5 14 9 14 9 1
0 0 -11 -1 -25z m-384 -8 c-10 -9 -11 -8 -5 6 3 10 9 15 12 12 3 -3 0 -11 -7
-18z m346 17 c-3 -4 1 -13 10 -22 14 -14 14 -17 -1 -27 -22 -17 -20 -28 4 -20
11 3 20 2 20 -3 0 -14 -43 -9 -48 5 -2 7 3 16 12 19 14 5 14 8 1 21 -14 13
-12 33 2 33 4 0 4 -3 0 -6z m-27 -13 c0 -5 -9 -7 -20 -4 -11 3 -20 7 -20 9 0
2 9 4 20 4 11 0 20 -4 20 -9z m-800 -61 c0 -11 -5 -20 -10 -20 -6 0 -15 -10
-20 -22 -6 -16 -9 -18 -9 -7 -1 9 5 22 13 29 8 6 12 18 9 26 -3 8 0 14 6 14 6
0 11 -9 11 -20z m790 5 c7 -9 8 -15 2 -15 -5 0 -12 7 -16 15 -3 8 -4 15 -2 15
2 0 9 -7 16 -15z m-760 -35 c0 -5 -3 -9 -7 -9 -22 4 -24 -3 -7 -23 10 -12 13
-18 6 -14 -7 4 -21 2 -30 -5 -14 -11 -15 -11 -4 1 14 17 16 34 2 25 -17 -11
-11 7 8 21 21 16 32 17 32 4z m787 4 c-3 -3 -2 -16 3 -29 7 -18 5 -27 -8 -37
-15 -12 -16 -11 -3 5 14 18 2 24 -15 7 -7 -7 -11 -6 -11 4 0 8 5 14 11 13 6
-1 10 8 9 21 -2 12 2 22 9 22 6 0 9 -3 5 -6z m43 2 c0 -3 -4 -8 -10 -11 -5 -3
-10 -1 -10 4 0 6 5 11 10 11 6 0 10 -2 10 -4z m1 -29 c-6 -8 -8 -17 -4 -20 3
-4 2 -7 -4 -7 -6 0 -14 7 -17 16 -3 8 -2 12 3 9 5 -3 12 -1 16 5 3 5 9 10 12
10 3 0 0 -6 -6 -13z m-841 -41 c0 -2 -7 -7 -16 -10 -8 -3 -12 -2 -9 4 6 10 25
14 25 6z m838 -21 c-3 -3 -9 2 -12 12 -6 14 -5 15 5 6 7 -7 10 -15 7 -18z
m-849 -8 c-9 -7 -18 -19 -22 -27 -4 -10 -6 -8 -6 7 -1 19 9 26 39 32 3 0 -2
-5 -11 -12z m796 3 c-3 -5 -12 -10 -18 -10 -7 0 -6 4 3 10 19 12 23 12 15 0z
m31 -22 c5 -7 3 -8 -6 -3 -10 6 -12 4 -7 -8 4 -11 2 -14 -9 -10 -17 6 -18 20
-1 26 6 3 13 6 14 6 1 1 5 -4 9 -11z m-806 -50 c0 -6 -6 -5 -15 2 -8 7 -15 14
-15 16 0 2 7 1 15 -2 8 -4 15 -11 15 -16z m-49 -25 c13 -16 12 -17 -3 -4 -10
7 -18 15 -18 17 0 8 8 3 21 -13z m839 -153 c0 -5 -8 -10 -17 -10 -15 0 -16 2
-3 10 19 12 20 12 20 0z m-377 -30 c3 -11 1 -18 -4 -14 -5 3 -9 12 -9 20 0 20
7 17 13 -6z"/>
<path d="M670 3320 c0 -19 -4 -25 -57 -97 -30 -40 -50 -73 -46 -73 9 0 43 36
43 45 0 5 27 38 67 82 12 14 19 31 16 39 -6 16 -23 19 -23 4z"/>
<path d="M2961 3320 c-12 -3 -18 -10 -13 -17 8 -12 152 -23 152 -10 0 4 5 7
11 7 6 0 2 -12 -9 -27 -11 -16 -29 -48 -41 -71 -12 -24 -25 -41 -28 -38 -3 3
-1 12 6 19 6 8 8 23 4 32 -4 12 -3 16 5 11 6 -3 14 -2 17 4 4 6 1 9 -6 8 -7
-2 -18 8 -26 22 -10 19 -13 21 -13 7 0 -10 -4 -15 -10 -12 -5 3 -10 -1 -10 -9
0 -10 -9 -16 -22 -16 -13 0 -27 -4 -33 -8 -13 -9 -16 -42 -4 -42 8 0 13 15 10
32 0 5 9 6 22 4 12 -1 22 -9 22 -17 0 -8 4 -20 8 -26 6 -9 3 -11 -7 -7 -8 3
-17 13 -19 22 -4 15 -5 15 -6 1 -1 -17 -41 -35 -41 -19 0 5 -8 7 -17 5 -10 -2
-26 -4 -36 -4 -10 -1 -16 -5 -13 -10 3 -5 -1 -12 -9 -15 -13 -5 -13 -9 -3 -26
17 -27 -6 -44 -36 -28 -18 10 -18 12 -4 22 15 11 15 13 -2 23 -15 10 -17 9
-13 -6 6 -23 -8 -33 -27 -20 -12 8 -12 12 -2 16 6 2 12 10 12 15 0 6 -3 8 -7
5 -4 -4 -15 10 -24 30 -11 22 -18 30 -19 20 0 -11 -10 -20 -30 -23 -28 -6 -38
-26 -31 -66 0 -5 -4 -8 -10 -8 -6 0 -8 9 -4 23 5 19 5 20 -5 4 -9 -14 -8 -22
1 -33 10 -13 10 -17 -1 -24 -8 -5 -15 -21 -18 -37 -2 -15 -7 -32 -11 -36 -11
-11 -9 54 2 70 4 7 0 17 -10 23 -17 11 -17 11 1 6 17 -6 17 -5 5 11 -8 9 -9
14 -3 10 7 -4 14 -1 17 7 4 10 0 12 -15 8 -15 -3 -19 -1 -16 9 3 8 15 13 26
13 23 -1 29 10 12 21 -6 4 -8 12 -4 18 3 7 0 5 -8 -3 -7 -8 -24 -15 -38 -15
-39 1 -40 -3 -19 -53 25 -57 24 -137 -2 -204 -10 -27 -15 -48 -9 -48 14 0 66
49 52 50 -8 0 -6 8 8 22 33 35 70 119 70 157 0 32 3 36 25 36 l25 0 -2 -290
c-1 -269 -2 -293 -22 -340 -26 -62 -56 -100 -125 -158 -50 -42 -29 -53 50 -27
62 21 136 67 125 77 -3 3 -1 14 5 24 11 22 9 23 137 -68 67 -48 108 -60 96
-29 -6 16 143 226 161 226 3 0 3 -6 -1 -12 -4 -7 2 -4 14 6 26 23 28 30 5 22
-15 -6 -15 -4 2 14 14 16 15 20 3 20 -17 0 -97 -51 -122 -79 -17 -18 -19 -17
-101 37 l-85 55 0 263 c0 254 1 262 19 257 19 -5 20 -15 18 -254 -2 -187 1
-249 10 -249 13 0 25 16 31 40 2 8 4 115 4 237 0 205 2 222 17 213 10 -5 23
-5 32 1 19 12 32 11 24 -1 -3 -5 -1 -10 4 -10 6 0 11 -5 11 -11 0 -5 -4 -8 -9
-4 -5 3 -13 1 -16 -5 -4 -6 -3 -9 2 -8 4 2 9 -1 11 -7 1 -5 -4 -10 -10 -10 -8
0 -14 -18 -16 -50 -4 -58 26 -165 47 -165 8 0 11 6 7 16 -7 19 11 57 24 49 5
-3 11 -1 15 5 3 5 27 19 52 31 48 22 45 39 -7 39 -14 0 -42 9 -63 20 -35 19
-37 19 -37 2 0 -10 5 -23 12 -30 9 -9 9 -15 1 -23 -8 -8 -13 -7 -18 2 -5 8 -4
10 3 5 17 -10 15 9 -3 24 -12 10 -12 16 -3 34 6 11 13 38 15 59 4 32 51 161
72 192 3 6 6 19 6 30 0 18 -7 20 -77 20 -42 0 -86 -2 -97 -5z m65 -98 c-8 -9
-19 -13 -22 -9 -10 9 16 38 28 31 6 -4 4 -13 -6 -22z m14 -21 c0 -5 -7 -11
-15 -15 -15 -5 -20 5 -8 17 9 10 23 9 23 -2z m-430 -35 c0 -2 -7 -7 -16 -10
-8 -3 -12 -2 -9 4 6 10 25 14 25 6z m204 -88 c6 -8 16 -13 22 -11 14 5 25 -22
18 -42 -4 -10 -14 -14 -28 -10 -21 6 -21 6 -2 -9 11 -9 14 -16 8 -16 -7 0 -12
-8 -12 -17 0 -14 -3 -14 -12 -5 -10 10 -10 15 -1 20 8 5 7 13 -4 27 -15 20
-15 20 -10 -2 3 -13 1 -23 -5 -23 -5 0 -6 -5 -3 -10 8 -13 -4 -54 -13 -45 -10
10 -9 55 1 55 4 0 5 6 0 13 -13 20 -10 67 4 67 16 0 17 -12 1 -28 -8 -8 -8
-12 -1 -12 6 0 16 7 23 15 11 13 10 18 -6 29 -10 8 -22 12 -26 10 -5 -3 -8 0
-8 5 0 15 41 7 54 -11z m36 -122 c0 -3 -4 -8 -10 -11 -5 -3 -10 -1 -10 4 0 6
5 11 10 11 6 0 10 -2 10 -4z m-30 -10 c0 -2 -7 -7 -16 -10 -8 -3 -12 -2 -9 4
6 10 25 14 25 6z m13 -23 c3 -5 0 -17 -4 -28 -9 -18 -9 -18 -5 3 4 19 1 22
-17 17 -17 -5 -19 -4 -7 4 18 13 27 14 33 4z m-35 -27 c15 5 15 4 2 -5 -23
-16 -30 -13 -29 12 1 16 3 17 6 5 3 -11 11 -15 21 -12z m47 -66 c3 -18 2 -20
-10 -10 -8 6 -11 18 -8 26 7 18 12 13 18 -16z m-61 -20 c-6 -6 -10 -3 -10 10
0 13 4 16 10 10 7 -7 7 -13 0 -20z m96 -250 c0 -5 -5 -10 -11 -10 -5 0 -7 5
-4 10 3 6 8 10 11 10 2 0 4 -4 4 -10z"/>
<path d="M2810 3040 c-13 -8 -12 -10 3 -10 9 0 20 0 24 -1 4 0 9 4 11 10 5 14
-18 14 -38 1z"/>
<path d="M1065 3310 c-3 -6 -1 -10 5 -10 7 0 9 -7 6 -16 -3 -8 -2 -13 2 -10 5
3 20 -6 35 -18 39 -34 85 -52 99 -38 7 7 -2 16 -30 31 -22 11 -43 25 -47 31
-11 18 -63 41 -70 30z"/>
<path d="M2790 3316 c0 -2 7 -9 15 -16 13 -11 14 -10 9 4 -5 14 -24 23 -24 12z"/>
<path d="M2865 3309 c-4 -6 2 -13 14 -16 11 -3 18 -9 15 -14 -3 -5 -2 -9 2 -9
8 0 33 32 34 43 0 11 -58 8 -65 -4z"/>
<path d="M4706 3298 c-20 -27 -22 -124 -3 -131 6 -3 -1 -6 -16 -6 -49 -2 -94
-28 -131 -77 -36 -47 -42 -73 -15 -65 8 2 44 5 82 7 l67 4 0 -45 c0 -43 -1
-45 -30 -45 -41 0 -89 -25 -122 -64 -45 -51 -39 -56 62 -53 l90 3 0 -126 c0
-116 -2 -130 -26 -181 -15 -29 -49 -75 -75 -100 -27 -26 -49 -50 -49 -54 0
-16 73 5 107 31 27 20 32 29 22 35 -8 5 -9 9 -4 9 6 0 23 21 40 48 l30 47 1
393 c0 215 -3 392 -7 392 -4 0 -15 -10 -23 -22z m-43 -201 c4 3 7 1 7 -5 0
-15 -17 -16 -25 -2 -4 6 -11 7 -17 4 -7 -4 -8 -2 -4 5 6 8 12 9 20 2 7 -6 16
-8 19 -4z"/>
<path d="M1695 3299 c-4 -6 -5 -12 -2 -15 2 -3 7 2 10 11 7 17 1 20 -8 4z"/>
<path d="M2418 3268 c-21 -23 -38 -45 -38 -50 0 -4 -4 -8 -10 -8 -5 0 -9 -5
-7 -12 1 -7 -4 -12 -11 -13 -8 0 -20 -9 -28 -19 -8 -11 -14 -14 -14 -7 0 9 -5
8 -16 -3 -11 -12 -20 -13 -33 -6 -12 6 -22 5 -30 -3 -10 -9 -11 -8 -6 6 4 10
2 17 -4 17 -6 0 -11 -7 -11 -16 0 -8 -5 -12 -10 -9 -6 4 -8 10 -6 14 3 4 -5 8
-17 8 -17 2 -19 0 -7 -7 8 -6 10 -10 3 -10 -10 0 -62 57 -83 90 -5 8 -15 10
-26 5 -11 -5 -22 -8 -26 -7 -4 1 -19 -13 -33 -30 -34 -41 -17 -49 37 -18 38
21 40 21 53 4 8 -11 9 -21 4 -25 -20 -12 65 -65 111 -69 69 -6 83 0 140 58 54
56 126 153 112 151 -4 0 -24 -19 -44 -41z"/>
<path d="M2934 3282 c4 -7 0 -22 -8 -34 -18 -25 -22 -63 -6 -53 6 4 8 10 5 15
-7 11 5 41 14 36 4 -3 7 4 8 14 1 11 -3 23 -9 26 -7 4 -8 2 -4 -4z"/>
<path d="M2973 3263 c0 -9 4 -10 14 -2 7 6 13 12 13 14 0 1 -6 2 -13 2 -8 0
-14 -6 -14 -14z"/>
<path d="M3065 3270 c3 -6 1 -10 -6 -10 -7 0 -10 -3 -6 -6 3 -3 13 -2 22 4 16
8 16 9 1 15 -10 4 -15 3 -11 -3z"/>
<path d="M1701 3254 c0 -12 7 -28 17 -35 15 -12 16 -12 6 1 -7 8 -14 24 -17
35 -4 19 -5 19 -6 -1z"/>
<path d="M1730 3258 c0 -7 5 -20 10 -28 8 -12 10 -11 10 7 0 12 -4 25 -10 28
-5 3 -10 0 -10 -7z"/>
<path d="M2815 3261 c-3 -5 -2 -12 3 -15 5 -3 9 1 9 9 0 17 -3 19 -12 6z"/>
<path d="M2867 3252 c1 -8 3 -16 3 -18 0 -3 5 -2 10 1 6 3 10 11 10 16 0 6 -4
8 -9 5 -5 -4 -11 -3 -14 1 -2 5 -2 2 0 -5z"/>
<path d="M2787 3244 c-4 -4 -3 -12 0 -18 11 -16 12 -36 4 -36 -4 0 -8 -6 -8
-14 0 -8 6 -12 14 -9 7 3 10 10 6 16 -4 6 0 8 8 5 10 -4 15 1 15 12 0 10 -5
18 -10 17 -6 -1 -10 3 -11 10 0 15 -10 24 -18 17z"/>
<path d="M1365 3230 c-3 -5 -1 -10 4 -10 6 0 11 5 11 10 0 6 -2 10 -4 10 -3 0
-8 -4 -11 -10z"/>
<path d="M2646 3223 c-6 -14 -5 -15 5 -6 7 7 10 15 7 18 -3 3 -9 -2 -12 -12z"/>
<path d="M2693 3213 c1 -17 4 -19 14 -11 15 12 18 22 4 14 -5 -4 -11 0 -14 6
-3 7 -4 3 -4 -9z"/>
<path d="M1780 3205 c-10 -12 -9 -15 4 -15 10 0 15 4 12 9 -4 5 0 12 6 14 8 4
9 6 2 6 -6 1 -17 -6 -24 -14z"/>
<path d="M2265 3211 c-3 -5 -2 -12 3 -15 5 -3 9 1 9 9 0 17 -3 19 -12 6z"/>
<path d="M2303 3207 c0 -8 6 -14 13 -14 7 0 10 6 7 14 -3 7 -8 13 -12 13 -4 0
-8 -6 -8 -13z"/>
<path d="M1832 3190 c0 -14 2 -19 5 -12 2 6 2 18 0 25 -3 6 -5 1 -5 -13z"/>
<path d="M2236 3193 c-6 -14 -5 -15 5 -6 7 7 10 15 7 18 -3 3 -9 -2 -12 -12z"/>
<path d="M2846 3197 c4 -11 13 -16 21 -13 8 3 17 6 19 6 2 0 4 5 4 11 0 8 -4
8 -13 0 -10 -8 -17 -7 -26 2 -10 9 -11 8 -5 -6z"/>
<path d="M1060 3184 c0 -8 5 -12 10 -9 6 4 8 11 5 16 -9 14 -15 11 -15 -7z"/>
<path d="M1090 3196 c0 -2 8 -10 18 -17 15 -13 16 -12 3 4 -13 16 -21 21 -21
13z"/>
<path d="M1799 3162 c16 -31 38 -45 47 -31 5 8 3 9 -6 4 -10 -6 -12 -4 -7 8 4
11 2 14 -9 10 -8 -3 -14 1 -14 11 0 9 -5 16 -10 16 -7 0 -7 -6 -1 -18z"/>
<path d="M131 3148 c-45 -21 -63 -36 -86 -71 -13 -21 -20 -25 -26 -15 -5 8 -8
5 -6 -9 2 -28 19 -35 56 -22 16 6 50 9 76 7 l48 -3 1 -73 c1 -72 1 -72 -26
-72 -40 0 -79 -18 -113 -50 -16 -16 -34 -30 -40 -32 -5 -2 -10 -12 -10 -23 0
-18 6 -20 61 -17 36 2 78 -3 105 -12 24 -9 49 -16 55 -16 8 0 11 58 10 198 -1
126 -5 196 -11 195 -10 -3 -11 -7 -14 -45 -2 -22 -2 -22 -12 -4 -9 14 -8 20 2
27 9 6 10 9 2 9 -6 0 -15 -5 -18 -10 -5 -8 -11 -7 -21 1 -8 6 -14 8 -14 4 0
-4 8 -14 18 -22 15 -13 14 -14 -13 -8 -40 9 -42 13 -19 30 16 12 43 19 65 17
4 -1 15 8 25 19 18 20 17 20 -20 17 -21 -1 -55 -10 -75 -20z"/>
<path d="M681 3148 c-11 -18 -11 -20 2 -15 10 4 17 0 19 -11 2 -9 6 -12 9 -7
3 6 1 20 -6 32 l-11 22 -13 -21z"/>
<path d="M945 3150 c-3 -5 -2 -10 4 -10 5 0 13 5 16 10 3 6 2 10 -4 10 -5 0
-13 -4 -16 -10z"/>
<path d="M4855 3150 c3 -5 8 -10 11 -10 2 0 4 5 4 10 0 6 -5 10 -11 10 -5 0
-7 -4 -4 -10z"/>
<path d="M864 3124 c-1 -13 2 -24 7 -24 5 0 9 8 9 18 0 9 4 13 8 7 10 -14 42
-18 42 -5 0 6 -4 9 -9 5 -5 -3 -15 0 -23 7 -22 21 -33 18 -34 -8z"/>
<path d="M3519 3106 c-14 -18 -16 -60 -16 -296 l0 -276 -28 -55 c-29 -60 -60
-99 -100 -125 -30 -20 -24 -34 14 -34 25 0 81 36 81 52 0 4 17 32 39 62 l38
55 0 316 c0 174 -3 317 -6 319 -3 2 -13 -6 -22 -18z"/>
<path d="M1029 3088 c-8 -15 -12 -110 -13 -307 -1 -274 -2 -288 -23 -327 -21
-39 -61 -80 -101 -104 -14 -8 -15 -11 -3 -19 19 -12 61 -4 84 17 10 9 34 38
53 63 l34 47 0 326 c-1 190 -5 326 -10 326 -5 0 -15 -10 -21 -22z"/>
<path d="M2410 3028 c-24 -20 -24 -20 -3 -14 18 6 22 4 17 -7 -3 -8 -2 -17 3
-20 4 -3 8 10 8 29 0 19 0 34 0 34 0 -1 -11 -10 -25 -22z"/>
<path d="M881 3016 c-15 -18 -21 -396 -6 -396 16 0 36 16 34 26 -1 5 0 14 1
19 1 6 3 90 4 187 1 178 -3 200 -33 164z"/>
<path d="M2390 2959 c0 -5 5 -7 10 -4 6 3 10 8 10 11 0 2 -4 4 -10 4 -5 0 -10
-5 -10 -11z"/>
<path d="M2420 2959 c0 -5 5 -7 10 -4 6 3 10 8 10 11 0 2 -4 4 -10 4 -5 0 -10
-5 -10 -11z"/>
<path d="M2286 2937 c-17 -24 -19 -47 -18 -199 0 -141 3 -173 16 -186 8 -9 18
-13 21 -10 3 3 4 99 3 214 -3 208 -3 209 -22 181z"/>
</g>
</svg>
