<svg xmlns="http://www.w3.org/2000/svg" viewBox="0 0 72.86 83.57"><defs><style>.cls-1{isolation:isolate;}.cls-2{fill:#080434;}.cls-3{fill:#0c054d;}.cls-4{fill:#100668;}</style></defs><title>Asset 10</title><g id="Layer_2" data-name="Layer 2"><g id="Layer_1-2" data-name="Layer 1"><g class="cls-1"><polygon class="cls-2" points="71.41 73.18 63.79 69.04 63.92 1.61 71.53 5.76 71.41 73.18"/><polygon class="cls-3" points="8.94 81.96 1.32 77.82 63.79 69.04 71.41 73.18 8.94 81.96"/><polygon class="cls-3" points="9.06 14.54 1.45 10.39 63.92 1.61 71.53 5.76 9.06 14.54"/><polygon class="cls-2" points="8.94 81.96 1.32 77.82 1.45 10.39 9.06 14.54 8.94 81.96"/><path class="cls-4" d="M7.75,13.29,72.86,4.14l-.13,70.28L7.61,83.57ZM71.41,73.18l.13-67.42L9.06,14.54,8.94,82l62.47-8.78"/><polygon class="cls-4" points="71.53 5.76 71.41 73.18 8.94 81.96 9.06 14.54 71.53 5.76"/><polygon class="cls-2" points="7.62 83.57 0 79.43 0.13 9.15 7.75 13.29 7.62 83.57"/><polygon class="cls-3" points="7.75 13.29 0.13 9.15 65.24 0 72.86 4.14 7.75 13.29"/></g></g></g></svg>