<svg xmlns="http://www.w3.org/2000/svg" viewBox="0 0 660.82 264.22"><defs><style>.cls-1{fill:#fff;}</style></defs><g id="Layer_2" data-name="Layer 2"><g id="Mobile"><g id="_05" data-name="05"><path class="cls-1" d="M518.17,119.43a12.12,12.12,0,0,0-3.42-4.75c-6.4-5.72-13.95-4.51-19.81-2.82-1.38.4-2.3.41-2.81,0s-.68-1.18-.63-2.46c0-.37,0-.73.06-1.1a20.8,20.8,0,0,0,0-3.06c-.49-6.37-3.34-10.61-8.44-12.59-8.63-3.36-16.91-1.87-24.6,4.41a24.52,24.52,0,0,1-2.23,1.54l-.47.3c0-.2-.08-.41-.13-.61a27.8,27.8,0,0,1-.51-2.87c-.08-.74-.16-1.48-.23-2.23-.52-5.26-1.06-10.7-4.49-15.37l-.5-.68c-2.46-3.37-5-6.86-9.05-8-7.33-2-15.16-3.7-23.18-.6a73.37,73.37,0,0,1-7.49,2.28l-1.85.5a2.93,2.93,0,0,1-1.25,0,2.67,2.67,0,0,1,0-1.36l0-.39s.11-.15.17-.23a2.88,2.88,0,0,0,.26-.35,7.58,7.58,0,0,0,.06-7.49,7.45,7.45,0,0,0-6.31-3.86,15.73,15.73,0,0,0-8.72,2.38c-1.6.94-2.74,1.24-3.39.89s-1-1.51-1.07-3.4v-.21c0-1.51-.09-3.07-.22-4.6-.7-8.73-3.32-15-8.24-19.63-2.59-2.46-4.93-3.84-6.95-4.09a37,37,0,0,0-11.7.68c-7.1,1.39-13.84,5.05-20.62,11.19a3.4,3.4,0,0,1-2.28.89,3.33,3.33,0,0,1-.75-1.92c-.28-8.29-3.79-15.6-7.19-21.66-6-10.6-14.72-16-26-16H304c-2,0-4,0-5.95,0-2.16,0-4.39-.05-6.59,0C280,2.26,270.78,7.59,264.06,18c-1,1.47-1.53,1.61-3.23.76l-1.12-.56a49.16,49.16,0,0,0-10.89-4.44,51.32,51.32,0,0,0-13.7-1A27.7,27.7,0,0,0,214,23.31a61.33,61.33,0,0,0-10.6,20.23c-.29.93-.67,1.51-1.07,1.64a1.26,1.26,0,0,1-1.07-.35c-6.43-4.89-13.75-4.56-20.68-3.8a12.21,12.21,0,0,0-10.29,7.43c-.35.8-.65,1.63-.94,2.43s-.65,1.79-1,2.65c-.86,1.86-1.3,2-1.28,2-.62,0-1.44-.71-2.1-1.28l-.26-.23c-1-.83-1.92-1.73-2.84-2.61A36.74,36.74,0,0,0,156,46.63c-8.18-5-18.05-6.5-30.15-4.48a30.22,30.22,0,0,0-10.75,4,22.29,22.29,0,0,0-10.53,16.55c-.49,3.47-.49,3.47-4,3.48h-.11c-2.71,0-5.6,0-8.47.2a8.61,8.61,0,0,0-6.4,3.45c-2.15,2.69-3,5.29-2.54,8.16.17,1.2,0,1.62-.15,1.76s-.89.16-1.93-.15l-.28-.09a23.27,23.27,0,0,0-5.14-1.13c-10.59-.66-18.74-1.07-26.42-1.34a25,25,0,0,0-5.78.68l-1.08.2c-5.75,1.08-10.73,4-15.54,6.78-1,.57-2,1.15-3,1.71-6.13,3.45-9,8.1-8.69,14.21.09,1.8-.58,2.61-2.37,2.89A24,24,0,0,0,7.79,105c-3.73,1.44-5.66,4.34-5.74,8.62-.09,5.52,3.05,10,8.61,12.24,5.12,2.09,10.25,1.37,14.13-2,1.05-.91,1.67-1.47,2.06-1.44s.93.63,1.85,1.65l.15.16a17.83,17.83,0,0,0,4.26,3.62A43.47,43.47,0,0,0,58,133c6-.44,10.72-2.69,14-6.69,1.17-1.44,2.46-3,3.86-4.43a3.57,3.57,0,0,1,1.42-1h0a3,3,0,0,1,1.17,1.69,5.67,5.67,0,0,1,.43,2.84,5.25,5.25,0,0,0,1.82,5.37l3.09,2.88a129.2,129.2,0,0,0,11.31,9.78c8.35,6.14,18.65,8.46,27.73,10.5,10.47,2.36,21.18,2.2,32.14,1.81,13.12-.47,24.44-4.84,33.66-13,1.25-1.11,2.12-1.78,2.65-1.67s1.05,1.07,1.78,2.6c5.23,11,14.66,15.42,26.55,12.36l1-.25c.63-.15,1.25-.3,1.87-.48a2,2,0,0,1,1.51,0,2.21,2.21,0,0,1,.78,1.44,16.12,16.12,0,0,0,2.17,5.4c3.67,5.22,7.42,10.16,13,13.26a69.82,69.82,0,0,0,12.18,5.24c8.93,3,17.57,3.5,25.68,1.61l1-.24c4.7-1.09,9.55-2.22,13.52-5.39,1.54-1.22,2.68-1.2,4.19.09A37.08,37.08,0,0,0,310.68,184a138.53,138.53,0,0,0,34.76,5.2h.67A27.06,27.06,0,0,0,364,183.12a49.86,49.86,0,0,0,4.44-4.26c.62-.63,1.22-1.26,1.82-1.86l.45-.44-.53-.34-2.82-1.76c-2.64-1.64-5.14-3.2-7.56-4.84-.21-.14-.34-.7-.45-1.14l-.06-.24.21,0a2.71,2.71,0,0,1,1.34,0,17,17,0,0,1,2.53,1.61c.4.29.8.58,1.22.85,12.2,8.08,21.05,3.39,25.24-.12s5.83-8.34,4.2-13.25l-.18-.49a8.33,8.33,0,0,1-.44-1.6,1.42,1.42,0,0,1,.43-1.37,1.43,1.43,0,0,1,1.45,0c.56.26,1.09.57,1.65.89s.88.51,1.33.74c9.74,5,20.57,6.91,33.1,6,5.35-.39,10.89-1.23,15.14-4.66a77.09,77.09,0,0,0,8.75-8.77l1.16-1.29a3.38,3.38,0,0,1,3.85-1.17A119.5,119.5,0,0,0,474.87,148a10.64,10.64,0,0,0,4.46-1c.73-.28,1.49-.57,2.29-.8l.86-.26-.67-.59c-.6-.54-1.16-1-1.67-1.45a21.3,21.3,0,0,1-2.71-2.56,3.24,3.24,0,0,1-.38-1.59c0-.08,0-.16,0-.24l.2,0a3.26,3.26,0,0,1,1.49.52c3.39,3.13,7.14,6.2,12.38,6.42l2.25.11a65.88,65.88,0,0,0,10.13,0,18,18,0,0,0,13.75-8.4C520.41,133,520.71,127.05,518.17,119.43ZM414.38,137l-2.52.1h0c-10.09.86-19.58-2.5-27.69-5.72a18.25,18.25,0,0,1-8.39-6.37c-.09-.13-.19-.25-.29-.38a2.38,2.38,0,0,1-.54-.92,3.26,3.26,0,0,1,.24-1.18,1.59,1.59,0,0,0,.07-.2l.21,0a2.08,2.08,0,0,1,.85.22c7.86,9.66,19.1,11.4,30.89,12.44,8.85.79,15.85,0,22.06-2.47a23.47,23.47,0,0,0,13.25-13,3.77,3.77,0,0,1,1.05-1.13l.13-.11a2.4,2.4,0,0,0,.11.23c.24.51.52,1.1.42,1.42a17.17,17.17,0,0,1-2.21,4.53c-4.74,7.16-12,11.14-22.19,12.18C418,136.92,416.17,137,414.38,137Zm-57.18-4.8c-1.3,1.75-2.81,3.58-4.73,5.77a10.18,10.18,0,0,1-1.18,1.06,11.76,11.76,0,0,0-1.19,1.05c-5.52,5.86-12.75,8.67-22.76,8.85-1.14,0-2.28,0-3.42,0h-1.63c-10.46.75-20.17-2.85-29.56-6.35l-1.6-.59a48.11,48.11,0,0,1-19.39-12.78,21.5,21.5,0,0,1-3.21-5.57l-.18-.39a2.7,2.7,0,0,1,.23-1.37l.09-.25.22.11c.46.24,1,.52,1.08.78,1.84,5,5.46,8.26,10.33,11.58,9.19,6.27,19.85,10.29,32.59,12.31,8.62,1.36,18.72,2.15,28.33-2.33a22.77,22.77,0,0,0,5.81-3.76c1.94-1.8,3.75-3.78,5.5-5.7l2.34-2.54a3.11,3.11,0,0,0,.29-.33,2.08,2.08,0,0,1,.66-.6,2.11,2.11,0,0,1,1.3-.07A1.43,1.43,0,0,1,357.2,132.24ZM136,80l-1,1.19c-1.33,1.63-2.71,3.32-4.16,4.88a2.33,2.33,0,0,1-1.1.28l-.27,0c0-.07,0-.15,0-.22a2.53,2.53,0,0,1-.09-.93c5.77-7.74,10.85-13.85,19.27-16.16a38.31,38.31,0,0,1,6.51-1c1-.09,2-.18,3-.31l3.19.55c3.11.52,6.16,1,9.21,1.58l.2,0a2.88,2.88,0,0,1,1.27.4,8.82,8.82,0,0,1,1.22,1.45l.06.08-.17,0a3.28,3.28,0,0,1-1.6.2c-8.82-2.47-15.63-2.87-22.09-1.3C144.53,72,140.14,75,136,80ZM32.83,104.46a8.54,8.54,0,0,1,0,2,3.08,3.08,0,0,1-.6,1.14l-.09.12-.16-.14a2.76,2.76,0,0,1-.91-1,8.16,8.16,0,0,1-.27-2.21c0-.35,0-.69,0-1,.06-6.77,2.78-10.18,10.37-13a17,17,0,0,1,4.52-1,3.87,3.87,0,0,1,1.64.45l.17.07-.11.12A3.79,3.79,0,0,1,46.13,91c-1.13.43-2.31.8-3.46,1.15a40.59,40.59,0,0,0-4.26,1.48c-3.87,1.66-5.78,4.91-5.66,9.66C32.76,103.7,32.8,104.08,32.83,104.46Z"/><path d="M483.19,146.64l.26.06c.94.2,1.84.42,2.7.63a30.67,30.67,0,0,0,5.17,1l.88.07a52.73,52.73,0,0,0,11.09.05c8.1-1.14,13.55-4.87,16.64-11.42,2.08-4.39,1.78-8.85,1.22-13.8a16.11,16.11,0,0,0-16-14.39h-.1c-2.45,0-4.88.16-7.45.32l-3.6.22-.53,0v-.52c0-.3,0-.62,0-1a24,24,0,0,0,0-2.53C493,99.17,491,95.26,487,92.72c-7-4.45-14.63-4.91-22.82-1.37A34.56,34.56,0,0,0,460,93.61c-.67.4-1.35.81-2.05,1.2l-.63.36-.11-.72c-.14-.9-.29-1.78-.42-2.64-.29-1.79-.56-3.51-.8-5.23A24.84,24.84,0,0,0,436.8,66.22c-8.51-1.71-14.93-1.44-20.82.88a21.13,21.13,0,0,1-3.29.91c-.5.11-1,.22-1.51.35l-.57.15-.05-.59q-.09-1-.15-1.83c-.09-1.19-.17-2.21-.35-3.23-.86-4.82-3.17-6.81-8.25-7.08-3.54-.19-6.88.74-10.85,3l-.7.4-.12-2.2c-.05-.82-.09-1.55-.12-2.28-.42-9.87-3.17-17.11-8.65-22.78-2.37-2.44-5-4.73-8.57-5-8.92-.56-16.43,1.07-23,5-2.25,1.35-4.5,2.81-6.67,4.23l-3,2-.61.39-.15-.71c-.17-.82-.31-1.65-.45-2.48a29.15,29.15,0,0,0-1.22-5.2c-2.36-6.36-5.5-13.7-10.9-19.89-4.1-4.71-8.45-7.45-13.69-8.63a76.55,76.55,0,0,0-26.6-.89,28.79,28.79,0,0,0-19.88,11c-.93,1.19-1.92,2.28-3,3.43l-1.43,1.59-.28.32-.36-.23c-7-4.48-15.07-6.48-24.66-6.13-12.49.45-21.86,6-27.85,16.38-1.89,3.27-3.57,6.57-5.35,10.06-.79,1.57-1.59,3.14-2.42,4.72l-.22.42-.43-.2-1.13-.53c-.91-.43-1.85-.87-2.83-1.22l-.74-.26a15.34,15.34,0,0,0-4.13-1.1,71.91,71.91,0,0,0-10,0c-6.89.54-11.54,3.9-13.8,10-.25.67-.52,1.33-.79,2l-.61,1.5-.52-.42c-1-.75-1.88-1.53-2.79-2.29a53.71,53.71,0,0,0-5.88-4.5c-7.18-4.5-15.6-6.3-26.48-5.65-6.5.38-11.23,1.59-15.33,3.92a24.46,24.46,0,0,0-12.72,18c-.3,1.86-1,3.06-3.44,2.86a46.71,46.71,0,0,0-4.88,0l-1.23,0a11.63,11.63,0,0,0-10.83,6.6,23.6,23.6,0,0,0-1.42,3.82c-.2.63-.4,1.27-.62,1.92l-.14.38L80,77c-1-.13-2.08-.29-3.13-.44a66.17,66.17,0,0,0-7.07-.79c-1.73-.07-3.47-.15-5.2-.24a152.61,152.61,0,0,0-18.89-.14c-9.59.73-17.67,5.78-25.78,11.34a14.58,14.58,0,0,0-6.73,12.77c.07,1.82-1.19,2.15-2.11,2.38-3.18.82-6.21,1.76-8.29,4.29A11.45,11.45,0,0,0,1,118.35,16.79,16.79,0,0,0,11.8,128.43l2,0c4.55.12,8.85.22,12.27-3.22l.32-.32.35.28c.57.47,1.11,1,1.63,1.42a20.64,20.64,0,0,0,3.24,2.53c8,4.68,17.23,6.58,27.39,5.65,5.21-.48,9.2-2.09,12.18-4.92,1-.9,1.83-1.89,2.68-2.86L75,125.74l.48-.52.33.62c.41.77.75,1.52,1.07,2.25A11,11,0,0,0,79,131.64l1.16,1.1a147.48,147.48,0,0,0,14.32,12.55c8.39,6.14,18.81,8.48,28,10.55,10.64,2.4,21.48,2.24,32.56,1.85s20.51-3.27,28.8-8.8c1.48-1,2.9-2.06,4.39-3.19l2.14-1.6.47-.34.27.5c2.71,5,6.33,10.44,12.7,13,5.46,2.21,11.47,2.31,17.87.31l.36-.11.21.32c.67,1.05,1.28,2.08,1.88,3.07A56.71,56.71,0,0,0,228,166.7c3.74,4.76,8.46,10,15.16,12.79,9,3.77,16.68,5.57,24.09,5.69a50.23,50.23,0,0,0,25.94-6.54,2.37,2.37,0,0,1,1.12-.25,4,4,0,0,1,1.65.37c1.62.79,3.23,1.68,4.79,2.55a48.22,48.22,0,0,0,9.39,4.39,125.55,125.55,0,0,0,36.05,5.35c7.39,0,12.86-1.69,17.2-5.25a110,110,0,0,0,8.29-7.68,3.59,3.59,0,0,1,3.56-1.39c8.13,1.65,13.94-2.83,18.08-6.92a11.64,11.64,0,0,0,3.35-8.1c0-.87,0-1.74,0-2.61,0-.41,0-.81,0-1.22v-.41l.4-.08a.86.86,0,0,1,.57,0,8.14,8.14,0,0,1,1.37.48c8.93,4.46,19.31,6.26,31.75,5.54,5.72-.34,12.27-1.24,17.55-5.41a59.83,59.83,0,0,0,7.1-7c.64-.71,1.28-1.42,1.93-2.12a2.78,2.78,0,0,1,3.17-1.09c2.52.67,5.27,1.27,8.42,1.85,6.52,1.19,10.87.35,14.11-2.72Zm-1.57-.5c-.8.23-1.56.52-2.29.8a10.64,10.64,0,0,1-4.46,1,119.5,119.5,0,0,1-14.62-2.38,3.38,3.38,0,0,0-3.85,1.17L455.24,148a77.09,77.09,0,0,1-8.75,8.77c-4.25,3.43-9.79,4.27-15.14,4.66-12.53.92-23.36-1-33.1-6-.45-.23-.89-.48-1.33-.74s-1.09-.63-1.65-.89a1.43,1.43,0,0,0-1.45,0,1.42,1.42,0,0,0-.43,1.37,8.33,8.33,0,0,0,.44,1.6l.18.49c1.63,4.91.14,9.62-4.2,13.25s-13,8.2-25.24.12c-.42-.27-.82-.56-1.22-.85a17.87,17.87,0,0,0-2.53-1.61,2.71,2.71,0,0,0-1.34,0l-.21,0,.06.24c.11.44.24,1,.45,1.14,2.42,1.64,4.92,3.2,7.56,4.84l2.81,1.76.54.34-.45.44c-.6.6-1.2,1.23-1.82,1.86a49.86,49.86,0,0,1-4.44,4.26,27.06,27.06,0,0,1-17.87,6.06h-.67a138.53,138.53,0,0,1-34.76-5.2,37.08,37.08,0,0,1-14.12-7.21c-1.51-1.29-2.65-1.31-4.19-.09-4,3.17-8.82,4.3-13.52,5.39l-1,.24c-8.11,1.89-16.75,1.35-25.68-1.61A69.82,69.82,0,0,1,240,175.45c-5.54-3.1-9.29-8-13-13.26a16.12,16.12,0,0,1-2.17-5.4,2.21,2.21,0,0,0-.78-1.44,2,2,0,0,0-1.51,0c-.62.18-1.24.33-1.87.48l-1,.25c-11.89,3.06-21.32-1.32-26.55-12.36-.73-1.53-1.28-2.49-1.78-2.6s-1.4.56-2.65,1.67c-9.22,8.13-20.54,12.5-33.66,13-11,.39-21.67.55-32.14-1.81-9.08-2-19.38-4.36-27.73-10.5a129.2,129.2,0,0,1-11.31-9.78l-3.09-2.88a5.25,5.25,0,0,1-1.82-5.37,5.67,5.67,0,0,0-.43-2.84,3,3,0,0,0-1.17-1.69h0a3.57,3.57,0,0,0-1.42,1c-1.4,1.46-2.69,3-3.86,4.43-3.27,4-8,6.25-14,6.69a43.47,43.47,0,0,1-24.93-5.19,17.83,17.83,0,0,1-4.26-3.62l-.15-.16c-.92-1-1.48-1.63-1.85-1.65s-1,.53-2.06,1.44c-3.88,3.36-9,4.07-14.13,2C5.1,123.58,2,119.12,2.05,113.6c.08-4.28,2-7.18,5.74-8.62a24,24,0,0,1,4.89-1.45c1.79-.28,2.46-1.09,2.37-2.89-.29-6.11,2.56-10.76,8.69-14.21,1-.56,2-1.14,3-1.71,4.81-2.81,9.79-5.7,15.54-6.78l1.08-.2a25,25,0,0,1,5.78-.68c7.68.27,15.83.68,26.42,1.34a23.27,23.27,0,0,1,5.14,1.13l.28.09c1,.31,1.69.36,1.93.15s.32-.56.15-1.76c-.42-2.87.39-5.47,2.54-8.16A8.61,8.61,0,0,1,92,66.4c2.87-.17,5.76-.19,8.47-.2h.11c3.53,0,3.53,0,4-3.48A22.29,22.29,0,0,1,115.1,46.17a30.22,30.22,0,0,1,10.75-4c12.1-2,22-.55,30.15,4.48a36.74,36.74,0,0,1,5.82,4.81c.92.88,1.87,1.78,2.84,2.61l.26.23c.66.57,1.48,1.27,2.1,1.28,0,0,.42-.16,1.28-2,.39-.86.72-1.77,1-2.65s.59-1.63.94-2.43A12.21,12.21,0,0,1,180.57,41c6.93-.76,14.25-1.09,20.68,3.8a1.26,1.26,0,0,0,1.07.35c.4-.13.78-.71,1.07-1.64A61.33,61.33,0,0,1,214,23.31a27.7,27.7,0,0,1,21.13-10.57,51.32,51.32,0,0,1,13.7,1,49.16,49.16,0,0,1,10.89,4.44l1.12.56c1.7.85,2.27.71,3.23-.76C270.78,7.59,280,2.26,291.45,2.15c2.2,0,4.43,0,6.59,0,2,0,4,0,5.95,0h.23c11.32,0,20.08,5.38,26,16,3.4,6.06,6.91,13.37,7.19,21.66a3.33,3.33,0,0,0,.75,1.92,3.46,3.46,0,0,0,2.28-.89c6.78-6.14,13.52-9.8,20.62-11.19A37,37,0,0,1,372.8,29c2,.25,4.36,1.63,6.95,4.09,4.92,4.67,7.54,10.9,8.24,19.63.13,1.53.17,3.09.22,4.6v.21c.06,1.89.42,3,1.07,3.4s1.79.05,3.39-.89a15.73,15.73,0,0,1,8.72-2.38,7.45,7.45,0,0,1,6.31,3.86,7.58,7.58,0,0,1-.06,7.49,2.88,2.88,0,0,1-.26.35c-.06.08-.15.19-.17.23l0,.39a2.67,2.67,0,0,0,0,1.36,2.93,2.93,0,0,0,1.25,0l1.85-.5a73.37,73.37,0,0,0,7.49-2.28c8-3.1,15.85-1.4,23.18.6,4.05,1.11,6.59,4.6,9.05,8l.5.68c3.43,4.67,4,10.11,4.49,15.37.07.75.15,1.49.23,2.23a27.8,27.8,0,0,0,.51,2.87c0,.2.09.41.13.61l.47-.3a24.52,24.52,0,0,0,2.23-1.54c7.69-6.28,16-7.77,24.6-4.41,5.1,2,8,6.22,8.44,12.59a20.8,20.8,0,0,1,0,3.06c0,.37-.05.73-.06,1.1-.05,1.28.16,2.09.63,2.46s1.43.39,2.81,0c5.86-1.69,13.41-2.9,19.81,2.82a12.12,12.12,0,0,1,3.42,4.75c2.54,7.62,2.24,13.56-.94,18.7a18,18,0,0,1-13.75,8.4,65.88,65.88,0,0,1-10.13,0l-2.25-.11c-5.24-.22-9-3.29-12.38-6.42a3.26,3.26,0,0,0-1.49-.52l-.2,0c0,.08,0,.16,0,.24a3.24,3.24,0,0,0,.38,1.59,21.3,21.3,0,0,0,2.71,2.56c.51.43,1.07.91,1.67,1.45l.67.59Z"/><path d="M323.92,149c1.14,0,2.28,0,3.42,0,10-.18,17.24-3,22.76-8.85a11.76,11.76,0,0,1,1.19-1.05,10.18,10.18,0,0,0,1.18-1.06c1.92-2.19,3.43-4,4.73-5.77a1.43,1.43,0,0,0-.08-1.11,2.11,2.11,0,0,0-1.3.07,2.08,2.08,0,0,0-.66.6,3.11,3.11,0,0,1-.29.33l-2.34,2.54c-1.75,1.92-3.56,3.9-5.5,5.7a22.77,22.77,0,0,1-5.81,3.76c-9.61,4.48-19.71,3.69-28.33,2.33-12.74-2-23.4-6-32.59-12.31-4.87-3.32-8.49-6.56-10.33-11.58-.1-.26-.62-.54-1.08-.78l-.22-.11-.09.25a2.69,2.69,0,0,0-.23,1.37l.18.39a21.5,21.5,0,0,0,3.21,5.57A48.11,48.11,0,0,0,291.13,142l1.6.59c9.39,3.5,19.1,7.1,29.56,6.35h1.63Z"/><path d="M411.86,137.14l2.52-.1c1.79-.06,3.63-.12,5.43-.31,10.19-1,17.45-5,22.19-12.18a17.17,17.17,0,0,0,2.21-4.53c.1-.32-.18-.91-.42-1.42a2.4,2.4,0,0,1-.11-.23l-.13.11a3.77,3.77,0,0,0-1.05,1.13,23.47,23.47,0,0,1-13.25,13c-6.21,2.47-13.21,3.26-22.06,2.47-11.79-1-23-2.78-30.89-12.44a2.08,2.08,0,0,0-.85-.22l-.21,0a1.59,1.59,0,0,1-.07.2,3.26,3.26,0,0,0-.24,1.18,2.38,2.38,0,0,0,.54.92c.1.13.2.25.29.38a18.25,18.25,0,0,0,8.39,6.37c8.11,3.22,17.6,6.58,27.69,5.72Z"/><path d="M129.54,86.37l.27,0a2.33,2.33,0,0,0,1.1-.28c1.45-1.56,2.83-3.25,4.16-4.88L136,80c4.1-5,8.49-8,13.41-9.18,6.46-1.57,13.27-1.17,22.09,1.3a3.28,3.28,0,0,0,1.6-.2l.17,0-.06-.08A8.82,8.82,0,0,0,172,70.33a2.88,2.88,0,0,0-1.27-.4l-.2,0c-3.05-.54-6.1-1.06-9.21-1.58l-3.19-.55c-1,.13-2,.22-3,.31a38.31,38.31,0,0,0-6.51,1c-8.42,2.31-13.5,8.42-19.27,16.16a2.53,2.53,0,0,0,.09.93C129.51,86.22,129.53,86.3,129.54,86.37Z"/><path d="M38.41,93.66a40.59,40.59,0,0,1,4.26-1.48c1.15-.35,2.33-.72,3.46-1.15A3.79,3.79,0,0,0,47.37,90l.11-.12-.17-.07a3.87,3.87,0,0,0-1.64-.45,17,17,0,0,0-4.52,1c-7.59,2.82-10.31,6.23-10.37,13,0,.33,0,.67,0,1a8.16,8.16,0,0,0,.27,2.21,2.76,2.76,0,0,0,.91,1l.16.14.09-.12a3.08,3.08,0,0,0,.6-1.14,8.54,8.54,0,0,0,0-2c0-.38-.07-.76-.08-1.14C32.63,98.57,34.54,95.32,38.41,93.66Z"/></g><g id="_06" data-name="06"><path class="cls-1" d="M649,120.24c-6.78-5.83-15.62-8.22-27-7.28a26.52,26.52,0,0,0-5.81,1.36c-.78.25-1.52.49-2.23.67l-.4.11,1.36,15.49h.46l1.15,0c.9,0,1.82,0,2.74,0a11,11,0,0,1,7.83,4.12,2.49,2.49,0,0,1,.18,1.35v.25l-.12,0a4.47,4.47,0,0,1-1.42-.45,18.72,18.72,0,0,1-1.82-1.23,17.85,17.85,0,0,0-2.53-1.62,7,7,0,0,0-8.55,2.07,2.19,2.19,0,0,1-1,.48l-.23.08c0-.08-.07-.15-.11-.22a2,2,0,0,1-.36-1,24,24,0,0,1,.63-2.46,19.48,19.48,0,0,0,.77-3.23,26.89,26.89,0,0,0-2-13.55c-4.58-11.3-11.19-18.83-20.21-23-8.19-3.78-17.55-6.12-28.61-7.14-5.84-.53-10.49.52-14.61,3.31a2.65,2.65,0,0,1-2.46.56c-.72-.34-1.19-1.37-1.31-2.88l-.06-.9c-.14-2-.28-4.07-1.26-5.68-2.56-4.19-5.2-8.52-8.7-11.93-9.66-9.42-21.76-15.34-37-18.08-10.92-2-21.76-2.06-33.79-2a37.88,37.88,0,0,0-15,2.8,39.19,39.19,0,0,1-4.88,1.62c-11.18,3.06-19.83,8.16-26.42,15.59a76.45,76.45,0,0,0-17.89,36.39c-.21,1-.47,2.06-.94,2.28s-1.1-.06-2.28-.72a49.29,49.29,0,0,0-23.42-6c-12-.3-21.29,1.52-29.26,5.72a118.72,118.72,0,0,0-14,8.86c-5.47,3.91-8.36,9.7-10.85,15.29l-.22.5.51.18,2.33.78a43.79,43.79,0,0,1,4.76,1.76c2.12,1,4.25,2.08,6.3,3.13,1.85,1,3.75,1.92,5.66,2.83a8.16,8.16,0,0,0,3.6.6c2.14-.08,4.28-.21,6.43-.33,3.14-.18,6.39-.37,9.58-.42a67.45,67.45,0,0,1,7.78.51l1.89.2a54.76,54.76,0,0,1,20.23,5.58c.72.38,1.46.72,2.2,1.07a31.72,31.72,0,0,1,3.24,1.64,2.76,2.76,0,0,1,.78,1.21,1.86,1.86,0,0,1,.1.2l-.14,0a3.29,3.29,0,0,1-1.4.17,11.57,11.57,0,0,1-3-1.28,49.43,49.43,0,0,0-19-6.33c-5.39-.56-11-1-17.2-1.34-4.25-.23-9.75-.19-14.71,2.15-3.68,1.75-7.28,3.79-10.76,5.77-1.51.86-3,1.72-4.54,2.56a2.26,2.26,0,0,0-.34.23c-.07.06-.18.14-.16.15h-.26a3.34,3.34,0,0,1-1.12-.17,2,2,0,0,1,.24-1.26,3.23,3.23,0,0,1,1.19-1c3.42-2,6.85-4.07,10.38-6.17L335.8,140l-2.39-1.23-5.35-2.74a45.6,45.6,0,0,0-32.92-3.73c-5.79,1.46-12.45,3.39-18.16,7.79-10.5,8.08-13,22.29-5.74,33A5.17,5.17,0,0,1,272,178c-.43,1.31-.82,2.65-1.19,4q-.36,1.29-.75,2.58c-2.47,8.08-2.2,15.06.85,21.34,1.72,3.56,3.6,7.37,5.63,11.13,3.64,6.74,9.15,10.64,16.37,11.6a125.19,125.19,0,0,0,13.83,1.06c6.83.11,12.75-2.9,17.61-5.86l.37-.23-.17-.4c-.23-.54-.47-1-.7-1.53a19.1,19.1,0,0,1-1.23-3,8.06,8.06,0,0,1-.13-3.49,3.14,3.14,0,0,1,.89-.53l.27-.13c0,.06,0,.11.08.16a5.55,5.55,0,0,1,.55,1.27,4.83,4.83,0,0,1,.1,1,4.31,4.31,0,0,0,.24,1.63c3.64,8.45,7.84,17.29,15.64,24.33,6.08,5.49,11.72,9.12,19.51,8.88a5.22,5.22,0,0,1,3.3,1.56c4,4,7.79,6.42,12,7.51A47.14,47.14,0,0,0,387,262.48a38.7,38.7,0,0,0,11-1.56c5-1.49,11.14-3.95,14.08-9.85,2.11-4.23,5.28-5.15,9.87-6.07,14.9-3,22.95-12.29,23.29-26.94a25.47,25.47,0,0,1,1.09-5.87c.06-.23.47-.51.83-.76l.16-.11.1.17a3,3,0,0,1,.56,1.27,5.92,5.92,0,0,1-.31,1.73c-.09.34-.19.68-.25,1a19.14,19.14,0,0,0,2.39,14.3,12.14,12.14,0,0,0,11.58,5.89c1.92-.08,3,.76,3.67,2.93.35,1.09,1.38,3.27,2.81,3.7a18.69,18.69,0,0,0,10.08-.14l.73-.19-.46-.6-1.25-1.65c-.92-1.19-1.78-2.31-2.57-3.46a9.39,9.39,0,0,1-1.42-2.81,1.52,1.52,0,0,1,.57-.95,1.62,1.62,0,0,1,1.05.53c1.15,1.49,2.28,3.12,3.58,5.14,2.8,4.34,6.87,7.24,10.91,7.75a11,11,0,0,0,9.09-3.24,1.3,1.3,0,0,1,1-.46c.45.05.93.48,1.53,1.36l.34.49a65.94,65.94,0,0,0,5.37,7.14c4.47,4.91,14,6.07,19.58,2.37a22.36,22.36,0,0,0,9.3-13.15c.57-2.06,1.32-2.69,3.35-2.83,5.52-.38,10.51-2.66,15.26-7,3.48-3.16,5.1-7.06,5.1-12.28a4.31,4.31,0,0,1,1.82-2.75c3.59-2.57,7.34-4.9,10.21-6.64a3,3,0,0,1,1.43-.15h.22l-.06.23c-.12.51-.26,1.09-.52,1.27a91.55,91.55,0,0,1-8.79,5.88,5.09,5.09,0,0,0-2.8,4.44c-.27,2.41-.57,5.13-1.84,7a25.43,25.43,0,0,1-16.24,11.21c-.51.11-1,.25-1.63.42l-1,.28-.75.2.48.6c.54.67,1,1.33,1.52,2a38.29,38.29,0,0,0,3,3.65c7.17,7.29,21.17,9.36,31.21,4.62,7.89-3.73,12.82-8.76,15.06-15.38a44.25,44.25,0,0,0,1.72-9.15c.08-.68.15-1.36.24-2,.52-4.15-.39-8.17-1.27-12.07q-.29-1.2-.54-2.4c-.26-1.23-.24-2,0-2.32s.94-.49,2.08-.46a39.79,39.79,0,0,0,18.37-4.36c8.4-4,13.07-10.71,13.9-19.81l.16-1.78c.4-4.45.8-8.89,1.16-13.34a1.84,1.84,0,0,1,.52-1.28,1.52,1.52,0,0,1,1.14-.27,19.9,19.9,0,0,1,2.91.56l.76.18c.4.1.81.23,1.21.36a8,8,0,0,0,2.5.54,37.51,37.51,0,0,0,6.63-.58c7.62-1.39,12.82-5.8,15.45-13.12,1.24-3.46,1.22-7,1.21-10.39,0-1.21,0-2.45,0-3.67C658.82,132.56,655.6,125.94,649,120.24ZM539.22,106.65c-2.61-2-6.19-4.44-10.76-5.06a14.83,14.83,0,0,0-2.08-.14c-3.91,0-7.42,1.45-10.84,2.87l-.2.08c-.33.13-.65.3-1,.46a6.82,6.82,0,0,1-1.62.66,1.5,1.5,0,0,1-1.08-.41,1.46,1.46,0,0,1,.36-1,34.89,34.89,0,0,1,13.67-4.69c8.4.68,15.36,4.63,20.68,11.73,4,5.39,5.61,10,5.1,14.91v.19a7.56,7.56,0,0,1-.53,2.49,2.1,2.1,0,0,1-.87.53l-.21.09-.14-.2c-.19-.29-.45-.68-.42-.86C550.64,119.91,547.44,113,539.22,106.65Zm-81.74-.16-.94.4c-3.31,1.4-6.73,2.85-8.64,6.52a2.41,2.41,0,0,1-1.39,1.3,2.53,2.53,0,0,1-1.94-.36c-6-3.38-12.77-4.77-21.28-4.35-7.25.35-15.48.75-22.51,5.14a51.89,51.89,0,0,0-9.47,7.41,43.07,43.07,0,0,0-4.42,5.59c-.8,1.14-1.62,2.31-2.49,3.41a3.16,3.16,0,0,1-1.31.7l-.21.08a1.85,1.85,0,0,0,0-.23,2.61,2.61,0,0,1,0-1.36c8.24-13.88,19.25-21.13,33.68-22.15l3.91-.27,2-.13h0q2.1-.15,4.11-.15a38.39,38.39,0,0,1,17.87,4,2.48,2.48,0,0,0,2.6-.69c2.23-3.69,6.08-5.11,9.82-6.48l.11,0a3,3,0,0,1,1.6.32l.25.09-.09.12A3.7,3.7,0,0,1,457.48,106.49Z"/><path d="M658,157c4.28-11.51,3.76-21.56-1.56-30.72-5-8.67-12.85-13.41-24.56-14.91-6.61-.84-13-1.31-18.67,2.27l-.29.19-.27-.21-.32-.22a1.13,1.13,0,0,1-.42-.39c-.15-.27-.28-.55-.42-.84l-.19-.4c-5.38-11-12.47-18.22-21.67-22a91.74,91.74,0,0,0-29.11-6.64c-4.6-.29-8.17.32-11.23,1.9-.68.35-1.35.71-2,1.07l-1.47.79-.14-.65c-.18-.81-.3-1.64-.42-2.44A12.07,12.07,0,0,0,544,79.28l-.73-1.21c-2.54-4.2-5.17-8.55-8.62-11.89-10.12-9.77-23.16-16.05-38.76-18.68-9.94-1.68-19.9-2-31.8-1.88-5.45,0-11.24.39-16.69,2.7A46.74,46.74,0,0,1,442.64,50c-1.28.38-2.6.79-3.86,1.27-.88.34-1.78.66-2.67,1a46.42,46.42,0,0,0-8.49,3.73c-14.48,8.92-24.09,22.26-29.37,40.8-.42,1.45-.81,2.91-1.24,4.5l-.81,3-.58-.39c-9.52-6.37-20.18-6.31-30.49-6.26h-2a21.67,21.67,0,0,0-4,.22,64.73,64.73,0,0,0-24.39,9.41C329,111,323,115,319.47,121.38c-.45.81-.88,1.63-1.31,2.46-.71,1.37-1.45,2.78-2.29,4.12a3.25,3.25,0,0,1-2.69,1.43c-11.09-1.5-22,.66-33.4,6.62-5.24,2.75-8.9,6.1-11.18,10.24-4.09,7.44-3.26,15.38-2.07,22.87a2.54,2.54,0,0,0,.57,1.36c4.31,4,3.09,8.68,1.55,12.27a6.88,6.88,0,0,0-.33,1.11l-.15.57c-1.63,5.69-2.93,12.38-.24,18.8a135.18,135.18,0,0,0,8.42,17,21.3,21.3,0,0,0,6.85,6.73c8.84,5.6,19,5.07,27.82,4.13,3.27-.34,6.42-1.62,9.76-3,1.53-.61,3.1-1.25,4.71-1.8l.45-.16.18.45c2.3,5.88,6.33,11.39,13.06,17.84,5.11,4.9,11,9.44,19.29,9.19h.07c1.33,0,2.71,1,3.73,1.7s1.81,1.39,2.65,2.11,1.74,1.46,2.66,2.11c6.14,4.29,13.18,4.8,19.89,4.72,12.5-.15,20.77-3.94,26-11.91,2.36-3.57,5.06-4.71,8.94-5.48,11.48-2.26,18.94-8.1,22.81-17.85a1.67,1.67,0,0,1,.45-.58l.18-.18.48-.53.34.63c3.45,6.42,8,9.52,13.42,9.14a3,3,0,0,1,3.37,2.65c.72,3.08,2.81,4.59,6.17,4.55,1.84,0,3.71-.21,5.52-.37,1.23-.11,2.46-.23,3.69-.3a3.88,3.88,0,0,1,2.3.54c6,4.2,11.54,4.52,16.42.94a3.34,3.34,0,0,1,.62-.33l.33-.15.4-.2.24.38c5.16,8.06,10.53,13.26,20,12.42,9.82-.87,14-7.7,18.08-15.87l.36-.73.49.65c.35.48.67,1,1,1.4a13.6,13.6,0,0,0,1.87,2.35c.67.63,1.34,1.3,2,2,1.83,1.86,3.73,3.78,5.93,4.69,9.83,4.05,18.63,4.19,26.91.41,8.59-3.92,14-9.44,16.45-16.89a39.37,39.37,0,0,0,.85-22.49c-.21-.84-.36-1.69-.48-2.37,0-.27-.09-.52-.13-.73l-.09-.48.47-.1c1.5-.33,3-.63,4.45-.91a77.07,77.07,0,0,0,9.13-2.18c12-3.93,18.61-11.13,20.08-22,.36-2.65.57-5.36.77-8,.12-1.46.23-2.93.37-4.39.08-.82.21-1.63.34-2.4,0-.35.11-.68.16-1l.08-.58.55.17c.59.18,1.14.38,1.67.58a9.06,9.06,0,0,0,2.92.75,51,51,0,0,0,9.16-.63C650.24,167.51,655.57,163.42,658,157Zm-16.13,10.09a37.51,37.51,0,0,1-6.63.58,8,8,0,0,1-2.5-.54c-.4-.13-.81-.26-1.21-.36l-.76-.18a19.9,19.9,0,0,0-2.91-.56,1.54,1.54,0,0,0-1.14.27,1.84,1.84,0,0,0-.52,1.28c-.36,4.45-.76,8.89-1.16,13.34l-.16,1.78c-.83,9.1-5.5,15.77-13.9,19.81a39.79,39.79,0,0,1-18.37,4.36c-1.14,0-1.8.12-2.08.46s-.31,1.09,0,2.32q.25,1.2.54,2.4c.88,3.9,1.79,7.92,1.27,12.07-.09.68-.16,1.36-.24,2a44.25,44.25,0,0,1-1.72,9.15c-2.24,6.62-7.17,11.65-15.06,15.38-10,4.74-24,2.67-31.21-4.62a38.29,38.29,0,0,1-3-3.65c-.48-.63-1-1.29-1.52-2l-.48-.6.75-.2,1-.28c.61-.17,1.12-.31,1.63-.42a25.43,25.43,0,0,0,16.24-11.21c1.27-1.92,1.57-4.64,1.84-7a5.09,5.09,0,0,1,2.8-4.44,91.55,91.55,0,0,0,8.79-5.88c.26-.18.4-.76.52-1.27l.06-.23h-.22A3,3,0,0,0,571,209c-2.87,1.74-6.62,4.07-10.21,6.64a4.31,4.31,0,0,0-1.82,2.75c0,5.22-1.62,9.12-5.1,12.28-4.75,4.3-9.74,6.58-15.26,7-2,.14-2.78.77-3.35,2.83a22.36,22.36,0,0,1-9.3,13.15c-5.59,3.7-15.11,2.54-19.58-2.37A65.94,65.94,0,0,1,501,244.1l-.34-.49c-.6-.88-1.08-1.31-1.53-1.36a1.3,1.3,0,0,0-1,.46,11,11,0,0,1-9.09,3.24c-4-.51-8.11-3.41-10.91-7.75-1.3-2-2.43-3.65-3.58-5.14a1.62,1.62,0,0,0-1.05-.53,1.52,1.52,0,0,0-.57.95,9.58,9.58,0,0,0,1.41,2.81c.8,1.15,1.66,2.27,2.58,3.46l1.26,1.65.45.6-.73.19a18.69,18.69,0,0,1-10.08.14c-1.43-.43-2.46-2.61-2.81-3.7-.68-2.17-1.75-3-3.67-2.93a12.14,12.14,0,0,1-11.58-5.89,19.14,19.14,0,0,1-2.39-14.3c.06-.34.16-.68.25-1a5.92,5.92,0,0,0,.31-1.73,3,3,0,0,0-.56-1.27l-.1-.17-.16.11c-.36.25-.77.53-.83.76a25.47,25.47,0,0,0-1.09,5.87c-.34,14.65-8.39,24-23.29,26.94-4.59.92-7.76,1.84-9.87,6.07-2.94,5.9-9.07,8.36-14.08,9.85a38.7,38.7,0,0,1-11,1.56,47.14,47.14,0,0,1-11.88-1.58c-4.21-1.09-8-3.47-12-7.51a5.22,5.22,0,0,0-3.3-1.56c-7.79.24-13.43-3.39-19.51-8.88-7.8-7-12-15.88-15.64-24.33a4.31,4.31,0,0,1-.24-1.63,4.83,4.83,0,0,0-.1-1,5.55,5.55,0,0,0-.55-1.27c0-.05-.05-.1-.08-.16l-.27.13a3.14,3.14,0,0,0-.89.53,8.06,8.06,0,0,0,.13,3.49,19.1,19.1,0,0,0,1.23,3c.23.49.47,1,.7,1.53l.17.4-.37.23c-4.86,3-10.72,5.95-17.61,5.86a125.19,125.19,0,0,1-13.83-1.06c-7.22-1-12.73-4.86-16.37-11.6-2-3.76-3.91-7.57-5.63-11.13-3.05-6.28-3.32-13.26-.85-21.34q.39-1.29.75-2.58c.37-1.3.76-2.64,1.19-4a5.17,5.17,0,0,0-.77-4.89c-7.23-10.75-4.76-25,5.74-33,5.71-4.4,12.37-6.33,18.16-7.79a45.6,45.6,0,0,1,32.92,3.73l5.35,2.74L335.8,140,332,142.28c-3.53,2.1-7,4.12-10.38,6.17a3.23,3.23,0,0,0-1.19,1,1.9,1.9,0,0,0-.24,1.26,3.34,3.34,0,0,0,1.12.17h.26s.09-.09.16-.15a2.26,2.26,0,0,1,.34-.23c1.52-.84,3-1.7,4.54-2.56,3.48-2,7.08-4,10.76-5.77,5-2.34,10.46-2.38,14.71-2.15,6.18.34,11.81.78,17.2,1.34a49.43,49.43,0,0,1,19,6.33,11.57,11.57,0,0,0,3,1.28,3.29,3.29,0,0,0,1.4-.17l.14,0a1.86,1.86,0,0,0-.1-.2,2.76,2.76,0,0,0-.78-1.21,31.72,31.72,0,0,0-3.24-1.64c-.74-.35-1.48-.69-2.2-1.07A54.76,54.76,0,0,0,366.19,139l-1.89-.2a65,65,0,0,0-7.78-.51c-3.19.05-6.44.24-9.58.42-2.15.12-4.29.25-6.43.33a8.16,8.16,0,0,1-3.6-.6c-1.91-.91-3.81-1.88-5.66-2.83-2.05-1-4.18-2.14-6.3-3.13a43.79,43.79,0,0,0-4.76-1.76l-2.33-.78-.51-.18.22-.5c2.49-5.59,5.38-11.38,10.85-15.29a118.72,118.72,0,0,1,14-8.86c8-4.2,17.26-6,29.26-5.72a49.29,49.29,0,0,1,23.42,6c1.18.66,1.9.89,2.28.72s.73-1.27.94-2.28a76.45,76.45,0,0,1,17.89-36.39c6.59-7.43,15.24-12.53,26.42-15.59a39.19,39.19,0,0,0,4.88-1.62,37.88,37.88,0,0,1,15-2.8c12-.08,22.87,0,33.79,2,15.22,2.74,27.32,8.66,37,18.08,3.5,3.41,6.14,7.74,8.7,11.93,1,1.61,1.12,3.68,1.26,5.68l.06.9c.12,1.51.59,2.54,1.31,2.88a2.65,2.65,0,0,0,2.46-.56c4.12-2.79,8.77-3.84,14.61-3.31,11.06,1,20.42,3.36,28.61,7.14,9,4.16,15.63,11.69,20.21,23a26.89,26.89,0,0,1,2,13.55,19.48,19.48,0,0,1-.77,3.23c-.24.81-.48,1.64-.64,2.46a2.13,2.13,0,0,0,.37,1c0,.07.07.14.11.22l.23-.08a2.19,2.19,0,0,0,1-.48,7,7,0,0,1,8.55-2.07,17.85,17.85,0,0,1,2.53,1.62,18.72,18.72,0,0,0,1.82,1.23,4.47,4.47,0,0,0,1.42.45l.12,0v-.25a2.49,2.49,0,0,0-.18-1.35,11,11,0,0,0-7.83-4.12c-.92,0-1.84,0-2.74,0l-1.15,0h-.46l-1.36-15.49.4-.11c.71-.18,1.45-.42,2.23-.67a26.52,26.52,0,0,1,5.81-1.36c11.42-.94,20.26,1.45,27,7.28s9.86,12.32,9.56,19.65c0,1.22,0,2.46,0,3.67,0,3.41,0,6.93-1.21,10.39C654.65,161.27,649.45,165.68,641.83,167.07Z"/><path d="M447.9,113.41c1.91-3.67,5.33-5.12,8.64-6.52l.94-.4a3.7,3.7,0,0,0,1.17-1.12l.09-.12-.25-.09a3,3,0,0,0-1.6-.32l-.11,0c-3.74,1.37-7.59,2.79-9.82,6.48a2.48,2.48,0,0,1-2.6.69,38.39,38.39,0,0,0-17.87-4q-2,0-4.11.15h0l-2,.13-3.91.27c-14.43,1-25.44,8.27-33.68,22.15a2.61,2.61,0,0,0,0,1.36,1.85,1.85,0,0,1,0,.23l.21-.08a3.16,3.16,0,0,0,1.31-.7c.87-1.1,1.69-2.27,2.49-3.41a43.07,43.07,0,0,1,4.42-5.59,51.89,51.89,0,0,1,9.47-7.41c7-4.39,15.26-4.79,22.51-5.14,8.51-.42,15.27,1,21.28,4.35a2.53,2.53,0,0,0,1.94.36A2.41,2.41,0,0,0,447.9,113.41Z"/><path d="M549.72,129.12l.14.2.21-.09a2.1,2.1,0,0,0,.87-.53,7.56,7.56,0,0,0,.53-2.49V126c.51-4.92-1.07-9.52-5.1-14.91-5.32-7.1-12.28-11-20.68-11.73A34.89,34.89,0,0,0,512,104.07a1.46,1.46,0,0,0-.36,1,1.5,1.5,0,0,0,1.08.41,6.82,6.82,0,0,0,1.62-.66c.32-.16.64-.33,1-.46l.2-.08c3.42-1.42,6.93-2.87,10.84-2.87a14.83,14.83,0,0,1,2.08.14c4.57.62,8.15,3,10.76,5.06,8.22,6.39,11.42,13.26,10.08,21.61C549.27,128.44,549.53,128.83,549.72,129.12Z"/></g></g></g></svg>