<svg xmlns="http://www.w3.org/2000/svg" viewBox="0 0 725.96 372.64"><defs><style>.cls-1{fill:#fff;}</style></defs><g id="Layer_2" data-name="Layer 2"><g id="Mobile"><g id="Clouds_Right"><g id="_08" data-name="08"><path class="cls-1" d="M366.82,94.27a17.38,17.38,0,0,0-6.53-7.84c-10.56-7.35-20.12-9.5-30.08-6.77a2.92,2.92,0,0,1-1.31-.15,4.12,4.12,0,0,1,.79-1.17c.78-.69,1.6-1.31,2.48-2a32.58,32.58,0,0,0,3-2.45c3.7-3.52,3.85-10.64.32-14.64-4.35-4.92-9.91-3.88-14.38-3.05a4.79,4.79,0,0,1-1.26,0,2.92,2.92,0,0,1,.19-1.17,31.78,31.78,0,0,0,4.68-12.13c1.57-7.68-1.47-14.81-7.93-18.61a36,36,0,0,0-23-4.57,8.18,8.18,0,0,1-2.81.11,8,8,0,0,1-.57-2.65,12.67,12.67,0,0,0-5.28-9c-5.35-3.91-11.88-6-20.52-6.67-5.13-.39-11.75-.23-17.45,4.43-6,4.91-8.37,10.12-7.4,16.39a2.91,2.91,0,0,1-.86,1.83c-3.94,4.09-5.39,9.26-4.3,15.35a8.38,8.38,0,0,0,7.46,7.36,64.51,64.51,0,0,0,8.25.66c4.75,0,10.64.09,14.57-5.32l.52-.05a1.6,1.6,0,0,1,0,.5A12.7,12.7,0,0,1,264,44.62c-.29.34-.6.71-.92,1.12l-.94,1.19,1.46.39,1.62.46a29.59,29.59,0,0,0,3.27.83c.92.17,1.1.37,1.13.43s.13.28-.13,1c-2.66,7.71-.06,13.1,7.73,16a9.08,9.08,0,0,1,2.64,1.49,1.47,1.47,0,0,1,.24.53,3,3,0,0,1-.57.1c-2.7-1.76-5.61-1.79-8.42-1.82h-.8a7.7,7.7,0,0,0-6.16,2.79c-2.16,2.5-4.35,5.63-4.24,10,0,1.11-.07,1.78-.3,2s-1.81.27-2.35.24c-1,0-2.08-.06-3.48,0-6.37.11-9.71,2.84-11.16,9.1a6.08,6.08,0,0,0-.13.8,4.83,4.83,0,0,1-.21,1h-.09a15,15,0,0,1-.25-1.73c0-.27-.05-.53-.08-.74a2,2,0,0,1,.1-.36,2.8,2.8,0,0,0,.23-1.11,3.65,3.65,0,0,0-.78-2.5c-4.13-4-8.87-7.52-15.52-6.24a1.39,1.39,0,0,1-1-.06,1.52,1.52,0,0,1-.31-1c0-.25,0-.49,0-.74a11.54,11.54,0,0,0-.08-1.64,5.71,5.71,0,0,0-2.79-3.91,4.83,4.83,0,0,0-4.08-.55,7.42,7.42,0,0,1-2.4.68A7.76,7.76,0,0,1,214,70.08c-2.44-5.53-6.24-8.79-11.28-9.68-4-.71-8-1-12-1.33L189.13,59a15,15,0,0,0-11.72,4.3,4.6,4.6,0,0,1-5.37,1c-4.7-1.78-8.65-1.83-12.08-.18-4.25,2.06-9.54,5.11-12.67,10.53a67.59,67.59,0,0,0-3.46,7.25c-.61,1.41-1.23,2.87-1.9,4.26a1.91,1.91,0,0,1-.56.46,1.31,1.31,0,0,1-.27-.5A5.44,5.44,0,0,0,139.21,82a5.17,5.17,0,0,0-4.23-.82,14.62,14.62,0,0,1-2.13.26,13.2,13.2,0,0,1-.15-2.32c0-2.46-.62-5-4.53-5.26a27.35,27.35,0,0,0-8.29.73,5.92,5.92,0,0,1-3.92,0c-6.25-2.42-11.94-1.78-16.9,1.89a13.36,13.36,0,0,0-3.53,5c-.43.9-.7.87-1.4.56-4.9-2.16-9.61-1.27-13.25,2.52-3.46,3.61-4.61,8.18-5.22,11.76a1.84,1.84,0,0,1-.55,1.24,2,2,0,0,1-1.45.07,69.23,69.23,0,0,0-37.6,3c-5.52,2-9.3,6.25-11.24,12.56l-.3,1,1,.26c.26.07.49.12.71.16a4,4,0,0,1,.44.09,5.93,5.93,0,0,1,.64.6,3.17,3.17,0,0,1-.81.37,2.21,2.21,0,0,1-.71-.08,5.15,5.15,0,0,0-1.08-.13c-1,0-1.92,0-2.88,0a33.07,33.07,0,0,0-7.23.36c-6.71,1.34-11,4.87-12.52,10.19S1.8,139.42,8,144c4.84,3.56,10.32,5.13,17.28,4.91A26.42,26.42,0,0,0,41.82,143a34.7,34.7,0,0,0,3.27-3.13c.75-.76,1.51-1.55,2.28-2.25a2.29,2.29,0,0,1,.6-.1l.08.29c-1.53,2.1.08,3.51,1,4.28l.08.07c5,4.42,13.72,4.55,19.82.31a1.76,1.76,0,0,1,.76-.13,5.62,5.62,0,0,1-.13.57l-1.23.63a23.93,23.93,0,0,1-6.6,2.64,15.54,15.54,0,0,1-14.88-4.9l-.63-.68-1.55,1.2c-3.12,2.39-6.34,4.86-5.57,10.25.62,4.36,2.11,9.69,8.18,12.19,10.78,4.43,21.5,4.4,31.86-.11A23.93,23.93,0,0,0,92,150.88a10.24,10.24,0,0,1,1-1.79,3.57,3.57,0,0,1,.67-.83,4.19,4.19,0,0,1,.83.9,14.07,14.07,0,0,0,8.72,5.79c2.82.52,6.42.86,9.2-1.12l.61-.42-.23-.7c-.21-.64-.42-1.25-.62-1.85-.49-1.48-1-2.88-1.31-4.27l.3-.34a2.06,2.06,0,0,1,.25.18c.83,4.92,4.52,7.39,8.39,9.31,7.52,3.74,13.93,5.51,20.17,5.57,10.65.09,18.55-2.49,24.85-8.12a2.05,2.05,0,0,1,.79-.15,1.78,1.78,0,0,1-.27.71c-4,4.43-9.35,6.29-16.14,7.73-9.25,2-18.54.55-28.41-4.32l-.94-.47c-3.3-1.66-6.7-3.38-10.72-.62h0a1.9,1.9,0,0,0-.9.21l-.28.16a4.85,4.85,0,0,0-1.61,1.21,14,14,0,0,0,2.15,19.49c8.37,7.09,23,10.67,35.25,1.75.46-.34.94-.66,1.43-1,2.17-1.44,4.62-3.07,5.43-6.27a2,2,0,0,1,.34-.15,1.8,1.8,0,0,1,.7.36c.32,2.82,2.64,3.72,4.19,4.32,7.08,2.74,12.85,2.1,17.65-1.95l.34-.32c.1-.1.26-.25.24-.26a4.31,4.31,0,0,1,1,0,1.94,1.94,0,0,1-.16.66,1.71,1.71,0,0,1-.82.68,4.14,4.14,0,0,0-2.5,5.56,77.66,77.66,0,0,0,5.32,11.81c3.48,6,9.6,8.05,15.52,10.08l.16,0c9.67,3.32,20,2.88,32.46-1.36a4.06,4.06,0,0,0,1-.57l1-.56-.7-.9-2.52-3.22c-1.83-2.33-3.73-4.74-5.51-7.15-3-4-5.71-8.07-6.44-13.05a2.23,2.23,0,0,1,.28-.71,1.88,1.88,0,0,1,.4.37c.93,4.59,3.28,8.28,6,12.28l.76,1.11c2.63,3.88,5.36,7.89,9.57,10.45A56.59,56.59,0,0,0,248,206.43a101.07,101.07,0,0,0,18.84,1.66c4.18,0,8.59-.21,13.31-.63,12.34-1.08,21.34-4.63,28.35-11.16,4.8-4.47,11.12-11.64,10.49-22.14a47.34,47.34,0,0,1,0-5.33c.44-8.41-1.15-16.86-4.87-25.83-.69-1.66-1.61-3.25-4.49-2.84-5.1.74-10.22-.58-15.65-4a1.8,1.8,0,0,1-.37-.72,4.42,4.42,0,0,1,1,.18c1.1.38,2.23.88,3.32,1.36a21.72,21.72,0,0,0,7.09,2.2,76.92,76.92,0,0,0,14.39-.86l1.38-.17c5.3-.64,9.91-3.42,14.1-8.49a5.33,5.33,0,0,1,1.34-1.33c.08,0,.4.27,1.11,1.77,1.67,3.51,3.82,7.33,8.24,8.15a33.86,33.86,0,0,0,10.22.12c4.88-.6,8.52-5,8.47-10.33a17.81,17.81,0,0,0-3.24-9.86,2.21,2.21,0,0,1-.49-1.47c.07-.31.36-.61.88-.91a11.9,11.9,0,0,0,6.29-10v-.13C367.88,102,368.06,97.8,366.82,94.27Z"/><path d="M368,92.85c-4-6.77-10.09-11.24-18.68-13.67l-1.94-.56c-3.73-1.11-7.58-2.25-11.77-1.62l-1.19.18.88-.83c4.63-4.32,5.63-9.76,2.89-15.72-2.42-5.26-7.32-7.4-14.57-6.34l-.57.08.15-.56c.35-1.2.7-2.37,1.05-3.52.74-2.46,1.44-4.78,1.95-7.16a18.42,18.42,0,0,0-8.35-20A36,36,0,0,0,299.92,18c-1.66-.07-3.32-.05-5.07,0H292l0-.35c-.33-5.45-3.27-9.51-9.27-12.78C276.19,1.33,268.64-.22,259,0a23.24,23.24,0,0,0-16.34,8.13c-3.5,4.06-5.12,8.77-4.56,13.27A4,4,0,0,1,237,24.05c-3.7,4.4-5,9.74-3.84,15.88.92,4.89,3.9,7.85,8.38,8.34s10,1.07,15,.22a15.59,15.59,0,0,1,10.77,1.92l.25.13-.06.27c-1.2,5.81-.28,9.85,3,13.1l.5.5-.69.14c-7.25,1.42-10.9,5.91-12.21,15l-.05.33h-.34c-5.83-.2-10.94,0-14.48,4.91l-.26.36-.31-.31c-5.08-5.12-10.15-7.39-15.91-7.13l-.34,0,0-.35A8.48,8.48,0,0,0,222.52,71a7.14,7.14,0,0,0-6.18-.7l-.17.06-.16-.1a.66.66,0,0,1-.31-.27c-.23-.43-.45-.86-.67-1.3l-.15-.3C212.13,63,208.2,59.82,203.2,59c-4.44-.75-9-1.06-13.51-1.36L188,57.5c-3.95-.27-7.57,1.12-11.07,4.25a4.25,4.25,0,0,1-4.68,1c-5.47-1.83-9.66-1.78-13.16.16a43.33,43.33,0,0,0-10.23,7.56,42.65,42.65,0,0,0-5.22,7.2c-.67,1.06-1.35,2.17-2.06,3.2l-.15.22L134.3,79v-.28a5.84,5.84,0,0,0-4.63-6.1,17,17,0,0,0-9.63.13,8,8,0,0,1-4.5.06c-6.63-2.11-15.66-1.11-20.88,5.87a2.72,2.72,0,0,1-2.18.79C84.36,78.68,79,82,76,89.58c-.53,1.37-1,2.79-1.42,4.17-.21.64-.41,1.28-.62,1.91l-.1.3-.31,0a81.1,81.1,0,0,0-32.64,1.52c-9.32,2.36-14.88,7.1-17.5,14.92a2.82,2.82,0,0,1-2.1,1.4c-.93.11-1.88.14-2.81.17a21.15,21.15,0,0,0-3.91.37C6.54,116.13,2,120,.58,126c-1.84,8.11.71,15.08,7.18,19.63,7.21,5.07,15.53,6.15,26.2,3.41a13.11,13.11,0,0,0,1.89-.72l.88-.38.29-.11.17.26a2.43,2.43,0,0,0,.19.27.88.88,0,0,1,.22.48c0,.9.06,1.81.08,2.72.14,7,3.07,11.56,8.94,14a41.56,41.56,0,0,0,30.07,1.11,26.73,26.73,0,0,0,15.1-11.94c.41-.71.8-1.43,1.14-2l.58-1,10.84,5.9-.32.65c-.19.39-.46.91-.68,1.45-2,5.08-1.94,9.49.32,13.89,2.33,4.55,7.85,8.53,14.77,10.65,7.46,2.29,14.9,2,19.9-.73,3-1.65,5.87-3.42,8.9-5.29,1.37-.85,2.76-1.71,4.18-2.56l.21-.13.2.15c4.52,3.32,10.22,4.36,17.43,3.18l.38-.06.11.77c0,.22.06.41.1.59,2.09,9.74,6.6,16.35,13.77,20.22a49.42,49.42,0,0,0,15.71,5.28c8.17,1.29,16.66.2,26.73-3.46a7.9,7.9,0,0,1,2.71-.54,7.56,7.56,0,0,1,2.91.65l2.4,1a77,77,0,0,0,13.1,4.48c10.08,2.12,21,2.46,34.44,1,9.92-1,17-3.39,23-7.61,11.62-8.17,16.65-17.38,15.85-29-.09-1.35-.05-2.72,0-4.05v-.52a52.34,52.34,0,0,0-3.46-21c-.49-1.22-.91-2.47-1.37-3.8-.22-.64-.44-1.31-.69-2l-.17-.48.51,0c8.63-.3,15.22-3.25,20.16-9l.32-.37.28.41.82,1.25a19,19,0,0,0,1.34,1.91c.26.29.51.6.76.9,1.65,2,3.35,4.05,6,4.28a53.13,53.13,0,0,0,11.21.07,11,11,0,0,0,9.42-11.87,46.52,46.52,0,0,0-1.63-7.48c-.32-1.18-.65-2.38-.95-3.62l-.06-.26.22-.14c3.53-2.28,5.62-6,6.07-10.73l.07-.73C369.78,100.84,370.19,96.59,368,92.85Zm-.9,12.73v.14a11.28,11.28,0,0,1-6,9.52,2.18,2.18,0,0,0-1.17,1.31,2.55,2.55,0,0,0,.58,2,17.24,17.24,0,0,1,3.13,9.53,9.42,9.42,0,0,1-7.92,9.7,33.28,33.28,0,0,1-10-.11c-4.12-.77-6.11-4.28-7.78-7.81-.48-1-1-2-1.57-2.11s-1.3.79-1.93,1.54c-4.08,4.94-8.57,7.65-13.7,8.27l-1.37.17a75.12,75.12,0,0,1-14.28.85,21.07,21.07,0,0,1-6.88-2.15c-1.1-.48-2.24-1-3.36-1.37a6.49,6.49,0,0,0-1.81-.25l-.31,0c.05.13.09.27.14.4a3,3,0,0,0,.78,1.53c5.57,3.52,10.83,4.87,16.08,4.11,2.23-.32,3.06.62,3.82,2.46a57.87,57.87,0,0,1,4.83,25.56,48.6,48.6,0,0,0,0,5.4c.47,7.9-2.71,14.57-10.3,21.65-6.89,6.42-15.78,9.92-28,11-4.71.42-9.1.63-13.26.63a100.63,100.63,0,0,1-18.72-1.65,55.93,55.93,0,0,1-18.91-7.22c-4.09-2.49-6.78-6.44-9.38-10.26l-.76-1.11c-2.7-3.95-5-7.58-5.92-12-.07-.31-.5-.65-.93-1l-.28-.22c-.06.12-.13.24-.2.36a2.68,2.68,0,0,0-.51,1.38c.75,5.11,3.65,9.39,6.56,13.33,1.78,2.41,3.68,4.83,5.52,7.17.84,1.06,1.67,2.13,2.51,3.21l.27.34-.37.22a3.6,3.6,0,0,1-.9.5c-12.34,4.19-22.53,4.63-32.06,1.36l-.15-.05c-5.81-2-11.82-4.05-15.19-9.8a79,79,0,0,1-5.28-11.72,3.54,3.54,0,0,1,2.16-4.76,2.25,2.25,0,0,0,1.14-1,3.5,3.5,0,0,0,.26-1.27c0-.08,0-.16,0-.25h-.26a6.09,6.09,0,0,0-1.48,0,1.58,1.58,0,0,0-.58.44l-.31.28c-4.66,3.95-10.07,4.54-17,1.85-1.61-.63-3.61-1.4-3.82-4a2.05,2.05,0,0,0-1.18-.75,1.62,1.62,0,0,0-1,.43c-.68,3.08-3,4.61-5.21,6.09-.49.33-1,.65-1.45,1-12,8.71-26.29,5.21-34.47-1.73A13.33,13.33,0,0,1,106.84,158a4.34,4.34,0,0,1,1.41-1.05l.29-.16a1.25,1.25,0,0,1,.61-.12,1.42,1.42,0,0,0,.24,0c3.77-2.67,6.89-1.09,10.21.58l.94.47c10,4.94,19.43,6.37,28.82,4.38,6.91-1.47,12.35-3.38,16.48-7.93a3.14,3.14,0,0,0,.5-1.46c0-.12,0-.23.07-.35-.14,0-.28,0-.43,0a2.77,2.77,0,0,0-1.54.34c-6.18,5.52-13.95,8.07-24.44,8-6.14-.05-12.46-1.8-19.89-5.5-3.76-1.87-7.35-4.26-8.07-9,0-.14-.44-.4-.69-.56l-.26-.17-.28.3a2.85,2.85,0,0,0-.59.76c.36,1.49.86,3,1.39,4.56.2.6.41,1.21.61,1.84l.09.26-.23.16c-2.59,1.84-6,1.51-8.72,1A13.55,13.55,0,0,1,95,148.78c-.38-.51-.94-1.16-1.34-1.18s-.66.37-1.17,1.15a11.34,11.34,0,0,0-1.07,1.89,23,23,0,0,1-12.56,12.9c-10.2,4.44-20.75,4.47-31.38.1-5.73-2.36-7.15-7.24-7.79-11.7-.72-5,2.22-7.28,5.33-9.66l1.1-.85.23.25a16.17,16.17,0,0,0,15.45,5.1,24.85,24.85,0,0,0,6.79-2.71l1.35-.69c.19-.1.31-.81.39-1.27,0-.15,0-.29.08-.43H70a2.9,2.9,0,0,0-1.49.24c-5.87,4.09-14.24,4-19-.26l-.09-.07c-1-.84-2.14-1.88-.72-3.62a3.48,3.48,0,0,0-.18-.83c0-.11-.07-.21-.1-.32l-.36,0a2.13,2.13,0,0,0-1.09.26c-.8.73-1.58,1.53-2.33,2.3a35.87,35.87,0,0,1-3.21,3.07,25.88,25.88,0,0,1-16.13,5.8c-6.79.2-12.17-1.33-16.89-4.79-6-4.41-7.17-12.05-5.72-17.27s5.58-8.45,12-9.74a33,33,0,0,1,7.09-.36c1,0,1.94,0,2.91,0a5.75,5.75,0,0,1,.94.12,2.32,2.32,0,0,0,1,.08,5.4,5.4,0,0,0,1.38-.69l.24-.15-.14-.15a7.81,7.81,0,0,0-1.07-1.08,1.8,1.8,0,0,0-.72-.22c-.2,0-.42-.08-.67-.14l-.37-.1.11-.37c1.88-6.12,5.53-10.21,10.85-12.16a68.62,68.62,0,0,1,37.27-3,2.51,2.51,0,0,0,1.92-.17,2.37,2.37,0,0,0,.82-1.66c.59-3.49,1.7-7.94,5-11.43a10.51,10.51,0,0,1,12.54-2.38c.95.42,1.61.41,2.23-.86a12.58,12.58,0,0,1,3.33-4.73c4.78-3.53,10.27-4.15,16.31-1.81a6.51,6.51,0,0,0,4.29,0,26.42,26.42,0,0,1,8.1-.72c3.21.21,3.9,2,4,4.65,0,1.59,0,2.55.36,2.81s1.19.1,2.65-.15a4.61,4.61,0,0,1,3.74.7,4.85,4.85,0,0,1,1.64,3.63,2.38,2.38,0,0,0,.56,1l.18.25.31-.2a2.5,2.5,0,0,0,1-.83c.67-1.4,1.3-2.86,1.9-4.28A67.46,67.46,0,0,1,147.83,75c3-5.27,8.23-8.26,12.4-10.28,3.27-1.57,7.06-1.51,11.59.21a5.23,5.23,0,0,0,6-1.17,14.42,14.42,0,0,1,11.24-4.14l1.59.13c3.93.3,8,.61,11.93,1.31,4.82.86,8.46,4,10.82,9.32,1.35,3.06,1.35,3,4.4,1.94a4.18,4.18,0,0,1,3.55.5,5.06,5.06,0,0,1,2.49,3.47,10,10,0,0,1,.08,1.54c0,.26,0,.51,0,.76a2,2,0,0,0,.54,1.5,1.87,1.87,0,0,0,1.51.18c6.36-1.22,10.95,2.2,15,6.08a3.07,3.07,0,0,1,.58,2.07,2.36,2.36,0,0,1-.18.89,1.44,1.44,0,0,0-.14.62c0,.22.05.48.08.75a6.78,6.78,0,0,0,.44,2.22,1.06,1.06,0,0,0,.84,0c.34-.22.43-.89.51-1.47,0-.26.07-.51.12-.74,1.37-5.93,4.53-8.51,10.56-8.61,1.39,0,2.45,0,3.44,0,1.62.09,2.41,0,2.81-.42s.53-1.1.5-2.46c-.11-4.17,2-7.19,4.08-9.59A7.06,7.06,0,0,1,270.15,67h.94c2.75,0,5.59.07,8.16,1.77.21.14.78,0,1.24-.12l.4-.1-.09-.29a2.61,2.61,0,0,0-.55-1.17,9.4,9.4,0,0,0-2.83-1.59c-7.4-2.77-9.88-7.89-7.35-15.22a1.92,1.92,0,0,0,.08-1.55c-.2-.34-.69-.58-1.56-.73a32.22,32.22,0,0,1-3.21-.82c-.52-.15-1.05-.31-1.62-.46l-.55-.15.35-.44c.32-.41.62-.77.91-1.11A13.56,13.56,0,0,0,266,43a2.26,2.26,0,0,0,0-1.15l0-.3-.41,0c-.34,0-1,0-1.08.18C261,46.63,256,47,250.33,46.93a63.07,63.07,0,0,1-8.17-.65,7.8,7.8,0,0,1-6.94-6.85c-1.05-5.89.35-10.87,4.14-14.8a3.47,3.47,0,0,0,1-2.36c-.93-6,1.35-11.06,7.18-15.82,5.52-4.51,12-4.66,17-4.29,8.53.64,14.95,2.72,20.2,6.56a12,12,0,0,1,5,8.58c.47,3.49.46,3.5,4.07,3.08a35.38,35.38,0,0,1,22.61,4.49c6.23,3.66,9.15,10.54,7.64,17.94a31.23,31.23,0,0,1-4.58,11.9,3.2,3.2,0,0,0-.31,1.59c0,.17,0,.35,0,.52l.41,0a6.27,6.27,0,0,0,1.62,0C325.77,56,330.92,55,335,59.69c3.27,3.7,3.13,10.53-.29,13.78a31.88,31.88,0,0,1-2.95,2.4c-.85.64-1.72,1.29-2.51,2a5.52,5.52,0,0,0-1.08,1.62c-.07.15-.15.29-.22.43l.52.13a3.87,3.87,0,0,0,1.87.22c9.77-2.69,19.16-.57,29.56,6.67a16.76,16.76,0,0,1,6.3,7.54C367.43,97.89,367.26,101.8,367.09,105.58Z"/></g><g id="_09" data-name="09"><path class="cls-1" d="M713.78,305.4a1.93,1.93,0,0,1-1.23-.93,1.74,1.74,0,0,1,.21-1.38,40.87,40.87,0,0,1,2.78-4.87c3.93-5.7,5.33-11.47,4.26-17.62-.74-4.32-1.73-8.41-5.58-11-5-3.36-9.39-5.57-14.84-5.38a2.21,2.21,0,0,1-1.59-.85c-.08-.25.15-.93.84-1.84a12.53,12.53,0,0,1,1.22-1.34,9.4,9.4,0,0,0,1.77-2.15c3.5-6.56,2.33-12-3.68-17.18-.83-.71-1.2-1.17-1.2-1.51s.63-1,1.32-1.6a18.27,18.27,0,0,0,4-4.47A9.35,9.35,0,0,0,702,224a7.41,7.41,0,0,0-6.95-3.61,22.93,22.93,0,0,0-3,.39c-.79.14-1.6.29-2.4.35a2.94,2.94,0,0,1-2-.35,2.3,2.3,0,0,1-.17-1.93c1.56-3.4,1.66-7,1.75-10.47,0-.53,0-1,.05-1.58.21-5.88-2.38-10.46-7.71-13.62-6.78-4-14.36-3.38-20.94-2.45a14.08,14.08,0,0,0-5.25,2c-5.69,3.48-9.62,7.16-12.39,11.57a41.09,41.09,0,0,1-3,4.25,1.25,1.25,0,0,1-2.46-.49,16.39,16.39,0,0,1-.4-1.9,10.89,10.89,0,0,0-.72-2.8,11.58,11.58,0,0,0-3.21-4.53l-.43-.31c-2.94-2.16-2.94-2.16-2-6,0-.14.07-.28.11-.41s.12-.48.17-.73c1.71-9.44-.52-16.88-6.65-22.11s-14-8.23-23.16-8.78c-3.49-.21-3.49-.21-3.35-3.44A31.64,31.64,0,0,0,590.53,135c-5.85-7.11-13.73-10.91-23.43-11.28l-.49,0c-2.58-.1-5.25-.21-7.56.66-3,1.14-4.89.63-6.68-1.83a7.07,7.07,0,0,0-.67-.78,7.72,7.72,0,0,1-.53-.61,49.7,49.7,0,0,0-18.3-14.75c-12.93-6.07-23.36-5.68-32.84,1.24a8.26,8.26,0,0,0-1.34,1.3l-.54.59-.41.42.48.34c.24.17.48.37.72.57a6.54,6.54,0,0,0,1.87,1.19c4,1.36,8.39,3.35,11,7.78.88,1.5,1.68,3,2.53,4.63l1.18,2.24.19.34.38-.09.5-.15a6.67,6.67,0,0,1,1.21-.28l1.68-.15c3.67-.32,7.46-.65,11.2-.82.24,0,.72.43,1.06.76l.18.17-.17.12a3.21,3.21,0,0,1-1.34.68c-1.24.1-2.52.09-3.76.08-1.08,0-2.19,0-3.29.06-6.51.37-11.17,3.14-13.86,8.24a49.22,49.22,0,0,0-2.24,5.19c-.43,1.12-.88,2.29-1.38,3.4a3.1,3.1,0,0,1-.89.94l-.11.09-.05-.08a11.43,11.43,0,0,1-.79-1.43,1.69,1.69,0,0,1,.12-.45c0-.13.07-.25.1-.36a28.08,28.08,0,0,1,7.82-13.6,3.22,3.22,0,0,0,.93-2.74c-1.86-6-5.07-9.79-9.84-11.51a20.18,20.18,0,0,1-8.61-6c-5.35-6.09-12.77-8-22.69-5.83a11.17,11.17,0,0,0-3.6,1.8l-.19.13c-.69.45-1.35,1-2,1.46a20,20,0,0,1-2.8,1.93,5.76,5.76,0,0,1-3.6.75,44.79,44.79,0,0,0-16.73-.66c-8.86,1.24-15.35,6.49-19.27,15.59a21.75,21.75,0,0,0-1.15,4,27.22,27.22,0,0,1-.73,2.86,6,6,0,0,1-1.28,2.24,1,1,0,0,1-.61-.27c-.2-.26-.12-.81,0-1.34a6.78,6.78,0,0,0,.1-1,7.77,7.77,0,0,1,0-.83,8.38,8.38,0,0,0,0-1.5c-1.75-12.77-8.8-22.28-21-28.26-8.83-4.36-18.86-4.7-30.64-1-1.84.57-3.65,1.28-5.41,2a44.7,44.7,0,0,1-9.39,2.91,11.22,11.22,0,0,0-4.63,2.39,40,40,0,0,0-14.32,19.36c-.29.88-.54,1.77-.78,2.64s-.55,2-.9,3a2.52,2.52,0,0,1-.74.84l-.13.1-.15-.16a2.46,2.46,0,0,1-.67-1,7,7,0,0,1,.45-2.68c.56-1.78,1.17-3.51,1.8-5.35l.92-2.66-.41-.19c-9.31-4.25-18.25-4.11-27.33.43-5.17,2.59-7.51,7.39-9.77,12l-.1.22a32.62,32.62,0,0,0-2.1,23.67c.85,3,.85,3-2,4.39s-6.06,3.24-6.83,7.38a14.52,14.52,0,0,0,9.63,16.22,3.34,3.34,0,0,1,1.19,1.14c.09.1.17.21.25.31l-.26.19a3.54,3.54,0,0,1-1.38.74c-7.64,1-10.11,3.2-12,10.5-.25,1-.6,1.56-1,1.72a1.73,1.73,0,0,1-1.48-.41c-3.27-2.17-6.89-2.34-10.38-2.5l-1.27-.07c-7.18-.4-11.42,2.27-13.35,8.36-.33,1-.73,1.63-1.18,1.75s-1.26-.23-2.25-1.1c-.53-.46-1.07-1-1.76-1.72a13.79,13.79,0,0,0-9-4.72h-.25a82,82,0,0,0-14.36-.25c-9.54,1-16.22,7.6-17.43,17.3a71.63,71.63,0,0,0-.3,10.14c0,.8,0,1.6,0,2.4,0,1-.11,1.51-.37,1.76a1.67,1.67,0,0,1-1.27.21l-1.71-.16a59,59,0,0,0-7.18-.4,14.52,14.52,0,0,0-11.89,6.56c-4.32,6.1-5,13-5.15,18.9-.1,4.7,0,9.68,2.17,14.29,2.4,5.09,5.64,10.64,11.48,13.27a29.58,29.58,0,0,0,21.26,1.28,2.51,2.51,0,0,1,1.77.56,9.87,9.87,0,0,1-.54,1.58,7.61,7.61,0,0,1-.49.93,6.53,6.53,0,0,0-.63,1.3c-2,6.33-2.3,13.27-.85,21.2a18.69,18.69,0,0,0,2.47,6.24,119.22,119.22,0,0,0,7,10.2c7.1,9.31,14.62,14.3,23.65,15.69a121.35,121.35,0,0,0,20.7,1.67c17.79-.3,31.31-8,40.17-23a3.1,3.1,0,0,0-.15-3.79c-2.23-3.35-4.38-6.87-6.4-10.44-.13-.23.05-.84.19-1.33l.06-.24.19.09a3.35,3.35,0,0,1,1.23.87c.92,1.39,1.81,2.84,2.67,4.25,1.33,2.16,2.71,4.4,4.24,6.48a15.36,15.36,0,0,0,5.58,4.95c11.59,5.06,21.06,5.2,29.79.44a2.73,2.73,0,0,1,1.42,0l.25,0-.08.23c-.17.5-.36,1.06-.62,1.2-1.9,1-3.91,1.95-6,2.92l-2.58,1.2-.59.27.41.5,1.81,2.17c1.34,1.63,2.73,3.31,4.18,4.93,7,7.87,15.1,12,24.62,12.72,6.94.51,14.28.74,21.09-2.36a50.53,50.53,0,0,0,15.47-11.42,3.7,3.7,0,0,0,1.15-4c-.74-2.89-1.4-6-2-9.54,0-.21.26-.65.49-1l.12-.18.15.12a3.8,3.8,0,0,1,1.05,1,2.85,2.85,0,0,1,.23,1.1,5.6,5.6,0,0,0,.13,1c.31,1.24.6,2.49.88,3.74,1.2,5.27,2.43,10.72,5.92,15.39,3.17,4.26,7,7.59,11.07,10.92a48.85,48.85,0,0,0,23.3,10.36c9.3,1.64,18.9,1.6,27.16,1.43a59.55,59.55,0,0,0,38-14.18c.62-.52,1.22-1.06,1.78-1.57l1.3-1.15-.72-.31c-1.3-.56-2.58-1.09-3.83-1.62-2.7-1.12-5.25-2.19-7.74-3.4-4.7-2.28-8.51-5.91-12.18-9.41-1.39-1.33-2.82-2.69-4.28-4a2,2,0,0,1-.69-1,3.92,3.92,0,0,1,.24-1.23c0-.06,0-.12.05-.18l.19,0a1.92,1.92,0,0,1,.92.24c1.76,1.6,3.49,3.31,5.16,4.95l.9.89a47.69,47.69,0,0,0,18.85,11.59c7.55,2.44,15.06,1.12,23.65-4.18a54.13,54.13,0,0,0,5.62-4.21c1.11-.92,2.26-1.87,3.42-2.73a3.42,3.42,0,0,1,1.47-.4l.18,0c0,.05,0,.09,0,.14a5.09,5.09,0,0,1-.35,1.6,5.57,5.57,0,0,1-1.42,1.51l-.16.13c-8.79,7.38-16.66,10.9-25.5,11.4l-.66,0,.21.63.16.47a3.89,3.89,0,0,0,.31.81l.06.12a18.45,18.45,0,0,0,1.26,2.07A45,45,0,0,0,549,369.47a42.75,42.75,0,0,0,9.94,1.37,22.56,22.56,0,0,0,9-1.75c4.35-1.89,8.28-2.71,13.29-.57,5.57,2.38,11.57,2.18,18.26,1.71,15.15-1.08,23.14-12,24.14-21.77.24-2.23.44-4.54.63-7a2.17,2.17,0,0,1,.63-1.58,1.63,1.63,0,0,1,1.4,0c5.29,1.8,10.6,1.37,16,.73,6.12-.73,10.36-3.28,13-7.8a2,2,0,0,1,1.22-.83c.2,0,.64.53,1,1.28,4.93,10.53,12.95,15.68,23.8,15.27a14.76,14.76,0,0,1,1.76,0c7.25.58,18-5.79,20.14-14.07,1-3.86,2.31-7.61,3.57-11.24.09-.25.51-.52.88-.75l.18-.12.13.24c.24.39.53.87.48,1.11-.5,2.24-1.18,4.49-1.83,6.66l-.36,1.19c-.22.73-.48,1.43-.8,2.31-.17.45-.35.93-.54,1.47l-.28.77.82-.1c1-.13,1.87-.22,2.73-.31a34.13,34.13,0,0,0,5.06-.78c6-1.56,9.51-5,10.32-10.16C725.2,314.72,722,308.4,713.78,305.4Zm-25.37-12.48a22.46,22.46,0,0,1-14.83,11.9,57.7,57.7,0,0,1-8.4,1.38c-1.27.15-2.55.3-3.81.48-5.21-.42-10.7-1.22-15.56-4.13a3,3,0,0,1-.78-1.2l-.09-.21.25-.06a2.6,2.6,0,0,1,1.38-.13c7.75,3.95,16.44,4.61,26.58,2a20.86,20.86,0,0,0,13.62-10.89l.22-.43c.24-.5.51-1.07.82-1.16a.8.8,0,0,1,.59.14A3.23,3.23,0,0,1,688.41,292.92Zm-129.13-2.5-.07-.11a4.33,4.33,0,0,1-.8-1.71,5,5,0,0,1,.27-1.59,1.24,1.24,0,0,0,0-.16l.15.08a3.06,3.06,0,0,1,1.15.79c.83,1.21,1.61,2.49,2.35,3.73.53.88,1.07,1.75,1.62,2.62,5.59,8.67,13.84,13.09,25.23,13.52l.58,0c4.89.19,9.94.38,14.68-1.82.41-.19.8-.4,1.19-.62a9.21,9.21,0,0,1,1.8-.86,4.75,4.75,0,0,1,1.58-.09h.15l-.06.22a2.63,2.63,0,0,1-.58,1.3,20.15,20.15,0,0,1-3.13,1.77l-1.38.7-.68.36.6.47c3.4,2.69,8.76,3.9,13.67,3.07a15,15,0,0,0,10.48-6.71l.21-.34c.28-.47.64-1.05,1-1.11a.76.76,0,0,1,.58.23,3.24,3.24,0,0,1-.25,2.3,15.37,15.37,0,0,1-8.9,6.86A21.42,21.42,0,0,1,601.65,310a4.74,4.74,0,0,0-2.55-.69c-1.86-.08-3.74-.12-5.57-.15a97.32,97.32,0,0,1-11.18-.64,24.35,24.35,0,0,1-14.41-7.05,3.42,3.42,0,0,0-2.39-1.3h0a3.64,3.64,0,0,0-2.56,1.52c-2.66,2.89-5.52,5.7-8.29,8.41l-.83.82a38,38,0,0,1-27.17,11.18c-4,0-8-.14-12-.3l-3.29-.12C502,321.37,494,317,486.34,308.07l-.13-.14a2,2,0,0,1-.48-.72,10.55,10.55,0,0,1,0-1.78v-.07l.18.06a2.88,2.88,0,0,1,1.31.67c7.52,9.34,16.18,13.88,26.45,13.88h.24c2,0,4.1,0,6.1.08,3,.07,6.12.14,9.18,0,9.27-.41,17.62-4.39,24.81-11.83,2.2-2.27,4.41-4.52,6.69-6.84l3.5-3.56-1.51-2.27C561.55,293.88,560.4,292.15,559.28,290.42ZM351.42,287.6l-1.65-.45c-1.13-.3-2.21-.6-3.27-.93a12.53,12.53,0,0,1-8.16-9.35,12.19,12.19,0,0,1,3.1-11.83l.14-.13a4.78,4.78,0,0,1,1.49-1.1,1.18,1.18,0,0,1,.39-.06,5.76,5.76,0,0,1,.77.08l.17,0v.21a2.29,2.29,0,0,1-.22,1.08,8.81,8.81,0,0,1-1.21,1.24,9.16,9.16,0,0,0-2.56,10.74,10.76,10.76,0,0,0,6.61,7.24,36.78,36.78,0,0,0,4.56,1.08l1.05.2c.86.17,1.35.4,1.54.73A2.2,2.2,0,0,1,354,288l-.3.84a22,22,0,0,0-.73,2.21,10.59,10.59,0,0,0,2.34,9.29c2.54,3.22,6.47,5.35,9.7,5.27,7.15-.15,12.75-2.58,17.13-7.46,1-1.15,1.48-2.25.28-3.93-2-2.75-1.78-6.1-1.61-9.33l0-.48a2.83,2.83,0,0,1,.68-.61l.21-.16.16.16c.29.28.61.6.64.84a19.67,19.67,0,0,1,.15,2.58c0,.71,0,1.44.1,2.17.37,3.71,1.73,5.35,5.19,6.25,10.35,2.69,18.78,2.05,26.53-2,3.35-1.75,5.86-4.33,8.14-8.37,1.76-3.1,1.81-5.86.18-9.23-4.13-8.5-3.89-17.93-3.35-26.11,0-.48.06-.95.1-1.55l.08-1.34h-3.79c-11.8,0-22.46-8.22-24.8-19.07a23.26,23.26,0,0,1-.59-4.85c0-.23.34-.62.62-.93l.16-.17.16.13c.35.3.71.61.78.89a22.35,22.35,0,0,1,.48,2.66c.09.74.2,1.5.36,2.25,2.26,10.31,12.49,16.49,21,17.07.69.05,1.38.1,2.07.11,3.68.09,3.92-.06,5.16-3.15l.22-.54a59.83,59.83,0,0,1,4.39-8.32c.11-.2.77-.32,1.21-.41l.27-.05v.21a2.67,2.67,0,0,1-.11,1.32c-7.14,10.91-8.18,23.5-3.29,39.61a29.34,29.34,0,0,0,3.69,7.17c1.88,2.9,4.76,4.9,9.07,6.31l.43.11a1.67,1.67,0,0,1,.61.22,6.56,6.56,0,0,1,.81,1.25l.06.1-.21.11c-.35.18-.83.42-1,.36-3.68-1.18-7.49-2.4-10-5.81a3.14,3.14,0,0,0-.55-.54,4.82,4.82,0,0,1-.42-.35l-.52-.45-.67,1.57c-.27.62-.52,1.21-.78,1.79a19.67,19.67,0,0,1-9.27,9.78c-8.38,4.36-17.71,4.87-29.39,1.61l-.33-.1-.21.29c-5.58,7.79-13,11.07-22.62,10-2.79-.31-5.23-1.66-7.7-4.26-4.09-4.3-5.13-9.11-3.2-14.72l.17-.5ZM415,165.73a2.46,2.46,0,0,1-1.26.08c-5.73-3.06-11.57-2.74-19,1-7.89,4-13.2,10.68-16.72,20.9a3.37,3.37,0,0,1-1,1.18l-.14.12c0-.08-.09-.16-.13-.25-.26-.47-.58-1.06-.49-1.35,2.74-9.12,7.35-15.73,14.1-20.22,5.59-3.71,10.3-5.4,15.15-5.4h.73l.39,0,.12-.42,1.72.59c2,.68,4.06,1.38,6,2.22.21.09.43.74.57,1.16,0,.1.07.19.1.28Zm13.7,4.28a23.38,23.38,0,0,0-2.83.18,5.69,5.69,0,0,0-2.37,1.12,8.75,8.75,0,0,1-1.32.78,5.46,5.46,0,0,1-1.48.32h-.14c0-.08,0-.17,0-.25a2.61,2.61,0,0,1,.26-1.35c1.71-1.88,4.09-2.79,7.48-2.88,3.87.34,7.9,1.05,11.21,3.94a7.22,7.22,0,0,1,1.92,2.21,3.26,3.26,0,0,1,.06,1.55,1.5,1.5,0,0,1,0,.2l-.19-.07a2.88,2.88,0,0,1-1.29-.62A13.72,13.72,0,0,0,428.68,170Zm-96.84,65.9c-.11.61-.23,1.3-.57,1.51a1,1,0,0,1-.77,0,1.1,1.1,0,0,1-.74-.5c-.25-.51.09-1.38.36-2.09.07-.16.13-.32.19-.47,2.55-7.26,6.49-10.4,13.1-10.4H344c.79,0,1.57,0,2.36,0h1.5l.08-.47,3,.53c3.52.62,7.17,1.26,10.75,1.93a3,3,0,0,1,1.64.91,2.34,2.34,0,0,1,.22,1.07c0,.08,0,.16,0,.23l-.21.06a1.88,1.88,0,0,1-.86.14c-5.66-2.73-11.7-2.6-17.54-2.47l-2.85,0c-4.66,0-8.25,3.25-10.11,9C332,235.26,331.9,235.58,331.84,235.91Zm-114,33.47.14-.18.11.11a3.44,3.44,0,0,1,.84,1c.56,1.34,1.08,2.73,1.58,4.08.81,2.13,1.64,4.34,2.64,6.44a16.75,16.75,0,0,0,10.33,9c9.08,3,17.54,3.35,25.85,1.12a4.66,4.66,0,0,1,3.07.35c7.15,3.76,15.15,4.2,25.18,1.38a8.07,8.07,0,0,0,3.15-2.19,15.75,15.75,0,0,1,1.6-1.39,5.56,5.56,0,0,1,1.5-.64l.15,0c0,.07,0,.14,0,.22a2.91,2.91,0,0,1-.1,1.46,9.79,9.79,0,0,1-6.5,4.71c-2.52.54-5.11.95-7.61,1.34l-3.26.52c-4.79-.22-9.86-.79-14.56-3.45a3.26,3.26,0,0,0-1.58-.35,6.3,6.3,0,0,0-1.33.15,47.54,47.54,0,0,1-26.44-1.46,19.57,19.57,0,0,1-11.21-9.89c-1.24-2.38-2.43-4.94-3.52-7.6a9.22,9.22,0,0,1-.69-3.57A2.44,2.44,0,0,1,217.84,269.38ZM214.16,232a14.6,14.6,0,0,0-4.58,11.63,14.07,14.07,0,0,0,6.11,10.7l.29.21a6.08,6.08,0,0,1,1.49,1.28,1.63,1.63,0,0,1,.21,1.19,1.47,1.47,0,0,1-1.1.2c-4.45-2.34-9.33-8.76-9-13.53s1.15-9.62,5.2-12.93l.34-.29c.42-.37.9-.78,1.25-.75a.85.85,0,0,1,.51.36A3.06,3.06,0,0,1,214.16,232Z"/><path d="M683.47,350.36a23,23,0,0,0,19.18-10.46c1.05-1.54,2.13-2.78,4.58-2.37a11.49,11.49,0,0,0,3.44-.16l.73-.1c7.46-1,12.56-5.21,14-11.64s.59-15.51-6.48-19.75l-2.56-1.49-1.75-1,.73-1.2c.3-.5.58-1,.87-1.43,3.34-5.32,5.88-9.83,5.8-15.5-.1-7.41-1.44-15.53-10.61-19.6-2-.9-4-1.71-6.16-2.57-1-.39-2-.79-3-1.21l-.57-.23.35-.51c5.26-7.71,4.51-14.89-2.23-21.33l-.39-.38.4-.36c5.21-4.69,6.65-9.3,4.55-14.52-2.65-6.54-8.53-6.55-13.37-5.83l-.62.09,0-.62c.09-1.19.19-2.36.3-3.52.23-2.51.44-4.88.47-7.28.09-9.58-5.35-16.39-14.53-18.2a52.11,52.11,0,0,0-13.47-.75c-8.69.57-14.67,6.22-19.84,12.24a35.37,35.37,0,0,0-2.18,2.9c-.34.49-.69,1-1.06,1.49l-.53.71-.34-.82c-2.17-5.26-2.17-5.26-5.93-8.49l-.2-.17c-.46-.4-.64-1.22-.54-2.57s.22-2.5.36-3.71a43.83,43.83,0,0,0,.42-6.85,20.78,20.78,0,0,0-7.72-15.52,41.9,41.9,0,0,0-23-9c-2.08-.21-2.74-.87-2.94-3-.09-.9-.15-1.81-.22-2.73-.22-3.15-.46-6.42-1.62-9.18-5.47-12.92-14.55-20.18-27-21.58a39.11,39.11,0,0,0-12,.23c-2.83.56-4.39,0-6-2.09a49.59,49.59,0,0,0-25.71-18.27c-10.12-3.1-18.09-2.47-25.1,2-1.22.78-2.46,1.54-3.73,2.33l-2.1,1.31-.28-.28c-5.08-5-11.6-7.24-19.9-6.88a16.64,16.64,0,0,0-8.93,2.89c-.56.39-1.1.8-1.64,1.2a29.1,29.1,0,0,1-2.86,2,6,6,0,0,1-3.16.74c-1.81-.08-3.65-.23-5.43-.38a73.26,73.26,0,0,0-9.71-.37c-9.24.46-16.36,5.39-21.76,15.06-.14.25-.29.48-.45.73l-.61,1-.44-.55a1.66,1.66,0,0,0-.19-.23,1.49,1.49,0,0,1-.28-.41,6,6,0,0,1-.21-.64l-.08-.26c-3.12-9.71-9.65-17.25-19.4-22.38-9.12-4.8-19.75-5.41-32.53-1.87a93.84,93.84,0,0,0-9.12,3.21l-2.78,1.08-2,.74a37.94,37.94,0,0,0-6.62,2.87,28.24,28.24,0,0,0-6,5.36c-1.57,1.73-3,3.56-4.48,5.5L335.68,118l0,.07-.45.48-.31-.08-.88,0,.17-.22-.15,0c-.69-.24-1.37-.47-2-.74a30.86,30.86,0,0,0-19-1.12c-7.43,1.77-12.73,5.76-16.19,12.2-4.74,8.79-6.26,17.3-4.67,26,.15.83.36,1.66.57,2.53.1.42.21.85.31,1.29l.1.41-.38.16c-6.28,2.76-9.05,6.48-9,12.05.08,5.84,2.47,10.19,7.53,13.7l.75.52-.84.35c-5.54,2.32-8.6,5.69-9.62,10.63l-.13.61-.56-.26c-6.15-2.73-12.43-2.33-17.77-1.58a9.29,9.29,0,0,0-7.44,5.65c-.3.61-.61,1.22-1,1.92l-.92,1.82-.49-.59c-3.44-4.19-7.11-6.38-11.22-6.71-5.14-.4-11-.86-16.44-.08-8.82,1.27-14.94,6.61-17.24,15a43.45,43.45,0,0,0-1.1,9c-.07,1.31-.14,2.67-.27,4,0,.51,0,1,0,1.6,0,.27,0,.54,0,.82v.5h-.5q-1.35,0-2.64,0c-1.84,0-3.57-.05-5.31,0a16.5,16.5,0,0,0-13,7c-4.47,6-5.44,12.94-5.82,19.51-.62,10.54,2.29,18.95,8.88,25.72,2.25,2.31,4.53,4.66,7.74,5.26,3.6.67,7.47,1.24,11.85,1.74a26.87,26.87,0,0,0,4,.07l1.46,0h.54l0,.53c-.11,1.62-.24,3.22-.37,4.8-.3,3.62-.58,7-.59,10.52,0,4.44.38,9.58,3.5,14.09.79,1.14,1.57,2.29,2.35,3.44,1.57,2.34,3.19,4.75,4.92,7,6.57,8.57,14.11,13.78,23.06,15.91,6.86,1.63,13.76,1.92,21.41,2.1a45,45,0,0,0,21.38-4.6c7-3.43,14.83-8.07,19.77-16.49.52-.89,1.06-1.75,1.6-2.61l1-1.58.43.28c.5.32,1,.64,1.43.95.93.63,1.82,1.23,2.74,1.73,5.65,3.08,11.95,3.53,17.91,3.72a4.09,4.09,0,0,1,2.82,1.24c1,1.18,1.9,2.44,2.78,3.65,1,1.43,2.12,2.9,3.28,4.25,7.35,8.49,16.32,13.14,26.65,13.81,8.66.56,17.05.67,24.45-4.05a99.39,99.39,0,0,0,8.4-6.25c1.17-.94,2.33-1.87,3.51-2.78a10.45,10.45,0,0,0,1.06-1l.54-.5.48-.45.3.59c.29.57.55,1.12.8,1.66a23,23,0,0,0,1.56,3c8,12,18.77,19.91,32,23.59,9.85,2.73,19.79,2.88,30,2.79,16.11-.15,28.29-3.94,38.35-11.93,1.46-1.16,3-2.26,4.4-3.33l1.93-1.44.39-.3.31.39c.74.93,1.44,1.89,2.15,2.84a43.81,43.81,0,0,0,4.81,5.81c6.8,6.55,14,10.66,22.08,12.58,5.84,1.4,13.46,2.64,20.6-.14,4.45-1.72,8.13-2.41,12.74-.5s9.43,1.77,14.24,1.7l2.47,0A28.88,28.88,0,0,0,619.13,363,20.33,20.33,0,0,0,625,351.76c.3-2.1.64-4.2,1-6.25.15-.91.3-1.82.44-2.71l.07-.46,1.62.13c10.23.77,19.89,1.5,27.73-6.62l.43-.44.66,1c.19.28.36.53.52.79,5.54,9.15,13.14,13.46,23.28,13.19h1.35C682.55,350.37,683,350.38,683.47,350.36Zm-25.89-17.14c-.35-.75-.79-1.25-1-1.28a2,2,0,0,0-1.22.83c-2.62,4.52-6.86,7.07-13,7.8-5.44.64-10.75,1.07-16-.73a1.63,1.63,0,0,0-1.4,0,2.17,2.17,0,0,0-.63,1.58c-.19,2.51-.39,4.82-.63,7-1,9.73-9,20.69-24.14,21.77-6.69.47-12.69.67-18.26-1.71-5-2.14-8.94-1.32-13.29.57a22.56,22.56,0,0,1-9,1.75,42.75,42.75,0,0,1-9.94-1.37,45,45,0,0,1-26.55-17.85,18.45,18.45,0,0,1-1.26-2.07l-.06-.12a3.89,3.89,0,0,1-.31-.81l-.16-.47-.21-.63.66,0c8.84-.5,16.71-4,25.5-11.4l.16-.13a5.57,5.57,0,0,0,1.42-1.51,5.09,5.09,0,0,0,.35-1.6s0-.09,0-.14l-.18,0a3.42,3.42,0,0,0-1.47.4c-1.16.86-2.31,1.81-3.42,2.73a54.13,54.13,0,0,1-5.62,4.21c-8.59,5.3-16.1,6.62-23.65,4.18a47.69,47.69,0,0,1-18.85-11.59l-.9-.89c-1.67-1.64-3.4-3.35-5.16-4.95a1.92,1.92,0,0,0-.92-.24l-.19,0c0,.06,0,.12-.05.18a3.92,3.92,0,0,0-.24,1.23,2,2,0,0,0,.69,1c1.46,1.28,2.89,2.64,4.28,4,3.67,3.5,7.48,7.13,12.18,9.41,2.49,1.21,5,2.28,7.74,3.4,1.25.53,2.53,1.06,3.83,1.62l.72.31-1.3,1.15c-.56.51-1.16,1.05-1.78,1.57a59.55,59.55,0,0,1-38,14.18c-8.26.17-17.86.21-27.16-1.43a48.85,48.85,0,0,1-23.3-10.36c-4-3.33-7.9-6.66-11.07-10.92-3.49-4.67-4.72-10.12-5.92-15.39-.28-1.25-.57-2.5-.88-3.74a5.6,5.6,0,0,1-.13-1,2.85,2.85,0,0,0-.23-1.1,3.8,3.8,0,0,0-1.05-1l-.15-.12-.12.18c-.23.35-.52.79-.49,1,.59,3.53,1.25,6.65,2,9.54a3.7,3.7,0,0,1-1.15,4,50.53,50.53,0,0,1-15.47,11.42c-6.81,3.1-14.15,2.87-21.09,2.36-9.52-.69-17.57-4.85-24.62-12.72-1.45-1.62-2.84-3.3-4.18-4.93l-1.81-2.17-.41-.5.59-.27,2.58-1.2c2.13-1,4.14-1.89,6-2.92.26-.14.45-.7.62-1.2l.08-.23-.25,0a2.73,2.73,0,0,0-1.42,0c-8.73,4.76-18.2,4.62-29.79-.44a15.36,15.36,0,0,1-5.58-4.95c-1.53-2.08-2.91-4.32-4.24-6.48-.86-1.41-1.75-2.86-2.67-4.25a3.35,3.35,0,0,0-1.23-.87l-.19-.09-.06.24c-.14.49-.32,1.1-.19,1.33,2,3.57,4.17,7.09,6.4,10.44a3.1,3.1,0,0,1,.15,3.79c-8.86,15-22.38,22.7-40.17,23a121.2,121.2,0,0,1-20.7-1.67c-9-1.39-16.55-6.38-23.65-15.69a119.22,119.22,0,0,1-7-10.2,18.69,18.69,0,0,1-2.47-6.24c-1.45-7.93-1.17-14.87.85-21.2a6.53,6.53,0,0,1,.63-1.3,7.61,7.61,0,0,0,.49-.93,9.87,9.87,0,0,0,.54-1.58,2.51,2.51,0,0,0-1.77-.56,29.58,29.58,0,0,1-21.26-1.28c-5.84-2.63-9.08-8.18-11.48-13.27-2.18-4.61-2.27-9.59-2.17-14.29.12-5.93.83-12.8,5.15-18.9a14.52,14.52,0,0,1,11.89-6.56,57.07,57.07,0,0,1,7.18.4l1.71.16a1.67,1.67,0,0,0,1.27-.21c.26-.25.38-.8.37-1.76,0-.8,0-1.6,0-2.4a71.63,71.63,0,0,1,.3-10.14c1.21-9.7,7.89-16.33,17.43-17.3a82,82,0,0,1,14.36.25h.25a13.79,13.79,0,0,1,9,4.72c.69.72,1.23,1.26,1.76,1.72,1,.87,1.74,1.24,2.25,1.1s.85-.71,1.18-1.75c1.93-6.09,6.17-8.75,13.35-8.36l1.27.07c3.49.16,7.11.33,10.38,2.5a1.73,1.73,0,0,0,1.48.41c.42-.16.77-.75,1-1.72,1.86-7.3,4.33-9.46,12-10.5a3.54,3.54,0,0,0,1.38-.74l.26-.19c-.08-.1-.16-.21-.25-.31a3.34,3.34,0,0,0-1.19-1.14,14.52,14.52,0,0,1-9.63-16.22c.77-4.14,3.93-6,6.83-7.38s2.83-1.37,2-4.39a32.62,32.62,0,0,1,2.1-23.67l.1-.22c2.26-4.64,4.6-9.44,9.77-12,9.08-4.54,18-4.68,27.33-.43l.41.19-.92,2.66c-.63,1.84-1.24,3.57-1.8,5.35a7,7,0,0,0-.45,2.68,2.46,2.46,0,0,0,.67,1l.15.16.13-.1a2.52,2.52,0,0,0,.74-.84c.35-1,.63-2,.9-3s.49-1.76.78-2.64A40,40,0,0,1,349,106.34a11.22,11.22,0,0,1,4.63-2.39A44.7,44.7,0,0,0,363,101c1.76-.7,3.57-1.41,5.41-2,11.78-3.66,21.81-3.32,30.64,1,12.15,6,19.2,15.49,21,28.26a8.38,8.38,0,0,1,0,1.5,7.77,7.77,0,0,0,0,.83,6.78,6.78,0,0,1-.1,1c-.08.53-.16,1.08,0,1.34a1,1,0,0,0,.61.27,6,6,0,0,0,1.28-2.24,27.22,27.22,0,0,0,.73-2.86,21.75,21.75,0,0,1,1.15-4c3.92-9.1,10.41-14.35,19.27-15.59a44.79,44.79,0,0,1,16.73.66,5.76,5.76,0,0,0,3.6-.75,20,20,0,0,0,2.8-1.93c.64-.5,1.3-1,2-1.46l.19-.13a11.17,11.17,0,0,1,3.6-1.8c9.92-2.17,17.34-.26,22.69,5.83a20.18,20.18,0,0,0,8.61,6c4.77,1.72,8,5.48,9.84,11.51a3.22,3.22,0,0,1-.93,2.74,28.08,28.08,0,0,0-7.82,13.6c0,.11-.06.23-.1.36a1.69,1.69,0,0,0-.12.45,11.43,11.43,0,0,0,.79,1.43l.05.08.11-.09a3.1,3.1,0,0,0,.89-.94c.5-1.11.95-2.28,1.38-3.4a49.22,49.22,0,0,1,2.24-5.19c2.69-5.1,7.35-7.87,13.86-8.24,1.1-.07,2.22-.06,3.29-.06,1.24,0,2.52,0,3.76-.08a3.21,3.21,0,0,0,1.34-.68l.17-.12-.18-.17c-.34-.33-.82-.8-1.06-.76-3.74.17-7.53.5-11.2.82l-1.68.15a6.67,6.67,0,0,0-1.21.28l-.5.15-.38.09-.19-.34-1.18-2.24c-.85-1.61-1.65-3.13-2.53-4.63-2.6-4.43-7-6.42-11-7.78a6.54,6.54,0,0,1-1.87-1.19c-.24-.2-.48-.4-.72-.57l-.48-.34.41-.42.54-.59a8.26,8.26,0,0,1,1.34-1.3c9.48-6.92,19.91-7.31,32.84-1.24a49.7,49.7,0,0,1,18.3,14.75,7.72,7.72,0,0,0,.53.61,7.07,7.07,0,0,1,.67.78c1.79,2.46,3.66,3,6.68,1.83,2.31-.87,5-.76,7.56-.66l.49,0c9.7.37,17.58,4.17,23.43,11.28A31.64,31.64,0,0,1,598,157c-.14,3.23-.14,3.23,3.35,3.44,9.2.55,17,3.51,23.16,8.78s8.36,12.67,6.65,22.11c0,.25-.11.49-.17.73s-.08.27-.11.41c-.92,3.88-.92,3.88,2,6l.44.31a11.65,11.65,0,0,1,3.2,4.53,10.89,10.89,0,0,1,.72,2.8,16.39,16.39,0,0,0,.4,1.9,2.45,2.45,0,0,0,1,1.43,2.39,2.39,0,0,0,1.5-.94,41.09,41.09,0,0,0,3-4.25c2.77-4.41,6.7-8.09,12.39-11.57a14.08,14.08,0,0,1,5.25-2c6.58-.93,14.16-1.58,20.94,2.45,5.33,3.16,7.92,7.74,7.71,13.62,0,.53,0,1.05-.05,1.58-.09,3.47-.19,7.07-1.75,10.47a2.3,2.3,0,0,0,.17,1.93,2.89,2.89,0,0,0,2,.35c.8-.06,1.61-.21,2.4-.35a22.93,22.93,0,0,1,3-.39A7.41,7.41,0,0,1,702,224a9.35,9.35,0,0,1,.05,9.26,18.27,18.27,0,0,1-4,4.47c-.69.58-1.32,1.18-1.32,1.6s.37.8,1.2,1.51c6,5.16,7.18,10.62,3.68,17.18a9.4,9.4,0,0,1-1.77,2.15,12.53,12.53,0,0,0-1.22,1.34c-.69.91-.92,1.59-.84,1.84a2.21,2.21,0,0,0,1.59.85c5.45-.19,9.86,2,14.84,5.38,3.85,2.6,4.84,6.69,5.58,11,1.07,6.15-.33,11.92-4.26,17.62a40.87,40.87,0,0,0-2.78,4.87,1.74,1.74,0,0,0-.21,1.38,1.93,1.93,0,0,0,1.23.93c8.19,3,11.42,9.32,9.86,19.32-.81,5.18-4.28,8.6-10.32,10.16a34.13,34.13,0,0,1-5.06.78c-.86.09-1.77.18-2.73.31l-.82.1.28-.77c.19-.54.37-1,.54-1.47.32-.88.58-1.58.8-2.31l.36-1.19c.65-2.17,1.33-4.42,1.83-6.66.05-.24-.24-.72-.47-1.11,0-.08-.1-.16-.14-.24l-.18.12c-.37.23-.79.5-.88.75-1.26,3.63-2.56,7.38-3.57,11.24-2.16,8.28-12.89,14.66-20.14,14.07a14.76,14.76,0,0,0-1.76,0C670.5,348.88,662.5,343.75,657.58,333.22Z"/><path d="M385.49,296.94l.33.1c11.68,3.26,21,2.75,29.39-1.61a19.67,19.67,0,0,0,9.27-9.78c.26-.58.51-1.17.78-1.79l.67-1.57.52.45a4.82,4.82,0,0,0,.42.35,3.14,3.14,0,0,1,.55.54c2.47,3.41,6.28,4.63,10,5.81.19.06.67-.18,1-.36l.21-.11-.06-.1a6.56,6.56,0,0,0-.81-1.25,1.67,1.67,0,0,0-.61-.22l-.43-.11c-4.31-1.41-7.19-3.41-9.07-6.31a29.34,29.34,0,0,1-3.69-7.17c-4.89-16.11-3.85-28.7,3.29-39.61a2.67,2.67,0,0,0,.11-1.32v-.21l-.27.05c-.44.09-1.1.21-1.21.41a59.83,59.83,0,0,0-4.39,8.32l-.22.54c-1.24,3.09-1.48,3.24-5.16,3.15-.69,0-1.38-.06-2.07-.11-8.48-.58-18.71-6.76-21-17.07-.16-.75-.27-1.51-.36-2.25a22.35,22.35,0,0,0-.48-2.66c-.07-.28-.43-.59-.78-.89l-.16-.13-.16.17c-.28.31-.62.7-.62.93a23.26,23.26,0,0,0,.59,4.85c2.34,10.85,13,19.05,24.8,19.07h3.79l-.08,1.34c0,.6-.07,1.07-.1,1.55-.54,8.18-.78,17.61,3.35,26.11,1.63,3.37,1.58,6.13-.18,9.23-2.28,4-4.79,6.62-8.14,8.37-7.75,4.07-16.18,4.71-26.53,2-3.46-.9-4.82-2.54-5.19-6.25-.07-.73-.08-1.46-.1-2.17a19.67,19.67,0,0,0-.15-2.58c0-.24-.35-.56-.64-.84l-.16-.16-.21.16a2.83,2.83,0,0,0-.68.61l0,.48c-.17,3.23-.35,6.58,1.61,9.33,1.2,1.68.75,2.78-.28,3.93-4.38,4.88-10,7.31-17.13,7.46-3.25.09-7.16-2.05-9.7-5.27a10.59,10.59,0,0,1-2.34-9.29,22,22,0,0,1,.73-2.21l.3-.84a2.2,2.2,0,0,0,.14-1.65c-.19-.33-.68-.56-1.54-.73l-1.05-.2a36.78,36.78,0,0,1-4.56-1.08,10.76,10.76,0,0,1-6.61-7.24A9.16,9.16,0,0,1,343,266.39a8.81,8.81,0,0,0,1.21-1.24,2.29,2.29,0,0,0,.22-1.08v-.21l-.17,0a5.76,5.76,0,0,0-.77-.08,1.14,1.14,0,0,0-.39.06,4.78,4.78,0,0,0-1.49,1.1l-.14.13a12.19,12.19,0,0,0-3.1,11.83,12.53,12.53,0,0,0,8.16,9.35c1.06.33,2.14.63,3.27.93l1.65.45.51.15-.17.5c-1.93,5.61-.89,10.42,3.2,14.72,2.47,2.6,4.91,3.95,7.7,4.26,9.63,1.07,17-2.21,22.62-10Z"/><path d="M511.43,321.72l3.29.12c3.92.16,8,.32,12,.3A38,38,0,0,0,553.85,311l.83-.82c2.77-2.71,5.63-5.52,8.29-8.41a3.64,3.64,0,0,1,2.56-1.52h0a3.42,3.42,0,0,1,2.39,1.3,24.35,24.35,0,0,0,14.41,7.05,97.32,97.32,0,0,0,11.18.64c1.83,0,3.71.07,5.57.15a4.74,4.74,0,0,1,2.55.69,21.42,21.42,0,0,0,19.08,3.31,15.37,15.37,0,0,0,8.9-6.86,3.24,3.24,0,0,0,.25-2.3.76.76,0,0,0-.58-.23c-.33.06-.69.64-1,1.11l-.21.34a15,15,0,0,1-10.48,6.71c-4.91.83-10.27-.38-13.67-3.07l-.6-.47.68-.36,1.38-.7a20.15,20.15,0,0,0,3.13-1.77,2.63,2.63,0,0,0,.58-1.3l.06-.22h-.15a4.75,4.75,0,0,0-1.58.09,9.21,9.21,0,0,0-1.8.86c-.39.22-.78.43-1.19.62-4.74,2.2-9.79,2-14.68,1.82l-.58,0c-11.39-.43-19.64-4.85-25.23-13.52-.55-.87-1.09-1.74-1.62-2.62-.74-1.24-1.52-2.52-2.35-3.73a3.06,3.06,0,0,0-1.15-.79l-.15-.08a1.24,1.24,0,0,1,0,.16,5,5,0,0,0-.27,1.59,4.33,4.33,0,0,0,.8,1.71l.07.11c1.12,1.73,2.27,3.46,3.39,5.14l1.51,2.27-3.5,3.56c-2.28,2.32-4.49,4.57-6.69,6.84-7.19,7.44-15.54,11.42-24.81,11.83-3.06.13-6.18.06-9.18,0-2,0-4.08-.1-6.1-.08h-.24c-10.27,0-18.93-4.54-26.45-13.88a2.88,2.88,0,0,0-1.31-.67l-.18-.06v.07a10.55,10.55,0,0,0,0,1.78,2,2,0,0,0,.48.72l.13.14C494,317,502,321.37,511.43,321.72Z"/><path d="M233.48,289.83a16.75,16.75,0,0,1-10.33-9c-1-2.1-1.83-4.31-2.64-6.44-.5-1.35-1-2.74-1.58-4.08a3.44,3.44,0,0,0-.84-1l-.11-.11-.14.18a2.44,2.44,0,0,0-.65,1.11,9.22,9.22,0,0,0,.69,3.57c1.09,2.66,2.28,5.22,3.52,7.6a19.57,19.57,0,0,0,11.21,9.89A47.54,47.54,0,0,0,259.05,293a6.3,6.3,0,0,1,1.33-.15,3.26,3.26,0,0,1,1.58.35c4.7,2.66,9.77,3.23,14.56,3.45l3.26-.52c2.5-.39,5.09-.8,7.61-1.33a9.84,9.84,0,0,0,6.5-4.72,2.91,2.91,0,0,0,.1-1.46c0-.08,0-.15,0-.22l-.15,0a5.56,5.56,0,0,0-1.5.64,15.75,15.75,0,0,0-1.6,1.39,8.07,8.07,0,0,1-3.15,2.19c-10,2.82-18,2.38-25.18-1.38a4.66,4.66,0,0,0-3.07-.35C251,293.18,242.56,292.82,233.48,289.83Z"/><path d="M415.19,165.69c0-.09-.07-.18-.1-.28-.14-.42-.36-1.07-.57-1.16-1.95-.84-4-1.54-6-2.22l-1.72-.59-.12.42-.39,0h-.73c-4.85,0-9.56,1.69-15.15,5.4-6.75,4.49-11.36,11.1-14.1,20.22-.09.29.23.88.49,1.35,0,.09.09.17.13.25l.14-.12a3.37,3.37,0,0,0,1-1.18c3.52-10.22,8.83-16.86,16.72-20.9,7.38-3.78,13.22-4.1,19-1a2.46,2.46,0,0,0,1.26-.08Z"/><path d="M644.94,301.14l.09.21a3,3,0,0,0,.78,1.2c4.86,2.91,10.35,3.71,15.56,4.13,1.26-.18,2.54-.33,3.81-.48a57.7,57.7,0,0,0,8.4-1.38,22.46,22.46,0,0,0,14.83-11.9,3.23,3.23,0,0,0,0-2.27.8.8,0,0,0-.59-.14c-.31.09-.58.66-.82,1.16l-.22.43A20.86,20.86,0,0,1,673.15,303c-10.14,2.57-18.83,1.91-26.58-2a2.6,2.6,0,0,0-1.38.13Z"/><path d="M330.12,234.83c-.27.71-.61,1.58-.36,2.09a1.1,1.1,0,0,0,.74.5,1,1,0,0,0,.77,0c.34-.21.46-.9.57-1.51.06-.33.12-.65.2-.93,1.86-5.78,5.45-9,10.11-9l2.85,0c5.84-.13,11.88-.26,17.54,2.47a1.93,1.93,0,0,0,.87-.14l.2-.06c0-.07,0-.15,0-.23a2.34,2.34,0,0,0-.22-1.07,3,3,0,0,0-1.64-.91c-3.58-.67-7.23-1.31-10.75-1.93l-3-.53-.08.47h-1.5c-.79,0-1.57,0-2.36,0h-.62c-6.61,0-10.55,3.14-13.1,10.4C330.25,234.51,330.19,234.67,330.12,234.83Z"/><path d="M214.39,229.69c-.35,0-.83.38-1.25.75l-.34.29c-4.05,3.31-4.77,8-5.2,12.93s4.53,11.19,9,13.53a1.47,1.47,0,0,0,1.1-.2,1.63,1.63,0,0,0-.21-1.19,6.08,6.08,0,0,0-1.49-1.28l-.29-.21a14.07,14.07,0,0,1-6.11-10.7A14.6,14.6,0,0,1,214.16,232a3.06,3.06,0,0,0,.74-1.93A.85.85,0,0,0,214.39,229.69Z"/><path d="M439.5,171.88c-3.31-2.89-7.34-3.6-11.21-3.94-3.39.09-5.77,1-7.48,2.88a2.61,2.61,0,0,0-.26,1.35v.25h.14a5.46,5.46,0,0,0,1.48-.32,8.75,8.75,0,0,0,1.32-.78,5.69,5.69,0,0,1,2.37-1.12,23.38,23.38,0,0,1,2.83-.18,13.72,13.72,0,0,1,11.3,5.14,2.88,2.88,0,0,0,1.29.62l.19.07a1.5,1.5,0,0,0,0-.2,3.26,3.26,0,0,0-.06-1.55A7.22,7.22,0,0,0,439.5,171.88Z"/></g></g></g></g></svg>