<svg xmlns="http://www.w3.org/2000/svg" viewBox="0 0 798.19 411.28"><defs><style>.cls-1{fill:#fff;}</style></defs><g id="Layer_2" data-name="Layer 2"><g id="Mobile"><g id="_04" data-name="04"><path class="cls-1" d="M796.07,160.94c-.32-6.45-3.89-10.66-10.32-12.19a42.05,42.05,0,0,0-8.75-.82l-2-.06c-.81,0-1.6-.09-1.84-.37s-.22-.72-.1-1.69a72.49,72.49,0,0,0,.58-8.46c0-4-2.31-6.52-6.13-6.69a34.45,34.45,0,0,0-8.39.93c-1.06.23-1.66.23-2,0a2,2,0,0,1-.44-1.47c0-.43,0-.85,0-1.28s0-.66,0-1c0-5.13-2-8.47-6.1-10.18a69.68,69.68,0,0,0-6.9-2.55c-3.74-1.11-8.49,1.54-9.79,5.45l-.1.31.42.38c3.67,3.3,3.74,3.36,4.85,6.87,2.1,6.67,1.26,13.32.15,19a7.15,7.15,0,0,1-1.65,2.89,1.56,1.56,0,0,1-1.15.08,1.54,1.54,0,0,1-.22-1.06c2.49-4.34,2.28-9,2.07-13.55,0-.63-.06-1.26-.08-1.88a22.13,22.13,0,0,0-1.68-6.76c-1.21-3.3-6.65-6.69-9.68-6.08a59.61,59.61,0,0,0-7.37,2.21l-1.27.44a8.27,8.27,0,0,0-1.57.8,6.7,6.7,0,0,1-1.47.73,3.55,3.55,0,0,1-1.44,0l-.15,0c0-.08.05-.16.08-.24.17-.52.35-1.06.63-1.23,1.27-.8,2.66-1.49,4-2.16.75-.37,1.49-.74,2.22-1.13l.12-.07c.76-.4,1.61-.85,1.63-1.52s0-1.23.08-1.85c.16-3.23.33-6.56-1.2-9.82-1.41-3-3.91-4.6-6.33-6.15l-1.12-.74c-1.39-.91-1.61-1.74-.91-3.41,3.19-7.57,3-14.92-.5-21.84-1.87-3.66-4.71-8-10.17-9.16a43.48,43.48,0,0,0-18.58-.29,2.07,2.07,0,0,1-1.55-.07,1.83,1.83,0,0,1-.57-1.26A10.42,10.42,0,0,0,671,54.74a29.16,29.16,0,0,0-5.92,1.11c-.93.24-1.89.49-2.84.69l-.73.17a6.93,6.93,0,0,1-1.64.29,4.91,4.91,0,0,1-.65-2.88c.35-5,.5-10.21-1.83-15a8.75,8.75,0,0,0-3.21-3.77c-3.8-2-11.12-.87-14.52,2.3-.63.6-1.09.87-1.43.84s-.8-.41-1.46-1.26A80.11,80.11,0,0,0,629.85,29c-4.51-4.49-10.13-3.93-15.56-3.38l-1.24.12a4.33,4.33,0,0,0-2.14,1.13l-.14.11c-2.4,1.87-2.4,1.87-4.71.09a11.26,11.26,0,0,0-13.37-.81,21.54,21.54,0,0,0-4.39,4.3L588,31c-4.76,5.58-6.91,11.28-6.57,17.42h0c-.23.36-.48.73-.72,1.09l-.12-.11c-.23-.23-.67-.65-.67-.81a36.6,36.6,0,0,1,.62-4.14c.11-.55.21-1.09.31-1.64.12-.74.27-1.47.42-2.2a35.56,35.56,0,0,0,.76-5.05c.31-5.63-2.31-9.91-7.2-11.73a26.55,26.55,0,0,0-14-1.27c-1.05.18-1.67.15-2-.11s-.47-.79-.53-1.73c-.48-7.13-4.83-11.6-11.91-12.29l-.69-.07a30.68,30.68,0,0,0-3.48-.21c-4.82.11-8.65,1.26-11.71,3.52a13.14,13.14,0,0,0-1.92,1.88A13.17,13.17,0,0,1,527.12,15a3.15,3.15,0,0,1-1.31.5l-.16,0V15.5a11.84,11.84,0,0,1,0-1.69c0-.17.36-.52.48-.63,1.14-1.13,1.2-2.4.17-3.9-1.69-2.45-3.88-5-7.28-5.81C502.85-.19,493.5,3,485.7,14.73a15.67,15.67,0,0,0-2.37,7c-.12,1.34-.26,2.46-.6,2.67s-1.36-.17-2.42-.61c-3.3-1.39-8.18-1.67-11.65.83-1.74,1.25-3.74,3.71-3.4,8.34a2.46,2.46,0,0,1-.47,1.93,2.69,2.69,0,0,1-2,.62,13.31,13.31,0,0,0-1.9.08c-8.65,1.08-13.23,5.43-14,13.3,0,.08,0,.17,0,.27a1.34,1.34,0,0,1-.14.64,5.12,5.12,0,0,1-.86,1c-.31,0-.74-.38-1.29-1a1.55,1.55,0,0,1-.13-.62l-.06-.48C443,41.8,438.91,38,432.07,37.22a77.17,77.17,0,0,0-9.42-.44c-7.41.12-13.43,1.7-18.4,4.83-6.22,3.92-9.42,8.28-10.06,13.71a43.19,43.19,0,0,0,2.28,20.26,74.62,74.62,0,0,0,3.3,7.34c.74,1.52,1.52,3.09,2.21,4.66a4.18,4.18,0,0,1,.15,1.74c0,.15,0,.29,0,.43h-.3a2.57,2.57,0,0,1-1.32-.25c-5.73-4.46-12.53-6.3-20.81-5.62-14.25,1.18-23,8.67-26.07,22.27a14.66,14.66,0,0,0,.14,7.93c2.05,5.53,4.93,11.74,10.71,15.89.64.46,1,.87,1,1.22s-.35.84-1.06,1.39l-1.16.86a31.13,31.13,0,0,0-3,2.43c-9.27,8.9-12.54,20.31-10,34.88a15.91,15.91,0,0,0,2.75,6.2,47.41,47.41,0,0,0,21.55,17.12c7.05,2.78,14.59,5.55,22.51,6.27,9.88.9,20.4-.41,33.1-4.11a38.73,38.73,0,0,0,18.6-11.46c.63-.7,1.14-1.06,1.52-1s.78.45,1.22,1.22c2.77,4.78,7.24,7.48,11.26,9.48a64.57,64.57,0,0,0,25.07,7.11c2.23.15,4.43.26,6.61.26,6.43,0,12.57-1,18.07-4.94,3-2.16,5.48-3.14,8.59-1.38a4.73,4.73,0,0,0,1.83.44l.36,0c1.94.24,3.87.51,5.81.78,4.42.62,9,1.26,13.5,1.45l4.95.26c9.93.54,20.19,1.1,30.13-2.34,6.81-2.36,12.3-6.82,16.8-13.65l.29-.44-.45-.27-1.49-.84a29.36,29.36,0,0,1-2.92-1.77,42.07,42.07,0,0,1-4.86-4,2.73,2.73,0,0,1,0-1.06c0-.1,0-.19,0-.29h.25a2.11,2.11,0,0,1,1.07.16,25.39,25.39,0,0,0,11.53,6.78l.73.18c7.1,1.77,14.43,3.59,21.4-1.43a3.09,3.09,0,0,1,2,.65,22.14,22.14,0,0,1,2,2,18.54,18.54,0,0,0,2.73,2.5,35,35,0,0,0,15,5.7l3.85.63c6.6,1.09,13.42,2.21,20.31,2a15.56,15.56,0,0,0,9.38-3.33c3-2.38,5-5.6,6.27-10.46a2.87,2.87,0,0,1,1-1.12l.14-.12.09.18a3.9,3.9,0,0,1,.53,1.6,10.17,10.17,0,0,1-.51,2.47c-.12.41-.25.84-.36,1.28l-.12.5.51.11a58.66,58.66,0,0,0,18.78.76c1.2-.14,2.54-1,4-2.58a15.91,15.91,0,0,0,2.27-3.61l.3-.58c.61-1.19,1-1.72,1.39-1.8s.94.19,2,1c3,2.21,6.63,4.52,11,4.89,5.81.5,11.68.79,16.64,1a6.3,6.3,0,0,0,3.29-.93c3.85-2.25,8.12-5.09,10.1-10.3.33-.85.7-1.34,1.12-1.44s1.11.21,1.93.95c.39.35.76.72,1.13,1.09,7.62,7.68,17.3,10.61,28.77,8.72a11.35,11.35,0,0,0,9.13-7.45C796.35,169.5,796.29,165.09,796.07,160.94ZM637.72,92a35.24,35.24,0,0,1-2-3.88,2.19,2.19,0,0,1,.26-.94l.11-.26.23,0a5.16,5.16,0,0,1,.74.15c.41.82.86,1.63,1.31,2.45a24.23,24.23,0,0,1,2.92,6.88c1.14,6-1.39,10.4-7.51,13l-2.18.94.41.51c5.91,7.36,9.05,15.12,9.58,23.74a3.18,3.18,0,0,0,.06.43,1.63,1.63,0,0,1,0,.46c-.27.59-.6,1.14-.94,1.73l0,.05a1.47,1.47,0,0,0-.1-.13,2.59,2.59,0,0,1-.74-1.2c-.18-7-2.79-13.09-5-17.62s-5.8-7.72-11-10a32.86,32.86,0,0,0-13.36-2.84c-6.13,0-12.7,1.66-20.18,5a32,32,0,0,0-7,4.83c-1.16,1-2.35,1.94-3.57,2.81a5.91,5.91,0,0,1-2.13.88,1,1,0,0,1-.36-.68c0-.45.6-1,1.07-1.39l.2-.18c6.58-6,12.34-9.36,18.68-11,5.61-1.44,11.6-2.77,17.63-1.89a54.32,54.32,0,0,1,12,3.76,7,7,0,0,0,5.31.32,10.1,10.1,0,0,0,5.94-15.34ZM518.31,82.3c10.11.67,17.09,6,20.76,15.71.12.32.25.64.38,1a18.46,18.46,0,0,1,1.16,3.68,2.79,2.79,0,0,1-.65,2,.76.76,0,0,1-.55,0c-.25-.14-.39-.7-.5-1.2,0-.15-.07-.3-.11-.44-1.82-6.73-5.09-14.82-14.37-17.6A36.38,36.38,0,0,0,514,83.82,27.94,27.94,0,0,0,495.21,91c-2.48,2.15-3.26,5.17-4,8.09-.18.67-.35,1.33-.54,2a5.77,5.77,0,0,1-.72,1.39l-.16.26-.36-.2a3.13,3.13,0,0,1-1.19-.92c-1.89-3.86-4.58-5.91-8.5-6.44-4.16-.57-7.29,1.38-8.8,5.47a8.51,8.51,0,0,0-.24.91c-.13.58-.27,1.24-.6,1.42a1.1,1.1,0,0,1-.84-.06,1,1,0,0,1-.63-.49c-.2-.45.1-1.2.36-1.86l.23-.61c1.76-5.25,6-7.59,11.61-6.44,3.28.68,5.83,1.73,7.56,4.63l.44.73.42-.74.27-.44a2.5,2.5,0,0,0,.29-.56C493.1,86.35,502,83.63,510.21,82.38A37,37,0,0,1,518.31,82.3ZM414.67,149.37l-.38.79c-2.76,5.73-7.39,9.14-14.17,10.43-7.52,1.42-14-.49-20.28-6-3.7-3.23-5.61-8.5-5.25-14.47.45-7.29,4.07-14.1,9.46-17.76l.25-.2.23-.18a14.36,14.36,0,0,1,1.58.12h.08a1.36,1.36,0,0,1,0,.17,2.64,2.64,0,0,1-.4,1.16,22.1,22.1,0,0,1-1.81,1.67,18.76,18.76,0,0,0-2.19,2.09c-5.43,6.38-6.9,13.45-4.25,20.45,2.13,5.6,8.85,11.45,16.43,11.54,10.29.14,16.54-3.89,20.3-13a3.17,3.17,0,0,1,1-1.06l.24-.2c.07.1.15.19.22.28a3.32,3.32,0,0,1,.81,1.31,14.86,14.86,0,0,0,8.92,11.43c8.06,3.57,17,3.89,27.41,1,4.49-1.27,7.34-4.72,10.09-8,.63-.76,1.26-1.52,1.91-2.25a6.17,6.17,0,0,0,.52-.74,2.44,2.44,0,0,1,.63-.78,4.8,4.8,0,0,1,1.44-.54l.13,0,0,.23c.05.45.12,1,0,1.21-1.81,2.38-3.86,4.84-6.24,7.51A19.05,19.05,0,0,1,448.05,162l-.71,0a78,78,0,0,1-14.25.16c-8.19-.91-12.21-3.63-17.94-12.11Zm166.74-101,.47,0h0l-.49.14A.39.39,0,0,1,581.41,48.4Z"/><path d="M755.2,173.68a5.52,5.52,0,0,1,.69.56c7.29,7.31,16.4,10.32,27.88,9.18,7-.69,11.38-4.23,13.3-10.81a30.65,30.65,0,0,0-.26-17.3,9.44,9.44,0,0,0-2.7-4.08A19.41,19.41,0,0,0,781,145.92c-1.14,0-2.27,0-3.38,0h-2v-2.84c0-1.69,0-3.25,0-4.81,0-6.18-3.3-9.54-9.5-9.7-1.52,0-3,0-4.62,0H758.8l0-.48c0-.11,0-.24,0-.39,0-.33,0-.75-.07-1.14-.51-3.64-1.3-7.34-4.8-9.12a70.69,70.69,0,0,0-11.55-4.5,5.61,5.61,0,0,0-3.91.8,49.78,49.78,0,0,0-4.94,3.65c-.69.55-1.38,1.11-2.09,1.66l-.15.12-6.83-.61v-.46c0-.19,0-.4,0-.62,0-.52,0-1.11,0-1.7.56-7.94-2.14-13.34-8.27-16.51-1.65-.85-1.4-2.05-1-3.22,2.63-7.57,2.4-14.78-.69-21.42-3.52-7.57-8.76-11.39-16-11.68-3.29-.13-6.64-.09-9.88-.06l-4.38,0h-.32l-.13-.29c-1.86-3.9-4.22-7.71-8.83-9.22-3.86-1.27-7.58-.33-11.52.66l-1.51.37-.61.15V52.22c0-1.19,0-2.32,0-3.45-.15-5-1-8.67-2.82-11.87a7.58,7.58,0,0,0-6.38-4.12c-4.49-.39-9.14-.38-12.76,2.31l-.34.26-.31-.3-2.61-2.59c-1.95-1.93-3.79-3.76-5.68-5.57a12.27,12.27,0,0,0-8-3.25L621,23.55a29.32,29.32,0,0,0-5.38,0A18.42,18.42,0,0,0,610,25.25c-1.12.53-1.94.92-3.27,0a13.86,13.86,0,0,0-19.53,3.39l-1.63,2.22-1.25,1.69-.4-.57-.21-.29a1.36,1.36,0,0,1-.33-.57c-1.28-5.71-5-9-11.46-10.06-2.49-.41-5-.59-7.6-.79-1.18-.09-2.36-.18-3.56-.29l-.39,0-.09-.58c0-.21-.08-.49-.11-.77C559.68,13.78,554.51,8,550,7c-5.55-1.12-9.75-1.13-13.6,0a49,49,0,0,0-4.8,1.75c-.74.3-1.49.6-2.25.89l-.38.14-.22-.34c-2-3.14-4.14-6.07-7.67-7.25-8.1-2.72-15.63-2.91-22.37-.57-8.82,3.05-14.8,9.63-17.79,19.56l-.13.42-.43-.07-1-.17c-.78-.13-1.59-.27-2.4-.37a13.05,13.05,0,0,0-10.27,2.84,10.05,10.05,0,0,0-3.24,7.85c0,1.87-1.27,2-2.21,2H461c-4.4.34-7.78,1.55-10.31,3.69a25.48,25.48,0,0,0-3.46,3.87c-.5.64-1,1.29-1.53,1.92l-.44.52-.37-.58c-3.41-5.45-8.67-8-16.54-8.16-.62,0-1.24,0-1.86-.07s-1.5-.06-2.24-.06h-.2c-8.81,0-15.55,1.71-21.18,5.36-6.64,4.32-10,8.94-10.48,14.54a63.39,63.39,0,0,0,.87,15.51,67,67,0,0,0,2.47,9.48c.44,1.42.89,2.86,1.3,4.31l.29,1-1-.44a33.22,33.22,0,0,0-16.18-2.72c-15.28,1-25.1,9.18-28.41,23.58-1,4.51-.66,8.53,1.12,11.92,2.47,4.72,5,9.6,9.12,13.37l.32.3-.24.35a1.74,1.74,0,0,0-.11.18,1.59,1.59,0,0,1-.39.49c-10.42,8.23-15,19.65-14,34.91a20.86,20.86,0,0,0,3.79,11.06,51.69,51.69,0,0,0,22.39,17.77c14.56,6.12,27.9,8,40.79,5.78,4-.7,8.1-1.75,12-2.76,2.08-.54,4.24-1.1,6.38-1.6a26.46,26.46,0,0,0,10.75-5.34c1.36-1.12,2.72-2.3,4-3.44l1.83-1.59.4-.35.32.43a33.26,33.26,0,0,0,11.8,9.33,69.9,69.9,0,0,0,28.34,7.37c10.69.54,18.41-1.42,25-6.36a3.81,3.81,0,0,1,2.65-.71c2.07.33,4.16.72,6.19,1.1,3.55.67,7.23,1.36,10.86,1.7,4.08.39,8.25.55,12.29.7,3.3.13,6.71.25,10.07.51a55.75,55.75,0,0,0,16.63-1.46,34.35,34.35,0,0,0,8.26-2.89,32.69,32.69,0,0,0,12.91-11.62c1-1.65,2.16-1.78,3.87-1.45,6.52,1.26,13.91,2.69,20.9-1.08l.32-.18.27.26a30.26,30.26,0,0,0,12,7.61,110.51,110.51,0,0,0,32.49,5c6.2.15,11.13-2.37,15.07-7.59a3.65,3.65,0,0,1,2.83-1.19c4.25.24,8.54.59,12.76,1,6.77.73,11.27-1.7,13.76-7.41a1.11,1.11,0,0,1,.4-.43,1.5,1.5,0,0,0,.25-.19l.31-.25.32.25a26.82,26.82,0,0,0,14.39,5.5,111.14,111.14,0,0,0,13.64.41,13.41,13.41,0,0,0,5.7-1.91c3.53-2,7.39-4.74,9.24-9.62l.24-.63.53.41Zm-1.52-3.24c-.42.1-.79.59-1.12,1.44-2,5.21-6.25,8.05-10.1,10.3a6.5,6.5,0,0,1-3.29.93c-5-.21-10.83-.5-16.64-1-4.34-.37-8-2.68-11-4.89-1-.78-1.61-1.05-2-1s-.78.61-1.39,1.8l-.3.58a15.91,15.91,0,0,1-2.27,3.61c-1.45,1.57-2.79,2.44-4,2.58a58.66,58.66,0,0,1-18.78-.76l-.51-.11.12-.5c.11-.44.24-.87.36-1.28a10.17,10.17,0,0,0,.51-2.47,3.9,3.9,0,0,0-.53-1.6l-.09-.18-.14.12a2.87,2.87,0,0,0-1,1.12c-1.29,4.86-3.23,8.08-6.27,10.46A15.56,15.56,0,0,1,666,193c-6.9.23-13.71-.89-20.31-2l-3.85-.63a35,35,0,0,1-15-5.7,18.54,18.54,0,0,1-2.73-2.5,22.14,22.14,0,0,0-2-2,3.09,3.09,0,0,0-2-.65c-7,5-14.3,3.2-21.4,1.43l-.73-.18A25.39,25.39,0,0,1,586.34,174a2.11,2.11,0,0,0-1.07-.16H585c0,.1,0,.19,0,.29a2.73,2.73,0,0,0,0,1.06,42.07,42.07,0,0,0,4.86,4,29.36,29.36,0,0,0,2.92,1.77l1.49.84.45.27-.29.44c-4.5,6.83-10,11.29-16.8,13.65-9.94,3.44-20.2,2.88-30.13,2.34l-4.95-.26c-4.52-.19-9.08-.83-13.5-1.45-1.94-.27-3.87-.54-5.81-.78l-.36,0a4.73,4.73,0,0,1-1.83-.44c-3.11-1.76-5.59-.78-8.59,1.38-5.5,4-11.64,4.94-18.07,4.94-2.18,0-4.38-.11-6.61-.26a64.57,64.57,0,0,1-25.07-7.11c-4-2-8.49-4.7-11.26-9.48-.44-.77-.85-1.18-1.22-1.22s-.89.3-1.52,1a38.73,38.73,0,0,1-18.6,11.46c-12.7,3.7-23.22,5-33.1,4.11-7.92-.72-15.46-3.49-22.51-6.27A47.41,47.41,0,0,1,353,176.94a15.91,15.91,0,0,1-2.75-6.2c-2.55-14.57.72-26,10-34.88a31.13,31.13,0,0,1,3-2.43l1.16-.86c.71-.55,1.06-1,1.06-1.39s-.34-.76-1-1.22c-5.78-4.15-8.66-10.36-10.71-15.89a14.66,14.66,0,0,1-.14-7.93c3-13.6,11.82-21.09,26.07-22.27,8.28-.68,15.08,1.16,20.81,5.62a2.57,2.57,0,0,0,1.32.25h.3c0-.14,0-.28,0-.43a4.18,4.18,0,0,0-.15-1.74c-.69-1.57-1.47-3.14-2.21-4.66a74.62,74.62,0,0,1-3.3-7.34,43.19,43.19,0,0,1-2.28-20.26c.64-5.43,3.84-9.79,10.06-13.71,5-3.13,11-4.71,18.4-4.83a77.17,77.17,0,0,1,9.42.44c6.84.74,11,4.58,12.29,11.43l.06.48a1.55,1.55,0,0,0,.13.62c.55.66,1,1,1.29,1a5.12,5.12,0,0,0,.86-1,1.34,1.34,0,0,0,.14-.64c0-.1,0-.19,0-.27.8-7.87,5.38-12.22,14-13.3a13.26,13.26,0,0,1,1.9-.08,2.69,2.69,0,0,0,2-.62,2.46,2.46,0,0,0,.47-1.93c-.34-4.63,1.66-7.09,3.4-8.34,3.47-2.5,8.35-2.22,11.65-.83,1.06.44,2.08.82,2.42.61s.48-1.33.6-2.67a15.67,15.67,0,0,1,2.37-7C493.5,3,502.85-.19,519,3.47c3.4.76,5.59,3.36,7.28,5.81,1,1.5,1,2.77-.17,3.9-.12.11-.47.46-.48.63a11.84,11.84,0,0,0,0,1.69v.08l.16,0a3.15,3.15,0,0,0,1.31-.5,13.17,13.17,0,0,0,1.47-1.51,13.14,13.14,0,0,1,1.92-1.88c3.06-2.26,6.89-3.41,11.71-3.52a28.53,28.53,0,0,1,3.48.21l.69.07c7.08.69,11.43,5.16,11.91,12.29.06.94.23,1.5.53,1.73s.94.29,2,.11a26.55,26.55,0,0,1,14,1.27c4.89,1.82,7.51,6.1,7.2,11.73a35.56,35.56,0,0,1-.76,5.05c-.15.73-.3,1.46-.42,2.2-.1.55-.2,1.09-.31,1.64a36.6,36.6,0,0,0-.62,4.14c0,.16.44.58.67.81l.12.11c.24-.36.49-.73.72-1.09h0C581,42.26,583.19,36.56,588,31l.35-.4a21.54,21.54,0,0,1,4.39-4.3,11.26,11.26,0,0,1,13.37.81c2.31,1.78,2.31,1.78,4.71-.09l.14-.11a4.33,4.33,0,0,1,2.14-1.13l1.24-.12c5.43-.55,11.05-1.11,15.56,3.38a80.11,80.11,0,0,1,6.89,8.17c.66.85,1.1,1.23,1.46,1.26s.8-.24,1.43-.84c3.4-3.17,10.72-4.33,14.52-2.3a8.75,8.75,0,0,1,3.21,3.77c2.33,4.83,2.18,10.08,1.83,15a4.91,4.91,0,0,0,.65,2.88,6.93,6.93,0,0,0,1.64-.29l.73-.17c.95-.2,1.91-.45,2.84-.69A29.16,29.16,0,0,1,671,54.74a10.48,10.48,0,0,1,10.52,9.16,1.83,1.83,0,0,0,.57,1.26,2.07,2.07,0,0,0,1.55.07,43.48,43.48,0,0,1,18.58.29c5.46,1.15,8.3,5.5,10.17,9.16,3.52,6.92,3.69,14.27.5,21.84-.7,1.67-.48,2.5.91,3.41l1.12.74c2.42,1.55,4.92,3.15,6.33,6.15,1.53,3.26,1.36,6.59,1.2,9.82,0,.62-.06,1.23-.08,1.85s-.87,1.12-1.63,1.52l-.12.07c-.73.39-1.47.76-2.22,1.13-1.34.67-2.73,1.36-4,2.16-.28.17-.46.71-.63,1.23,0,.08,0,.16-.08.24l.15,0a3.55,3.55,0,0,0,1.44,0,6.7,6.7,0,0,0,1.47-.73,8.27,8.27,0,0,1,1.57-.8l1.27-.44a59.61,59.61,0,0,1,7.37-2.21c3-.62,8.47,2.78,9.68,6.08a22.13,22.13,0,0,1,1.68,6.76c0,.62.05,1.25.08,1.88.21,4.53.42,9.21-2.07,13.55a1.54,1.54,0,0,0,.22,1.06,1.56,1.56,0,0,0,1.15-.08,7.15,7.15,0,0,0,1.65-2.89c1.11-5.63,1.95-12.28-.15-19-1.11-3.51-1.18-3.57-4.85-6.87l-.42-.38.1-.31c1.3-3.91,6-6.56,9.79-5.45a69.68,69.68,0,0,1,6.9,2.55c4.09,1.71,6.08,5,6.1,10.18,0,.33,0,.66,0,1s0,.85,0,1.28a2,2,0,0,0,.44,1.47c.31.23.91.23,2,0a34.45,34.45,0,0,1,8.39-.93c3.82.17,6.11,2.67,6.13,6.69a72.49,72.49,0,0,1-.58,8.46c-.12,1-.08,1.47.1,1.69s1,.34,1.84.37l2,.06a42.05,42.05,0,0,1,8.75.82c6.43,1.53,10,5.74,10.32,12.19.22,4.15.28,8.56-1.43,12.81a11.35,11.35,0,0,1-9.13,7.45c-11.47,1.89-21.15-1-28.77-8.72-.37-.37-.74-.74-1.13-1.09C754.79,170.65,754.14,170.33,753.68,170.44Z"/><path d="M433.09,162.2a78,78,0,0,0,14.25-.16l.71,0a19.05,19.05,0,0,0,13.26-6.56c2.38-2.67,4.43-5.13,6.24-7.51.15-.19.08-.76,0-1.21l0-.23-.13,0a4.8,4.8,0,0,0-1.44.54,2.44,2.44,0,0,0-.63.78,6.17,6.17,0,0,1-.52.74c-.65.73-1.28,1.49-1.91,2.25-2.75,3.33-5.6,6.78-10.09,8-10.38,2.92-19.35,2.6-27.41-1a14.86,14.86,0,0,1-8.92-11.43,3.32,3.32,0,0,0-.81-1.31c-.07-.09-.15-.18-.22-.28l-.24.2a3.17,3.17,0,0,0-1,1.06c-3.76,9.12-10,13.16-20.3,13-7.58-.09-14.3-5.94-16.43-11.54-2.65-7-1.18-14.07,4.25-20.45a18.76,18.76,0,0,1,2.19-2.09,22.1,22.1,0,0,0,1.81-1.67,2.64,2.64,0,0,0,.4-1.16,1.36,1.36,0,0,0,0-.17h-.08a14.36,14.36,0,0,0-1.58-.12l-.23.18-.25.2c-5.39,3.66-9,10.47-9.46,17.76-.36,6,1.55,11.24,5.25,14.47,6.32,5.53,12.76,7.44,20.28,6,6.78-1.29,11.41-4.7,14.17-10.43l.38-.79.48.72C420.88,158.57,424.9,161.29,433.09,162.2Z"/><path d="M626.88,107.71a54.32,54.32,0,0,0-12-3.76c-6-.88-12,.45-17.63,1.89-6.34,1.63-12.1,5-18.68,11l-.2.18c-.47.42-1.06.94-1.07,1.39a1,1,0,0,0,.36.68,5.91,5.91,0,0,0,2.13-.88c1.22-.87,2.41-1.85,3.57-2.81a32,32,0,0,1,7-4.83c7.48-3.35,14-5,20.18-5a32.86,32.86,0,0,1,13.36,2.84c5.18,2.25,8.77,5.51,11,10s4.87,10.62,5,17.62a2.59,2.59,0,0,0,.74,1.2,1.47,1.47,0,0,1,.1.13l0-.05c.34-.59.67-1.14.94-1.73a1.63,1.63,0,0,0,0-.46,3.18,3.18,0,0,1-.06-.43c-.53-8.62-3.67-16.38-9.58-23.74l-.41-.51,2.18-.94c6.12-2.65,8.65-7,7.51-13a24.23,24.23,0,0,0-2.92-6.88c-.45-.82-.9-1.63-1.31-2.45a5.16,5.16,0,0,0-.74-.15l-.23,0-.11.26a2.19,2.19,0,0,0-.26.94,35.24,35.24,0,0,0,2,3.88l.41.73A10.1,10.1,0,0,1,632.19,108,7,7,0,0,1,626.88,107.71Z"/><path d="M540.61,102.66A18.46,18.46,0,0,0,539.45,99c-.13-.33-.26-.65-.38-1-3.67-9.76-10.65-15-20.76-15.71a37,37,0,0,0-8.1.08c-8.24,1.25-17.11,4-20.42,14.72a2.5,2.5,0,0,1-.29.56l-.27.44-.42.74-.44-.73c-1.73-2.9-4.28-4-7.56-4.63-5.61-1.15-9.85,1.19-11.61,6.44l-.23.61c-.26.66-.56,1.41-.36,1.86a1,1,0,0,0,.63.49,1.1,1.1,0,0,0,.84.06c.33-.18.47-.84.6-1.42a8.51,8.51,0,0,1,.24-.91c1.51-4.09,4.64-6,8.8-5.47,3.92.53,6.61,2.58,8.5,6.44a3.13,3.13,0,0,0,1.19.92l.36.2.16-.26a5.77,5.77,0,0,0,.72-1.39c.19-.65.36-1.31.54-2,.76-2.92,1.54-5.94,4-8.09A27.94,27.94,0,0,1,514,83.82a36.38,36.38,0,0,1,10.45,1.63c9.28,2.78,12.55,10.87,14.37,17.6,0,.14.07.29.11.44.11.5.25,1.06.5,1.2a.76.76,0,0,0,.55,0A2.79,2.79,0,0,0,540.61,102.66Z"/></g><g id="_01" data-name="01"><path class="cls-1" d="M648.11,300.79c-5.28-5-11.33-9.58-19.76-8.76-3.64.34-7.26.93-11,1.55-1.36.23-2,.23-2.6-.75-4-6.75-10.19-10-18.78-10a26.68,26.68,0,0,0-14.06,3.63c-1.11.67-1.71.5-2.46-.71a15.37,15.37,0,0,0-11.66-7.23,45.42,45.42,0,0,0-6.62-.12c-1,0-2,.05-3.08.05h-.45l0,.45q-.09.83-.15,1.56a18.18,18.18,0,0,1-.43,3c0,.17-.46.43-.74.6l-.21.13-.09-.1a2.82,2.82,0,0,1-.6-.88,2.44,2.44,0,0,1,0-1c0-.22.05-.44.06-.65.12-4-.08-8.76-2.4-13.21-2.46-4.74-5.75-9.92-11.48-12.47-7.25-3.21-15-3.06-20.88-2.57a18,18,0,0,0-5.9,1.95c-1.37.64-2.68,1.42-3.95,2.17-.85.51-1.7,1-2.57,1.48s-1.31.53-1.62.36-.51-.75-.55-1.65c0-.48,0-1,0-1.46s0-1.14,0-1.71c-.34-5.64-4.15-9.16-9.67-8.94a24.1,24.1,0,0,0-3.7.55,26.3,26.3,0,0,1-2.77.48,5.07,5.07,0,0,1-1.76-.28l-.34-.1c0-.09.06-.18.1-.27a6.6,6.6,0,0,1,.72-1.56c.62-.88,1.3-1.74,2-2.58a34.59,34.59,0,0,0,3.21-4.53,13.85,13.85,0,0,0,.81-11.27,13.34,13.34,0,0,0-7.27-8.09,28.38,28.38,0,0,0-6-1.54c-1.14-.21-2.33-.42-3.45-.71a3.33,3.33,0,0,1-1.19-.78l-.19-.17c.07-.07.13-.15.2-.23a3.1,3.1,0,0,1,1.13-1,19,19,0,0,1,3.65-.56l.72-.06c13.58-1.29,21.48-8,24.87-21a37.79,37.79,0,0,0-1.83-24c-.24-.59-.49-1.18-.74-1.76-1.52-3.61-3-7-1.79-11a8.65,8.65,0,0,0,0-3.65c-.06-.42-.13-.83-.17-1.24-.34-3.56-2.3-6.16-6-7.93-5.31-2.57-10.83-1.92-16.16-1.3l-.53.06a3.52,3.52,0,0,1-2.52-.42c-4.43-5.47-10.46-8.7-18.41-9.87-7.51-1.11-14.46,1.08-21.27,6.67l-.5.41c-1.31,1.08-2.67,2.2-4.08,3.19a2,2,0,0,1-1.1.2,2.42,2.42,0,0,1-.31-1.62c0-.16.25-.43.44-.64s.23-.26.33-.39c8.87-11.72,9.27-28.26.94-39.31-.39-.52-.77-1.06-1.15-1.59-1.93-2.72-3.92-5.52-7.43-6.57a4.57,4.57,0,0,1-3.58-3.88A19.23,19.23,0,0,0,407.84,73c-9.24-2.76-17.7-1.07-24.46,4.9a3.35,3.35,0,0,1-2.58.51,32.65,32.65,0,0,0-15.67-.2,14.65,14.65,0,0,0-6.57,3.26A47.42,47.42,0,0,0,351,90.23c-.73,1.1-1.49,2.2-2.25,3.29-2.77,4-5.64,8.14-7.11,13-.05.17-.58.43-.9.59l-.3.15c-.06-.09-.13-.17-.19-.25a2.45,2.45,0,0,1-.58-1.06,46.52,46.52,0,0,0-3.11-14.92l-.47-1.2c-1.75-4.56-3.57-9.27-7.81-12.59a51,51,0,0,0-14.77-8c-12.08-4.18-24.68-3.68-37.48,1.47C265.5,75,258.58,82.82,255.43,94c-.18.63-.35,1.25-.52,1.88-.45,1.67-.91,3.39-1.49,5-.08.23-.5.49-.88.71l-.18.11-.12-.22a2.4,2.4,0,0,1-.46-1.17,31.47,31.47,0,0,1,1.37-4.92c.52-1.54.14-2.45-1.35-3.26-7.71-4.16-16.38-4.88-26.5-2.2-8.15,2.16-12.86,7.64-14,16.27-.93,7-.15,14.34,2.37,22.48.41,1.33.22,1.78-1,2.39a9,9,0,0,0-3.46,3.09,14.14,14.14,0,0,0,1.24,16.2,43.11,43.11,0,0,0,4.89,4.78c.53.45,1.93,1.64,1.85,2.13s-1.71,1.06-2.24,1.26c-14.7,5.34-23.07,19.88-19.9,34.57.29,1.31.2,2.24-.24,2.61s-1.38.32-2.64-.17c-7.41-2.85-15-3.46-24.21-3.46h-.45c-9.73,0-19.91,1.12-28.45,8.95-10,9.21-15.73,17.61-18.43,27.24a75.27,75.27,0,0,0-2,11.32c-.24,2-.49,4.08-.83,6.09A3,3,0,0,1,117,247a1.34,1.34,0,0,0-.11.14l-.15-.21a2.8,2.8,0,0,1-.68-1.33c.48-8.08,1.41-16.66,5-24.71a2.41,2.41,0,0,0-.51-2.51c-.9-.55-1.8-1.12-2.7-1.7a44,44,0,0,0-8.33-4.54c-6.36-2.33-13.44-3.41-22.26-3.41h-.36A35.46,35.46,0,0,0,64,217.11c-5.55,4.48-8.67,10.6-11.68,16.53l-.36.72c-4.92,9.65-5.67,20.1-2.25,31.08.31,1,.69,2,1.06,3,.43,1.11.87,2.26,1.2,3.4a2.67,2.67,0,0,1-.25,1.32l-.07.21-.17-.08a2.62,2.62,0,0,1-1.1-.71,9.6,9.6,0,0,1-.75-1.75,10.16,10.16,0,0,0-.84-2c-.39-.63-1.79-2-2.66-1.62l-1.32.53a31.83,31.83,0,0,0-7.18,3.62c-4.23,3.13-5.82,8.16-7.23,12.6,0,.14-.09.28-.13.43-.39,1.35-.64,1.73-1.46,1.53a1,1,0,0,1-.68-.39c-.17-.34.08-1,.28-1.52.06-.15.11-.29.16-.43.71-2,1.46-4,2.25-6.18.32-.85.65-1.71,1-2.59l.17-.44-.44-.19c-4.74-2-8.62-2.07-12.19-.08a36.51,36.51,0,0,0-5.84,4C9.34,281.61,4.84,286,3,292.05c-1.3,4.17-2.23,8.55,1.78,12.25,4.75,4.38,16.35,5.24,21.41,1.59a3.75,3.75,0,0,0,1.06-1.68c.07-.18.14-.37.22-.53q.43-1,.84-1.92c.58-1.31,1.17-2.67,1.86-3.93.09-.15.65-.3,1-.38l.2-.05a1.29,1.29,0,0,0,0,.19,2.55,2.55,0,0,1-.56,2.67,7.45,7.45,0,0,0-.5.79c-1.29,2.35-1.43,4.34-.42,6.1,3.85,6.7,8.7,12.94,18,13.26l1.52.08a19.48,19.48,0,0,0,4.45-.06c5.88-1,10.06-3.2,13.16-6.91A56.68,56.68,0,0,1,72.59,308a3,3,0,0,1,1.34-.47l.34-.07c0,.1.07.2.1.31a4.07,4.07,0,0,1,.28,1.45c-.32,3.08.38,4.22,3.22,5.32,3.9,1.51,7.71,1,11.64-1.46A2.93,2.93,0,0,1,91,313l.21,0a1.43,1.43,0,0,0-.08.22,3.14,3.14,0,0,1-.75,1.38,13,13,0,0,1-10.08,2.52c-3.83-.69-6.63-1.87-7.84-5.34l-.23-.67-.55.44a17.86,17.86,0,0,0-6.55,9.63c-1.32,5.54.4,12.67,7.26,15.22a42.83,42.83,0,0,0,13.34,2.7c10,.4,18-2.18,24.47-7.95,3.74-3.3,7.6-6.72,8.33-12.3a1.24,1.24,0,0,1,.68-.69,1.65,1.65,0,0,1,1,.62,3.64,3.64,0,0,1,.47,1.07c.08.23.16.47.25.69,1.65,3.87,4,5.17,8.24,4.47a9.05,9.05,0,0,0,1-.23,4.13,4.13,0,0,1,1.53-.22,3.69,3.69,0,0,1,2.09,1,7.91,7.91,0,0,1-.68,1.64,9.7,9.7,0,0,1-.85,1.27c-.18.24-.36.48-.52.73-3,4.41-3.86,8.9-2.55,13,1.54,4.8,6,8.89,12.28,11.22,4.46,1.66,9.49,2.1,15.84,1.4,9-1,15.11-5.47,18.75-13.66a4.06,4.06,0,0,1,.93-1.16l.18-.19.15.19c.39.45.78.9,1.19,1.33a17.22,17.22,0,0,1,1.14,1.35,7.66,7.66,0,0,0,3.11,2.75c6.19,2.14,14.23,3.81,21.57-2.35l.31-.26a3.91,3.91,0,0,1,1.17-.82,2.68,2.68,0,0,1,1.06,0H207a2.72,2.72,0,0,0,0,.28,3.77,3.77,0,0,1,0,.85l-.83.69a30.49,30.49,0,0,1-5.42,3.84l-.26.12c-2.47,1.24-3,1.6-2.37,4.65a16.51,16.51,0,0,0,.88,2.88c3,7.61,9,12.08,18.54,13.66a5.48,5.48,0,0,0,1.27,0l.44,0h.39l.1-.37c.15-.57.29-1.14.43-1.69a42.24,42.24,0,0,1,1.15-4.07c0-.15.52-.37.8-.5l.22-.1.11.16a2.4,2.4,0,0,1,.47,1,4.78,4.78,0,0,1-.3,1.36,7.57,7.57,0,0,0-.31,1.18c-1.34,8.55.77,15.11,6.44,20.09,5,4.37,10.84,6.52,16.43,8.18,8.36,2.5,14.73,1.51,20.06-3.1a15.12,15.12,0,0,1,1.73-1.24l.51-.34c.49-.33,1-.7,1.41-.62a.85.85,0,0,1,.47.41,3,3,0,0,1-1,1.8c-2.18,1.53-4.4,2.94-6.75,4.43L259,397.18l-.55.35.48.44.37.35a10.74,10.74,0,0,0,1.05.91c6.11,4.44,11.18,7.13,16.43,8.72a34,34,0,0,0,10,1.46,41.71,41.71,0,0,0,8.36-.88c3.33-.67,6.21-2.45,9.33-5.78a8.33,8.33,0,0,0,1.46-2.58c.16-.4.33-.79.51-1.16l.22-.44-.42-.23-.56-.28-.25-.12c-.38-.48-.74-1-1.1-1.48l0,0,.12,0a3.44,3.44,0,0,1,1.39-.33,12,12,0,0,1,2.09.51,17.32,17.32,0,0,0,1.82.48c10.2,1.83,22.13,2.81,33.18-3.91,4.71-2.86,10-6.4,12.8-12.17a75.08,75.08,0,0,0,5.51-14.39l.06-.24c1-3.88,2.22-8.7-2.71-11.91a3.09,3.09,0,0,1-.23-1.11c0-.08,0-.17,0-.25h.27a2.49,2.49,0,0,1,1.34.22,53.12,53.12,0,0,0,27.27,12.27c13.43,1.84,23.83-1.57,31.85-10.41.78-.86,1.3-.89,2.17-.11,1.79,1.59,3.74,3.15,5.8,4.64A95.6,95.6,0,0,0,452,373a14.22,14.22,0,0,0,3.83.94c7.11.38,14.22.68,22.11,1a105.29,105.29,0,0,0,32.41-3.23c4.9-1.33,8.31-3.38,10.75-6.44a72.73,72.73,0,0,0,12.39-23.39l.11-.37c.15-.53.35-1.18.66-1.33a.83.83,0,0,1,.6.06,3,3,0,0,1,.34,2.18l-.13.36a112.72,112.72,0,0,1-4.92,11.89,90,90,0,0,1-4.61,7.77c-.75,1.17-1.51,2.36-2.26,3.57l-.3.5.53.22,1.28.59a20.06,20.06,0,0,0,2.87,1.17,52.13,52.13,0,0,0,35.05-1.88c10.87-4.41,14.65-14.39,16.55-21.51a3,3,0,0,0-1.74-3.85,24.45,24.45,0,0,1-4.65-3.35c-.18-.16-.22-.74-.25-1.2,0-.08,0-.16,0-.24h.19a3.31,3.31,0,0,1,1.36.24c1.18.69,2.35,1.46,3.48,2.2s2.48,1.63,3.76,2.37c3.82,2.21,8.2,2.58,13.77,1.18,1.71-.43,3.73-1.25,4.15-3.76a3.47,3.47,0,0,1,.71-1.23,6.38,6.38,0,0,1,2.14,1.29,5.55,5.55,0,0,1,.82,1.09,5.18,5.18,0,0,0,1.17,1.43c1.7,1.33,3.54,2.53,5.32,3.69l.67.43c9.81,6.42,19.55,7.2,28.92,2.31,4.11-2.14,6.74-5.19,7.63-8.82.92-3.82-.15-8.18-3-12.27-2-2.82-4.25-4.39-6.91-4.79l-.28,0-.18.21c-5.15,6.05-9.15,9.36-16.76,10.65-12,2-23.39-1.24-33.88-9.74-.41-.33-.58-.62-.58-.72a4.81,4.81,0,0,1,.16-1.32.68.68,0,0,0,0-.14l.18,0a2.58,2.58,0,0,1,1.09.29,21,21,0,0,1,1.7,1.42,16.91,16.91,0,0,0,2.34,1.86c8.16,5.08,16.24,7.38,24.68,7,8.78-.37,21.33-6.52,21.74-19,0-.34.45-.82.83-1.24l.17-.18.11.18a2.94,2.94,0,0,1,.62,1.42,45.42,45.42,0,0,1-.79,4.91q-.21,1.08-.42,2.22l-.09.53.53.06c.35,0,.7.1,1,.16a5.76,5.76,0,0,0,2.26.1c3.42-.84,7.13-2.32,8.71-7C651.3,309.38,652.16,304.66,648.11,300.79Zm-263.39-1.47.87-.37c3.06-1.32,6.22-2.67,8.05-6,2.46-4.41,3.49-8.33,3.24-12.32,0-.42-.06-.84-.09-1.26a39,39,0,0,1-.14-4.32,4.17,4.17,0,0,1,.6-1.57,1.09,1.09,0,0,1,.08-.15l.16.16c.4.4.85.85.87,1.18a77.14,77.14,0,0,1,0,11c-.15,1.54,0,3.19,2.27,3.63l3.21.63c4.31.86,8.78,1.75,13.21,2.33a37.31,37.31,0,0,0,5.88.13c1.43-.05,2.9-.09,4.32,0,5.72.33,10.78-1.83,15.68-3.91l1.2-.5c4.78-2,8.09-6.05,9.85-12a43.28,43.28,0,0,0,1.19-6.45c.1-.75.21-1.51.32-2.26a14.73,14.73,0,0,0,.11-1.48,8.22,8.22,0,0,1,.19-1.83,2.73,2.73,0,0,1,.77-.93l.14-.13.15.17c.28.31.62.69.62.92,0,7.82-1.31,13.48-4.34,18.37-2.58,4.17-6.35,6.9-12.6,9.13-14.48,5.15-28.7,2.68-39.47-.05a15.92,15.92,0,0,1-2.14-.76c-.41-.16-.85-.34-1.34-.52l-.48-.18-.17.49c-1.72,5.17-5.46,8.58-11.4,10.44a3.11,3.11,0,0,1-1.43-.15l-.2-.06c0-.07.07-.15.11-.23C384.2,300,384.45,299.44,384.72,299.32ZM242.77,215c-.13.32-.34.86-.5.92-4.5,1.78-7.16,5.46-9.74,9l-.2.27a20.14,20.14,0,0,0-3.6,14.16,19.13,19.13,0,0,0,7.88,13.22l.21.15c2.1,1.52,4.27,3.09,6.5,4.5,3.16,2,6.73,1.94,10.19,1.88h.17c.22,0,.45,0,.68,0a3.22,3.22,0,0,1,1.17,0,3.16,3.16,0,0,1,1,.69l.1.09-.17.21c-.19.24-.56.69-.71.72-2.34,0-4.74-.07-7.06-.16l-1.92-.08c-.26,0-.52-.06-.87-.11s-.42-.08-.68-.11l-.47-.07-.1.47c-1,4.95.32,9.34,4.13,14.24,3.07,3.93,7.47,6.16,13.08,6.62l.81.06A22.17,22.17,0,0,1,266,282a1.44,1.44,0,0,1,.68.87,1.48,1.48,0,0,1-.84.71c-6.77.3-12.84-1.75-17.1-5.76a20.08,20.08,0,0,1-6.17-14.66c-.05-3.37-.89-4.95-3.44-6.52-4.7-2.89-7.83-6-9.86-9.69-3.75-6.86-3.58-14,.48-21.23a44.94,44.94,0,0,1,6.84-8.44l.48-.5a11.76,11.76,0,0,1,4.06-2.32l.44-.19h.09a3.66,3.66,0,0,1,.94.31l.22.1Zm1.58,90.35a7,7,0,0,0,.26-.69c0-.13.09-.26.14-.39.47-1.25.91-1.9,1.32-2s1.06.31,2,1.24c6.31,6.24,14.42,8.77,24.77,7.74a14.53,14.53,0,0,0,5.72-2.41c.59-.35,1.18-.7,1.76-1a2.94,2.94,0,0,0,1-2.3c0-.78,0-1.58,0-2.35a21.66,21.66,0,0,1,0-3c0-.24.45-.61.79-.9l.19-.17c.05.06.09.12.14.17.25.31.59.73.57.94-.89,10.48,5.85,15.5,14.07,20.54a27.8,27.8,0,0,0,15.38,4.08,24.45,24.45,0,0,0,6.12-1.23q.9-.27,1.8-.51l.65-.21c1.07-.37,1.36-.39,1.59.24a3.32,3.32,0,0,1-1.37,1.61c-8.22,4.18-16.3,1.61-22.43-1.09-7.57-3.34-12.9-7.93-16.3-14l-.24-.43-.43.23c-11.94,6.23-23.59,4.94-34.61-3.85l-.45-.36-.29.49c-.09.16-.19.3-.29.45a5.65,5.65,0,0,0-.6,1.08,33,33,0,0,1-9.08,12.77c-5.75,5-11.53,7.18-17.72,6.7a2.65,2.65,0,0,1-1.11-.7l-.18-.15c.06,0,.11-.11.17-.17.32-.31.72-.7,1-.7C230.41,324.6,238.57,318.37,244.35,305.3ZM98.24,287a20.38,20.38,0,0,1-11,7.61c-9,2.44-15.23-.95-19.17-10.37-.61-1.47-.29-3.45,0-5.36.09-.58.18-1.15.25-1.7,0-.16.59-.49.89-.67l.23-.14.1.2a2.48,2.48,0,0,1,.4,1.21c-1,6.54,1.94,12.2,7.57,14.78,3.54,1.62,7.62,1.36,11.79-.76,3.18-1.61,6.69-3.68,8.13-7.93.12-.36.33-.79.67-.88s.9.19,1.5.75l.49.47a39.41,39.41,0,0,0,4,3.44,8.14,8.14,0,0,0,6.77,1.67,1.31,1.31,0,0,1,1.21.19,1.43,1.43,0,0,1,.19,1.33c-1.08,4.35,1.18,7.3,3.78,9.84a34,34,0,0,0,11.21,7.39,11.52,11.52,0,0,0,9.79-.28c1.08-.53,1.81-.68,2.16-.48s.54.88.59,2a13.17,13.17,0,0,0,3,7.7c5.54,7.1,11.57,11,19,12.25a21,21,0,0,0,17.54-4.37c1.39-1.12,2.72-2.34,4-3.52,1.06-1,2.14-2,3.25-2.9a3,3,0,0,1,1.31-.45l.21,0v.22a2.34,2.34,0,0,1-.07,1.25,26.75,26.75,0,0,1-18.92,11.56,26.41,26.41,0,0,1-21.08-5.89,45.89,45.89,0,0,1-6.6-6.93,33.35,33.35,0,0,1-3-5.17c-.42-.86-.85-1.74-1.33-2.62l-.17-.33-.37.07c-5.95,1.19-12.84-.56-18.44-4.7-4.69-3.47-7.65-8.07-8.11-12.64l0-.27-11.57-5.88Z"/><path d="M422.29,358.81c1.31.85,2.54,1.65,3.76,2.5,7,4.9,13.07,8.71,19.87,11.31l.92.36A41.19,41.19,0,0,0,457,376a186,186,0,0,0,42.95-.17A80.4,80.4,0,0,0,514,372.21l2.18-.69a8.58,8.58,0,0,0,2.4-1.48,6.55,6.55,0,0,1,3.24-1.7,7.77,7.77,0,0,1,4,1.25,14.7,14.7,0,0,0,2.28,1c9.2,2.79,19,2.63,30.94-.5,8.79-2.32,15.22-7.82,19.09-16.34.94-2.07,1.74-4.17,2.58-6.39.38-1,.77-2,1.18-3.07l.16-.41,1.23.3c5.41,1.28,11.14,1.92,16.41-2.07a2.55,2.55,0,0,1,2.46.19c2.44,1.53,4.8,3.17,6.58,4.43,7.44,5.25,15.38,7,23.59,5.33a27.73,27.73,0,0,0,10.44-4.53c5.42-4,7.38-9.31,5.52-15.09a47.65,47.65,0,0,0-3.08-6.91q-.75-1.46-1.47-2.94h0l-.25-.19.06-.31c.06-.32.45-.49.76-.58,5.88-1.56,7.57-6.35,8.53-11.3s-.77-9-5.06-12.43l-.85-.69c-.7-.57-1.41-1.15-2.15-1.64l-.33-.22c-3.73-2.47-7.58-5-12.19-5H632a120.48,120.48,0,0,0-13.2,1.09c-1.44.17-2.62.19-3.67-1.37a20,20,0,0,0-14.08-8.65c-7.17-1-12.82-.32-17.79,2.31a9,9,0,0,1-1.17.48l-.49.17-.34.13-.23-.28c-3.1-3.8-6.58-6.13-10.35-6.92a46.81,46.81,0,0,0-8.79-.7c-1.18,0-2.32,0-3.39-.1h-.31l-.12-.28c-.57-1.31-1.1-2.6-1.63-3.87a74.69,74.69,0,0,0-3.66-8,22.17,22.17,0,0,0-10.32-10c-5.93-2.62-12.63-3.48-21.72-2.77a19.55,19.55,0,0,0-5.69,1.71l-1.2.49a28.9,28.9,0,0,0-3.38,1.7l-1.63.9-.66.35-.07-.75c-.32-3.57-1.05-7.23-4.3-9.92-2.92-2.42-6.37-2.58-11-2.07l-1.19.13.75-.94c4-5,5.3-9.87,4.34-15.78s-4.11-9.64-10.19-11.86l-1.3-.48,1.31-.47,2.15-.72a37.59,37.59,0,0,0,3.72-1.37c5.4-2.48,10.77-5.59,13.5-11.57,5.25-11.47,5.52-23,.81-34.21l-.26-.63c-1.39-3.29-2.83-6.7-1.89-10.7a12.78,12.78,0,0,0-.1-4.39c-.06-.43-.12-.86-.16-1.28-.43-3.88-2.5-6.68-6.52-8.81-5.22-2.77-10.62-2.34-16.33-1.88l-.64.05a4.52,4.52,0,0,1-2.76-.53,17,17,0,0,1-2-1.72,15.87,15.87,0,0,0-1.94-1.68c-9.5-6.61-18.62-8.11-27.89-4.58-1.72.65-3.39,1.39-5.17,2.17-.83.36-1.68.74-2.56,1.11l-1.05.45.55-1.55c.09-.25.15-.43.22-.6,5-12.23,3.86-23.64-3.42-33.93l-.52-.73c-2.28-3.25-4.63-6.6-8.58-8a4,4,0,0,1-2.8-3.12,21.13,21.13,0,0,0-14.61-15c-9.5-2.86-18.2-1.3-25.18,4.5a4.44,4.44,0,0,1-2.76.65h0c-1.74,0-3.48,0-5.22-.07-3.28-.07-6.68-.14-10,0a12.88,12.88,0,0,0-5.62,2.06c-4.45,2.63-7.46,6.77-10.41,11.13-1.63,2.42-3.19,4.86-4.84,7.45-.74,1.16-1.5,2.35-2.29,3.57l-.64,1-.27-1.16c-.07-.32-.12-.58-.17-.81a6.77,6.77,0,0,0-.21-.84c-.64-1.76-1.23-3.57-1.8-5.32a70.75,70.75,0,0,0-4.57-11.68c-4.22-7.88-12.27-11.3-20.15-14.14-10.68-3.83-21.84-3.94-34.13-.32-9.4,2.77-16.41,7.82-21.42,15.42-1.15,1.74-2.18,3.5-3.27,5.37-.5.84-1,1.69-1.5,2.54l-.22.36-.39-.16-.39-.14a7.61,7.61,0,0,1-1.05-.44c-7.66-4.12-16.14-4.78-26.69-2.08-9.24,2.36-14.51,8.43-15.68,18a46.51,46.51,0,0,0,1.34,19c.57,2,1.28,4.4-1.69,5.93a3.24,3.24,0,0,0-1,1.15,4.28,4.28,0,0,1-.26.42,16.35,16.35,0,0,0,1.65,19.69c.79.91,1.65,1.75,2.56,2.65l1.25,1.24.49.5-.63.31C197.35,164.71,190.72,176.45,193,193l.1.74-.72-.18c-.87-.23-1.71-.47-2.52-.7-1.7-.47-3.3-.93-4.91-1.22a93.75,93.75,0,0,0-27.34-.72,32,32,0,0,0-9.47,2.24c-7.82,3.52-14.52,9.32-21.08,18.25-.92,1.25-1.75,2.54-2.62,3.91l-1.25,1.93-.29.43-.42-.3c-.38-.26-.72-.51-1-.75a15.71,15.71,0,0,0-1.75-1.2c-.89-.5-1.78-1-2.66-1.55a38.91,38.91,0,0,0-6.8-3.47c-7.15-2.51-15-3.63-24.52-3.47-11,.17-20.43,4.9-27.89,14.06a65,65,0,0,0-7,11.81c-.42.84-.84,1.68-1.27,2.51A31.15,31.15,0,0,0,46,251.4c.16,3,.35,6.06.54,9.16l.29,4.7-.46.06a18.76,18.76,0,0,0-12,6.45,2.35,2.35,0,0,1-2.25.52c-6.27-2.53-12-1.67-17.51,2.62-5.13,4-10.72,9.06-13.35,16.36-1.73,4.79-1.57,9.07.45,12.37s5.9,5.48,10.92,6.12c6.18.79,10.68.13,14.58-2.11l.39-.23.27.37c.35.51.7,1,1.06,1.54,3.68,5.36,7.17,10.43,13.76,12,5.93,1.43,13,2.31,20-2l.92-.56-.31,2c-.08.49-.14.86-.18,1.23-.94,7.73,2.39,13.78,8.9,16.18a44,44,0,0,0,13.24,2.72c10.86.5,19.51-2.26,26.43-8.48a68,68,0,0,0,5.55-5.84c.83-1,1.66-1.9,2.52-2.82l.43-.46.35.51c2,2.9,5.18,3.39,9.34,3.23l.89,0-.43.78-.56,1c-.33.58-.62,1.09-.88,1.62-2.44,4.87-4,12.07,2.57,18.71,4.58,4.66,10.34,7.19,17.62,7.74,9,.68,15.27-.71,20.41-4.48a34.78,34.78,0,0,0,5.41-5.32c.79-.89,1.61-1.82,2.46-2.7l.38-.39.36.42a12.46,12.46,0,0,0,7.88,4.1c2.19.31,4.4.44,6.54.57.92.06,1.82.11,2.7.18l.35,0,.09.35c.2.76.37,1.51.54,2.24a31.35,31.35,0,0,0,1.23,4.37c3.23,8.22,9.72,13,19.84,14.55,1.74.27,2.8.85,3.06,3,.63,5.39,2.43,9.38,5.51,12.21a43.39,43.39,0,0,0,27.75,11.38,6.59,6.59,0,0,1,3.26,1.24c1,.67,1.9,1.42,2.8,2.15s1.92,1.55,2.92,2.24c8.44,5.72,16.19,8.34,24.34,8.32,11.63-.07,18.13-3.68,21.75-12.07l.16-.37.4.08.63.14a13.57,13.57,0,0,0,1.44.28c12.66,1.62,23.08,1.46,32.71-4.58,5.3-3.32,9.91-6.48,12.58-11.37,3.76-6.88,7.41-14.31,7.29-22.72a1.74,1.74,0,0,1,.19-.73c0-.06.05-.12.07-.17l.19-.56.52.28c22.81,12.05,39.82,11.49,55.13-1.83l.29-.25.32.21Zm-3.23-3.65c-8,8.84-18.42,12.25-31.85,10.41a53.12,53.12,0,0,1-27.27-12.27,2.49,2.49,0,0,0-1.34-.22h-.27c0,.08,0,.17,0,.25a3.09,3.09,0,0,0,.23,1.11c4.93,3.21,3.7,8,2.71,11.91l-.06.24A75.08,75.08,0,0,1,355.72,381c-2.83,5.77-8.09,9.31-12.8,12.17-11.05,6.72-23,5.75-33.18,3.91a17.32,17.32,0,0,1-1.82-.48,12,12,0,0,0-2.09-.51,3.29,3.29,0,0,0-1.39.33l-.12,0,0,0c.36.5.72,1,1.1,1.48l.25.12.56.28.42.23-.22.44c-.18.37-.35.76-.51,1.16a8.33,8.33,0,0,1-1.46,2.58c-3.12,3.33-6,5.11-9.33,5.78a41.71,41.71,0,0,1-8.36.88,34,34,0,0,1-10-1.46c-5.25-1.59-10.32-4.28-16.43-8.72a10.74,10.74,0,0,1-1.05-.91L259,398l-.48-.44.55-.35,2.55-1.63c2.35-1.49,4.57-2.9,6.75-4.43a3,3,0,0,0,1-1.8.85.85,0,0,0-.47-.41c-.37-.08-.92.29-1.41.62l-.51.34a15.12,15.12,0,0,0-1.73,1.24c-5.33,4.61-11.7,5.6-20.06,3.1-5.59-1.66-11.44-3.81-16.43-8.18-5.67-5-7.78-11.54-6.44-20.09a7.57,7.57,0,0,1,.31-1.18,4.78,4.78,0,0,0,.3-1.36,2.4,2.4,0,0,0-.47-1l-.11-.16-.22.1c-.28.13-.75.35-.8.5a42.24,42.24,0,0,0-1.15,4.07c-.14.55-.28,1.12-.43,1.69l-.1.37h-.39l-.44,0a5.48,5.48,0,0,1-1.27,0c-9.51-1.58-15.57-6.05-18.54-13.66a16.51,16.51,0,0,1-.88-2.88c-.61-3.05-.1-3.41,2.37-4.65l.26-.12a30.49,30.49,0,0,0,5.42-3.84l.83-.69a3.77,3.77,0,0,0,0-.85,2.72,2.72,0,0,1,0-.28h-.14a2.68,2.68,0,0,0-1.06,0,3.91,3.91,0,0,0-1.17.82l-.31.26c-7.34,6.16-15.38,4.49-21.57,2.35a7.66,7.66,0,0,1-3.11-2.75,17.22,17.22,0,0,0-1.14-1.35c-.41-.43-.8-.88-1.19-1.33l-.15-.19-.18.19a4.06,4.06,0,0,0-.93,1.16c-3.64,8.19-9.77,12.66-18.75,13.66-6.35.7-11.38.26-15.84-1.4-6.27-2.33-10.74-6.42-12.28-11.22-1.31-4.09-.43-8.58,2.55-13,.16-.25.34-.49.52-.73a9.7,9.7,0,0,0,.85-1.27,7.91,7.91,0,0,0,.68-1.64,3.69,3.69,0,0,0-2.09-1,4.13,4.13,0,0,0-1.53.22,9.05,9.05,0,0,1-1,.23c-4.2.7-6.59-.6-8.24-4.47-.09-.22-.17-.46-.25-.69a3.64,3.64,0,0,0-.47-1.07,1.65,1.65,0,0,0-1-.62,1.24,1.24,0,0,0-.68.69c-.73,5.58-4.59,9-8.33,12.3-6.52,5.77-14.5,8.35-24.47,7.95a42.83,42.83,0,0,1-13.34-2.7c-6.86-2.55-8.58-9.68-7.26-15.22a17.86,17.86,0,0,1,6.55-9.63l.55-.44.23.67c1.21,3.47,4,4.65,7.84,5.34a13,13,0,0,0,10.08-2.51,3.24,3.24,0,0,0,.75-1.39,1.43,1.43,0,0,1,.08-.22L91,313a2.93,2.93,0,0,0-1.5.11c-3.93,2.5-7.74,3-11.64,1.46-2.84-1.1-3.54-2.24-3.22-5.32a4.07,4.07,0,0,0-.28-1.45c0-.11-.07-.21-.1-.31l-.34.07a3,3,0,0,0-1.34.47A56.68,56.68,0,0,0,67,313.52c-3.1,3.71-7.28,5.91-13.16,6.91a19.48,19.48,0,0,1-4.45.06l-1.52-.08c-9.35-.32-14.2-6.56-18-13.26-1-1.76-.87-3.75.42-6.1a7.45,7.45,0,0,1,.5-.79,2.55,2.55,0,0,0,.56-2.67,1.29,1.29,0,0,1,0-.19l-.2.05c-.33.08-.89.23-1,.38-.69,1.26-1.28,2.62-1.86,3.93q-.41,1-.84,1.92c-.08.16-.15.35-.22.53a3.75,3.75,0,0,1-1.06,1.68c-5.06,3.65-16.66,2.79-21.41-1.59-4-3.7-3.08-8.08-1.78-12.25,1.89-6.07,6.39-10.44,10.54-13.91a36.51,36.51,0,0,1,5.84-4c3.57-2,7.45-2,12.19.08l.44.19-.17.44c-.32.88-.65,1.74-1,2.59-.79,2.13-1.54,4.13-2.25,6.18-.05.14-.1.28-.16.43-.2.53-.45,1.18-.28,1.52a1,1,0,0,0,.68.39c.81.2,1.07-.18,1.46-1.53,0-.15.09-.29.13-.43,1.41-4.44,3-9.47,7.23-12.6a31.83,31.83,0,0,1,7.18-3.62l1.32-.53c.87-.36,2.27,1,2.66,1.62a10.16,10.16,0,0,1,.84,2,9.6,9.6,0,0,0,.75,1.75,2.62,2.62,0,0,0,1.1.71l.17.08.07-.21A2.67,2.67,0,0,0,52,271.8c-.33-1.14-.77-2.29-1.2-3.4-.37-1-.75-2-1.06-3C46.29,254.46,47,244,52,234.36l.36-.72c3-5.93,6.13-12,11.68-16.53a35.46,35.46,0,0,1,22.91-8.36h.36c8.82,0,15.9,1.08,22.26,3.41a44,44,0,0,1,8.33,4.54c.9.58,1.8,1.16,2.7,1.71a2.39,2.39,0,0,1,.51,2.5c-3.58,8.05-4.51,16.63-5,24.71a2.8,2.8,0,0,0,.68,1.33l.15.21A1.34,1.34,0,0,1,117,247a3,3,0,0,0,.79-1.27c.34-2,.59-4.09.83-6.09a75.27,75.27,0,0,1,2-11.32c2.7-9.63,8.39-18,18.43-27.24,8.54-7.83,18.72-8.93,28.45-8.95,9.39,0,17.13.56,24.66,3.46,1.26.49,2.2.55,2.64.17s.53-1.3.24-2.61c-3.17-14.69,5.2-29.23,19.9-34.57.53-.2,2.15-.79,2.24-1.26s-1.32-1.68-1.85-2.13a43.11,43.11,0,0,1-4.89-4.78,14.14,14.14,0,0,1-1.24-16.2,9,9,0,0,1,3.46-3.09c1.26-.61,1.45-1.06,1-2.39-2.52-8.14-3.3-15.5-2.37-22.48,1.14-8.63,5.85-14.11,14-16.27,10.12-2.68,18.79-2,26.5,2.2,1.49.81,1.87,1.72,1.35,3.26a31.47,31.47,0,0,0-1.37,4.92,2.4,2.4,0,0,0,.46,1.17l.12.22.18-.11c.38-.22.8-.48.88-.71.58-1.64,1-3.36,1.49-5,.17-.63.34-1.25.52-1.88C258.58,82.82,265.5,75,276,70.74c12.79-5.15,25.4-5.65,37.48-1.47a51,51,0,0,1,14.77,8c4.24,3.32,6.06,8,7.82,12.59l.46,1.2A46.52,46.52,0,0,1,339.65,106a2.45,2.45,0,0,0,.58,1.06c.06.08.13.16.19.25l.3-.15c.32-.16.85-.42.9-.59,1.47-4.9,4.34-9,7.11-13,.76-1.09,1.52-2.19,2.25-3.29a47.42,47.42,0,0,1,7.58-8.77,14.65,14.65,0,0,1,6.57-3.26,32.65,32.65,0,0,1,15.67.2,3.35,3.35,0,0,0,2.58-.51c6.76-6,15.22-7.66,24.46-4.9a19.23,19.23,0,0,1,13.4,14.2,4.57,4.57,0,0,0,3.58,3.88c3.51,1.05,5.5,3.85,7.43,6.57.38.53.76,1.07,1.15,1.59,8.33,11,7.93,27.59-.94,39.31q-.15.19-.33.39c-.19.21-.43.48-.44.64a2.42,2.42,0,0,0,.31,1.62,2.18,2.18,0,0,0,1.1-.2c1.41-1,2.77-2.11,4.08-3.19l.5-.41c6.81-5.59,13.76-7.77,21.27-6.67,7.95,1.17,14,4.4,18.41,9.87a3.52,3.52,0,0,0,2.52.42l.53-.06c5.33-.62,10.85-1.27,16.16,1.3,3.66,1.77,5.62,4.37,6,7.93,0,.41.11.82.17,1.24a8.65,8.65,0,0,1,0,3.65c-1.17,4,.27,7.43,1.79,11,.25.58.5,1.17.74,1.76a37.79,37.79,0,0,1,1.83,24c-3.39,13-11.29,19.7-24.87,21l-.72.06a19,19,0,0,0-3.65.56,3.1,3.1,0,0,0-1.13,1c-.07.08-.13.16-.2.23l.19.17a3.33,3.33,0,0,0,1.19.78c1.12.29,2.31.5,3.45.71a28.38,28.38,0,0,1,6,1.54,13.34,13.34,0,0,1,7.27,8.09,13.85,13.85,0,0,1-.81,11.27,34.59,34.59,0,0,1-3.21,4.53c-.67.84-1.35,1.7-2,2.58a6.79,6.79,0,0,0-.72,1.56c0,.09-.07.18-.1.27l.34.1a5.07,5.07,0,0,0,1.76.28,26.3,26.3,0,0,0,2.77-.48,24.1,24.1,0,0,1,3.7-.55c5.52-.22,9.33,3.3,9.67,8.94,0,.57,0,1.14,0,1.71s0,1,0,1.46c0,.9.23,1.47.55,1.65s.86.05,1.62-.36,1.72-1,2.57-1.48c1.27-.75,2.58-1.53,3.95-2.17a18,18,0,0,1,5.9-1.95c5.92-.49,13.63-.64,20.88,2.57,5.73,2.55,9,7.73,11.48,12.47,2.32,4.45,2.52,9.17,2.4,13.21,0,.21,0,.43-.06.65a2.44,2.44,0,0,0,0,1,2.82,2.82,0,0,0,.6.88l.09.1.21-.13c.28-.17.7-.43.74-.6a18.18,18.18,0,0,0,.43-3q.06-.74.15-1.56l0-.45h.45c1,0,2.07,0,3.08-.05a45.42,45.42,0,0,1,6.62.12,15.37,15.37,0,0,1,11.66,7.23c.75,1.21,1.35,1.38,2.46.71A26.68,26.68,0,0,1,596,282.8c8.59,0,14.74,3.28,18.78,10,.59,1,1.24,1,2.6.75,3.71-.62,7.33-1.21,11-1.55,8.43-.82,14.48,3.73,19.76,8.76,4,3.87,3.19,8.59,1.81,12.71-1.57,4.7-5.28,6.18-8.7,7a5.76,5.76,0,0,1-2.26-.1c-.33-.06-.68-.13-1-.16l-.53-.06.09-.53q.21-1.14.42-2.22a45.42,45.42,0,0,0,.79-4.91,2.94,2.94,0,0,0-.62-1.42l-.11-.18-.17.18c-.38.42-.82.9-.83,1.24-.41,12.5-13,18.65-21.74,19-8.44.35-16.52-1.94-24.68-7a16.91,16.91,0,0,1-2.34-1.86,21,21,0,0,0-1.7-1.42,2.58,2.58,0,0,0-1.09-.29l-.18,0a.68.68,0,0,1,0,.14,4.81,4.81,0,0,0-.16,1.32c0,.1.17.39.58.72,10.49,8.5,21.9,11.78,33.88,9.74,7.61-1.29,11.61-4.6,16.76-10.65l.18-.21.28,0c2.66.4,4.92,2,6.91,4.79,2.88,4.09,4,8.45,3,12.27-.89,3.63-3.52,6.68-7.63,8.82-9.38,4.89-19.11,4.11-28.92-2.31l-.67-.43c-1.78-1.16-3.62-2.36-5.32-3.69a5,5,0,0,1-1.17-1.43,5.55,5.55,0,0,0-.82-1.09A6.38,6.38,0,0,0,600,337.5a3.47,3.47,0,0,0-.71,1.23c-.42,2.51-2.44,3.33-4.15,3.76-5.57,1.4-9.95,1-13.77-1.18-1.28-.74-2.54-1.57-3.76-2.37s-2.3-1.51-3.48-2.2a3.31,3.31,0,0,0-1.36-.24h-.19c0,.08,0,.16,0,.24,0,.46.07,1,.25,1.2a24.45,24.45,0,0,0,4.65,3.35,3,3,0,0,1,1.74,3.85c-1.9,7.12-5.68,17.1-16.55,21.51a52.13,52.13,0,0,1-35.05,1.88,20.06,20.06,0,0,1-2.87-1.17l-1.28-.59-.53-.22.3-.5c.75-1.21,1.51-2.4,2.26-3.57a90,90,0,0,0,4.61-7.77,112.72,112.72,0,0,0,4.92-11.89l.13-.36a3,3,0,0,0-.34-2.18.83.83,0,0,0-.6-.06c-.31.15-.51.8-.66,1.33l-.11.37a72.73,72.73,0,0,1-12.39,23.39c-2.44,3.06-5.85,5.11-10.75,6.44A105.29,105.29,0,0,1,477.93,375c-7.89-.33-15-.63-22.1-1A14.2,14.2,0,0,1,452,373a95.6,95.6,0,0,1-25-13.33c-2.06-1.49-4-3.05-5.8-4.64C420.36,354.27,419.84,354.3,419.06,355.16Z"/><path d="M188.06,319.49a2.34,2.34,0,0,0,.07-1.25V318l-.21,0a3,3,0,0,0-1.31.45c-1.11.93-2.19,1.93-3.25,2.9-1.29,1.18-2.62,2.4-4,3.52a21,21,0,0,1-17.54,4.37c-7.41-1.26-13.44-5.15-19-12.25a13.17,13.17,0,0,1-3-7.7c-.05-1.13-.25-1.8-.59-2s-1.08,0-2.16.48a11.52,11.52,0,0,1-9.79.28A34,34,0,0,1,116,300.71c-2.6-2.54-4.86-5.49-3.78-9.84a1.43,1.43,0,0,0-.19-1.33,1.31,1.31,0,0,0-1.21-.19,8.14,8.14,0,0,1-6.77-1.67,39.41,39.41,0,0,1-4-3.44l-.49-.47c-.6-.56-1.14-.83-1.5-.75s-.55.52-.67.88c-1.44,4.25-5,6.32-8.13,7.93-4.17,2.12-8.25,2.38-11.79.76C71.92,290,69,284.35,70,277.81a2.48,2.48,0,0,0-.4-1.21l-.1-.2-.23.14c-.3.18-.85.51-.89.67-.07.55-.16,1.12-.25,1.7-.3,1.91-.62,3.89,0,5.36,3.94,9.42,10.21,12.81,19.17,10.37a20.38,20.38,0,0,0,11-7.61l.25-.34,11.57,5.88,0,.27c.46,4.57,3.42,9.17,8.11,12.64,5.59,4.14,12.49,5.89,18.44,4.7l.37-.07.17.33c.48.88.91,1.76,1.33,2.62a33.35,33.35,0,0,0,3,5.17,45.89,45.89,0,0,0,6.6,6.93,26.44,26.44,0,0,0,21.08,5.89A26.75,26.75,0,0,0,188.06,319.49Z"/><path d="M272.83,311.21c-10.35,1-18.46-1.5-24.77-7.74-.93-.92-1.58-1.32-2-1.24s-.85.74-1.32,2c-.05.13-.1.26-.14.39a7,7,0,0,1-.26.69c-5.78,13.07-13.94,19.3-25.67,19.6-.24,0-.64.39-1,.7-.06.06-.11.12-.17.17l.18.15a2.65,2.65,0,0,0,1.11.7c6.18.48,12-1.7,17.72-6.7a33,33,0,0,0,9.08-12.77,5.65,5.65,0,0,1,.6-1.08c.1-.15.2-.29.29-.45l.29-.49.45.36c11,8.79,22.67,10.08,34.61,3.85l.43-.23.24.43c3.4,6.12,8.73,10.71,16.3,14,6.13,2.7,14.21,5.27,22.43,1.09a3.32,3.32,0,0,0,1.37-1.61c-.23-.63-.52-.61-1.59-.24l-.65.21q-.9.24-1.8.51a24.45,24.45,0,0,1-6.12,1.23,27.86,27.86,0,0,1-15.38-4.08c-8.22-5-15-10.06-14.07-20.54,0-.21-.32-.63-.57-.94-.05-.05-.09-.11-.14-.17l-.19.17c-.34.29-.77.66-.79.9a21.66,21.66,0,0,0,0,3c0,.77.06,1.57,0,2.35a2.94,2.94,0,0,1-1,2.3c-.58.31-1.17.66-1.76,1A14.53,14.53,0,0,1,272.83,311.21Z"/><path d="M398.9,290.68a15.92,15.92,0,0,0,2.14.76c10.77,2.73,25,5.2,39.47.05,6.25-2.23,10-5,12.6-9.13,3-4.89,4.37-10.55,4.34-18.37,0-.23-.34-.61-.62-.92l-.15-.17-.14.13a2.73,2.73,0,0,0-.77.93,8.22,8.22,0,0,0-.19,1.83,14.73,14.73,0,0,1-.11,1.48c-.11.75-.22,1.51-.32,2.26A43.28,43.28,0,0,1,454,276c-1.76,5.94-5.07,10-9.85,12l-1.2.5c-4.9,2.08-10,4.24-15.68,3.91-1.42-.08-2.89,0-4.32,0a37.31,37.31,0,0,1-5.88-.13c-4.43-.58-8.9-1.47-13.21-2.33l-3.21-.63c-2.27-.44-2.42-2.09-2.27-3.63a77.14,77.14,0,0,0,0-11c0-.33-.47-.78-.87-1.18l-.16-.16a1.09,1.09,0,0,0-.08.15,4.17,4.17,0,0,0-.6,1.57,39,39,0,0,0,.14,4.32c0,.42.07.84.09,1.26.25,4-.78,7.91-3.24,12.32-1.83,3.29-5,4.64-8.05,6l-.87.37c-.27.12-.52.67-.73,1.15l-.11.24.2.05a3.11,3.11,0,0,0,1.43.15c5.94-1.86,9.68-5.28,11.4-10.44l.17-.49.48.18C398.05,290.34,398.49,290.52,398.9,290.68Z"/><path d="M241.7,214.3h-.09l-.44.19a11.76,11.76,0,0,0-4.06,2.32l-.48.5a44.94,44.94,0,0,0-6.84,8.44c-4.06,7.22-4.23,14.37-.48,21.23,2,3.72,5.16,6.8,9.86,9.69,2.55,1.57,3.39,3.15,3.44,6.52a20.08,20.08,0,0,0,6.17,14.66c4.26,4,10.33,6.07,17.1,5.76a1.48,1.48,0,0,0,.84-.71A1.44,1.44,0,0,0,266,282a22.17,22.17,0,0,0-3.37-.42l-.81-.06c-5.61-.46-10-2.69-13.08-6.62-3.81-4.9-5.09-9.29-4.13-14.24l.1-.47.47.07c.26,0,.48.07.68.11s.61.1.87.11l1.92.08c2.32.09,4.71.19,7.06.16.15,0,.52-.48.71-.72l.17-.21-.1-.09a3.16,3.16,0,0,0-1-.69,3.22,3.22,0,0,0-1.17,0c-.23,0-.46,0-.68,0h-.17c-3.45.06-7,.12-10.19-1.88-2.23-1.41-4.4-3-6.5-4.5l-.21-.15a19.13,19.13,0,0,1-7.88-13.22,20.14,20.14,0,0,1,3.6-14.16l.2-.27c2.58-3.57,5.24-7.25,9.74-9,.16-.06.37-.6.5-.92l.09-.24-.22-.1A3.66,3.66,0,0,0,241.7,214.3Z"/></g></g></g></svg>