<svg xmlns="http://www.w3.org/2000/svg" viewBox="0 0 521.56 191.05"><defs><style>.cls-1{fill:#fff;}</style></defs><g id="Layer_2" data-name="Layer 2"><g id="Mobile"><g id="Clouds_Right"><g id="_05" data-name="05"><path class="cls-1" d="M518.17,119.43a12.12,12.12,0,0,0-3.42-4.75c-6.4-5.72-13.95-4.51-19.81-2.82-1.38.4-2.3.41-2.81,0s-.68-1.18-.63-2.46c0-.37,0-.73.06-1.1a20.8,20.8,0,0,0,0-3.06c-.49-6.37-3.34-10.61-8.44-12.59-8.63-3.36-16.91-1.87-24.6,4.41a24.52,24.52,0,0,1-2.23,1.54l-.47.3c0-.2-.08-.41-.13-.61a27.8,27.8,0,0,1-.51-2.87c-.08-.74-.16-1.48-.23-2.23-.52-5.26-1.06-10.7-4.49-15.37l-.5-.68c-2.46-3.37-5-6.86-9.05-8-7.33-2-15.16-3.7-23.18-.6a73.37,73.37,0,0,1-7.49,2.28l-1.85.5a2.93,2.93,0,0,1-1.25,0,2.67,2.67,0,0,1,0-1.36l0-.39s.11-.15.17-.23a2.88,2.88,0,0,0,.26-.35,7.58,7.58,0,0,0,.06-7.49,7.45,7.45,0,0,0-6.31-3.86,15.73,15.73,0,0,0-8.72,2.38c-1.6.94-2.74,1.24-3.39.89s-1-1.51-1.07-3.4v-.21c0-1.51-.09-3.07-.22-4.6-.7-8.73-3.32-15-8.24-19.63-2.59-2.46-4.93-3.84-6.95-4.09a37,37,0,0,0-11.7.68c-7.1,1.39-13.84,5.05-20.62,11.19a3.4,3.4,0,0,1-2.28.89,3.33,3.33,0,0,1-.75-1.92c-.28-8.29-3.79-15.6-7.19-21.66-6-10.6-14.72-16-26-16H304c-2,0-4,0-5.95,0-2.16,0-4.39-.05-6.59,0C280,2.26,270.78,7.59,264.06,18c-1,1.47-1.53,1.61-3.23.76l-1.12-.56a49.16,49.16,0,0,0-10.89-4.44,51.32,51.32,0,0,0-13.7-1A27.7,27.7,0,0,0,214,23.31a61.33,61.33,0,0,0-10.6,20.23c-.29.93-.67,1.51-1.07,1.64a1.26,1.26,0,0,1-1.07-.35c-6.43-4.89-13.75-4.56-20.68-3.8a12.21,12.21,0,0,0-10.29,7.43c-.35.8-.65,1.63-.94,2.43s-.65,1.79-1,2.65c-.86,1.86-1.3,2-1.28,2-.62,0-1.44-.71-2.1-1.28l-.26-.23c-1-.83-1.92-1.73-2.84-2.61A36.74,36.74,0,0,0,156,46.63c-8.18-5-18.05-6.5-30.15-4.48a30.22,30.22,0,0,0-10.75,4,22.29,22.29,0,0,0-10.53,16.55c-.49,3.47-.49,3.47-4,3.48h-.11c-2.71,0-5.6,0-8.47.2a8.61,8.61,0,0,0-6.4,3.45c-2.15,2.69-3,5.29-2.54,8.16.17,1.2,0,1.62-.15,1.76s-.89.16-1.93-.15l-.28-.09a23.27,23.27,0,0,0-5.14-1.13c-10.59-.66-18.74-1.07-26.42-1.34a25,25,0,0,0-5.78.68l-1.08.2c-5.75,1.08-10.73,4-15.54,6.78-1,.57-2,1.15-3,1.71-6.13,3.45-9,8.1-8.69,14.21.09,1.8-.58,2.61-2.37,2.89A24,24,0,0,0,7.79,105c-3.73,1.44-5.66,4.34-5.74,8.62-.09,5.52,3.05,10,8.61,12.24,5.12,2.09,10.25,1.37,14.13-2,1.05-.91,1.67-1.47,2.06-1.44s.93.63,1.85,1.65l.15.16a17.83,17.83,0,0,0,4.26,3.62A43.47,43.47,0,0,0,58,133c6-.44,10.72-2.69,14-6.69,1.17-1.44,2.46-3,3.86-4.43a3.57,3.57,0,0,1,1.42-1h0a3,3,0,0,1,1.17,1.69,5.67,5.67,0,0,1,.43,2.84,5.25,5.25,0,0,0,1.82,5.37l3.09,2.88a129.2,129.2,0,0,0,11.31,9.78c8.35,6.14,18.65,8.46,27.73,10.5,10.47,2.36,21.18,2.2,32.14,1.81,13.12-.47,24.44-4.84,33.66-13,1.25-1.11,2.12-1.78,2.65-1.67s1.05,1.07,1.78,2.6c5.23,11,14.66,15.42,26.55,12.36l1-.25c.63-.15,1.25-.3,1.87-.48a2,2,0,0,1,1.51,0,2.21,2.21,0,0,1,.78,1.44,16.12,16.12,0,0,0,2.17,5.4c3.67,5.22,7.42,10.16,13,13.26a69.82,69.82,0,0,0,12.18,5.24c8.93,3,17.57,3.5,25.68,1.61l1-.24c4.7-1.09,9.55-2.22,13.52-5.39,1.54-1.22,2.68-1.2,4.19.09A37.08,37.08,0,0,0,310.68,184a138.53,138.53,0,0,0,34.76,5.2h.67A27.06,27.06,0,0,0,364,183.12a49.86,49.86,0,0,0,4.44-4.26c.62-.63,1.22-1.26,1.82-1.86l.45-.44-.53-.34-2.82-1.76c-2.64-1.64-5.14-3.2-7.56-4.84-.21-.14-.34-.7-.45-1.14l-.06-.24.21,0a2.71,2.71,0,0,1,1.34,0,17,17,0,0,1,2.53,1.61c.4.29.8.58,1.22.85,12.2,8.08,21.05,3.39,25.24-.12s5.83-8.34,4.2-13.25l-.18-.49a8.33,8.33,0,0,1-.44-1.6,1.42,1.42,0,0,1,.43-1.37,1.43,1.43,0,0,1,1.45,0c.56.26,1.09.57,1.65.89s.88.51,1.33.74c9.74,5,20.57,6.91,33.1,6,5.35-.39,10.89-1.23,15.14-4.66a77.09,77.09,0,0,0,8.75-8.77l1.16-1.29a3.38,3.38,0,0,1,3.85-1.17A119.5,119.5,0,0,0,474.87,148a10.64,10.64,0,0,0,4.46-1c.73-.28,1.49-.57,2.29-.8l.86-.26-.67-.59c-.6-.54-1.16-1-1.67-1.45a21.3,21.3,0,0,1-2.71-2.56,3.24,3.24,0,0,1-.38-1.59c0-.08,0-.16,0-.24l.2,0a3.26,3.26,0,0,1,1.49.52c3.39,3.13,7.14,6.2,12.38,6.42l2.25.11a65.88,65.88,0,0,0,10.13,0,18,18,0,0,0,13.75-8.4C520.41,133,520.71,127.05,518.17,119.43ZM414.38,137l-2.52.1h0c-10.09.86-19.58-2.5-27.69-5.72a18.25,18.25,0,0,1-8.39-6.37c-.09-.13-.19-.25-.29-.38a2.38,2.38,0,0,1-.54-.92,3.26,3.26,0,0,1,.24-1.18,1.59,1.59,0,0,0,.07-.2l.21,0a2.08,2.08,0,0,1,.85.22c7.86,9.66,19.1,11.4,30.89,12.44,8.85.79,15.85,0,22.06-2.47a23.47,23.47,0,0,0,13.25-13,3.77,3.77,0,0,1,1.05-1.13l.13-.11a2.4,2.4,0,0,0,.11.23c.24.51.52,1.1.42,1.42a17.17,17.17,0,0,1-2.21,4.53c-4.74,7.16-12,11.14-22.19,12.18C418,136.92,416.17,137,414.38,137Zm-57.18-4.8c-1.3,1.75-2.81,3.58-4.73,5.77a10.18,10.18,0,0,1-1.18,1.06,11.76,11.76,0,0,0-1.19,1.05c-5.52,5.86-12.75,8.67-22.76,8.85-1.14,0-2.28,0-3.42,0h-1.63c-10.46.75-20.17-2.85-29.56-6.35l-1.6-.59a48.11,48.11,0,0,1-19.39-12.78,21.5,21.5,0,0,1-3.21-5.57l-.18-.39a2.7,2.7,0,0,1,.23-1.37l.09-.25.22.11c.46.24,1,.52,1.08.78,1.84,5,5.46,8.26,10.33,11.58,9.19,6.27,19.85,10.29,32.59,12.31,8.62,1.36,18.72,2.15,28.33-2.33a22.77,22.77,0,0,0,5.81-3.76c1.94-1.8,3.75-3.78,5.5-5.7l2.34-2.54a3.11,3.11,0,0,0,.29-.33,2.08,2.08,0,0,1,.66-.6,2.11,2.11,0,0,1,1.3-.07A1.43,1.43,0,0,1,357.2,132.24ZM136,80l-1,1.19c-1.33,1.63-2.71,3.32-4.16,4.88a2.33,2.33,0,0,1-1.1.28l-.27,0c0-.07,0-.15,0-.22a2.53,2.53,0,0,1-.09-.93c5.77-7.74,10.85-13.85,19.27-16.16a38.31,38.31,0,0,1,6.51-1c1-.09,2-.18,3-.31l3.19.55c3.11.52,6.16,1,9.21,1.58l.2,0a2.88,2.88,0,0,1,1.27.4,8.82,8.82,0,0,1,1.22,1.45l.06.08-.17,0a3.28,3.28,0,0,1-1.6.2c-8.82-2.47-15.63-2.87-22.09-1.3C144.53,72,140.14,75,136,80ZM32.83,104.46a8.54,8.54,0,0,1,0,2,3.08,3.08,0,0,1-.6,1.14l-.09.12-.16-.14a2.76,2.76,0,0,1-.91-1,8.16,8.16,0,0,1-.27-2.21c0-.35,0-.69,0-1,.06-6.77,2.78-10.18,10.37-13a17,17,0,0,1,4.52-1,3.87,3.87,0,0,1,1.64.45l.17.07-.11.12A3.79,3.79,0,0,1,46.13,91c-1.13.43-2.31.8-3.46,1.15a40.59,40.59,0,0,0-4.26,1.48c-3.87,1.66-5.78,4.91-5.66,9.66C32.76,103.7,32.8,104.08,32.83,104.46Z"/><path d="M483.19,146.64l.26.06c.94.2,1.84.42,2.7.63a30.67,30.67,0,0,0,5.17,1l.88.07a52.73,52.73,0,0,0,11.09.05c8.1-1.14,13.55-4.87,16.64-11.42,2.08-4.39,1.78-8.85,1.22-13.8a16.11,16.11,0,0,0-16-14.39h-.1c-2.45,0-4.88.16-7.45.32l-3.6.22-.53,0v-.52c0-.3,0-.62,0-1a24,24,0,0,0,0-2.53C493,99.17,491,95.26,487,92.72c-7-4.45-14.63-4.91-22.82-1.37A34.56,34.56,0,0,0,460,93.61c-.67.4-1.35.81-2.05,1.2l-.63.36-.11-.72c-.14-.9-.29-1.78-.42-2.64-.29-1.79-.56-3.51-.8-5.23A24.84,24.84,0,0,0,436.8,66.22c-8.51-1.71-14.93-1.44-20.82.88a21.13,21.13,0,0,1-3.29.91c-.5.11-1,.22-1.51.35l-.57.15-.05-.59q-.09-1-.15-1.83c-.09-1.19-.17-2.21-.35-3.23-.86-4.82-3.17-6.81-8.25-7.08-3.54-.19-6.88.74-10.85,3l-.7.4-.12-2.2c-.05-.82-.09-1.55-.12-2.28-.42-9.87-3.17-17.11-8.65-22.78-2.37-2.44-5-4.73-8.57-5-8.92-.56-16.43,1.07-23,5-2.25,1.35-4.5,2.81-6.67,4.23l-3,2-.61.39-.15-.71c-.17-.82-.31-1.65-.45-2.48a29.15,29.15,0,0,0-1.22-5.2c-2.36-6.36-5.5-13.7-10.9-19.89-4.1-4.71-8.45-7.45-13.69-8.63a76.55,76.55,0,0,0-26.6-.89,28.79,28.79,0,0,0-19.88,11c-.93,1.19-1.92,2.28-3,3.43l-1.43,1.59-.28.32-.36-.23c-7-4.48-15.07-6.48-24.66-6.13-12.49.45-21.86,6-27.85,16.38-1.89,3.27-3.57,6.57-5.35,10.06-.79,1.57-1.59,3.14-2.42,4.72l-.22.42-.43-.2-1.13-.53c-.91-.43-1.85-.87-2.83-1.22l-.74-.26a15.34,15.34,0,0,0-4.13-1.1,71.91,71.91,0,0,0-10,0c-6.89.54-11.54,3.9-13.8,10-.25.67-.52,1.33-.79,2l-.61,1.5-.52-.42c-1-.75-1.88-1.53-2.79-2.29a53.71,53.71,0,0,0-5.88-4.5c-7.18-4.5-15.6-6.3-26.48-5.65-6.5.38-11.23,1.59-15.33,3.92a24.46,24.46,0,0,0-12.72,18c-.3,1.86-1,3.06-3.44,2.86a46.71,46.71,0,0,0-4.88,0l-1.23,0a11.63,11.63,0,0,0-10.83,6.6,23.6,23.6,0,0,0-1.42,3.82c-.2.63-.4,1.27-.62,1.92l-.14.38L80,77c-1-.13-2.08-.29-3.13-.44a66.17,66.17,0,0,0-7.07-.79c-1.73-.07-3.47-.15-5.2-.24a152.61,152.61,0,0,0-18.89-.14c-9.59.73-17.67,5.78-25.78,11.34a14.58,14.58,0,0,0-6.73,12.77c.07,1.82-1.19,2.15-2.11,2.38-3.18.82-6.21,1.76-8.29,4.29A11.45,11.45,0,0,0,1,118.35,16.79,16.79,0,0,0,11.8,128.43l2,0c4.55.12,8.85.22,12.27-3.22l.32-.32.35.28c.57.47,1.11,1,1.63,1.42a20.64,20.64,0,0,0,3.24,2.53c8,4.68,17.23,6.58,27.39,5.65,5.21-.48,9.2-2.09,12.18-4.92,1-.9,1.83-1.89,2.68-2.86L75,125.74l.48-.52.33.62c.41.77.75,1.52,1.07,2.25A11,11,0,0,0,79,131.64l1.16,1.1a147.48,147.48,0,0,0,14.32,12.55c8.39,6.14,18.81,8.48,28,10.55,10.64,2.4,21.48,2.24,32.56,1.85s20.51-3.27,28.8-8.8c1.48-1,2.9-2.06,4.39-3.19l2.14-1.6.47-.34.27.5c2.71,5,6.33,10.44,12.7,13,5.46,2.21,11.47,2.31,17.87.31l.36-.11.21.32c.67,1.05,1.28,2.08,1.88,3.07A56.71,56.71,0,0,0,228,166.7c3.74,4.76,8.46,10,15.16,12.79,9,3.77,16.68,5.57,24.09,5.69a50.23,50.23,0,0,0,25.94-6.54,2.37,2.37,0,0,1,1.12-.25,4,4,0,0,1,1.65.37c1.62.79,3.23,1.68,4.79,2.55a48.22,48.22,0,0,0,9.39,4.39,125.55,125.55,0,0,0,36.05,5.35c7.39,0,12.86-1.69,17.2-5.25a110,110,0,0,0,8.29-7.68,3.59,3.59,0,0,1,3.56-1.39c8.13,1.65,13.94-2.83,18.08-6.92a11.64,11.64,0,0,0,3.35-8.1c0-.87,0-1.74,0-2.61,0-.41,0-.81,0-1.22v-.41l.4-.08a.86.86,0,0,1,.57,0,8.14,8.14,0,0,1,1.37.48c8.93,4.46,19.31,6.26,31.75,5.54,5.72-.34,12.27-1.24,17.55-5.41a59.83,59.83,0,0,0,7.1-7c.64-.71,1.28-1.42,1.93-2.12a2.78,2.78,0,0,1,3.17-1.09c2.52.67,5.27,1.27,8.42,1.85,6.52,1.19,10.87.35,14.11-2.72Zm-1.57-.5c-.8.23-1.56.52-2.29.8a10.64,10.64,0,0,1-4.46,1,119.5,119.5,0,0,1-14.62-2.38,3.38,3.38,0,0,0-3.85,1.17L455.24,148a77.09,77.09,0,0,1-8.75,8.77c-4.25,3.43-9.79,4.27-15.14,4.66-12.53.92-23.36-1-33.1-6-.45-.23-.89-.48-1.33-.74s-1.09-.63-1.65-.89a1.43,1.43,0,0,0-1.45,0,1.42,1.42,0,0,0-.43,1.37,8.33,8.33,0,0,0,.44,1.6l.18.49c1.63,4.91.14,9.62-4.2,13.25s-13,8.2-25.24.12c-.42-.27-.82-.56-1.22-.85a17.87,17.87,0,0,0-2.53-1.61,2.71,2.71,0,0,0-1.34,0l-.21,0,.06.24c.11.44.24,1,.45,1.14,2.42,1.64,4.92,3.2,7.56,4.84l2.81,1.76.54.34-.45.44c-.6.6-1.2,1.23-1.82,1.86a49.86,49.86,0,0,1-4.44,4.26,27.06,27.06,0,0,1-17.87,6.06h-.67a138.53,138.53,0,0,1-34.76-5.2,37.08,37.08,0,0,1-14.12-7.21c-1.51-1.29-2.65-1.31-4.19-.09-4,3.17-8.82,4.3-13.52,5.39l-1,.24c-8.11,1.89-16.75,1.35-25.68-1.61A69.82,69.82,0,0,1,240,175.45c-5.54-3.1-9.29-8-13-13.26a16.12,16.12,0,0,1-2.17-5.4,2.21,2.21,0,0,0-.78-1.44,2,2,0,0,0-1.51,0c-.62.18-1.24.33-1.87.48l-1,.25c-11.89,3.06-21.32-1.32-26.55-12.36-.73-1.53-1.28-2.49-1.78-2.6s-1.4.56-2.65,1.67c-9.22,8.13-20.54,12.5-33.66,13-11,.39-21.67.55-32.14-1.81-9.08-2-19.38-4.36-27.73-10.5a129.2,129.2,0,0,1-11.31-9.78l-3.09-2.88a5.25,5.25,0,0,1-1.82-5.37,5.67,5.67,0,0,0-.43-2.84,3,3,0,0,0-1.17-1.69h0a3.57,3.57,0,0,0-1.42,1c-1.4,1.46-2.69,3-3.86,4.43-3.27,4-8,6.25-14,6.69a43.47,43.47,0,0,1-24.93-5.19,17.83,17.83,0,0,1-4.26-3.62l-.15-.16c-.92-1-1.48-1.63-1.85-1.65s-1,.53-2.06,1.44c-3.88,3.36-9,4.07-14.13,2C5.1,123.58,2,119.12,2.05,113.6c.08-4.28,2-7.18,5.74-8.62a24,24,0,0,1,4.89-1.45c1.79-.28,2.46-1.09,2.37-2.89-.29-6.11,2.56-10.76,8.69-14.21,1-.56,2-1.14,3-1.71,4.81-2.81,9.79-5.7,15.54-6.78l1.08-.2a25,25,0,0,1,5.78-.68c7.68.27,15.83.68,26.42,1.34a23.27,23.27,0,0,1,5.14,1.13l.28.09c1,.31,1.69.36,1.93.15s.32-.56.15-1.76c-.42-2.87.39-5.47,2.54-8.16A8.61,8.61,0,0,1,92,66.4c2.87-.17,5.76-.19,8.47-.2h.11c3.53,0,3.53,0,4-3.48A22.29,22.29,0,0,1,115.1,46.17a30.22,30.22,0,0,1,10.75-4c12.1-2,22-.55,30.15,4.48a36.74,36.74,0,0,1,5.82,4.81c.92.88,1.87,1.78,2.84,2.61l.26.23c.66.57,1.48,1.27,2.1,1.28,0,0,.42-.16,1.28-2,.39-.86.72-1.77,1-2.65s.59-1.63.94-2.43A12.21,12.21,0,0,1,180.57,41c6.93-.76,14.25-1.09,20.68,3.8a1.26,1.26,0,0,0,1.07.35c.4-.13.78-.71,1.07-1.64A61.33,61.33,0,0,1,214,23.31a27.7,27.7,0,0,1,21.13-10.57,51.32,51.32,0,0,1,13.7,1,49.16,49.16,0,0,1,10.89,4.44l1.12.56c1.7.85,2.27.71,3.23-.76C270.78,7.59,280,2.26,291.45,2.15c2.2,0,4.43,0,6.59,0,2,0,4,0,5.95,0h.23c11.32,0,20.08,5.38,26,16,3.4,6.06,6.91,13.37,7.19,21.66a3.33,3.33,0,0,0,.75,1.92,3.46,3.46,0,0,0,2.28-.89c6.78-6.14,13.52-9.8,20.62-11.19A37,37,0,0,1,372.8,29c2,.25,4.36,1.63,6.95,4.09,4.92,4.67,7.54,10.9,8.24,19.63.13,1.53.17,3.09.22,4.6v.21c.06,1.89.42,3,1.07,3.4s1.79.05,3.39-.89a15.73,15.73,0,0,1,8.72-2.38,7.45,7.45,0,0,1,6.31,3.86,7.58,7.58,0,0,1-.06,7.49,2.88,2.88,0,0,1-.26.35c-.06.08-.15.19-.17.23l0,.39a2.67,2.67,0,0,0,0,1.36,2.93,2.93,0,0,0,1.25,0l1.85-.5a73.37,73.37,0,0,0,7.49-2.28c8-3.1,15.85-1.4,23.18.6,4.05,1.11,6.59,4.6,9.05,8l.5.68c3.43,4.67,4,10.11,4.49,15.37.07.75.15,1.49.23,2.23a27.8,27.8,0,0,0,.51,2.87c0,.2.09.41.13.61l.47-.3a24.52,24.52,0,0,0,2.23-1.54c7.69-6.28,16-7.77,24.6-4.41,5.1,2,8,6.22,8.44,12.59a20.8,20.8,0,0,1,0,3.06c0,.37-.05.73-.06,1.1-.05,1.28.16,2.09.63,2.46s1.43.39,2.81,0c5.86-1.69,13.41-2.9,19.81,2.82a12.12,12.12,0,0,1,3.42,4.75c2.54,7.62,2.24,13.56-.94,18.7a18,18,0,0,1-13.75,8.4,65.88,65.88,0,0,1-10.13,0l-2.25-.11c-5.24-.22-9-3.29-12.38-6.42a3.26,3.26,0,0,0-1.49-.52l-.2,0c0,.08,0,.16,0,.24a3.24,3.24,0,0,0,.38,1.59,21.3,21.3,0,0,0,2.71,2.56c.51.43,1.07.91,1.67,1.45l.67.59Z"/><path d="M323.92,149c1.14,0,2.28,0,3.42,0,10-.18,17.24-3,22.76-8.85a11.76,11.76,0,0,1,1.19-1.05,10.18,10.18,0,0,0,1.18-1.06c1.92-2.19,3.43-4,4.73-5.77a1.43,1.43,0,0,0-.08-1.11,2.11,2.11,0,0,0-1.3.07,2.08,2.08,0,0,0-.66.6,3.11,3.11,0,0,1-.29.33l-2.34,2.54c-1.75,1.92-3.56,3.9-5.5,5.7a22.77,22.77,0,0,1-5.81,3.76c-9.61,4.48-19.71,3.69-28.33,2.33-12.74-2-23.4-6-32.59-12.31-4.87-3.32-8.49-6.56-10.33-11.58-.1-.26-.62-.54-1.08-.78l-.22-.11-.09.25a2.69,2.69,0,0,0-.23,1.37l.18.39a21.5,21.5,0,0,0,3.21,5.57A48.11,48.11,0,0,0,291.13,142l1.6.59c9.39,3.5,19.1,7.1,29.56,6.35h1.63Z"/><path d="M411.86,137.14l2.52-.1c1.79-.06,3.63-.12,5.43-.31,10.19-1,17.45-5,22.19-12.18a17.17,17.17,0,0,0,2.21-4.53c.1-.32-.18-.91-.42-1.42a2.4,2.4,0,0,1-.11-.23l-.13.11a3.77,3.77,0,0,0-1.05,1.13,23.47,23.47,0,0,1-13.25,13c-6.21,2.47-13.21,3.26-22.06,2.47-11.79-1-23-2.78-30.89-12.44a2.08,2.08,0,0,0-.85-.22l-.21,0a1.59,1.59,0,0,1-.07.2,3.26,3.26,0,0,0-.24,1.18,2.38,2.38,0,0,0,.54.92c.1.13.2.25.29.38a18.25,18.25,0,0,0,8.39,6.37c8.11,3.22,17.6,6.58,27.69,5.72Z"/><path d="M129.54,86.37l.27,0a2.33,2.33,0,0,0,1.1-.28c1.45-1.56,2.83-3.25,4.16-4.88L136,80c4.1-5,8.49-8,13.41-9.18,6.46-1.57,13.27-1.17,22.09,1.3a3.28,3.28,0,0,0,1.6-.2l.17,0-.06-.08A8.82,8.82,0,0,0,172,70.33a2.88,2.88,0,0,0-1.27-.4l-.2,0c-3.05-.54-6.1-1.06-9.21-1.58l-3.19-.55c-1,.13-2,.22-3,.31a38.31,38.31,0,0,0-6.51,1c-8.42,2.31-13.5,8.42-19.27,16.16a2.53,2.53,0,0,0,.09.93C129.51,86.22,129.53,86.3,129.54,86.37Z"/><path d="M38.41,93.66a40.59,40.59,0,0,1,4.26-1.48c1.15-.35,2.33-.72,3.46-1.15A3.79,3.79,0,0,0,47.37,90l.11-.12-.17-.07a3.87,3.87,0,0,0-1.64-.45,17,17,0,0,0-4.52,1c-7.59,2.82-10.31,6.23-10.37,13,0,.33,0,.67,0,1a8.16,8.16,0,0,0,.27,2.21,2.76,2.76,0,0,0,.91,1l.16.14.09-.12a3.08,3.08,0,0,0,.6-1.14,8.54,8.54,0,0,0,0-2c0-.38-.07-.76-.08-1.14C32.63,98.57,34.54,95.32,38.41,93.66Z"/></g></g></g></g></svg>