<svg xmlns="http://www.w3.org/2000/svg" viewBox="0 0 463.94 226.96"><defs><style>.cls-1{fill:#fff;}</style></defs><g id="Layer_2" data-name="Layer 2"><g id="Homepage"><g id="Clouds"><g id="Clouds_Right"><g id="_11" data-name="11"><path d="M374.29,161.49c-1.65,1.83-3,3.53-4.57,5a7.47,7.47,0,0,1-8.1,1.7,2.32,2.32,0,0,0-2.56.51A10.51,10.51,0,0,1,349,171.18a46.6,46.6,0,0,1-3.08,4.76,29.79,29.79,0,0,1-15.12,10.14c-6.31,1.77-12.81,1.54-19.25,1.31a90.75,90.75,0,0,1-12-1.31,50.89,50.89,0,0,1-7.07-2.27,15.32,15.32,0,0,1,0,2.54,50.08,50.08,0,0,1-1.59,8c-2.6,7.45-7.12,13.59-14,17.63a47.87,47.87,0,0,1-17.6,6.29,118.77,118.77,0,0,1-27.49.86,44.43,44.43,0,0,1-20.21-6.84,48.18,48.18,0,0,1-7.3-6.43c-.94-.93-1.35-1.15-2.6-.32-8,5.28-16.6,7.12-26,4.55a46.66,46.66,0,0,1-15.67-7.94,67.11,67.11,0,0,1-6.86,3.94c-3.16,1.36-6.6.85-9.94.83a19.77,19.77,0,0,1-4-.33c-1.64-.38-3.23-1-5.12-1.64-.74.68-1.77,1.67-2.84,2.61a22.88,22.88,0,0,1-14.77,5.82c-4,.1-8.08-.56-12.12-.84a2.23,2.23,0,0,0-1.3.36c-3.79,2.58-7.83,3.67-12.37,2.31-.36-.1-1.09.39-1.37.79A24,24,0,0,1,81,224a23.68,23.68,0,0,1-16.12,2.5c-2.56-.5-5.1-1.17-7.62-1.89a11.6,11.6,0,0,1-5.64-4.26,1.5,1.5,0,0,0-1.34-.4A28.42,28.42,0,0,1,41,221.81a72.71,72.71,0,0,1-20.4-1.59,36.08,36.08,0,0,1-18-9.64c-2.83-2.76-3.29-6.32-1.94-10,1.4-3.81,4.32-5.83,8.33-6.31.85-.1,1.7-.16,2.73-.25-.65-1.49-1.22-2.89-1.84-4.26a16.61,16.61,0,0,1,3.84-19.68A17.8,17.8,0,0,1,17,168c5.76-3.35,11.84-5.59,18.64-5.32a6.54,6.54,0,0,0,.92-.11c-1.31-2.56-1.26-5.23-1-7.88A12.89,12.89,0,0,1,40.09,146a9.64,9.64,0,0,1,6.5-1.88c3.15,0,6.31.29,9.45.55.78.07,1.24,0,1.58-.77s.86-1.6,1.31-2.39c1.72-3,4.68-3.9,7.79-4.54,5.35-1.11,10.67-.59,16,.44,3.76.73,7.5,1.55,11.25,2.31.7.14,1.34.29,1.66-.75,1.57-5,4.57-9.17,8.19-13a48.41,48.41,0,0,1,9.48-7.85,38.61,38.61,0,0,1,20.55-5.93c5.88,0,11.75.19,17.63.34a1.5,1.5,0,0,0,1.66-1.13c1.48-3.46,3.09-6.87,4.69-10.36-.54-.28-1.38-.7-2.2-1.14-3.43-1.82-4.93-4.7-4.87-8.56,0-3,.33-5.78,2.23-8.27a7.46,7.46,0,0,1,6.72-3.1c1.51.09,3,.37,4.68.59.61-1.63.55-3.8,3.27-4.65-6.61-2.38-9.53-6.37-7.38-13.05-.5-.18-.93-.36-1.38-.51-4.61-1.62-7.31-4.8-7.69-9.7a18,18,0,0,1,3.06-12.26,8.19,8.19,0,0,0,2-5.25c0-4.91,2.55-8.65,6.88-11,3.61-1.94,7.44-3.35,11.66-2.87,1.64.19,3.25.66,5,1a2.38,2.38,0,0,0,.09-.62,11.81,11.81,0,0,1,3.17-9.08c2.15-2.54,5.16-3.61,8.29-4.2A54.24,54.24,0,0,1,197.36,8a2.08,2.08,0,0,0,1.31-.54A19,19,0,0,1,213.44,0c4.23-.09,8.48,0,12.44,1.56A11.48,11.48,0,0,1,230.53,5c.93,1.21.93,3.15,1.39,5l4.75.65a12.41,12.41,0,0,1,1.62-2.78c1-1,2.29-2.44,3.59-2.61,7.45-1,14.88-.91,21.47,3.41a22.62,22.62,0,0,1,9.43,12.76c1.22,4,2.39,8,2.23,12.23a5.24,5.24,0,0,0,.88.23c8.89.8,14.69,11.93,10.19,20.6-1.72,3.32-4.34,5.48-8.6,4.71-.08,1.13-.15,2.15-.24,3.5a15.76,15.76,0,0,1,9.92-3c3.43.23,7,.28,9.45,3.42,3.71-3.48,7.92-3.06,11.6-.54,4,2.76,2.66,7.08,1.72,11.24a9.73,9.73,0,0,1,8.88,4.44,12,12,0,0,1,1.93,9.67L329,87.1c.12-.81.22-1.85.44-2.86,1-4.48,3.73-6.8,8.31-6.73a68,68,0,0,1,7,.76,13.73,13.73,0,0,1,1.07-3.63c1.91-3.17,5-4.1,8.54-3.85a40.2,40.2,0,0,1,5,1c.75-1.57,1.47-3.45,2.48-5.15a38.6,38.6,0,0,1,4.5-6.6,54.6,54.6,0,0,1,10.79-9.6c8.6-5.41,20.75-3.87,27.46,3.31a1.73,1.73,0,0,0,1.55.26,15.38,15.38,0,0,1,12.93.07c1.78.82,3.65,1.46,5.39,2.35,7.31,3.73,10.28,10.32,11.65,17.92.31,1.76.43,3.57.65,5.48a4.64,4.64,0,0,0,.59-.32c5.21-4.05,10.76-4.34,16.3-1,4.68,2.85,8.43,6.71,9.7,12.27a32.05,32.05,0,0,1,.62,7.39c0,2.12-2.57,4.37-5.23,4.85a24.65,24.65,0,0,1-11.63-.9c-2.05-.61-4-1.49-6-2.26-.51,6.71-4.66,10.68-11.51,11.21a12.24,12.24,0,0,1-6.69-1.13,3.11,3.11,0,0,0-1.91-.3,19.13,19.13,0,0,1-13.11-1.6,1.47,1.47,0,0,0-1.86.32c-5.58,4.54-11.79,7.53-19.19,7.06a51,51,0,0,1-6.15-1.17A21,21,0,0,1,377,128.23a18,18,0,0,1,2,0c3.16.38,6.35.64,9.48,1.25,3.81.74,6.4,3.13,8.21,6.56,2.39,4.5,3.46,9.13,1.88,14.09-2,6.26-6.8,9.49-12.76,11.28A22.72,22.72,0,0,1,374.29,161.49ZM315.61,94.18c-1.53.84-2.71,1.58-4,2.13-.38.17-1-.18-1.48-.29.21-.42.32-1,.66-1.24,1-.67,2.1-1.15,3.11-1.78,4-2.52,6.37-6,4.88-10.81a16,16,0,0,0-2.23-3.79,5.77,5.77,0,0,0-4.7-2.64c-1.15-.07-2.3-.12-3.44-.22s-1.6-.81-.9-1.85a9.09,9.09,0,0,0,1.07-7.7,3.23,3.23,0,0,0-1-1.67c-2.25-1.72-7.53-3-10,.48-.77,1.12-1.53.9-2.4-.16a6.31,6.31,0,0,0-2.4-2.11c-4.35-1.37-8.74-1.72-12.92.67-1,.6-2,1.35-3,2s-1.76.22-1.74-.88c0-2.53.1-5,.22-7.58a1.53,1.53,0,0,1,.71-1.07c.21-.1.8.23,1,.52,1.15,1.37,2.08,1.68,3.71,1a7.19,7.19,0,0,0,3.92-4.34c2.06-5.61,1.05-11.12-4.28-15.22a9.59,9.59,0,0,0-3.82-1.72,62.17,62.17,0,0,0-6.41-.69c-.7-.07-1.65,0-1.5-1,.05-.33,1-.69,1.52-.77a23.26,23.26,0,0,1,2.91,0,16.51,16.51,0,0,0-.16-3c-.95-3.75-1.59-7.63-3.09-11.16a19,19,0,0,0-13.5-11.63,65.59,65.59,0,0,0-8.67-1,21.6,21.6,0,0,0-3,0c-3.75.2-5.4,1.57-6.36,5.22-.37,1.4-1.06,1.91-1.93,1.25-1.83-1.38-3.83-1.18-5.9-.94A2.36,2.36,0,0,1,229,11.7c-.21-.18,0-1,.24-1.52A3.92,3.92,0,0,0,228,4.85a12.15,12.15,0,0,0-3.25-1.75,32.43,32.43,0,0,0-11.35-1.24,17,17,0,0,0-13.68,7.25,3,3,0,0,1-2,.74c-2.14.17-4.32,0-6.41.38a11.79,11.79,0,0,0-6.86,3.34,11,11,0,0,0-1.47,13.15,3.5,3.5,0,0,1,.56,1.15,7.28,7.28,0,0,1-.09,1.54,6.11,6.11,0,0,1-1.47-.73,3.16,3.16,0,0,1-.68-1.25c-1.23-3.28-3.92-4.13-7.06-4.37-3.74-.28-7.09,1-10.28,2.65-3.58,1.88-6.07,4.93-5.95,9a10.29,10.29,0,0,1-2.47,7,17,17,0,0,0-2.46,6.92c-1.09,6.22,1.18,10.71,7.63,12.37,2,.53,2.14.73,1.26,2.59a6.64,6.64,0,0,0,2,8.46,11.61,11.61,0,0,0,7.11,2.32c.46,0,.91.57,1.36.88-.37.36-.7,1-1.12,1-3.13.55-5.21,2-5.31,5.47,0,1.14-.73,1.34-1.82,1a24.85,24.85,0,0,0-5-1,5.46,5.46,0,0,0-4.9,2.45c-1.69,2.28-1.68,4.87-1.82,7.52-.2,3.76,3,7,6.53,7.54A1.57,1.57,0,0,0,160.2,99c3.72-3.16,8.28-4.28,12.85-5.36.42-.1,1,.32,1.45.5-.36.41-.64,1-1.08,1.2-2,.65-4.07,1.08-6.06,1.75a15.25,15.25,0,0,0-9.07,7.27,61.15,61.15,0,0,0-3.52,7.84c-.75,2.1-.55,2.17-3.15,2.12-5.69-.11-11.37-.3-17.06-.34a36.35,36.35,0,0,0-22,6.8c-7.1,5.11-13.12,11.15-15.64,19.89a1.31,1.31,0,0,1-1.74,1c-3.37-.68-6.77-1.26-10.13-2-5.69-1.24-11.38-2-17.23-1.18-4.31.61-7.43,2.59-8.92,6.8-.42,1.2-1.17,1.38-2.45,1.28-3.89-.32-7.81-.53-11.71-.48-2.92,0-4.77,1.92-6,4.45-2.37,4.81-1.9,9.42.88,13.9.42.66,1.22,1.5.3,2.12-1.1.72-1.31-.66-1.88-1.18-.39-.35-.86-.89-1.27-.87a73.37,73.37,0,0,0-8.4.7c-4.07.68-7.68,2.65-11.18,4.72a13.74,13.74,0,0,0-7,11.32c-.36,4.23,1.37,7.84,3.11,11.47a2.19,2.19,0,0,0,2.13,1.41,5.55,5.55,0,0,1,2.12.26c.52.2.89.77,1.33,1.17a5.18,5.18,0,0,1-1.56.57c-2.72,0-5.45-.2-8.16,0a7.37,7.37,0,0,0-6.75,5.2,7.3,7.3,0,0,0,1.88,8.29,34.22,34.22,0,0,0,12.17,7.41c7.44,2.67,15.2,3.26,23.05,3,3.55-.12,7.1-.24,10.32-2a1.92,1.92,0,0,1,3,.76,9.32,9.32,0,0,0,4.63,3.92c6,2.26,12,3.25,18.36,1.4A21.22,21.22,0,0,0,88.43,214a5.58,5.58,0,0,1-.89-.64c-1.35-1.47-2.72-2.92-4-4.48-.26-.33,0-1.1.07-1.67.48.24,1.19.34,1.41.73a13.13,13.13,0,0,0,6.27,5.44c2.81,1.28,8.38.24,10.42-1.94-1-1.3-2-2.54-2.88-3.89-.25-.4-.07-1.08-.1-1.63a16.21,16.21,0,0,1,1.55.63c.19.1.29.37.4.58,1.38,2.6,3.8,3.62,6.47,4.1a32.82,32.82,0,0,0,4.86.37,29.1,29.1,0,0,0,10.48-1.17,23.61,23.61,0,0,0,10.65-7.25c.75-.88,1.43-.78,2.37-.19a13.27,13.27,0,0,0,3.56,1.66,17.9,17.9,0,0,0,4.27.43,65.78,65.78,0,0,0,7.16-.19c3-.29,5.38-2.12,7.65-4,1-.79,1.77-1.34,3-.42a61.46,61.46,0,0,0,5.93,4c7.25,4.15,14.94,6.17,23.27,4.11,4.64-1.14,9-2.95,12.45-6.45a12.63,12.63,0,0,1,1.22-1.39,4.15,4.15,0,0,1,1.36-.4,4,4,0,0,1,.06,1.41,6.31,6.31,0,0,1-.93,1.38c1.49,2.6,5.69,6.15,8.39,7.81a43.71,43.71,0,0,0,19.18,6.35,117,117,0,0,0,26.77-.83,45.68,45.68,0,0,0,16.94-6c6.57-3.84,10.85-9.71,13.4-16.82a23.84,23.84,0,0,0,1.36-5.69c.27-2.85.16-5.73.28-8.6a16,16,0,0,0-1.94-8.28,44.32,44.32,0,0,0-3.84-6.21c-1.42-1.84-3.23-3.37-4.8-5.11-.33-.37-.34-1-.5-1.56l1.65.21c.08,0,.14.12.21.18,6.49,6,11.31,12.73,11.08,22.06a1.79,1.79,0,0,0,.87,1.39c3,1,6,2.34,9.14,2.84a84.82,84.82,0,0,0,22.62.37,26.83,26.83,0,0,0,21.21-13.65c.31-.53.57-1.1.87-1.65a1.49,1.49,0,0,1,2.06-.71,8.19,8.19,0,0,0,9-2.54,18.44,18.44,0,0,1-1.82-2.13,4.42,4.42,0,0,1-.31-1.63,4.56,4.56,0,0,1,1.57.46,16.4,16.4,0,0,1,1.68,1.75,6.66,6.66,0,0,0,7.69.93,11.39,11.39,0,0,0,4.77-5.38,1.68,1.68,0,0,1,2.35-1.16,18.69,18.69,0,0,0,11.32,0c5.06-1.63,9.23-4.43,11-9.82,1.44-4.43.59-8.6-1.61-12.57-1.11-2-2.29-4-4.56-5a26.3,26.3,0,0,0-14.89-1.8A4.84,4.84,0,0,1,374,130a9.64,9.64,0,0,1,.53-1.51c1.13-2.14,2.45-4.2,3.41-6.41,1.26-2.89.86-6,.86-9.08,0-8.77-5-13.71-12.56-16.16-7.3-2.39-15-1.93-22.48-.84a20.13,20.13,0,0,0-9.74,4,5,5,0,0,1-1.45.53,10.79,10.79,0,0,1-.14-1.59,2.48,2.48,0,0,1,.43-.9c1.52-2.71-1-8.07-3.86-8.6-4.78-.89-8.73-.19-11.35,4.87-.45.89-.69,1.89-1.18,2.76-.23.4-.82.6-1.25.89a4.43,4.43,0,0,1-.38-1.49A12.51,12.51,0,0,1,315.61,94.18Zm19.51,2.46c3.09-.89,6-2.2,8.94-2.47a144.9,144.9,0,0,1,15.46-.39,24.1,24.1,0,0,1,13,4,16.46,16.46,0,0,1,7.85,11.77c.35,2.36,1.5,3.1,3.42,3.52l.28.07c8.24,1.72,15-1.4,21.09-6.55,1.07-.91,1.79-1.09,3-.46a17.84,17.84,0,0,0,12.8,1.64,3.86,3.86,0,0,1,2.45.36c3.18,1.68,6.39,1.39,9.62.37a10.38,10.38,0,0,0,5.49-4.4c1.09-1.63.88-4.51-.2-5.65a5,5,0,0,1-.69-1.5,4.87,4.87,0,0,1,1.89-.06c2.66,1.07,5.21,2.42,7.91,3.37a21.87,21.87,0,0,0,10.62,1c2.37-.35,4.14-2.06,4.23-3.83.39-7.44-2.92-13-8.91-17.07-5.43-3.74-12.83-2.75-16.24,2.07a1.65,1.65,0,0,1-1.39.63c-.38-.13-.71-.86-.77-1.35-.23-2.09-.21-4.21-.52-6.29-1.13-7.43-3.82-14-11-17.56a46.21,46.21,0,0,0-7.57-3,11.81,11.81,0,0,0-13.15,4.64,30.81,30.81,0,0,0-4.61,10c-.14.48-.85.8-1.29,1.19-.15-.52-.57-1.14-.42-1.55a76,76,0,0,1,3.3-8.21,51.88,51.88,0,0,1,4.09-5.86,8.43,8.43,0,0,1-1.35-.91c-6-5.71-16.68-7.06-23.85-2.31a83.1,83.1,0,0,0-9.1,7.6,29.18,29.18,0,0,0-8.9,15.87c-.1.44-.64.78-1,1.16-.27-.48-.81-1-.74-1.43a1.3,1.3,0,0,0-1-1.63c-3.05-1.18-6.08-1.37-8.94.5a4,4,0,0,0-2,4.25,8.37,8.37,0,0,1,0,2.29c-.1.86-.67,1.42-1.48.8-2.28-1.75-4.9-2-7.6-2-3.78,0-5.91,1.87-6.65,5.6-.34,1.76-.52,3.4,1.32,4.54a3.7,3.7,0,0,1,1,1.38C334.57,92.65,335.45,94.55,335.12,96.64Z"/><path class="cls-1" d="M315.61,94.18a12.51,12.51,0,0,0-.75,2.27,4.43,4.43,0,0,0,.38,1.49c.43-.29,1-.49,1.25-.89.49-.87.73-1.87,1.18-2.76,2.62-5.06,6.57-5.76,11.35-4.87,2.86.53,5.38,5.89,3.86,8.6a2.48,2.48,0,0,0-.43.9,10.79,10.79,0,0,0,.14,1.59A5,5,0,0,0,334,100a20.13,20.13,0,0,1,9.74-4c7.51-1.09,15.18-1.55,22.48.84,7.52,2.45,12.56,7.39,12.56,16.16,0,3.06.4,6.19-.86,9.08-1,2.21-2.28,4.27-3.41,6.41A9.64,9.64,0,0,0,374,130a4.84,4.84,0,0,0,1.65.37,26.3,26.3,0,0,1,14.89,1.8c2.27,1,3.45,3,4.56,5,2.2,4,3.05,8.14,1.61,12.57-1.76,5.39-5.93,8.19-11,9.82a18.69,18.69,0,0,1-11.32,0,1.68,1.68,0,0,0-2.35,1.16,11.39,11.39,0,0,1-4.77,5.38,6.66,6.66,0,0,1-7.69-.93,16.4,16.4,0,0,0-1.68-1.75,4.56,4.56,0,0,0-1.57-.46,4.42,4.42,0,0,0,.31,1.63,18.44,18.44,0,0,0,1.82,2.13,8.19,8.19,0,0,1-9,2.54,1.49,1.49,0,0,0-2.06.71c-.3.55-.56,1.12-.87,1.65a26.83,26.83,0,0,1-21.21,13.65,84.82,84.82,0,0,1-22.62-.37c-3.12-.5-6.12-1.8-9.14-2.84a1.79,1.79,0,0,1-.87-1.39c.23-9.33-4.59-16.11-11.08-22.06-.07-.06-.13-.17-.21-.18l-1.65-.21c.16.53.17,1.19.5,1.56,1.57,1.74,3.38,3.27,4.8,5.11a44.32,44.32,0,0,1,3.84,6.21,16,16,0,0,1,1.94,8.28c-.12,2.87,0,5.75-.28,8.6a23.84,23.84,0,0,1-1.36,5.69c-2.55,7.11-6.83,13-13.4,16.82a45.68,45.68,0,0,1-16.94,6,117,117,0,0,1-26.77.83A43.71,43.71,0,0,1,213,210.93c-2.7-1.66-6.9-5.21-8.39-7.81a6.31,6.31,0,0,0,.93-1.38,4,4,0,0,0-.06-1.41,4.15,4.15,0,0,0-1.36.4,12.63,12.63,0,0,0-1.22,1.39c-3.44,3.5-7.81,5.31-12.45,6.45-8.33,2.06-16,0-23.27-4.11a61.46,61.46,0,0,1-5.93-4c-1.24-.92-2.06-.37-3,.42-2.27,1.86-4.61,3.69-7.65,4a65.78,65.78,0,0,1-7.16.19,17.9,17.9,0,0,1-4.27-.43,13.27,13.27,0,0,1-3.56-1.66c-.94-.59-1.62-.69-2.37.19a23.61,23.61,0,0,1-10.65,7.25,29.1,29.1,0,0,1-10.48,1.17,32.82,32.82,0,0,1-4.86-.37c-2.67-.48-5.09-1.5-6.47-4.1-.11-.21-.21-.48-.4-.58a16.21,16.21,0,0,0-1.55-.63c0,.55-.15,1.23.1,1.63.88,1.35,1.91,2.59,2.88,3.89-2,2.18-7.61,3.22-10.42,1.94a13.13,13.13,0,0,1-6.27-5.44c-.22-.39-.93-.49-1.41-.73,0,.57-.33,1.34-.07,1.67,1.23,1.56,2.6,3,4,4.48a5.58,5.58,0,0,0,.89.64A21.22,21.22,0,0,1,75.8,224.13c-6.32,1.85-12.38.86-18.36-1.4a9.32,9.32,0,0,1-4.63-3.92,1.92,1.92,0,0,0-3-.76c-3.22,1.75-6.77,1.87-10.32,2-7.85.27-15.61-.32-23-3a34.22,34.22,0,0,1-12.17-7.41,7.3,7.3,0,0,1-1.88-8.29,7.37,7.37,0,0,1,6.75-5.2c2.71-.19,5.44,0,8.16,0a5.18,5.18,0,0,0,1.56-.57c-.44-.4-.81-1-1.33-1.17a5.55,5.55,0,0,0-2.12-.26,2.19,2.19,0,0,1-2.13-1.41c-1.74-3.63-3.47-7.24-3.11-11.47a13.74,13.74,0,0,1,7-11.32c3.5-2.07,7.11-4,11.18-4.72a73.37,73.37,0,0,1,8.4-.7c.41,0,.88.52,1.27.87.57.52.78,1.9,1.88,1.18.92-.62.12-1.46-.3-2.12-2.78-4.48-3.25-9.09-.88-13.9,1.25-2.53,3.1-4.42,6-4.45,3.9-.05,7.82.16,11.71.48,1.28.1,2-.08,2.45-1.28,1.49-4.21,4.61-6.19,8.92-6.8,5.85-.84,11.54-.06,17.23,1.18,3.36.74,6.76,1.32,10.13,2a1.31,1.31,0,0,0,1.74-1c2.52-8.74,8.54-14.78,15.64-19.89a36.35,36.35,0,0,1,22-6.8c5.69,0,11.37.23,17.06.34,2.6,0,2.4,0,3.15-2.12a61.15,61.15,0,0,1,3.52-7.84,15.25,15.25,0,0,1,9.07-7.27c2-.67,4.06-1.1,6.06-1.75.44-.15.72-.79,1.08-1.2-.49-.18-1-.6-1.45-.5-4.57,1.08-9.13,2.2-12.85,5.36a1.57,1.57,0,0,1-1.14.28c-3.51-.59-6.73-3.78-6.53-7.54.14-2.65.13-5.24,1.82-7.52a5.46,5.46,0,0,1,4.9-2.45,24.85,24.85,0,0,1,5,1c1.09.31,1.79.11,1.82-1,.1-3.49,2.18-4.92,5.31-5.47.42-.07.75-.67,1.12-1-.45-.31-.9-.87-1.36-.88a11.61,11.61,0,0,1-7.11-2.32,6.64,6.64,0,0,1-2-8.46c.88-1.86.78-2.06-1.26-2.59-6.45-1.66-8.72-6.15-7.63-12.37a17,17,0,0,1,2.46-6.92,10.29,10.29,0,0,0,2.47-7c-.12-4.06,2.37-7.11,5.95-9,3.19-1.67,6.54-2.93,10.28-2.65,3.14.24,5.83,1.09,7.06,4.37a3.16,3.16,0,0,0,.68,1.25,6.11,6.11,0,0,0,1.47.73,7.28,7.28,0,0,0,.09-1.54,3.5,3.5,0,0,0-.56-1.15,11,11,0,0,1,1.47-13.15,11.79,11.79,0,0,1,6.86-3.34c2.09-.37,4.27-.21,6.41-.38a3,3,0,0,0,2-.74,17,17,0,0,1,13.68-7.25A32.43,32.43,0,0,1,224.77,3.1,12.15,12.15,0,0,1,228,4.85a3.92,3.92,0,0,1,1.18,5.33c-.23.47-.45,1.34-.24,1.52a2.36,2.36,0,0,0,1.65.37c2.07-.24,4.07-.44,5.9.94.87.66,1.56.15,1.93-1.25,1-3.65,2.61-5,6.36-5.22a21.6,21.6,0,0,1,3,0,65.59,65.59,0,0,1,8.67,1A19,19,0,0,1,270,19.21c1.5,3.53,2.14,7.41,3.09,11.16a16.51,16.51,0,0,1,.16,3,23.26,23.26,0,0,0-2.91,0c-.55.08-1.47.44-1.52.77-.15,1,.8,1,1.5,1a62.17,62.17,0,0,1,6.41.69,9.59,9.59,0,0,1,3.82,1.72c5.33,4.1,6.34,9.61,4.28,15.22a7.19,7.19,0,0,1-3.92,4.34c-1.63.7-2.56.39-3.71-1-.23-.29-.82-.62-1-.52a1.53,1.53,0,0,0-.71,1.07c-.12,2.53-.18,5.05-.22,7.58,0,1.1.75,1.5,1.74.88s2-1.38,3-2c4.18-2.39,8.57-2,12.92-.67a6.31,6.31,0,0,1,2.4,2.11c.87,1.06,1.63,1.28,2.4.16,2.44-3.51,7.72-2.2,10-.48a3.23,3.23,0,0,1,1,1.67,9.09,9.09,0,0,1-1.07,7.7c-.7,1-.34,1.73.9,1.85s2.29.15,3.44.22a5.77,5.77,0,0,1,4.7,2.64,16,16,0,0,1,2.23,3.79C320.31,87,318,90.48,313.94,93c-1,.63-2.12,1.11-3.11,1.78-.34.23-.45.82-.66,1.24.5.11,1.1.46,1.48.29C312.9,95.76,314.08,95,315.61,94.18Z"/><path class="cls-1" d="M335.12,96.64c.33-2.09-.55-4-1.62-5.82a3.7,3.7,0,0,0-1-1.38c-1.84-1.14-1.66-2.78-1.32-4.54.74-3.73,2.87-5.55,6.65-5.6,2.7,0,5.32.21,7.6,2,.81.62,1.38.06,1.48-.8a8.37,8.37,0,0,0,0-2.29,4,4,0,0,1,2-4.25c2.86-1.87,5.89-1.68,8.94-.5a1.3,1.3,0,0,1,1,1.63c-.07.42.47,1,.74,1.43.33-.38.87-.72,1-1.16a29.18,29.18,0,0,1,8.9-15.87,83.1,83.1,0,0,1,9.1-7.6c7.17-4.75,17.81-3.4,23.85,2.31a8.43,8.43,0,0,0,1.35.91,51.88,51.88,0,0,0-4.09,5.86,76,76,0,0,0-3.3,8.21c-.15.41.27,1,.42,1.55.44-.39,1.15-.71,1.29-1.19a30.81,30.81,0,0,1,4.61-10,11.81,11.81,0,0,1,13.15-4.64,46.21,46.21,0,0,1,7.57,3c7.22,3.59,9.91,10.13,11,17.56.31,2.08.29,4.2.52,6.29.06.49.39,1.22.77,1.35a1.65,1.65,0,0,0,1.39-.63c3.41-4.82,10.81-5.81,16.24-2.07,6,4.12,9.3,9.63,8.91,17.07-.09,1.77-1.86,3.48-4.23,3.83a21.87,21.87,0,0,1-10.62-1c-2.7-1-5.25-2.3-7.91-3.37a4.87,4.87,0,0,0-1.89.06,5,5,0,0,0,.69,1.5c1.08,1.14,1.29,4,.2,5.65a10.38,10.38,0,0,1-5.49,4.4c-3.23,1-6.44,1.31-9.62-.37a3.86,3.86,0,0,0-2.45-.36,17.84,17.84,0,0,1-12.8-1.64c-1.2-.63-1.92-.45-3,.46-6.07,5.15-12.85,8.27-21.09,6.55l-.28-.07c-1.92-.42-3.07-1.16-3.42-3.52a16.46,16.46,0,0,0-7.85-11.77,24.1,24.1,0,0,0-13-4,144.9,144.9,0,0,0-15.46.39C341.08,94.44,338.21,95.75,335.12,96.64Z"/></g></g></g></g></g></svg>