<svg xmlns="http://www.w3.org/2000/svg" viewBox="0 0 428.25 227.65"><defs><style>.cls-1{fill:#fff;}</style></defs><g id="Layer_2" data-name="Layer 2"><g id="Homepage"><g id="Clouds"><g id="Clouds_Left"><g id="_01" data-name="01"><path d="M381.64,183.58c-.84,2.13-1.56,4.21-2.47,6.21a18.72,18.72,0,0,1-12.72,10.88c-6.75,1.78-13.6,2.4-20.44.33-1.36-.41-2.69-1.57-3.95-1.47s-2.32,1.66-3.63,2.07a63.14,63.14,0,0,1-10.7,2.8,121.45,121.45,0,0,1-28.2.11,30.17,30.17,0,0,1-7.32-2.19,61.8,61.8,0,0,1-13.08-7.45c-1.17-.82-2.38-1.58-3.65-2.41-11.7,10.18-24,7.84-36.47,1.24a1.52,1.52,0,0,0-.15.47c.08,5.56-2.27,10.38-4.81,15.05-1.86,3.4-5.11,5.53-8.36,7.56-6.77,4.25-14.14,4-21.63,3.05-.48-.06-1-.19-1.38-.28-2.81,6.52-8.26,8.06-14.54,8.1-6,0-11.26-2.2-16.12-5.51-1.3-.88-2.46-2-3.75-2.87a4.17,4.17,0,0,0-2-.76A28.58,28.58,0,0,1,147.93,211a12.73,12.73,0,0,1-3.72-8.2c-.14-1.14-.62-1.49-1.73-1.66-6.08-1-10.88-3.73-13.24-9.73a39.64,39.64,0,0,1-1.17-4.37c-1.9-.14-4-.2-6.07-.49a8.48,8.48,0,0,1-5.37-2.8c-1.75,1.83-3.24,3.87-5.19,5.29-4,2.95-8.77,3.35-13.58,3a17.56,17.56,0,0,1-11.75-5.16c-3.8-3.87-3.84-8.43-1.74-12.63.26-.52.56-1,.95-1.72-2.58.1-4.95-.12-6.4-2.25-1.78,1.92-3.4,4-5.31,5.69-5,4.47-11,5.94-17.54,5.63a28.68,28.68,0,0,1-8.77-1.8c-4.89-1.8-6.6-6.33-6-10.93.05-.39.11-.76.22-1.44-4.36,2.68-8.82,2.44-13.32,1.35-4.86-1.17-7.23-5.18-9.9-9-3.06,1.77-6.4,1.85-9.75,1.43-6.68-.85-10.2-5.65-7.71-12.54,1.67-4.63,5.05-7.9,8.84-10.86A11.11,11.11,0,0,1,21.43,136a1.25,1.25,0,0,0,1.11-.24,12.61,12.61,0,0,1,8.09-4.34c-.18-3-.38-5.9-.53-8.77a20.76,20.76,0,0,1,2.34-10.73c1.66-3.23,3.2-6.64,5.47-9.43,4.7-5.77,10.74-9.21,18.51-9.33a46.22,46.22,0,0,1,16.17,2.29,43.06,43.06,0,0,1,6.25,3.31c.59.33,1.12.78,1.85,1.3.88-1.33,1.66-2.63,2.55-3.84,3.73-5.07,8.12-9.44,13.93-12a21.1,21.1,0,0,1,6.3-1.5,62.42,62.42,0,0,1,18,.48c1.58.29,3.13.8,4.89,1.26-1.54-11.38,3.45-19,13.44-23.84-.87-.88-1.74-1.68-2.52-2.56a11,11,0,0,1-1.1-13.29c.27-.41.52-.94.92-1.14,1.65-.85,1.34-2.13.94-3.5a31.35,31.35,0,0,1-.89-12.6c.78-6.41,4.3-10.5,10.51-12.09,6-1.54,12-1.67,17.72,1.39a8.29,8.29,0,0,0,.91.37c1.05-1.76,2-3.52,3.13-5.19a24.69,24.69,0,0,1,14.2-10.23C191.2-.5,198.74-.73,206.18,2c5.27,1.89,10.57,4.19,13.37,9.41,1.86,3.47,2.83,7.43,4.19,11.17.1.27.13.56.26,1.12,1.65-2.56,3.12-4.91,4.67-7.22,1.91-2.82,3.92-5.61,6.93-7.38a8.74,8.74,0,0,1,3.82-1.4c3.32-.16,6.66,0,10,0A2.57,2.57,0,0,0,251,7.33c5-4.18,10.94-4.77,16.8-3a14.18,14.18,0,0,1,9.79,10.08,2.28,2.28,0,0,0,1.62,1.82c2.88,1,4.48,3.5,6.12,5.81,5,7.06,5.52,14.62,2.28,22.54-.07.17-.13.34-.25.69,1.79-.77,3.41-1.52,5.07-2.16,6.77-2.57,12.87-.92,18.57,3,.92.64,1.64,1.57,2.56,2.23a2.62,2.62,0,0,0,1.59.28c3.84-.3,7.66-.69,11.29,1.24,2.5,1.33,4.13,3.18,4.44,6a11.77,11.77,0,0,1,.16,3.82c-.63,2.67.44,4.93,1.4,7.21a27.16,27.16,0,0,1-.54,22.67c-1.79,3.91-5.27,6-9,7.73-1.14.53-2.37.86-3.88,1.39,4,1.46,6.22,3.93,6.89,8A12.68,12.68,0,0,1,323,117.35c3-.32,5.38-.26,7.43,1.43s2.69,4,2.93,6.72c1.16-.61,2.19-1.27,3.31-1.72a16.8,16.8,0,0,1,4.61-1.46c4.9-.38,9.81-.18,14.38,1.85a14.89,14.89,0,0,1,6.91,6.67c1.34,2.43,2.28,5.07,3.48,7.82,2.38.13,5.28,0,8,.53a12.43,12.43,0,0,1,7,4.64,7.88,7.88,0,0,0,1.05-.41c3.76-2,7.83-2.14,11.85-1.55a13.41,13.41,0,0,1,9.45,5.8c.57.85,1.14.88,2.09.76a81.46,81.46,0,0,1,8.68-.71c3.26-.05,5.89,1.76,8.49,3.48.7.46,1.33,1,2,1.54,2.74,2.18,4.09,5,3.43,8.46s-1.89,6.62-5.82,7.66c-.18,0-.35.17-.21.1a57.38,57.38,0,0,1,3.06,6.65c1.37,4.26-.36,7.78-3.73,10.24a18.6,18.6,0,0,1-7,3,19.56,19.56,0,0,1-15.71-3.54c-1.41-1-2.83-2-4.29-2.89a1.4,1.4,0,0,0-1.24-.14c-3.42,2.58-7.17,2.32-11,1.41ZM365.8,140.65a24.22,24.22,0,0,1-.39,3c-.09.34-.66.56-1,.83a4,4,0,0,1-.7-1,3.86,3.86,0,0,1,0-1.17,16.77,16.77,0,0,0-1.53-8.49c-1.73-3.34-3.82-6.44-7.36-8-4.3-1.91-8.91-2.05-13.52-1.66a11.27,11.27,0,0,0-3.75,1.24c-1.46.69-2.82,1.62-4.25,2.39-1.24.66-1.83.29-1.9-1.12,0-.69,0-1.38,0-2.07-.21-3.49-2.51-5.68-6-5.55-1.41.05-2.8.53-4.22.67a6.14,6.14,0,0,1-1.85-.34,8.73,8.73,0,0,1,.71-1.62c1.1-1.56,2.45-3,3.38-4.62,2.39-4.28.41-10.34-4.08-12.22-1.91-.8-4.1-.94-6.15-1.46-.48-.12-.87-.59-1.31-.9.42-.39.78-1,1.27-1.12a15,15,0,0,1,2.93-.42c8.66-.83,13.8-5.07,16-13.5a24.35,24.35,0,0,0-1.18-15.52c-1.1-2.74-2.6-5.39-1.67-8.59a8.51,8.51,0,0,0-.14-3.08,5.9,5.9,0,0,0-3.72-4.93c-3.5-1.69-7.11-1.2-10.75-.78a2.5,2.5,0,0,1-1.94-.4,17.94,17.94,0,0,0-11.85-6.34c-5.2-.77-9.69,1-13.67,4.3-1,.81-2,1.64-3,2.37-.29.2-1,.26-1.16.08a1.92,1.92,0,0,1-.28-1.31c0-.29.36-.57.57-.84,5.49-7.26,6.21-17.92.62-25.35-1.53-2-2.82-4.44-5.46-5.22a3.31,3.31,0,0,1-2.56-2.78,12.19,12.19,0,0,0-8.56-9.06c-5.55-1.66-11.06-1-15.7,3.14a2.52,2.52,0,0,1-2,.4,20.84,20.84,0,0,0-10.11-.12,9.33,9.33,0,0,0-4.15,2.05,30.56,30.56,0,0,0-4.91,5.68c-2.24,3.4-4.88,6.59-6.09,10.61-.11.36-.79.55-1.2.82-.26-.42-.71-.84-.73-1.28a30.12,30.12,0,0,0-2-9.66c-1.27-3.25-2.38-6.59-5.32-8.89a32.89,32.89,0,0,0-9.58-5.19c-8.21-2.84-16.36-2.25-24.31.95A21.74,21.74,0,0,0,167.9,19.68c-.43,1.51-.8,3.05-1.32,4.54-.13.39-.74.61-1.12.91-.21-.49-.65-1-.58-1.45a19.17,19.17,0,0,1,.91-3.27c.28-.84.11-1.28-.74-1.74-5.51-3-11.26-3-17.11-1.41-5.29,1.4-8.2,4.92-8.93,10.38a33.81,33.81,0,0,0,1.54,14.58,1.35,1.35,0,0,1-.84,2,5.52,5.52,0,0,0-2.14,1.9,9,9,0,0,0,.79,10.22,27.13,27.13,0,0,0,3.16,3.09c1.82,1.55,1.83,2-.36,2.78-9.24,3.36-14.92,12.5-12.81,22.26.43,2-.36,2.73-2.33,2-5.18-2-10.58-2.25-16-2.24-6.73,0-13.07.88-18.41,5.78s-10,10.53-12,17.68c-1,3.67-1.19,7.58-1.81,11.37-.09.51-.62,1-.94,1.43-.3-.53-.88-1.08-.85-1.6.33-5.58,1-11.1,3.3-16.29a1.35,1.35,0,0,0-.21-1.23c-2.35-1.42-4.62-3.12-7.17-4.06A41.79,41.79,0,0,0,57.24,95a22.85,22.85,0,0,0-14.8,5.4c-3.72,3-5.72,7.11-7.8,11.19a25.8,25.8,0,0,0-1.45,20.1c.44,1.41,1.08,2.76,1.48,4.18.13.45-.2,1-.32,1.56-.45-.26-1.07-.42-1.31-.81-.45-.75-.59-1.69-1.05-2.43-.27-.44-1-1.05-1.33-.93a25.26,25.26,0,0,0-5.5,2.68c-2.65,2-3.65,5.05-4.61,8.08-.24.75-.38,1.77-1.44,1.51s-.63-1.26-.39-2c.66-1.89,1.38-3.75,2.12-5.75-2.6-1.11-5.17-1.47-7.7-.06a23.62,23.62,0,0,0-3.77,2.6c-2.94,2.46-5.63,5.19-6.8,9C1.75,152,1.14,154.71,3.65,157c2.95,2.72,10.34,3.37,13.6,1a3.28,3.28,0,0,0,.73-1.33c.59-1.28,1.1-2.61,1.79-3.85.18-.32.86-.37,1.32-.54a5.33,5.33,0,0,1,.15,1.57,6.38,6.38,0,0,1-.8,1.4,3.58,3.58,0,0,0-.27,3.67c2.59,4.52,5.75,8.32,11.54,8.52a19,19,0,0,0,3.84,0A13.32,13.32,0,0,0,44,163.1a36,36,0,0,1,3.66-3.65,4.29,4.29,0,0,1,1.55-.51,5.1,5.1,0,0,1,.34,1.58c-.18,1.85.14,2.47,1.91,3.15a7.73,7.73,0,0,0,7.33-.93c.43-.27,1.17-.07,1.77-.09-.27.55-.39,1.31-.84,1.63a8.77,8.77,0,0,1-6.84,1.7c-2.34-.42-4.5-1.16-5.39-3.71a11.29,11.29,0,0,0-4.17,6.12c-.77,3.23,0,7.9,4.55,9.59a27.85,27.85,0,0,0,8.63,1.74c5.88.24,11.28-1.13,15.76-5.09,2.43-2.14,4.92-4.33,5.38-7.88a1.1,1.1,0,0,1,.74-.74,1.3,1.3,0,0,1,.92.54,5.82,5.82,0,0,1,.52,1.22c1,2.39,2.44,3.16,5,2.73a6.33,6.33,0,0,1,1.73-.29,2.74,2.74,0,0,1,1.61.81c.17.2-.21.94-.44,1.39a11.92,11.92,0,0,1-.92,1.35c-4.78,7.08-.3,12.93,6.22,15.36a21.92,21.92,0,0,0,10.22.9,14,14,0,0,0,12-8.75,5.71,5.71,0,0,1,1-1.24c.37.42.72.85,1.11,1.26.86.9,1.59,2.23,2.65,2.6,4.77,1.65,9.54,2.1,13.8-1.48a3.76,3.76,0,0,1,1.08-.77,3.59,3.59,0,0,1,1.22,0c0,.44.12,1.1-.12,1.29a22.87,22.87,0,0,1-4.16,3c-1.69.85-1.92.89-1.54,2.77a10.47,10.47,0,0,0,.56,1.83c2.11,5.42,6.45,7.84,11.89,8.75a6.41,6.41,0,0,0,1.07,0c.35-1.35.61-2.6,1-3.8.12-.33.72-.49,1.1-.72.2.39.58.78.58,1.18a11.21,11.21,0,0,1-.4,1.72c-.78,5,.12,9.35,4.11,12.85,3.1,2.72,6.79,4.15,10.63,5.29,4.58,1.37,9,1.38,12.84-2a11.33,11.33,0,0,1,1.32-1c.61-.4,1.35-1,1.88-.12.17.3-.32,1.28-.75,1.59-2,1.38-4,2.63-6.11,4a10.81,10.81,0,0,0,.91.81,35.84,35.84,0,0,0,10.66,5.66,23.79,23.79,0,0,0,11.85.37,11.23,11.23,0,0,0,5.94-3.68,9.76,9.76,0,0,0,1.24-2.38c-.38-.21-.55-.24-.63-.35-.35-.44-.67-.9-1-1.35a4.34,4.34,0,0,1,1.55-.4c.87.1,1.71.49,2.58.65,7.42,1.33,14.71,1.61,21.5-2.52,3.33-2,6.51-4.27,8.26-7.83a48.7,48.7,0,0,0,3.58-9.36c.66-2.59,1.5-5.59-1.6-7.6-.31-.21-.25-1-.37-1.52.56.07,1.29-.06,1.66.24a34.61,34.61,0,0,0,17.69,8c8,1.09,15-.56,20.56-6.71a1.14,1.14,0,0,1,1.89-.1,47.91,47.91,0,0,0,3.77,3A62.62,62.62,0,0,0,296.4,202a9.5,9.5,0,0,0,2.43.6c4.82.26,9.65.46,14.47.66a69,69,0,0,0,21.13-2.1,12.54,12.54,0,0,0,6.86-4.11,47.08,47.08,0,0,0,8.06-15.21c.22-.69.37-1.68,1.35-1.27.35.14.58,1.31.39,1.84a76.49,76.49,0,0,1-3.32,8c-1.28,2.53-2.93,4.87-4.51,7.45a22.45,22.45,0,0,0,2.68,1.14,33.71,33.71,0,0,0,22.73-1.22c6.2-2.51,9-7.77,10.65-13.87a1.66,1.66,0,0,0-1-2.15,16.65,16.65,0,0,1-3.11-2.23c-.31-.29-.23-1-.33-1.55a4.5,4.5,0,0,1,1.55.24c1.61,1,3.13,2.06,4.74,3,2.79,1.61,5.8,1.49,8.78.74a2.81,2.81,0,0,0,2.47-2.2c.07-.42.62-1.15.75-1.11a4.49,4.49,0,0,1,1.66,1c.5.46.75,1.22,1.28,1.63,1.24,1,2.58,1.82,3.9,2.68,5.93,3.88,12.18,4.85,18.61,1.5,5.74-3,6.38-8.39,2.9-13.34a6.49,6.49,0,0,0-4.31-3c-3.57,4.19-6.29,6.26-11.17,7.09-8.43,1.43-15.88-1.13-22.45-6.45a1.22,1.22,0,0,1-.5-.71,5.78,5.78,0,0,1,.19-1.35,3.65,3.65,0,0,1,1.28.32c.91.66,1.68,1.55,2.63,2.14a27.51,27.51,0,0,0,16,4.55c5.55-.24,13.66-4.17,13.92-12.14,0-.51.67-1,1-1.5.27.55.8,1.13.76,1.65-.13,1.5-.49,3-.8,4.7a6.47,6.47,0,0,0,2,.18c2.48-.6,4.56-1.64,5.47-4.38,1-2.92,1.27-5.72-1.1-8-3.52-3.36-7.42-6.16-12.68-5.65-2.4.23-4.79.62-7.16,1-.85.14-1.53.21-2-.65-2.72-4.54-6.81-6.41-12-6.41a17.17,17.17,0,0,0-9,2.33c-.9.54-1.48.34-2.06-.57a9.67,9.67,0,0,0-7.39-4.58A55.06,55.06,0,0,0,365.8,140.65Z"/><path class="cls-1" d="M365.8,140.65a55.06,55.06,0,0,1,6.31,0,9.67,9.67,0,0,1,7.39,4.58c.58.91,1.16,1.11,2.06.57a17.17,17.17,0,0,1,9-2.33c5.21,0,9.3,1.87,12,6.41.51.86,1.19.79,2,.65,2.37-.4,4.76-.79,7.16-1,5.26-.51,9.16,2.29,12.68,5.65,2.37,2.26,2.08,5.06,1.1,8-.91,2.74-3,3.78-5.47,4.38a6.47,6.47,0,0,1-2-.18c.31-1.71.67-3.2.8-4.7,0-.52-.49-1.1-.76-1.65-.36.5-1,1-1,1.5-.26,8-8.37,11.9-13.92,12.14a27.51,27.51,0,0,1-16-4.55c-.95-.59-1.72-1.48-2.63-2.14a3.65,3.65,0,0,0-1.28-.32,5.78,5.78,0,0,0-.19,1.35,1.22,1.22,0,0,0,.5.71c6.57,5.32,14,7.88,22.45,6.45,4.88-.83,7.6-2.9,11.17-7.09a6.49,6.49,0,0,1,4.31,3c3.48,4.95,2.84,10.34-2.9,13.34-6.43,3.35-12.68,2.38-18.61-1.5-1.32-.86-2.66-1.72-3.9-2.68-.53-.41-.78-1.17-1.28-1.63a4.49,4.49,0,0,0-1.66-1c-.13,0-.68.69-.75,1.11A2.81,2.81,0,0,1,390,182c-3,.75-6,.87-8.78-.74-1.61-.93-3.13-2-4.74-3a4.5,4.5,0,0,0-1.55-.24c.1.53,0,1.26.33,1.55a16.65,16.65,0,0,0,3.11,2.23,1.66,1.66,0,0,1,1,2.15c-1.63,6.1-4.45,11.36-10.65,13.87A33.71,33.71,0,0,1,345.94,199a22.45,22.45,0,0,1-2.68-1.14c1.58-2.58,3.23-4.92,4.51-7.45a76.49,76.49,0,0,0,3.32-8c.19-.53,0-1.7-.39-1.84-1-.41-1.13.58-1.35,1.27A47.08,47.08,0,0,1,341.29,197a12.54,12.54,0,0,1-6.86,4.11,69,69,0,0,1-21.13,2.1c-4.82-.2-9.65-.4-14.47-.66a9.5,9.5,0,0,1-2.43-.6,62.62,62.62,0,0,1-16.25-8.68,47.91,47.91,0,0,1-3.77-3,1.14,1.14,0,0,0-1.89.1c-5.57,6.15-12.57,7.8-20.56,6.71a34.61,34.61,0,0,1-17.69-8c-.37-.3-1.1-.17-1.66-.24.12.52.06,1.31.37,1.52,3.1,2,2.26,5,1.6,7.6a48.7,48.7,0,0,1-3.58,9.36c-1.75,3.56-4.93,5.81-8.26,7.83-6.79,4.13-14.08,3.85-21.5,2.52-.87-.16-1.71-.55-2.58-.65a4.34,4.34,0,0,0-1.55.4c.33.45.65.91,1,1.35.08.11.25.14.63.35a9.76,9.76,0,0,1-1.24,2.38,11.23,11.23,0,0,1-5.94,3.68,23.79,23.79,0,0,1-11.85-.37A35.84,35.84,0,0,1,171,219.17a10.81,10.81,0,0,1-.91-.81c2.09-1.34,4.14-2.59,6.11-4,.43-.31.92-1.29.75-1.59-.53-.9-1.27-.28-1.88.12a11.33,11.33,0,0,0-1.32,1c-3.87,3.34-8.26,3.33-12.84,2-3.84-1.14-7.53-2.57-10.63-5.29-4-3.5-4.89-7.89-4.11-12.85a11.21,11.21,0,0,0,.4-1.72c0-.4-.38-.79-.58-1.18-.38.23-1,.39-1.1.72-.43,1.2-.69,2.45-1,3.8a6.41,6.41,0,0,1-1.07,0c-5.44-.91-9.78-3.33-11.89-8.75a10.47,10.47,0,0,1-.56-1.83c-.38-1.88-.15-1.92,1.54-2.77a22.87,22.87,0,0,0,4.16-3c.24-.19.09-.85.12-1.29a3.59,3.59,0,0,0-1.22,0,3.76,3.76,0,0,0-1.08.77c-4.26,3.58-9,3.13-13.8,1.48-1.06-.37-1.79-1.7-2.65-2.6-.39-.41-.74-.84-1.11-1.26a5.71,5.71,0,0,0-1,1.24,14,14,0,0,1-12,8.75,21.92,21.92,0,0,1-10.22-.9c-6.52-2.43-11-8.28-6.22-15.36a11.92,11.92,0,0,0,.92-1.35c.23-.45.61-1.19.44-1.39a2.74,2.74,0,0,0-1.61-.81,6.33,6.33,0,0,0-1.73.29c-2.6.43-4-.34-5-2.73a5.82,5.82,0,0,0-.52-1.22,1.3,1.3,0,0,0-.92-.54,1.1,1.1,0,0,0-.74.74c-.46,3.55-3,5.74-5.38,7.88-4.48,4-9.88,5.33-15.76,5.09A27.85,27.85,0,0,1,47.85,178c-4.55-1.69-5.32-6.36-4.55-9.59a11.29,11.29,0,0,1,4.17-6.12c.89,2.55,3.05,3.29,5.39,3.71a8.77,8.77,0,0,0,6.84-1.7c.45-.32.57-1.08.84-1.63-.6,0-1.34-.18-1.77.09a7.73,7.73,0,0,1-7.33.93c-1.77-.68-2.09-1.3-1.91-3.15a5.1,5.1,0,0,0-.34-1.58,4.29,4.29,0,0,0-1.55.51A36,36,0,0,0,44,163.1a13.32,13.32,0,0,1-8.43,4.41,19,19,0,0,1-3.84,0c-5.79-.2-8.95-4-11.54-8.52a3.58,3.58,0,0,1,.27-3.67,6.38,6.38,0,0,0,.8-1.4,5.33,5.33,0,0,0-.15-1.57c-.46.17-1.14.22-1.32.54-.69,1.24-1.2,2.57-1.79,3.85a3.28,3.28,0,0,1-.73,1.33c-3.26,2.35-10.65,1.7-13.6-1-2.51-2.32-1.9-5-1.08-7.69,1.17-3.76,3.86-6.49,6.8-9a23.62,23.62,0,0,1,3.77-2.6c2.53-1.41,5.1-1,7.7.06-.74,2-1.46,3.86-2.12,5.75-.24.7-.79,1.67.39,2s1.2-.76,1.44-1.51c1-3,2-6.12,4.61-8.08a25.26,25.26,0,0,1,5.5-2.68c.28-.12,1.06.49,1.33.93.46.74.6,1.68,1.05,2.43.24.39.86.55,1.31.81.12-.52.45-1.11.32-1.56-.4-1.42-1-2.77-1.48-4.18a25.8,25.8,0,0,1,1.45-20.1c2.08-4.08,4.08-8.19,7.8-11.19A22.85,22.85,0,0,1,57.24,95a41.79,41.79,0,0,1,14.69,2.21c2.55.94,4.82,2.64,7.17,4.06a1.35,1.35,0,0,1,.21,1.23c-2.31,5.19-3,10.71-3.3,16.29,0,.52.55,1.07.85,1.6.32-.48.85-.92.94-1.43.62-3.79.78-7.7,1.81-11.37,2-7.15,6.52-12.69,12-17.68s11.68-5.76,18.41-5.78c5.45,0,10.85.25,16,2.24,2,.76,2.76,0,2.33-2-2.11-9.76,3.57-18.9,12.81-22.26,2.19-.8,2.18-1.23.36-2.78a27.13,27.13,0,0,1-3.16-3.09,9,9,0,0,1-.79-10.22,5.52,5.52,0,0,1,2.14-1.9,1.35,1.35,0,0,0,.84-2A33.81,33.81,0,0,1,139,27.64c.73-5.46,3.64-9,8.93-10.38,5.85-1.55,11.6-1.57,17.11,1.41.85.46,1,.9.74,1.74a19.17,19.17,0,0,0-.91,3.27c-.07.44.37,1,.58,1.45.38-.3,1-.52,1.12-.91.52-1.49.89-3,1.32-4.54a21.74,21.74,0,0,1,13.29-15c7.95-3.2,16.1-3.79,24.31-.95a32.89,32.89,0,0,1,9.58,5.19c2.94,2.3,4,5.64,5.32,8.89a30.12,30.12,0,0,1,2,9.66c0,.44.47.86.73,1.28.41-.27,1.09-.46,1.2-.82,1.21-4,3.85-7.21,6.09-10.61a30.56,30.56,0,0,1,4.91-5.68,9.33,9.33,0,0,1,4.15-2.05,20.84,20.84,0,0,1,10.11.12,2.52,2.52,0,0,0,2-.4c4.64-4.11,10.15-4.8,15.7-3.14a12.19,12.19,0,0,1,8.56,9.06A3.31,3.31,0,0,0,278.41,18c2.64.78,3.93,3.2,5.46,5.22,5.59,7.43,4.87,18.09-.62,25.35-.21.27-.54.55-.57.84a1.92,1.92,0,0,0,.28,1.31c.16.18.87.12,1.16-.08,1.05-.73,2-1.56,3-2.37,4-3.28,8.47-5.07,13.67-4.3a17.94,17.94,0,0,1,11.85,6.34,2.5,2.5,0,0,0,1.94.4c3.64-.42,7.25-.91,10.75.78a5.9,5.9,0,0,1,3.72,4.93,8.51,8.51,0,0,1,.14,3.08c-.93,3.2.57,5.85,1.67,8.59a24.35,24.35,0,0,1,1.18,15.52c-2.19,8.43-7.33,12.67-16,13.5a15,15,0,0,0-2.93.42c-.49.14-.85.73-1.27,1.12.44.31.83.78,1.31.9,2.05.52,4.24.66,6.15,1.46,4.49,1.88,6.47,7.94,4.08,12.22-.93,1.65-2.28,3.06-3.38,4.62a8.73,8.73,0,0,0-.71,1.62,6.14,6.14,0,0,0,1.85.34c1.42-.14,2.81-.62,4.22-.67,3.48-.13,5.78,2.06,6,5.55,0,.69,0,1.38,0,2.07.07,1.41.66,1.78,1.9,1.12,1.43-.77,2.79-1.7,4.25-2.39a11.27,11.27,0,0,1,3.75-1.24c4.61-.39,9.22-.25,13.52,1.66,3.54,1.57,5.63,4.67,7.36,8a16.77,16.77,0,0,1,1.53,8.49,3.86,3.86,0,0,0,0,1.17,4,4,0,0,0,.7,1c.35-.27.92-.49,1-.83A24.22,24.22,0,0,0,365.8,140.65ZM89.87,161.44a40.2,40.2,0,0,0,2.83,5.15,29.57,29.57,0,0,0,4.37,4.58c7.78,6.81,21,4.93,26.68-3.77.24-.38.06-1,.07-1.56a4.54,4.54,0,0,0-1.51.48c-1.62,1.36-3.11,2.88-4.75,4.2a13.4,13.4,0,0,1-11.23,2.8c-5.29-.9-9.06-3.85-12.22-7.9a8.36,8.36,0,0,1-1.93-4.86c-.08-1.74-.65-2.06-2.26-1.28a7.23,7.23,0,0,1-6.15.17,21.89,21.89,0,0,1-7.23-4.77c-1.74-1.69-3-3.49-2.39-6.13.23-.93-.26-1.62-1.31-1.39a5,5,0,0,1-4.17-1,29.85,29.85,0,0,1-2.87-2.53c-.78-.73-1.58-.91-2,.21-.88,2.59-3,3.9-5.16,5a8.37,8.37,0,0,1-7.43.5A8.48,8.48,0,0,1,46.48,140c.06-.45-.34-1-.52-1.46-.42.33-1.15.61-1.2,1-.19,1.6-.7,3.44-.14,4.79,2.46,5.89,6.52,8.73,12.94,7a13.71,13.71,0,0,0,7.36-5.1l7.17,3.64C72.8,156.86,82.06,163,89.87,161.44Zm95.19-.58a21.9,21.9,0,0,0,10.83,9.34c4.83,2.14,9.86,3.3,15,.7.5-.25,1.18-1.1,1.07-1.42-.34-1-1.15-.45-1.87-.26a23.09,23.09,0,0,1-5.11,1.14,17.88,17.88,0,0,1-9.89-2.63c-4.93-3-9.64-6.27-9.06-13.15,0-.39-.48-.83-.74-1.24-.36.38-1,.74-1,1.16-.12,1.17.05,2.36,0,3.54a1.63,1.63,0,0,1-.5,1.23c-1.55.83-3.12,2-4.78,2.2-5.95.59-11.5-.56-16-5-1.38-1.37-2-1.22-2.7.61-.09.23-.16.47-.26.69-3.19,7.23-7.93,12.42-16.52,12.64-.42,0-.82.6-1.24.92.44.3.87.83,1.33.86,4.63.37,8.54-1.59,11.85-4.46a21.85,21.85,0,0,0,6-8.49,7.25,7.25,0,0,1,.56-1Q173.07,167.1,185.06,160.86Zm75.49-12.54a24,24,0,0,0,2.31.85c8.67,2.2,17.33,3.12,26,0,3.45-1.23,6.44-2.91,8.42-6.11,2.33-3.76,2.91-7.92,2.89-12.21,0-.4-.52-.8-.81-1.2-.32.37-.81.68-.93,1.1-.19.7-.09,1.47-.21,2.2a40.81,40.81,0,0,1-1,5.66c-1,3.38-2.89,6.23-6.26,7.64s-6.94,3.09-10.9,2.86c-2.22-.12-4.47.21-6.66-.07-3.6-.47-7.16-1.24-10.73-1.93-1.07-.21-1.34-.81-1.22-2a51.17,51.17,0,0,0,0-7.22c0-.5-.71-1-1.09-1.44a5.26,5.26,0,0,0-.68,1.69,32.62,32.62,0,0,0,.15,3.69,14.17,14.17,0,0,1-2.09,7.89c-1.25,2.24-3.5,3-5.68,4-.43.19-.61.94-.91,1.44.56.08,1.17.36,1.65.21C256.48,154.23,259.27,152.13,260.55,148.32Zm-99.7-19.54c.49.07.77.14,1.06.15,2,.07,3.93.19,5.9.15.35,0,.69-.63,1-1a4.39,4.39,0,0,0-1.09-.78,4.23,4.23,0,0,0-1.33,0c-2.27,0-4.58.1-6.6-1.18-1.5-1-2.94-2-4.37-3a12.49,12.49,0,0,1-2.73-17.47c1.75-2.42,3.43-4.82,6.36-6,.35-.14.48-.82.71-1.25-.47-.14-1-.52-1.39-.38a8.79,8.79,0,0,0-3,1.72,31,31,0,0,0-4.84,5.92c-2.59,4.59-3,9.39-.32,14.22a17.55,17.55,0,0,0,6.57,6.46c1.61,1,2.07,2,2.1,4,.13,8.44,6.69,14.07,15.58,13.69a.85.85,0,0,0,.16-1.69,21.46,21.46,0,0,0-2.79-.32,11.19,11.19,0,0,1-8.33-4.21C161.48,135.25,160.15,132.39,160.85,128.78Z"/><path d="M89.87,161.44C82.06,163,72.8,156.86,72.09,149.8l-7.17-3.64a13.71,13.71,0,0,1-7.36,5.1c-6.42,1.75-10.48-1.09-12.94-7-.56-1.35,0-3.19.14-4.79.05-.37.78-.65,1.2-1,.18.49.58,1,.52,1.46a8.48,8.48,0,0,0,4.77,9.34,8.37,8.37,0,0,0,7.43-.5c2.21-1.11,4.28-2.42,5.16-5,.38-1.12,1.18-.94,2-.21a29.85,29.85,0,0,0,2.87,2.53,5,5,0,0,0,4.17,1c1-.23,1.54.46,1.31,1.39-.65,2.64.65,4.44,2.39,6.13a21.89,21.89,0,0,0,7.23,4.77,7.23,7.23,0,0,0,6.15-.17c1.61-.78,2.18-.46,2.26,1.28a8.36,8.36,0,0,0,1.93,4.86c3.16,4.05,6.93,7,12.22,7.9a13.4,13.4,0,0,0,11.23-2.8c1.64-1.32,3.13-2.84,4.75-4.2a4.54,4.54,0,0,1,1.51-.48c0,.53.17,1.18-.07,1.56-5.68,8.7-18.9,10.58-26.68,3.77a29.57,29.57,0,0,1-4.37-4.58A40.2,40.2,0,0,1,89.87,161.44Z"/><path d="M185.06,160.86q-12,6.25-23-2.56a7.25,7.25,0,0,0-.56,1,21.85,21.85,0,0,1-6,8.49c-3.31,2.87-7.22,4.83-11.85,4.46-.46,0-.89-.56-1.33-.86.42-.32.82-.91,1.24-.92,8.59-.22,13.33-5.41,16.52-12.64.1-.22.17-.46.26-.69.7-1.83,1.32-2,2.7-.61,4.46,4.42,10,5.57,16,5,1.66-.17,3.23-1.37,4.78-2.2a1.63,1.63,0,0,0,.5-1.23c.05-1.18-.12-2.37,0-3.54.05-.42.66-.78,1-1.16.26.41.78.85.74,1.24-.58,6.88,4.13,10.13,9.06,13.15a17.88,17.88,0,0,0,9.89,2.63,23.09,23.09,0,0,0,5.11-1.14c.72-.19,1.53-.71,1.87.26.11.32-.57,1.17-1.07,1.42-5.1,2.6-10.13,1.44-15-.7A21.9,21.9,0,0,1,185.06,160.86Z"/><path d="M260.55,148.32c-1.28,3.81-4.07,5.91-7.69,7-.48.15-1.09-.13-1.65-.21.3-.5.48-1.25.91-1.44,2.18-1,4.43-1.76,5.68-4a14.17,14.17,0,0,0,2.09-7.89,32.62,32.62,0,0,1-.15-3.69,5.26,5.26,0,0,1,.68-1.69c.38.48,1.06.94,1.09,1.44a51.17,51.17,0,0,1,0,7.22c-.12,1.22.15,1.82,1.22,2,3.57.69,7.13,1.46,10.73,1.93,2.19.28,4.44-.05,6.66.07,4,.23,7.42-1.39,10.9-2.86s5.27-4.26,6.26-7.64a40.81,40.81,0,0,0,1-5.66c.12-.73,0-1.5.21-2.2.12-.42.61-.73.93-1.1.29.4.81.8.81,1.2,0,4.29-.56,8.45-2.89,12.21-2,3.2-5,4.88-8.42,6.11-8.7,3.1-17.36,2.18-26,0A24,24,0,0,1,260.55,148.32Z"/><path d="M160.85,128.78c-.7,3.61.63,6.47,2.64,9.06a11.19,11.19,0,0,0,8.33,4.21,21.46,21.46,0,0,1,2.79.32.85.85,0,0,1-.16,1.69c-8.89.38-15.45-5.25-15.58-13.69,0-2-.49-3-2.1-4a17.55,17.55,0,0,1-6.57-6.46c-2.64-4.83-2.27-9.63.32-14.22a31,31,0,0,1,4.84-5.92,8.79,8.79,0,0,1,3-1.72c.35-.14.92.24,1.39.38-.23.43-.36,1.11-.71,1.25-2.93,1.16-4.61,3.56-6.36,6a12.49,12.49,0,0,0,2.73,17.47c1.43,1,2.87,2.08,4.37,3,2,1.28,4.33,1.22,6.6,1.18a4.23,4.23,0,0,1,1.33,0,4.39,4.39,0,0,1,1.09.78c-.35.34-.69,1-1,1-2,0-3.94-.08-5.9-.15C161.62,128.92,161.34,128.85,160.85,128.78Z"/></g></g></g></g></g></svg>