<svg xmlns="http://www.w3.org/2000/svg" viewBox="0 0 295.8 134.1"><defs><style>.cls-1{fill:#fff;}</style></defs><g id="Layer_2" data-name="Layer 2"><g id="Homepage"><g id="Clouds"><g id="Clouds_Left"><g id="_04" data-name="04"><path d="M266.72,114c-1.19,3.15-3.57,5-6.19,6.47a8.94,8.94,0,0,1-3.88,1.3,72.54,72.54,0,0,1-9-.27,17.89,17.89,0,0,1-9.6-3.67c-.19.15-.3.2-.34.28-1.79,4.12-5.05,5.5-9.35,5.05-2.77-.3-5.55-.52-8.33-.68a2.09,2.09,0,0,0-1.57.65,11.84,11.84,0,0,1-10.14,5.1A72.62,72.62,0,0,1,187,124.94a20.08,20.08,0,0,1-8-5.06c-4.55,2.45-9.24,1.64-13.9.74-1.08-.21-1.63-.09-2.2.81a21.83,21.83,0,0,1-8.57,7.72,23.09,23.09,0,0,1-5.49,1.92,36.52,36.52,0,0,1-11,1c-4.88-.37-9.78-.32-14.65-.78-3.75-.36-7.45-1.25-11.18-1.84a2.17,2.17,0,0,0-1.49.4c-5,3.71-10.55,4.54-16.59,4.23a46.38,46.38,0,0,1-18.69-4.86A22.13,22.13,0,0,1,67.41,123c-1.28,1.11-2.53,2.24-3.83,3.3a17.6,17.6,0,0,1-7.18,3.57c-4,.94-8,2.15-12.07,2.85-9.34,1.61-18.22-.16-26.89-3.8a34.33,34.33,0,0,1-14.8-11.75,14,14,0,0,1-2.55-7.41c-.61-9.18,1.75-17.2,9.27-23.14a1.45,1.45,0,0,0,.26-.36c-2.71-2.5-4.39-5.68-6-8.85a11.39,11.39,0,0,1-.75-8c2.3-10,9.11-15,18.89-15.7a22.4,22.4,0,0,1,10.75,1.81A82.68,82.68,0,0,1,30,46.4a42,42,0,0,1-.56-10.24c.39-4.42,3.44-7.45,7-9.76,4.28-2.78,9.15-3.58,14.18-3.57.9,0,1.79.07,2.69.08,4.6.08,8.55,1.43,11.11,5.5a30,30,0,0,1,3.31-3.83,11.87,11.87,0,0,1,6.93-2.49c.7-.05,1.27,0,1.26-1-.06-5.1,4.24-7.9,9.21-7.33.78.09,1.55.25,2.25.36,1.9-6.31,5.7-10.9,11.86-13,4.89-1.69,10-1.27,14.86.37,2.45.82,3.89,2.86,5.19,4.89,1.59-.6,3.08-1.29,4.65-1.74a19,19,0,0,1,9.06,0c3.21.64,6.62,4.59,7,7.84,0,.24.07.48.09.62,2.51.23,4.94.32,7.33.71,4,.66,6.84,2.68,7.78,6.84,0,.12.14.22.3.45.57-.78,1.1-1.48,1.61-2.2a9.44,9.44,0,0,1,13.24-2.29c.74.52,1.12.31,1.82,0a12.32,12.32,0,0,1,3.77-1.17,25,25,0,0,1,4.49.09,8.25,8.25,0,0,1,5.43,2.21c1.8,1.71,3.54,3.47,5.44,5.35,2.39-1.78,5.44-1.85,8.58-1.58a5.28,5.28,0,0,1,4.43,2.86,16.74,16.74,0,0,1,1.89,7.93c0,1.09,0,2.18,0,3.4,2.91-.71,5.75-1.64,8.71-.67s4.64,3.42,6,6.21c3.08,0,6.22-.1,9.35,0,5.29.21,8.65,3.28,10.77,7.83a18.52,18.52,0,0,1,.47,14.28c-.28.78-.32,1.29.49,1.71,4.55,2.35,5.93,6.31,5.59,11.13,0,.53,0,1.06,0,1.49l4,.36a56.68,56.68,0,0,1,4.63-3.49A3.91,3.91,0,0,1,259,74a48.86,48.86,0,0,1,7.62,3c2.4,1.23,3,3.74,3.31,6.22.05.39,0,.79.05,1,1.56,0,3,0,4.5,0,4.25.12,6.53,2.45,6.54,6.68,0,1.48,0,3,0,4.68,1,0,2.09,0,3.18,0A13,13,0,0,1,293,99.12a6.55,6.55,0,0,1,1.86,2.82,20.22,20.22,0,0,1,.16,11.51c-1.3,4.48-4.35,6.86-9,7.32-7.08.7-13.37-1-18.51-6.11C267.37,114.49,267.15,114.36,266.72,114ZM161.8,119.65c-1-.61-2-1.09-2.91-1.73a27.24,27.24,0,0,1-3.22-2.64c-.26-.26-.09-1-.11-1.47.48.07,1.13,0,1.41.23a16.26,16.26,0,0,0,7.4,4.35c4.78,1.18,9.63,2.55,14.23-.77.31-.22,1.27.09,1.7.44,1.09.9,1.95,2.1,3.1,2.91a22.77,22.77,0,0,0,9.72,3.68c5.22.82,10.41,1.89,15.75,1.7a9.83,9.83,0,0,0,6-2.11,11.82,11.82,0,0,0,4-6.67c.14-.5.75-.87,1.14-1.29a5.12,5.12,0,0,1,.63,1.73,12.63,12.63,0,0,1-.58,2.53,38.36,38.36,0,0,0,12.2.49,4.58,4.58,0,0,0,2.41-1.59,12,12,0,0,0,1.63-2.67c.84-1.63,1.24-1.74,2.69-.66a14,14,0,0,0,7,3.15c3.62.31,7.25.49,10.88.65a3.82,3.82,0,0,0,2-.57c2.74-1.6,5.26-3.4,6.47-6.57.55-1.44,1.36-1.5,2.52-.45.26.23.51.48.76.73,5.17,5.21,11.44,6.78,18.55,5.61a7.1,7.1,0,0,0,5.73-4.68,18.9,18.9,0,0,0,.91-8.25c-.21-4.25-2.59-6.74-6.51-7.68a35.64,35.64,0,0,0-6.95-.56c-1.51,0-1.75-.28-1.59-1.72a46.06,46.06,0,0,0,.38-5.5c0-2.42-1.31-4-3.7-4a21.58,21.58,0,0,0-5.41.6c-1.36.29-1.91.11-2-1.27,0-.5,0-1,0-1.5,0-2.86-1-5.18-3.8-6.36A45.48,45.48,0,0,0,259.75,76a5.24,5.24,0,0,0-6,3.36c2.54,2.29,2.61,2.33,3.38,4.74,1.31,4.17.93,8.39.11,12.57a5.11,5.11,0,0,1-1.15,2,1.25,1.25,0,0,1-1.19.11,1.18,1.18,0,0,1-.25-1.13c1.81-3.14,1.38-6.58,1.26-9.93a14.4,14.4,0,0,0-1.07-4.33c-.73-2-4.1-4.15-6-3.76a44.92,44.92,0,0,0-5.62,1.72c-.7.24-1.3.79-2,1a4.61,4.61,0,0,1-1.6-.08c.25-.52.35-1.26.75-1.51,1.31-.82,2.74-1.44,4.1-2.17.37-.2,1-.49,1-.76.08-2.52.45-5-.7-7.49-1-2.18-3-3.18-4.77-4.38a1.81,1.81,0,0,1-.71-2.63,16,16,0,0,0-.32-14c-1.39-2.72-3.2-5.15-6.44-5.84a28.33,28.33,0,0,0-12-.19c-1.08.24-1.62,0-1.79-1.14a6.45,6.45,0,0,0-6.55-5.71,35.82,35.82,0,0,0-5.68,1.17c-.64.13-1.67.46-1.85.22a3.45,3.45,0,0,1-.52-2.15c.23-3.31.31-6.61-1.17-9.68a5.23,5.23,0,0,0-2-2.33c-2.46-1.31-7.07-.46-9.13,1.46-1,1-1.5.81-2.37-.32A54.42,54.42,0,0,0,185,19.56c-3.06-3-7-2.39-10.74-2a3,3,0,0,0-1.29.72c-1.8,1.41-1.79,1.42-3.51.09a7.06,7.06,0,0,0-8.38-.51,15.15,15.15,0,0,0-3,3c-2.74,3.21-4.47,6.83-4.23,11.18,0,.05,0,.11,0,.14-.24.38-.48.75-.73,1.11-.31-.38-.91-.78-.89-1.14a38.6,38.6,0,0,1,.61-3.83,40.18,40.18,0,0,0,.77-4.71c.2-3.53-1.43-6.21-4.5-7.35a17.15,17.15,0,0,0-9-.82c-1.47.25-1.94-.05-2-1.5-.3-4.5-3-7.31-7.5-7.74A22.25,22.25,0,0,0,127.86,6a12.79,12.79,0,0,0-7.48,2.24c-.83.61-1.41,1.54-2.2,2.21a4.62,4.62,0,0,1-1.49.53,12.51,12.51,0,0,1,0-1.62,1.15,1.15,0,0,1,.41-.61,1.48,1.48,0,0,0,.07-2.14c-1.16-1.68-2.51-3.21-4.57-3.67-9.79-2.21-16.16-.8-21.49,7.24a10,10,0,0,0-1.5,4.44c-.2,2.24-.35,2.49-2.42,1.62-3.83-1.61-9.87-.46-9.4,5.68.1,1.38-.59,2-2,2a8,8,0,0,0-1.2,0c-4.89.61-8.34,2.87-8.9,8.41a1.43,1.43,0,0,1-.14.73c-.25.32-.62.83-.89.8s-.77-.45-1.06-.79-.14-.57-.19-.87c-.83-4.3-3.4-6.75-7.76-7.22a50.22,50.22,0,0,0-6.13-.29,22.51,22.51,0,0,0-11.88,3.12c-3.26,2.05-6,4.73-6.44,8.73a28,28,0,0,0,1.48,13.12c1,2.69,2.44,5.21,3.6,7.84a5.71,5.71,0,0,1,.12,1.91c-.54-.08-1.22,0-1.59-.27-4-3.09-8.49-4-13.4-3.61C12.3,56.34,6.67,61,4.67,69.91a9.35,9.35,0,0,0,.08,5c1.46,3.92,3.33,7.69,6.9,10.25,1.06.76,1,1.41-.05,2.23a32.67,32.67,0,0,0-2.69,2.13c-6.52,6.26-7.93,14-6.45,22.55A10.29,10.29,0,0,0,4.21,116a30.57,30.57,0,0,0,14,11.09c4.75,1.88,9.54,3.62,14.64,4.09,7.36.67,14.47-.62,21.56-2.68a25,25,0,0,0,12-7.41c1-1.07,1.61-1,2.32.2,1.68,2.9,4.38,4.65,7.23,6.08A42.24,42.24,0,0,0,92.26,132c5.63.36,11.14.46,15.95-3,1.93-1.4,3.71-2.21,6-.93a3.74,3.74,0,0,0,1.31.28c4.21.51,8.41,1.27,12.63,1.46,7.64.33,15.34,1.25,22.85-1.35A21,21,0,0,0,161.8,119.65Z"/><path class="cls-1" d="M161.8,119.65A21,21,0,0,1,151,128.46c-7.51,2.6-15.21,1.68-22.85,1.35-4.22-.19-8.42-.95-12.63-1.46a3.74,3.74,0,0,1-1.31-.28c-2.26-1.28-4-.47-6,.93-4.81,3.46-10.32,3.36-15.95,3A42.24,42.24,0,0,1,76,127.38c-2.85-1.43-5.55-3.18-7.23-6.08-.71-1.23-1.36-1.27-2.32-.2a25,25,0,0,1-12,7.41c-7.09,2.06-14.2,3.35-21.56,2.68-5.1-.47-9.89-2.21-14.64-4.09A30.57,30.57,0,0,1,4.21,116a10.29,10.29,0,0,1-1.75-3.93C1,103.56,2.39,95.79,8.91,89.53A32.67,32.67,0,0,1,11.6,87.4c1.07-.82,1.11-1.47.05-2.23-3.57-2.56-5.44-6.33-6.9-10.25a9.35,9.35,0,0,1-.08-5c2-8.92,7.63-13.57,16.78-14.33,4.91-.41,9.43.52,13.4,3.61.37.29,1,.19,1.59.27a5.71,5.71,0,0,0-.12-1.91c-1.16-2.63-2.61-5.15-3.6-7.84a28,28,0,0,1-1.48-13.12c.48-4,3.18-6.68,6.44-8.73a22.51,22.51,0,0,1,11.88-3.12,50.22,50.22,0,0,1,6.13.29c4.36.47,6.93,2.92,7.76,7.22,0,.3,0,.67.19.87s.68.75,1.06.79.64-.48.89-.8a1.43,1.43,0,0,0,.14-.73c.56-5.54,4-7.8,8.9-8.41a8,8,0,0,1,1.2,0c1.37,0,2.06-.64,2-2-.47-6.14,5.57-7.29,9.4-5.68,2.07.87,2.22.62,2.42-1.62a10,10,0,0,1,1.5-4.44c5.33-8,11.7-9.45,21.49-7.24,2.06.46,3.41,2,4.57,3.67a1.48,1.48,0,0,1-.07,2.14,1.15,1.15,0,0,0-.41.61,12.51,12.51,0,0,0,0,1.62,4.62,4.62,0,0,0,1.49-.53c.79-.67,1.37-1.6,2.2-2.21A12.79,12.79,0,0,1,127.86,6a22.25,22.25,0,0,1,2.69.19c4.48.43,7.2,3.24,7.5,7.74.1,1.45.57,1.75,2,1.5a17.15,17.15,0,0,1,9,.82c3.07,1.14,4.7,3.82,4.5,7.35a40.18,40.18,0,0,1-.77,4.71,38.6,38.6,0,0,0-.61,3.83c0,.36.58.76.89,1.14.25-.36.49-.73.73-1.11,0,0,0-.09,0-.14-.24-4.35,1.49-8,4.23-11.18a15.15,15.15,0,0,1,3-3,7.06,7.06,0,0,1,8.38.51c1.72,1.33,1.71,1.32,3.51-.09a3,3,0,0,1,1.29-.72c3.78-.35,7.68-1,10.74,2a54.42,54.42,0,0,1,4.49,5.32c.87,1.13,1.34,1.28,2.37.32,2.06-1.92,6.67-2.77,9.13-1.46a5.23,5.23,0,0,1,2,2.33c1.48,3.07,1.4,6.37,1.17,9.68a3.45,3.45,0,0,0,.52,2.15c.18.24,1.21-.09,1.85-.22a35.82,35.82,0,0,1,5.68-1.17,6.45,6.45,0,0,1,6.55,5.71c.17,1.09.71,1.38,1.79,1.14a28.33,28.33,0,0,1,12,.19c3.24.69,5.05,3.12,6.44,5.84a16,16,0,0,1,.32,14A1.81,1.81,0,0,0,240,66c1.82,1.2,3.75,2.2,4.77,4.38,1.15,2.46.78,5,.7,7.49,0,.27-.6.56-1,.76-1.36.73-2.79,1.35-4.1,2.17-.4.25-.5,1-.75,1.51a4.61,4.61,0,0,0,1.6.08c.7-.21,1.3-.76,2-1a44.92,44.92,0,0,1,5.62-1.72c1.87-.39,5.24,1.79,6,3.76a14.4,14.4,0,0,1,1.07,4.33c.12,3.35.55,6.79-1.26,9.93a1.18,1.18,0,0,0,.25,1.13,1.25,1.25,0,0,0,1.19-.11,5.11,5.11,0,0,0,1.15-2c.82-4.18,1.2-8.4-.11-12.57-.77-2.41-.84-2.45-3.38-4.74a5.24,5.24,0,0,1,6-3.36,45.48,45.48,0,0,1,4.48,1.66c2.82,1.18,3.79,3.5,3.8,6.36,0,.5-.06,1,0,1.5.07,1.38.62,1.56,2,1.27a21.58,21.58,0,0,1,5.41-.6c2.39.1,3.69,1.63,3.7,4a46.06,46.06,0,0,1-.38,5.5c-.16,1.44.08,1.67,1.59,1.72a35.64,35.64,0,0,1,6.95.56c3.92.94,6.3,3.43,6.51,7.68a18.9,18.9,0,0,1-.91,8.25,7.1,7.1,0,0,1-5.73,4.68c-7.11,1.17-13.38-.4-18.55-5.61-.25-.25-.5-.5-.76-.73-1.16-1-2-1-2.52.45-1.21,3.17-3.73,5-6.47,6.57a3.82,3.82,0,0,1-2,.57c-3.63-.16-7.26-.34-10.88-.65a14,14,0,0,1-7-3.15c-1.45-1.08-1.85-1-2.69.66a12,12,0,0,1-1.63,2.67A4.58,4.58,0,0,1,232.2,121a38.36,38.36,0,0,1-12.2-.49,12.63,12.63,0,0,0,.58-2.53,5.12,5.12,0,0,0-.63-1.73c-.39.42-1,.79-1.14,1.29a11.82,11.82,0,0,1-4,6.67,9.83,9.83,0,0,1-6,2.11c-5.34.19-10.53-.88-15.75-1.7A22.77,22.77,0,0,1,183.4,121c-1.15-.81-2-2-3.1-2.91-.43-.35-1.39-.66-1.7-.44-4.6,3.32-9.45,1.95-14.23.77A16.26,16.26,0,0,1,157,114c-.28-.28-.93-.16-1.41-.23,0,.5-.15,1.21.11,1.47a27.24,27.24,0,0,0,3.22,2.64C159.77,118.56,160.76,119,161.8,119.65ZM44.37,98.8c3.7,5.48,6.31,7.44,12,8.07a55.09,55.09,0,0,0,9.86-.14,12.85,12.85,0,0,0,8.9-4.4c1.43-1.6,2.81-3.24,4.11-4.94.25-.34,0-1,0-1.57a6.66,6.66,0,0,0-1.5.53c-.36.23-.53.72-.82,1.06-2.27,2.57-4.2,5.66-7.71,6.64-5.93,1.67-11.92,2-17.72-.61a9.44,9.44,0,0,1-5.65-7.25c-.1-.53-.62-1-1-1.46-.4.39-1,.71-1.16,1.18-2.33,5.64-6.25,8.4-13,8.32-5.08-.06-9.19-4-10.45-7.34-1.81-4.77-.55-9.22,2.72-13.07.77-.9,1.8-1.58,2.61-2.45.3-.32.31-.91.46-1.38-.5,0-1-.13-1.5-.13-.16,0-.34.2-.5.31-6.87,4.67-8.74,16.42-2.79,21.63,4.14,3.62,8.41,5,13.56,4A12.43,12.43,0,0,0,44.37,98.8Zm142.56-26,1-.45c4-1.72,5.91-4.68,5.12-8.9-.41-2.17-1.79-4.17-2.81-6.2-.12-.25-.75-.24-1.14-.36-.12.44-.46,1-.33,1.29a28.5,28.5,0,0,0,1.57,3.06c2.23,4.06.66,8.07-3.71,9.57a4.23,4.23,0,0,1-3.25-.2,35.38,35.38,0,0,0-7.95-2.48c-3.93-.57-7.81.25-11.67,1.24-4.87,1.25-8.76,4-12.38,7.27-.57.52-1.41,1.15-.6,2,.22.22,1.3-.18,1.81-.54,2.32-1.64,4.36-3.84,6.88-5,7-3.13,14.2-4.69,21.7-1.42a13.37,13.37,0,0,1,7,6.37,27.12,27.12,0,0,1,3.27,11.41c0,.48.6,1,.91,1.44.31-.54.64-1.06.9-1.61.09-.2,0-.49,0-.74A27.25,27.25,0,0,0,186.93,72.75ZM92.87,64.41c-1.24-2.07-3.09-2.75-5.17-3.18-3.79-.79-6.75.78-8,4.43-.26.78-1,1.91.23,2.34s1.25-.92,1.52-1.67A4.69,4.69,0,0,1,86.88,63a6.5,6.5,0,0,1,5.31,4c.23.47.94.7,1.42,1.05a7.48,7.48,0,0,0,.78-1.44c.68-2.29,1-4.79,2.89-6.44,5.56-4.82,12-5.59,18.82-3.56,5.44,1.63,7.81,6.17,9.19,11.3.19.68.25,1.6,1.19,1.27.38-.13.73-1.13.64-1.67a18,18,0,0,0-1-3.11c-2.42-6.41-7-10-13.88-10.49a24.79,24.79,0,0,0-5.38.05c-6.21.94-11.57,3.16-13.64,9.87A3.72,3.72,0,0,1,92.87,64.41Z"/><path d="M44.37,98.8a12.43,12.43,0,0,1-9.51,7c-5.15,1-9.42-.39-13.56-4-6-5.21-4.08-17,2.79-21.63.16-.11.34-.31.5-.31.5,0,1,.08,1.5.13-.15.47-.16,1.06-.46,1.38-.81.87-1.84,1.55-2.61,2.45-3.27,3.85-4.53,8.3-2.72,13.07,1.26,3.32,5.37,7.28,10.45,7.34,6.74.08,10.66-2.68,13-8.32.19-.47.76-.79,1.16-1.18.33.48.85.93,1,1.46a9.44,9.44,0,0,0,5.65,7.25c5.8,2.57,11.79,2.28,17.72.61,3.51-1,5.44-4.07,7.71-6.64.29-.34.46-.83.82-1.06a6.66,6.66,0,0,1,1.5-.53c0,.54.22,1.23,0,1.57-1.3,1.7-2.68,3.34-4.11,4.94a12.85,12.85,0,0,1-8.9,4.4,55.09,55.09,0,0,1-9.86.14C50.68,106.24,48.07,104.28,44.37,98.8Z"/><path d="M186.93,72.75a27.25,27.25,0,0,1,6.34,15.73c0,.25.13.54,0,.74-.26.55-.59,1.07-.9,1.61-.31-.48-.89-1-.91-1.44A27.12,27.12,0,0,0,188.23,78a13.37,13.37,0,0,0-7-6.37c-7.5-3.27-14.72-1.71-21.7,1.42-2.52,1.13-4.56,3.33-6.88,5-.51.36-1.59.76-1.81.54-.81-.8,0-1.43.6-2,3.62-3.28,7.51-6,12.38-7.27,3.86-1,7.74-1.81,11.67-1.24a35.38,35.38,0,0,1,7.95,2.48,4.23,4.23,0,0,0,3.25.2c4.37-1.5,5.94-5.51,3.71-9.57a28.5,28.5,0,0,1-1.57-3.06c-.13-.33.21-.85.33-1.29.39.12,1,.11,1.14.36,1,2,2.4,4,2.81,6.2.79,4.22-1.14,7.18-5.12,8.9Z"/><path d="M92.87,64.41a3.72,3.72,0,0,0,.33-.59c2.07-6.71,7.43-8.93,13.64-9.87a24.79,24.79,0,0,1,5.38-.05c6.9.45,11.46,4.08,13.88,10.49a18,18,0,0,1,1,3.11c.09.54-.26,1.54-.64,1.67-.94.33-1-.59-1.19-1.27-1.38-5.13-3.75-9.67-9.19-11.3-6.77-2-13.26-1.26-18.82,3.56-1.9,1.65-2.21,4.15-2.89,6.44A7.48,7.48,0,0,1,93.61,68c-.48-.35-1.19-.58-1.42-1.05a6.5,6.5,0,0,0-5.31-4,4.69,4.69,0,0,0-5.41,3.37c-.27.75-.19,2.16-1.52,1.67s-.49-1.56-.23-2.34c1.23-3.65,4.19-5.22,8-4.43C89.78,61.66,91.63,62.34,92.87,64.41Z"/></g></g></g></g></g></svg>