<svg xmlns="http://www.w3.org/2000/svg" viewBox="0 0 749.9 267.55"><defs><style>.cls-1{fill:#fff;}</style></defs><g id="Layer_2" data-name="Layer 2"><g id="Homepage"><g id="Clouds"><g id="Clouds_Right"><g id="_12" data-name="12"><path d="M255.43,134.48c-.47-7.32,3-11.08,9.63-12.27-2.87-5.22-2.87-5.22-1.82-10.89-2.4-.29-3.9-1.76-4.85-4-4.95,2.91-10.35,2.39-15.64,2.2-7-.25-11.84-5.44-12.37-12.55a14.44,14.44,0,0,1,3.28-11c2.83-3.23,4-7,4.86-11,.15-.68.31-1.36.43-2a7.57,7.57,0,0,0-.49-4.76,20,20,0,0,1-1.58-6c-.49-4.36,2.46-8.14,7.27-9.38a28.62,28.62,0,0,1,6.19-.81c3.57-.13,7.15,0,10.85,0a31.33,31.33,0,0,1-.66-4.53,33.52,33.52,0,0,1,.43-7c.77-3.74,3.73-5.74,6.88-7.39,5.05-2.64,10.51-2.84,16-2.36,3.27.29,3.2.34,4.73-2.5,2.55-4.76,6.85-7,12-8a1.54,1.54,0,0,1,.3,0,13.53,13.53,0,0,0,9.92-3.79c-.21-.91-.54-2-.74-3.2-.78-4.44,3.57-8.77,6.83-9s5.64-1.48,8.29-2.83C332.75-2.59,341,2.91,342.63,9.5a32.93,32.93,0,0,1,.44,3.89,20.56,20.56,0,0,0,1.27-1.68c2-3.31,4.49-6.28,8.46-7.07,5.13-1,10.36-1.37,15,1.84a38.5,38.5,0,0,1,4.46,4.26c7.57-2.46,13.17-.09,14.93,4,.6-.11,1.23-.19,1.86-.33,6.35-1.37,14.89,4.8,15.45,11.19a26.54,26.54,0,0,0,.81,3.52c.47-1.43.79-2.5,1.18-3.54a29.18,29.18,0,0,1,7-10.26A11.23,11.23,0,0,1,421.89,12a8.43,8.43,0,0,0,7-2.89c4.82-5.37,11.14-7.44,18.25-7.25,4.77.12,9.63-.18,14.28.66,7.29,1.32,14.42,3.57,19.12,9.94,1.71,2.31,2.78,5.09,4.23,7.82l3.11-1c4.25-1.37,8.65-1.19,13-1.14,1.13,0,1.67-.26,2-1.43a10.55,10.55,0,0,1,7.4-7.89c6.45-2.11,12.18-1.25,17,4.34a8.87,8.87,0,0,1,1-1.33,16.55,16.55,0,0,1,2.57-2c3.07-1.81,12-.94,14.75,1.35s3.83,7.56,2.46,11.35c-.26.74-.57,1.46-1,2.57,7.55-1.46,12.42,2.41,16.38,7.78,4.12,5.56,4.19,11.65,1.64,18.06h2.47c10.55,0,19.39,3.74,25.57,12.51,4.67,6.64,5,14.19,3.66,21.89-.8,4.5-2.83,8.57-5,12.54l-.91,1.64c.69-.11,1.11-.16,1.53-.24A31.2,31.2,0,0,1,605.89,99a37.06,37.06,0,0,1,9.56,4c7.25,4,9.89,10.94,10.9,18.69.15,1.13.23,2.26.36,3.55,5.24-2.56,10.57-3.9,15.57-.24s5.89,8.86,5.17,14.68a2.44,2.44,0,0,0,.65-.07,22.8,22.8,0,0,1,14.77-1.21c8,1.91,12.2,7.16,12,15.34-.08,2.41-.55,4.81-.83,7.05a51.88,51.88,0,0,1,6.29,2.36,57.43,57.43,0,0,1,5.92,4c4.2-2.16,9.29-2.85,14.41-3.07,6.64-.3,13.17.53,19,3.94a28.34,28.34,0,0,1,11.78,13.68,91.69,91.69,0,0,1,3,9.68,1.42,1.42,0,0,0,.49-.21,10.11,10.11,0,0,1,13.87,3.3,8.4,8.4,0,0,1,1.08,5A17.13,17.13,0,0,1,743.53,212a8.06,8.06,0,0,1-3.82,1.87,97.69,97.69,0,0,1-13.64,1c-5.12-.12-9.41-3-13.72-5.46l-1.4-.8c-.87,2.19-1.56,4.32-2.54,6.3-2.31,4.62-6.48,6-11.3,6.54a33.66,33.66,0,0,1-13.53-1.58,1.3,1.3,0,0,0-1.71.59c-1.33,1.86-2.8,3.62-4.2,5.43-2.52,3.28-6.31,4.75-9.7,6.8-4.69,2.83-9.83,3.72-15.27,3.92-7.47.28-14.77-1-22.14-1.73-2.57-.25-5.14-.63-7.69-1.07-4.09-.7-6.5-1.95-10.32-5.14a52.67,52.67,0,0,1-3.07,6.32,12.22,12.22,0,0,1-3.94,3.93,31.19,31.19,0,0,1-27.72,2.14c-3.15-1.2-6.17-2.7-9.34-4.1a5.42,5.42,0,0,0-.36.78c-2.53,8.23-8,14.21-15,18.87-3.22,2.14-7,3-10.79,3.73a37.3,37.3,0,0,1-6.06.64c-7.43.15-14.86-.08-22.12-1.76-5-1.16-9.95-2.82-14.88-4.37-3.32-1-6.63-2.16-9.85-3.48-3.43-1.42-6.76-3.11-10.13-4.69-.63-.29-1.24-.62-2-1a10.15,10.15,0,0,1-7.09,4.26,36.67,36.67,0,0,1-8.76,0,26.87,26.87,0,0,1-8.74-2.24c-2.13-1.08-3.42-1.07-4.89.55-3.26,3.57-7.66,4.1-12.09,4.36a68.63,68.63,0,0,1-9.07,0,16.12,16.12,0,0,1-4.81-1.52,1.65,1.65,0,0,0-2.35.51c-1.62,1.95-3.38,3.78-5.09,5.64a25.23,25.23,0,0,1-10.83,6.57c-12.51,4.23-25.35,4.1-38.26,3.12-5.75-.44-11.51-.94-17.22-1.74-9-1.26-17.48-3.92-24.83-9.47a48.8,48.8,0,0,1-3.6-3.32c-2.15,2.18-4.48,4.15-7.49,4.88-3.4.83-6.84.36-10.21-.35a10.07,10.07,0,0,1-5.63-4,1.68,1.68,0,0,0-1.75-.67c-3.64.36-7.28.37-10.57-1.64-2.17-1.34-3.7-3-3.25-5.81-2.77.15-5.48.25-8.17.44-3.93.29-7.62-.78-11.25-2-4.77-1.56-7.8-5.2-10.15-9.4-1.27-2.27-.81-4.85-.68-7.32a2.47,2.47,0,0,1,0-.38c-2.89.08-5.74.3-8.59.22-3.9-.12-6.32-2.42-6.93-6.37a1.88,1.88,0,0,0-.52.2c-3.37,2.77-7.23,3.07-11.28,2.14-.85-.2-1.1.13-1.52.69a16.68,16.68,0,0,1-7.81,6.23c-5.3,1.86-10,.54-14.29-2.72-.67-.5-1.31-1-1.95-1.55a13.15,13.15,0,0,1-13.89,3.37c-3-1.19-4.38-3.72-4.29-7.59-2.66,0-5.31,0-8,0a1.4,1.4,0,0,0-.92.62c-4,5.92-9.7,7.75-16.48,7.14a5.36,5.36,0,0,0-3.41,1,13.41,13.41,0,0,1-5.38,1.93,29.64,29.64,0,0,1-7.81-.38,5.92,5.92,0,0,1-4.69-4.72c-.48-1.84-1-3.62-3.05-4.31-1.28-.42-1.26-2.67-3.33-2.17a19.59,19.59,0,0,1-4.28,0c-.53,3.22-2.46,5.25-4.94,6.9-1.86,1.24-3.93,1.23-6,1.27a3.43,3.43,0,0,0-2,.88c-1.23,1.06-2.18,2.52-3.52,3.38-3.22,2.06-6.76,1.69-10.23.7a1.75,1.75,0,0,0-2.06.48c-2,2-4.29,3.43-7.23,3.34a35.28,35.28,0,0,1-5.63-.5,11.42,11.42,0,0,1-8.34-6.38,15,15,0,0,1-.85-1.57c-.31-.81-.86-.83-1.62-.9-2-.18-3.88-.62-5.83-.87a1.69,1.69,0,0,0-1.33.34,17,17,0,0,1-14.81,6.23,14.94,14.94,0,0,1-10.7-5.14c-6.59,5-13.29,5.56-19.81.2-1.49,1.19-2.72,2.35-4.12,3.25A10.69,10.69,0,0,1,5.82,233a5.61,5.61,0,0,1-4.64-3.34c-2.13-4.63-1.53-10.16,3-13,1.35-.83,2.79-1.51,4.15-2.31a4.65,4.65,0,0,0,1-1,52.34,52.34,0,0,1,4.22-4.79,10.62,10.62,0,0,1,8-2.79,9.75,9.75,0,0,0,1.11,0,39.91,39.91,0,0,1,1.66-4.2c2-3.76,5.44-5.41,9.52-5.79,1.21-.12,1.65-.43,1.72-1.75.31-5.85,4.39-9.24,10.23-8.6,3.32.37,6.32,1.4,8.34,4.34l5.25-2.69c-2.11-5.08.37-8.88,3.75-12.33a3.6,3.6,0,0,0,1.18-3.41c-.55-3.65-.48-7.25,1.76-10.46,3-4.37,7.45-6.1,12.52-6.45,1.93-.14,3.88,0,5.82,0a1.8,1.8,0,0,0,1.12-.69c1-1.27,1.77-2.65,2.76-3.89,2.77-3.49,6.67-3.88,10.7-3.61,1.19.08,1.57-.25,1.77-1.31a12.26,12.26,0,0,1,5-8c2.42-1.75,5-2.26,7.69-.88a1.17,1.17,0,0,0,1.64-.35c1.5-1.66,3-3.32,4.59-4.89a9.8,9.8,0,0,1,11.59-1.11,1.49,1.49,0,0,0,1.27,0,12.52,12.52,0,0,1,13.33.67,11.82,11.82,0,0,1,4.63,6.4c.12.46.33.9.55,1.5.54-1.92,1-3.67,1.51-5.38,1.53-4.79,5.13-7,9.87-7.68,1-.14,1.93-.3,2.39-1.36,0,0,.06-.07.09-.11,4.22-7.57,12.94-6.39,18.39-3.64.44.22.87.47,1.3.71.16-.11.32-.16.39-.27a15.23,15.23,0,0,1,16.16-6.88c4.75.89,9.23,2.38,13.07,5.45a13,13,0,0,1,4,5.83c.42,1.14.91,1.42,2,1.21a8.25,8.25,0,0,1,7.63,1.92,6.12,6.12,0,0,1,2.07,5.27c5.61.6,8.79,4,11,9.08C243.64,135.85,248.22,132.87,255.43,134.48Zm163.21,115.3a6.35,6.35,0,0,0-.93-.85c-5.58-3.22-8.38-8.51-10.45-14.25a42.33,42.33,0,0,1-2-17.23c.15-2.26,1.12-4.49,1.87-6.69.15-.45,1-.67,1.49-1a5.84,5.84,0,0,1,.1,1.85c-.4,1.52-1.25,3-1.4,4.52-.8,8.39.22,16.47,4.48,23.94,2.52,4.43,5.92,7.91,10.81,9.53a34.57,34.57,0,0,0,15.63,1.15c3.35-.46,6.36-1.5,8.72-4.07a21.35,21.35,0,0,1,2.33-1.86,1.79,1.79,0,0,1,2.53.09,10.65,10.65,0,0,0,3.32,1.88,36.14,36.14,0,0,0,13.27,1.6c4.36-.38,8.55-3,9.71-7.94.41-1.73.82-3.47,1.33-5.18.13-.42.67-.7,1-1.05.26.42.73.84.73,1.26a9.81,9.81,0,0,1-.41,2.63c-.6,2-1.28,4-1.95,6.15l.82.49a66.86,66.86,0,0,0,14.89,6.44c6.87,2.18,13.7,4.55,20.68,6.3,6.58,1.65,13.41,1.77,20.19,1.64,8-.16,15.24-2,21.37-7.64a33.26,33.26,0,0,0,10.87-19c.73-4.14.77-8.4,1.13-12.61,1-11.34-1.36-21.78-8.65-30.77a34.08,34.08,0,0,0-6.31-6.49,40.14,40.14,0,0,0-18.86-6.9c-.56-.07-1.06-.75-1.59-1.14.57-.24,1.16-.72,1.71-.68,6.31.48,12.09,2.73,17.64,5.63,3.14,1.64,5.42,4.3,7.71,6.93A40.16,40.16,0,0,1,570.48,209a93.31,93.31,0,0,1-1.12,24.8,1.37,1.37,0,0,0,.79,1.68,43.52,43.52,0,0,0,5.46,2.74c3.51,1.2,7.06,2.57,10.71,3a29.64,29.64,0,0,0,16-2.63c5.23-2.32,7.6-6.49,8.19-11.71a36.66,36.66,0,0,0-.57-9.21c-.58-3.95-.72-3.91-4.69-4.49-.79-.11-2.19.31-2-1.06s1.47-.78,2.36-.79a6.68,6.68,0,0,1,.73.14,69.49,69.49,0,0,0,8,.7c4.71-.1,9.41-.53,14.11-.86.9-.06,1.77-.34,2.66-.37a1.2,1.2,0,0,1,.95.67c.06.3-.29.77-.59,1a1.77,1.77,0,0,1-1,.24c-5.19.41-10.39.83-15.58,1.2-1.18.08-2.37,0-3.53,0,.29,2.57.57,5.06.88,7.56a12.36,12.36,0,0,0,.53,3.48c1.66,3.71,4.9,5.6,8.67,6.36,4.18.86,8.46,1.23,12.68,1.91a103,103,0,0,0,21,1.26,35,35,0,0,0,4.42-.61c4.8-.82,8.66-3.67,12.78-6C676,226,678,222.2,680.56,219c1-1.25,1.8-2.69,2.8-3.95.23-.28.93-.18,1.42-.26a3.79,3.79,0,0,1,0,1.34,10.81,10.81,0,0,1-1.1,1.72,31.83,31.83,0,0,0,14.4,1.59c5.28-.61,8.38-3.49,9.92-8.34.41-1.28.6-2.62.94-3.91s1.2-1.56,2.25-.85c.78.53,1.54,1.11,2.35,1.57,4,2.27,7.89,5,12.61,5.05a115.53,115.53,0,0,0,13.49-1,5.55,5.55,0,0,0,2.6-1.36A15.55,15.55,0,0,0,748,199.55a6.47,6.47,0,0,0-.7-3.88,8.21,8.21,0,0,0-12.18-2.24,7.91,7.91,0,0,1-1.19.9c-.91.52-1.56.25-1.75-.78a23.59,23.59,0,0,1-.17-2.38c-.59-7.61-4.22-13.67-9.67-18.75-4.06-3.78-9-5.39-14.47-6-7.52-.89-14.78-.3-21.72,3a2,2,0,0,1-1.85-.49c-1.81-3-4.88-4.12-7.86-5.33a6.72,6.72,0,0,0-2.8-.27,2.22,2.22,0,0,0-1.42.84c-1.4,1.91-2.7,3.88-4.18,6,2.55,4,3.19,8.73,3.12,13.7-.08,5.45-1.37,10.24-6.22,13.41-.68.44-1.5,1.6-2.28.6s.52-1.54,1.16-2.13c2.25-2.08,4.85-3.92,5-7.42.11-2.54.48-5.08.36-7.59-.34-7.05-3.26-12.64-9.77-15.95-2.83-1.44-5.69-2.86-8.59-4.14-4.35-1.92-8.79-3.49-13.65-3.44-4,0-8.07,0-12.1,0-1,0-2,.21-3,.14-.41,0-.8-.51-1.2-.79a5.76,5.76,0,0,1,1-1,2.07,2.07,0,0,1,1-.16c5.43,0,10.86-.16,16.27,0,6.25.18,11.7,3.06,17.2,5.59,3.82,1.76,7.67,3.6,10.55,7.4.66-.82,1.21-1.4,1.65-2,2.5-3.67,4.34-7.51,4.46-12.12.19-7.65-3.3-12.24-10.42-13.85-3.38-.77-7.13-.4-10.64,0-1.76.22-3.35,1.73-5,2.61a7.82,7.82,0,0,1-1.42.45,4.8,4.8,0,0,1-.4-1.43c.12-2.71.54-5.43.42-8.12-.16-3.38-3.61-8.45-7.85-8.92-3.84-.43-7.44.1-10.57,2.61-.41.32-1.19.62-1.54.44s-.6-1-.67-1.49c-.37-2.66-.48-5.36-1-8-1.22-6-4-11.07-9.58-14a33.79,33.79,0,0,0-8.47-3.6,28.76,28.76,0,0,0-13.76.46,9.36,9.36,0,0,0-3.61,2.19,38.81,38.81,0,0,0-2.89,3.57c-.29.33-.87.41-1.31.6-.12-.44-.44-.94-.32-1.3a7.1,7.1,0,0,1,1.09-1.93,43.3,43.3,0,0,0,3.09-4c2.69-4.64,5.34-9.3,6.67-14.59a28.39,28.39,0,0,0-1.55-18.84c-2.45-5.5-7.09-9.23-12.56-11.62a29.56,29.56,0,0,0-17.8-2.24,1.72,1.72,0,0,1-1.36-.51c-.16-.19.09-1,.38-1.26,4-4,3.91-9,2.12-13.51-2.68-6.72-8-12.46-17.3-11.09a2.06,2.06,0,0,1-.74,0c-.59-.16-1.44-.21-1.66-.6s.12-1.25.49-1.67c2.17-2.45,2.36-5.36,1.72-8.29-.59-2.69-2.21-4.69-5.21-5q-3-.33-5.94-.52c-2.87-.18-5,1.19-6.55,3.44-1.29,1.81-1.83,1.75-3.2,0a10.93,10.93,0,0,0-7.8-4.46,15.26,15.26,0,0,0-9.46,2.11c-2.44,1.48-3.32,3.89-3.89,6.34,1.9.81,3.78,1.26,5.22,2.32a42.61,42.61,0,0,1,7.05,6.14,22.65,22.65,0,0,1,5.83,16.16,28.38,28.38,0,0,1-4,14.19,1.55,1.55,0,0,0,.36,2.27c4.93,4.94,5.62,10.82,3.73,17.24-1.23,4.15-4.55,6-8.3,7.22-.38.13-.93-.27-1.41-.43.24-.42.38-1,.74-1.22.9-.53,1.91-.86,2.85-1.31a7.68,7.68,0,0,0,3.79-3.63c2.31-4.67,2.15-12.52-3.37-17.18-1.28-1.08-1.2-1.93-.43-3.16a27.81,27.81,0,0,0,4.18-14.43,21.52,21.52,0,0,0-5.36-14.52c-3.11-3.7-6.73-6.86-11.76-7.59A51,51,0,0,0,497,20a28.56,28.56,0,0,0-11.65,2.18c-2.26,1-2.47.93-3-1.44-1.43-6.91-6-11.15-12.17-13.68C465.7,5.24,461,3.76,455.91,3.82c-3,0-6,0-9,0-6.4-.07-12.26,1.59-16.51,6.55-2.44,2.86-5.19,3.71-8.7,3.61a9.23,9.23,0,0,0-7.12,2.94c-2.41,2.52-4.79,5.14-6,8.48s-2,6.87-3.05,10.28c-.18.57-.77,1-1.17,1.49a5.53,5.53,0,0,1-.87-1.66c-.4-3.2-.58-6.42-1.05-9.61a10,10,0,0,0-4.52-7c-3.38-2.27-6.85-3.58-10.91-1.91-1.08.45-1.38-.39-1.83-1.18a7.57,7.57,0,0,0-2.14-2.67c-3.31-2.11-6.85-1.79-10.27-.29a1.75,1.75,0,0,1-2.57-.73,19.58,19.58,0,0,0-3.53-3.94c-2.94-2.26-6.47-2.14-10-2.13-5.29,0-8.57,2.84-11,7.13a4.4,4.4,0,0,1-1.89,1.68c-4.21,2-8.16,4.33-10.83,8.17-2.15,3.09-3.85,6.5-5.75,9.76a3.65,3.65,0,0,1-.78,1.23,1.64,1.64,0,0,1-1.32.09c-.17-.06-.23-.79-.12-1.16a11.87,11.87,0,0,1,.79-1.6c3.24-6.52,6.91-12.69,13.57-16.4a3,3,0,0,0,1-1.22,5.79,5.79,0,0,0-.67-6.32c-2.55-3.61-5.9-6-10.6-5.22a14.08,14.08,0,0,0-5.32,2.11A8,8,0,0,1,319,5.7a7.13,7.13,0,0,0-6.64,4.3,5,5,0,0,0,2.37,6.8c.46.22.69.9,1,1.37-.51.15-1.07.5-1.52.4a5.91,5.91,0,0,0-5.94,1.86,4.31,4.31,0,0,1-2.3,1c-1.66.28-3.38.22-5,.52-4.54.83-8.41,2.81-10.67,7.07-2.07,3.93-2,3.87-6.57,3.47-5.05-.45-10-.24-14.75,2-4.42,2.12-7,5.37-6.67,10.43a62.06,62.06,0,0,0,.86,6.35c.38,2.24.07,2.63-2.24,2.59-3.53-.07-7.07-.28-10.59-.11a26.82,26.82,0,0,0-7,1.26,6.58,6.58,0,0,0-4.44,7.68,13.89,13.89,0,0,0,1.39,4.68c1.17,2,.87,3.89.56,5.9-.11.68-.28,1.36-.43,2-.93,4.09-2,8.07-4.91,11.35a12.29,12.29,0,0,0-3.16,9.93c.59,5.31,2.71,9.76,8.87,10.58,4,.53,8.21.07,12.31-.13a11.17,11.17,0,0,0,3.35-1.17c2-.8,3.14-2.53,4.37-4.16.44-.58,1-1.44,1.74-.67.27.27,0,1.32-.33,1.88a11.25,11.25,0,0,1-1.7,2.26,1.83,1.83,0,0,0-.18,2.44,3.11,3.11,0,0,0,4.5,1.12,5.47,5.47,0,0,1,1.84-.32c-.19.64-.19,1.45-.6,1.89a7.48,7.48,0,0,0,1.94,11.7c.87.46,1.88.68,2.72,1.18.42.25.6.88.89,1.34a5.33,5.33,0,0,1-1.61.56,5.17,5.17,0,0,1-1.53-.53c-5.38-1.8-12.06,2.08-11.51,7.58.1.93,0,1.88,0,2.82s-.44,1.42-1.48,1.32c-1.43-.14-2.87-.16-4.31-.28a7,7,0,0,0-6.89,3.6c-1.3,2.15-2.28,4.49-3.46,6.72a4.56,4.56,0,0,1-1.08,1,5.32,5.32,0,0,1-.93-1.17,4.79,4.79,0,0,1-.11-1.48,9.65,9.65,0,0,0-9.68-9.41c-1.56,0-1.88-.38-1.52-1.9a4.05,4.05,0,0,0-1.59-4.31c-2.19-1.94-4.63-1.6-7-1-1.43.37-2,0-2.35-1.32a12.12,12.12,0,0,0-5.22-7.37,29.47,29.47,0,0,0-10.81-4.06c-6.2-1.1-11.35,1.17-14.51,6.51a1.53,1.53,0,0,1-2.44.65,35.2,35.2,0,0,0-4.43-2.11c-5.32-2-10.76-.17-13.37,4.81a2.69,2.69,0,0,1-2.7,1.63c-4.44.26-8.25,2.39-9.23,7-.79,3.71-1.06,7.55-1.53,11.33-.1.82.17,1.93-1,1.94s-1-1.14-1.14-1.93a79.63,79.63,0,0,0-2.3-9.22C146,130,138,128,133,131.61a1.71,1.71,0,0,1-2.4,0,7.4,7.4,0,0,0-9.65.47c-1.62,1.61-3.18,3.3-4.66,5a2.37,2.37,0,0,1-3.49.63c-2-1.2-3.85-.82-5.72.44-2.87,1.94-4,4.79-4.71,8-.44,2.13-.72,2.19-2.85,1.93-4.6-.55-8.66.27-11.14,4.75a13.52,13.52,0,0,1-1.61,2.5,2.87,2.87,0,0,1-1.79,1c-2.13.08-4.27-.15-6.4-.06-5,.22-10.81,2.94-12.09,8.28a23.54,23.54,0,0,0-.18,7.07A4.43,4.43,0,0,1,65,175.5a31.74,31.74,0,0,0-3.42,4.31c-2.15,3.17-1,8.38,3.09,9.42.55.14,1.35.67,1.42,1.12.35,2,1.77,3.21,3,4.5,2.42,2.41,5.11,4.7,8.59,5.09,5.39.6,10.92,1.13,15.19-3.53.26-.29,1-.12,1.54-.16-.09.49,0,1.13-.31,1.44-1.82,2-4,3.72-6.65,4a85.89,85.89,0,0,1-10.4.11,7.53,7.53,0,0,1-3-1,21.1,21.1,0,0,1-8.52-7.08,11,11,0,0,0-4.19-4.07,2.57,2.57,0,0,0-2.44-.26c-4.28,1.77-7.63,4.6-9.23,9-1.21,3.33-2.1,6.84.61,10,.13.15.3.36.27.52a10.52,10.52,0,0,1-.34,1.31c-.39-.12-1-.11-1.16-.37-.81-1.45-1.92-2.9-2.17-4.48a13.57,13.57,0,0,1,1.76-9.19c1.11-1.86,2.38-3.62,3.61-5.47-2-3.35-8.53-4.73-11.94-2.41a3.92,3.92,0,0,0-1.51,1.6A24.17,24.17,0,0,0,37.44,195c-.32,2.17-.38,2.42-2.57,2.53-5.29.28-9.51,3.08-10.09,9-.11,1.19-.79,1.42-1.88,1.27-2.59-.38-5.18-.16-7.21,1.6a66.33,66.33,0,0,0-4.83,5.21A7.06,7.06,0,0,1,9.42,216c-1.31.78-2.75,1.37-4,2.17-4,2.46-4.28,7.22-2.25,10.92a4.16,4.16,0,0,0,2.39,1.82,8.76,8.76,0,0,0,8.67-2.31c2.67-2.65,2.73-2.81,5.79-.6,5.26,3.77,11.1,2.16,14.65-.36,2.48-1.76,2.48-1.76,4.78.28l.22.2c6.07,5.34,16.86,4.39,21.81-2.7.78-1.1,1.49-1.42,2.71-.69a9,9,0,0,0,6.46.93c.46-1.17-.13-1.43-1.06-1.62-3.91-.78-7.63-2-10.37-5.13a5.58,5.58,0,0,1-.64-1.72c.65.13,1.54,0,1.92.43,2.6,2.75,5.94,4,9.52,4.57,5,.83,9.66.56,13.08-3.93.24-.31.92-.3,1.4-.43,0,.53.23,1.19,0,1.56a8.58,8.58,0,0,1-5.3,4.08c-2.11.47-4.24.88-6.77,1.4.54,1.52,1,3.05,1.62,4.51,2.58,6.13,14.12,8,18.31,2.76,1-1.27,2.08-1.45,3.66-.83,3.22,1.27,8.31,1.24,10.35-1.77,1.8-2.66,4-3.52,7.12-3.34s6.36-3.17,6.61-6.1c-.37-.07-.74-.17-1.12-.21a23.31,23.31,0,0,1-9-2.83c-3.37-1.95-6.7-3.91-9.33-6.85-.52-.59-1.75-1-.91-1.94s1.51.08,2.17.53c.36.25.66.6,1,.87,1.75,1.38,3.46,2.81,5.27,4.09a24.77,24.77,0,0,0,12.8,4.46c4.17.31,8-.07,11.25-3.13,1.35-1.29,2.71-2.59,4.14-3.81a4.29,4.29,0,0,1,1.5-.51,6.42,6.42,0,0,1,0,1.58,2,2,0,0,1-.71.93c-2.37,2-4.75,4-7.33,6.19l2.42,2.08a11.35,11.35,0,0,1,1-2.32,4.92,4.92,0,0,1,1.46-1,8,8,0,0,1,.24,1.66,5.76,5.76,0,0,1-.48,1.24,6.49,6.49,0,0,0,4.82,8.57,16.17,16.17,0,0,0,9.1-.8,3.24,3.24,0,0,0,1.65-1.18c.52-1,1.29-1.07,2.23-1.07a66.4,66.4,0,0,0,7.6-.11c3.85-.44,6.74-2.58,9.08-6a13.87,13.87,0,0,1-9.1-5.32c-2.52,2.77-5.4,2.29-8.13.87a16.9,16.9,0,0,1-3.94-3.35c-.34-.34-.18-1.18-.24-1.79a6.43,6.43,0,0,1,1.62.63c1.09.85,2,1.94,3.15,2.7,2.28,1.51,4.62,1.26,6.18-.48,1.43-1.58,1.61-1.58,2.88.12a11.09,11.09,0,0,0,7.66,4.7,23.21,23.21,0,0,0,2.36.19c3.5,0,7.06.54,10.36-1.27.31-.18.87.09,1.32.16-.11.44-.08,1-.34,1.31-2.29,2.76-1.3,6.67,2.15,7.65a11.91,11.91,0,0,0,9.15-.79,5.18,5.18,0,0,0,2-6.7,1.2,1.2,0,0,0-.84-.44c-2.85-.21-5-1.94-7.16-3.47-.31-.22-.31-.9-.45-1.37.49,0,1.07-.29,1.45-.1a29.42,29.42,0,0,1,2.51,1.6,10.1,10.1,0,0,0,9.51.74l-.74-.95c-.22-.26-.58-.49-.66-.79s-.13-1,.09-1.18.81-.13,1.18,0,.53.43.78.67c2.66,2.57,4.83,2.59,7.68.16.37-.31,1-.29,1.55-.42-.08.57.06,1.33-.26,1.67a7,7,0,0,1-6.88,2.25,2.68,2.68,0,0,0-1.3-.11c-1.47.54-2.91,1.18-4.64,1.9.35,1.28.33,3.06,1.21,4a13.64,13.64,0,0,0,9,4.81c5.49.46,9.46-2.19,12.39-6.57a2.38,2.38,0,0,1,3.16-1.18c3.9,1.09,7.6.68,10.6-2.43a10.12,10.12,0,0,1,1.24-1.29c.36-.26,1-.52,1.29-.38s.5.78.54,1.22c.05.68-.12,1.38-.13,2.07a4.53,4.53,0,0,0,3.85,4.76c3.22.54,6.47.68,9.53-.75a6.82,6.82,0,0,0,1.93-1.68c1.13-1.25,2.13-2.62,3.29-3.83.3-.31,1-.21,1.56-.3a5.4,5.4,0,0,1-.4,1.65c-.32.54-.93.9-1.33,1.4-2.88,3.65-4.43,7.78-2.5,12.2a15,15,0,0,0,7.65,7.86,31.83,31.83,0,0,0,19,1.87c2.84-.53,3.24-.3,3,2.53a3.19,3.19,0,0,0,1.32,3c3.07,2.42,6.67,2.64,10.23,2,1.64-.28,2.46,0,3.37,1.18a8.59,8.59,0,0,0,5.41,3.72,36.61,36.61,0,0,0,6.09.49,10.22,10.22,0,0,0,9.24-5.43c.58-1,1.49-1,2.24-.16a27.27,27.27,0,0,0,3.76,4c7,5.4,15.13,7.9,23.68,9.16,5.61.82,11.27,1.27,16.93,1.73,12.6,1,25.08,1,37.42-2.74C409.56,260.12,414.15,255.23,418.64,249.78Z"/><path class="cls-1" d="M418.64,249.78c-4.49,5.45-9.08,10.34-16.24,12.53-12.34,3.77-24.82,3.74-37.42,2.74-5.66-.46-11.32-.91-16.93-1.73-8.55-1.26-16.71-3.76-23.68-9.16a27.27,27.27,0,0,1-3.76-4c-.75-.86-1.66-.86-2.24.16a10.22,10.22,0,0,1-9.24,5.43,36.61,36.61,0,0,1-6.09-.49,8.59,8.59,0,0,1-5.41-3.72c-.91-1.19-1.73-1.46-3.37-1.18-3.56.63-7.16.41-10.23-2a3.19,3.19,0,0,1-1.32-3c.22-2.83-.18-3.06-3-2.53a31.83,31.83,0,0,1-19-1.87,15,15,0,0,1-7.65-7.86c-1.93-4.42-.38-8.55,2.5-12.2.4-.5,1-.86,1.33-1.4a5.4,5.4,0,0,0,.4-1.65c-.53.09-1.26,0-1.56.3-1.16,1.21-2.16,2.58-3.29,3.83a6.82,6.82,0,0,1-1.93,1.68c-3.06,1.43-6.31,1.29-9.53.75a4.53,4.53,0,0,1-3.85-4.76c0-.69.18-1.39.13-2.07,0-.44-.23-1.08-.54-1.22s-.93.12-1.29.38a10.12,10.12,0,0,0-1.24,1.29c-3,3.11-6.7,3.52-10.6,2.43a2.38,2.38,0,0,0-3.16,1.18c-2.93,4.38-6.9,7-12.39,6.57a13.64,13.64,0,0,1-9-4.81c-.88-1-.86-2.76-1.21-4,1.73-.72,3.17-1.36,4.64-1.9a2.68,2.68,0,0,1,1.3.11,7,7,0,0,0,6.88-2.25c.32-.34.18-1.1.26-1.67-.52.13-1.18.11-1.55.42-2.85,2.43-5,2.41-7.68-.16-.25-.24-.48-.58-.78-.67s-1-.19-1.18,0-.19.8-.09,1.18.44.53.66.79l.74.95a10.1,10.1,0,0,1-9.51-.74,29.42,29.42,0,0,0-2.51-1.6c-.38-.19-1,.05-1.45.1.14.47.14,1.15.45,1.37,2.2,1.53,4.31,3.26,7.16,3.47a1.2,1.2,0,0,1,.84.44,5.18,5.18,0,0,1-2,6.7,11.91,11.91,0,0,1-9.15.79c-3.45-1-4.44-4.89-2.15-7.65.26-.32.23-.87.34-1.31-.45-.07-1-.34-1.32-.16-3.3,1.81-6.86,1.29-10.36,1.27a23.21,23.21,0,0,1-2.36-.19,11.09,11.09,0,0,1-7.66-4.7c-1.27-1.7-1.45-1.7-2.88-.12-1.56,1.74-3.9,2-6.18.48-1.14-.76-2.06-1.85-3.15-2.7a6.43,6.43,0,0,0-1.62-.63c.06.61-.1,1.45.24,1.79a16.9,16.9,0,0,0,3.94,3.35c2.73,1.42,5.61,1.9,8.13-.87a13.87,13.87,0,0,0,9.1,5.32c-2.34,3.39-5.23,5.53-9.08,6a66.4,66.4,0,0,1-7.6.11c-.94,0-1.71,0-2.23,1.07a3.24,3.24,0,0,1-1.65,1.18,16.17,16.17,0,0,1-9.1.8,6.49,6.49,0,0,1-4.82-8.57,5.76,5.76,0,0,0,.48-1.24,8,8,0,0,0-.24-1.66,4.92,4.92,0,0,0-1.46,1,11.35,11.35,0,0,0-1,2.32l-2.42-2.08c2.58-2.17,5-4.17,7.33-6.19a2,2,0,0,0,.71-.93,6.42,6.42,0,0,0,0-1.58,4.29,4.29,0,0,0-1.5.51c-1.43,1.22-2.79,2.52-4.14,3.81-3.2,3.06-7.08,3.44-11.25,3.13a24.77,24.77,0,0,1-12.8-4.46c-1.81-1.28-3.52-2.71-5.27-4.09-.35-.27-.65-.62-1-.87-.66-.45-1.39-1.43-2.17-.53s.39,1.35.91,1.94c2.63,2.94,6,4.9,9.33,6.85a23.31,23.31,0,0,0,9,2.83c.38,0,.75.14,1.12.21-.25,2.93-3.57,6.28-6.61,6.1s-5.32.68-7.12,3.34c-2,3-7.13,3-10.35,1.77-1.58-.62-2.65-.44-3.66.83-4.19,5.28-15.73,3.37-18.31-2.76-.61-1.46-1.08-3-1.62-4.51,2.53-.52,4.66-.93,6.77-1.4a8.58,8.58,0,0,0,5.3-4.08c.24-.37,0-1,0-1.56-.48.13-1.16.12-1.4.43C79.63,222.76,74.93,223,70,222.2c-3.58-.61-6.92-1.82-9.52-4.57-.38-.4-1.27-.3-1.92-.43a5.58,5.58,0,0,0,.64,1.72c2.74,3.12,6.46,4.35,10.37,5.13.93.19,1.52.45,1.06,1.62a9,9,0,0,1-6.46-.93c-1.22-.73-1.93-.41-2.71.69-5,7.09-15.74,8-21.81,2.7l-.22-.2c-2.3-2-2.3-2-4.78-.28-3.55,2.52-9.39,4.13-14.65.36-3.06-2.21-3.12-2-5.79.6a8.76,8.76,0,0,1-8.67,2.31,4.16,4.16,0,0,1-2.39-1.82c-2-3.7-1.76-8.46,2.25-10.92,1.3-.8,2.74-1.39,4.05-2.17a7.06,7.06,0,0,0,1.44-1.4,66.33,66.33,0,0,1,4.83-5.21c2-1.76,4.62-2,7.21-1.6,1.09.15,1.77-.08,1.88-1.27.58-5.92,4.8-8.72,10.09-9,2.19-.11,2.25-.36,2.57-2.53a24.17,24.17,0,0,1,1.48-5.08,3.92,3.92,0,0,1,1.51-1.6c3.41-2.32,9.91-.94,11.94,2.41-1.23,1.85-2.5,3.61-3.61,5.47A13.57,13.57,0,0,0,47,205.39c.25,1.58,1.36,3,2.17,4.48.15.26.77.25,1.16.37a10.52,10.52,0,0,0,.34-1.31c0-.16-.14-.37-.27-.52-2.71-3.19-1.82-6.7-.61-10,1.6-4.4,5-7.23,9.23-9a2.57,2.57,0,0,1,2.44.26,11,11,0,0,1,4.19,4.07,21.1,21.1,0,0,0,8.52,7.08,7.53,7.53,0,0,0,3,1,85.89,85.89,0,0,0,10.4-.11c2.69-.26,4.83-2,6.65-4,.29-.31.22-.95.31-1.44-.52,0-1.28-.13-1.54.16-4.27,4.66-9.8,4.13-15.19,3.53-3.48-.39-6.17-2.68-8.59-5.09-1.28-1.29-2.7-2.5-3-4.5-.07-.45-.87-1-1.42-1.12-4.06-1-5.24-6.25-3.09-9.42A31.74,31.74,0,0,1,65,175.5a4.43,4.43,0,0,0,1.29-3.86,23.54,23.54,0,0,1,.18-7.07c1.28-5.34,7.13-8.06,12.09-8.28,2.13-.09,4.27.14,6.4.06a2.87,2.87,0,0,0,1.79-1,13.52,13.52,0,0,0,1.61-2.5c2.48-4.48,6.54-5.3,11.14-4.75,2.13.26,2.41.2,2.85-1.93.67-3.21,1.84-6.06,4.71-8,1.87-1.26,3.76-1.64,5.72-.44a2.37,2.37,0,0,0,3.49-.63c1.48-1.74,3-3.43,4.66-5a7.4,7.4,0,0,1,9.65-.47,1.71,1.71,0,0,0,2.4,0c4.95-3.63,13-1.57,15.17,4.44a79.63,79.63,0,0,1,2.3,9.22c.19.79-.06,1.94,1.14,1.93s.95-1.12,1-1.94c.47-3.78.74-7.62,1.53-11.33,1-4.65,4.79-6.78,9.23-7a2.69,2.69,0,0,0,2.7-1.63c2.61-5,8-6.86,13.37-4.81a35.2,35.2,0,0,1,4.43,2.11,1.53,1.53,0,0,0,2.44-.65c3.16-5.34,8.31-7.61,14.51-6.51a29.47,29.47,0,0,1,10.81,4.06,12.12,12.12,0,0,1,5.22,7.37c.37,1.35.92,1.69,2.35,1.32,2.41-.63,4.85-1,7,1a4.05,4.05,0,0,1,1.59,4.31c-.36,1.52,0,1.87,1.52,1.9a9.65,9.65,0,0,1,9.68,9.41,4.79,4.79,0,0,0,.11,1.48,5.32,5.32,0,0,0,.93,1.17,4.56,4.56,0,0,0,1.08-1c1.18-2.23,2.16-4.57,3.46-6.72a7,7,0,0,1,6.89-3.6c1.44.12,2.88.14,4.31.28,1,.1,1.49-.28,1.48-1.32s.13-1.89,0-2.82c-.55-5.5,6.13-9.38,11.51-7.58a5.17,5.17,0,0,0,1.53.53,5.33,5.33,0,0,0,1.61-.56c-.29-.46-.47-1.09-.89-1.34-.84-.5-1.85-.72-2.72-1.18a7.48,7.48,0,0,1-1.94-11.7c.41-.44.41-1.25.6-1.89a5.47,5.47,0,0,0-1.84.32,3.11,3.11,0,0,1-4.5-1.12,1.83,1.83,0,0,1,.18-2.44,11.25,11.25,0,0,0,1.7-2.26c.3-.56.6-1.61.33-1.88-.76-.77-1.3.09-1.74.67-1.23,1.63-2.37,3.36-4.37,4.16a11.17,11.17,0,0,1-3.35,1.17c-4.1.2-8.28.66-12.31.13-6.16-.82-8.28-5.27-8.87-10.58a12.29,12.29,0,0,1,3.16-9.93c2.95-3.28,4-7.26,4.91-11.35.15-.68.32-1.36.43-2,.31-2,.61-3.92-.56-5.9a13.89,13.89,0,0,1-1.39-4.68,6.58,6.58,0,0,1,4.44-7.68,26.82,26.82,0,0,1,7-1.26c3.52-.17,7.06,0,10.59.11,2.31,0,2.62-.35,2.24-2.59a62.06,62.06,0,0,1-.86-6.35c-.33-5.06,2.25-8.31,6.67-10.43,4.72-2.26,9.7-2.47,14.75-2,4.56.4,4.5.46,6.57-3.47,2.26-4.26,6.13-6.24,10.67-7.07,1.66-.3,3.38-.24,5-.52a4.31,4.31,0,0,0,2.3-1,5.91,5.91,0,0,1,5.94-1.86c.45.1,1-.25,1.52-.4-.34-.47-.57-1.15-1-1.37a5,5,0,0,1-2.37-6.8A7.13,7.13,0,0,1,319,5.7a8,8,0,0,0,4.83-1.48,14.08,14.08,0,0,1,5.32-2.11c4.7-.83,8.05,1.61,10.6,5.22a5.79,5.79,0,0,1,.67,6.32,3,3,0,0,1-1,1.22c-6.66,3.71-10.33,9.88-13.57,16.4a11.87,11.87,0,0,0-.79,1.6c-.11.37,0,1.1.12,1.16a1.64,1.64,0,0,0,1.32-.09,3.65,3.65,0,0,0,.78-1.23c1.9-3.26,3.6-6.67,5.75-9.76,2.67-3.84,6.62-6.22,10.83-8.17a4.4,4.4,0,0,0,1.89-1.68c2.47-4.29,5.75-7.12,11-7.13,3.53,0,7.06-.13,10,2.13A19.58,19.58,0,0,1,370.29,12a1.75,1.75,0,0,0,2.57.73c3.42-1.5,7-1.82,10.27.29a7.57,7.57,0,0,1,2.14,2.67c.45.79.75,1.63,1.83,1.18,4.06-1.67,7.53-.36,10.91,1.91a10,10,0,0,1,4.52,7.05c.47,3.19.65,6.41,1.05,9.61a5.53,5.53,0,0,0,.87,1.66c.4-.49,1-.92,1.17-1.49,1.05-3.41,1.87-6.91,3.05-10.28s3.55-6,6-8.48A9.23,9.23,0,0,1,421.75,14c3.51.1,6.26-.75,8.7-3.61,4.25-5,10.11-6.62,16.51-6.55,3,0,6,.07,9,0,5-.06,9.79,1.42,14.32,3.27,6.16,2.53,10.74,6.77,12.17,13.68.49,2.37.7,2.41,3,1.44A28.56,28.56,0,0,1,497,20a51,51,0,0,1,6.55.27c5,.73,8.65,3.89,11.76,7.59a21.52,21.52,0,0,1,5.36,14.52,27.81,27.81,0,0,1-4.18,14.43c-.77,1.23-.85,2.08.43,3.16,5.52,4.66,5.68,12.51,3.37,17.18a7.68,7.68,0,0,1-3.79,3.63c-.94.45-2,.78-2.85,1.31-.36.21-.5.8-.74,1.22.48.16,1,.56,1.41.43,3.75-1.26,7.07-3.07,8.3-7.22,1.89-6.42,1.2-12.3-3.73-17.24a1.55,1.55,0,0,1-.36-2.27,28.38,28.38,0,0,0,4-14.19,22.65,22.65,0,0,0-5.83-16.16,42.61,42.61,0,0,0-7.05-6.14c-1.44-1.06-3.32-1.51-5.22-2.32.57-2.45,1.45-4.86,3.89-6.34a15.26,15.26,0,0,1,9.46-2.11,10.93,10.93,0,0,1,7.8,4.46c1.37,1.75,1.91,1.81,3.2,0,1.6-2.25,3.68-3.62,6.55-3.44q3,.19,5.94.52c3,.33,4.62,2.33,5.21,5,.64,2.93.45,5.84-1.72,8.29-.37.42-.69,1.3-.49,1.67s1.07.44,1.66.6a2.06,2.06,0,0,0,.74,0C556,25.5,561.31,31.24,564,38c1.79,4.48,1.86,9.51-2.12,13.51-.29.29-.54,1.07-.38,1.26a1.72,1.72,0,0,0,1.36.51,29.56,29.56,0,0,1,17.8,2.24c5.47,2.39,10.11,6.12,12.56,11.62a28.39,28.39,0,0,1,1.55,18.84c-1.33,5.29-4,10-6.67,14.59a43.3,43.3,0,0,1-3.09,4,7.1,7.1,0,0,0-1.09,1.93c-.12.36.2.86.32,1.3.44-.19,1-.27,1.31-.6a38.81,38.81,0,0,1,2.89-3.57,9.36,9.36,0,0,1,3.61-2.19,28.76,28.76,0,0,1,13.76-.46,33.79,33.79,0,0,1,8.47,3.6c5.6,3,8.36,8,9.58,14,.53,2.62.64,5.32,1,8,.07.54.29,1.29.67,1.49s1.13-.12,1.54-.44c3.13-2.51,6.73-3,10.57-2.61,4.24.47,7.69,5.54,7.85,8.92.12,2.69-.3,5.41-.42,8.12a4.8,4.8,0,0,0,.4,1.43,7.82,7.82,0,0,0,1.42-.45c1.68-.88,3.27-2.39,5-2.61,3.51-.42,7.26-.79,10.64,0,7.12,1.61,10.61,6.2,10.42,13.85-.12,4.61-2,8.45-4.46,12.12-.44.65-1,1.23-1.65,2-2.88-3.8-6.73-5.64-10.55-7.4-5.5-2.53-11-5.41-17.2-5.59-5.41-.16-10.84,0-16.27,0a2.07,2.07,0,0,0-1,.16,5.76,5.76,0,0,0-1,1c.4.28.79.77,1.2.79,1,.07,2-.13,3-.14,4,0,8.07,0,12.1,0,4.86,0,9.3,1.52,13.65,3.44,2.9,1.28,5.76,2.7,8.59,4.14,6.51,3.31,9.43,8.9,9.77,15.95.12,2.51-.25,5.05-.36,7.59-.15,3.5-2.75,5.34-5,7.42-.64.59-2,1-1.16,2.13s1.6-.16,2.28-.6c4.85-3.17,6.14-8,6.22-13.41.07-5-.57-9.71-3.12-13.7,1.48-2.15,2.78-4.12,4.18-6a2.22,2.22,0,0,1,1.42-.84,6.72,6.72,0,0,1,2.8.27c3,1.21,6,2.31,7.86,5.33a2,2,0,0,0,1.85.49c6.94-3.26,14.2-3.85,21.72-3,5.44.65,10.41,2.26,14.47,6,5.45,5.08,9.08,11.14,9.67,18.75a23.59,23.59,0,0,0,.17,2.38c.19,1,.84,1.3,1.75.78a7.91,7.91,0,0,0,1.19-.9,8.21,8.21,0,0,1,12.18,2.24,6.47,6.47,0,0,1,.7,3.88,15.55,15.55,0,0,1-5.74,11.07,5.55,5.55,0,0,1-2.6,1.36,115.53,115.53,0,0,1-13.49,1c-4.72-.07-8.64-2.78-12.61-5.05-.81-.46-1.57-1-2.35-1.57-1.05-.71-1.91-.4-2.25.85s-.53,2.63-.94,3.91c-1.54,4.85-4.64,7.73-9.92,8.34a31.83,31.83,0,0,1-14.4-1.59,10.81,10.81,0,0,0,1.1-1.72,3.79,3.79,0,0,0,0-1.34c-.49.08-1.19,0-1.42.26-1,1.26-1.78,2.7-2.8,3.95-2.61,3.16-4.55,7-8.3,9.05-4.12,2.29-8,5.14-12.78,6a35,35,0,0,1-4.42.61,103,103,0,0,1-21-1.26c-4.22-.68-8.5-1.05-12.68-1.91-3.77-.76-7-2.65-8.67-6.36a12.36,12.36,0,0,1-.53-3.48c-.31-2.5-.59-5-.88-7.56,1.16,0,2.35.07,3.53,0,5.19-.37,10.39-.79,15.58-1.2a1.77,1.77,0,0,0,1-.24c.3-.26.65-.73.59-1a1.2,1.2,0,0,0-.95-.67c-.89,0-1.76.31-2.66.37-4.7.33-9.4.76-14.11.86a69.49,69.49,0,0,1-8-.7,6.68,6.68,0,0,0-.73-.14c-.89,0-2.2-.49-2.36.79s1.22.95,2,1.06c4,.58,4.11.54,4.69,4.49a36.66,36.66,0,0,1,.57,9.21c-.59,5.22-3,9.39-8.19,11.71a29.64,29.64,0,0,1-16,2.63c-3.65-.47-7.2-1.84-10.71-3a43.52,43.52,0,0,1-5.46-2.74,1.37,1.37,0,0,1-.79-1.68,93.31,93.31,0,0,0,1.12-24.8,40.16,40.16,0,0,0-10.05-22.53c-2.29-2.63-4.57-5.29-7.71-6.93-5.55-2.9-11.33-5.15-17.64-5.63-.55,0-1.14.44-1.71.68.53.39,1,1.07,1.59,1.14a40.14,40.14,0,0,1,18.86,6.9,34.08,34.08,0,0,1,6.31,6.49c7.29,9,9.64,19.43,8.65,30.77-.36,4.21-.4,8.47-1.13,12.61a33.26,33.26,0,0,1-10.87,19c-6.13,5.61-13.41,7.48-21.37,7.64-6.78.13-13.61,0-20.19-1.64-7-1.75-13.81-4.12-20.68-6.3a66.86,66.86,0,0,1-14.89-6.44l-.82-.49c.67-2.1,1.35-4.11,1.95-6.15a9.81,9.81,0,0,0,.41-2.63c0-.42-.47-.84-.73-1.26-.35.35-.89.63-1,1.05-.51,1.71-.92,3.45-1.33,5.18-1.16,4.9-5.35,7.56-9.71,7.94a36.14,36.14,0,0,1-13.27-1.6,10.65,10.65,0,0,1-3.32-1.88,1.79,1.79,0,0,0-2.53-.09,21.35,21.35,0,0,0-2.33,1.86c-2.36,2.57-5.37,3.61-8.72,4.07a34.57,34.57,0,0,1-15.63-1.15c-4.89-1.62-8.29-5.1-10.81-9.53-4.26-7.47-5.28-15.55-4.48-23.94.15-1.54,1-3,1.4-4.52a5.84,5.84,0,0,0-.1-1.85c-.51.32-1.34.54-1.49,1-.75,2.2-1.72,4.43-1.87,6.69a42.33,42.33,0,0,0,2,17.23c2.07,5.74,4.87,11,10.45,14.25A6.35,6.35,0,0,1,418.64,249.78Zm26.55-148.19c-.7-3.07-1.33-5.92-2-8.76-1.84-8-6.86-13.34-14.36-16.11-9.7-3.58-19.46-3-29,.93a28.87,28.87,0,0,0-6.1,3.39c-4.49,3.34-7.5,7.94-10,12.86-2.33,4.63-2.67,9.61-1.89,14.7.82,5.33,3.27,10,6,14.5a12,12,0,0,0,3.19,2.82c.24.18.86-.13,1.3-.21-.12-.43-.1-1.13-.37-1.26-2.46-1.28-3.35-3.75-4.55-6-5.26-9.62-5.87-19.13.72-28.49,2.81-4,5.86-7.68,10.42-9.78a38.59,38.59,0,0,1,25.15-3c6.83,1.51,12.57,4.7,15.75,11.14,2.37,4.8,3.2,10.12,3.85,15.42a7.49,7.49,0,0,0,.88,2c.53-.43,1.3-.76,1.57-1.33,1.8-3.71,4.67-6.53,7.6-9.31a12,12,0,0,1,7.39-3.51,40.79,40.79,0,0,1,16.5,1.83c2.18.72,4.36,1.7,5.37,4,1.49,3.36,3,6.73,3.25,10.49a1.65,1.65,0,0,1-1,1.77,41.16,41.16,0,0,0-4.73,3.07,10.34,10.34,0,0,0-4.27,8c0,.51.46,1,.71,1.56a6.58,6.58,0,0,0,1.11-1.45c.57-1.4.72-3.05,1.54-4.26a16.61,16.61,0,0,1,10.56-6.72,45.18,45.18,0,0,1,10.35-1.15c9.22.11,18.39.87,27.31,3.45,3.11.91,6.33,1.59,8.15,4.72a3.82,3.82,0,0,0,1.1,1,12.53,12.53,0,0,1,4.33,5.93,6.84,6.84,0,0,0,.91,1.86c.3.39.89.54,1.35.8.13-.48.52-1.08.36-1.42-1.3-2.76-2.13-5.82-4.78-7.77a7.94,7.94,0,0,1-2.18-2c-1.64-2.65-4.24-3.57-7-4.44-7.18-2.28-14.57-3.12-22-3.75a62.1,62.1,0,0,0-18.85,1,2.94,2.94,0,0,1-.6.06l-3.18-9.92a8.85,8.85,0,0,0-5-5.61,37.81,37.81,0,0,0-21.62-2.51,9.46,9.46,0,0,0-3.77,1.67A38.4,38.4,0,0,0,445.19,101.59ZM330.58,202.87l-.29.52c-3.91,0-7.83-.16-11.74.05a64.72,64.72,0,0,0-10,1.23c-3.86.81-7.18,2.72-9,6.47-.26.52,0,1.3.08,2,.51-.34,1.21-.56,1.49-1a11,11,0,0,1,5.79-4.9,30.7,30.7,0,0,1,11.1-1.87q8.5,0,17,0c.73,0,1.7.09,1.62-1,0-.34-1-.67-1.54-.91s-1.27-.15-1.64-.5a92.92,92.92,0,0,1-7.9-7.85c-3.7-4.52-4.19-10-4-15.65A23.92,23.92,0,0,1,327,164.89c4-5,9.33-8.1,15.19-10.46.5-.2.81-.88,1.21-1.34a11.49,11.49,0,0,0-1.81-.4,2.34,2.34,0,0,0-1.12.4c-2.91,1.6-5.89,3.1-8.69,4.88a26.22,26.22,0,0,0-11.45,16.15c-.74,2.88-.51,6-.61,9-.2,5.89,2.15,10.84,6,15.11C327.21,199.93,329,201.35,330.58,202.87ZM213.52,174.23a41.43,41.43,0,0,0-4.69-4.75,14.49,14.49,0,0,0-5-2.26c-5.7-1.48-11.47-1.88-17.21-.1-4.24,1.31-6.49,4.74-8.6,8.27-.17.27.16.85.26,1.29a3.94,3.94,0,0,0,1.28-.42,4.43,4.43,0,0,0,.84-1.21c2.15-3.48,4.9-6.26,9.14-6.78,5.22-.64,10.43-.63,15.46,1.3,3,1.13,5.27,2.91,6.41,6,.8,2.15,1.35,2.19,3,.48,3.59-3.81,8.6-3.28,11.28,1.15.23.38.9.5,1.37.75.11-.49.42-1,.31-1.44a7,7,0,0,0-6.8-4.84C217.76,171.73,215.23,172.36,213.52,174.23Zm-16.06,33.59a11.06,11.06,0,0,0,8.86-3.24,8,8,0,0,0,2.72-5c.05-.39-.34-.82-.53-1.23-.41.27-1,.45-1.19.83-.42.71-.54,1.61-1,2.31-2.71,4.24-7.3,5.27-12.22,4.07-.86-.2-1.55-1-2.39-1.37-.59-.25-1.57-.52-1.93-.23-2.36,1.87-5.07,1.75-7.71,1.34-2.91-.45-5.6-1.65-6.88-4.58a8.84,8.84,0,0,1,.73-9.16c.24-.35.09-1,.13-1.45-.5.06-1.14,0-1.45.23a4.63,4.63,0,0,0-1.38,1.89c-1.52,4.85-1.29,10.8,4.69,13.65,3.91,1.86,7.86,2.28,11.89.29a1.35,1.35,0,0,1,1.16.05A10,10,0,0,0,197.46,207.82Zm35-13.25c-2,.13-3.43.19-4.82.32-7.28.65-9.65,9.12-6.74,13.94.42.7.79,2,1.93,1.25s0-1.47-.3-2.18l-.07-.13c-2.13-3.79-.37-10.63,5.57-11a47.84,47.84,0,0,1,6.55-.15c4.32.32,5.46,1.42,6.58,5.58.12.48.76.82,1.16,1.22.22-.53.67-1.09.62-1.59a7.37,7.37,0,0,0-6.38-6.88A41,41,0,0,0,232.49,194.57Zm-89.39,5.3a10.25,10.25,0,0,0-7-5.5,13.53,13.53,0,0,0-4.38.2c-.27,0-.43.88-.64,1.35a5.52,5.52,0,0,0,1.78.19c4.16-.93,8.83,2.74,8.91,7a30.8,30.8,0,0,0,.37,4.3c.07.43.7.75,1.08,1.12a6.75,6.75,0,0,0,.72-1.28c.1-.3-.11-.69-.06-1,.23-1.77-.44-3.61.86-5.3,2.43-3.18,5.33-5.44,9.47-5.81.44,0,.84-.64,1.25-1-.44-.29-.93-.88-1.32-.82a18.54,18.54,0,0,0-4.45,1.07A15,15,0,0,0,143.1,199.87Zm-18.48-10.08c.12-.13.76-.53.71-.79a1.73,1.73,0,0,0-1-1,38.39,38.39,0,0,1-4.83-1.88c-4.26-2.52-5.83-5.62-5-10.33.28-1.65,1-3.23,1.32-4.88a4.49,4.49,0,0,0-.3-1.68c-.47.32-1.22.56-1.36,1a33.46,33.46,0,0,0-1.6,5.73C111.52,182.71,117.6,189.86,124.62,189.79Zm94.75,29.9,0-.2a7.83,7.83,0,0,0,2.22,0,54,54,0,0,0,5.91-2.24c.38-.17.41-1.11.6-1.7a7.82,7.82,0,0,0-1.69.23c-.69.26-1.28.78-2,1.06-3.37,1.37-6.81.89-10.26.32-.61-.1-1.74.06-1.85.37-.37,1.08.68,1.29,1.42,1.42C215.64,219.25,217.51,219.44,219.37,219.69Z"/><path d="M445.19,101.59a38.4,38.4,0,0,1,9.58-9.81,9.46,9.46,0,0,1,3.77-1.67,37.81,37.81,0,0,1,21.62,2.51,8.85,8.85,0,0,1,5,5.61l3.18,9.92a2.94,2.94,0,0,0,.6-.06,62.1,62.1,0,0,1,18.85-1c7.45.63,14.84,1.47,22,3.75,2.75.87,5.35,1.79,7,4.44a7.94,7.94,0,0,0,2.18,2c2.65,2,3.48,5,4.78,7.77.16.34-.23.94-.36,1.42-.46-.26-1-.41-1.35-.8a6.84,6.84,0,0,1-.91-1.86,12.53,12.53,0,0,0-4.33-5.93,3.82,3.82,0,0,1-1.1-1c-1.82-3.13-5-3.81-8.15-4.72-8.92-2.58-18.09-3.34-27.31-3.45a45.18,45.18,0,0,0-10.35,1.15,16.61,16.61,0,0,0-10.56,6.72c-.82,1.21-1,2.86-1.54,4.26a6.58,6.58,0,0,1-1.11,1.45c-.25-.52-.73-1-.71-1.56a10.34,10.34,0,0,1,4.27-8,41.16,41.16,0,0,1,4.73-3.07,1.65,1.65,0,0,0,1-1.77c-.28-3.76-1.76-7.13-3.25-10.49-1-2.26-3.19-3.24-5.37-4a40.79,40.79,0,0,0-16.5-1.83,12,12,0,0,0-7.39,3.51c-2.93,2.78-5.8,5.6-7.6,9.31-.27.57-1,.9-1.57,1.33a7.49,7.49,0,0,1-.88-2c-.65-5.3-1.48-10.62-3.85-15.42-3.18-6.44-8.92-9.63-15.75-11.14a38.59,38.59,0,0,0-25.15,3C394.09,82.33,391,86,388.23,90c-6.59,9.36-6,18.87-.72,28.49,1.2,2.2,2.09,4.67,4.55,6,.27.13.25.83.37,1.26-.44.08-1.06.39-1.3.21a12,12,0,0,1-3.19-2.82c-2.76-4.51-5.21-9.17-6-14.5-.78-5.09-.44-10.07,1.89-14.7,2.47-4.92,5.48-9.52,10-12.86a28.87,28.87,0,0,1,6.1-3.39c9.52-4,19.28-4.51,29-.93,7.5,2.77,12.52,8.12,14.36,16.11C443.86,95.67,444.49,98.52,445.19,101.59Z"/><path d="M330.58,202.87c-1.63-1.52-3.37-2.94-4.86-4.6-3.86-4.27-6.21-9.22-6-15.11.1-3-.13-6.16.61-9A26.22,26.22,0,0,1,331.77,158c2.8-1.78,5.78-3.28,8.69-4.88a2.34,2.34,0,0,1,1.12-.4,11.49,11.49,0,0,1,1.81.4c-.4.46-.71,1.14-1.21,1.34-5.86,2.36-11.22,5.48-15.19,10.46a23.92,23.92,0,0,0-5.44,14.51c-.18,5.68.31,11.13,4,15.65a92.92,92.92,0,0,0,7.9,7.85c.37.35,1.11.28,1.64.5s1.51.57,1.54.91c.08,1.06-.89,1-1.62,1q-8.5,0-17,0a30.7,30.7,0,0,0-11.1,1.87,11,11,0,0,0-5.79,4.9c-.28.48-1,.7-1.49,1,0-.66-.34-1.44-.08-2,1.82-3.75,5.14-5.66,9-6.47a64.72,64.72,0,0,1,10-1.23c3.91-.21,7.83-.05,11.74-.05Z"/><path d="M213.52,174.23c1.71-1.87,4.24-2.5,7-2.55a7,7,0,0,1,6.8,4.84c.11.41-.2.95-.31,1.44-.47-.25-1.14-.37-1.37-.75-2.68-4.43-7.69-5-11.28-1.15-1.61,1.71-2.16,1.67-3-.48-1.14-3.1-3.46-4.88-6.41-6-5-1.93-10.24-1.94-15.46-1.3-4.24.52-7,3.3-9.14,6.78a4.43,4.43,0,0,1-.84,1.21,3.94,3.94,0,0,1-1.28.42c-.1-.44-.43-1-.26-1.29,2.11-3.53,4.36-7,8.6-8.27,5.74-1.78,11.51-1.38,17.21.1a14.49,14.49,0,0,1,5,2.26A41.43,41.43,0,0,1,213.52,174.23Z"/><path d="M197.46,207.82a10,10,0,0,1-6.48-1.6,1.35,1.35,0,0,0-1.16-.05c-4,2-8,1.57-11.89-.29-6-2.85-6.21-8.8-4.69-13.65a4.63,4.63,0,0,1,1.38-1.89c.31-.27.95-.17,1.45-.23,0,.49.11,1.1-.13,1.45a8.84,8.84,0,0,0-.73,9.16c1.28,2.93,4,4.13,6.88,4.58,2.64.41,5.35.53,7.71-1.34.36-.29,1.34,0,1.93.23.84.36,1.53,1.17,2.39,1.37,4.92,1.2,9.51.17,12.22-4.07.44-.7.56-1.6,1-2.31.22-.38.78-.56,1.19-.83.19.41.58.84.53,1.23a8,8,0,0,1-2.72,5A11.06,11.06,0,0,1,197.46,207.82Z"/><path d="M232.49,194.57a41,41,0,0,1,4.1.36,7.37,7.37,0,0,1,6.38,6.88c.05.5-.4,1.06-.62,1.59-.4-.4-1-.74-1.16-1.22-1.12-4.16-2.26-5.26-6.58-5.58a47.84,47.84,0,0,0-6.55.15c-5.94.39-7.7,7.23-5.57,11l.07.13c.32.71,1.35,1.51.3,2.18s-1.51-.55-1.93-1.25c-2.91-4.82-.54-13.29,6.74-13.94C229.06,194.76,230.45,194.7,232.49,194.57Z"/><path d="M143.1,199.87a15,15,0,0,1,6.54-5.48,18.54,18.54,0,0,1,4.45-1.07c.39-.06.88.53,1.32.82-.41.34-.81.94-1.25,1-4.14.37-7,2.63-9.47,5.81-1.3,1.69-.63,3.53-.86,5.3-.05.34.16.73.06,1a6.75,6.75,0,0,1-.72,1.28c-.38-.37-1-.69-1.08-1.12a30.8,30.8,0,0,1-.37-4.3c-.08-4.27-4.75-7.94-8.91-7a5.52,5.52,0,0,1-1.78-.19c.21-.47.37-1.31.64-1.35a13.53,13.53,0,0,1,4.38-.2A10.25,10.25,0,0,1,143.1,199.87Z"/><path d="M124.62,189.79c-7,.07-13.1-7.08-12.08-13.88a33.46,33.46,0,0,1,1.6-5.73c.14-.43.89-.67,1.36-1a4.49,4.49,0,0,1,.3,1.68c-.36,1.65-1,3.23-1.32,4.88-.81,4.71.76,7.81,5,10.33a38.39,38.39,0,0,0,4.83,1.88,1.73,1.73,0,0,1,1,1C125.38,189.26,124.74,189.66,124.62,189.79Z"/><path d="M219.37,219.69c-1.86-.25-3.73-.44-5.58-.77-.74-.13-1.79-.34-1.42-1.42.11-.31,1.24-.47,1.85-.37,3.45.57,6.89,1.05,10.26-.32.68-.28,1.27-.8,2-1.06a7.82,7.82,0,0,1,1.69-.23c-.19.59-.22,1.53-.6,1.7a54,54,0,0,1-5.91,2.24,7.83,7.83,0,0,1-2.22,0Z"/></g></g></g></g></g></svg>