<svg xmlns="http://www.w3.org/2000/svg" viewBox="0 0 391.35 179.46"><defs><style>.cls-1{fill:#fff;}</style></defs><g id="Layer_2" data-name="Layer 2"><g id="Homepage"><g id="Clouds"><g id="Clouds_Left"><g id="_07" data-name="07"><path d="M268.79,156.06c-3.75,4.08-8.32,4.5-13.26,3.12-1.48-.42-2.54-.55-3.66.94-2.5,3.31-6,2.89-9.41,1.86-.76-.22-1.47-.59-2.38-.95-.13.71-.2,1.33-.36,1.93-1.84,7-5.65,12.59-12.56,15.13a19.71,19.71,0,0,1-18.59-2.2,2.51,2.51,0,0,0-2.3-.29,19.13,19.13,0,0,1-5.16.51c-9.31-.47-15.57-5.8-17.66-14.88,0-.24-.11-.48-.17-.71-6.54,2.26-12.52,1.43-17.89-3.26-7.43,6.52-15.78,9.09-25.22,5.35-8.88-3.52-15.31-9.37-16.82-19.53-1.75-.31-3.77-.54-5.72-1.06a7.16,7.16,0,0,1-4.63-3.89c-.37.59-.65,1-.9,1.46a11.84,11.84,0,0,1-8.22,6.18,40.62,40.62,0,0,1-7.11.86c-4.1.12-7.1-2.26-10-4.8a20.35,20.35,0,0,1-5-7.37A9.45,9.45,0,0,1,82,127.3c.38-1.08.85-2.12,1.35-3.36-3.11-.35-6-1-7.83-3.79-5.12,8.16-12,12.93-21.68,10.29-7.36-2-12.6-6.89-14.46-14.77-10,2.17-17.61-1-22.62-10.11a27.7,27.7,0,0,1-5.22.56c-7-.51-10-3.48-11.26-10.53A14.23,14.23,0,0,1,8.85,79.85a16.63,16.63,0,0,1,13.35-.12,1.74,1.74,0,0,0,1.21,0c5.08-2.36,10.2-4.41,16-3.37.13,0,.27-.07.57-.15.26-2.33.41-4.72.8-7.07A30.61,30.61,0,0,1,54.26,48.44c6.1-4.19,12.91-4.55,19.8-2.37,2.3.73,4.32,2.39,6.35,3.56a77.43,77.43,0,0,1,4.89-6.79,22,22,0,0,1,5.24-4.37,34.55,34.55,0,0,1,23-4.75c4.61.66,9.21,1.21,13.61,2.8,2,.7,3.85,1.59,6,2.47-.07-.66-.09-1.33-.21-2-.94-5.09.73-9.41,3.4-13.7,4.42-7.11,11.11-9.91,18.94-10.61,2.94-.27,6,.21,8.93.29a2,2,0,0,0,1.33-.52c4.07-4.24,8.74-7.23,14.88-7.29a4.75,4.75,0,0,0,2-.84C186.7,2,191.12-.23,196.19,0c4,.2,8,.82,12.05,1.31A27.14,27.14,0,0,1,217.9,4.8c3,1.62,5.71,3.5,7.33,6.6a2.28,2.28,0,0,0,2.51,1.27c3.89-.13,7.63.51,10.47,3.47a16.18,16.18,0,0,1,2.87,4.13c1.18,2.5,2.08,5.14,3.22,8,2-4.45,4.31-8.11,9.2-9.42a12.64,12.64,0,0,1,12.37,2.91c3.43-6.12,10.56-7.33,17.28-2.51.78-.64,1.6-1.28,2.39-2,4.16-3.56,8.89-3.95,14.08-2.95,5.47,1.06,8.9,4.27,10.8,9.27.57,1.5.53,3.23.88,4.83.1.45.58,1.14.92,1.16,5,.34,7.34,3.86,9.45,7.69l.09.13c3.45-.53,6.81-1.25,10.21-1.52,8.29-.66,16.29.29,22.63,6.35a23,23,0,0,1,7.56,14.88c.4,4.5.83,9-1.4,13.4a29.27,29.27,0,0,1,4.16-.47,15.81,15.81,0,0,1,5.12.69c3.54,1.38,4.81,4.38,4.51,8-.22,2.52-.79,5-1.23,7.74,5,1.78,4.28,5.63,2.95,9.55,2.4.6,4.76,1.17,7.1,1.79,4.89,1.3,7.35,4.47,7.85,9.53.4,4.1,0,7.89-2.58,11.2-3,3.87-7.24,4.82-11.78,4.54s-8.75-.9-12.86-3a46.65,46.65,0,0,1-2.79,4.42c-3.79,4.73-8.41,8.37-14.77,8-4.61-.24-9.17-1.38-13.73-2.22a22.93,22.93,0,0,1-9.51-4.54c-.86,4.39-3.85,6.48-7.67,7.47a17.2,17.2,0,0,1-4.87.16,1.7,1.7,0,0,0-1.73.77c-.95,1.32-2.07,2.53-3.27,4,1.84,4,1.94,8.52,1.13,13.06a17,17,0,0,1-13.64,13.24c-8,1.19-15.19-1.21-21.73-5.72A21,21,0,0,1,268.79,156.06Zm-17.51,1.7a4.76,4.76,0,0,1-1.07-.91,10.79,10.79,0,0,1-.77-1.69c.62.05,1.4-.12,1.82.2a15.18,15.18,0,0,0,8.18,2.58c3.12.2,6-.66,7.95-3.3a2.33,2.33,0,0,0,.42-1.7,21.42,21.42,0,0,1,1.37-14.74,17.78,17.78,0,0,1,2.44-3.55c.22-.26.94-.12,1.44-.17-.05.49.08,1.12-.18,1.44-3.68,4.52-4.37,9.73-3.51,15.25a9.51,9.51,0,0,0,4.57,7A30.5,30.5,0,0,0,287,162.66a18.31,18.31,0,0,0,7.67-.62c11.25-3.95,12.33-14.86,9.24-23a1.72,1.72,0,0,0-1.21-.71c-2.72-.27-5.49-.22-8.16-.73a13.56,13.56,0,0,1-8.3-4.71c-.29-.36-.17-1-.24-1.58a4.76,4.76,0,0,1,1.65.4c1.06.73,2,1.73,3,2.39,3.14,1.88,6.66,2.26,10.23,2.46a6.36,6.36,0,0,0,6.64-3.82,2.14,2.14,0,0,1,2.88-1.3,9.62,9.62,0,0,0,8.91-2.3,5.58,5.58,0,0,0,1.06-7.18,11.52,11.52,0,0,1-1.28-2.81c-.09-.29.43-.77.67-1.17.37.24.95.4,1.09.73a14.85,14.85,0,0,0,10.21,9.12c3.49,1,7.12,1.52,10.66,2.38a15.72,15.72,0,0,0,15.66-4.42c2-2,3.34-4.54,4.89-6.9.53-.81,1-1.46,2-.86,4,2.31,8.39,2.9,12.82,3.16,4.07.25,7.93-.58,10.39-4.32,2.82-4.27,2.46-8.83.7-13.32a5.23,5.23,0,0,0-2.62-2.72A62.19,62.19,0,0,0,377,98.35c-.89-.21-1.92.34-2.9.45a6.77,6.77,0,0,1-1.47-.17c.1-.53,0-1.33.31-1.56,1.78-1.3,2.09-3.2,2.33-5.15a3,3,0,0,0-2-3.32c-2.45-1.15-2.44-1.17-1.75-3.82a11.3,11.3,0,0,0,.42-1.59,41.64,41.64,0,0,0,.49-6.66c-.17-2.5-2.18-4.14-4.7-4.47a16,16,0,0,0-7.93,1,4.5,4.5,0,0,1-1.63,0,12.29,12.29,0,0,1,.21-1.6A6.43,6.43,0,0,1,359,70.2c2.28-4.59,2-9.48,1.09-14.23-1.5-7.81-5.9-13.71-13.47-16.51-7.75-2.87-15.71-2.25-23.56,0a1.76,1.76,0,0,0-.94,1.07c-.6,2-1.06,4-1.69,6-.13.41-.81.64-1.24,1-.17-.51-.56-1.05-.48-1.51a16,16,0,0,1,.92-2.68,7.45,7.45,0,0,0-2.08-8.67,11.91,11.91,0,0,1-1.37-1.38,4.16,4.16,0,0,0-3.23-1.59c-4-.21-3.34-.22-3.56-3.56-.33-5.05-2.51-9.14-7.25-11-6-2.34-11.84-2.13-16.76,2.89-1.85,1.89-2.06,1.86-4.11.32a10.65,10.65,0,0,0-7.05-2.07,7.1,7.1,0,0,0-6.29,4.17c-1,2.06-1.44,2.14-3.21.8-.6-.45-1.27-.81-1.85-1.28-4.24-3.41-12.12-1.21-14.19,2.45-1.3,2.3-2.44,4.69-3.75,7a21.33,21.33,0,0,0-2.14,7.57c-.08.56-.62,1.48-1,1.49-1.11,0-1-1-.84-1.67.35-2.16.92-4.3,1.19-6.47a11.2,11.2,0,0,0-.12-4.4,59.5,59.5,0,0,0-3-7.64,9.08,9.08,0,0,0-2.05-2.7c-2.79-2.74-6.31-3.23-10-2.91a2.52,2.52,0,0,1-2.8-1.42c-3.08-5.63-8.47-8-14.23-9.57C207,2.84,204,2.74,201,2.22c-6.85-1.22-12.92.68-18.59,4.41a4.29,4.29,0,0,1-1.68.52c-1.76.28-3.66.17-5.28.81C171,9.72,167,12.14,165.3,17.15a59,59,0,0,0-2.38,12.31c-.07.54-.7,1-1.07,1.5-.25-.57-.78-1.18-.71-1.71.47-3.46,1-6.91,1.64-10.33A30.85,30.85,0,0,1,164.05,15c-.58-.13-1.05-.26-1.52-.33a30.36,30.36,0,0,0-17.36,2.71,9.48,9.48,0,0,0-3.51,2.47A64.18,64.18,0,0,0,135.92,28a11.91,11.91,0,0,0-1.29,5.29c-.09,2.32.38,4.66.52,7a6.44,6.44,0,0,1-.41,1.79,11.21,11.21,0,0,1-1.73-.54c-2.24-1.07-4.38-2.39-6.7-3.25a54.57,54.57,0,0,0-18.54-2.94c-7.27-.08-13.61,2.68-19.39,6.89a7.58,7.58,0,0,0-.85.85c-5.37,5.72-7.84,12.8-9.16,20.3-.41,2.37.26,4.92.34,7.39a5,5,0,0,1-.54,1.64c-.43-.43-1.09-.79-1.25-1.3a17.51,17.51,0,0,1-.67-3.52c-.46-4.77,1.1-9.17,2.64-13.55.74-2.09.66-2.26-1.09-3.74-2.74-2.32-6-2.89-9.41-3.43a15.85,15.85,0,0,0-8.24.84C51.25,51.07,46,57.8,43.3,66.65c-.95,3.2-1,6.68-1.39,10-.13,1.25-.56,1.91-1.85,1.66-4.5-.9-8.68.16-12.86,1.76a20,20,0,0,0-10.11,8.69c-.23.38-.81.54-1.23.8-.16-.51-.59-1.14-.43-1.51a11.63,11.63,0,0,1,1.71-2.77c1.14-1.36,2.41-2.6,3.67-3.94a12.6,12.6,0,0,0-11.57.45c-2.51,1.3-4.68,2.82-6,5.55-2.06,4.17-1.47,8.17.21,12.12a7,7,0,0,0,2.74,3.21A11.16,11.16,0,0,0,15,103.85a2,2,0,0,0,1.75-2A6.49,6.49,0,0,1,19,97c.41-.32,1.13-.24,1.71-.34-.14.55-.1,1.3-.45,1.61-2,1.77-2.19,6.37-.74,8.5A16.87,16.87,0,0,0,38,113.91a2.87,2.87,0,0,0,2.38-2,5.88,5.88,0,0,1,1.83-2.67,57.69,57.69,0,0,1,5.75-3.73c.85-.5,1.24.12,1.38,1a9.2,9.2,0,0,0,.56,2.59c1.6,3.32,6.84,4.69,10.2,2.82.44-.24,1.13,0,1.7-.06-.22.54-.33,1.45-.68,1.55-1.77.54-3.66,1.34-5.41,1.17-4-.39-7.11-2.29-8.33-6.59-2.88,1.64-5.57,3.21-5.81,6.91a9.4,9.4,0,0,0,2.26,6.48,22.67,22.67,0,0,0,7.26,6.16,13.59,13.59,0,0,0,9.84,1.64c6-1.55,10.93-4.82,13.2-11.07.17-.47.76-.8,1.15-1.19A5.26,5.26,0,0,1,76.4,118a7.14,7.14,0,0,0,7.77,3.78,6.45,6.45,0,0,1,1.68.13,7.6,7.6,0,0,1-.23,1.81,45.09,45.09,0,0,0-2.17,5.4,7.25,7.25,0,0,0,.12,4.5A26.66,26.66,0,0,0,88,140.28c2.06,2.2,4.5,4.32,7.78,4.34a40.45,40.45,0,0,0,7.84-.76,9.63,9.63,0,0,0,6.71-5.08,11.22,11.22,0,0,1,1.31-2.33,3.71,3.71,0,0,1,2-.94c.24,0,.6.85.93,1.29a10.55,10.55,0,0,0,1.94,2.53c3.25,2.35,8.77,2.14,12-.24.32-.23.87-.13,1.32-.19,0,.5.18,1.18-.08,1.45a9.12,9.12,0,0,1-2.34,1.81c-2.11,1.11-2.14,1.06-1.78,3.42.06.35.14.69.22,1,.72,3,2.85,5.21,4.78,7.49,5.33,6.27,17,11.13,26.21,6.37A50.35,50.35,0,0,0,163.8,156c1.14-.86,2-1,3,0,3,3,6.82,3.76,10.85,3.87a6.51,6.51,0,0,0,4.86-1.55c1.1-1,2.11-2.13,3.18-3.18s1.21-1.71,0-2.78a7.05,7.05,0,0,1-2.58-6c0-.43.62-.84,1-1.26.3.44.83.87.85,1.32a6.88,6.88,0,0,0,1.93,4.42c2.53,2.82,5.7,3.38,9.27,2.84.43-.07.93.28,1.4.43-.29.45-.48,1.09-.88,1.3a3.85,3.85,0,0,1-2,.38,42.49,42.49,0,0,1-5.15-.83c-.75-.17-1.19-.17-1.62.51a7.72,7.72,0,0,1-1.26,1.48,4.22,4.22,0,0,0-1.14,4.13c.9,5.35,6.42,13.26,14.8,13.12a24.41,24.41,0,0,0,5.74-.55,3.47,3.47,0,0,1,3.41.45c5.33,3.87,11.22,4,17.28,2.26,3.45-1,5.59-3.7,7.71-6.38a16.81,16.81,0,0,0,3.63-7.93c.25-1.65.49-3.15-1.25-4.14a.53.53,0,0,1-.28-.35c0-.41-.17-1,0-1.19a1.23,1.23,0,0,1,1.18-.06c.63.39,1.08,1,1.69,1.46a18,18,0,0,0,3.88,2.42C247,161.55,249.28,160.79,251.28,157.76Z"/><path class="cls-1" d="M251.28,157.76c-2,3-4.28,3.79-8.05,2.43a18,18,0,0,1-3.88-2.42c-.61-.42-1.06-1.07-1.69-1.46a1.23,1.23,0,0,0-1.18.06c-.21.21-.07.78,0,1.19a.53.53,0,0,0,.28.35c1.74,1,1.5,2.49,1.25,4.14a16.81,16.81,0,0,1-3.63,7.93c-2.12,2.68-4.26,5.37-7.71,6.38-6.06,1.77-11.95,1.61-17.28-2.26a3.47,3.47,0,0,0-3.41-.45,24.41,24.41,0,0,1-5.74.55c-8.38.14-13.9-7.77-14.8-13.12a4.22,4.22,0,0,1,1.14-4.13,7.72,7.72,0,0,0,1.26-1.48c.43-.68.87-.68,1.62-.51a42.49,42.49,0,0,0,5.15.83,3.85,3.85,0,0,0,2-.38c.4-.21.59-.85.88-1.3-.47-.15-1-.5-1.4-.43-3.57.54-6.74,0-9.27-2.84a6.88,6.88,0,0,1-1.93-4.42c0-.45-.55-.88-.85-1.32-.34.42-.93.83-1,1.26a7.05,7.05,0,0,0,2.58,6c1.25,1.07,1,1.83,0,2.78s-2.08,2.15-3.18,3.18a6.51,6.51,0,0,1-4.86,1.55c-4-.11-7.83-.89-10.85-3.87-1-1-1.86-.81-3,0a50.35,50.35,0,0,1-6.86,4.46c-9.17,4.76-20.88-.1-26.21-6.37-1.93-2.28-4.06-4.44-4.78-7.49-.08-.34-.16-.68-.22-1-.36-2.36-.33-2.31,1.78-3.42a9.12,9.12,0,0,0,2.34-1.81c.26-.27.07-.95.08-1.45-.45.06-1,0-1.32.19-3.27,2.38-8.79,2.59-12,.24a10.55,10.55,0,0,1-1.94-2.53c-.33-.44-.69-1.32-.93-1.29a3.71,3.71,0,0,0-2,.94,11.22,11.22,0,0,0-1.31,2.33,9.63,9.63,0,0,1-6.71,5.08,40.45,40.45,0,0,1-7.84.76c-3.28,0-5.72-2.14-7.78-4.34a26.66,26.66,0,0,1-4.46-6.64,7.25,7.25,0,0,1-.12-4.5,45.09,45.09,0,0,1,2.17-5.4,7.6,7.6,0,0,0,.23-1.81,6.45,6.45,0,0,0-1.68-.13A7.14,7.14,0,0,1,76.4,118a5.26,5.26,0,0,0-1.16-1.2c-.39.39-1,.72-1.15,1.19-2.27,6.25-7.16,9.52-13.2,11.07a13.59,13.59,0,0,1-9.84-1.64,22.67,22.67,0,0,1-7.26-6.16,9.4,9.4,0,0,1-2.26-6.48c.24-3.7,2.93-5.27,5.81-6.91,1.22,4.3,4.36,6.2,8.33,6.59,1.75.17,3.64-.63,5.41-1.17.35-.1.46-1,.68-1.55-.57,0-1.26-.18-1.7.06-3.36,1.87-8.6.5-10.2-2.82a9.2,9.2,0,0,1-.56-2.59c-.14-.83-.53-1.45-1.38-1a57.69,57.69,0,0,0-5.75,3.73,5.88,5.88,0,0,0-1.83,2.67,2.87,2.87,0,0,1-2.38,2,16.87,16.87,0,0,1-18.41-7.17c-1.45-2.13-1.25-6.73.74-8.5.35-.31.31-1.06.45-1.61-.58.1-1.3,0-1.71.34a6.49,6.49,0,0,0-2.29,4.87,2,2,0,0,1-1.75,2,11.16,11.16,0,0,1-8.82-1.13,7,7,0,0,1-2.74-3.21c-1.68-4-2.27-8-.21-12.12,1.34-2.73,3.51-4.25,6-5.55a12.6,12.6,0,0,1,11.57-.45c-1.26,1.34-2.53,2.58-3.67,3.94a11.63,11.63,0,0,0-1.71,2.77c-.16.37.27,1,.43,1.51.42-.26,1-.42,1.23-.8A20,20,0,0,1,27.2,80.12c4.18-1.6,8.36-2.66,12.86-1.76,1.29.25,1.72-.41,1.85-1.66.37-3.37.44-6.85,1.39-10,2.65-8.85,8-15.58,16.85-18.94a15.85,15.85,0,0,1,8.24-.84c3.39.54,6.67,1.11,9.41,3.43C79.55,51.78,79.63,52,78.89,54c-1.54,4.38-3.1,8.78-2.64,13.55a17.51,17.51,0,0,0,.67,3.52c.16.51.82.87,1.25,1.3a5,5,0,0,0,.54-1.64c-.08-2.47-.75-5-.34-7.39,1.32-7.5,3.79-14.58,9.16-20.3a7.58,7.58,0,0,1,.85-.85c5.78-4.21,12.12-7,19.39-6.89a54.57,54.57,0,0,1,18.54,2.94c2.32.86,4.46,2.18,6.7,3.25a11.21,11.21,0,0,0,1.73.54,6.44,6.44,0,0,0,.41-1.79c-.14-2.33-.61-4.67-.52-7A11.91,11.91,0,0,1,135.92,28a64.18,64.18,0,0,1,5.74-8.17,9.48,9.48,0,0,1,3.51-2.47,30.36,30.36,0,0,1,17.36-2.71c.47.07.94.2,1.52.33a30.85,30.85,0,0,0-1.27,3.94c-.64,3.42-1.17,6.87-1.64,10.33-.07.53.46,1.14.71,1.71.37-.5,1-1,1.07-1.5a59,59,0,0,1,2.38-12.31c1.7-5,5.67-7.43,10.16-9.19,1.62-.64,3.52-.53,5.28-.81a4.29,4.29,0,0,0,1.68-.52C188.09,2.9,194.16,1,201,2.22c3,.52,6,.62,8.87,1.4,5.76,1.58,11.15,3.94,14.23,9.57a2.52,2.52,0,0,0,2.8,1.42c3.7-.32,7.22.17,10,2.91a9.08,9.08,0,0,1,2.05,2.7,59.5,59.5,0,0,1,3,7.64,11.2,11.2,0,0,1,.12,4.4c-.27,2.17-.84,4.31-1.19,6.47-.12.69-.27,1.71.84,1.67.35,0,.89-.93,1-1.49a21.33,21.33,0,0,1,2.14-7.57c1.31-2.29,2.45-4.68,3.75-7,2.07-3.66,9.95-5.86,14.19-2.45.58.47,1.25.83,1.85,1.28,1.77,1.34,2.17,1.26,3.21-.8a7.1,7.1,0,0,1,6.29-4.17,10.65,10.65,0,0,1,7.05,2.07c2,1.54,2.26,1.57,4.11-.32,4.92-5,10.78-5.23,16.76-2.89,4.74,1.85,6.92,5.94,7.25,11,.22,3.34-.44,3.35,3.56,3.56a4.16,4.16,0,0,1,3.23,1.59,11.91,11.91,0,0,0,1.37,1.38,7.45,7.45,0,0,1,2.08,8.67,16,16,0,0,0-.92,2.68c-.08.46.31,1,.48,1.51.43-.32,1.11-.55,1.24-1,.63-2,1.09-4,1.69-6a1.76,1.76,0,0,1,.94-1.07c7.85-2.21,15.81-2.83,23.56,0,7.57,2.8,12,8.7,13.47,16.51.92,4.75,1.19,9.64-1.09,14.23a6.43,6.43,0,0,0-.53,1.24,12.29,12.29,0,0,0-.21,1.6,4.5,4.5,0,0,0,1.63,0,16,16,0,0,1,7.93-1c2.52.33,4.53,2,4.7,4.47a41.64,41.64,0,0,1-.49,6.66,11.3,11.3,0,0,1-.42,1.59c-.69,2.65-.7,2.67,1.75,3.82a3,3,0,0,1,2,3.32c-.24,2-.55,3.85-2.33,5.15-.31.23-.21,1-.31,1.56a6.77,6.77,0,0,0,1.47.17c1-.11,2-.66,2.9-.45a62.19,62.19,0,0,1,8.57,2.48,5.23,5.23,0,0,1,2.62,2.72c1.76,4.49,2.12,9-.7,13.32-2.46,3.74-6.32,4.57-10.39,4.32-4.43-.26-8.86-.85-12.82-3.16-1-.6-1.45,0-2,.86-1.55,2.36-2.93,4.92-4.89,6.9a15.72,15.72,0,0,1-15.66,4.42c-3.54-.86-7.17-1.37-10.66-2.38a14.85,14.85,0,0,1-10.21-9.12c-.14-.33-.72-.49-1.09-.73-.24.4-.76.88-.67,1.17a11.52,11.52,0,0,0,1.28,2.81,5.58,5.58,0,0,1-1.06,7.18,9.62,9.62,0,0,1-8.91,2.3,2.14,2.14,0,0,0-2.88,1.3,6.36,6.36,0,0,1-6.64,3.82c-3.57-.2-7.09-.58-10.23-2.46-1.09-.66-2-1.66-3-2.39a4.76,4.76,0,0,0-1.65-.4c.07.53-.05,1.22.24,1.58a13.56,13.56,0,0,0,8.3,4.71c2.67.51,5.44.46,8.16.73a1.72,1.72,0,0,1,1.21.71c3.09,8.14,2,19.05-9.24,23a18.31,18.31,0,0,1-7.67.62,30.5,30.5,0,0,1-13.06-4.46,9.51,9.51,0,0,1-4.57-7c-.86-5.52-.17-10.73,3.51-15.25.26-.32.13-.95.18-1.44-.5.05-1.22-.09-1.44.17a17.78,17.78,0,0,0-2.44,3.55,21.42,21.42,0,0,0-1.37,14.74,2.33,2.33,0,0,1-.42,1.7c-2,2.64-4.83,3.5-7.95,3.3a15.18,15.18,0,0,1-8.18-2.58c-.42-.32-1.2-.15-1.82-.2a10.79,10.79,0,0,0,.77,1.69A4.76,4.76,0,0,0,251.28,157.76Zm8.6-40.17c2,1.07,3.88,2.25,5.89,3.08a63.56,63.56,0,0,0,6.29,1.93c8.77,2.51,16.86,1.53,24-4.62a2.3,2.3,0,0,1,1.07-.47c3.38-.63,5.82-2.72,8-5.15,2.86-3.1,3.82-6.93,4.18-11,0-.4-.45-.85-.7-1.28-.38.37-.94.68-1.1,1.13a17.72,17.72,0,0,0-.39,2.35c-1.32,6.43-4.82,10.82-11.48,12.29a3.31,3.31,0,0,0-1.33.83c-4.13,3.68-8.93,5.65-14.46,5.15a51,51,0,0,1-9.79-1.9,69.67,69.67,0,0,1-7.94-3.36c-1-.46-1.13-1.19-1-2.3a70.23,70.23,0,0,0,.55-7.54c0-.51-.64-1-1-1.55a6,6,0,0,0-.83,1.79c-.24,2.21-.08,4.49-.57,6.63a8.4,8.4,0,0,1-2.37,4.16,66.12,66.12,0,0,1-6.34,4.4,16.83,16.83,0,0,0-2.69,2.21c-1.53,1.64-2.78,3.57-4.44,5-5,4.44-11.17,6.87-17.37,9.11a21,21,0,0,1-4.23.92c-4.75.66-9.46,0-14.18-.51-8.79-.92-15.16-5.47-19.51-13-1.69-2.91-3.4-5.88-3.85-9.35-.06-.46-.75-.84-1.14-1.25-.23.53-.7,1.09-.63,1.59a13.28,13.28,0,0,0,.91,3.75c1.76,4,3.64,7.85,6.58,11.16,3.42,3.83,7.38,6.8,12.42,7.88a104.22,104.22,0,0,0,12.43,1.79,30.17,30.17,0,0,0,12.85-1.49c2.15-.77,4.23-1.77,6.33-2.68,6.14-2.67,11.61-6.21,15.39-11.93a3.14,3.14,0,0,1,1.26-1.22A23.74,23.74,0,0,0,259.88,117.59ZM108.1,132.52a7.74,7.74,0,0,1,1.19.14c6,1.62,11.34-2.78,13.63-6.52.42-.69,1.56-1.68.3-2.4-1.1-.63-1.39.71-1.88,1.39-2.65,3.62-5.75,6.49-10.68,5.81a85.37,85.37,0,0,1-8.8-1.7c-6.28-1.57-9.78-6.15-9.74-12.6,0-1.26-.46-1.73-1.7-1.92-3-.44-5.9-.94-8.81-1.61A11.94,11.94,0,0,1,73,106.54a6.18,6.18,0,0,1-.2-5.76c.72-1.36.41-2.15-.93-2.88-1.59-.87-2.82-2.17-2.69-4.16a9.48,9.48,0,0,1,2.37-6.16c.3-.33.24-1,.35-1.53-.57.09-1.32,0-1.7.31a8.65,8.65,0,0,0,.07,12.85,1.53,1.53,0,0,1,.51,1.29,11.35,11.35,0,0,0,5.72,12.62,33.06,33.06,0,0,0,12,3.35c1.21.12,1.62.46,1.73,1.76a13.16,13.16,0,0,0,7.24,11.29A30.25,30.25,0,0,0,108.1,132.52Zm53.27-47.2c-.24,2.15-.92,4.19-.58,6,1.19,6.44,5.93,10.61,13,11.8a13.75,13.75,0,0,0,3.57,0c.39,0,.71-.74,1.07-1.14a4.68,4.68,0,0,0-1.33-.65c-1-.13-2.1,0-3.12-.16-4.69-.8-8.4-3-10.56-7.44a8,8,0,0,1-.56-6.24c.27-.82.65-1,1.55-.81a35.16,35.16,0,0,0,5,1,8.88,8.88,0,0,0,3.07-.31c.36-.09.56-.79.82-1.21A5.12,5.12,0,0,0,172,85.7c-.53,0-1.08.27-1.61.23-4.85-.37-9.19-1.86-12.25-5.92-3.71-4.92-4.65-13,.62-18.1,1.59-1.55,3.85-2.39,5.75-3.63.42-.27.64-.85,1-1.29-.51-.16-1.11-.58-1.51-.44a17.08,17.08,0,0,0-6.72,4.05c-5,5.29-4.93,12.82-2,18.39A14.4,14.4,0,0,0,161.37,85.32Zm.51,31.9c4.75,4.26,10.14,6.31,16.51,5.59-.52-.64-1.14-1.46-1.78-1.48a20.87,20.87,0,0,1-13.55-5.57c-1.67-1.49-2.53-1.21-3.19.92-1.05,3.38-3.38,5.84-5.93,8.09a10.68,10.68,0,0,1-9.76,2.49c-1.12-.24-2.23-.54-3.37-.67a4.78,4.78,0,0,0-1.56.37c.33.47.61,1.28,1,1.35a45.78,45.78,0,0,0,8,.9,11,11,0,0,0,4.85-1.63C157.15,125.27,159.86,121.68,161.88,117.22Z"/><path d="M259.88,117.59a23.74,23.74,0,0,1-9.15,6.66,3.14,3.14,0,0,0-1.26,1.22c-3.78,5.72-9.25,9.26-15.39,11.93-2.1.91-4.18,1.91-6.33,2.68a30.17,30.17,0,0,1-12.85,1.49,104.22,104.22,0,0,1-12.43-1.79c-5-1.08-9-4.05-12.42-7.88-2.94-3.31-4.82-7.19-6.58-11.16a13.28,13.28,0,0,1-.91-3.75c-.07-.5.4-1.06.63-1.59.39.41,1.08.79,1.14,1.25.45,3.47,2.16,6.44,3.85,9.35,4.35,7.49,10.72,12,19.51,13,4.72.49,9.43,1.17,14.18.51a21,21,0,0,0,4.23-.92c6.2-2.24,12.34-4.67,17.37-9.11,1.66-1.47,2.91-3.4,4.44-5a16.83,16.83,0,0,1,2.69-2.21,66.12,66.12,0,0,0,6.34-4.4,8.4,8.4,0,0,0,2.37-4.16c.49-2.14.33-4.42.57-6.63a6,6,0,0,1,.83-1.79c.35.52,1,1,1,1.55a70.23,70.23,0,0,1-.55,7.54c-.16,1.11,0,1.84,1,2.3a69.67,69.67,0,0,0,7.94,3.36,51,51,0,0,0,9.79,1.9c5.53.5,10.33-1.47,14.46-5.15a3.31,3.31,0,0,1,1.33-.83c6.66-1.47,10.16-5.86,11.48-12.29a17.72,17.72,0,0,1,.39-2.35c.16-.45.72-.76,1.1-1.13.25.43.74.88.7,1.28-.36,4-1.32,7.87-4.18,11-2.22,2.43-4.66,4.52-8,5.15A2.3,2.3,0,0,0,296,118c-7.1,6.15-15.19,7.13-24,4.62a63.56,63.56,0,0,1-6.29-1.93C263.76,119.84,261.89,118.66,259.88,117.59Z"/><path d="M108.1,132.52a30.25,30.25,0,0,1-10.59-3,13.16,13.16,0,0,1-7.24-11.29c-.11-1.3-.52-1.64-1.73-1.76a33.06,33.06,0,0,1-12-3.35,11.35,11.35,0,0,1-5.72-12.62,1.53,1.53,0,0,0-.51-1.29,8.65,8.65,0,0,1-.07-12.85c.38-.33,1.13-.22,1.7-.31-.11.52-.05,1.2-.35,1.53a9.48,9.48,0,0,0-2.37,6.16c-.13,2,1.1,3.29,2.69,4.16,1.34.73,1.65,1.52.93,2.88a6.18,6.18,0,0,0,.2,5.76,11.94,11.94,0,0,0,8.61,6.57c2.91.67,5.86,1.17,8.81,1.61,1.24.19,1.71.66,1.7,1.92,0,6.45,3.46,11,9.74,12.6a85.37,85.37,0,0,0,8.8,1.7c4.93.68,8-2.19,10.68-5.81.49-.68.78-2,1.88-1.39,1.26.72.12,1.71-.3,2.4-2.29,3.74-7.64,8.14-13.63,6.52A7.74,7.74,0,0,0,108.1,132.52Z"/><path d="M161.37,85.32A14.4,14.4,0,0,1,155.21,79c-2.94-5.57-3-13.1,2-18.39a17.08,17.08,0,0,1,6.72-4.05c.4-.14,1,.28,1.51.44-.31.44-.53,1-1,1.29-1.9,1.24-4.16,2.08-5.75,3.63-5.27,5.11-4.33,13.18-.62,18.1,3.06,4.06,7.4,5.55,12.25,5.92.53,0,1.08-.26,1.61-.23a5.12,5.12,0,0,1,1.36.51c-.26.42-.46,1.12-.82,1.21a8.88,8.88,0,0,1-3.07.31,35.16,35.16,0,0,1-5-1c-.9-.24-1.28,0-1.55.81a8,8,0,0,0,.56,6.24c2.16,4.41,5.87,6.64,10.56,7.44,1,.17,2.09,0,3.12.16a4.68,4.68,0,0,1,1.33.65c-.36.4-.68,1.09-1.07,1.14a13.75,13.75,0,0,1-3.57,0c-7.11-1.19-11.85-5.36-13-11.8C160.45,89.51,161.13,87.47,161.37,85.32Z"/><path d="M161.88,117.22c-2,4.46-4.73,8-8.81,10.36a11,11,0,0,1-4.85,1.63,45.78,45.78,0,0,1-8-.9c-.4-.07-.68-.88-1-1.35a4.78,4.78,0,0,1,1.56-.37c1.14.13,2.25.43,3.37.67a10.68,10.68,0,0,0,9.76-2.49c2.55-2.25,4.88-4.71,5.93-8.09.66-2.13,1.52-2.41,3.19-.92a20.87,20.87,0,0,0,13.55,5.57c.64,0,1.26.84,1.78,1.48C172,123.53,166.63,121.48,161.88,117.22Z"/></g></g></g></g></g></svg>