<?xml version="1.0" encoding="utf-8"?>
<!-- Generator: Adobe Illustrator 21.1.0, SVG Export Plug-In . SVG Version: 6.00 Build 0)  -->
<svg version="1.1" id="Layer_1" xmlns="http://www.w3.org/2000/svg" xmlns:xlink="http://www.w3.org/1999/xlink" x="0px" y="0px"
	 viewBox="0 0 200 200" style="enable-background:new 0 0 200 200;" xml:space="preserve">
<style type="text/css">
	.st0{fill:#FFFFFF;}
</style>
<title>facebook</title>
<g id="Layer_2">
	<g id="Layer_1-2">
		<path class="st0" d="M174.3,28.7v30.2c-6,0-11.7-0.1-17.3,0c-4.2,0.1-7.9,1.7-8.3,6.3c-0.5,6.5-0.1,13.1-0.1,20H175l-3.3,29.6
			h-23.4V200c8,0,15.6,0,23.2,0c16.9-0.1,28.5-11.7,28.5-28.7c0-47.8,0-95.6,0-143.5C200,12,188,0,172.3,0c-48,0-96,0-144,0
			C11.7,0,0,11.8,0,28.4C0,76.2,0,124,0,171.8C0,188.2,12,200,28.5,200h84.3v-85.5H96.2V84.8H113c0-7.7-0.1-14.8,0-22
			c0.4-17.4,9.2-29.8,24.8-32.2C149.7,28.8,161.9,29.3,174.3,28.7z"/>
	</g>
</g>
</svg>
