<?xml version="1.0" encoding="utf-8"?>
<!-- Generator: Adobe Illustrator 24.1.0, SVG Export Plug-In . SVG Version: 6.00 Build 0)  -->
<svg version="1.1" id="Layer_1" xmlns="http://www.w3.org/2000/svg" xmlns:xlink="http://www.w3.org/1999/xlink" x="0px" y="0px"
	 viewBox="0 0 1296.3 734.5" style="enable-background:new 0 0 1296.3 734.5;" xml:space="preserve">
<style type="text/css">
	.st0{fill:#FFFFFF;}
</style>
<g id="Layer_2_1_">
	<g id="Layer_1-2">
		<path class="st0" d="M637.9,331.6h-16c-2.4-11.9-4.1-23.8-7.1-35.3c-17.9-67.8-59.5-116.7-122.3-146.5
			c-67.3-32-137.7-39.8-208.7-14.4c-87.8,31.4-140.4,94.3-156.5,186.4c-8.9,50.9-4.7,101.2,15.6,149c30.6,72,85.3,117.2,160.1,137.4
			c62,16.8,122.7,11.2,179.6-19.9c43.2-23.7,72.3-59.2,84.2-107.7c3.4-14,5.1-28.2,3.9-42.6c-1.5-17.9-10.6-31.2-25.6-40.7
			c-14.8-9.4-31.3-13.8-48.3-16.8c-33.3-5.8-67-5.9-100.6-6h-6.6v-17.5h459.7v17.5c-1.8,0-3.8-0.1-5.7,0c-26.6,1-53.3,1.5-79.9,3.2
			c-19.6,1.2-39,5.1-57.2,12.8c-16.6,7.1-30.7,17.2-36.2,35.5c-1.9,6.4-2.8,13-2.8,19.6c-0.2,58.2-0.1,116.3-0.1,174.5v6.1h-16.7
			c-1.2-10.6-7.1-18.5-15.3-25c-11-8.7-23.7-13.2-37.6-14.8c-16.3-1.8-31.7,2.4-46.9,7.6c-25.5,8.6-50.8,18.2-76.8,25.1
			c-46.9,12.5-94.9,15.1-143.3,12.5c-55.2-3-108.5-14.5-159.4-36.1c-42.6-18.1-81.1-42.5-112.6-76.9C15.9,471.8-3.5,416.5,0.5,353.3
			c3.9-60.6,30.9-110.2,75.5-150.5c40.6-36.7,88.4-60.2,140.3-75.9c57.1-17.3,115.6-24.4,175.2-20.2c41.1,2.9,80.1,14.2,118,30.1
			c15.5,6.5,31,13.2,47.1,17.8c26.8,7.8,51.7-4.1,61-27.9c2.1-5.3,2.9-11.2,4.4-17.1h15.8L637.9,331.6z"/>
		<path class="st0" d="M1014,428.2c-4.7,12.3-8.9,23.2-13.2,34.1c-4.6,11.8-9.5,23.5-14,35.3c-2.9,7.6-5.4,15.4-8.1,23.1
			c-4,11.2-8.2,22.2-12,33.4c-2.8,8.3-5.1,16.8-7.9,25.2c-2.9,8.7-6.1,17.3-9.1,25.9c-2.8,8-5.3,16.1-8.2,24.1
			c-3.8,10.3-7.7,20.6-11.8,30.8c-4,9.9-8.1,19.8-12.9,29.4c-4.2,8.5-9,16.5-16.6,22.8c-13.5,11.1-26.6,6.7-35-4.5
			c-5-6.7-7.8-14.9-8-23.3c-0.6-13.1,1-26.2,4.7-38.7c3.7-12.2,6.6-24.7,10.7-36.7c4.2-12.4,9.4-24.5,14.1-36.8
			c4.4-11.5,8.4-23.2,12.9-34.6s9.6-22.8,14.1-34.2c3.8-9.7,7-19.6,10.8-29.3c4.5-11.6,9.5-23.1,14-34.7c2.8-7.3,5.2-14.7,7.9-22.1
			c2.8-7.6,5.7-15.2,8.5-22.9c3.9-10.5,7.5-21.2,11.5-31.7c2.9-7.6,6.2-15,9.1-22.5s5.2-15.1,8-22.5c3.9-10.5,8.1-20.9,12-31.4
			c2.8-7.5,5.2-15.1,8-22.6c2.6-7,5.3-14,8.1-21c3-7.5,6-15,9-22.5c3.9-9.6,8-19.1,11.9-28.7c2.7-6.5,5.1-13.1,7.7-19.6
			c4.4-10.8,8.8-21.6,13.4-32.4c4.5-10.4,9.2-20.7,14-31c6.3-13.7,12.7-27.3,19-40.9c4.4-9.6,8.2-19.4,13.2-28.7
			c7.7-14.4,18.9-26.6,32.6-35.4c15.3-9.9,30.1,2.5,32,15.7c2,13.5-0.6,26-4.8,38.6c-2.8,8.4-5.1,16.9-8,25.2
			c-3.7,10.6-7.9,21-11.8,31.5c-2.7,7.2-5.2,14.4-7.8,21.6c-2.8,7.8-5.6,15.7-8.5,23.4c-3.8,9.8-7.7,19.6-11.6,29.4
			c-2.6,6.5-5.3,12.9-7.9,19.4c-3.1,7.5-6.1,15-9.2,22.5c-4.6,11.3-9.3,22.5-13.8,33.8c-1,2.6-1.8,5.3-3,9c4.1-2.8,7.7-4.9,11-7.5
			c17.9-14.5,35.7-29.2,53.5-43.8c17.4-14.1,34.7-28.3,52.3-42.2c16.4-13,32.8-26.1,49.6-38.6c8.4-6.2,17.5-11.5,26.5-16.7
			c7.9-4.5,19.9-1.6,23.5,6.4c2.7,6.2,2.5,13.2-0.5,19.2c-9,18.6-23.5,33-37.9,47.3c-17.3,17.1-35,33.9-53.1,50.3
			c-13.3,12-27.6,22.9-41.1,34.7c-18.6,16.2-36.8,32.8-55.3,49.1c-17.9,15.8-36,31.3-54,46.9c-3.4,3-7.2,5.6-10.4,8.8
			c-0.9,0.9-1.3,3.7-0.7,4.7c5.3,8.1,11.1,15.7,16.3,23.9c6.9,10.9,13.2,22,19.8,33.1c8,13.5,16.5,26.7,24.1,40.4
			c11.1,19.9,21.7,40.1,32.2,60.4c7,13.5,13.8,27.2,20,41c6.4,14.3,12.1,29,17.9,43.5c4.9,12.2,9.7,24.5,14.2,36.9
			c3.6,9.8,7.4,19.5,9.8,29.6c1.8,7.7,4,15.7,0.6,23.8c-2.1,5.2-10.4,10.2-17.3,9.6c-8.5-0.7-14.2-6.2-19-12
			c-13.5-16.5-23.4-35.2-33-54c-6.2-12.2-12.9-24.1-19.1-36.3c-6.2-12.4-11.9-25.1-18-37.7c-4.6-9.7-9.5-19.2-14-28.9
			c-4.6-10-8.7-20.1-13.2-30.1c-7.2-16.2-14.4-32.4-21.6-48.6c-6-13.5-12.1-26.9-18.2-40.3C1020.3,440.9,1017.5,435.4,1014,428.2z"
			/>
	</g>
</g>
</svg>
