<svg xmlns="http://www.w3.org/2000/svg" viewBox="0 0 1296.35 734.53"><g id="Layer_2" data-name="Layer 2"><g id="Layer_1-2" data-name="Layer 1"><path d="M637.88,331.56h-16c-2.37-11.91-4.1-23.77-7.14-35.28-17.93-67.83-59.51-116.66-122.34-146.48-67.33-32-137.66-39.84-208.69-14.4-87.78,31.43-140.41,94.32-156.47,186.45-8.87,50.93-4.72,101.18,15.63,149,30.59,72,85.28,117.23,160.06,137.43,62,16.76,122.74,11.24,179.64-19.9,43.2-23.65,72.3-59.24,84.17-107.74,3.41-14,5.1-28.2,3.9-42.61-1.49-17.94-10.6-31.2-25.57-40.69-14.77-9.36-31.31-13.78-48.27-16.75-33.31-5.82-67-5.94-100.65-6h-6.65v-17.5H849.22v17.5c-1.85,0-3.79-.06-5.73,0-26.63,1-53.29,1.47-79.88,3.17-19.64,1.25-39,5.06-57.25,12.84-16.64,7.09-30.66,17.22-36.19,35.46a69.71,69.71,0,0,0-2.81,19.65c-.21,58.16-.12,116.33-.12,174.49v6.13H650.51c-1.15-10.59-7.1-18.53-15.31-25-11-8.66-23.74-13.23-37.6-14.79-16.35-1.85-31.66,2.42-46.91,7.58-25.52,8.63-50.8,18.22-76.79,25.12C427,631.71,379,634.38,330.61,631.73c-55.17-3-108.46-14.49-159.39-36.14-42.63-18.12-81.12-42.46-112.56-76.94C15.93,471.79-3.55,416.47.53,353.3c3.91-60.63,30.91-110.17,75.53-150.51,40.57-36.66,88.43-60.17,140.32-75.87,57.14-17.29,115.59-24.4,175.22-20.15,41.1,2.92,80.12,14.23,118,30.15,15.46,6.5,31,13.16,47.07,17.84,26.78,7.8,51.68-4.08,61-27.89,2.09-5.33,2.93-11.15,4.43-17.06h15.77Z"/><path d="M1014,428.21c-4.74,12.32-8.88,23.24-13.15,34.11-4.62,11.78-9.48,23.46-14,35.28-2.92,7.61-5.37,15.39-8.11,23.06-4,11.15-8.19,22.23-12,33.43-2.85,8.31-5.11,16.82-7.87,25.17-2.87,8.68-6.08,17.26-9.06,25.91-2.78,8-5.3,16.14-8.22,24.12-3.77,10.33-7.65,20.64-11.81,30.83-4,9.9-8.12,19.81-12.87,29.38-4.2,8.46-9,16.54-16.61,22.8-13.54,11.12-26.62,6.71-35-4.48a40.37,40.37,0,0,1-8-23.28A117.44,117.44,0,0,1,862,645.8c3.7-12.2,6.64-24.65,10.72-36.71,4.2-12.44,9.44-24.53,14.1-36.82,4.38-11.52,8.43-23.16,12.93-34.63s9.56-22.75,14.07-34.23c3.8-9.69,7-19.6,10.79-29.29,4.53-11.63,9.5-23.08,14.05-34.7,2.84-7.28,5.21-14.74,7.89-22.08,2.78-7.65,5.73-15.24,8.52-22.89,3.86-10.54,7.52-21.16,11.48-31.66,2.86-7.58,6.2-15,9.07-22.55s5.19-15.08,8-22.55c3.91-10.5,8.1-20.9,12-31.4,2.79-7.48,5.22-15.09,8-22.58,2.58-7,5.34-14,8.09-21q4.46-11.27,9-22.47c3.93-9.59,8-19.14,11.88-28.73,2.65-6.5,5.08-13.08,7.73-19.58,4.4-10.81,8.76-21.64,13.39-32.36,4.49-10.4,9.23-20.7,14-31,6.29-13.66,12.73-27.26,19-40.92,4.41-9.56,8.21-19.44,13.19-28.68a95.53,95.53,0,0,1,32.62-35.43c15.27-9.88,30.12,2.52,32,15.73,2,13.47-.61,26.05-4.8,38.62-2.78,8.37-5.11,16.9-8,25.23-3.72,10.56-7.86,21-11.76,31.47-2.66,7.18-5.21,14.4-7.81,21.6-2.83,7.81-5.57,15.66-8.54,23.42-3.75,9.84-7.67,19.62-11.57,29.41-2.59,6.49-5.29,12.94-7.93,19.41-3.07,7.5-6.11,15-9.19,22.51-4.61,11.26-9.28,22.5-13.84,33.78-1,2.57-1.77,5.27-3,9,4.12-2.8,7.74-4.9,11-7.5,17.9-14.54,35.66-29.24,53.54-43.8,17.37-14.15,34.74-28.29,52.27-42.24,16.39-13,32.79-26.09,49.59-38.6,8.36-6.22,17.46-11.53,26.51-16.74,7.89-4.53,19.86-1.59,23.54,6.38a22.81,22.81,0,0,1-.52,19.25c-9,18.62-23.47,33-37.88,47.29q-26,25.71-53.12,50.3c-13.29,12-27.61,22.88-41.13,34.65-18.61,16.19-36.82,32.84-55.34,49.14-17.89,15.75-36,31.32-54,46.93-3.43,3-7.17,5.61-10.4,8.78-.93.92-1.35,3.66-.68,4.69,5.26,8.06,11.14,15.73,16.27,23.86,6.86,10.86,13.22,22,19.81,33.07,8,13.46,16.47,26.7,24.07,40.41,11.07,19.94,21.72,40.11,32.21,60.36,7,13.5,13.76,27.15,20,41,6.4,14.31,12.09,29,17.91,43.52,4.88,12.24,9.66,24.53,14.19,36.91,3.58,9.77,7.41,19.54,9.81,29.62,1.83,7.66,4,15.65.63,23.82-2.13,5.24-10.43,10.19-17.32,9.61-8.52-.72-14.18-6.15-19-12-13.48-16.46-23.37-35.2-33-54-6.25-12.16-12.93-24.09-19.05-36.31-6.22-12.43-11.95-25.11-18-37.65-4.63-9.65-9.51-19.18-14-28.9-4.58-10-8.74-20.11-13.17-30.13q-10.74-24.31-21.61-48.57-9-20.19-18.22-40.32C1020.34,440.88,1017.49,435.35,1014,428.21Z"/></g></g></svg>