<svg xmlns="http://www.w3.org/2000/svg" viewBox="0 0 1000 163.75"><g id="Layer_2" data-name="Layer 2"><g id="Layer_1-2" data-name="Layer 1"><path d="M377.4,154.39v-3.76c.76,0,1.54,0,2.32-.08,6.23-.3,12.48-.47,18.69-1a32.24,32.24,0,0,0,11.79-3.12c3.39-1.67,6.08-4,7.05-7.86a17.24,17.24,0,0,0,.48-4.18c0-25.11,0-50.22,0-75.33,0-5.7-2.62-9.58-7.64-12A37.53,37.53,0,0,0,398.56,44a138.87,138.87,0,0,0-18.69-.92h-2.5V39.22c.73,0,1.38-.11,2-.11,34.27,0,68.54-.06,102.81,0,13.22,0,26.24,1.69,38.77,6.17,10.68,3.82,20.17,9.49,27.49,18.31,9.23,11.13,13.26,24,11.68,38.35-1.54,14-8.39,25.36-19.13,34.37-8.88,7.47-19.26,11.9-30.43,14.66a130.69,130.69,0,0,1-31.4,3.38q-49.72,0-99.47,0Zm63.65-4.9c.51,0,.95.1,1.38.1,10.48,0,21,.07,31.45-.05A75.37,75.37,0,0,0,492.83,147c11.44-3.1,21.3-8.77,28.58-18.27a51.7,51.7,0,0,0,10.35-41.13c-3-18.59-13.14-31.65-30.7-38.73A72.48,72.48,0,0,0,474.25,44c-10.41-.07-20.82,0-31.23,0-.58,0-1.15,0-2,.1Z"/><path d="M741,39.19h3.44V88.4H740.9c-.19-1.1-.36-2.26-.58-3.41-2.4-12.44-9.1-22.11-19.17-29.56a68.81,68.81,0,0,0-28-12.08,87.85,87.85,0,0,0-39.76,1.16,40.75,40.75,0,0,0-8.83,3.6,24.68,24.68,0,0,0-5.73,4.52,13.8,13.8,0,0,0-3.8,9.95,11.61,11.61,0,0,0,4.47,9.32,27.15,27.15,0,0,0,8.6,4.59,89.75,89.75,0,0,0,17.33,4c11,1.56,22.09,2.93,33.12,4.51,10.31,1.48,20.52,3.39,30.31,7.09A48,48,0,0,1,743,100c9.34,7.82,12.37,17.87,10,29.59-1.25,6.09-5,10.71-9.88,14.38-5.77,4.29-12.36,6.75-19.28,8.36a128.9,128.9,0,0,1-38.33,2.79c-12.45-.85-24.44-4-36.37-7.45-4.56-1.31-9.17-2.52-13.81-3.49a10.78,10.78,0,0,0-13.1,9.49,3.26,3.26,0,0,1-.21.56h-3.52V105h3.61c.3,1.54.53,3,.87,4.43,2.44,10.45,8.49,18.51,16.76,25.06,8.94,7.08,19.16,11.56,30.13,14.42a95.55,95.55,0,0,0,45.26.7,41.67,41.67,0,0,0,11-4.07,23.45,23.45,0,0,0,6.31-4.9c4.9-5.44,5.76-15.43-2.51-21-4.33-2.92-9.2-4.45-14.2-5.65a191.6,191.6,0,0,0-23.1-3.61c-12.48-1.43-25-2.49-37.34-4.91a92.57,92.57,0,0,1-19.61-5.78,40.89,40.89,0,0,1-12.26-8c-8.48-8.21-11.76-24.75-.73-36.2a47.48,47.48,0,0,1,16-10.65,84,84,0,0,1,23-5.82,107.07,107.07,0,0,1,49,5.14c4.44,1.47,8.85,3,13.31,4.44a15.66,15.66,0,0,0,7.89.85A10.54,10.54,0,0,0,740.62,41C740.75,40.41,740.88,39.83,741,39.19Z"/><path d="M287.06,155.7a111.35,111.35,0,0,1-43.56-7.85,76.05,76.05,0,0,1-22.89-14c-8.52-7.72-14.37-17-16.2-28.49C201.86,89.51,206,75.51,217,63.65c7.19-7.78,16-13.21,25.7-17.26a105.26,105.26,0,0,1,33.25-7.8,136.86,136.86,0,0,1,27.82.53c17,2.23,32.85,7.5,46.45,18.31,8.46,6.73,14.89,15,17.74,25.58,4.84,17.83,1.18,33.82-11.38,47.55-7.2,7.87-16.13,13.27-25.93,17.28a108.62,108.62,0,0,1-40.88,7.86C288.85,155.71,288,155.7,287.06,155.7Zm-.8-114A48.78,48.78,0,0,0,273,43.13c-17.26,4.35-30.07,14.24-37.26,30.71-4.54,10.4-5.53,21.37-3.79,32.54,2.92,18.88,13,32.54,30.33,40.69,12.21,5.75,25.13,6.74,38.13,3.8,18.44-4.18,31.56-15.07,38.45-32.86,3.92-10.13,4.56-20.69,2.84-31.37-2.19-13.53-8.43-24.8-19.29-33.31C312,45.24,300.21,41.48,286.26,41.7Z"/><path d="M148.9,154.21h-3.65c-.76-3.46-3.13-5.68-6.26-7.18a16.57,16.57,0,0,0-11.73-1.18,91,91,0,0,0-9.29,3.07c-15.11,5.91-30.81,7.66-46.86,6.41-14.83-1.16-29-5-42-12.4a64,64,0,0,1-18.64-15.7A48.79,48.79,0,0,1,14,62.72,75.07,75.07,0,0,1,41.28,45.39a108.54,108.54,0,0,1,43-7.1,81,81,0,0,1,29.12,6.82c2.94,1.25,5.89,2.47,8.89,3.56a13.53,13.53,0,0,0,7.43.84A10.56,10.56,0,0,0,138.38,41c.12-.58.25-1.16.4-1.81h3.43V88.5h-3.53c-.2-1.21-.39-2.43-.62-3.65-3.43-18.17-13.92-30.76-30.75-37.93C93,40.83,78.2,39.48,63.39,44.84,42.69,52.34,30.9,67.29,28,89.11a57.06,57.06,0,0,0,4.13,31.2c7.44,16.65,20.47,26.63,38.08,30.62a52.61,52.61,0,0,0,34.41-3.54c9.94-4.58,17.17-11.83,20.86-22.32a35.34,35.34,0,0,0,1.88-10.93,11.87,11.87,0,0,0-6.34-11.22,29.25,29.25,0,0,0-9.21-3.2c-7.19-1.43-14.48-1.44-21.77-1.5-1,0-1.91,0-3,0v-3.8H189.4c0,.59.14,1.16.15,1.73s-.06,1.17-.11,2.07c-1,0-1.95,0-2.9,0-6.54,0-13.08,0-19.57,1.06a33.34,33.34,0,0,0-11.64,3.59,11.61,11.61,0,0,0-6.12,7.82,19.61,19.61,0,0,0-.3,4q0,18.51,0,37Z"/><path d="M848.35,86.75c.93,1.38,1.78,2.59,2.58,3.83,4.83,7.57,9.47,15.25,13.67,23.2s8.36,15.58,11.64,23.79c2.42,6.06,4.53,12.24,6.73,18.39a11.4,11.4,0,0,1,.62,3.27c.07,1.7-.39,3.31-2.11,4.09a3.86,3.86,0,0,1-4.57-.71,31.76,31.76,0,0,1-4.71-5.87c-3.31-5.81-6.53-11.67-9.42-17.68-4.18-8.69-8-17.54-12.06-26.3-2.58-5.59-5.24-11.13-8-17.05-.39.77-.7,1.3-.93,1.87-4.81,11.83-9,23.89-13,36-1.77,5.27-3.65,10.52-5.74,15.67a52,52,0,0,1-4.34,8c-1.25,2-3.18,3.29-5.64,2.85s-3.92-2.26-4.75-4.57c-1-2.83-.71-5.71-.26-8.59a67.41,67.41,0,0,1,4-13.65c4.75-12.48,9.69-24.9,14.45-37.37,3.42-8.94,6.66-18,10-26.92,6.29-16.82,12.74-33.58,20.41-49.84,1.74-3.69,3.35-7.44,5.23-11a19,19,0,0,1,6.42-7c3.51-2.35,7.07-.8,7.73,3.41a16.75,16.75,0,0,1-1,8.32C872.11,21.42,869,30,865.78,38.54c-2.53,6.66-5.3,13.22-7.95,19.84a4.38,4.38,0,0,0-.35,2.23c1.34-1,2.7-2,4-3.08,8-6.5,16-13.07,24.06-19.5,4-3.14,8.06-6.09,12.15-9a9.38,9.38,0,0,1,3.2-1.5c2.86-.69,5,1.4,4.58,4.32a10.14,10.14,0,0,1-2.68,5.3c-3.65,4-7.2,8.13-11.17,11.79-6.21,5.74-12.76,11.12-19.12,16.7-5.58,4.9-11.09,9.9-16.66,14.81C853.46,82.52,851,84.53,848.35,86.75Z"/><path d="M973.78,75.62l9.72-1.05a40,40,0,0,1,11.56.24,10.73,10.73,0,0,1,3.81,1.64,2.16,2.16,0,0,1,.47,3.46,6.41,6.41,0,0,1-2.42,1.89A34.52,34.52,0,0,1,991,83.62c-5.17,1-10.37,1.9-15.56,2.85a7.08,7.08,0,0,0-1.09.41c.8,18.39,1.26,36.83,2.61,55.4.85,0,1.49,0,2.13,0,1.93,0,3.87-.13,5.8-.11a13.61,13.61,0,0,1,2.42.36c1.14.22,2.22.67,2.45,1.94s-.76,2.21-1.89,2.69c-1.77.76-3.58,1.43-5.41,2-1.54.51-3.13.85-4.81,1.29,0,1.35,0,2.59,0,3.83s0,2.22-.16,3.33a1.64,1.64,0,0,1-1.5,1.67,2.73,2.73,0,0,1-1.93-.77,20.43,20.43,0,0,1-1.95-3.22c-.45-.83-.84-1.7-1.28-2.59-2.85.4-5.55.86-8.28,1.16-6.08.66-12.16.89-18.15-.77s-11.36-4.72-15.23-9.85a20.26,20.26,0,0,1-4-11.17c-.54-8.11,1.87-15.42,6-22.21a101.71,101.71,0,0,1,22-25.25,24.49,24.49,0,0,1,4.56-3.17c1.91-1,2.28-2.23,2.23-4.24-.28-10-.62-20-.46-30.08.12-8.15.85-16.31,1.46-24.45a45.19,45.19,0,0,1,1.31-6.77,3.45,3.45,0,0,1,2.81-2.84,3.81,3.81,0,0,1,4,1.82,15.38,15.38,0,0,1,2.34,6.67c.43,3.31.76,6.65,1,10,.75,13.5,1.1,27,.9,40.54,0,.89,0,1.78.12,2.67A3.33,3.33,0,0,0,973.78,75.62Zm-13,17.25a16.84,16.84,0,0,0-1.67,1c-2,1.62-4.07,3.22-6.05,4.91-4.76,4.06-8.11,9.22-11.18,14.57a31.74,31.74,0,0,0-3.76,9,16.14,16.14,0,0,0,8.83,17.73,30.7,30.7,0,0,0,9.11,2.77,65.8,65.8,0,0,0,9.36.47,8.29,8.29,0,0,0,.1-1.25q-2.13-24.27-4.3-48.54C961.17,93.36,961,93.19,960.75,92.87Z"/><path d="M882,137c.71-2.33,1.33-4.7,2.17-7a87.5,87.5,0,0,1,6.78-13.51c3.8-6.53,7.52-13.13,11.41-19.61,2.85-4.77,5.87-9.43,8.93-14.08a8.18,8.18,0,0,1,4.59-3.35c3-.88,5.58,1,5.34,4.05a13.9,13.9,0,0,1-1.5,5c-3.12,6.23-6.4,12.39-9.62,18.57-2.64,5.06-5.14,10.2-8,15.14s-5.91,9.59-9,14.32a12.65,12.65,0,0,1-4.63,4.41,4.19,4.19,0,0,1-4.44.11C882.55,140.19,882.08,138.73,882,137Z"/><path d="M576.48,72.36v-3.5c2-1.11,4-2,5.78-3.19a7.86,7.86,0,0,0,3.62-4.9c.4-1.77,0-2.7-1.65-3.36-1.51-.59-3.13-.9-4.69-1.36a40.71,40.71,0,0,1-5.29-1.68,8,8,0,0,1-2.34-13l.32-.31c4-3.89,14.46-5.37,20,.32a10.89,10.89,0,0,1,3.22,6.46c1,8.78-1.71,15.77-9.42,20.22-2.43,1.4-5.06,2.45-7.62,3.63A19.71,19.71,0,0,1,576.48,72.36Z"/><path d="M943.46,61.94a12.84,12.84,0,0,1-10.1,12.27,14.54,14.54,0,0,1-11-1.39A10.4,10.4,0,0,1,917,62.12c.8-7.55,6.51-12,13.18-12.61C935.67,49,943.46,53.69,943.46,61.94Zm-13.3,5.2a24.14,24.14,0,0,0,3.43-1.48,3.61,3.61,0,0,0,1.31-5,5.29,5.29,0,0,0-8.77-1.09c-1.38,1.55-2,3.39-1.21,5.34S927.63,67,930.16,67.14Z"/></g></g></svg>