<svg xmlns="http://www.w3.org/2000/svg" viewBox="0 0 509.5 342.39"><g id="Layer_2" data-name="Layer 2"><g id="Homepage"><g id="Sunrays"><g id="Visible"><path d="M124.14,311a13.68,13.68,0,0,1,1.75-1.41c2-1.18,4-2.38,6-3.41,2.68-1.33,5.47-2.46,8.17-3.76,4.64-2.24,9.24-4.56,13.87-6.83,2.61-1.27,5.27-2.43,7.84-3.76,4.54-2.35,9-4.81,13.54-7.2q5.08-2.68,10.2-5.31c.63-.32,1.43-.8,1.88.21s1.12,2.08-.24,2.85c-2.95,1.67-5.9,3.36-8.92,4.89-4.33,2.21-8.72,4.31-13.1,6.43-7.25,3.51-14.44,7.14-21.78,10.45-5.68,2.57-11.54,4.73-17.32,7a9.81,9.81,0,0,1-1.63.33Z"/><path d="M131.86,175.87a12.79,12.79,0,0,1,1.94.59c1.46.68,2.91,1.4,4.32,2.19,2.7,1.51,5.35,3.09,8,4.62,5.58,3.19,11.18,6.36,16.75,9.57,2.59,1.5,5.1,3.16,7.73,4.59,4,2.16,8,4.18,12,6.27,3.35,1.74,6.68,3.53,10.06,5.23a17.65,17.65,0,0,0,2.8.92c.82.25,1,.81.59,1.47a7.25,7.25,0,0,1-1.55,2,1.78,1.78,0,0,1-1.57-.05c-3.41-2-6.71-4.29-10.19-6.2-3.22-1.78-6.66-3.14-9.93-4.84-3.05-1.58-6-3.36-9-5.06-3.2-1.82-6.42-3.61-9.59-5.48-2.79-1.64-5.55-3.36-8.29-5.09-2.36-1.49-4.69-3-7-4.59s-4.36-3-6.5-4.58a4.91,4.91,0,0,1-.87-1.08Z"/><path d="M142.36,252.16c6.62-.5,11.72-.85,16.81-1.3,4.5-.4,9-.86,13.49-1.41,2.69-.32,5.34-.85,8-1.3.89-.15,1.82-.46,2,.93.24,1.91-.2,2.74-1.62,2.86-2.94.24-5.88.49-8.83.65q-11.49.61-23,1.16c-2.45.12-4.91.25-7.37.24a100.18,100.18,0,0,0-18.76,1.93,78.46,78.46,0,0,1-17.78,1,2.16,2.16,0,0,1-1-.25c-.3-.19-.7-.53-.7-.81s.44-.66.75-.73a46.49,46.49,0,0,1,5.07-.92c7.48-.73,15-1.5,22.46-2C135.88,251.94,139.88,252.16,142.36,252.16Z"/><path d="M96.5,289.05a17.59,17.59,0,0,1,2.77-1.18c7.45-1.8,14.93-3.47,22.37-5.33,5.09-1.28,10.09-2.91,15.18-4.17,6.34-1.56,12.75-2.87,19.11-4.36,1.47-.35,2.87-1,4.31-1.48,7.14-2.36,14.28-4.68,21.41-7.08,1.32-.44,1.86.12,2.1,1.24s.62,2.28-1.06,2.69c-3.05.75-6.09,1.52-9.12,2.35-6.63,1.81-13.23,3.74-19.88,5.47-4.41,1.15-8.88,2.18-13.36,3.05-5.3,1-10.68,1.63-16,2.74-4.9,1-9.7,2.52-14.55,3.74-4.09,1-8.21,2-12.31,2.95a2.9,2.9,0,0,1-.94-.14Z"/><path d="M166.16,127.59a28,28,0,0,1,3.08,2.86c2.32,2.87,4.42,5.9,6.77,8.74,1.9,2.31,4.22,4.29,6,6.67,3.7,4.83,7.13,9.87,10.76,14.76,1.93,2.6,4.08,5,6.06,7.61,3,3.86,5.87,7.76,8.78,11.65q4,5.31,7.88,10.67c.35.47.79,1.41.6,1.63a7.47,7.47,0,0,1-2.24,1.57c-.16.08-.76-.39-.95-.73-.9-1.57-1.67-3.23-2.61-4.78a86.29,86.29,0,0,0-4.93-7.81c-5-6.68-10.21-13.23-15.3-19.85-3.16-4.12-6.18-8.36-9.44-12.4-2.22-2.74-4.87-5.14-7.1-7.87-2.51-3.08-4.83-6.32-7.11-9.57a10,10,0,0,1-.92-2.8Z"/><path d="M396.24,303.82c-2.13-.69-4-1.29-5.86-1.91-6-2-11.95-3.92-17.91-5.92-3.77-1.27-7.49-2.69-11.28-3.9S353.72,290,350,288.84c-4.21-1.34-8.35-2.92-12.55-4.3-4.71-1.55-9.47-3-14.18-4.51-.47-.15-1.2-.82-1.14-1,.24-.83.47-2,1.86-1.47,1.85.66,3.7,1.32,5.57,1.92,10.8,3.46,21.62,6.88,32.42,10.38,4.11,1.33,8.14,2.91,12.24,4.26,5,1.66,10.12,3.19,15.17,4.81,2.39.76,4.78,1.52,7.12,2.4a1.75,1.75,0,0,1,.88,1.42C397.36,303.13,396.63,303.48,396.24,303.82Z"/><path d="M279.69,185.61c1.92-2.42,2.5-5.24,3.24-8.06,1.15-4.42,2.6-8.76,4-13.12,1.06-3.42,2.1-6.86,3.29-10.24,1.67-4.77,3.45-9.51,5.23-14.25,1.43-3.82,3-7.59,4.39-11.41,1.91-5.16,3.75-10.34,5.61-15.52,1-2.82,2-5.66,3-8.46a30.26,30.26,0,0,1,1.53-3.07l.49.11a4.69,4.69,0,0,1,.1,1.43c-.89,3.32-1.68,6.67-2.79,9.92-1.63,4.78-3.44,9.52-5.3,14.22-1.78,4.48-3.8,8.86-5.56,13.35-1.13,2.87-2,5.84-3,8.79-1.58,4.91-3.1,9.84-4.66,14.75-1.11,3.51-2.24,7-3.36,10.51-.05.14-.15.3-.11.42.89,3.54-1.41,6.16-2.62,9.09-.13.32-.28.63-.4,1C282,187,281.6,187.12,279.69,185.61Z"/><path d="M137.45,151.16a14.16,14.16,0,0,1,2.14,1.16c3,2.43,6.07,4.85,9,7.36,4.08,3.45,8,7.17,12.18,10.44,3.8,2.94,8,5.38,11.91,8.14,2.25,1.58,4.42,3.28,6.52,5.05,4.51,3.81,8.86,7.8,13.46,11.49,2,1.57,4.44,2.5,6.62,3.82,1.22.73,2.32,1.65,3.47,2.5.69.5,1,1.13.33,1.84s-1.14,1.82-2.39,1a34.64,34.64,0,0,1-2.85-2.08c-3.83-3.24-7.56-6.6-11.45-9.76q-8.58-7-17.34-13.7c-3.65-2.8-7.52-5.33-11.22-8.07-1.49-1.11-2.76-2.52-4.2-3.71-4.53-3.76-9.11-7.46-13.64-11.23C138.86,154.41,137.49,153.5,137.45,151.16Z"/><path d="M381.75,197.22a17.41,17.41,0,0,1-1.65,1.09c-6.66,3.27-13.35,6.47-20,9.79-7,3.53-14,7.22-21,10.71-4.84,2.4-9.79,4.59-14.69,6.88a8.33,8.33,0,0,1-.81.36c-.62.21-1.65.7-1.79.52a7.39,7.39,0,0,1-1.24-2.59c-.06-.23.6-.82,1-1,3.63-1.5,7.34-2.82,10.91-4.45s6.7-3.53,10.1-5.2,6.7-3.08,10-4.64c4-1.85,7.89-3.77,11.86-5.6,3.74-1.72,7.48-3.46,11.31-5a38.4,38.4,0,0,1,5.7-1.32Z"/><path d="M271.61,97.54a10,10,0,0,1,.29,2.08c-.27,3.83-.53,7.65-.94,11.46-.69,6.35-1.62,12.67-2.19,19-.24,2.72.41,5.51.24,8.24-.46,7.3-1.1,14.59-1.77,21.88-.27,2.93-.81,5.84-1.18,8.76a17.71,17.71,0,0,0,0,2.06c0,2.3-.06,4.59-.12,6.89,0,.93-.18,1.86-.18,2.78,0,.67.16,1.38-.79,1.41s-1.65-.2-1.69-1.22a30.26,30.26,0,0,1,.08-3.69c.44-5,.86-10.08,1.4-15.11.55-5.18,1.23-10.35,1.84-15.52.1-.87.16-1.76.19-2.64.17-6.49.11-13,.54-19.46.48-7.3,1.38-14.56,2.14-21.84a26.5,26.5,0,0,1,.85-4c.12-.44.57-.8.87-1.19Z"/><path d="M409.74,212.74a5.48,5.48,0,0,1-1.27,1c-1.86.72-3.74,1.41-5.65,2-3.15,1-6.31,1.93-9.51,2.69-5,1.2-10.08,2.2-15.11,3.33S368,224,363,225.33s-9.93,2.76-14.86,4.28c-6.24,1.93-12.43,4-18.65,6a24.6,24.6,0,0,1-3.56,1c-.42.07-.93-.37-1.4-.58.25-.51.38-1.26.78-1.48a17.61,17.61,0,0,1,3.06-1.08q10.78-3.27,21.59-6.51c3.86-1.15,7.71-2.38,11.62-3.3,6.88-1.63,13.83-3,20.72-4.59,3.44-.8,6.82-1.86,10.24-2.77q7.26-2,14.53-3.82a13,13,0,0,1,2.51-.14Z"/><path d="M314.94,293c.23-.39.45-.82.72-1.22.55-.82,1.22-1.11,2.11-.45s2,1.57,3.09,2.25c3.27,2.08,6.55,4.16,9.87,6.15,4,2.39,8.08,4.69,12.1,7.05,7,4.08,14,8.06,20.81,12.32,2.58,1.61,4.76,3.86,7.12,5.82l-.27.47a11,11,0,0,1-1.64-.59c-4.28-2.32-8.58-4.59-12.79-7-3.06-1.77-5.92-3.87-9-5.62-4.66-2.66-9.36-5.23-14.13-7.67C326.63,301.3,320.46,297.86,314.94,293Z"/><path d="M322,124.1c-.75,1.74-1.4,3.53-2.26,5.21-3.19,6.26-6.44,12.49-9.68,18.72-2.28,4.4-4.65,8.77-6.84,13.21q-3.17,6.4-6,13c-.54,1.23-.48,2.71-1,4a58.88,58.88,0,0,1-2.51,5.63c-.93,1.89-2,3.73-2.95,5.58-.84,1.57-1.81.74-2.82.19s-1-1.19-.47-2.25c2.87-5.43,5.71-10.88,8.41-16.4,3.25-6.67,6-13.55,10.31-19.7,1.72-2.48,2.65-5.49,4.15-8.14,1.77-3.11,3.85-6.05,5.63-9.16,1.63-2.86,3-5.84,4.55-8.76a12.76,12.76,0,0,1,1-1.39Z"/><path d="M223.92,121.13a22.7,22.7,0,0,1,1.23,3.4c1.09,5.54,2,11.12,3.14,16.65,1.31,6.41,2.79,12.78,4.17,19.17,1,4.8,2,9.62,3.09,14.41.52,2.3,1.17,4.57,1.78,6.85.4,1.54.17,1.86-1.35,2.32-1.37.42-1.74-.29-2-1.42-.65-3.37-1.34-6.73-2-10.09a4.31,4.31,0,0,1-.1-1.47c.86-4.5-1.5-8.42-2.3-12.62-.85-4.48-2.07-8.89-3-13.37-1.13-5.69-2.11-11.41-3.1-17.12a45.83,45.83,0,0,1-.47-4.84,8.76,8.76,0,0,1,.29-1.8Z"/><path d="M130.26,204.1c1.38-.26,2.63.42,3.82.91,4.64,1.9,9.23,3.91,13.84,5.89,3.57,1.53,7.09,3.16,10.7,4.58,5.39,2.13,10.81,4.21,16.28,6.12,3.84,1.35,7.78,2.42,11.69,3.55,1,.27,1.42.69,1,1.66s-.63,2.1-2.13,1.63a99.57,99.57,0,0,1-15.89-6.23c-3.25-1.69-6.91-2.54-10.31-4q-10.82-4.51-21.55-9.26c-2.19-1-4.27-2.2-6.38-3.35a8.12,8.12,0,0,1-1.29-1.08Z"/><path d="M187.65,124.21c.87,1.38,1.81,2.71,2.58,4.13,2.14,3.92,4.17,7.9,6.31,11.83,1.17,2.15,2.5,4.22,3.69,6.37,2.42,4.39,4.73,8.83,7.2,13.19,1.64,2.91,3.54,5.68,5.19,8.58,3.42,6,6.75,12.09,10.11,18.14.12.21.17.46.28.68a1.13,1.13,0,0,1-.59,1.79c-1,.46-1.31-.16-1.7-.85-2.95-5.39-5.85-10.8-8.9-16.13-2.19-3.85-4.66-7.53-6.84-11.38-1-1.77-1.51-3.83-2.44-5.66-1.7-3.32-3.56-6.55-5.3-9.85-.67-1.25-1.13-2.61-1.77-3.88-1.81-3.58-3.67-7.14-5.5-10.71l-3-5.85Z"/><path d="M242.38,118.54a11,11,0,0,1,.86,2.24c.73,5,1.35,10.12,2.1,15.18.56,3.73,1.27,7.45,1.87,11.18.54,3.34.86,6.73,1.58,10,.84,3.88,2,7.69,3,11.54.94,3.65,1.82,7.32,2.74,11,.22.86.29,1.63-.83,1.79s-2,0-2.24-1.29c-.53-2.65-1-5.32-1.65-7.94-.93-3.76-2.16-7.45-3-11.24A78.92,78.92,0,0,1,244.73,148a180,180,0,0,0-2.58-23.41c-.3-1.78-.32-3.61-.45-5.42,0-.16.15-.33.23-.5Z"/><path d="M312.42,210.23a8,8,0,0,1-1.22-1.58c-.1-.24.23-.82.52-1,4.32-3.43,7.72-7.68,11.11-12a66.86,66.86,0,0,1,15.07-14,80.68,80.68,0,0,0,10.44-8.84c2.33-2.24,4.85-4.28,7.33-6.36.33-.28.92-.25,1.4-.36-.17.47-.2,1.09-.52,1.38-2.5,2.29-5.06,4.5-7.59,6.76-1.72,1.54-3.41,3.1-5.1,4.67-3.15,3-6.39,5.81-9.41,8.89-4.06,4.13-7.9,8.48-11.91,12.65-2.72,2.82-5.58,5.52-8.39,8.26C313.64,209.2,313.07,209.65,312.42,210.23Z"/><path d="M337.92,133.74c1.6-2.33,3.27-4.62,4.77-7,2.84-4.54,5.56-9.15,8.37-13.71,1.34-2.17,2.81-4.26,4.19-6.41,3.11-4.89,6.24-9.77,9.31-14.68,1.95-3.13,3.73-6.36,5.73-9.46,3.61-5.61,7.31-11.18,11-16.72,1.2-1.8,2.71-3.39,3.85-5.22,2.8-4.49,5.46-9.08,8.21-13.61a4.76,4.76,0,0,1,1.1-.92,4.63,4.63,0,0,1,.18,1.36,5.7,5.7,0,0,1-.61,1.64,102.29,102.29,0,0,1-8.44,13.47c-4.38,5.92-8.52,12-12.48,18.24-4.42,6.91-8.43,14.09-12.79,21-2.19,3.49-4.89,6.66-7.17,10.1-3.69,5.57-7.19,11.27-10.87,16.85-1.22,1.85-2.72,3.52-4.1,5.27Z"/><path d="M373.38,287c31.81,5.9,62.62,15.22,92.81,26.67l-.14.54c-1.68-.37-3.4-.62-5.05-1.13-5.45-1.68-10.88-3.4-16.29-5.2-5.92-2-11.78-4.12-17.72-6.05-4-1.31-8.1-2.39-12.15-3.56-3.82-1.11-7.65-2.18-11.47-3.3-3.26-.94-6.48-2-9.75-2.87s-6.69-1.59-10-2.36l-10.3-2.35Z"/><path d="M390.37,172.74c.48-.44.91-.94,1.43-1.33a122.41,122.41,0,0,1,16.88-10.52c3.7-1.92,7.21-4.23,10.83-6.32,3.83-2.2,7.74-4.29,11.54-6.56,2.9-1.73,5.73-3.61,8.53-5.52q8.52-5.84,17-11.77c2.13-1.5,4.17-3.13,6.24-4.7a3.93,3.93,0,0,1,.83-.61,4,4,0,0,1,1.06-.15c-.05.35,0,.84-.17,1a44.69,44.69,0,0,1-4.6,4.12c-4.4,3.15-8.87,6.2-13.38,9.2-5.23,3.49-10.45,7-15.82,10.28-6,3.66-12.14,7.08-18.25,10.54-4.7,2.67-9.48,5.19-14.16,7.88-2.17,1.25-4.18,2.78-6.27,4.16-.42.28-.88.49-1.33.73Z"/><path d="M204,305c-.45.69-.7,1.15-1,1.56-3,3.75-6.05,7.46-9,11.23-4,5.05-7.85,10.18-11.89,15.19a45.77,45.77,0,0,1-4.58,4.55A4,4,0,0,1,176,338a4.11,4.11,0,0,1,.38-1.54c3.1-4.06,6.28-8.06,9.37-12.12a10.75,10.75,0,0,0,.91-2.23,7.85,7.85,0,0,1,.93-1.77c2.64-3.3,5.36-6.52,8-9.84,1.7-2.16,3.22-4.45,4.9-6.63.36-.47,1.32-1.12,1.52-1A11.79,11.79,0,0,1,204,305Z"/><path d="M138.24,233.51a17.67,17.67,0,0,1,2.5-.2c3.47.23,6.94.56,10.42.78,7,.43,13.94.78,20.91,1.22,3.62.22,7.25.53,10.86.9.49,0,1.35.8,1.3,1.11-.15,1,.1,2.42-1.46,2.48a15.52,15.52,0,0,1-3.52-.35,168.34,168.34,0,0,0-25.45-2.68c-4.2-.16-8.38-.86-12.56-1.42a16.45,16.45,0,0,1-3.09-1.08Z"/><path d="M399.67,250.12a10.57,10.57,0,0,1-1.66.32q-5.67.23-11.36.37c-6.59.19-13.18.34-19.77.57-1.32,0-2.63.51-3.95.53-3.83.08-7.67.2-11.49,0a60.23,60.23,0,0,0-16.57,1c-2.31.51-4.81.23-7.21.17-.36,0-.86-.76-1-1.25-.22-.77.25-1.19,1.06-1.18,9.25.13,18.44-1.42,27.72-.66,4.94.41,9.91.29,14.87.87a32.86,32.86,0,0,0,7.76-.53,72.14,72.14,0,0,1,15.61-.63c2,.17,4,0,6,0Z"/><path d="M385.74,232.69c.61-.2.86-.32,1.12-.37,8-1.45,16-2.93,24.06-4.34,2.32-.4,4.68-.57,7-.89,4.43-.61,8.88-1.09,13.27-1.91,6.32-1.18,12.6-2.62,18.9-4l14.56-3.07a.92.92,0,0,1,.43,0c.61.19,1.2.41,1.79.62a5,5,0,0,1-1.5,1c-4,.92-7.93,1.85-11.93,2.62-6.65,1.27-13.32,2.46-20,3.64-3.58.64-7.16,1.3-10.77,1.76-5.16.65-10.36,1-15.51,1.74-4.66.66-9.27,1.68-13.91,2.5-2.18.38-4.37.66-6.56,1C386.53,233,386.3,232.85,385.74,232.69Z"/><path d="M170.07,157.31a10.46,10.46,0,0,1,1.59,1.19c2.73,2.95,5.34,6,8.14,8.91,2.39,2.47,5,4.73,7.47,7.12,3.08,3,6.12,6,9.18,8.95,1.38,1.34,2.81,2.62,4.18,4,2.82,2.74,5.61,5.51,8.42,8.26.7.68.82,1.27,0,1.95s-1.22,1.05-2.1.13c-4.2-4.42-8.53-8.71-12.68-13.17-2.74-2.94-5.17-6.18-7.92-9.12-2.44-2.62-5.05-5.09-7.74-7.46a62,62,0,0,1-8.86-10.36Z"/><path d="M407.25,118.28c.55-.61,1.09-1.24,1.67-1.83,7.86-8,15.68-16,23.61-24,3.16-3.16,6.55-6.1,9.86-9.11.55-.49,1.14-1.28,2-.37s.23,1.62-.45,2.23c-2.74,2.47-5.57,4.84-8.23,7.39-4.34,4.15-8.48,8.5-12.87,12.58-4.1,3.81-8.42,7.38-12.64,11-.89.77-1.79,1.51-2.69,2.26Z"/><path d="M230.63,50.34c-.86-4.61-1.65-9.23-2.58-13.82s-2-9.1-3-13.66c-.72-3.42-1.41-6.84-2-10.28s-.94-6.8-1.43-10.21c-.13-.89-.23-1.73,1-1.9s1.3.72,1.42,1.59c.83,5.83,1.56,11.68,2.53,17.48s2.29,11.57,3.24,17.39c.49,3,.5,6.16.74,9.25.11,1.38.26,2.75.38,4.13Z"/><path d="M190,285.59c.55,1,1.27,2.11,1.82,3.33.12.25-.27.94-.6,1.15-4.06,2.68-8.13,5.36-12.27,7.92-1,.6-2.31.58-3.31,1.15-2,1.16-4,2.55-5.94,3.81-1.8,1.15-3.62,2.26-5.43,3.38l-.34-.49Z"/><path d="M475.49,276a6.67,6.67,0,0,1-1.82.14c-2.95-.52-5.88-1.16-8.83-1.69-6.56-1.19-13.09-2.6-19.7-3.44-7.31-.94-14.58-1.93-21.79-3.52-6.61-1.46-13.31-2.53-20-3.76a1.74,1.74,0,0,1-1.11-.54c2.59.28,5.21.44,7.77.87,6.4,1.09,12.74,2.44,19.15,3.42,8.09,1.24,16.24,2.12,24.34,3.36,3.92.59,7.77,1.67,11.66,2.49,3.12.66,6.26,1.26,9.38,1.9a6.44,6.44,0,0,1,.93.33Z"/><path d="M212.05,143.93a13.85,13.85,0,0,1,1.08,2.14c1.29,4.26,2.5,8.55,3.78,12.82a5.12,5.12,0,0,0,.94,2.12c2,2,2.78,4.56,3.79,7.07,1.42,3.54,3.11,7,4.66,10.48.89,2,1.8,4,2.58,6.09a1.72,1.72,0,0,1-.42,1.55c-.61.5-1.56.74-2-.22-.81-1.73-1.49-3.51-2.19-5.29a29.53,29.53,0,0,0-1.7-4.37c-1.64-2.77-2.18-5.87-3-8.89-.4-1.45-.95-2.86-1.47-4.27-1.5-4-3.08-8.06-4.5-12.13-.79-2.25-1.32-4.59-2-6.89Z"/><path d="M146.91,265.65c2-.66,3.92-1.47,5.94-1.95a115.19,115.19,0,0,1,12-2.47c5.3-.68,10.37-2.2,15.5-3.53,1.83-.47,2.29-.23,2.5,1.18.33,2.09,0,2.61-1.91,2.8-6.7.68-13.41,1.27-20.09,2.1-4.33.55-8.61,1.47-12.92,2.22-.28.05-.56.06-.84.09Z"/><path d="M159.47,205.31c2.05.75,4.13,1.41,6.13,2.25,5.24,2.21,10.42,4.55,15.66,6.73,2.84,1.19,5.78,2.15,8.65,3.27.7.27,1.84.44,1.22,1.68-.5,1-1.15,1.66-2.46,1-2.77-1.36-5.58-2.65-8.4-3.92-3.22-1.44-6.49-2.78-9.7-4.24-1.24-.57-2.36-1.4-3.56-2.06-2.37-1.29-4.77-2.54-7.14-3.81a4,4,0,0,1-.58-.43Z"/><path d="M467.91,247c1.63-.16,3.25-.45,4.87-.46,7.53-.09,15.06-.06,22.59-.16,3.79,0,7.57-.3,11.35-.45a4.71,4.71,0,0,1,1.76,0c.44.17,1,.72,1,1.1s-.52,1-.95,1.23-.86.09-1.3.09c-4.77,0-9.55.1-14.32,0-5-.14-10-.55-15-.73-2.89-.11-5.8,0-8.7,0H468Z"/><path d="M155.49,284.33c.39-.11.79-.2,1.17-.33,2.49-.88,5-1.63,7.43-2.7,3.08-1.38,6-3.08,9-4.54,3.35-1.62,6.77-3.12,10.14-4.71,1-.5,1.65-.3,2,.84.61,2.14.62,2.12-1.56,2.79a146.34,146.34,0,0,0-19.83,7.4c-2.63,1.24-5.46,1.34-8.25,1.72Z"/><path d="M361,271.05c-2.18-.35-4.35-.67-6.52-1-3.91-.69-7.82-1.44-11.73-2.09-5-.85-10.09-1.62-15.13-2.43-.87-.14-1.8-.17-1.59-1.56.31-1.93.28-1.9,2.21-1.44,6.69,1.61,13.4,3.1,20.08,4.73,4.28,1,8.52,2.25,12.77,3.39Z"/><path d="M331.82,174.15l-7.6,7.79q-3.75,3.85-7.49,7.74c-1.77,1.83-3.61,3.61-5.28,5.53a51.52,51.52,0,0,0-4.27,5.61c-1.25,2-1.52,2.1-3,.39-.16-.18-.31-.37-.3-.36a213.07,213.07,0,0,1,27.69-27Z"/><path d="M95.84,117c-1.68-1.48-3.34-3-5.06-4.43-5.16-4.31-10.26-8.72-15.57-12.83C71.76,97,68,94.83,64.34,92.37a37.11,37.11,0,0,1-3.67-3c-.26-.23-.19-.84-.28-1.27.45,0,1-.11,1.32.11,2.45,1.8,4.81,3.74,7.28,5.51,3,2.15,6.19,4,9.06,6.32,3.56,2.84,7,5.89,10.26,9,2.6,2.51,4.89,5.32,7.32,8Z"/><path d="M277.51,157.34c-.11.77-.25,1.55-.32,2.32-.19,2.09-.29,4.19-.54,6.27s-.56,4.27-1,6.37c-.77,3.5-1.64,7-2.58,10.44-.09.36-.92.77-1.37.74-.85-.06-1.24-.67-1-1.59.48-1.9.9-3.82,1.38-5.72q2.24-8.92,4.51-17.86a7.46,7.46,0,0,1,.47-1.09Z"/><path d="M276.62,43.37c.09-.71.19-1.41.28-2.12.58-4.67,1.41-9.34,1.68-14,.49-8.39.64-16.79,1-25.19,0-.76-.36-2,.81-2s.8,1.24.79,2c-.09,5.7-.07,11.41-.4,17.11-.26,4.25-.94,8.48-1.53,12.71-.47,3.3-1.09,6.59-1.66,9.87-.11.61-.31,1.2-.47,1.79Z"/><path d="M343.05,295.6a6.39,6.39,0,0,1-5.12-1.14c-4.61-3.41-10.05-4.84-15.28-6.79-.78-.29-1.55-.61-2.31-.95s-1.38-.66-.89-1.65.88-1.59,2-1.05,2.4,1.11,3.59,1.7c3.68,1.86,7.39,3.66,11,5.62C338.47,292.64,340.73,294.17,343.05,295.6Z"/><path d="M375.37,273.75c1.19-.47,45.29,7.54,46.74,8.49C419.88,282.81,377.73,275.15,375.37,273.75Z"/><path d="M240.05,162.46a10.63,10.63,0,0,1,1.11,2.14q2,7.78,3.78,15.6c.21.88.25,1.82-1.08,2-1.16.13-2.09,0-2.27-1.42-.47-3.65-1-7.3-1.41-11-.24-1.94-.44-3.88-.63-5.83a12.16,12.16,0,0,1,0-1.35Z"/><path d="M341.32,164.53c.79-1.9,32.53-33.95,34-34.4a10.82,10.82,0,0,1-.77,1c-3,3-6.11,6-9.11,9-1.55,1.57-3.05,3.21-4.44,4.92-5.68,7-12.32,13.08-19,19.14A3.26,3.26,0,0,1,341.32,164.53Z"/><path d="M472.41,289.31c3.27.34,6.53.72,9.8,1,4.69.41,9.4.75,14.1,1.16,3,.27,6.07.58,9.09.95.36,0,.67.52,1,.8-.39.2-.8.59-1.18.56-6.42-.5-12.85-.89-19.25-1.63-4.57-.54-9.08-1.55-13.62-2.35Z"/><path d="M28,265.13a13.2,13.2,0,0,1-1.35.32q-5.55.8-11.09,1.56c-4.53.62-9.06,1.23-13.58,1.87-.8.11-1.72.42-1.92-.67s.83-1.19,1.58-1.27c5.33-.53,10.66-1,16-1.54,2.89-.28,5.77-.61,8.66-.89a11.76,11.76,0,0,1,1.67.09Z"/><path d="M409.25,92.17q2.31-2.83,4.64-5.65L425,73c1.05-1.29,2-2.64,3.15-3.88a5.08,5.08,0,0,1,1.55-.75,4.33,4.33,0,0,1-.4,1.68c-2.36,3-4.85,5.94-7.18,9A81.9,81.9,0,0,1,409.25,92.17Z"/><path d="M116.21,70.94c-1.65-1.71-3.33-3.39-4.92-5.16-3.26-3.61-6.47-7.27-9.69-10.92a27.36,27.36,0,0,1-2-2.51c-.21-.3-.07-.84-.09-1.27.47.06,1.13-.07,1.37.19q3.4,3.76,6.67,7.64c1.68,2,3.29,4,4.91,6.07,1.45,1.83,2.88,3.67,4.33,5.51Z"/><path d="M15.12,221.94c3.46-1.13,26,.87,27.75,2.33a5.78,5.78,0,0,1-1.51.39c-7-.56-14-1.12-21-1.76C18.63,222.74,16.88,222.27,15.12,221.94Z"/><path d="M334.27,138.78a9.06,9.06,0,0,1-.78,1.63c-3.14,4.34-6.1,8.83-9.52,12.93a104,104,0,0,0-11.17,15.52c-1.25,2.23-3.14,4.11-4.76,6.14-.15.19-.45.26-.68.38l-.35-.32,27-36.42Z"/><path d="M384.38,102.38l-31.31,36.4-.33-.29,31-36.66Z"/><path d="M418.86,310.38c3.64.42,7.24,1.13,10.21,3.29,2.53,1.83,5.41,2.49,8.25,3.41,2.29.75,4.57,1.51,6.84,2.3a1.66,1.66,0,0,1,.89.93c-4.69-.84-8.91-3-13.36-4.42A69.49,69.49,0,0,1,418.86,310.38Z"/><path d="M91.35,188.72c-.45-.06-.9-.11-1.35-.18-4.55-.67-8.6-2.71-12.78-4.44-4.44-1.84-9-3.43-13.49-5.15-1-.38-2-.86-3-1.29l.18-.44a50.52,50.52,0,0,1,5.17,1.4c8.44,3.27,16.84,6.63,25.26,9.95Z"/><path d="M207.28,48.88a34.42,34.42,0,0,1,1.36,3.84c2.08,9.07,4.1,18.15,6,27.33a4.4,4.4,0,0,1-.63-1c-1-3.64-2.09-7.26-3-10.93-1.14-4.72-2.11-9.48-3.17-14.23-.35-1.61-.73-3.22-1.09-4.83Z"/><path d="M476.63,194.3a7.14,7.14,0,0,1,1.12-.53l15.42-4.38c.77-.21,1.72-.53,2,.47.09.36-.81,1.29-1.39,1.43-3.95,1-7.93,1.82-11.9,2.7-1.2.27-2.39.55-3.59.77a9.51,9.51,0,0,1-1.51,0Z"/><path d="M471.61,330c1.27.45,2.54.94,3.84,1.36,6.07,1.95,12.16,3.87,18.21,5.87.5.17.82.85,1.22,1.29-.61.11-1.3.45-1.8.27-3.89-1.38-7.75-2.84-11.6-4.32-2.79-1.07-5.57-2.19-8.35-3.31a18.6,18.6,0,0,1-1.65-.87Z"/><path d="M332.58,35.74c.5-1.77,1-3.55,1.52-5.3,1.15-3.6,2.31-7.2,3.56-10.77.28-.79.44-2.09,1.7-1.71.28.08.44,1.61.18,2.29-1.83,4.83-3.78,9.6-5.71,14.38a11.69,11.69,0,0,1-.76,1.33Z"/><path d="M125.79,233.3,98.58,230l0-.4c1.73-.59,24.45,2.05,27.19,3.17Z"/><path d="M144.75,133.35c6,3.74,10.54,9,14.83,14.46l-.43.45L144.32,133.8Z"/><path d="M309.6,185.34a7.2,7.2,0,0,1-.69,1.63q-2.18,2.94-4.49,5.81c-.51.63-1.22,1.11-1.79,1.71s-1.08,1.31-1.67,1.92c-.33.34-.88.9-1.13.81-.49-.17-.84-.73-1.25-1.13.35-.35.65-.89,1.07-1a5.3,5.3,0,0,0,3-2.59,83.06,83.06,0,0,1,5.23-6.5,5.89,5.89,0,0,1,1.39-.92Z"/><path d="M17.19,160.61l20.86,7.44,0,.42a10.71,10.71,0,0,1-1.59.16,20.17,20.17,0,0,1-7.11-2.21c-3.33-1.54-6.76-2.82-10.16-4.21-.73-.3-1.48-.57-2.22-.86Z"/><path d="M367.22,187.55c-1.47,1.57-19.55,11.45-21.42,11.79C347.27,197.68,364.12,188.35,367.22,187.55Z"/><path d="M180,322.34c6.46-7.25,13.75-13.6,19.38-21.52l.47.26a5.73,5.73,0,0,1-.67,1.53c-2.81,3.19-5.62,6.4-8.55,9.5-2.52,2.67-5.17,5.23-7.8,7.8C181.93,320.78,180.94,321.53,180,322.34Z"/><path d="M254.71,24.31V3.38C256.36,5,256.17,21.09,254.71,24.31Z"/><path d="M82.18,331.11A20.43,20.43,0,0,1,85,329.3c4.5-1.94,9-3.8,13.56-5.69a2.88,2.88,0,0,1,1.35-.25c-5.7,2.95-10.89,6.94-17.32,8.3Z"/><path d="M357,56.75a25.93,25.93,0,0,1,3.73-12c.23-.36.94-.43,1.42-.64.11.43.43,1,.29,1.26-1.57,3.53-3.21,7-4.85,10.53A5.49,5.49,0,0,1,357,56.75Z"/><path d="M151.38,57.92c-.93-1-1.87-1.93-2.77-2.93a23.61,23.61,0,0,1-4.69-7.05c-.19-.48.1-1.14.17-1.71.44.26,1,.42,1.29.81,2.21,3.46,4.36,7,6.52,10.43Z"/><path d="M197,5.55c.14.43.31.85.43,1.29,1.52,5.5,3,11,4.52,16.52a4,4,0,0,1-.1,1.32c-.39-.22-1-.37-1.13-.69-.79-2.41-1.58-4.82-2.16-7.29-.67-2.9-1.12-5.84-1.67-8.77-.14-.74-.29-1.48-.43-2.22Z"/><path d="M108,162.54c-5.28-2.89-11.18-4.56-15.65-8.71l-1-.94.2-.47a7.19,7.19,0,0,1,1.91.56c3.45,2.17,6.85,4.42,10.27,6.63.9.59,1.84,1.12,2.73,1.72C106.94,161.7,107.44,162.13,108,162.54Z"/><path d="M129.23,218.83l-21.15-5.74.15-.54C115.43,214,122.7,215.13,129.23,218.83Z"/><path d="M342.35,240.29c-4.7,1.21-9.39,2.45-14.1,3.59a3.24,3.24,0,0,1-1.87-.35c0-1.27,1.08-.69,1.75-.87,2.24-.62,4.51-1.17,6.72-1.88a23.82,23.82,0,0,1,7.44-1Z"/><path d="M150.7,176.52c-2.8-.31-12.85-6.19-13.91-8.14C141.72,171.12,146.52,173.28,150.7,176.52Z"/><path d="M303.78,46.09c-.81-2.23,1.07-11.22,3.06-12.53q-1.29,6.31-2.57,12.61Z"/><path d="M217.69,94.7a25,25,0,0,1,2.91,12.47C218.4,103.3,218.39,98.92,217.69,94.7Z"/><path d="M105.28,194.4c2.32-.33,10.11,2.64,11.59,4.42C115.11,199.35,107.79,196.56,105.28,194.4Z"/><path d="M333.4,274.37c-.17.07-.35.22-.51.21-2.58-.21-5.16-.41-7.73-.71-.37-.05-.69-.59-1-.91.35-.34.75-1,1-1,2.63.47,5.24,1.07,7.85,1.64a4.5,4.5,0,0,1,.7.25Z"/><path d="M307.39,312.34c1.65.12,8.38,7,9,9.19C314.56,320.79,307.74,313.84,307.39,312.34Z"/><path d="M400.4,81.9q4.73-5.9,9.44-11.81l.56.34a12.64,12.64,0,0,1-1.15,2c-2.74,3.31-5.52,6.57-8.29,9.85Z"/><path d="M445.75,203.1a59.93,59.93,0,0,1,14-3.75C455.35,201.5,450.58,202.38,445.75,203.1Z"/><path d="M203.14,121.79q2.49,6.42,5,12.84A23,23,0,0,1,202.73,122Z"/><path d="M196.05,103.7c-2.32-3.53-3.15-7.56-3.83-11.65A32.71,32.71,0,0,1,196.05,103.7Z"/><path d="M327.44,52.36a44.06,44.06,0,0,1-4.76,13.54C323.3,61,325.48,56.74,327.44,52.36Z"/><path d="M256.52,58.47c1.44,2.22,1.68,9.42,0,13.57Z"/><path d="M449,169.32c4.93-2.1,9.62-4.85,15-5.87C458.91,165.28,454.5,168.65,449,169.32Z"/><path d="M50.81,300.37c-.64.19-1.26.4-1.9.57-3.94,1-7.88,2-11.82,2.92a4.07,4.07,0,0,1-1.31-.17c.32-.36.59-.95,1-1,3.35-.72,6.71-1.36,10.07-2l3.84-.76Z"/><path d="M352.46,66.16,346.82,78l-.5-.24c1-4.36,3.33-8.07,5.46-11.89Z"/><path d="M453,248.39H440.61c1.46-1.2,9-1.5,12.41-.41Z"/><path d="M162.44,78.28l-6.37-11.09.62-.36c2.38,3.55,4.86,7,6.34,11.13Z"/><path d="M322.3,213.44c-1,.71-2,1.43-3,2.12a11.72,11.72,0,0,0-1.24.76c-.73.66-1.18.54-1.76-.25-.77-1.07-.71-1.57.68-1.89,1.13-.25,2.19-.82,3.31-1.16a8.84,8.84,0,0,1,1.79-.2Z"/><path d="M327.81,209.32c3.43-2.89,7.52-4.21,11.36-6.46C338.16,204.78,330.12,209.32,327.81,209.32Z"/><path d="M356.66,237l15.1-3.37C370.74,235,358.46,237.61,356.66,237Z"/><path d="M254.93,125.84c1.08.67,2.28,8.13,1.63,10.08l-.41.07-1.72-10Z"/><path d="M124.69,187.24c3.63.59,7.43.9,9.69,4.55Z"/><path d="M273.49,74.78c-.33,2.35-.69,4.69-1,7a14,14,0,0,0,0,2.59,12.35,12.35,0,0,1-.79,5.66l-.47-.06,1.5-15.29Z"/><path d="M387.47,136.66l7.28-6.69C394.61,132.28,390,136.5,387.47,136.66Z"/><path d="M258,171.54c-.35-4.12-1.13-8.21-.9-12.35l.7-.05.81,12.36Z"/><path d="M234.83,77.4c-.41-3.25-.83-6.51-1.25-9.76C235.36,69.57,236.12,75.18,234.83,77.4Z"/><path d="M364.34,259.14l12.3.8,0,.5c-4.13.15-8.25.23-12.29-.87Z"/><path d="M151.77,223.13l-9.75-.8c1.95-1.18,8.51-.79,9.8.25Z"/><path d="M116.57,167.22l8.05,4.55c-1.92.66-7.07-2.13-8.3-4.12Z"/><path d="M117.14,315.43a29,29,0,0,1-8.23,4C109.57,317.8,115,315.12,117.14,315.43Z"/><path d="M421.93,249.34h-9.5v-.54a37.37,37.37,0,0,1,9.51,0Z"/><path d="M93.63,273.54l12-.51,0,.73h-12Z"/><path d="M45.3,127.83c-1.85-.72-3.72-1.37-5.52-2.19-.37-.17-.49-.91-.73-1.39a3.91,3.91,0,0,1,1.54.06c1.71.9,3.35,1.91,5,2.88Z"/><path d="M388.79,336.5c3.25,1.6,5.59,3.82,8.19,5.89C395.23,342.45,389.65,338.57,388.79,336.5Z"/><path d="M147.64,105.06a90,90,0,0,1,7.28,8.22l-.6.53-7.14-8.36Z"/><path d="M112.83,242c-2.12,1.44-7.24.13-9.54-1.68Z"/><path d="M322.4,174c-2.06,2.87-4.1,5.76-7.43,7.44l7-7.82Z"/><path d="M299.55,188.25c-.32.72-.61,1.45-1,2.14-.6,1.13-1.23,2.24-1.92,3.31-.16.24-.63.28-1,.42-.09-.25-.32-.56-.25-.75A12.34,12.34,0,0,1,299,188Z"/><path d="M401.54,188.08a30.45,30.45,0,0,1,9.28-3.37C409.36,186.35,404.35,188.2,401.54,188.08Z"/><path d="M333.69,258.74c-1,0-2,.05-2.94,0a31.23,31.23,0,0,1-3.2-.32,1.45,1.45,0,0,1-.75-.54c-.05-.06.16-.44.33-.55.81-.53,5.75.15,6.56.87Z"/><path d="M317.06,81.83c1-2.92,2.07-5.84,3.24-9.13C321,74.84,318.89,80.81,317.06,81.83Z"/><path d="M439,205.46a34.39,34.39,0,0,1-9.23,2.49l-.17-.63,9.23-2.46Z"/><path d="M85.06,257.59l-10.63,1.26C75.6,257.7,83.78,256.64,85.06,257.59Z"/><path d="M185.06,120.24a14.53,14.53,0,0,1-4.38-7.54C182.93,114.74,183.66,117.68,185.06,120.24Z"/><path d="M187.27,200.79c4.2,1.46,6.82,5.5,11.16,6.74l-.44.7-11-7.06Z"/><path d="M342.74,257.46l9.2.41C350.25,259.13,345.65,259,342.74,257.46Z"/><path d="M362.15,284.44c-2.95-.36-5.63-.62-7.87-2.54C355.31,281.3,360.07,282.84,362.15,284.44Z"/><path d="M82.09,293.11c-2.65,1.59-5.38,2-8.27,2.22C74.71,294.16,80.18,292.66,82.09,293.11Z"/><path d="M184.7,139.85q3.3,4.31,6.61,8.59l-.49.37C188.74,145.85,185.8,143.53,184.7,139.85Z"/><path d="M76,226.81l10.41,1.35-.08.6c-3.52,0-6.94-.86-10.4-1.4Z"/><path d="M323.63,119.3a19.24,19.24,0,0,1,4-7.68l.5.26-4,7.66Z"/><path d="M114.33,132.14a13.28,13.28,0,0,1-5.44-4.44C110.29,127.4,113.72,130.17,114.33,132.14Z"/><path d="M334.24,99.16c1-2.67,1.59-5.5,3.69-7.61l.53.26-3.75,7.54Z"/><path d="M275.26,60.83c.81,1.43.39,5.3-.62,6.54C273.87,66.11,274.19,62.27,275.26,60.83Z"/><path d="M174.27,100c-2.11-2-3.88-4.2-4.41-7.17C172.14,94.73,172.52,97.81,174.27,100Z"/><path d="M122.08,335.63l7.21-5.28c-1.62,2.81-4.26,4.26-7,5.57Z"/><path d="M169,187.85l6.91,5-.38.54-7-4.82Z"/><path d="M125.32,142.13c2.59,1,5.39,3.29,6.11,4.92C130.23,147.05,127,144.44,125.32,142.13Z"/><path d="M286.32,112.49c.16-2.54,1.47-4.69,2.5-6.93l.38.12-2.17,7Z"/><path d="M170.31,117.55c2.25,1.52,3.24,3.78,3.91,6.22l-.45.26Z"/><path d="M128,268.45l7.51-.51C133.72,269.14,129.59,269.51,128,268.45Z"/><path d="M164.51,336.65l5.1-4.42.49.56L165,337.22Z"/><path d="M113,298l6.93-1.57A7.78,7.78,0,0,1,113,298Z"/><path d="M64.51,138.12l-6.13-3.05.25-.51,6.16,2.93Z"/><path d="M237.15,140.15c.17,1.61.35,3.22.52,4.82l-.7.1c-.25-1.6-.49-3.2-.73-4.79Z"/><path d="M460.76,325.4l5.93,2.55-.21.51-6-2.45Z"/><path d="M142.15,288.42l-4.46,1.79-.26-.64,4.43-1.87Z"/><path d="M372.67,150l3.92-3.67.44.48-3.9,3.65Z"/><path d="M144.56,318.45l4.73-3,.3.49-4.72,3Z"/><path d="M150.49,200.7,146.08,198l.29-.48,4.44,2.65Z"/><path d="M237.48,91.65l.75,5.06-.53.08-.84-5Z"/><path d="M296,78.17q-.75,2.47-1.52,4.93L294,83l1.49-5Z"/><path d="M123.88,141.28l-4.51-3.86.37-.43,4.42,4Z"/><path d="M137.2,94.29l-2.11-2.17.58-.55,2.09,2.2Z"/><path d="M234.78,124.27c.07.85.13,1.71.19,2.56l-.76.07-.25-2.56Z"/><path d="M71.55,226.77,66.89,226l0-.33,4.68.54Z"/><path d="M56.83,260.49l2.34-.1,0,.53-2.36.18Z"/><path d="M381,332.41l-1.39-.87.3-.52,1.45.76Z"/></g></g></g></g></svg>