<svg xmlns="http://www.w3.org/2000/svg" viewBox="0 0 395.31 277.4"><defs><style>.cls-1{fill:#fff;}</style></defs><g id="Layer_2" data-name="Layer 2"><g id="Layer_1-2" data-name="Layer 1"><g id="Layer_2-2" data-name="Layer 2"><g id="Layer_1-2-2" data-name="Layer 1-2"><g id="RlOplj"><path class="cls-1" d="M275.37,0c0,4.86-3.41,7.56-6.59,10.57,1.3.81,2.4,0,3.54-.28C277.22,9,282.1,7.65,287,6.54c2.4-.54,5.28-1,6.54,1.81s-.92,4.91-3.06,6.44c-6.49,4.65-14.13,6.43-21.66,8.48a29.58,29.58,0,0,0-4.5,1.47c5.37,1.18,10.87,1.48,16.2,2.8,22.33,5.57,38.4,19.5,51.07,38,7.28,10.62,13.06,21.9,14.71,34.88.28,2.2,1.73,2.3,3.2,2.66a84.16,84.16,0,0,0,41.68-.21l2.42-.65c-9.07,15.77-24.41,18.44-40.39,21.47,14.06,5.19,28,4.68,42.06,4.32-.47,1.86-1.91,2.61-3,3.56-11,9.53-23.62,14.63-38.26,13.76-4.38-.26-6.13.94-7.28,5.42-8.67,33.69-28.16,60.14-55.11,81.6s-57.37,36-91.68,41.53a202.28,202.28,0,0,1-29.47,2.68h-31.7c-8.36,0-16.57-1.3-24.74-2.86-31-5.91-58.63-19.27-83.42-38.6C19.44,226.36,9.27,216.5,1,204.87l.61-.6c1.09.71,2.16,1.44,3.26,2.14,36.08,23.23,73.49,27.1,112.36,7.45A93.36,93.36,0,0,0,143.34,194c-3.61.84-7.08.36-10.55-.17-8-1.22-16.23-7.75-17.39-14.39-1.46-8.29,3.74-13,9.83-17.08,1.17-.78,2.32-1.61,3.47-2.42-14,2.35-25.21-3.52-35.84-11A25.69,25.69,0,0,1,84,137.81c-.85-2-.48-3.25,1-4.76a27,27,0,0,1,23-8.22,63.33,63.33,0,0,0-6.35-2.84c-7.25-3-14.27-6.41-20.41-11.32C73.9,104.82,67.61,98.2,65.51,88.54c-.61-2.82-.26-4.16,2.76-5A60.45,60.45,0,0,1,88,81.31C82.69,78.1,78.25,75.44,74.44,72,63.57,62,56.82,49.88,55.76,35c-.3-4.25,0-4.3,4-2.77C79.07,39.6,98.28,47.23,117,56c22.32,10.36,44.33,21.33,63.55,37,2.8,2.28,5.48,4.7,8.28,7.11,3.89-9.44,7.46-18.65,11.45-27.67,8.77-19.82,18.84-38.88,33.58-55.06A63,63,0,0,1,250,4c.35,3.09-1.41,5.26-2,7.74-.14.13-.76.09-.17.48l.1-.54c1.36.5,2.21-.53,3.09-1.16C257.16,6.21,263.41,2.17,270.66,0Z"/><path class="cls-1" d="M138.64,277.4a5.12,5.12,0,0,0,.25-.53.48.48,0,0,0-.08-.31h31.7l.17.84Z"/><path class="cls-1" d="M248,11.7l-.1.54c-.59-.39,0-.35.17-.48Z"/><path class="cls-1" d="M1,204.88c-.5-.35-1.3-.9-.84-1.36s1.06.28,1.44.76Z"/></g></g></g></g></g></svg>