<?xml version="1.0" encoding="utf-8"?>
<!-- Generator: Adobe Illustrator 25.0.1, SVG Export Plug-In . SVG Version: 6.00 Build 0)  -->
<svg version="1.1" id="Calque_1" xmlns="http://www.w3.org/2000/svg" xmlns:xlink="http://www.w3.org/1999/xlink" x="0px" y="0px"
	 viewBox="0 0 50 50" style="enable-background:new 0 0 50 50;" xml:space="preserve">
<style type="text/css">
	.st0{fill-rule:evenodd;clip-rule:evenodd;fill:#FFFFFF;}
</style>
<g>
	<g>
		<path class="st0" d="M38.4,18.9c0-0.3,0-0.5,0-0.8c0-0.6-0.1-1.2-0.2-1.8c-0.1-0.6-0.3-1.1-0.5-1.7c-0.3-0.5-0.6-1-1-1.4
			s-0.9-0.8-1.4-1c-0.5-0.3-1.1-0.4-1.7-0.5s-1.2-0.1-1.8-0.2c-0.3,0-0.5,0-0.8,0s-0.6,0-1,0H20c-0.3,0-0.6,0-1,0
			c-0.3,0-0.5,0-0.8,0c-0.6,0-1.2,0.1-1.8,0.2c-0.6,0.1-1.1,0.3-1.7,0.6c-0.5,0.3-1,0.6-1.4,1s-0.8,0.9-1,1.4
			c-0.3,0.5-0.4,1.1-0.5,1.7c-0.1,0.6-0.1,1.2-0.2,1.8c0,0.3,0,0.5,0,0.8s0,0.6,0,1v10c0,0.3,0,0.6,0,1c0,0.3,0,0.5,0,0.8
			c0,0.6,0.1,1.2,0.2,1.8c0.1,0.6,0.3,1.1,0.5,1.7c0.3,0.5,0.6,1,1,1.4s0.9,0.8,1.4,1c0.5,0.3,1.1,0.4,1.7,0.5
			c0.6,0.1,1.2,0.1,1.8,0.2c0.3,0,0.5,0,0.8,0s0.6,0,1,0h10c0.3,0,0.6,0,1,0c0.3,0,0.5,0,0.8,0c0.6,0,1.2-0.1,1.8-0.2
			c0.6-0.1,1.1-0.3,1.7-0.5c0.5-0.3,1-0.6,1.4-1s0.8-0.9,1-1.4c0.3-0.5,0.4-1.1,0.5-1.7c0.1-0.6,0.1-1.2,0.2-1.8c0-0.3,0-0.5,0-0.8
			s0-0.6,0-1V19.9C38.4,19.6,38.4,19.3,38.4,18.9z M31.2,28.9c0,0.3,0,0.6-0.1,1c-0.1,0.3-0.2,0.6-0.4,0.9c-0.2,0.3-0.4,0.5-0.7,0.7
			c-0.3,0.2-0.6,0.3-0.9,0.3c-0.6,0.1-1,0.2-1.4,0.1c-0.4-0.1-0.7-0.3-1-0.5c-0.4-0.4-0.6-0.8-0.7-1.3c-0.1-0.6,0.1-1.2,0.6-1.7
			c0.2-0.2,0.5-0.4,0.9-0.6c0.4-0.1,0.8-0.2,1.5-0.4c0.2,0,0.3-0.1,0.5-0.1s0.4-0.1,0.6-0.3c0.2-0.2,0.2-0.4,0.2-0.7v-5.9
			c0-0.4-0.2-0.6-0.6-0.5c-0.3,0.1-6.9,1.4-6.9,1.4c-0.4,0.1-0.5,0.2-0.5,0.7v8.6c0,0.3,0,0.6-0.1,1c-0.1,0.3-0.2,0.6-0.4,0.9
			s-0.4,0.5-0.7,0.7c-0.3,0.2-0.6,0.3-0.9,0.3c-0.6,0.1-1,0.2-1.4,0.1c-0.4-0.1-0.7-0.3-1-0.5c-0.6-0.2-0.8-0.7-0.9-1.2
			c-0.1-0.6,0.1-1.2,0.6-1.7c0.2-0.2,0.5-0.4,0.9-0.6c0.4-0.1,0.8-0.2,1.5-0.4c0.2,0,0.3-0.1,0.5-0.1s0.4-0.1,0.6-0.3
			c0.2-0.2,0.2-0.4,0.2-0.6c0-1.8,0-9.9,0-9.9c0-0.1,0-0.2,0-0.3c0-0.2,0.1-0.4,0.3-0.5c0.1-0.1,0.3-0.2,0.5-0.2l0,0l7.9-1.6
			c0.1,0,0.6-0.1,0.7-0.1c0.4,0,0.7,0.2,0.7,0.7L31.2,28.9L31.2,28.9z"/>
	</g>
</g>
</svg>
