<?xml version="1.0" encoding="utf-8"?>
<!-- Generator: Adobe Illustrator 25.0.1, SVG Export Plug-In . SVG Version: 6.00 Build 0)  -->
<svg version="1.1" id="Calque_1" xmlns="http://www.w3.org/2000/svg" xmlns:xlink="http://www.w3.org/1999/xlink" x="0px" y="0px"
	 viewBox="0 0 50 50" style="enable-background:new 0 0 50 50;" xml:space="preserve">
<style type="text/css">
	.st0{fill:#FFFFFF;}
</style>
<path class="st0" d="M30.5,10.2h-11c-4.8,0-8.8,3.9-8.8,8.8v11c0,4.8,3.9,8.8,8.8,8.8h2.8v-11h-3.9v-4.4h3.9v-3.4
	c0-3.8,2.4-5.9,5.9-5.7c1.7,0,3.1,0.1,3.5,0.1v3.9h-2.4c-1.9,0-2.3,0.8-2.3,2.2v2.9h4.4l-0.6,4.4H27v11h3.5c4.8,0,8.8-3.9,8.8-8.8
	v-11C39.3,14.1,35.3,10.2,30.5,10.2z"/>
</svg>
