<?xml version="1.0" encoding="utf-8"?>
<!-- Generator: Adobe Illustrator 25.0.1, SVG Export Plug-In . SVG Version: 6.00 Build 0)  -->
<svg version="1.1" id="Calque_1" xmlns="http://www.w3.org/2000/svg" xmlns:xlink="http://www.w3.org/1999/xlink" x="0px" y="0px"
	 viewBox="0 0 50 50" style="enable-background:new 0 0 50 50;" xml:space="preserve">
<style type="text/css">
	.st0{fill:#FFFFFF;}
</style>
<g>
	<g>
		<path class="st0" d="M26.1,10.1c-8,0-14.5,6.5-14.5,14.6s6.5,14.6,14.5,14.6s14.5-6.5,14.5-14.6S34.1,10.1,26.1,10.1z M32,31.6
			c-0.2,0-0.4-0.1-0.6-0.2c-2.1-1.3-4.7-1.9-7.5-1.9c-1.6,0-3.1,0.2-4.6,0.5c-0.2,0.1-0.5,0.1-0.7,0.1c-0.6,0-0.9-0.4-0.9-0.9
			c0-0.1,0-0.1,0-0.2c0.1-0.4,0.4-0.7,0.8-0.7c1.5-0.3,3.3-0.6,5.4-0.6c3.3,0,6.2,0.8,8.5,2.2c0.3,0.2,0.4,0.4,0.5,0.7
			c0,0,0,0.1,0,0.1C32.9,31.2,32.5,31.6,32,31.6z M33.6,27.7c-0.3,0-0.5-0.1-0.7-0.3c-2.4-1.4-5.6-2.3-9.2-2.3
			c-1.8,0-3.4,0.3-4.7,0.6c-0.3,0.1-0.4,0.2-0.7,0.2c-0.6,0-1.1-0.5-1.1-1.1c0-0.1,0-0.1,0-0.2c0.1-0.5,0.4-0.8,0.9-1
			c1.6-0.5,3.6-0.8,5.7-0.8c4,0,7.7,1.1,10.4,2.7c0.4,0.2,0.6,0.4,0.6,0.9c0,0,0,0.1,0,0.1C34.7,27.2,34.2,27.7,33.6,27.7z
			 M35.4,23.2c-0.3,0-0.5-0.1-0.7-0.2c-2.6-1.6-6.7-2.5-10.7-2.5c-2,0-4,0.2-5.8,0.7c-0.2,0.1-0.5,0.2-0.7,0.2
			c-0.8,0-1.4-0.6-1.4-1.4c0,0,0-0.1,0-0.1c0.1-0.6,0.5-1,1-1.2c2.1-0.6,4.3-0.9,6.9-0.9c4.4,0,8.8,0.9,12,2.8
			c0.5,0.3,0.7,0.6,0.8,1.1c0,0.1,0,0.1,0,0.2C36.7,22.7,36.1,23.2,35.4,23.2z"/>
	</g>
</g>
</svg>
